<?xml version="1.0" encoding="UTF-8" standalone="no"?>
<svg
   xmlns:dc="http://purl.org/dc/elements/1.1/"
   xmlns:cc="http://creativecommons.org/ns#"
   xmlns:rdf="http://www.w3.org/1999/02/22-rdf-syntax-ns#"
   xmlns:svg="http://www.w3.org/2000/svg"
   xmlns="http://www.w3.org/2000/svg"
   xmlns:sodipodi="http://sodipodi.sourceforge.net/DTD/sodipodi-0.dtd"
   xmlns:inkscape="http://www.inkscape.org/namespaces/inkscape"
   width="32"
   height="32"
   viewBox="0 0 8.4666666 8.4666666"
   version="1.1"
   id="svg8"
   inkscape:version="1.0.2-2 (e86c870879, 2021-01-15)"
   sodipodi:docname="arm.svg"
   inkscape:export-filename="D:\DEV_SRC\RxOT\DuAEF_Duik\icons\w16/w16_arm.png"
   inkscape:export-xdpi="48"
   inkscape:export-ydpi="48">
  <defs
     id="defs2">
    <style
       id="style1399">.cls-1{fill:#e3e3e3;}</style>
    <style
       id="style1399-4">.cls-1{fill:#e3e3e3;}</style>
    <style
       id="style1399-8">.cls-1{fill:#e3e3e3;}</style>
    <style
       id="style1399-4-5">.cls-1{fill:#e3e3e3;}</style>
    <style
       id="style1399-0">.cls-1{fill:#e3e3e3;}</style>
    <style
       id="style854">.cls-1{fill:#e3e3e3;}</style>
    <style
       id="style1399-84">.cls-1{fill:#e3e3e3;}</style>
    <style
       id="style1399-4-8">.cls-1{fill:#e3e3e3;}</style>
    <style
       id="style1399-8-10">.cls-1{fill:#e3e3e3;}</style>
    <style
       id="style1399-4-5-3">.cls-1{fill:#e3e3e3;}</style>
    <style
       id="style1399-0-0">.cls-1{fill:#e3e3e3;}</style>
    <style
       id="style1399-5">.cls-1{fill:#e3e3e3;}</style>
    <style
       id="style1399-4-6">.cls-1{fill:#e3e3e3;}</style>
    <style
       id="style1399-8-1">.cls-1{fill:#e3e3e3;}</style>
    <style
       id="style1399-4-5-1">.cls-1{fill:#e3e3e3;}</style>
    <style
       id="style1399-0-5">.cls-1{fill:#e3e3e3;}</style>
    <style
       id="style1257">.cls-1{fill:#e3e3e3;}</style>
  </defs>
  <sodipodi:namedview
     id="base"
     pagecolor="#ffffff"
     bordercolor="#666666"
     borderopacity="1.0"
     inkscape:pageopacity="0.0"
     inkscape:pageshadow="2"
     inkscape:zoom="5.656854"
     inkscape:cx="12.879765"
     inkscape:cy="7.7113973"
     inkscape:document-units="mm"
     inkscape:current-layer="svg8"
     showgrid="false"
     units="px"
     inkscape:window-width="3440"
     inkscape:window-height="1417"
     inkscape:window-x="1915"
     inkscape:window-y="-8"
     inkscape:window-maximized="1"
     inkscape:snap-bbox="true"
     inkscape:bbox-paths="true"
     inkscape:bbox-nodes="true"
     inkscape:snap-bbox-edge-midpoints="true"
     inkscape:snap-bbox-midpoints="true"
     inkscape:snap-nodes="true"
     inkscape:snap-others="true"
     inkscape:snap-object-midpoints="true"
     inkscape:snap-page="true"
     inkscape:document-rotation="0">
    <sodipodi:guide
       position="8.4666666,0"
       orientation="-32,0"
       id="guide854"
       inkscape:locked="false" />
    <sodipodi:guide
       position="6.7220706,8.4666666"
       orientation="0,-32"
       id="guide856"
       inkscape:locked="false" />
    <sodipodi:guide
       position="0,8.4666814"
       orientation="32,0"
       id="guide858"
       inkscape:locked="false" />
  </sodipodi:namedview>
  <metadata
     id="metadata5">
    <rdf:RDF>
      <cc:Work
         rdf:about="">
        <dc:format>image/svg+xml</dc:format>
        <dc:type
           rdf:resource="http://purl.org/dc/dcmitype/StillImage" />
        <dc:title />
      </cc:Work>
    </rdf:RDF>
  </metadata>
  <path
     id="path1312"
     style="fill:#b1b1b1;fill-opacity:1;stroke:none;stroke-width:0.98884916px;stroke-linecap:butt;stroke-linejoin:miter;stroke-opacity:1"
     d="M 9.6523438 0 C 8.4639507 0 2.5931184 3.3899902 3.0996094 5.3183594 C 3.6061003 7.2467291 5.8345125 6.5344247 6.3417969 6.0996094 C 6.8490809 5.664794 7.4190457 4.577014 7.765625 3.9726562 C 8.1122039 3.3682985 8.6467287 3.1040915 9 3.0585938 C 9.3532721 3.013096 10.113946 4.3438188 10.09375 4.6386719 C 10.073554 4.9335245 9.883413 5.5593615 9.5 5.5507812 C 9.1165866 5.542201 9.1785631 5.5242817 8.6601562 5.5917969 C 8.1417494 5.6593117 7.5057012 6.3730512 7.5957031 6.9238281 C 7.7287485 7.7380121 9.1343096 7.9127771 9.9316406 7.875 C 10.728972 7.8372236 12.763314 5.3141446 12.769531 4.5664062 C 12.775748 3.8186679 10.840738 1.0596575e-16 9.6523438 0 z M 25.40625 0 C 24.133463 0.034760542 23.669427 1.1916757 23.169922 1.4882812 C 21.942897 2.2168881 20.889299 2.4343555 19.671875 3.9511719 C 18.209895 5.7726876 18.12998 9.8543463 19.898438 9.9042969 C 20.00957 9.9074359 20.106501 9.9001074 20.193359 9.8828125 C 20.378694 7.4060835 21.814485 4.9761815 24.257812 3.6171875 C 25.226178 3.0785769 26.329335 2.9445536 27.355469 3.1035156 C 27.492555 2.9863905 27.623566 2.8447994 27.742188 2.65625 C 28.30141 1.7673611 27.670884 -0.06184849 25.40625 0 z M 26.458984 5.1914062 C 26.059781 5.2036343 25.672323 5.3057238 25.3125 5.5058594 C 22.068543 7.3101677 21.310999 11.177501 23.564453 13.611328 C 25.624462 15.836226 29.765529 17.017914 31.347656 16.220703 C 32.677342 15.501831 31.862299 9.9054033 29.931641 7.2578125 C 28.958649 5.9235102 27.656595 5.1547221 26.458984 5.1914062 z M 3 7.8769531 C 2.0097813 7.8668256 1.1326094 8.4404353 0.99804688 9.8574219 C 0.87144109 11.190621 1.6748289 11.267968 0.7578125 16.492188 C -0.065677871 21.183591 -0.20271326 25.796782 0.27148438 28.060547 C 1.116115 32.092716 4.013178 32.619025 4.8789062 31.464844 C 4.9054356 31.429475 4.9145887 31.387955 4.9316406 31.349609 C 4.1592655 29.994361 4.0658937 28.289918 5.1699219 26.945312 C 5.1772703 26.936364 5.184063 26.932604 5.1914062 26.923828 C 5.2221441 26.847725 5.2485195 26.764927 5.265625 26.669922 C 5.397439 25.937828 4.2919008 26.05718 4.1269531 25.556641 C 3.9413315 24.993366 3.6795623 22.617147 4.2050781 18.746094 C 4.7515453 14.720711 6.5543324 12.501526 6.0488281 10.261719 C 5.7341495 8.867429 4.2731383 7.8899742 3 7.8769531 z M 20.751953 13.199219 C 18.575399 14.031975 17.145716 14.820986 14.912109 17.574219 C 12.183356 20.93779 10.486394 24.508743 9.7226562 25.486328 C 8.0818085 27.586613 6.9295054 27.314997 6.4023438 27.957031 C 4.920473 29.761813 7.4652995 33.943179 11.050781 30.910156 C 12.415047 29.7561 13.687854 26.096514 17.480469 21.8125 C 19.769576 19.226801 23.548382 19.516905 25.261719 17.421875 C 24.066121 16.854107 22.920187 16.101187 21.976562 15.082031 C 21.445056 14.507981 21.045906 13.869326 20.751953 13.199219 z "
     transform="scale(0.26458333)" />
</svg>
