<?xml version="1.0" encoding="UTF-8" standalone="no"?>
<svg
   xmlns:dc="http://purl.org/dc/elements/1.1/"
   xmlns:cc="http://creativecommons.org/ns#"
   xmlns:rdf="http://www.w3.org/1999/02/22-rdf-syntax-ns#"
   xmlns:svg="http://www.w3.org/2000/svg"
   xmlns="http://www.w3.org/2000/svg"
   xmlns:sodipodi="http://sodipodi.sourceforge.net/DTD/sodipodi-0.dtd"
   xmlns:inkscape="http://www.inkscape.org/namespaces/inkscape"
   width="32"
   height="32"
   viewBox="0 0 8.4666666 8.4666666"
   version="1.1"
   id="svg8"
   inkscape:version="1.0.2-2 (e86c870879, 2021-01-15)"
   sodipodi:docname="bones.svg"
   inkscape:export-filename="D:\DEV_SRC\RxOT\DuAEF_Duik\icons\w16\w16_bones.png"
   inkscape:export-xdpi="48"
   inkscape:export-ydpi="48">
  <defs
     id="defs2">
    <style
       id="style1399">.cls-1{fill:#e3e3e3;}</style>
    <style
       id="style1399-4">.cls-1{fill:#e3e3e3;}</style>
    <style
       id="style1399-8">.cls-1{fill:#e3e3e3;}</style>
    <style
       id="style1399-4-5">.cls-1{fill:#e3e3e3;}</style>
    <style
       id="style1399-0">.cls-1{fill:#e3e3e3;}</style>
  </defs>
  <sodipodi:namedview
     id="base"
     pagecolor="#ffffff"
     bordercolor="#666666"
     borderopacity="1.0"
     inkscape:pageopacity="0.0"
     inkscape:pageshadow="2"
     inkscape:zoom="11.313708"
     inkscape:cx="13.708645"
     inkscape:cy="21.521715"
     inkscape:document-units="mm"
     inkscape:current-layer="svg8"
     showgrid="false"
     units="px"
     inkscape:window-width="3440"
     inkscape:window-height="1417"
     inkscape:window-x="1915"
     inkscape:window-y="-8"
     inkscape:window-maximized="1"
     inkscape:snap-bbox="true"
     inkscape:bbox-paths="true"
     inkscape:bbox-nodes="true"
     inkscape:snap-bbox-edge-midpoints="true"
     inkscape:snap-bbox-midpoints="true"
     inkscape:snap-nodes="false"
     inkscape:snap-others="true"
     inkscape:snap-object-midpoints="true"
     inkscape:snap-page="true"
     inkscape:document-rotation="0">
    <sodipodi:guide
       position="8.4666666,0"
       orientation="-32,0"
       id="guide854"
       inkscape:locked="false" />
    <sodipodi:guide
       position="9.9384114,8.4666666"
       orientation="0,-32"
       id="guide856"
       inkscape:locked="false" />
    <sodipodi:guide
       position="0,8.4666814"
       orientation="32,0"
       id="guide858"
       inkscape:locked="false" />
  </sodipodi:namedview>
  <metadata
     id="metadata5">
    <rdf:RDF>
      <cc:Work
         rdf:about="">
        <dc:format>image/svg+xml</dc:format>
        <dc:type
           rdf:resource="http://purl.org/dc/dcmitype/StillImage" />
        <dc:title />
      </cc:Work>
    </rdf:RDF>
  </metadata>
  <path
     id="path828"
     style="opacity:1;fill:#b1b1b1;fill-opacity:1;stroke:none;stroke-width:6.49407959;stroke-linecap:butt;stroke-linejoin:miter;stroke-miterlimit:4;stroke-dasharray:none;stroke-dashoffset:0;stroke-opacity:1"
     d="M 11.455078 0.00390625 C 10.861493 -0.019699873 10.25439 0.045190118 9.6503906 0.20703125 C 6.4290607 1.070184 4.5157536 4.3821854 5.3789062 7.6035156 C 6.24206 10.824845 9.55406 12.7362 12.775391 11.873047 C 13.421538 11.697412 14.034238 11.415657 14.587891 11.039062 L 27.708984 18.382812 C 28.964056 19.107428 30.556634 18.68085 31.28125 17.425781 L 31.306641 17.382812 C 31.668926 16.755269 31.745336 16.044338 31.572266 15.398438 C 31.399199 14.752539 30.977146 14.172855 30.349609 13.810547 L 17.228516 6.4628906 C 17.27783 5.7951169 17.215868 5.1239619 17.044922 4.4765625 C 16.34361 1.8592317 14.027279 0.10619945 11.455078 0.00390625 z M 10.994141 2.3554688 C 12.707685 2.2522835 14.316162 3.3610533 14.777344 5.0839844 C 15.305423 7.0527758 14.137033 9.0784034 12.167969 9.6054688 C 10.199176 10.133548 8.1755021 8.9651573 7.6484375 6.9960938 C 7.1203566 5.0273016 8.2887478 3.001675 10.257812 2.4746094 C 10.503912 2.4085994 10.749349 2.3702095 10.994141 2.3554688 z M 11.123047 4.5136719 C 11.021631 4.5197789 10.918364 4.5351525 10.816406 4.5625 C 10.000636 4.7808614 9.5175475 5.6198893 9.7363281 6.4355469 C 9.9546866 7.2513201 10.791764 7.736358 11.607422 7.5175781 C 12.423193 7.2992171 12.908233 6.4601896 12.689453 5.6445312 C 12.49839 4.930731 11.832958 4.4709228 11.123047 4.5136719 z M 6.8320312 12.396484 L 4.890625 20.039062 C 4.2328409 20.164261 3.6006229 20.397772 3.0195312 20.730469 C 0.13136571 22.397952 -0.85693652 26.092303 0.81054688 28.980469 C 2.4780297 31.868634 6.1704281 32.856936 9.0585938 31.189453 C 11.946759 29.52197 12.937014 25.829572 11.269531 22.941406 C 10.932645 22.362733 10.501199 21.843567 9.9941406 21.40625 L 11.941406 13.728516 C 10.100426 13.900558 8.2987964 13.403442 6.8320312 12.396484 z M 6.296875 22.277344 C 7.4786903 22.360794 8.5996171 23.011762 9.2363281 24.115234 C 10.255975 25.880265 9.6503209 28.137513 7.8847656 29.15625 C 6.1197361 30.175898 3.8624873 29.572196 2.84375 27.806641 C 1.8241026 26.04161 2.427804 23.782409 4.1933594 22.763672 C 4.8552453 22.381304 5.5877858 22.227274 6.296875 22.277344 z M 6.1464844 24.435547 C 5.852713 24.414803 5.5496062 24.478306 5.2753906 24.636719 C 4.5439315 25.058774 4.2924097 25.993368 4.7148438 26.724609 C 5.1369005 27.456069 6.0734461 27.707591 6.8046875 27.285156 C 7.536147 26.8631 7.7857149 25.926554 7.3632812 25.195312 C 7.0994956 24.738152 6.6361033 24.47012 6.1464844 24.435547 z "
     transform="scale(0.26458333)" />
</svg>
