<?xml version="1.0" encoding="UTF-8" standalone="no"?>
<svg
   xmlns:dc="http://purl.org/dc/elements/1.1/"
   xmlns:cc="http://creativecommons.org/ns#"
   xmlns:rdf="http://www.w3.org/1999/02/22-rdf-syntax-ns#"
   xmlns:svg="http://www.w3.org/2000/svg"
   xmlns="http://www.w3.org/2000/svg"
   xmlns:sodipodi="http://sodipodi.sourceforge.net/DTD/sodipodi-0.dtd"
   xmlns:inkscape="http://www.inkscape.org/namespaces/inkscape"
   width="32"
   height="32"
   viewBox="0 0 8.4666666 8.4666666"
   version="1.1"
   id="svg8"
   inkscape:version="1.0.2-2 (e86c870879, 2021-01-15)"
   sodipodi:docname="cat.svg"
   inkscape:export-filename="D:\DEV_SRC\RxOT\DuAEF_Duik\icons\w16/w16_cat.png"
   inkscape:export-xdpi="48"
   inkscape:export-ydpi="48">
  <defs
     id="defs2">
    <inkscape:path-effect
       effect="mirror_symmetry"
       start_point="4.2333333,0"
       end_point="4.2333333,8.4666667"
       center_point="4.2333333,4.2333333"
       id="path-effect897"
       is_visible="true"
       mode="vertical"
       discard_orig_path="false"
       fuse_paths="false"
       oposite_fuse="false" />
    <inkscape:path-effect
       effect="mirror_symmetry"
       start_point="4.2328811,1.6730093"
       end_point="4.2328811,6.1768975"
       center_point="4.2328811,3.9249534"
       id="path-effect862"
       is_visible="true"
       mode="free"
       discard_orig_path="false"
       fuse_paths="false"
       oposite_fuse="false" />
    <inkscape:path-effect
       effect="mirror_symmetry"
       start_point="4.2333333,0"
       end_point="4.2333333,8.4666667"
       center_point="4.2333333,4.2333333"
       id="path-effect858"
       is_visible="true"
       mode="vertical"
       discard_orig_path="false"
       fuse_paths="false"
       oposite_fuse="false" />
    <inkscape:path-effect
       effect="mirror_symmetry"
       start_point="4.2333333,0"
       end_point="4.2333333,8.4666667"
       center_point="4.2333333,4.2333333"
       id="path-effect854"
       is_visible="true"
       mode="vertical"
       discard_orig_path="false"
       fuse_paths="false"
       oposite_fuse="false" />
    <style
       id="style1399">.cls-1{fill:#e3e3e3;}</style>
    <style
       id="style1399-4">.cls-1{fill:#e3e3e3;}</style>
    <style
       id="style1399-8">.cls-1{fill:#e3e3e3;}</style>
    <style
       id="style1399-4-5">.cls-1{fill:#e3e3e3;}</style>
  </defs>
  <sodipodi:namedview
     id="base"
     pagecolor="#ffffff"
     bordercolor="#666666"
     borderopacity="1.0"
     inkscape:pageopacity="0.0"
     inkscape:pageshadow="2"
     inkscape:zoom="16.000001"
     inkscape:cx="14.252922"
     inkscape:cy="35.386486"
     inkscape:document-units="mm"
     inkscape:current-layer="svg8"
     showgrid="false"
     units="px"
     inkscape:window-width="3440"
     inkscape:window-height="1417"
     inkscape:window-x="1915"
     inkscape:window-y="-8"
     inkscape:window-maximized="1"
     inkscape:document-rotation="0">
    <sodipodi:guide
       position="8.4666666,0"
       orientation="-32,0"
       id="guide854"
       inkscape:locked="false" />
    <sodipodi:guide
       position="0,8.4666814"
       orientation="0,-32"
       id="guide856"
       inkscape:locked="false" />
    <sodipodi:guide
       position="0,8.4666814"
       orientation="32,0"
       id="guide858"
       inkscape:locked="false" />
  </sodipodi:namedview>
  <metadata
     id="metadata5">
    <rdf:RDF>
      <cc:Work
         rdf:about="">
        <dc:format>image/svg+xml</dc:format>
        <dc:type
           rdf:resource="http://purl.org/dc/dcmitype/StillImage" />
        <dc:title />
      </cc:Work>
    </rdf:RDF>
  </metadata>
  <path
     d="m 4.8156262,3.0046754 c -0.3327673,0 -1.7614567,0.032651 -2.6811013,1.4173113 V 3.0046754 c 0,-0.8729781 -0.7100575,-1.5830354 -1.58303549,-1.5830354 -0.29137742,0 -0.52767848,0.236301 -0.52767848,0.5276785 0,0.2913774 0.23630106,0.5276784 0.52767848,0.5276784 0.29088279,0 0.52767849,0.2367958 0.52767849,0.5276785 V 7.226103 c 0,0.5820954 0.4732616,1.0553574 1.055357,1.0553574 h 2.9022315 c 0.1457712,0 0.2638395,-0.1180683 0.2638395,-0.2638395 v -0.263839 c 0,-0.2913778 -0.2363013,-0.5276789 -0.5276787,-0.5276789 H 4.2452388 l 2.110714,-1.5830355 v 2.3745534 c 0,0.1457712 0.1180683,0.2638395 0.263839,0.2638395 h 0.5276785 c 0.1457712,0 0.2638391,-0.1180683 0.2638391,-0.2638395 v -3.399239 c -0.1696817,0.044028 -0.3444748,0.074865 -0.5276781,0.074865 -1.0192443,0 -1.8719395,-0.7263824 -2.0680051,-1.6885715 z M 7.4113094,1.42164 H 6.3559528 L 5.3005959,0.366283 v 2.2162496 c 0,0.8742973 0.708738,1.5830354 1.5830354,1.5830354 0.874297,0 1.5830354,-0.7087381 1.5830354,-1.5830354 V 0.366283 Z M 6.2240329,2.7408362 c -0.1457713,0 -0.2638391,-0.1180681 -0.2638391,-0.2638393 0,-0.1457712 0.1180678,-0.2638392 0.2638391,-0.2638392 0.1457712,0 0.2638394,0.118068 0.2638394,0.2638392 0,0.1457712 -0.1180682,0.2638393 -0.2638394,0.2638393 z m 1.3191964,0 c -0.1457713,0 -0.263839,-0.1180681 -0.263839,-0.2638393 0,-0.1457712 0.1180677,-0.2638392 0.263839,-0.2638392 0.1457712,0 0.263839,0.118068 0.263839,0.2638392 0,0.1457712 -0.1180678,0.2638393 -0.263839,0.2638393 z"
     id="path841"
     style="stroke-width:0.0164899;fill:#b1b1b1;fill-opacity:1" />
</svg>
