<?xml version="1.0" encoding="UTF-8" standalone="no"?>
<!-- Created with Inkscape (http://www.inkscape.org/) -->

<svg
   width="32"
   height="32"
   viewBox="0 0 8.4666666 8.4666666"
   version="1.1"
   id="svg8"
   inkscape:version="1.1 (c68e22c387, 2021-05-23)"
   sodipodi:docname="composition.svg"
   inkscape:export-filename="D:\DEV_SRC\RxOT\DuAEF\DuAEF_Duik\icons\w16\w16_composition.png"
   inkscape:export-xdpi="48"
   inkscape:export-ydpi="48"
   xmlns:inkscape="http://www.inkscape.org/namespaces/inkscape"
   xmlns:sodipodi="http://sodipodi.sourceforge.net/DTD/sodipodi-0.dtd"
   xmlns="http://www.w3.org/2000/svg"
   xmlns:svg="http://www.w3.org/2000/svg"
   xmlns:rdf="http://www.w3.org/1999/02/22-rdf-syntax-ns#"
   xmlns:cc="http://creativecommons.org/ns#"
   xmlns:dc="http://purl.org/dc/elements/1.1/">
  <defs
     id="defs2">
    <style
       id="style1399">.cls-1{fill:#e3e3e3;}</style>
  </defs>
  <sodipodi:namedview
     id="base"
     pagecolor="#ffffff"
     bordercolor="#666666"
     borderopacity="1.0"
     inkscape:pageopacity="0.0"
     inkscape:pageshadow="2"
     inkscape:zoom="5.6568545"
     inkscape:cx="-12.462756"
     inkscape:cy="8.5736693"
     inkscape:document-units="mm"
     inkscape:current-layer="svg8"
     showgrid="false"
     units="px"
     inkscape:window-width="1920"
     inkscape:window-height="1027"
     inkscape:window-x="-8"
     inkscape:window-y="-8"
     inkscape:window-maximized="1"
     inkscape:snap-bbox="true"
     inkscape:bbox-nodes="true"
     inkscape:bbox-paths="true"
     inkscape:snap-bbox-edge-midpoints="true"
     inkscape:snap-bbox-midpoints="true"
     inkscape:snap-nodes="false"
     inkscape:pagecheckerboard="1">
    <sodipodi:guide
       position="8.4666666,0"
       orientation="-32,0"
       id="guide854"
       inkscape:locked="false" />
    <sodipodi:guide
       position="8.4666666,8.4666666"
       orientation="0,-32"
       id="guide856"
       inkscape:locked="false" />
    <sodipodi:guide
       position="0,8.4666814"
       orientation="32,0"
       id="guide858"
       inkscape:locked="false" />
  </sodipodi:namedview>
  <metadata
     id="metadata5">
    <rdf:RDF>
      <cc:Work
         rdf:about="">
        <dc:format>image/svg+xml</dc:format>
        <dc:type
           rdf:resource="http://purl.org/dc/dcmitype/StillImage" />
        <dc:title />
      </cc:Work>
    </rdf:RDF>
  </metadata>
  <path
     style="fill:#b1b1b1;fill-opacity:1;stroke-width:0.06250001"
     d="M 1.5 3.9433594 C 0.66875282 3.9433594 0 4.6121094 0 5.4433594 L 0 26.443359 C 0 27.27461 0.66875282 27.943359 1.5 27.943359 L 2 27.943359 L 2 26.693359 C 2 26.28086 2.3375095 25.943359 2.75 25.943359 L 5.25 25.943359 C 5.6625018 25.943359 6 26.280861 6 26.693359 L 6 27.943359 L 26 27.943359 L 26 26.693359 C 26 26.28086 26.337507 25.943359 26.75 25.943359 L 29.25 25.943359 C 29.662498 25.943359 30 26.280861 30 26.693359 L 30 27.943359 L 30.5 27.943359 C 31.331247 27.943359 32 27.27461 32 26.443359 L 32 5.4433594 C 32 4.6121094 31.331247 3.9433594 30.5 3.9433594 L 30 3.9433594 L 30 5.1933594 C 30 5.6058597 29.66249 5.9433594 29.25 5.9433594 L 26.75 5.9433594 C 26.337502 5.9433594 26 5.6058597 26 5.1933594 L 26 3.9433594 L 6 3.9433594 L 6 5.1933594 C 6 5.6058597 5.6624935 5.9433594 5.25 5.9433594 L 2.75 5.9433594 C 2.337502 5.9433594 2 5.6058597 2 5.1933594 L 2 3.9433594 L 1.5 3.9433594 z M 2.75 7.9433594 L 5.25 7.9433594 C 5.6625018 7.9433594 6 8.2808595 6 8.6933594 L 6 11.193359 C 6 11.60586 5.6624935 11.943359 5.25 11.943359 L 2.75 11.943359 C 2.337502 11.943359 2 11.605859 2 11.193359 L 2 8.6933594 C 2 8.2808591 2.3375095 7.9433594 2.75 7.9433594 z M 26.75 7.9433594 L 29.25 7.9433594 C 29.662498 7.9433594 30 8.2808595 30 8.6933594 L 30 11.193359 C 30 11.60586 29.66249 11.943359 29.25 11.943359 L 26.75 11.943359 C 26.337502 11.943359 26 11.605859 26 11.193359 L 26 8.6933594 C 26 8.2808591 26.337507 7.9433594 26.75 7.9433594 z M 10.154297 10.207031 C 11.453174 10.207031 12.505859 11.259718 12.505859 12.558594 C 12.505859 13.85747 11.453174 14.910156 10.154297 14.910156 C 8.8554225 14.910156 7.8027344 13.85747 7.8027344 12.558594 C 7.8027344 11.259718 8.8554225 10.207031 10.154297 10.207031 z M 20.234375 12.767578 C 20.363353 12.767578 20.491448 12.815664 20.589844 12.914062 L 24.265625 16.589844 L 24.265625 21.292969 L 8.1386719 21.292969 L 8.1386719 19.277344 L 11.142578 16.275391 C 11.339418 16.078594 11.656723 16.078594 11.853516 16.275391 L 14.185547 18.605469 L 19.876953 12.914062 C 19.975372 12.815664 20.105397 12.767578 20.234375 12.767578 z M 2.75 13.943359 L 5.25 13.943359 C 5.6625018 13.943359 6 14.28086 6 14.693359 L 6 17.193359 C 6 17.605859 5.6624935 17.943359 5.25 17.943359 L 2.75 17.943359 C 2.337502 17.943359 2 17.605859 2 17.193359 L 2 14.693359 C 2 14.280859 2.3375095 13.943359 2.75 13.943359 z M 26.75 13.943359 L 29.25 13.943359 C 29.662498 13.943359 30 14.28086 30 14.693359 L 30 17.193359 C 30 17.605859 29.66249 17.943359 29.25 17.943359 L 26.75 17.943359 C 26.337502 17.943359 26 17.605859 26 17.193359 L 26 14.693359 C 26 14.280859 26.337507 13.943359 26.75 13.943359 z M 2.75 19.943359 L 5.25 19.943359 C 5.6625018 19.943359 6 20.280861 6 20.693359 L 6 23.193359 C 6 23.605859 5.6624935 23.943359 5.25 23.943359 L 2.75 23.943359 C 2.337502 23.943359 2 23.605858 2 23.193359 L 2 20.693359 C 2 20.28086 2.3375095 19.943359 2.75 19.943359 z M 26.75 19.943359 L 29.25 19.943359 C 29.662498 19.943359 30 20.280861 30 20.693359 L 30 23.193359 C 30 23.605859 29.66249 23.943359 29.25 23.943359 L 26.75 23.943359 C 26.337502 23.943359 26 23.605858 26 23.193359 L 26 20.693359 C 26 20.28086 26.337507 19.943359 26.75 19.943359 z "
     transform="scale(0.26458333)"
     id="path1222" />
</svg>
