<?xml version="1.0" encoding="UTF-8" standalone="no"?>
<!-- Created with Inkscape (http://www.inkscape.org/) -->

<svg
   width="32"
   height="32"
   viewBox="0 0 8.4666666 8.4666666"
   version="1.1"
   id="svg8"
   inkscape:version="1.1 (c68e22c387, 2021-05-23)"
   sodipodi:docname="constraints.svg"
   inkscape:export-filename="C:\DEV_SRC\RxOT\DuAEF_Duik\icons\w12\w12_constraints.png"
   inkscape:export-xdpi="36"
   inkscape:export-ydpi="36"
   xmlns:inkscape="http://www.inkscape.org/namespaces/inkscape"
   xmlns:sodipodi="http://sodipodi.sourceforge.net/DTD/sodipodi-0.dtd"
   xmlns="http://www.w3.org/2000/svg"
   xmlns:svg="http://www.w3.org/2000/svg"
   xmlns:rdf="http://www.w3.org/1999/02/22-rdf-syntax-ns#"
   xmlns:cc="http://creativecommons.org/ns#"
   xmlns:dc="http://purl.org/dc/elements/1.1/">
  <defs
     id="defs2" />
  <sodipodi:namedview
     id="base"
     pagecolor="#ffffff"
     bordercolor="#666666"
     borderopacity="1.0"
     inkscape:pageopacity="0.0"
     inkscape:pageshadow="2"
     inkscape:zoom="11.313708"
     inkscape:cx="5.5684661"
     inkscape:cy="9.3691653"
     inkscape:document-units="mm"
     inkscape:current-layer="layer1"
     showgrid="false"
     units="px"
     inkscape:window-width="1920"
     inkscape:window-height="1137"
     inkscape:window-x="-8"
     inkscape:window-y="-8"
     inkscape:window-maximized="1"
     inkscape:pagecheckerboard="1">
    <sodipodi:guide
       position="8.4666666,0"
       orientation="-32,0"
       id="guide854"
       inkscape:locked="false" />
    <sodipodi:guide
       position="8.4666666,8.4666666"
       orientation="0,-32"
       id="guide856"
       inkscape:locked="false" />
    <sodipodi:guide
       position="0,8.4666814"
       orientation="32,0"
       id="guide858"
       inkscape:locked="false" />
  </sodipodi:namedview>
  <metadata
     id="metadata5">
    <rdf:RDF>
      <cc:Work
         rdf:about="">
        <dc:format>image/svg+xml</dc:format>
        <dc:type
           rdf:resource="http://purl.org/dc/dcmitype/StillImage" />
        <dc:title />
      </cc:Work>
    </rdf:RDF>
  </metadata>
  <g
     inkscape:label="Layer 1"
     inkscape:groupmode="layer"
     id="layer1"
     transform="translate(0,-288.53334)">
    <path
       id="path1208"
       d="m 5.38242,291.62343 c 0.984393,0.98541 0.9708825,2.56527 0.00594,3.53559 -0.00185,10e-4 -0.00396,0.004 -0.00594,0.006 l -1.1071898,1.1072 c -0.976534,0.97652 -2.5653012,0.97639 -3.54168728,0 -0.97653472,-0.97638 -0.97653472,-2.56532 0,-3.5417 l 0.61135968,-0.61134 c 0.162124,-0.16215 0.4413267,-0.0544 0.4496964,0.17474 0.010684,0.29198 0.063038,0.58534 0.1596529,0.86862 0.032722,0.096 0.00934,0.20203 -0.062329,0.2737 l -0.2156221,0.21563 c -0.4617572,0.46175 -0.4762399,1.21361 -0.019029,1.67988 0.4617246,0.47087 1.2206434,0.47368 1.6859098,0.009 l 1.1071895,-1.10702 c 0.4644757,-0.46448 0.4625316,-1.21522 0,-1.67776 -0.060977,-0.0609 -0.1223997,-0.10819 -0.1703787,-0.14113 a 0.26422613,0.26422613 0 0 1 -0.1144584,-0.2076 c -0.00653,-0.1741 0.055161,-0.3535 0.1927364,-0.49108 l 0.3468862,-0.3469 c 0.090965,-0.091 0.2336635,-0.10214 0.3391433,-0.0285 a 2.5122982,2.5122982 0 0 1 0.338121,0.28334 z m 2.3220492,-2.32218 c -0.976386,-0.97639 -2.5651531,-0.97653 -3.541688,0 l -1.1071888,1.10719 c -0.00195,0.001 -0.00412,0.004 -0.00594,0.006 -0.9649348,0.97029 -0.9784621,2.55017 0.00594,3.53558 a 2.5118369,2.5118369 0 0 0 0.3381042,0.28333 c 0.1054803,0.0735 0.2481951,0.0623 0.339143,-0.0286 l 0.3468864,-0.34689 c 0.1375754,-0.1375 0.1992612,-0.31699 0.1927362,-0.49108 a 0.26422613,0.26422613 0 0 0 -0.1144589,-0.2077 c -0.047978,-0.0331 -0.1094015,-0.0804 -0.1703787,-0.14113 -0.4625314,-0.46253 -0.4644757,-1.21327 0,-1.67775 l 1.1071895,-1.10702 c 0.4652666,-0.46528 1.2241695,-0.46248 1.6859099,0.009 0.4572095,0.46628 0.4427437,1.21814 -0.019029,1.67991 l -0.2156216,0.21561 c -0.071671,0.0716 -0.095051,0.17777 -0.062328,0.2737 0.096615,0.28329 0.1489765,0.57665 0.1596524,0.86864 0.00839,0.2291 0.2875728,0.33686 0.4496969,0.17474 l 0.6113596,-0.61136 c 0.9765511,-0.97636 0.9765511,-2.5653 1.63e-5,-3.54167 z"
       inkscape:connector-curvature="0"
       style="fill:#b1b1b1;fill-opacity:1;stroke-width:0.016476"
       inkscape:export-filename="D:\DEV_SRC\RxOT\DuAEF\DuAEF_Duik\icons\w16\w16_constraints.png"
       inkscape:export-xdpi="48"
       inkscape:export-ydpi="48" />
  </g>
</svg>
