<?xml version="1.0" encoding="UTF-8" standalone="no"?>
<svg
   xmlns:dc="http://purl.org/dc/elements/1.1/"
   xmlns:cc="http://creativecommons.org/ns#"
   xmlns:rdf="http://www.w3.org/1999/02/22-rdf-syntax-ns#"
   xmlns:svg="http://www.w3.org/2000/svg"
   xmlns="http://www.w3.org/2000/svg"
   xmlns:sodipodi="http://sodipodi.sourceforge.net/DTD/sodipodi-0.dtd"
   xmlns:inkscape="http://www.inkscape.org/namespaces/inkscape"
   width="32"
   height="32"
   viewBox="0 0 8.4666666 8.4666666"
   version="1.1"
   id="svg8"
   inkscape:version="1.0.2-2 (e86c870879, 2021-01-15)"
   sodipodi:docname="copy.svg"
   inkscape:export-filename="D:\DEV_SRC\RxOT\DuAEF_Duik\icons\w12\w12_copy.png"
   inkscape:export-xdpi="36"
   inkscape:export-ydpi="36">
  <defs
     id="defs2" />
  <sodipodi:namedview
     id="base"
     pagecolor="#ffffff"
     bordercolor="#666666"
     borderopacity="1.0"
     inkscape:pageopacity="0.0"
     inkscape:pageshadow="2"
     inkscape:zoom="15.999999"
     inkscape:cx="12.50454"
     inkscape:cy="16.196072"
     inkscape:document-units="mm"
     inkscape:current-layer="layer1"
     showgrid="false"
     units="px"
     inkscape:window-width="3378"
     inkscape:window-height="1417"
     inkscape:window-x="973"
     inkscape:window-y="-8"
     inkscape:window-maximized="1"
     inkscape:snap-bbox="true"
     inkscape:bbox-paths="true"
     inkscape:bbox-nodes="true"
     inkscape:snap-bbox-edge-midpoints="true"
     inkscape:snap-bbox-midpoints="true"
     inkscape:snap-nodes="false"
     inkscape:document-rotation="0">
    <sodipodi:guide
       position="8.4666666,0"
       orientation="-32,0"
       id="guide854"
       inkscape:locked="false" />
    <sodipodi:guide
       position="8.4666666,8.4666666"
       orientation="0,-32"
       id="guide856"
       inkscape:locked="false" />
    <sodipodi:guide
       position="0,8.4666814"
       orientation="32,0"
       id="guide858"
       inkscape:locked="false" />
  </sodipodi:namedview>
  <metadata
     id="metadata5">
    <rdf:RDF>
      <cc:Work
         rdf:about="">
        <dc:format>image/svg+xml</dc:format>
        <dc:type
           rdf:resource="http://purl.org/dc/dcmitype/StillImage" />
        <dc:title></dc:title>
      </cc:Work>
    </rdf:RDF>
  </metadata>
  <g
     inkscape:label="Layer 1"
     inkscape:groupmode="layer"
     id="layer1"
     transform="translate(0,-288.53334)">
    <path
       id="path819"
       d="m 5.6884215,295.9368 v 0.66103 c 0,0.21904 -0.1775673,0.3966 -0.3966138,0.3966 H 0.79684991 c -0.21904684,0 -0.39661406,-0.17756 -0.39661406,-0.3966 v -6.08142 c 0,-0.21905 0.17756722,-0.39662 0.39661406,-0.39662 H 1.9866914 v 4.89157 c 0,0.5103 0.4151391,0.92544 0.9254325,0.92544 z m 0,-5.6848 v -1.71866 H 2.9121239 c -0.2190466,0 -0.3966138,0.17756 -0.3966138,0.39661 v 6.08141 c 0,0.21905 0.1775672,0.39662 0.3966138,0.39662 h 4.4949579 c 0.2190468,0 0.3966137,-0.17757 0.3966137,-0.39662 v -4.36275 H 6.0850356 c -0.2181378,0 -0.3966141,-0.17848 -0.3966141,-0.39661 z m 1.9991162,-0.51277 -1.0897301,-1.08973 a 0.39661392,0.39661392 0 0 0 -0.280439,-0.11616 H 6.21724 v 1.58645 h 1.5864554 v -0.10008 a 0.39661392,0.39661392 0 0 0 -0.1161578,-0.28044 z"
       inkscape:connector-curvature="0"
       style="fill:#b1b1b1;stroke-width:0.0165256;fill-opacity:1" />
  </g>
</svg>
