<?xml version="1.0" encoding="UTF-8" standalone="no"?>
<svg
   id="Calque_1"
   data-name="Calque 1"
   viewBox="0 0 32 32"
   version="1.1"
   sodipodi:docname="digitigrade_arm.svg"
   inkscape:version="1.1 (c68e22c387, 2021-05-23)"
   inkscape:export-filename="D:\DEV_SRC\RxOT\DuAEF\DuAEF_Duik\icons\w128/w128_digitigrade_arm.png"
   inkscape:export-xdpi="384"
   inkscape:export-ydpi="384"
   xmlns:inkscape="http://www.inkscape.org/namespaces/inkscape"
   xmlns:sodipodi="http://sodipodi.sourceforge.net/DTD/sodipodi-0.dtd"
   xmlns="http://www.w3.org/2000/svg"
   xmlns:svg="http://www.w3.org/2000/svg"
   xmlns:rdf="http://www.w3.org/1999/02/22-rdf-syntax-ns#"
   xmlns:cc="http://creativecommons.org/ns#"
   xmlns:dc="http://purl.org/dc/elements/1.1/">
  <metadata
     id="metadata31">
    <rdf:RDF>
      <cc:Work
         rdf:about="">
        <dc:format>image/svg+xml</dc:format>
        <dc:type
           rdf:resource="http://purl.org/dc/dcmitype/StillImage" />
        <dc:title>body_l</dc:title>
      </cc:Work>
    </rdf:RDF>
  </metadata>
  <sodipodi:namedview
     pagecolor="#ffffff"
     bordercolor="#666666"
     borderopacity="1"
     objecttolerance="10"
     gridtolerance="10"
     guidetolerance="10"
     inkscape:pageopacity="0"
     inkscape:pageshadow="2"
     inkscape:window-width="1920"
     inkscape:window-height="1027"
     id="namedview29"
     showgrid="false"
     inkscape:snap-bbox="true"
     inkscape:bbox-paths="true"
     inkscape:bbox-nodes="true"
     inkscape:snap-bbox-edge-midpoints="true"
     inkscape:snap-bbox-midpoints="true"
     inkscape:snap-nodes="false"
     inkscape:zoom="10.429825"
     inkscape:cx="-5.3692176"
     inkscape:cy="23.538266"
     inkscape:window-x="-8"
     inkscape:window-y="-8"
     inkscape:window-maximized="1"
     inkscape:current-layer="g1118"
     inkscape:document-rotation="0"
     inkscape:pagecheckerboard="0" />
  <defs
     id="defs4">
    <style
       id="style2">.cls-1{fill:#e3e3e3;}</style>
    <style
       id="style857">.cls-1{fill:#e3e3e3;}</style>
    <style
       id="style990">.cls-1{fill:#e3e3e3;}</style>
    <style
       id="style1091">.cls-1{fill:#e3e3e3;}</style>
    <style
       id="style1399">.cls-1{fill:#e3e3e3;}</style>
    <style
       id="style1399-4">.cls-1{fill:#e3e3e3;}</style>
    <style
       id="style1399-8">.cls-1{fill:#e3e3e3;}</style>
    <style
       id="style1399-4-5">.cls-1{fill:#e3e3e3;}</style>
    <style
       id="style1399-0">.cls-1{fill:#e3e3e3;}</style>
    <style
       id="style854">.cls-1{fill:#e3e3e3;}</style>
    <style
       id="style1399-84">.cls-1{fill:#e3e3e3;}</style>
    <style
       id="style1399-4-8">.cls-1{fill:#e3e3e3;}</style>
    <style
       id="style1399-8-10">.cls-1{fill:#e3e3e3;}</style>
    <style
       id="style1399-4-5-3">.cls-1{fill:#e3e3e3;}</style>
    <style
       id="style1399-0-0">.cls-1{fill:#e3e3e3;}</style>
    <style
       id="style1399-5">.cls-1{fill:#e3e3e3;}</style>
    <style
       id="style1399-4-6">.cls-1{fill:#e3e3e3;}</style>
    <style
       id="style1399-8-1">.cls-1{fill:#e3e3e3;}</style>
    <style
       id="style1399-4-5-1">.cls-1{fill:#e3e3e3;}</style>
    <style
       id="style1399-0-5">.cls-1{fill:#e3e3e3;}</style>
    <style
       id="style1257">.cls-1{fill:#e3e3e3;}</style>
  </defs>
  <title
     id="title6">body_l</title>
  <g
     id="g1118"
     transform="matrix(1.1404506,0,0,1.1404506,-2.3537809,-2.1777348)">
    <path
       style="fill:#ec6418;fill-opacity:1;stroke:none;stroke-width:0.39506px;stroke-linecap:butt;stroke-linejoin:miter;stroke-opacity:1"
       d="m 18.116375,9.7791853 c -0.888381,0.2785917 -0.947938,0.4084237 -1.906256,1.4514147 -1.170755,1.274211 -0.989371,1.311332 -1.317939,1.682391 -0.705905,0.797193 -1.158721,0.660572 -1.384706,0.903637 -0.635251,0.683265 0.276788,2.413146 1.781051,1.291794 0.572367,-0.426672 0.224025,-0.509555 1.841619,-2.124667 0.976331,-0.974828 2.577592,-1.205898 3.772802,-2.564545 -0.612438,0.112985 -1.026047,-0.01985 -1.521358,-0.137967 -0.441352,-0.10525 -0.858034,-0.258955 -1.265213,-0.5020577 z"
       id="path4191"
       sodipodi:nodetypes="ccsssccac" />
    <path
       style="fill:#ecbe18;fill-opacity:1;stroke:none;stroke-width:0.39506px;stroke-linecap:butt;stroke-linejoin:miter;stroke-opacity:1"
       d="m 15.426798,24.511945 c -0.383228,0.09827 -0.778209,-0.04073 -0.965403,-0.577695 -0.176126,-0.50521 0.128218,-0.611752 -0.725251,-2.55135 -0.76642,-1.741779 -0.180487,-3.249029 -0.802454,-3.932408 -1.10783,-1.217217 -0.600165,-2.278404 -0.02384,-2.288563 0.01765,-2.65e-4 0.03325,0.0064 0.04965,0.0099 0.258017,0.56728 0.788024,0.996441 1.481776,0.953697 0.0047,-2.46e-4 0.0074,-0.0015 0.01202,-0.0019 0.03183,0.0079 0.06481,0.01874 0.09958,0.03539 0.267887,0.12867 0.137562,0.407101 0.09394,0.629244 -0.218273,1.111576 -0.360541,1.939908 0.212116,3.391784 0.595491,1.509758 1.060506,2.199046 1.077744,3.116228 0.01074,0.570949 -0.01716,1.089373 -0.509885,1.215707 z"
       id="path4189"
       sodipodi:nodetypes="cssssccccssscc" />
    <path
       style="fill:#ec1818;fill-opacity:1;stroke:none;stroke-width:0.476382px;stroke-linecap:butt;stroke-linejoin:miter;stroke-opacity:1"
       d="m 16.098687,3.4487819 c -0.179787,0.068549 -0.340055,0.176121 -0.472271,0.3239912 -1.192024,1.3330285 -0.736098,2.9321748 0.482885,3.9653251 1.171816,0.9931735 4.477755,2.9501748 5.116355,1.7890734 C 21.928158,8.2498864 19.301863,4.7422332 18.005392,3.8416106 17.352011,3.3877234 16.63805,3.2431673 16.098687,3.4487819 Z"
       id="path4187"
       sodipodi:nodetypes="ccsssc" />
    <path
       style="fill:#61b7eb;fill-opacity:1;stroke:none;stroke-width:0.447085px;stroke-linecap:butt;stroke-linejoin:miter;stroke-opacity:1"
       d="m 15.879914,25.0871 c -0.07059,-0.445157 -0.500568,0.109452 -1.154913,-0.186805 -0.536478,-0.242895 -0.509499,-0.869999 -0.946305,-0.749786 -0.301112,0.08287 0.605746,1.447849 0.827031,2.199091 0.1426,0.484114 0.109779,1.037651 0.320349,1.479759 0.188982,0.396782 0.650632,-0.454588 0.809758,-0.798705 0.27266,-0.589639 0.297589,-0.975446 0.14408,-1.943554 z"
       id="path1312"
       sodipodi:nodetypes="sssasas" />
    <path
       style="fill:#7878ec;fill-opacity:1;stroke:none;stroke-width:0.458153px;stroke-linecap:butt;stroke-linejoin:miter;stroke-opacity:1"
       d="m 15.817739,27.859175 c -0.452814,0.479629 -0.932382,0.394976 -0.847671,0.556933 0.103593,0.198058 1.178767,0.482085 2.398963,0.157154 0.331529,-0.08828 -1.19959,-1.086611 -1.551292,-0.714087 z"
       id="path9658"
       sodipodi:nodetypes="ssss" />
  </g>
</svg>
