<?xml version="1.0" encoding="UTF-8" standalone="no"?>
<svg
   width="32"
   height="32"
   viewBox="0 0 8.4666666 8.4666666"
   version="1.1"
   id="svg8"
   inkscape:version="1.1 (c68e22c387, 2021-05-23)"
   sodipodi:docname="digitigrade_leg.svg"
   inkscape:export-filename="D:\DEV_SRC\RxOT\DuAEF\DuAEF_Duik\icons\w128/w128_digitigrade_leg.png"
   inkscape:export-xdpi="384.00003"
   inkscape:export-ydpi="384.00003"
   xmlns:inkscape="http://www.inkscape.org/namespaces/inkscape"
   xmlns:sodipodi="http://sodipodi.sourceforge.net/DTD/sodipodi-0.dtd"
   xmlns="http://www.w3.org/2000/svg"
   xmlns:svg="http://www.w3.org/2000/svg"
   xmlns:rdf="http://www.w3.org/1999/02/22-rdf-syntax-ns#"
   xmlns:cc="http://creativecommons.org/ns#"
   xmlns:dc="http://purl.org/dc/elements/1.1/">
  <defs
     id="defs2">
    <style
       id="style1399">.cls-1{fill:#e3e3e3;}</style>
    <style
       id="style1399-4">.cls-1{fill:#e3e3e3;}</style>
    <style
       id="style1399-8">.cls-1{fill:#e3e3e3;}</style>
    <style
       id="style1399-4-5">.cls-1{fill:#e3e3e3;}</style>
    <style
       id="style1399-0">.cls-1{fill:#e3e3e3;}</style>
    <style
       id="style854">.cls-1{fill:#e3e3e3;}</style>
    <style
       id="style1399-84">.cls-1{fill:#e3e3e3;}</style>
    <style
       id="style1399-4-8">.cls-1{fill:#e3e3e3;}</style>
    <style
       id="style1399-8-10">.cls-1{fill:#e3e3e3;}</style>
    <style
       id="style1399-4-5-3">.cls-1{fill:#e3e3e3;}</style>
    <style
       id="style1399-0-0">.cls-1{fill:#e3e3e3;}</style>
    <style
       id="style1399-5">.cls-1{fill:#e3e3e3;}</style>
    <style
       id="style1399-4-6">.cls-1{fill:#e3e3e3;}</style>
    <style
       id="style1399-8-1">.cls-1{fill:#e3e3e3;}</style>
    <style
       id="style1399-4-5-1">.cls-1{fill:#e3e3e3;}</style>
    <style
       id="style1399-0-5">.cls-1{fill:#e3e3e3;}</style>
    <style
       id="style1257">.cls-1{fill:#e3e3e3;}</style>
    <style
       id="style836">.cls-1{fill:#e3e3e3;}</style>
    <style
       id="style891">.cls-1{fill:#e3e3e3;}</style>
    <style
       id="style949">.cls-1{fill:#e3e3e3;}</style>
  </defs>
  <sodipodi:namedview
     id="base"
     pagecolor="#ffffff"
     bordercolor="#666666"
     borderopacity="1.0"
     inkscape:pageopacity="0.0"
     inkscape:pageshadow="2"
     inkscape:zoom="11.313708"
     inkscape:cx="10.385631"
     inkscape:cy="25.146486"
     inkscape:document-units="mm"
     inkscape:current-layer="svg8"
     showgrid="false"
     units="px"
     inkscape:window-width="1920"
     inkscape:window-height="1027"
     inkscape:window-x="-8"
     inkscape:window-y="-8"
     inkscape:window-maximized="1"
     inkscape:snap-bbox="true"
     inkscape:bbox-paths="true"
     inkscape:bbox-nodes="true"
     inkscape:snap-bbox-edge-midpoints="true"
     inkscape:snap-bbox-midpoints="true"
     inkscape:snap-nodes="true"
     inkscape:snap-others="true"
     inkscape:snap-object-midpoints="true"
     inkscape:snap-page="true"
     inkscape:document-rotation="0"
     inkscape:pagecheckerboard="1"
     inkscape:snap-global="false">
    <sodipodi:guide
       position="8.4666666,8.4666666"
       orientation="0,-32"
       id="guide856"
       inkscape:locked="false" />
    <sodipodi:guide
       position="0,8.4666814"
       orientation="32,0"
       id="guide858"
       inkscape:locked="false" />
  </sodipodi:namedview>
  <metadata
     id="metadata5">
    <rdf:RDF>
      <cc:Work
         rdf:about="">
        <dc:format>image/svg+xml</dc:format>
        <dc:type
           rdf:resource="http://purl.org/dc/dcmitype/StillImage" />
      </cc:Work>
    </rdf:RDF>
  </metadata>
  <path
     style="fill:#7878ec;fill-opacity:1;stroke:none;stroke-width:0.132708px;stroke-linecap:butt;stroke-linejoin:miter;stroke-opacity:1"
     d="M 3.942285,7.2171703 C 4.0723584,7.1835481 4.073242,7.3981322 4.2783824,7.4396213 4.591756,7.5029996 4.7038198,7.6173691 4.5186452,7.7363404 4.3875974,7.8205362 4.2049033,7.8448486 3.9456643,7.8448486 3.6658932,7.8266615 3.6286244,7.7628976 3.62145,7.6342228 3.6171032,7.5562623 3.7532753,7.5461928 3.8024786,7.4855646 3.8660449,7.4072382 3.8446203,7.2424152 3.942285,7.2171703 Z"
     id="path853"
     sodipodi:nodetypes="asscaaa" />
  <path
     style="fill:#78d6ec;fill-opacity:1;stroke:none;stroke-width:0.132708px;stroke-linecap:butt;stroke-linejoin:miter;stroke-opacity:1"
     d="M 3.7646933,7.3282934 C 3.7145323,7.4894366 3.5329106,7.3580034 3.4362228,7.3060964 3.2637901,7.2135258 3.2027514,6.9917867 3.0795516,6.8397206 2.8188107,6.5178871 2.3851492,6.1812474 2.2705823,5.8965178 2.1342705,5.5577466 2.4801004,4.7658745 2.5544712,5.645344 c 0.01548,0.1830626 0.055648,0.2755047 0.1467535,0.373411 0.1471463,0.1581304 0.4326186,0.1261779 0.5845094,0.2797566 0.266208,0.2691658 0.5625176,0.7613457 0.4789592,1.0297818 z"
     id="path851"
     sodipodi:nodetypes="saassaas" />
  <path
     style="fill:#ecd618;fill-opacity:1;stroke:none;stroke-width:0.132708px;stroke-linecap:butt;stroke-linejoin:miter;stroke-opacity:1"
     d="M 5.6062994,3.6584112 C 5.5552314,3.7975102 5.4754391,3.9656499 5.3584844,4.0729303 5.0926568,4.3167694 4.7247326,4.4592132 4.189936,4.9119582 3.6551396,5.3647029 3.5676195,5.6016226 3.4825052,5.7424355 3.3973908,5.8832481 3.3042922,5.9484325 3.2150397,5.9746073 2.9401812,6.0552145 2.699514,5.8962519 2.7141295,5.6726183 2.726582,5.4820774 2.8913901,5.3069602 3.0413206,5.1842739 3.2377649,5.0235258 3.3307586,4.9073314 3.7591883,4.5006282 4.1283247,4.1502111 4.5607691,3.8985724 4.8165805,3.7129323 4.8633231,3.6850306 4.933098,3.6854612 4.9880072,3.701623 c 0.1931112,0.056839 0.2612124,0.081637 0.428918,0.047394 0.073683,-0.015045 0.13618,-0.047768 0.1893742,-0.090606 z"
     id="path849" />
  <path
     style="fill:#ec7818;fill-opacity:1;stroke:none;stroke-width:0.132708px;stroke-linecap:butt;stroke-linejoin:miter;stroke-opacity:1"
     d="m 6.0284964,2.9910238 c 0.1013955,0.048006 0.1432581,0.2039669 0.022049,0.4467345 -0.095463,0.1911998 -0.1789571,0.2430904 -0.2337165,0.2011936 -0.016417,-0.01256 -0.021341,-0.070647 -0.018086,-0.1459497 0.026053,-0.0407 0.047836,-0.083812 0.064269,-0.1278963 0.037148,-0.099658 0.05385,-0.2105484 0.03521,-0.3188133 0.024593,-0.045634 0.052606,-0.074003 0.083755,-0.069542 0.016628,0.00238 0.032034,0.00741 0.046519,0.01427 z"
     id="path847" />
  <path
     style="fill:#ec7818;fill-opacity:1;stroke:none;stroke-width:0.132708px;stroke-linecap:butt;stroke-linejoin:miter;stroke-opacity:1"
     d="M 5.2165808,3.4883101 C 5.3452201,3.5030758 5.4565785,3.4655835 5.5377433,3.4005996 5.7075839,3.2646182 5.7147359,2.9149128 5.5404261,2.7908543 5.4267492,2.709949 5.3518545,2.7046901 5.2107387,2.6911136 5.0696228,2.6775367 4.5816477,2.3782471 4.0871172,1.9253352 3.5925869,1.4724234 3.3982429,1.2305775 3.2975574,1.0592654 3.1968718,0.88795338 2.9469119,0.78374607 2.7229439,0.92242505 2.563195,1.0213403 2.5390345,1.2820249 2.5390345,1.2820249 c 0,0 -0.2900296,-0.00251 -0.2390017,0.2562209 0.029397,0.1490533 0.2253408,0.2536333 0.4174111,0.042492 0.080381,-0.088362 0.4724448,0.3053083 0.9586882,0.7395367 0.4862438,0.4342287 0.8146428,0.653739 1.1154713,0.9421463 0.1504142,0.1442038 0.2963383,0.2111232 0.4249774,0.225889 z"
     id="path980" />
</svg>
