<?xml version="1.0" encoding="UTF-8" standalone="no"?>
<!-- Created with Inkscape (http://www.inkscape.org/) -->

<svg
   width="32"
   height="32"
   viewBox="0 0 8.4666666 8.4666666"
   version="1.1"
   id="svg8"
   inkscape:version="1.1.1 (3bf5ae0d25, 2021-09-20)"
   sodipodi:docname="export.svg"
   inkscape:export-filename="D:\RxLab\src\RxOT\After-Effects\Duik\inc\icons\w12\w12_export.png"
   inkscape:export-xdpi="36"
   inkscape:export-ydpi="36"
   xmlns:inkscape="http://www.inkscape.org/namespaces/inkscape"
   xmlns:sodipodi="http://sodipodi.sourceforge.net/DTD/sodipodi-0.dtd"
   xmlns="http://www.w3.org/2000/svg"
   xmlns:svg="http://www.w3.org/2000/svg"
   xmlns:rdf="http://www.w3.org/1999/02/22-rdf-syntax-ns#"
   xmlns:cc="http://creativecommons.org/ns#"
   xmlns:dc="http://purl.org/dc/elements/1.1/">
  <defs
     id="defs2" />
  <sodipodi:namedview
     id="base"
     pagecolor="#ffffff"
     bordercolor="#666666"
     borderopacity="1.0"
     inkscape:pageopacity="0.0"
     inkscape:pageshadow="2"
     inkscape:zoom="11.480982"
     inkscape:cx="11.061772"
     inkscape:cy="17.724965"
     inkscape:document-units="mm"
     inkscape:current-layer="svg8"
     showgrid="false"
     units="px"
     inkscape:window-width="1287"
     inkscape:window-height="1081"
     inkscape:window-x="1436"
     inkscape:window-y="67"
     inkscape:window-maximized="0"
     inkscape:pagecheckerboard="0"
     inkscape:object-paths="true"
     inkscape:snap-intersection-paths="true"
     inkscape:snap-smooth-nodes="true"
     inkscape:snap-midpoints="true"
     inkscape:snap-global="false">
    <sodipodi:guide
       position="8.4666666,0"
       orientation="-32,0"
       id="guide854"
       inkscape:locked="false" />
    <sodipodi:guide
       position="8.4666666,8.4666666"
       orientation="0,-32"
       id="guide856"
       inkscape:locked="false" />
    <sodipodi:guide
       position="0,8.4666814"
       orientation="32,0"
       id="guide858"
       inkscape:locked="false" />
  </sodipodi:namedview>
  <metadata
     id="metadata5">
    <rdf:RDF>
      <cc:Work
         rdf:about="">
        <dc:format>image/svg+xml</dc:format>
        <dc:type
           rdf:resource="http://purl.org/dc/dcmitype/StillImage" />
      </cc:Work>
    </rdf:RDF>
  </metadata>
  <path
     id="path1112"
     style="fill:#b1b1b1;fill-opacity:1;stroke-width:0.0624884"
     d="M 1.4960938 0 C 0.66499828 0 -0.00390625 0.6688819 -0.00390625 1.5 L -0.00390625 30.494141 C -0.00390625 31.325259 0.66499828 31.994141 1.4960938 31.994141 L 22.492188 31.994141 C 23.323286 31.994141 23.990234 31.325259 23.990234 30.494141 L 23.990234 29.283203 C 23.579749 29.284183 23.177087 29.210778 22.814453 29.0625 C 21.744418 28.624971 20.859375 27.467241 20.859375 26.154297 L 20.859375 24.3125 L 17.353516 24.3125 C 15.642183 24.3125 14.208983 22.856018 14.208984 21.162109 L 14.208984 17.173828 C 14.208984 15.479921 15.642185 14.023438 17.353516 14.023438 L 20.859375 14.023438 L 20.859375 12.181641 C 20.859375 10.870016 21.738186 9.7126057 22.806641 9.2734375 C 23.16989 9.1241305 23.577201 9.0507302 23.990234 9.0527344 L 23.990234 7.6171875 C 23.990234 7.2235497 23.833931 6.8437346 23.552734 6.5625 L 17.4375 0.4375 C 17.156303 0.1559252 16.774927 -3.7007434e-17 16.375 0 C 11.415809 3.7795276e-05 6.4552847 -4.5175091e-21 1.4960938 0 z M 23.96875 11.183594 C 23.472374 11.206822 23.009766 11.597628 23.009766 12.181641 L 23.009766 16.173828 L 17.353516 16.173828 C 16.800423 16.173828 16.355469 16.618814 16.355469 17.171875 L 16.355469 21.164062 C 16.355469 21.717123 16.800423 22.162109 17.353516 22.162109 L 23.009766 22.162109 L 23.009766 26.154297 C 23.009766 27.048502 24.091054 27.485136 24.714844 26.861328 L 31.701172 19.875 C 32.087921 19.484088 32.087921 18.851825 31.701172 18.460938 L 24.714844 11.474609 C 24.498986 11.260184 24.228757 11.171427 23.96875 11.183594 z "
     transform="scale(0.26458333)" />
</svg>
