<?xml version="1.0" encoding="UTF-8" standalone="no"?>
<!-- Created with Inkscape (http://www.inkscape.org/) -->

<svg
   width="32"
   height="32"
   viewBox="0 0 8.4666666 8.4666666"
   version="1.1"
   id="svg8"
   inkscape:version="1.1 (c68e22c387, 2021-05-23)"
   sodipodi:docname="extract_sl.svg"
   inkscape:export-filename="D:\DEV_SRC\RxOT\DuAEF\DuAEF_Duik\icons/w16\w16_extract.png"
   inkscape:export-xdpi="48"
   inkscape:export-ydpi="48"
   xmlns:inkscape="http://www.inkscape.org/namespaces/inkscape"
   xmlns:sodipodi="http://sodipodi.sourceforge.net/DTD/sodipodi-0.dtd"
   xmlns="http://www.w3.org/2000/svg"
   xmlns:svg="http://www.w3.org/2000/svg"
   xmlns:rdf="http://www.w3.org/1999/02/22-rdf-syntax-ns#"
   xmlns:cc="http://creativecommons.org/ns#"
   xmlns:dc="http://purl.org/dc/elements/1.1/">
  <defs
     id="defs2">
    <style
       id="style1399">.cls-1{fill:#e3e3e3;}</style>
    <style
       id="style1399-1">.cls-1{fill:#e3e3e3;}</style>
    <style
       id="style1399-5">.cls-1{fill:#e3e3e3;}</style>
    <style
       id="style1399-8">.cls-1{fill:#e3e3e3;}</style>
  </defs>
  <sodipodi:namedview
     id="base"
     pagecolor="#ffffff"
     bordercolor="#666666"
     borderopacity="1.0"
     inkscape:pageopacity="0.0"
     inkscape:pageshadow="2"
     inkscape:zoom="11.313708"
     inkscape:cx="-11.799845"
     inkscape:cy="13.567612"
     inkscape:document-units="mm"
     inkscape:current-layer="svg8"
     showgrid="false"
     units="px"
     inkscape:window-width="1920"
     inkscape:window-height="1027"
     inkscape:window-x="-8"
     inkscape:window-y="-8"
     inkscape:window-maximized="1"
     inkscape:pagecheckerboard="1"
     inkscape:snap-nodes="false"
     inkscape:snap-bbox="true"
     inkscape:bbox-paths="true"
     inkscape:bbox-nodes="true"
     inkscape:snap-bbox-edge-midpoints="true"
     inkscape:snap-bbox-midpoints="true">
    <sodipodi:guide
       position="8.4666666,0"
       orientation="-32,0"
       id="guide854"
       inkscape:locked="false" />
    <sodipodi:guide
       position="8.4666666,8.4666666"
       orientation="0,-32"
       id="guide856"
       inkscape:locked="false" />
    <sodipodi:guide
       position="0,8.4666814"
       orientation="1,6.123234e-17"
       id="guide858"
       inkscape:locked="false" />
  </sodipodi:namedview>
  <metadata
     id="metadata5">
    <rdf:RDF>
      <cc:Work
         rdf:about="">
        <dc:format>image/svg+xml</dc:format>
        <dc:type
           rdf:resource="http://purl.org/dc/dcmitype/StillImage" />
      </cc:Work>
    </rdf:RDF>
  </metadata>
  <path
     style="color:#000000;fill:#b1b1b1;stroke-width:0.0109267;-inkscape-stroke:none;fill-opacity:1"
     d="m 2.6126946,3.3314096 c -0.3526736,0 -0.6416242,0.2889507 -0.6416243,0.6416244 v 3.8458925 c 0,0.3526739 0.2884328,0.6435512 0.6416243,0.6435512 h 3.8458926 c 0.3531917,10e-8 0.6435511,-0.2903594 0.6435512,-0.6435512 V 6.4200699 c 0,-0.1600838 -0.1343436,-0.2909469 -0.2928736,-0.2909469 H 6.4585872 c -0.1585298,4e-7 -0.2909468,0.1324169 -0.2909468,0.2909469 V 7.5279798 H 2.9055682 V 4.2659076 h 1.4566607 c 0.1600838,0 0.2909469,-0.1343435 0.2909468,-0.2928736 V 3.6242832 c 0,-0.1585301 -0.1308629,-0.2928737 -0.2909468,-0.2928736 z"
     id="path1737" />
  <path
     style="fill:#b1b1b1;fill-opacity:1;stroke:none;stroke-width:1.81883;stroke-miterlimit:4;stroke-dasharray:none;stroke-opacity:1"
     d="M 3.1125307,-8.030814e-5 C 3.031419,-0.00960494 2.9451198,0.01533107 2.8771039,0.08339908 L 1.7402089,1.2202956 C 1.6277839,1.332673 1.6271853,1.5144744 1.7395938,1.6268847 l 1.1374956,1.1374986 c 0.181353,0.1813383 0.491858,0.052253 0.4918737,-0.2042041 V 1.8527045 c 0.5134247,0.016867 0.9931923,0.2243777 1.357908,0.5897662 0.6564675,0.6574506 0.7733444,1.6755407 0.3050938,2.4569702 -0.03406,0.057015 -0.025874,0.1290984 0.021021,0.1759675 l 0.4864688,0.4864697 c 0.06361,0.063563 0.1696724,0.05384 0.2204263,-0.020373 C 6.5509052,4.3834509 6.431593,2.7905363 5.403738,1.7626703 4.8401546,1.1990769 4.107492,0.90917766 3.368978,0.89243019 V 0.28644562 C 3.368977,0.12614746 3.2477169,0.01577423 3.1125312,-2.7393543e-5 Z"
     id="path4811"
     inkscape:connector-curvature="0"
     sodipodi:nodetypes="sccccccccccccccs" />
</svg>
