<?xml version="1.0" encoding="UTF-8" standalone="no"?>
<!-- Created with Inkscape (http://www.inkscape.org/) -->

<svg
   width="32"
   height="32"
   viewBox="0 0 8.4666666 8.4666666"
   version="1.1"
   id="svg8"
   inkscape:version="1.1.1 (3bf5ae0d25, 2021-09-20)"
   sodipodi:docname="gaussian-distribution-blur_sl.svg"
   inkscape:export-filename="D:\RxLab\src\RxOT\DuAEF\DuAEF_Duik\inc\icons\w16\w16_gaussian.png"
   inkscape:export-xdpi="48"
   inkscape:export-ydpi="48"
   xmlns:inkscape="http://www.inkscape.org/namespaces/inkscape"
   xmlns:sodipodi="http://sodipodi.sourceforge.net/DTD/sodipodi-0.dtd"
   xmlns="http://www.w3.org/2000/svg"
   xmlns:svg="http://www.w3.org/2000/svg"
   xmlns:rdf="http://www.w3.org/1999/02/22-rdf-syntax-ns#"
   xmlns:cc="http://creativecommons.org/ns#"
   xmlns:dc="http://purl.org/dc/elements/1.1/">
  <defs
     id="defs2">
    <style
       id="style1399">.cls-1{fill:#e3e3e3;}</style>
    <style
       id="style1399-4">.cls-1{fill:#e3e3e3;}</style>
    <style
       id="style1399-8">.cls-1{fill:#e3e3e3;}</style>
    <style
       id="style1399-4-5">.cls-1{fill:#e3e3e3;}</style>
    <style
       id="style1399-0">.cls-1{fill:#e3e3e3;}</style>
    <style
       id="style854">.cls-1{fill:#e3e3e3;}</style>
  </defs>
  <sodipodi:namedview
     id="base"
     pagecolor="#ffffff"
     bordercolor="#666666"
     borderopacity="1.0"
     inkscape:pageopacity="0.0"
     inkscape:pageshadow="2"
     inkscape:zoom="15.999999"
     inkscape:cx="8.9062506"
     inkscape:cy="14.468751"
     inkscape:document-units="mm"
     inkscape:current-layer="svg8"
     showgrid="false"
     units="px"
     inkscape:window-width="1794"
     inkscape:window-height="1081"
     inkscape:window-x="2497"
     inkscape:window-y="126"
     inkscape:window-maximized="0"
     inkscape:snap-bbox="true"
     inkscape:bbox-paths="true"
     inkscape:bbox-nodes="true"
     inkscape:snap-bbox-edge-midpoints="true"
     inkscape:snap-bbox-midpoints="true"
     inkscape:snap-nodes="true"
     inkscape:snap-others="true"
     inkscape:snap-object-midpoints="true"
     inkscape:snap-page="true"
     inkscape:pagecheckerboard="1">
    <sodipodi:guide
       position="8.4666666,0"
       orientation="-32,0"
       id="guide854"
       inkscape:locked="false" />
    <sodipodi:guide
       position="9.9384114,8.4666666"
       orientation="0,-32"
       id="guide856"
       inkscape:locked="false" />
    <sodipodi:guide
       position="0,8.4666814"
       orientation="32,0"
       id="guide858"
       inkscape:locked="false" />
  </sodipodi:namedview>
  <metadata
     id="metadata5">
    <rdf:RDF>
      <cc:Work
         rdf:about="">
        <dc:format>image/svg+xml</dc:format>
        <dc:type
           rdf:resource="http://purl.org/dc/dcmitype/StillImage" />
      </cc:Work>
    </rdf:RDF>
  </metadata>
  <path
     id="path946"
     style="fill:#b1b1b1;fill-opacity:1;stroke-width:4.10188;stroke-linecap:round;stroke-linejoin:round"
     d="M 16.476562 0.56835938 A 0.28999997 0.28999997 0 0 0 16.173828 0.84179688 A 0.28999997 0.28999997 0 0 0 16.455078 1.1445312 L 16.763672 1.1582031 L 17.029297 1.1738281 A 0.28999997 0.28999997 0 0 0 17.332031 0.90039062 A 0.28999997 0.28999997 0 0 0 17.066406 0.58984375 L 16.792969 0.57617188 A 0.290029 0.290029 0 0 0 16.787109 0.57617188 L 16.476562 0.56835938 z M 14.705078 0.61328125 L 14.423828 0.63476562 A 0.290029 0.290029 0 0 0 14.416016 0.63476562 L 14.121094 0.671875 A 0.28999997 0.28999997 0 0 0 13.863281 0.98828125 A 0.28999997 0.28999997 0 0 0 14.179688 1.2480469 L 14.476562 1.2109375 L 14.755859 1.1894531 A 0.28999997 0.28999997 0 0 0 15.015625 0.87109375 A 0.28999997 0.28999997 0 0 0 14.705078 0.61328125 z M 18.824219 0.8203125 A 0.28999997 0.28999997 0 0 0 18.484375 1.0488281 A 0.28999997 0.28999997 0 0 0 18.712891 1.3886719 L 18.994141 1.4394531 L 19.273438 1.5058594 A 0.28999997 0.28999997 0 0 0 19.621094 1.2851562 A 0.28999997 0.28999997 0 0 0 19.40625 0.9375 L 19.119141 0.87109375 A 0.290029 0.290029 0 0 0 19.111328 0.87109375 L 18.824219 0.8203125 z M 12.371094 0.98828125 L 12.142578 1.0410156 A 0.290029 0.290029 0 0 0 12.128906 1.0488281 L 11.802734 1.1367188 A 0.28999997 0.28999997 0 0 0 11.597656 1.4980469 A 0.28999997 0.28999997 0 0 0 11.958984 1.6972656 L 12.283203 1.6015625 L 12.505859 1.5507812 A 0.28999997 0.28999997 0 0 0 12.726562 1.203125 A 0.28999997 0.28999997 0 0 0 12.371094 0.98828125 z M 20.953125 1.4140625 A 0.28999997 0.28999997 0 0 0 20.736328 1.609375 A 0.28999997 0.28999997 0 0 0 20.919922 1.9707031 L 21.111328 2.0371094 L 21.445312 2.1699219 A 0.28999997 0.28999997 0 0 0 21.820312 2.0078125 A 0.28999997 0.28999997 0 0 0 21.658203 1.6308594 L 21.318359 1.4980469 A 0.290029 0.290029 0 0 0 21.304688 1.4902344 L 21.105469 1.4238281 A 0.28999997 0.28999997 0 0 0 20.953125 1.4140625 z M 10.277344 1.6953125 A 0.28999997 0.28999997 0 0 0 10.128906 1.7128906 L 9.9882812 1.7714844 A 0.290029 0.290029 0 0 0 9.9804688 1.7714844 L 9.5820312 1.9492188 A 0.28999997 0.28999997 0 0 0 9.4414062 2.3320312 A 0.28999997 0.28999997 0 0 0 9.8261719 2.4804688 L 10.208984 2.3027344 L 10.341797 2.2519531 A 0.28999997 0.28999997 0 0 0 10.503906 1.875 A 0.28999997 0.28999997 0 0 0 10.277344 1.6953125 z M 23.121094 2.3378906 A 0.28999997 0.28999997 0 0 0 22.876953 2.4941406 A 0.28999997 0.28999997 0 0 0 23.001953 2.8867188 L 23.083984 2.9296875 L 23.496094 3.1660156 A 0.28999997 0.28999997 0 0 0 23.888672 3.0566406 A 0.28999997 0.28999997 0 0 0 23.785156 2.6640625 L 23.371094 2.4277344 A 0.290029 0.290029 0 0 0 23.355469 2.421875 L 23.267578 2.3691406 A 0.28999997 0.28999997 0 0 0 23.121094 2.3378906 z M 8.125 2.7382812 A 0.28999997 0.28999997 0 0 0 8.0175781 2.7753906 L 7.9941406 2.7910156 A 0.290029 0.290029 0 0 0 7.9804688 2.796875 L 7.5214844 3.09375 A 0.28999997 0.28999997 0 0 0 7.4335938 3.4921875 A 0.28999997 0.28999997 0 0 0 7.8320312 3.5800781 L 8.2890625 3.2929688 L 8.3125 3.2773438 A 0.28999997 0.28999997 0 0 0 8.4160156 2.8789062 A 0.28999997 0.28999997 0 0 0 8.2382812 2.7460938 A 0.28999997 0.28999997 0 0 0 8.125 2.7382812 z M 25.054688 3.5878906 A 0.28999997 0.28999997 0 0 0 24.861328 3.6914062 A 0.28999997 0.28999997 0 0 0 24.90625 4.1035156 L 25.363281 4.4589844 A 0.28999997 0.28999997 0 0 0 25.769531 4.4140625 A 0.28999997 0.28999997 0 0 0 25.726562 4.0019531 L 25.267578 3.6464844 A 0.28999997 0.28999997 0 0 0 25.054688 3.5878906 z M 6.296875 4.0820312 A 0.28999997 0.28999997 0 0 0 6.0898438 4.15625 L 5.6542969 4.5332031 A 0.28999997 0.28999997 0 0 0 5.625 4.9453125 A 0.28999997 0.28999997 0 0 0 6.03125 4.9746094 L 6.4667969 4.5917969 A 0.28999997 0.28999997 0 0 0 6.4960938 4.1855469 A 0.28999997 0.28999997 0 0 0 6.296875 4.0820312 z M 16.476562 4.28125 A 0.42649999 0.42649999 0 0 0 16.041016 4.6953125 A 0.42649999 0.42649999 0 0 0 16.455078 5.1308594 L 16.556641 5.1386719 L 17.111328 5.1738281 L 17.259766 5.1972656 A 0.42649999 0.42649999 0 0 0 17.738281 4.828125 A 0.42649999 0.42649999 0 0 0 17.369141 4.3476562 L 17.207031 4.3339844 A 0.42654263 0.42654263 0 0 0 17.185547 4.3261719 L 16.617188 4.28125 A 0.42654263 0.42654263 0 0 0 16.59375 4.28125 L 16.476562 4.28125 z M 14.705078 4.3398438 L 14.224609 4.4003906 A 0.42654263 0.42654263 0 0 0 14.203125 4.40625 L 13.841797 4.4726562 A 0.42649999 0.42649999 0 0 0 13.501953 4.96875 A 0.42649999 0.42649999 0 0 0 13.996094 5.3066406 L 14.34375 5.2480469 L 14.816406 5.1894531 A 0.42649999 0.42649999 0 0 0 15.183594 4.7089844 A 0.42649999 0.42649999 0 0 0 14.705078 4.3398438 z M 18.939453 4.6757812 A 0.42649999 0.42649999 0 0 0 18.580078 4.9824219 A 0.42649999 0.42649999 0 0 0 18.867188 5.5078125 L 19.236328 5.609375 L 19.666016 5.7578125 A 0.42649999 0.42649999 0 0 0 20.205078 5.4921875 A 0.42649999 0.42649999 0 0 0 19.939453 4.9453125 L 19.496094 4.7988281 A 0.42654263 0.42654263 0 0 0 19.480469 4.7910156 L 19.103516 4.6875 A 0.42649999 0.42649999 0 0 0 18.939453 4.6757812 z M 12.300781 4.9023438 A 0.42649999 0.42649999 0 0 0 12.136719 4.9238281 L 11.972656 4.9746094 A 0.42654263 0.42654263 0 0 0 11.958984 4.9824219 L 11.441406 5.1894531 A 0.42654263 0.42654263 0 0 0 11.427734 5.1972656 L 11.300781 5.2480469 A 0.42649999 0.42649999 0 0 0 11.087891 5.8164062 A 0.42649999 0.42649999 0 0 0 11.65625 6.03125 L 11.767578 5.9785156 L 12.261719 5.7792969 L 12.408203 5.7285156 A 0.42649999 0.42649999 0 0 0 12.673828 5.1894531 A 0.42649999 0.42649999 0 0 0 12.300781 4.9023438 z M 26.833984 5.1152344 A 0.28999997 0.28999997 0 0 0 26.626953 5.1894531 A 0.28999997 0.28999997 0 0 0 26.619141 5.6035156 L 27.003906 6.0097656 L 27.009766 6.015625 A 0.28999997 0.28999997 0 0 0 27.416016 6.0449219 A 0.28999997 0.28999997 0 0 0 27.445312 5.6328125 L 27.439453 5.625 A 0.290029 0.290029 0 0 0 27.431641 5.6171875 L 27.039062 5.2050781 A 0.28999997 0.28999997 0 0 0 26.833984 5.1152344 z M 21.394531 5.6191406 A 0.42649999 0.42649999 0 0 0 21.230469 5.640625 A 0.42649999 0.42649999 0 0 0 20.978516 5.8457031 A 0.42649999 0.42649999 0 0 0 21.164062 6.421875 L 21.185547 6.4375 L 21.644531 6.6953125 L 21.865234 6.8359375 A 0.42649999 0.42649999 0 0 0 22.449219 6.7109375 A 0.42649999 0.42649999 0 0 0 22.322266 6.1191406 L 22.09375 5.9726562 A 0.42654263 0.42654263 0 0 0 22.072266 5.9648438 L 21.599609 5.6914062 A 0.42654263 0.42654263 0 0 0 21.583984 5.6757812 L 21.554688 5.6621094 A 0.42649999 0.42649999 0 0 0 21.394531 5.6191406 z M 4.5996094 5.7070312 A 0.28999997 0.28999997 0 0 0 4.4003906 5.8027344 L 4.0820312 6.171875 A 0.290029 0.290029 0 0 0 4.0683594 6.1855469 L 4.015625 6.2519531 A 0.28999997 0.28999997 0 0 0 4.0683594 6.6582031 A 0.28999997 0.28999997 0 0 0 4.4726562 6.6132812 L 4.5253906 6.546875 L 4.8417969 6.1777344 A 0.28999997 0.28999997 0 0 0 4.8125 5.7734375 A 0.28999997 0.28999997 0 0 0 4.5996094 5.7070312 z M 9.8984375 6.0214844 A 0.42649999 0.42649999 0 0 0 9.7441406 6.0820312 L 9.4492188 6.2675781 A 0.42654263 0.42654263 0 0 0 9.4335938 6.28125 L 9.0214844 6.5703125 A 0.42649999 0.42649999 0 0 0 8.9179688 7.1679688 A 0.42649999 0.42649999 0 0 0 9.515625 7.2636719 L 9.921875 6.9765625 L 10.201172 6.7988281 A 0.42649999 0.42649999 0 0 0 10.333984 6.2089844 A 0.42649999 0.42649999 0 0 0 9.8984375 6.0214844 z M 28.369141 6.8945312 A 0.28999997 0.28999997 0 0 0 28.154297 6.9394531 A 0.28999997 0.28999997 0 0 0 28.080078 7.3457031 L 28.332031 7.6914062 L 28.40625 7.8105469 A 0.28999997 0.28999997 0 0 0 28.804688 7.8984375 A 0.28999997 0.28999997 0 0 0 28.892578 7.5 L 28.810547 7.375 A 0.290029 0.290029 0 0 0 28.804688 7.359375 L 28.552734 7.0136719 A 0.28999997 0.28999997 0 0 0 28.369141 6.8945312 z M 23.421875 7.0800781 A 0.42649999 0.42649999 0 0 0 23.134766 7.2265625 A 0.42649999 0.42649999 0 0 0 23.171875 7.8242188 L 23.3125 7.9511719 L 23.689453 8.3046875 L 23.761719 8.3867188 A 0.42649999 0.42649999 0 0 0 24.367188 8.4003906 A 0.42649999 0.42649999 0 0 0 24.382812 7.7949219 L 24.300781 7.7148438 A 0.42654263 0.42654263 0 0 0 24.287109 7.6992188 L 23.894531 7.3222656 A 0.42654263 0.42654263 0 0 0 23.880859 7.3085938 L 23.732422 7.1816406 A 0.42649999 0.42649999 0 0 0 23.421875 7.0800781 z M 3.2773438 7.5566406 A 0.28999997 0.28999997 0 0 0 3.1660156 7.5585938 A 0.28999997 0.28999997 0 0 0 2.9824219 7.6835938 L 2.7910156 7.9863281 A 0.290029 0.290029 0 0 0 2.7832031 8.0019531 L 2.671875 8.1933594 A 0.28999997 0.28999997 0 0 0 2.7753906 8.5859375 A 0.28999997 0.28999997 0 0 0 3.1738281 8.4824219 L 3.2773438 8.296875 L 3.46875 8.0019531 A 0.28999997 0.28999997 0 0 0 3.3808594 7.5957031 A 0.28999997 0.28999997 0 0 0 3.2773438 7.5566406 z M 7.96875 7.609375 A 0.42649999 0.42649999 0 0 0 7.6699219 7.7441406 L 7.3222656 8.1054688 A 0.42654263 0.42654263 0 0 0 7.3085938 8.1191406 L 7.0800781 8.3867188 A 0.42649999 0.42649999 0 0 0 7.1230469 8.984375 A 0.42649999 0.42649999 0 0 0 7.7285156 8.9394531 L 7.9511719 8.6894531 L 8.2890625 8.3261719 A 0.42649999 0.42649999 0 0 0 8.2753906 7.7285156 A 0.42649999 0.42649999 0 0 0 7.96875 7.609375 z M 16.107422 7.7734375 A 0.68549998 0.68549998 0 0 0 15.398438 8.4375 A 0.68549998 0.68549998 0 0 0 14.601562 7.890625 L 14.357422 7.9355469 A 0.6855685 0.6855685 0 0 0 14.328125 7.9433594 L 13.958984 8.0234375 A 0.6855685 0.6855685 0 0 0 13.929688 8.03125 L 13.568359 8.1347656 A 0.6855685 0.6855685 0 0 0 13.539062 8.1425781 L 13.183594 8.2597656 A 0.6855685 0.6855685 0 0 0 13.154297 8.2753906 L 13.146484 8.2753906 A 0.68549998 0.68549998 0 0 0 12.763672 9.1679688 A 0.68549998 0.68549998 0 0 0 13.648438 9.5527344 L 13.958984 9.4492188 L 14.283203 9.3535156 L 14.615234 9.2792969 L 14.845703 9.2421875 A 0.68549998 0.68549998 0 0 0 15.40625 8.515625 A 0.68549998 0.68549998 0 0 0 16.070312 9.1386719 L 16.351562 9.1464844 L 16.705078 9.1757812 L 17.044922 9.2207031 L 17.326172 9.2714844 A 0.68549998 0.68549998 0 0 0 18.123047 8.71875 A 0.68549998 0.68549998 0 0 0 17.568359 7.9199219 L 17.265625 7.8691406 A 0.6855685 0.6855685 0 0 0 17.236328 7.8613281 L 16.859375 7.8105469 A 0.6855685 0.6855685 0 0 0 16.824219 7.8105469 L 16.439453 7.78125 A 0.6855685 0.6855685 0 0 0 16.402344 7.78125 L 16.107422 7.7734375 z M 18.123047 8.71875 A 0.68549998 0.68549998 0 0 0 18.123047 8.7246094 A 0.68549998 0.68549998 0 0 0 18.513672 9.6191406 L 18.667969 9.6777344 L 18.970703 9.8183594 L 19.267578 9.9648438 L 19.554688 10.134766 L 19.613281 10.171875 A 0.68549998 0.68549998 0 0 0 20.550781 9.9824219 A 0.68549998 0.68549998 0 0 0 20.603516 10.917969 L 20.853516 11.146484 L 21.076172 11.390625 L 21.296875 11.634766 L 21.466797 11.855469 A 0.68549998 0.68549998 0 0 0 22.425781 11.966797 A 0.68549998 0.68549998 0 0 0 22.544922 11.005859 L 22.359375 10.777344 A 0.6855685 0.6855685 0 0 0 22.337891 10.748047 L 22.101562 10.474609 A 0.6855685 0.6855685 0 0 0 22.080078 10.453125 L 21.828125 10.195312 A 0.6855685 0.6855685 0 0 0 21.806641 10.164062 L 21.546875 9.921875 A 0.68549998 0.68549998 0 0 0 20.580078 9.9433594 A 0.68549998 0.68549998 0 0 0 20.351562 9.0136719 L 20.285156 8.96875 A 0.6855685 0.6855685 0 0 0 20.255859 8.9550781 L 19.939453 8.7695312 A 0.6855685 0.6855685 0 0 0 19.908203 8.7558594 L 19.583984 8.5859375 A 0.6855685 0.6855685 0 0 0 19.554688 8.5703125 L 19.222656 8.421875 A 0.6855685 0.6855685 0 0 0 19.185547 8.4082031 L 19.015625 8.3417969 A 0.68549998 0.68549998 0 0 0 18.123047 8.71875 z M 12.164062 8.8183594 A 0.68549998 0.68549998 0 0 0 11.818359 8.9101562 L 11.744141 8.9550781 A 0.6855685 0.6855685 0 0 0 11.714844 8.96875 L 11.412109 9.1679688 A 0.6855685 0.6855685 0 0 0 11.382812 9.1835938 L 11.087891 9.3964844 A 0.6855685 0.6855685 0 0 0 11.058594 9.4121094 L 10.777344 9.640625 A 0.6855685 0.6855685 0 0 0 10.748047 9.6621094 L 10.599609 9.7890625 A 0.68549998 0.68549998 0 0 0 10.533203 10.755859 A 0.68549998 0.68549998 0 0 0 11.501953 10.822266 L 11.634766 10.703125 L 11.900391 10.503906 L 12.166016 10.3125 L 12.445312 10.134766 L 12.505859 10.097656 A 0.68549998 0.68549998 0 0 0 12.755859 9.1601562 A 0.68549998 0.68549998 0 0 0 12.341797 8.84375 A 0.68549998 0.68549998 0 0 0 12.164062 8.8183594 z M 29.496094 8.8691406 A 0.28999997 0.28999997 0 0 0 29.386719 8.9023438 A 0.28999997 0.28999997 0 0 0 29.261719 9.2929688 L 29.402344 9.5585938 L 29.513672 9.8027344 A 0.28999997 0.28999997 0 0 0 29.896484 9.9433594 A 0.28999997 0.28999997 0 0 0 30.037109 9.5585938 L 29.925781 9.3164062 A 0.290029 0.290029 0 0 0 29.925781 9.3144531 A 0.290029 0.290029 0 0 0 29.925781 9.3125 A 0.290029 0.290029 0 0 0 29.925781 9.3105469 A 0.290029 0.290029 0 0 0 29.925781 9.3085938 A 0.290029 0.290029 0 0 0 29.925781 9.3066406 A 0.290029 0.290029 0 0 0 29.925781 9.3046875 A 0.290029 0.290029 0 0 0 29.925781 9.3027344 A 0.290029 0.290029 0 0 0 29.925781 9.3007812 L 29.779297 9.0273438 A 0.28999997 0.28999997 0 0 0 29.609375 8.8808594 A 0.28999997 0.28999997 0 0 0 29.496094 8.8691406 z M 25.238281 8.9765625 A 0.42649999 0.42649999 0 0 0 24.921875 9.0429688 A 0.42649999 0.42649999 0 0 0 24.826172 9.640625 L 25.017578 9.921875 L 25.283203 10.333984 A 0.42649999 0.42649999 0 0 0 25.873047 10.460938 A 0.42649999 0.42649999 0 0 0 26.005859 9.8691406 L 25.732422 9.4492188 A 0.42654263 0.42654263 0 0 0 25.71875 9.4335938 L 25.519531 9.1464844 A 0.42649999 0.42649999 0 0 0 25.238281 8.9765625 z M 2.1035156 9.5957031 A 0.28999997 0.28999997 0 0 0 1.8671875 9.765625 L 1.7636719 9.9882812 A 0.290029 0.290029 0 0 0 1.7578125 10.001953 L 1.6386719 10.3125 A 0.28999997 0.28999997 0 0 0 1.8007812 10.689453 A 0.28999997 0.28999997 0 0 0 2.1777344 10.527344 L 2.2949219 10.216797 L 2.3925781 10.001953 A 0.28999997 0.28999997 0 0 0 2.2519531 9.6191406 A 0.28999997 0.28999997 0 0 0 2.1035156 9.5957031 z M 6.4726562 9.6152344 A 0.42649999 0.42649999 0 0 0 6.3046875 9.6191406 A 0.42649999 0.42649999 0 0 0 6.0390625 9.8105469 L 5.9726562 9.90625 A 0.42654263 0.42654263 0 0 0 5.9648438 9.9277344 L 5.6914062 10.400391 A 0.42654263 0.42654263 0 0 0 5.6757812 10.416016 L 5.5957031 10.585938 A 0.42649999 0.42649999 0 0 0 5.7792969 11.162109 A 0.42649999 0.42649999 0 0 0 6.3554688 10.976562 L 6.4375 10.814453 L 6.6953125 10.357422 L 6.7539062 10.267578 A 0.42649999 0.42649999 0 0 0 6.6289062 9.6777344 A 0.42649999 0.42649999 0 0 0 6.4726562 9.6152344 z M 10.025391 10.615234 A 0.68549998 0.68549998 0 0 0 9.5664062 10.865234 L 9.4121094 11.058594 A 0.6855685 0.6855685 0 0 0 9.3964844 11.087891 L 9.1835938 11.382812 A 0.6855685 0.6855685 0 0 0 9.1679688 11.412109 L 8.96875 11.714844 A 0.6855685 0.6855685 0 0 0 8.9550781 11.744141 L 8.7695312 12.0625 A 0.6855685 0.6855685 0 0 0 8.7539062 12.091797 L 8.7402344 12.121094 A 0.68549998 0.68549998 0 0 0 9.0351562 13.042969 A 0.68549998 0.68549998 0 0 0 9.9589844 12.748047 L 9.9648438 12.734375 L 10.134766 12.445312 L 10.3125 12.166016 L 10.503906 11.900391 L 10.644531 11.714844 A 0.68549998 0.68549998 0 0 0 10.527344 10.755859 A 0.68549998 0.68549998 0 0 0 10.025391 10.615234 z M 9.0351562 13.042969 A 0.68549998 0.68549998 0 0 0 8.1640625 13.472656 L 8.1425781 13.539062 A 0.6855685 0.6855685 0 0 0 8.1347656 13.568359 L 8.03125 13.929688 A 0.6855685 0.6855685 0 0 0 8.0234375 13.958984 L 7.9433594 14.328125 A 0.6855685 0.6855685 0 0 0 7.9355469 14.357422 L 7.8691406 14.726562 A 0.6855685 0.6855685 0 0 0 7.8613281 14.763672 L 7.8398438 14.949219 A 0.68549998 0.68549998 0 0 0 8.4296875 15.708984 A 0.68549998 0.68549998 0 0 0 9.1972656 15.117188 L 9.2207031 14.955078 L 9.2792969 14.615234 L 9.3535156 14.283203 L 9.4492188 13.958984 L 9.4628906 13.914062 A 0.68549998 0.68549998 0 0 0 9.0351562 13.042969 z M 16 10.96875 A 5.0312503 5.0312503 0 0 0 10.96875 16 A 5.0312503 5.0312503 0 0 0 16 21.03125 A 5.0312503 5.0312503 0 0 0 21.03125 16 A 5.0312503 5.0312503 0 0 0 16 10.96875 z M 30.46875 11.011719 A 0.28999997 0.28999997 0 0 0 30.318359 11.021484 A 0.28999997 0.28999997 0 0 0 30.132812 11.390625 L 30.199219 11.589844 L 30.302734 11.935547 A 0.28999997 0.28999997 0 0 0 30.65625 12.136719 A 0.28999997 0.28999997 0 0 0 30.855469 11.773438 L 30.759766 11.419922 A 0.290029 0.290029 0 0 0 30.753906 11.404297 L 30.6875 11.205078 A 0.28999997 0.28999997 0 0 0 30.46875 11.011719 z M 26.429688 11.191406 A 0.42649999 0.42649999 0 0 0 26.265625 11.220703 A 0.42649999 0.42649999 0 0 0 26.029297 11.773438 L 26.220703 12.261719 L 26.316406 12.556641 A 0.42649999 0.42649999 0 0 0 26.855469 12.822266 A 0.42649999 0.42649999 0 0 0 27.128906 12.283203 L 27.025391 11.972656 A 0.42654263 0.42654263 0 0 0 27.017578 11.958984 L 26.818359 11.464844 A 0.42649999 0.42649999 0 0 0 26.429688 11.191406 z M 1.2890625 11.785156 A 0.28999997 0.28999997 0 0 0 1.078125 11.988281 L 1.0332031 12.142578 A 0.290029 0.290029 0 0 0 1.0332031 12.150391 L 0.9375 12.564453 A 0.28999997 0.28999997 0 0 0 1.1523438 12.910156 A 0.28999997 0.28999997 0 0 0 1.4980469 12.697266 L 1.59375 12.291016 L 1.6386719 12.150391 A 0.28999997 0.28999997 0 0 0 1.4394531 11.789062 A 0.28999997 0.28999997 0 0 0 1.2890625 11.785156 z M 22.765625 11.90625 A 0.68549998 0.68549998 0 0 0 22.417969 11.980469 A 0.68549998 0.68549998 0 0 0 22.115234 12.904297 L 22.181641 13.029297 L 22.322266 13.332031 L 22.441406 13.642578 L 22.550781 13.958984 L 22.574219 14.046875 A 0.68549998 0.68549998 0 0 0 23.416016 14.519531 A 0.68549998 0.68549998 0 0 0 22.824219 15.287109 L 22.824219 15.294922 L 22.853516 15.650391 L 22.861328 15.982422 L 22.861328 16.019531 L 22.853516 16.351562 L 22.824219 16.705078 L 22.78125 17.044922 L 22.744141 17.244141 A 0.68549998 0.68549998 0 0 0 23.296875 18.041016 A 0.68549998 0.68549998 0 0 0 22.417969 18.431641 L 22.322266 18.667969 L 22.181641 18.970703 L 22.035156 19.267578 L 21.857422 19.570312 A 0.68549998 0.68549998 0 0 0 22.109375 20.507812 A 0.68549998 0.68549998 0 0 0 23.046875 20.255859 L 23.230469 19.939453 A 0.6855685 0.6855685 0 0 0 23.246094 19.908203 L 23.416016 19.583984 A 0.6855685 0.6855685 0 0 0 23.421875 19.554688 L 23.578125 19.222656 A 0.6855685 0.6855685 0 0 0 23.591797 19.185547 L 23.689453 18.933594 A 0.68549998 0.68549998 0 0 0 23.304688 18.041016 A 0.68549998 0.68549998 0 0 0 24.09375 17.480469 L 24.130859 17.265625 A 0.6855685 0.6855685 0 0 0 24.138672 17.236328 L 24.191406 16.859375 A 0.6855685 0.6855685 0 0 0 24.191406 16.857422 A 0.6855685 0.6855685 0 0 0 24.191406 16.855469 A 0.6855685 0.6855685 0 0 0 24.191406 16.853516 A 0.6855685 0.6855685 0 0 0 24.191406 16.851562 A 0.6855685 0.6855685 0 0 0 24.191406 16.849609 A 0.6855685 0.6855685 0 0 0 24.191406 16.847656 A 0.6855685 0.6855685 0 0 0 24.191406 16.845703 A 0.6855685 0.6855685 0 0 0 24.191406 16.84375 A 0.6855685 0.6855685 0 0 0 24.191406 16.841797 A 0.6855685 0.6855685 0 0 0 24.191406 16.839844 A 0.6855685 0.6855685 0 0 0 24.191406 16.837891 A 0.6855685 0.6855685 0 0 0 24.191406 16.835938 A 0.6855685 0.6855685 0 0 0 24.191406 16.833984 A 0.6855685 0.6855685 0 0 0 24.191406 16.832031 A 0.6855685 0.6855685 0 0 0 24.191406 16.830078 A 0.6855685 0.6855685 0 0 0 24.191406 16.828125 A 0.6855685 0.6855685 0 0 0 24.191406 16.826172 A 0.6855685 0.6855685 0 0 0 24.191406 16.824219 L 24.220703 16.439453 A 0.6855685 0.6855685 0 0 0 24.220703 16.4375 A 0.6855685 0.6855685 0 0 0 24.220703 16.435547 A 0.6855685 0.6855685 0 0 0 24.220703 16.433594 A 0.6855685 0.6855685 0 0 0 24.220703 16.431641 A 0.6855685 0.6855685 0 0 0 24.220703 16.429688 A 0.6855685 0.6855685 0 0 0 24.220703 16.427734 A 0.6855685 0.6855685 0 0 0 24.220703 16.425781 A 0.6855685 0.6855685 0 0 0 24.220703 16.423828 A 0.6855685 0.6855685 0 0 0 24.220703 16.421875 A 0.6855685 0.6855685 0 0 0 24.220703 16.419922 A 0.6855685 0.6855685 0 0 0 24.220703 16.417969 A 0.6855685 0.6855685 0 0 0 24.220703 16.416016 A 0.6855685 0.6855685 0 0 0 24.220703 16.414062 A 0.6855685 0.6855685 0 0 0 24.220703 16.412109 A 0.6855685 0.6855685 0 0 0 24.220703 16.410156 A 0.6855685 0.6855685 0 0 0 24.220703 16.408203 A 0.6855685 0.6855685 0 0 0 24.220703 16.40625 A 0.6855685 0.6855685 0 0 0 24.220703 16.404297 A 0.6855685 0.6855685 0 0 0 24.220703 16.402344 L 24.226562 16.019531 A 0.68549998 0.68549998 0 0 0 24.226562 16.017578 A 0.68549998 0.68549998 0 0 0 24.226562 16.015625 A 0.68549998 0.68549998 0 0 0 24.226562 16.013672 A 0.68549998 0.68549998 0 0 0 24.226562 16.011719 A 0.68549998 0.68549998 0 0 0 24.226562 16.009766 A 0.68549998 0.68549998 0 0 0 24.226562 16.007812 A 0.68549998 0.68549998 0 0 0 24.226562 16.005859 A 0.68549998 0.68549998 0 0 0 24.226562 16.003906 A 0.68549998 0.68549998 0 0 0 24.226562 16.001953 A 0.68549998 0.68549998 0 0 0 24.226562 16 A 0.68549998 0.68549998 0 0 0 24.226562 15.998047 A 0.68549998 0.68549998 0 0 0 24.226562 15.996094 A 0.68549998 0.68549998 0 0 0 24.226562 15.994141 A 0.68549998 0.68549998 0 0 0 24.226562 15.992188 A 0.68549998 0.68549998 0 0 0 24.226562 15.990234 A 0.68549998 0.68549998 0 0 0 24.226562 15.988281 A 0.68549998 0.68549998 0 0 0 24.226562 15.986328 A 0.68549998 0.68549998 0 0 0 24.226562 15.984375 A 0.68549998 0.68549998 0 0 0 24.226562 15.982422 L 24.220703 15.597656 A 0.6855685 0.6855685 0 0 0 24.220703 15.595703 A 0.6855685 0.6855685 0 0 0 24.220703 15.59375 A 0.6855685 0.6855685 0 0 0 24.220703 15.591797 A 0.6855685 0.6855685 0 0 0 24.220703 15.589844 A 0.6855685 0.6855685 0 0 0 24.220703 15.587891 A 0.6855685 0.6855685 0 0 0 24.220703 15.585938 A 0.6855685 0.6855685 0 0 0 24.220703 15.583984 A 0.6855685 0.6855685 0 0 0 24.220703 15.582031 A 0.6855685 0.6855685 0 0 0 24.220703 15.580078 A 0.6855685 0.6855685 0 0 0 24.220703 15.578125 A 0.6855685 0.6855685 0 0 0 24.220703 15.576172 A 0.6855685 0.6855685 0 0 0 24.220703 15.574219 A 0.6855685 0.6855685 0 0 0 24.220703 15.572266 A 0.6855685 0.6855685 0 0 0 24.220703 15.570312 A 0.6855685 0.6855685 0 0 0 24.220703 15.568359 A 0.6855685 0.6855685 0 0 0 24.220703 15.566406 A 0.6855685 0.6855685 0 0 0 24.220703 15.564453 A 0.6855685 0.6855685 0 0 0 24.220703 15.5625 A 0.6855685 0.6855685 0 0 0 24.220703 15.560547 L 24.191406 15.177734 A 0.6855685 0.6855685 0 0 0 24.191406 15.175781 A 0.6855685 0.6855685 0 0 0 24.191406 15.173828 A 0.6855685 0.6855685 0 0 0 24.191406 15.171875 A 0.6855685 0.6855685 0 0 0 24.191406 15.169922 A 0.6855685 0.6855685 0 0 0 24.191406 15.167969 A 0.6855685 0.6855685 0 0 0 24.191406 15.166016 A 0.6855685 0.6855685 0 0 0 24.191406 15.164062 A 0.6855685 0.6855685 0 0 0 24.191406 15.162109 A 0.6855685 0.6855685 0 0 0 24.191406 15.160156 A 0.6855685 0.6855685 0 0 0 24.191406 15.158203 A 0.6855685 0.6855685 0 0 0 24.191406 15.15625 A 0.6855685 0.6855685 0 0 0 24.191406 15.154297 A 0.6855685 0.6855685 0 0 0 24.191406 15.152344 A 0.6855685 0.6855685 0 0 0 24.191406 15.150391 A 0.6855685 0.6855685 0 0 0 24.191406 15.148438 A 0.6855685 0.6855685 0 0 0 24.191406 15.146484 A 0.6855685 0.6855685 0 0 0 24.191406 15.144531 A 0.6855685 0.6855685 0 0 0 24.191406 15.142578 A 0.6855685 0.6855685 0 0 0 24.191406 15.140625 L 24.183594 15.117188 A 0.68549998 0.68549998 0 0 0 23.421875 14.519531 A 0.68549998 0.68549998 0 0 0 23.894531 13.671875 L 23.865234 13.568359 A 0.6855685 0.6855685 0 0 0 23.857422 13.539062 L 23.740234 13.183594 A 0.6855685 0.6855685 0 0 0 23.724609 13.154297 L 23.591797 12.814453 A 0.6855685 0.6855685 0 0 0 23.578125 12.777344 L 23.421875 12.445312 A 0.6855685 0.6855685 0 0 0 23.416016 12.416016 L 23.341797 12.275391 A 0.68549998 0.68549998 0 0 0 22.765625 11.90625 z M 5.2753906 11.921875 A 0.42649999 0.42649999 0 0 0 4.9023438 12.208984 L 4.7988281 12.505859 A 0.42654263 0.42654263 0 0 0 4.7910156 12.519531 L 4.6425781 13.042969 A 0.42649999 0.42649999 0 0 0 4.9394531 13.576172 A 0.42649999 0.42649999 0 0 0 5.4628906 13.279297 L 5.609375 12.763672 L 5.7070312 12.482422 A 0.42649999 0.42649999 0 0 0 5.4414062 11.943359 A 0.42649999 0.42649999 0 0 0 5.2753906 11.921875 z M 30.916016 13.265625 A 0.28999997 0.28999997 0 0 0 30.671875 13.597656 L 30.701172 13.744141 L 30.753906 14.113281 L 30.753906 14.158203 A 0.28999997 0.28999997 0 0 0 31.078125 14.410156 A 0.28999997 0.28999997 0 0 0 31.328125 14.091797 L 31.328125 14.046875 A 0.290029 0.290029 0 0 0 31.328125 14.044922 A 0.290029 0.290029 0 0 0 31.328125 14.042969 A 0.290029 0.290029 0 0 0 31.328125 14.041016 L 31.269531 13.65625 A 0.290029 0.290029 0 0 0 31.269531 13.654297 A 0.290029 0.290029 0 0 0 31.269531 13.652344 A 0.290029 0.290029 0 0 0 31.269531 13.650391 A 0.290029 0.290029 0 0 0 31.269531 13.648438 L 31.248047 13.501953 A 0.28999997 0.28999997 0 0 0 30.916016 13.265625 z M 27.0625 13.648438 A 0.42649999 0.42649999 0 0 0 26.714844 14.144531 L 26.751953 14.34375 L 26.818359 14.888672 L 26.826172 14.949219 A 0.42649999 0.42649999 0 0 0 27.283203 15.339844 A 0.42649999 0.42649999 0 0 0 27.673828 14.882812 L 27.673828 14.816406 A 0.42654263 0.42654263 0 0 0 27.667969 14.792969 L 27.601562 14.224609 A 0.42654263 0.42654263 0 0 0 27.59375 14.203125 L 27.556641 13.996094 A 0.42649999 0.42649999 0 0 0 27.0625 13.648438 z M 0.95898438 14.054688 A 0.28999997 0.28999997 0 0 0 0.64257812 14.314453 L 0.62695312 14.423828 A 0.290029 0.290029 0 0 0 0.62695312 14.431641 L 0.58984375 14.816406 A 0.290029 0.290029 0 0 0 0.58984375 14.822266 L 0.58398438 14.904297 A 0.28999997 0.28999997 0 0 0 0.85546875 15.214844 A 0.28999997 0.28999997 0 0 0 1.1660156 14.941406 L 1.1660156 14.867188 L 1.203125 14.490234 L 1.21875 14.380859 A 0.28999997 0.28999997 0 0 0 0.95898438 14.054688 z M 4.8046875 14.416016 A 0.42649999 0.42649999 0 0 0 4.3339844 14.785156 L 4.3339844 14.792969 A 0.42654263 0.42654263 0 0 0 4.3261719 14.816406 L 4.28125 15.384766 A 0.42654263 0.42654263 0 0 0 4.28125 15.40625 L 4.2734375 15.679688 A 0.42649999 0.42649999 0 0 0 4.6953125 16.115234 A 0.42649999 0.42649999 0 0 0 5.1308594 15.701172 L 5.1386719 15.443359 L 5.1738281 14.888672 A 0.42649999 0.42649999 0 0 0 4.8046875 14.416016 z M 31.152344 15.568359 A 0.28999997 0.28999997 0 0 0 30.871094 15.863281 L 30.871094 16.003906 L 30.871094 16.011719 L 30.863281 16.394531 L 30.855469 16.580078 A 0.28999997 0.28999997 0 0 0 31.136719 16.875 A 0.28999997 0.28999997 0 0 0 31.439453 16.601562 L 31.447266 16.410156 A 0.290029 0.290029 0 0 0 31.447266 16.408203 A 0.290029 0.290029 0 0 0 31.447266 16.40625 A 0.290029 0.290029 0 0 0 31.447266 16.404297 A 0.290029 0.290029 0 0 0 31.447266 16.402344 L 31.447266 16.011719 A 0.28999997 0.28999997 0 0 0 31.447266 16.009766 A 0.28999997 0.28999997 0 0 0 31.447266 16.007812 A 0.28999997 0.28999997 0 0 0 31.447266 16.005859 A 0.28999997 0.28999997 0 0 0 31.447266 16.003906 L 31.447266 15.855469 A 0.28999997 0.28999997 0 0 0 31.152344 15.568359 z M 27.3125 15.576172 A 0.42649999 0.42649999 0 0 0 26.876953 15.988281 L 26.863281 16.556641 L 26.839844 16.824219 A 0.42649999 0.42649999 0 0 0 27.238281 17.273438 A 0.42649999 0.42649999 0 0 0 27.697266 16.882812 L 27.710938 16.617188 A 0.42654263 0.42654263 0 0 0 27.71875 16.59375 L 27.734375 16.011719 A 0.42649999 0.42649999 0 0 0 27.3125 15.576172 z M 8.4160156 15.716797 A 0.68549998 0.68549998 0 0 0 7.78125 16.455078 L 7.8105469 16.824219 A 0.6855685 0.6855685 0 0 0 7.8105469 16.859375 L 7.8613281 17.236328 A 0.6855685 0.6855685 0 0 0 7.8691406 17.265625 L 7.9355469 17.642578 A 0.6855685 0.6855685 0 0 0 7.9433594 17.671875 L 7.9941406 17.908203 A 0.68549998 0.68549998 0 0 0 8.8144531 18.425781 A 0.68549998 0.68549998 0 0 0 8.4746094 19.333984 L 8.5703125 19.554688 A 0.6855685 0.6855685 0 0 0 8.5859375 19.583984 L 8.7558594 19.908203 A 0.6855685 0.6855685 0 0 0 8.7695312 19.9375 L 8.9550781 20.255859 A 0.6855685 0.6855685 0 0 0 8.96875 20.285156 L 9.1679688 20.587891 A 0.6855685 0.6855685 0 0 0 9.1835938 20.617188 L 9.2050781 20.646484 A 0.68549998 0.68549998 0 0 0 10.158203 20.808594 A 0.68549998 0.68549998 0 0 0 10.320312 19.849609 L 10.3125 19.835938 L 10.134766 19.554688 L 9.9648438 19.267578 L 9.8183594 18.970703 L 9.7226562 18.771484 A 0.68549998 0.68549998 0 0 0 8.9003906 18.398438 A 0.68549998 0.68549998 0 0 0 9.3300781 17.597656 L 9.2792969 17.384766 L 9.2207031 17.044922 L 9.1757812 16.705078 L 9.1464844 16.351562 A 0.68549998 0.68549998 0 0 0 8.4160156 15.716797 z M 0.84179688 16.373047 A 0.28999997 0.28999997 0 0 0 0.56054688 16.675781 L 0.56835938 16.800781 A 0.290029 0.290029 0 0 0 0.56835938 16.808594 L 0.58984375 17.193359 A 0.290029 0.290029 0 0 0 0.58984375 17.199219 L 0.59765625 17.265625 A 0.28999997 0.28999997 0 0 0 0.91601562 17.53125 A 0.28999997 0.28999997 0 0 0 1.1738281 17.214844 L 1.1660156 17.15625 L 1.1445312 16.771484 L 1.1445312 16.654297 A 0.28999997 0.28999997 0 0 0 0.84179688 16.373047 z M 4.7324219 16.970703 A 0.42649999 0.42649999 0 0 0 4.3632812 17.443359 L 4.4003906 17.775391 A 0.42654263 0.42654263 0 0 0 4.40625 17.796875 L 4.4960938 18.306641 A 0.42649999 0.42649999 0 0 0 4.9902344 18.654297 A 0.42649999 0.42649999 0 0 0 5.3378906 18.160156 L 5.2480469 17.658203 L 5.2050781 17.339844 A 0.42649999 0.42649999 0 0 0 4.7324219 16.970703 z M 31.033203 18.033203 A 0.28999997 0.28999997 0 0 0 30.701172 18.269531 L 30.634766 18.638672 L 30.597656 18.837891 A 0.28999997 0.28999997 0 0 0 30.826172 19.177734 A 0.28999997 0.28999997 0 0 0 31.166016 18.941406 L 31.210938 18.75 A 0.290029 0.290029 0 0 0 31.210938 18.748047 A 0.290029 0.290029 0 0 0 31.210938 18.746094 A 0.290029 0.290029 0 0 0 31.210938 18.744141 A 0.290029 0.290029 0 0 0 31.210938 18.742188 L 31.269531 18.365234 A 0.28999997 0.28999997 0 0 0 31.033203 18.033203 z M 26.945312 18.115234 A 0.42649999 0.42649999 0 0 0 26.597656 18.439453 L 26.537109 18.720703 L 26.382812 19.244141 A 0.42649999 0.42649999 0 0 0 26.677734 19.769531 A 0.42649999 0.42649999 0 0 0 27.208984 19.480469 L 27.357422 18.941406 A 0.42654263 0.42654263 0 0 0 27.365234 18.919922 L 27.431641 18.632812 A 0.42649999 0.42649999 0 0 0 27.113281 18.123047 A 0.42649999 0.42649999 0 0 0 26.945312 18.115234 z M 1.0703125 18.675781 A 0.28999997 0.28999997 0 0 0 0.84179688 19.015625 L 0.85546875 19.119141 A 0.290029 0.290029 0 0 0 0.86328125 19.126953 L 0.96679688 19.599609 A 0.28999997 0.28999997 0 0 0 1.3144531 19.8125 A 0.28999997 0.28999997 0 0 0 1.5351562 19.466797 L 1.4238281 19 L 1.4101562 18.912109 A 0.28999997 0.28999997 0 0 0 1.0703125 18.675781 z M 5.40625 19.453125 A 0.42649999 0.42649999 0 0 0 5.2402344 19.472656 A 0.42649999 0.42649999 0 0 0 4.9746094 20.011719 L 4.9746094 20.027344 A 0.42654263 0.42654263 0 0 0 4.9824219 20.041016 L 5.1894531 20.558594 A 0.42654263 0.42654263 0 0 0 5.1972656 20.574219 L 5.3144531 20.839844 A 0.42649999 0.42649999 0 0 0 5.875 21.052734 A 0.42649999 0.42649999 0 0 0 6.0898438 20.484375 L 5.9785156 20.234375 L 5.7792969 19.738281 A 0.42649999 0.42649999 0 0 0 5.40625 19.453125 z M 30.402344 20.291016 A 0.28999997 0.28999997 0 0 0 30.183594 20.484375 L 30 21.03125 A 0.28999997 0.28999997 0 0 0 30.177734 21.400391 A 0.28999997 0.28999997 0 0 0 30.546875 21.214844 L 30.730469 20.669922 A 0.28999997 0.28999997 0 0 0 30.552734 20.300781 A 0.28999997 0.28999997 0 0 0 30.402344 20.291016 z M 21.591797 20.330078 A 0.68549998 0.68549998 0 0 0 21.119141 20.566406 L 21.076172 20.609375 L 20.853516 20.853516 L 20.609375 21.076172 L 20.367188 21.296875 L 20.21875 21.408203 A 0.68549998 0.68549998 0 0 0 20.101562 22.375 A 0.68549998 0.68549998 0 0 0 21.060547 22.484375 L 21.222656 22.359375 A 0.6855685 0.6855685 0 0 0 21.244141 22.337891 L 21.525391 22.101562 A 0.6855685 0.6855685 0 0 0 21.546875 22.080078 L 21.806641 21.828125 A 0.6855685 0.6855685 0 0 0 21.828125 21.806641 L 22.080078 21.546875 A 0.6855685 0.6855685 0 0 0 22.101562 21.525391 L 22.152344 21.458984 A 0.68549998 0.68549998 0 0 0 22.085938 20.492188 A 0.68549998 0.68549998 0 0 0 21.591797 20.330078 z M 20.101562 22.375 A 0.68549998 0.68549998 0 0 0 19.177734 22.080078 L 18.970703 22.181641 L 18.667969 22.322266 L 18.359375 22.441406 L 18.041016 22.550781 L 18.033203 22.550781 A 0.68549998 0.68549998 0 0 0 17.5625 23.400391 A 0.68549998 0.68549998 0 0 0 17.5625 23.408203 A 0.68549998 0.68549998 0 0 0 18.410156 23.873047 L 18.431641 23.865234 A 0.6855685 0.6855685 0 0 0 18.462891 23.857422 L 18.816406 23.740234 A 0.6855685 0.6855685 0 0 0 18.845703 23.724609 L 19.185547 23.591797 A 0.6855685 0.6855685 0 0 0 19.222656 23.578125 L 19.554688 23.421875 A 0.6855685 0.6855685 0 0 0 19.583984 23.416016 L 19.798828 23.296875 A 0.68549998 0.68549998 0 0 0 20.101562 22.375 z M 17.5625 23.408203 L 17.560547 23.408203 A 0.68549998 0.68549998 0 0 0 16.792969 22.810547 L 16.705078 22.824219 L 16.351562 22.853516 L 15.996094 22.861328 L 15.650391 22.853516 L 15.568359 22.847656 A 0.68549998 0.68549998 0 0 0 14.841797 23.416016 A 0.68549998 0.68549998 0 0 0 14.314453 22.648438 L 14.283203 22.648438 L 13.958984 22.550781 L 13.642578 22.441406 L 13.332031 22.322266 L 13.154297 22.242188 A 0.68549998 0.68549998 0 0 0 12.246094 22.582031 A 0.68549998 0.68549998 0 0 0 12.585938 23.488281 L 12.777344 23.578125 A 0.6855685 0.6855685 0 0 0 12.814453 23.591797 L 13.154297 23.724609 A 0.6855685 0.6855685 0 0 0 13.183594 23.740234 L 13.539062 23.857422 A 0.6855685 0.6855685 0 0 0 13.568359 23.865234 L 13.929688 23.96875 A 0.6855685 0.6855685 0 0 0 13.958984 23.976562 L 14.011719 23.984375 A 0.68549998 0.68549998 0 0 0 14.830078 23.474609 A 0.68549998 0.68549998 0 0 0 15.464844 24.212891 L 15.560547 24.220703 A 0.6855685 0.6855685 0 0 0 15.597656 24.220703 L 15.982422 24.226562 A 0.6855685 0.6855685 0 0 0 16.019531 24.226562 L 16.402344 24.220703 A 0.6855685 0.6855685 0 0 0 16.439453 24.220703 L 16.824219 24.191406 A 0.6855685 0.6855685 0 0 0 16.859375 24.191406 L 16.970703 24.175781 A 0.68549998 0.68549998 0 0 0 17.5625 23.408203 z M 26.201172 20.519531 A 0.42649999 0.42649999 0 0 0 26.035156 20.537109 A 0.42649999 0.42649999 0 0 0 25.785156 20.75 L 25.564453 21.185547 L 25.394531 21.480469 A 0.42649999 0.42649999 0 0 0 25.548828 22.064453 A 0.42649999 0.42649999 0 0 0 26.132812 21.910156 L 26.308594 21.599609 A 0.42654263 0.42654263 0 0 0 26.316406 21.583984 L 26.544922 21.142578 A 0.42649999 0.42649999 0 0 0 26.361328 20.566406 A 0.42649999 0.42649999 0 0 0 26.201172 20.519531 z M 10.652344 20.617188 A 0.68549998 0.68549998 0 0 0 10.164062 20.808594 A 0.68549998 0.68549998 0 0 0 10.134766 21.777344 L 10.164062 21.806641 A 0.6855685 0.6855685 0 0 0 10.195312 21.828125 L 10.453125 22.080078 A 0.6855685 0.6855685 0 0 0 10.474609 22.101562 L 10.748047 22.337891 A 0.6855685 0.6855685 0 0 0 10.777344 22.359375 L 11.058594 22.587891 A 0.6855685 0.6855685 0 0 0 11.087891 22.603516 L 11.287109 22.744141 A 0.68549998 0.68549998 0 0 0 12.238281 22.582031 A 0.68549998 0.68549998 0 0 0 12.076172 21.628906 L 11.900391 21.496094 L 11.634766 21.296875 L 11.390625 21.076172 L 11.146484 20.853516 L 11.132812 20.832031 A 0.68549998 0.68549998 0 0 0 10.652344 20.617188 z M 1.8046875 20.910156 A 0.28999997 0.28999997 0 0 0 1.6542969 20.919922 A 0.28999997 0.28999997 0 0 0 1.4765625 21.289062 L 1.484375 21.310547 A 0.290029 0.290029 0 0 0 1.484375 21.326172 L 1.6914062 21.84375 A 0.28999997 0.28999997 0 0 0 2.0664062 22.005859 A 0.28999997 0.28999997 0 0 0 2.2285156 21.628906 L 2.0292969 21.119141 L 2.0234375 21.105469 A 0.28999997 0.28999997 0 0 0 1.8046875 20.910156 z M 6.4453125 21.738281 A 0.42649999 0.42649999 0 0 0 6.2890625 21.798828 A 0.42649999 0.42649999 0 0 0 6.1640625 22.388672 L 6.2675781 22.550781 A 0.42654263 0.42654263 0 0 0 6.28125 22.566406 L 6.5917969 23.009766 A 0.42654263 0.42654263 0 0 0 6.6074219 23.023438 L 6.6796875 23.119141 A 0.42649999 0.42649999 0 0 0 7.2792969 23.193359 A 0.42649999 0.42649999 0 0 0 7.3457031 22.587891 L 7.2851562 22.507812 L 6.9765625 22.080078 L 6.8808594 21.931641 A 0.42649999 0.42649999 0 0 0 6.4453125 21.738281 z M 29.574219 22.441406 A 0.28999997 0.28999997 0 0 0 29.335938 22.595703 L 29.078125 23.097656 A 0.28999997 0.28999997 0 0 0 29.179688 23.496094 A 0.28999997 0.28999997 0 0 0 29.580078 23.386719 L 29.580078 23.378906 A 0.290029 0.290029 0 0 0 29.585938 23.371094 L 29.851562 22.861328 A 0.28999997 0.28999997 0 0 0 29.71875 22.470703 A 0.28999997 0.28999997 0 0 0 29.574219 22.441406 z M 24.744141 22.677734 A 0.42649999 0.42649999 0 0 0 24.462891 22.832031 L 24.396484 22.919922 L 24.050781 23.3125 L 23.923828 23.445312 A 0.42649999 0.42649999 0 0 0 23.939453 24.050781 A 0.42649999 0.42649999 0 0 0 24.544922 24.035156 L 24.677734 23.894531 A 0.42654263 0.42654263 0 0 0 24.693359 23.880859 L 25.046875 23.466797 A 0.42654263 0.42654263 0 0 0 25.0625 23.453125 L 25.128906 23.363281 A 0.42649999 0.42649999 0 0 0 25.060547 22.765625 A 0.42649999 0.42649999 0 0 0 24.744141 22.677734 z M 2.7089844 23.015625 A 0.28999997 0.28999997 0 0 0 2.5605469 23.052734 A 0.28999997 0.28999997 0 0 0 2.4589844 23.453125 L 2.7460938 23.955078 A 0.28999997 0.28999997 0 0 0 3.1445312 24.056641 A 0.28999997 0.28999997 0 0 0 3.2480469 23.666016 L 2.9609375 23.164062 A 0.28999997 0.28999997 0 0 0 2.7089844 23.015625 z M 8.1386719 23.703125 A 0.42649999 0.42649999 0 0 0 7.8398438 23.835938 A 0.42649999 0.42649999 0 0 0 7.8535156 24.433594 L 8.1054688 24.677734 A 0.42654263 0.42654263 0 0 0 8.1191406 24.693359 L 8.5039062 25.017578 A 0.42649999 0.42649999 0 0 0 9.1015625 24.980469 A 0.42649999 0.42649999 0 0 0 9.0566406 24.375 L 8.6894531 24.050781 L 8.4453125 23.822266 A 0.42649999 0.42649999 0 0 0 8.1386719 23.703125 z M 28.433594 24.427734 A 0.28999997 0.28999997 0 0 0 28.169922 24.552734 L 27.917969 24.90625 L 27.837891 25.009766 A 0.28999997 0.28999997 0 0 0 27.880859 25.416016 A 0.28999997 0.28999997 0 0 0 28.294922 25.363281 L 28.376953 25.261719 A 0.290029 0.290029 0 0 0 28.382812 25.246094 L 28.642578 24.884766 A 0.28999997 0.28999997 0 0 0 28.576172 24.478516 A 0.28999997 0.28999997 0 0 0 28.433594 24.427734 z M 23.027344 24.46875 A 0.42649999 0.42649999 0 0 0 22.714844 24.558594 L 22.507812 24.714844 L 22.080078 25.017578 L 22.056641 25.03125 A 0.42649999 0.42649999 0 0 0 21.931641 25.623047 A 0.42649999 0.42649999 0 0 0 22.521484 25.755859 L 22.550781 25.732422 A 0.42654263 0.42654263 0 0 0 22.566406 25.71875 L 23.009766 25.408203 A 0.42654263 0.42654263 0 0 0 23.023438 25.394531 L 23.238281 25.224609 A 0.42649999 0.42649999 0 0 0 23.3125 24.626953 A 0.42649999 0.42649999 0 0 0 23.027344 24.46875 z M 4.015625 24.958984 A 0.28999997 0.28999997 0 0 0 3.8007812 25.017578 A 0.28999997 0.28999997 0 0 0 3.75 25.423828 L 4.0683594 25.830078 A 0.290029 0.290029 0 0 0 4.0820312 25.84375 L 4.1191406 25.888672 A 0.28999997 0.28999997 0 0 0 4.5253906 25.917969 A 0.28999997 0.28999997 0 0 0 4.5546875 25.511719 L 4.5253906 25.466797 L 4.2070312 25.068359 A 0.28999997 0.28999997 0 0 0 4.015625 24.958984 z M 10.224609 25.267578 A 0.42649999 0.42649999 0 0 0 10.060547 25.275391 A 0.42649999 0.42649999 0 0 0 9.8027344 25.474609 A 0.42649999 0.42649999 0 0 0 9.9589844 26.058594 L 10.400391 26.308594 A 0.42654263 0.42654263 0 0 0 10.416016 26.316406 L 10.726562 26.478516 A 0.42649999 0.42649999 0 0 0 11.294922 26.294922 A 0.42649999 0.42649999 0 0 0 11.109375 25.71875 L 10.814453 25.564453 L 10.378906 25.320312 A 0.42649999 0.42649999 0 0 0 10.224609 25.267578 z M 20.794922 25.808594 A 0.42649999 0.42649999 0 0 0 20.632812 25.84375 L 20.234375 26.021484 L 19.865234 26.167969 A 0.42649999 0.42649999 0 0 0 19.621094 26.722656 A 0.42649999 0.42649999 0 0 0 20.173828 26.966797 L 20.558594 26.810547 A 0.42654263 0.42654263 0 0 0 20.574219 26.802734 L 20.978516 26.619141 A 0.42649999 0.42649999 0 0 0 21.193359 26.058594 A 0.42649999 0.42649999 0 0 0 20.957031 25.835938 A 0.42649999 0.42649999 0 0 0 20.794922 25.808594 z M 26.996094 26.226562 A 0.28999997 0.28999997 0 0 0 26.722656 26.308594 L 26.515625 26.523438 L 26.324219 26.707031 A 0.28999997 0.28999997 0 0 0 26.308594 27.113281 A 0.28999997 0.28999997 0 0 0 26.722656 27.128906 L 26.921875 26.9375 A 0.290029 0.290029 0 0 0 26.929688 26.929688 L 27.142578 26.707031 A 0.28999997 0.28999997 0 0 0 27.128906 26.294922 A 0.28999997 0.28999997 0 0 0 26.996094 26.226562 z M 12.466797 26.324219 A 0.42649999 0.42649999 0 0 0 12.091797 26.611328 A 0.42649999 0.42649999 0 0 0 12.357422 27.150391 L 12.505859 27.203125 A 0.42654263 0.42654263 0 0 0 12.519531 27.208984 L 13.058594 27.357422 A 0.42654263 0.42654263 0 0 0 13.080078 27.365234 L 13.212891 27.394531 A 0.42649999 0.42649999 0 0 0 13.730469 27.076172 A 0.42649999 0.42649999 0 0 0 13.40625 26.568359 L 13.279297 26.537109 L 12.763672 26.390625 L 12.630859 26.345703 A 0.42649999 0.42649999 0 0 0 12.466797 26.324219 z M 18.457031 26.628906 A 0.42649999 0.42649999 0 0 0 18.292969 26.634766 L 18.197266 26.65625 L 17.658203 26.751953 L 17.494141 26.773438 A 0.42649999 0.42649999 0 0 0 17.126953 27.253906 A 0.42649999 0.42649999 0 0 0 17.597656 27.623047 L 17.775391 27.601562 A 0.42654263 0.42654263 0 0 0 17.796875 27.59375 L 18.351562 27.498047 A 0.42654263 0.42654263 0 0 0 18.373047 27.490234 L 18.484375 27.46875 A 0.42649999 0.42649999 0 0 0 18.800781 26.951172 A 0.42649999 0.42649999 0 0 0 18.457031 26.628906 z M 5.5957031 26.685547 A 0.28999997 0.28999997 0 0 0 5.3144531 26.767578 A 0.28999997 0.28999997 0 0 0 5.3300781 27.179688 L 5.6035156 27.4375 A 0.290029 0.290029 0 0 0 5.6171875 27.453125 L 5.765625 27.578125 A 0.28999997 0.28999997 0 0 0 6.171875 27.548828 A 0.28999997 0.28999997 0 0 0 6.1425781 27.142578 L 6.0019531 27.017578 L 5.7285156 26.759766 A 0.28999997 0.28999997 0 0 0 5.5957031 26.685547 z M 15.029297 26.833984 A 0.42649999 0.42649999 0 0 0 14.572266 27.224609 A 0.42649999 0.42649999 0 0 0 14.962891 27.681641 L 15.384766 27.710938 A 0.42654263 0.42654263 0 0 0 15.40625 27.71875 L 15.833984 27.726562 A 0.42649999 0.42649999 0 0 0 16.269531 27.3125 A 0.42649999 0.42649999 0 0 0 15.855469 26.876953 L 15.443359 26.863281 L 15.029297 26.833984 z M 25.238281 27.763672 A 0.28999997 0.28999997 0 0 0 25.025391 27.822266 L 24.898438 27.925781 L 24.566406 28.154297 A 0.28999997 0.28999997 0 0 0 24.5 28.560547 A 0.28999997 0.28999997 0 0 0 24.90625 28.626953 L 25.238281 28.390625 A 0.290029 0.290029 0 0 0 25.246094 28.382812 L 25.386719 28.279297 A 0.28999997 0.28999997 0 0 0 25.429688 27.873047 A 0.28999997 0.28999997 0 0 0 25.238281 27.763672 z M 7.2714844 28.154297 A 0.28999997 0.28999997 0 0 0 7.0859375 28.273438 A 0.28999997 0.28999997 0 0 0 7.1523438 28.671875 L 7.3515625 28.818359 A 0.290029 0.290029 0 0 0 7.3671875 28.826172 L 7.6484375 29.003906 A 0.28999997 0.28999997 0 0 0 8.046875 28.914062 A 0.28999997 0.28999997 0 0 0 7.9570312 28.515625 L 7.6835938 28.339844 L 7.484375 28.199219 A 0.28999997 0.28999997 0 0 0 7.2714844 28.154297 z M 23.265625 29.029297 A 0.28999997 0.28999997 0 0 0 23.119141 29.070312 L 23.083984 29.083984 L 22.617188 29.328125 A 0.28999997 0.28999997 0 0 0 22.492188 29.71875 A 0.28999997 0.28999997 0 0 0 22.884766 29.845703 L 23.355469 29.601562 A 0.290029 0.290029 0 0 0 23.371094 29.59375 L 23.408203 29.572266 A 0.28999997 0.28999997 0 0 0 23.519531 29.173828 A 0.28999997 0.28999997 0 0 0 23.265625 29.029297 z M 9.3398438 29.328125 A 0.28999997 0.28999997 0 0 0 9.2265625 29.34375 A 0.28999997 0.28999997 0 0 0 9.0566406 29.482422 A 0.28999997 0.28999997 0 0 0 9.1835938 29.875 L 9.2929688 29.933594 A 0.290029 0.290029 0 0 0 9.3085938 29.941406 L 9.7226562 30.125 A 0.28999997 0.28999997 0 0 0 10.105469 29.984375 A 0.28999997 0.28999997 0 0 0 9.9589844 29.601562 L 9.5527344 29.416016 L 9.4492188 29.357422 A 0.28999997 0.28999997 0 0 0 9.3398438 29.328125 z M 21.208984 29.986328 A 0.28999997 0.28999997 0 0 0 21.060547 29.992188 L 20.507812 30.183594 A 0.28999997 0.28999997 0 0 0 20.330078 30.546875 A 0.28999997 0.28999997 0 0 0 20.691406 30.730469 L 21.244141 30.546875 A 0.28999997 0.28999997 0 0 0 21.421875 30.177734 A 0.28999997 0.28999997 0 0 0 21.208984 29.986328 z M 11.410156 30.195312 A 0.28999997 0.28999997 0 0 0 11.191406 30.384766 A 0.28999997 0.28999997 0 0 0 11.375 30.753906 L 11.398438 30.759766 A 0.290029 0.290029 0 0 0 11.412109 30.767578 L 11.943359 30.916016 A 0.28999997 0.28999997 0 0 0 12.298828 30.716797 A 0.28999997 0.28999997 0 0 0 12.099609 30.361328 L 11.574219 30.214844 L 11.560547 30.207031 A 0.28999997 0.28999997 0 0 0 11.410156 30.195312 z M 18.861328 30.605469 L 18.632812 30.650391 L 18.298828 30.701172 A 0.28999997 0.28999997 0 0 0 18.064453 31.033203 A 0.28999997 0.28999997 0 0 0 18.396484 31.277344 L 18.728516 31.21875 A 0.290029 0.290029 0 0 0 18.734375 31.21875 L 18.970703 31.173828 A 0.28999997 0.28999997 0 0 0 19.201172 30.833984 A 0.28999997 0.28999997 0 0 0 18.861328 30.605469 z M 13.767578 30.716797 A 0.28999997 0.28999997 0 0 0 13.435547 30.958984 A 0.28999997 0.28999997 0 0 0 13.685547 31.285156 L 14.025391 31.335938 A 0.290029 0.290029 0 0 0 14.033203 31.335938 L 14.269531 31.365234 A 0.28999997 0.28999997 0 0 0 14.585938 31.107422 A 0.28999997 0.28999997 0 0 0 14.328125 30.789062 L 14.107422 30.759766 L 13.767578 30.716797 z M 16.601562 30.863281 L 16.380859 30.878906 L 16.033203 30.878906 A 0.28999997 0.28999997 0 0 0 15.746094 31.173828 A 0.28999997 0.28999997 0 0 0 16.041016 31.460938 L 16.394531 31.455078 A 0.290029 0.290029 0 0 0 16.402344 31.455078 L 16.623047 31.447266 A 0.28999997 0.28999997 0 0 0 16.904297 31.144531 A 0.28999997 0.28999997 0 0 0 16.601562 30.863281 z "
     transform="scale(0.26458333)" />
</svg>
