<?xml version="1.0" encoding="UTF-8" standalone="no"?>
<svg
   id="Calque_1"
   data-name="Calque 1"
   viewBox="0 0 32 32"
   version="1.1"
   sodipodi:docname="hair.svg"
   inkscape:version="1.1 (c68e22c387, 2021-05-23)"
   inkscape:export-filename="D:\DEV_SRC\RxOT\DuAEF\DuAEF_Duik\icons/w16\w16_hair.png"
   inkscape:export-xdpi="48"
   inkscape:export-ydpi="48"
   xmlns:inkscape="http://www.inkscape.org/namespaces/inkscape"
   xmlns:sodipodi="http://sodipodi.sourceforge.net/DTD/sodipodi-0.dtd"
   xmlns="http://www.w3.org/2000/svg"
   xmlns:svg="http://www.w3.org/2000/svg"
   xmlns:rdf="http://www.w3.org/1999/02/22-rdf-syntax-ns#"
   xmlns:cc="http://creativecommons.org/ns#"
   xmlns:dc="http://purl.org/dc/elements/1.1/">
  <metadata
     id="metadata31">
    <rdf:RDF>
      <cc:Work
         rdf:about="">
        <dc:format>image/svg+xml</dc:format>
        <dc:type
           rdf:resource="http://purl.org/dc/dcmitype/StillImage" />
        <dc:title>body_l</dc:title>
      </cc:Work>
    </rdf:RDF>
  </metadata>
  <sodipodi:namedview
     pagecolor="#ffffff"
     bordercolor="#666666"
     borderopacity="1"
     objecttolerance="10"
     gridtolerance="10"
     guidetolerance="10"
     inkscape:pageopacity="0"
     inkscape:pageshadow="2"
     inkscape:window-width="1920"
     inkscape:window-height="1027"
     id="namedview29"
     showgrid="false"
     inkscape:snap-bbox="true"
     inkscape:bbox-paths="true"
     inkscape:bbox-nodes="true"
     inkscape:snap-bbox-edge-midpoints="true"
     inkscape:snap-bbox-midpoints="true"
     inkscape:snap-nodes="false"
     inkscape:zoom="10.429825"
     inkscape:cx="-11.553406"
     inkscape:cy="15.100925"
     inkscape:window-x="-8"
     inkscape:window-y="-8"
     inkscape:window-maximized="1"
     inkscape:current-layer="Calque_1"
     inkscape:pagecheckerboard="1" />
  <defs
     id="defs4">
    <style
       id="style2">.cls-1{fill:#e3e3e3;}</style>
    <style
       id="style1399">.cls-1{fill:#e3e3e3;}</style>
    <style
       id="style1399-4">.cls-1{fill:#e3e3e3;}</style>
    <style
       id="style1399-8">.cls-1{fill:#e3e3e3;}</style>
    <style
       id="style1399-4-5">.cls-1{fill:#e3e3e3;}</style>
    <style
       id="style1399-0">.cls-1{fill:#e3e3e3;}</style>
    <style
       id="style854">.cls-1{fill:#e3e3e3;}</style>
    <style
       id="style1399-84">.cls-1{fill:#e3e3e3;}</style>
    <style
       id="style1399-4-8">.cls-1{fill:#e3e3e3;}</style>
    <style
       id="style1399-8-10">.cls-1{fill:#e3e3e3;}</style>
    <style
       id="style1399-4-5-3">.cls-1{fill:#e3e3e3;}</style>
    <style
       id="style1399-0-0">.cls-1{fill:#e3e3e3;}</style>
    <style
       id="style1399-5">.cls-1{fill:#e3e3e3;}</style>
    <style
       id="style1399-4-6">.cls-1{fill:#e3e3e3;}</style>
    <style
       id="style1399-8-1">.cls-1{fill:#e3e3e3;}</style>
    <style
       id="style1399-4-5-1">.cls-1{fill:#e3e3e3;}</style>
    <style
       id="style1399-0-5">.cls-1{fill:#e3e3e3;}</style>
    <style
       id="style1257">.cls-1{fill:#e3e3e3;}</style>
    <style
       id="style836">.cls-1{fill:#e3e3e3;}</style>
    <style
       id="style891">.cls-1{fill:#e3e3e3;}</style>
    <inkscape:path-effect
       oposite_fuse="false"
       fuse_paths="false"
       discard_orig_path="false"
       mode="free"
       is_visible="true"
       id="path-effect860"
       center_point="4.2644223,4.1242769"
       end_point="4.2644223,6.6226791"
       start_point="4.2644223,1.6258747"
       effect="mirror_symmetry" />
    <style
       id="style1399-9">.cls-1{fill:#e3e3e3;}</style>
    <style
       id="style1399-4-63">.cls-1{fill:#e3e3e3;}</style>
    <style
       id="style1399-8-8">.cls-1{fill:#e3e3e3;}</style>
    <style
       id="style1399-4-5-5">.cls-1{fill:#e3e3e3;}</style>
    <style
       id="style1399-0-6">.cls-1{fill:#e3e3e3;}</style>
    <style
       id="style854-1">.cls-1{fill:#e3e3e3;}</style>
    <style
       id="style1399-84-1">.cls-1{fill:#e3e3e3;}</style>
    <style
       id="style1399-4-8-5">.cls-1{fill:#e3e3e3;}</style>
    <style
       id="style1399-8-10-9">.cls-1{fill:#e3e3e3;}</style>
    <style
       id="style1399-4-5-3-8">.cls-1{fill:#e3e3e3;}</style>
    <style
       id="style1399-0-0-4">.cls-1{fill:#e3e3e3;}</style>
    <style
       id="style1399-5-8">.cls-1{fill:#e3e3e3;}</style>
    <style
       id="style1399-4-6-1">.cls-1{fill:#e3e3e3;}</style>
    <style
       id="style1399-8-1-0">.cls-1{fill:#e3e3e3;}</style>
    <style
       id="style1399-4-5-1-3">.cls-1{fill:#e3e3e3;}</style>
    <style
       id="style1399-0-5-0">.cls-1{fill:#e3e3e3;}</style>
    <style
       id="style1257-4">.cls-1{fill:#e3e3e3;}</style>
    <style
       id="style836-4">.cls-1{fill:#e3e3e3;}</style>
    <style
       id="style891-4">.cls-1{fill:#e3e3e3;}</style>
  </defs>
  <title
     id="title6">body_l</title>
  <path
     style="fill:#b1b1b1;fill-opacity:1;stroke-width:0.09862523"
     d="m 20.458769,30.561964 c 0.607482,-0.639521 1.80296,-2.369512 2.36405,-3.730581 0.586672,-1.423123 0.949576,-2.970784 0.995159,-4.509416 0.06384,-2.154876 -0.421729,-4.233317 -1.017416,-6.386939 -2.216141,0.220843 -3.495244,0.446294 -5.253454,0.513987 -1.164883,0.04485 -3.4965,-0.07191 -3.4965,-0.07191 -0.412668,-1.89202 -0.46649,-3.769657 -0.407528,-5.660433 0.01387,-0.444773 0.178641,-1.322961 0.178641,-1.322961 0,0 -0.675154,1.178029 -0.853837,1.825646 -0.470277,1.704467 -0.447597,3.267668 -0.534596,5.277455 0,0 -1.84505,-0.170662 -2.7674398,-0.257438 -0.9231159,-0.08684 -1.2819218,-0.115311 -2.7690741,-0.263423 -0.4786395,2.176551 -0.5519197,4.815691 -0.1681866,6.896263 0.5394928,2.766013 2.0612051,6.605662 3.1108399,7.861271 -1.4833985,-0.283911 -1.9913021,-0.896104 -1.9913021,-0.896104 0.056642,0.456048 0.1806137,0.737237 0.5094675,1.108107 -0.4837633,0.03486 -1.2802618,-0.444444 -1.7776662,-0.880068 -0.4438934,-0.38876 -0.987705,-1.469019 -0.987705,-1.469019 0,0 -0.054214,1.076313 0.1992147,1.520067 0.25661,0.449324 1.2231561,0.955802 1.2231561,0.955802 H 6.7475041 c -0.393015,0 -1.525342,-0.16882 -2.142426,-0.5764 C 3.0169367,29.446914 1.8021543,27.766353 1.0764518,26.006848 0.0965609,23.631049 -0.07175989,20.906336 0.1825887,18.34901 0.56405873,14.513553 1.7239436,10.626149 3.7591585,7.3529013 5.2510707,4.9534503 7.3470333,2.787031 9.8283981,1.4357369 10.857053,0.87555538 12.082724,0.64719226 13.254005,0.65303826 c 0.9241,0.004612 1.858183,0.25537281 2.696387,0.64446964 0.10515,0.048811 0.280072,0.2061816 0.280072,0.2061816 0,0 0.361147,-0.1971781 0.558243,-0.2486397 1.474503,-0.38499109 3.119382,-0.93702465 4.552566,-0.41898704 3.763332,1.36029144 6.59656,4.96301644 8.488148,8.48933974 1.648845,3.0737995 2.106711,6.7690775 2.072642,10.2570235 -0.02388,2.444404 -0.247,5.117733 -1.592673,7.158529 -1.135608,1.72222 -2.899111,3.433656 -5.023108,3.615136 0,-0.02927 0.423397,-0.510262 0.509267,-0.820495 0.09294,-0.335772 0.131696,-0.646359 -0.01612,-1.045068 0,0 -0.588429,0.961706 -1.030759,1.288693 -0.618357,0.457114 -1.273103,0.695971 -2.144902,0.849269 0.363726,-0.402737 0.863099,-0.987769 1.145504,-1.571139 0.290173,-0.599416 0.583892,-1.7814 0.536164,-1.924584 0,0 -1.813903,2.929502 -3.82666,3.429218 z"
     id="path5777"
     inkscape:connector-curvature="0"
     sodipodi:nodetypes="caacacacacacccccacacsaaaaaaacaaaaacacacaccc" />
</svg>
