<?xml version="1.0" encoding="UTF-8" standalone="no"?>
<!-- Created with Inkscape (http://www.inkscape.org/) -->

<svg
   width="32"
   height="32"
   viewBox="0 0 8.4666666 8.4666666"
   version="1.1"
   id="svg8"
   inkscape:version="1.1 (c68e22c387, 2021-05-23)"
   sodipodi:docname="hips.svg"
   inkscape:export-filename="D:\DEV_SRC\RxOT\DuAEF\DuAEF_Duik\icons/w16/w16_hips.png"
   inkscape:export-xdpi="48"
   inkscape:export-ydpi="48"
   xmlns:inkscape="http://www.inkscape.org/namespaces/inkscape"
   xmlns:sodipodi="http://sodipodi.sourceforge.net/DTD/sodipodi-0.dtd"
   xmlns="http://www.w3.org/2000/svg"
   xmlns:svg="http://www.w3.org/2000/svg"
   xmlns:rdf="http://www.w3.org/1999/02/22-rdf-syntax-ns#"
   xmlns:cc="http://creativecommons.org/ns#"
   xmlns:dc="http://purl.org/dc/elements/1.1/">
  <defs
     id="defs2">
    <inkscape:path-effect
       effect="mirror_symmetry"
       start_point="4.2644223,1.6258747"
       end_point="4.2644223,6.6226791"
       center_point="4.2644223,4.1242769"
       id="path-effect860"
       is_visible="true"
       mode="free"
       discard_orig_path="false"
       fuse_paths="false"
       oposite_fuse="false" />
    <style
       id="style1399">.cls-1{fill:#e3e3e3;}</style>
    <style
       id="style1399-4">.cls-1{fill:#e3e3e3;}</style>
    <style
       id="style1399-8">.cls-1{fill:#e3e3e3;}</style>
    <style
       id="style1399-4-5">.cls-1{fill:#e3e3e3;}</style>
    <style
       id="style1399-0">.cls-1{fill:#e3e3e3;}</style>
    <style
       id="style854">.cls-1{fill:#e3e3e3;}</style>
    <style
       id="style1399-84">.cls-1{fill:#e3e3e3;}</style>
    <style
       id="style1399-4-8">.cls-1{fill:#e3e3e3;}</style>
    <style
       id="style1399-8-10">.cls-1{fill:#e3e3e3;}</style>
    <style
       id="style1399-4-5-3">.cls-1{fill:#e3e3e3;}</style>
    <style
       id="style1399-0-0">.cls-1{fill:#e3e3e3;}</style>
    <style
       id="style1399-5">.cls-1{fill:#e3e3e3;}</style>
    <style
       id="style1399-4-6">.cls-1{fill:#e3e3e3;}</style>
    <style
       id="style1399-8-1">.cls-1{fill:#e3e3e3;}</style>
    <style
       id="style1399-4-5-1">.cls-1{fill:#e3e3e3;}</style>
    <style
       id="style1399-0-5">.cls-1{fill:#e3e3e3;}</style>
    <style
       id="style1257">.cls-1{fill:#e3e3e3;}</style>
    <style
       id="style836">.cls-1{fill:#e3e3e3;}</style>
    <style
       id="style891">.cls-1{fill:#e3e3e3;}</style>
  </defs>
  <sodipodi:namedview
     id="base"
     pagecolor="#ffffff"
     bordercolor="#666666"
     borderopacity="1.0"
     inkscape:pageopacity="0.0"
     inkscape:pageshadow="2"
     inkscape:zoom="7.9999996"
     inkscape:cx="3.5625002"
     inkscape:cy="41.687502"
     inkscape:document-units="mm"
     inkscape:current-layer="svg8"
     showgrid="false"
     units="px"
     inkscape:window-width="1920"
     inkscape:window-height="1027"
     inkscape:window-x="-8"
     inkscape:window-y="-8"
     inkscape:window-maximized="1"
     inkscape:snap-bbox="true"
     inkscape:bbox-paths="true"
     inkscape:bbox-nodes="true"
     inkscape:snap-bbox-edge-midpoints="true"
     inkscape:snap-bbox-midpoints="true"
     inkscape:snap-nodes="true"
     inkscape:snap-others="true"
     inkscape:snap-object-midpoints="true"
     inkscape:snap-page="true"
     inkscape:pagecheckerboard="1">
    <sodipodi:guide
       position="8.4666666,0"
       orientation="-32,0"
       id="guide854"
       inkscape:locked="false" />
    <sodipodi:guide
       position="8.4666666,8.4666666"
       orientation="0,-32"
       id="guide856"
       inkscape:locked="false" />
    <sodipodi:guide
       position="0,8.4666814"
       orientation="32,0"
       id="guide858"
       inkscape:locked="false" />
  </sodipodi:namedview>
  <metadata
     id="metadata5">
    <rdf:RDF>
      <cc:Work
         rdf:about="">
        <dc:format>image/svg+xml</dc:format>
        <dc:type
           rdf:resource="http://purl.org/dc/dcmitype/StillImage" />
        <dc:title />
      </cc:Work>
    </rdf:RDF>
  </metadata>
  <path
     style="fill:#b1b1b1;stroke-width:1.82596099;fill-opacity:1"
     d="M 5.6699219 6.2363281 C 3.950206 6.2684387 2.3370371 6.7473128 1.2871094 7.578125 C -0.81274647 9.2397501 0.085147919 11.826695 1.5253906 12.818359 C 3.5272002 14.196685 4.9654751 14.394373 5.8320312 15.941406 C 6.83458 17.731222 5.2215389 20.174155 6.3085938 22.076172 C 7.1428259 23.535825 8.710264 24.863952 10.380859 25.052734 C 12.416948 25.282819 14.311901 22.625 16.023438 22.625 C 17.734971 22.625 19.627977 25.282817 21.664062 25.052734 C 23.334659 24.863952 24.902096 23.535825 25.736328 22.076172 C 26.823383 20.174155 25.210342 17.731222 26.212891 15.941406 C 27.079447 14.394373 28.519675 14.196685 30.521484 12.818359 C 31.961727 11.826695 32.857669 9.2397501 30.757812 7.578125 C 28.65796 5.9165007 24.305286 5.659616 21.355469 7.578125 C 18.604887 9.3670551 19.711876 10.628906 16.023438 10.628906 C 12.334996 10.628906 13.441988 9.3670551 10.691406 7.578125 C 9.2164983 6.6188705 7.3896378 6.2042175 5.6699219 6.2363281 z M 10.904297 13.810547 C 13.305886 13.587874 16.455979 17.633173 14.744141 19.173828 C 12.91818 20.817194 8.0070187 14.790524 10.435547 13.914062 C 10.58733 13.859287 10.744191 13.825392 10.904297 13.810547 z M 21.140625 13.810547 C 21.300731 13.825392 21.457592 13.859285 21.609375 13.914062 C 24.037903 14.790524 19.126742 20.817194 17.300781 19.173828 C 15.588943 17.633173 18.739036 13.587874 21.140625 13.810547 z M 11.128906 20.056641 C 11.311708 20.04831 11.493859 20.049528 11.671875 20.0625 C 12.52635 20.124768 13.281827 20.438425 13.521484 21.054688 C 14.16057 22.69805 8.4458576 23.281448 8.5097656 21.601562 C 8.5447157 20.682877 9.8492922 20.114958 11.128906 20.056641 z M 20.375 20.0625 C 21.799125 19.95872 23.497167 20.551634 23.537109 21.601562 C 23.601018 23.281448 17.884352 22.698052 18.523438 21.054688 C 18.763095 20.438425 19.520525 20.124768 20.375 20.0625 z "
     transform="scale(0.26458333)"
     id="path871"
     inkscape:export-filename="D:\DEV_SRC\RxOT\DuAEF\DuAEF_Duik\icons/w16\w16_hips.png"
     inkscape:export-xdpi="48"
     inkscape:export-ydpi="48" />
</svg>
