<?xml version="1.0" encoding="UTF-8" standalone="no"?>
<svg
   xmlns:dc="http://purl.org/dc/elements/1.1/"
   xmlns:cc="http://creativecommons.org/ns#"
   xmlns:rdf="http://www.w3.org/1999/02/22-rdf-syntax-ns#"
   xmlns:svg="http://www.w3.org/2000/svg"
   xmlns="http://www.w3.org/2000/svg"
   xmlns:sodipodi="http://sodipodi.sourceforge.net/DTD/sodipodi-0.dtd"
   xmlns:inkscape="http://www.inkscape.org/namespaces/inkscape"
   width="32"
   height="32"
   viewBox="0 0 8.4666666 8.4666666"
   version="1.1"
   id="svg8"
   inkscape:version="1.0.2-2 (e86c870879, 2021-01-15)"
   sodipodi:docname="horse_sl.svg"
   inkscape:export-filename="D:\DEV_SRC\RxOT\DuAEF_Duik\icons\w16/w16_horse.png"
   inkscape:export-xdpi="48"
   inkscape:export-ydpi="48">
  <defs
     id="defs2">
    <inkscape:path-effect
       effect="mirror_symmetry"
       start_point="4.2333333,0"
       end_point="4.2333333,8.4666667"
       center_point="4.2333333,4.2333333"
       id="path-effect897"
       is_visible="true"
       mode="vertical"
       discard_orig_path="false"
       fuse_paths="false"
       oposite_fuse="false" />
    <inkscape:path-effect
       effect="mirror_symmetry"
       start_point="4.2328811,1.6730093"
       end_point="4.2328811,6.1768975"
       center_point="4.2328811,3.9249534"
       id="path-effect862"
       is_visible="true"
       mode="free"
       discard_orig_path="false"
       fuse_paths="false"
       oposite_fuse="false" />
    <inkscape:path-effect
       effect="mirror_symmetry"
       start_point="4.2333333,0"
       end_point="4.2333333,8.4666667"
       center_point="4.2333333,4.2333333"
       id="path-effect858"
       is_visible="true"
       mode="vertical"
       discard_orig_path="false"
       fuse_paths="false"
       oposite_fuse="false" />
    <inkscape:path-effect
       effect="mirror_symmetry"
       start_point="4.2333333,0"
       end_point="4.2333333,8.4666667"
       center_point="4.2333333,4.2333333"
       id="path-effect854"
       is_visible="true"
       mode="vertical"
       discard_orig_path="false"
       fuse_paths="false"
       oposite_fuse="false" />
    <style
       id="style1399">.cls-1{fill:#e3e3e3;}</style>
    <style
       id="style1399-4">.cls-1{fill:#e3e3e3;}</style>
    <style
       id="style1399-8">.cls-1{fill:#e3e3e3;}</style>
    <style
       id="style1399-4-5">.cls-1{fill:#e3e3e3;}</style>
  </defs>
  <sodipodi:namedview
     id="base"
     pagecolor="#ffffff"
     bordercolor="#666666"
     borderopacity="1.0"
     inkscape:pageopacity="0.0"
     inkscape:pageshadow="2"
     inkscape:zoom="22.627418"
     inkscape:cx="13.000404"
     inkscape:cy="25.896833"
     inkscape:document-units="mm"
     inkscape:current-layer="svg8"
     showgrid="false"
     units="px"
     inkscape:window-width="3440"
     inkscape:window-height="1417"
     inkscape:window-x="1915"
     inkscape:window-y="-8"
     inkscape:window-maximized="1"
     inkscape:document-rotation="0"
     inkscape:snap-nodes="false"
     inkscape:snap-bbox="true"
     inkscape:bbox-paths="true"
     inkscape:bbox-nodes="true"
     inkscape:snap-bbox-edge-midpoints="true"
     inkscape:snap-bbox-midpoints="true">
    <sodipodi:guide
       position="8.4666666,0"
       orientation="-32,0"
       id="guide854"
       inkscape:locked="false" />
    <sodipodi:guide
       position="0,8.4666814"
       orientation="0,-32"
       id="guide856"
       inkscape:locked="false" />
    <sodipodi:guide
       position="1.4687325e-17,0.75784016"
       orientation="32,0"
       id="guide858"
       inkscape:locked="false" />
  </sodipodi:namedview>
  <metadata
     id="metadata5">
    <rdf:RDF>
      <cc:Work
         rdf:about="">
        <dc:format>image/svg+xml</dc:format>
        <dc:type
           rdf:resource="http://purl.org/dc/dcmitype/StillImage" />
        <dc:title />
      </cc:Work>
    </rdf:RDF>
  </metadata>
  <path
     d="M 8.4655877,1.5118175 C 8.465421,1.3923125 8.421196,1.2785403 8.3394686,1.1913741 8.2839049,1.132136 8.2133487,1.0573168 8.1382358,0.97823489 8.3008091,0.87769208 8.4248712,0.72114501 8.4642651,0.52755621 8.479258,0.45464781 8.4220784,0.38585556 8.3476998,0.38585556 H 6.584085 c -1.0390895,0 -1.8815032,0.84241334 -1.8815032,1.88150314 H 2.3518787 c -0.4239259,0 -0.7996388,0.1907959 -1.0583453,0.4866919 V 2.7377339 C 0.58017917,2.7377339 0,3.3179128 0,4.0312674 v 0.8231574 c 0,0.1299412 0.10524682,0.235188 0.23518799,0.235188 h 0.23518802 c 0.12994115,0 0.2351876,-0.1052468 0.2351876,-0.235188 v -0.823157 c 0,-0.1943242 0.1009838,-0.3585148 0.24665336,-0.4656721 -0.003085,0.037924 -0.0114625,0.074231 -0.0114625,0.1128902 0,0.4062871 0.17403903,0.7696523 0.44891463,1.0271828 L 1.0116044,5.7140368 A 0.93994306,0.93994306 0 0 0 0.97985565,6.2724613 L 1.3451317,7.733713 A 0.2349233,0.2349233 0 0 0 1.573117,7.9118679 h 0.9695619 c 0.1530192,0 0.2653212,-0.1437588 0.2281322,-0.2922211 L 2.3840738,6.0724046 2.7345037,5.1376796 4.7037611,5.4659136 v 2.2107659 c 0,0.1299415 0.1052464,0.2351884 0.235188,0.2351884 h 0.9407511 c 0.1299416,0 0.2351884,-0.1052469 0.2351884,-0.2351884 V 5.0634486 c 0.2901627,-0.2967778 0.4703752,-0.7018888 0.4703752,-1.149775 0,-0.00323 -0.00103,-0.00617 -0.00117,-0.00941 v -1.50623 L 6.8192824,2.5025449 7.0970978,3.0567065 C 7.2066076,3.2752841 7.4653142,3.373475 7.6922703,3.2826336 L 8.1707277,3.0912512 A 0.47033169,0.47033169 0 0 0 8.4664764,2.6540957 Z M 7.5248365,1.7969828 c -0.1299415,0 -0.235188,-0.1052469 -0.235188,-0.235188 0,-0.1299412 0.1052465,-0.235188 0.235188,-0.235188 0.1299416,0 0.2351876,0.1052468 0.2351876,0.235188 0,0.1299411 -0.105246,0.235188 -0.2351876,0.235188 z"
     id="path841"
     style="stroke-width:0.0146992;fill:#b1b1b1;fill-opacity:1" />
</svg>
