<?xml version="1.0" encoding="UTF-8" standalone="no"?>
<!-- Created with Inkscape (http://www.inkscape.org/) -->

<svg
   width="32"
   height="32"
   viewBox="0 0 8.4666666 8.4666666"
   version="1.1"
   id="svg8"
   inkscape:version="1.2.2 (732a01da63, 2022-12-09)"
   sodipodi:docname="lemur_sd.svg"
   xml:space="preserve"
   inkscape:export-filename="..\oco\lemur.png"
   inkscape:export-xdpi="48"
   inkscape:export-ydpi="48"
   xmlns:inkscape="http://www.inkscape.org/namespaces/inkscape"
   xmlns:sodipodi="http://sodipodi.sourceforge.net/DTD/sodipodi-0.dtd"
   xmlns="http://www.w3.org/2000/svg"
   xmlns:svg="http://www.w3.org/2000/svg"
   xmlns:rdf="http://www.w3.org/1999/02/22-rdf-syntax-ns#"
   xmlns:cc="http://creativecommons.org/ns#"
   xmlns:dc="http://purl.org/dc/elements/1.1/"><defs
     id="defs2"><inkscape:path-effect
       effect="taper_stroke"
       id="path-effect879"
       is_visible="true"
       stroke_width="1.77"
       attach_start="1e-07"
       end_offset="1.0001633"
       smoothing="0.5"
       jointype="extrapolated"
       miter_limit="100" /><inkscape:path-effect
       effect="mirror_symmetry"
       start_point="4.2333333,0"
       end_point="4.2333333,8.4666667"
       center_point="4.2333333,4.2333333"
       id="path-effect897"
       is_visible="true"
       mode="vertical"
       discard_orig_path="false"
       fuse_paths="false"
       oposite_fuse="false" /><inkscape:path-effect
       effect="mirror_symmetry"
       start_point="4.2328811,1.6730093"
       end_point="4.2328811,6.1768975"
       center_point="4.2328811,3.9249534"
       id="path-effect862"
       is_visible="true"
       mode="free"
       discard_orig_path="false"
       fuse_paths="false"
       oposite_fuse="false" /><inkscape:path-effect
       effect="mirror_symmetry"
       start_point="4.2333333,0"
       end_point="4.2333333,8.4666667"
       center_point="4.2333333,4.2333333"
       id="path-effect858"
       is_visible="true"
       mode="vertical"
       discard_orig_path="false"
       fuse_paths="false"
       oposite_fuse="false" /><inkscape:path-effect
       effect="mirror_symmetry"
       start_point="4.2333333,0"
       end_point="4.2333333,8.4666667"
       center_point="4.2333333,4.2333333"
       id="path-effect854"
       is_visible="true"
       mode="vertical"
       discard_orig_path="false"
       fuse_paths="false"
       oposite_fuse="false" /><style
       id="style1399">.cls-1{fill:#e3e3e3;}</style><style
       id="style1399-4">.cls-1{fill:#e3e3e3;}</style><style
       id="style1399-8">.cls-1{fill:#e3e3e3;}</style><style
       id="style1399-4-5">.cls-1{fill:#e3e3e3;}</style><inkscape:path-effect
       oposite_fuse="false"
       fuse_paths="false"
       discard_orig_path="false"
       mode="vertical"
       is_visible="true"
       id="path-effect897-3"
       center_point="4.2333333,4.2333333"
       end_point="4.2333333,8.4666667"
       start_point="4.2333333,0"
       effect="mirror_symmetry" /><inkscape:path-effect
       oposite_fuse="false"
       fuse_paths="false"
       discard_orig_path="false"
       mode="free"
       is_visible="true"
       id="path-effect862-8"
       center_point="4.2328811,3.9249534"
       end_point="4.2328811,6.1768975"
       start_point="4.2328811,1.6730093"
       effect="mirror_symmetry" /><inkscape:path-effect
       oposite_fuse="false"
       fuse_paths="false"
       discard_orig_path="false"
       mode="vertical"
       is_visible="true"
       id="path-effect858-5"
       center_point="4.2333333,4.2333333"
       end_point="4.2333333,8.4666667"
       start_point="4.2333333,0"
       effect="mirror_symmetry" /><inkscape:path-effect
       oposite_fuse="false"
       fuse_paths="false"
       discard_orig_path="false"
       mode="vertical"
       is_visible="true"
       id="path-effect854-6"
       center_point="4.2333333,4.2333333"
       end_point="4.2333333,8.4666667"
       start_point="4.2333333,0"
       effect="mirror_symmetry" /><style
       id="style1399-1">.cls-1{fill:#e3e3e3;}</style><style
       id="style1399-4-1">.cls-1{fill:#e3e3e3;}</style><style
       id="style1399-8-5">.cls-1{fill:#e3e3e3;}</style><style
       id="style1399-4-5-9">.cls-1{fill:#e3e3e3;}</style></defs><sodipodi:namedview
     id="base"
     pagecolor="#ffffff"
     bordercolor="#666666"
     borderopacity="1.0"
     inkscape:pageopacity="0.0"
     inkscape:pageshadow="2"
     inkscape:zoom="22.627417"
     inkscape:cx="-0.48613591"
     inkscape:cy="27.643456"
     inkscape:document-units="mm"
     inkscape:current-layer="svg8"
     showgrid="false"
     units="px"
     inkscape:window-width="2256"
     inkscape:window-height="1126"
     inkscape:window-x="2297"
     inkscape:window-y="149"
     inkscape:window-maximized="0"
     inkscape:pagecheckerboard="0"
     inkscape:showpageshadow="0"
     inkscape:deskcolor="#d1d1d1" /><metadata
     id="metadata5"><rdf:RDF><cc:Work
         rdf:about=""><dc:format>image/svg+xml</dc:format><dc:type
           rdf:resource="http://purl.org/dc/dcmitype/StillImage" /></cc:Work></rdf:RDF></metadata><path
     id="path345"
     style="fill:#b1b1b1;fill-opacity:1;stroke-width:0.0211819"
     d="M 4.9175293,0 4.8141764,0.00671794 4.7061727,0.02015381 4.5950684,0.03824056 4.4824137,0.06562907 l -0.075448,0.02118734 -0.0031,0.0010335 c -0.1506147,0.035286 -0.2570981,0.16931898 -0.2573488,0.32401126 -1.115e-4,0.1843606 0.1494692,0.33394124 0.3338298,0.33382975 0.063308,3.542e-5 0.1253342,-0.0182931 0.1788004,-0.0521932 l 0.067179,-0.0155029 0.073897,-0.0134359 0.07028,-0.008785 0.062528,-0.002584 h 0.00723 L 4.944401,0 Z m 0.4392497,0.05581055 -0.1870687,0.62631836 0.022738,0.005168 0.038241,0.0155029 0.038757,0.01757 0.033073,0.0201538 0.034107,0.0206706 0.028939,0.0248047 0.029456,0.0268717 0.013436,0.0160197 0.4754232,-0.44545084 -0.032039,-0.0341065 -0.062528,-0.0583944 -0.067696,-0.0542602 -0.074414,-0.0496094 -0.078548,-0.0454753 -0.081132,-0.0377238 -0.08785,-0.03410645 z m 0.7632609,0.68729655 -0.5947958,0.2682007 0.00258,0.00465 0.01602,0.040824 0.013436,0.042375 0.011369,0.044959 0.00878,0.045475 0.00723,0.047026 0.00413,0.047026 v 0.049609 L 6.2419792,1.3089638 6.2378492,1.2412678 6.2306192,1.1596188 6.2192502,1.0810708 6.2037472,0.9999388 6.1835932,0.9213906 6.1582712,0.8428424 6.1293322,0.7658445 Z M 5.5640015,1.578715 5.5505655,1.62419 l -0.013953,0.044959 -0.01757,0.044958 -0.018087,0.042891 -0.020154,0.042891 -0.022738,0.038241 -0.028939,0.044958 0.5451863,0.3560506 0.040308,-0.058394 0.040824,-0.072347 0.035657,-0.074414 0.034106,-0.074414 0.028939,-0.076481 0.022738,-0.079065 0.022221,-0.078548 0.00207,-0.013953 z m -2.387968,0.042891 -0.091984,0.00258 -0.092501,0.00879 -0.08785,0.011369 -0.087333,0.01602 -0.083716,0.020154 -0.013436,0.00207 0.1844848,0.6263184 0.047542,-0.011369 0.053743,-0.0093 0.05426,-0.00879 0.056327,-0.00465 h 0.058911 l 0.060978,0.00207 h 0.00155 l 0.051677,-0.6506063 h -0.020154 z m 0.4986776,0.069763 -0.1782837,0.6263184 0.063045,0.018087 0.069763,0.024805 0.07183,0.026872 0.074931,0.031523 0.075964,0.038241 h 0.00258 L 4.1630534,1.8851562 4.1496175,1.8784383 4.0503988,1.8288289 3.949113,1.7838704 3.8498942,1.7456299 3.7506755,1.7141073 Z m -1.317749,0.1400432 -0.018604,0.00879 -0.069763,0.042891 -0.069763,0.044959 -0.065629,0.049093 -0.062528,0.052193 -0.060461,0.05426 -0.059428,0.056327 -0.033073,0.035657 0.4749064,0.4459676 0.024805,-0.026872 0.036173,-0.035657 0.037724,-0.034106 0.040824,-0.031523 0.040308,-0.031523 0.042891,-0.026872 0.045475,-0.027388 0.00413,-0.00155 z m 2.0670573,0.1886189 -0.2542481,0.6015137 0.094568,0.038757 0.1105876,0.040308 0.1059366,0.03359 0.10542,0.024805 0.088367,0.015503 0.1167887,-0.6418212 -0.069763,-0.010852 -0.067696,-0.018087 -0.07183,-0.020154 -0.076998,-0.029456 z m 0.8697143,0.00517 -0.040824,0.026872 -0.035657,0.020154 -0.036174,0.01757 -0.040824,0.016537 -0.040308,0.013436 -0.045475,0.010852 -0.049093,0.00723 0.1033529,0.6438884 0.074931,-0.011369 0.089917,-0.022221 0.087333,-0.026872 0.083716,-0.034106 0.080615,-0.040308 0.076998,-0.045475 0.058394,-0.038241 z m -3.6152832,0.4749064 -0.051676,0.089917 -0.065629,0.1426269 -0.051676,0.1457276 -0.031006,0.1198893 0.6278687,0.1684652 0.025321,-0.091984 0.033073,-0.095085 0.042892,-0.092501 0.038241,-0.064596 z M 1.4267863,3.398759 v 0.018603 l 0.00155,0.078548 0.00723,0.078548 0.011369,0.076998 0.012919,0.078548 0.018603,0.076481 0.022221,0.076481 0.027389,0.074931 0.0062,0.01757 0.6015136,-0.2501139 v -0.00207 l -0.015503,-0.042891 -0.011369,-0.040308 -0.011369,-0.045475 -0.00672,-0.044442 -0.00672,-0.045475 -0.00465,-0.044958 v -0.047542 -0.00207 z M 3.3817057,3.554305 C 3.2477065,3.5535166 3.1811824,3.5633448 3.0659627,3.5920288 2.7781191,3.6636895 2.5253389,3.8049311 2.3213053,4.0007894 l -0.018604,-0.018604 -0.031523,-0.03359 -0.020671,-0.024805 -0.5022949,0.4139282 0.031523,0.040824 0.058394,0.060461 0.063562,0.061495 0.044959,0.038757 c -0.020859,0.04753 -0.039329,0.096615 -0.056327,0.1467611 -0.052736,0.1555798 -0.058925,0.2072731 -0.07338,0.6351055 C 1.8058194,5.6504238 1.791992,5.8122156 1.769401,5.8735433 1.6482454,6.2024467 1.4367035,6.4066009 1.1131104,6.5065796 1.0287994,6.5326286 0.9219985,6.5734271 0.87539876,6.5975301 0.75337948,6.6606419 0.62185671,6.8060103 0.55345459,6.9525472 0.49572031,7.0762216 0.49396729,7.088383 0.49557699,7.4284871 l 5.1676e-4,5.168e-4 v 0.8562785 c 4.7326e-4,0.100884 0.082568,0.18199 0.18345133,0.1813843 0.10012146,-4.704e-4 0.18143067,-0.081263 0.18190105,-0.1813843 V 7.4884318 C 0.88260508,7.4048159 0.92350844,7.3322199 0.98340251,7.2729411 1.097894,7.1596247 1.2297191,7.1209177 1.5652791,7.1024089 1.9517466,7.0810912 2.2602585,6.9423822 2.5419637,6.6631592 2.631718,6.5741964 2.7101827,6.5068496 2.71663,6.5132975 2.742372,6.5390405 2.7263303,6.7544259 2.6897583,6.871932 2.6684043,6.9405429 2.6065302,7.0614462 2.552299,7.1406494 2.4341567,7.3131916 2.401825,7.5048665 2.4200073,7.6615479 c 0.017503,0.1508266 0.084636,0.3254811 0.1834514,0.4697387 5.454e-4,8.56e-4 10e-4,0.00173 0.00155,0.00258 0.02706,0.042037 0.058518,0.081211 0.094568,0.116272 0.053094,0.055404 0.1114342,0.1016452 0.2118734,0.144694 0.1004393,0.043049 0.2431523,0.07183 0.3989421,0.07183 H 3.4845418 C 3.586078,8.4672051 3.6685239,8.3847515 3.6679932,8.2832153 3.6676633,8.1822851 3.5854712,8.1007876 3.4845418,8.1013143 H 3.3103923 c -0.1082639,0 -0.1932946,-0.01828 -0.2578654,-0.047026 -4.173e-4,-2.728e-4 -6.257e-4,-7.668e-4 -0.00103,-0.00103 C 2.8061977,7.8914819 2.9525947,7.5709278 2.9925822,7.4935994 3.0096843,7.460529 3.0848407,7.3844357 3.1600138,7.3246175 3.3435733,7.1785554 3.4886699,7.0166562 3.6101156,6.8218058 3.7046412,6.6701461 3.8493815,6.3347847 3.850411,6.2642171 3.8506831,6.2455577 3.749825,6.1750591 3.6064982,6.0942017 3.4722692,6.0184765 3.2796516,5.8940571 3.1781006,5.8177327 L 2.993099,5.6787231 2.9786296,5.4999227 c -0.028418,-0.3396056 -0.028218,-0.3567743 0.00982,-0.394808 0.069452,-0.069452 0.1689715,-0.046265 0.2950724,0.06873 0.4645325,0.423622 1.1366757,0.7706917 1.7606161,0.9095052 0.200294,0.044561 0.3375443,0.1312321 0.4304646,0.2702678 0.083191,0.1244772 0.1135398,0.2585454 0.1136882,0.5095296 2.005e-4,0.3306429 -0.025885,0.2914746 0.6320028,0.9544637 0.182691,0.184108 0.2730068,0.2756543 0.3250447,0.3250447 0.1777607,0.1929875 0.4010643,0.3219417 0.6557739,0.3219442 h 0.039791 c 0.1019411,0.02613 0.1634169,0.024011 0.1788004,-0.00413 0.083059,-0.018595 0.1422347,-0.092136 0.142627,-0.1772502 C 7.5628598,8.1816789 7.4804142,8.0992333 7.3788778,8.099764 H 7.2011108 C 7.1335498,8.0997633 7.0576114,8.073564 6.9809692,8.025867 6.6453135,7.7286502 6.3500285,6.9287951 6.3510335,6.3717041 6.3516442,6.0334904 6.4181612,5.8066573 6.564974,5.6394491 6.624546,5.5715981 6.628523,5.5591121 6.607349,5.4983724 6.546785,5.3246369 6.601619,5.0950869 6.7303389,4.9867757 c 0.087294,-0.073455 0.2370709,-0.1029526 0.3051244,0.053363 0.068054,0.1563153 -0.010928,0.2591895 -0.018319,0.2840844 -0.012611,0.042528 -0.00755,0.044737 0.082166,0.034623 0.063705,-0.00718 0.1447228,0.00414 0.243396,0.034107 0.1740927,0.052875 0.2585029,0.055862 0.3405477,0.013436 C 7.802499,5.3447202 7.9226323,5.1595184 7.9607544,4.977474 7.9999359,4.7903718 7.9271508,4.6833795 7.8258789,4.7785197 7.7624774,4.8380803 7.6376782,4.8870402 7.5499268,4.8870402 c -0.040269,0 -0.1447452,-0.028612 -0.2320272,-0.063562 C 7.1067372,4.7389205 6.8965283,4.7357627 6.6791789,4.8141764 6.5976292,4.8435944 6.464034,4.8735413 6.3820394,4.8803223 6.074107,4.9057807 5.8530772,4.8103032 5.464266,4.483964 4.6522708,3.8024361 4.1946262,3.5821069 3.5429362,3.5584391 3.4789991,3.556117 3.4263724,3.5545677 3.3817057,3.554305 Z m 3.9225458,1.9400702 c -0.1533508,7.654e-4 -0.3539229,0.2664964 -0.2488682,0.3536842 0.015873,0.013173 0.086163,0.023053 0.1563833,0.022421 0.07514,-6.743e-4 0.155348,0.014376 0.1950588,0.035873 0.1511363,0.081814 0.2414348,0.026241 0.1973009,-0.121071 C 7.5733083,5.682422 7.4198804,5.5198642 7.3339587,5.4982994 c -0.0097,-0.00243 -0.019483,-0.00397 -0.029707,-0.00392 z m 0.399671,0.5341974 -0.072864,0.064079 C 7.517121,6.1926916 7.3984032,6.2139954 7.235217,6.1655156 7.1263703,6.1331786 7.302714,6.3385167 7.4207354,6.3815231 7.5233267,6.4189091 7.6643483,6.4089341 7.7400957,6.3593021 7.7897247,6.3267841 7.7948777,6.3127521 7.7855707,6.230111 7.7798107,6.179029 7.7591757,6.1127433 7.7395787,6.0828331 Z M 4.6105713,6.5055461 4.5681963,6.5644571 C 4.4948353,6.6674832 4.3646025,6.9677684 4.3165321,7.1432331 4.2726111,7.3035515 4.2498481,7.6204433 4.2555541,7.84965 c -0.011674,0.1503967 0.020262,0.2835914 0.088367,0.3829223 0.06898,0.100609 0.1663292,0.1590641 0.2537313,0.1912028 0.1748043,0.064278 0.3379638,0.040824 0.3379638,0.040824 0.099534,-0.011657 0.1710478,-0.1013957 0.160197,-0.2010213 -0.011653,-0.099759 -0.1017225,-0.1713526 -0.2015381,-0.160197 0,0 -0.054264,0.00296 -0.1126546,-0.00672 -2.833e-4,-1.447e-4 -7.549e-4,1.447e-4 -0.00103,0 C 4.6397139,8.0244064 4.6493286,7.9560996 4.6493286,7.827946 c 0,-0.2021565 0.2679361,-0.7337407 0.5317505,-1.0144084 L 5.3562622,6.6269857 5.2343058,6.6140666 C 5.1670452,6.6068186 4.9989604,6.5793233 4.861202,6.5530884 Z"
     sodipodi:nodetypes="cccccccccccccccccccccccccccccccccccccccccccccccccccccccccccccccccccccccccccccccccccccccccccccccccccccccccccccccccccccccccccccccccccccccccccccccccccccccccccccccccccccccccccccccccccccccccccsccccccccccscssscccccccssssssscccsscccsccscssscccccsscscsccccscscssccsccssscccssscscssccccscscccccscsscccccscccccc" /></svg>
