<?xml version="1.0" encoding="UTF-8" standalone="no"?>
<svg
   id="Calque_1"
   data-name="Calque 1"
   viewBox="0 0 32 32"
   version="1.1"
   sodipodi:docname="locator.svg"
   inkscape:version="1.2.2 (732a01da63, 2022-12-09)"
   inkscape:export-filename="D:\DEV_SRC\RxOT\DuAEF\DuAEF_Duik\icons\w16\w16_locator.png"
   inkscape:export-xdpi="36"
   inkscape:export-ydpi="36"
   xmlns:inkscape="http://www.inkscape.org/namespaces/inkscape"
   xmlns:sodipodi="http://sodipodi.sourceforge.net/DTD/sodipodi-0.dtd"
   xmlns="http://www.w3.org/2000/svg"
   xmlns:svg="http://www.w3.org/2000/svg"
   xmlns:rdf="http://www.w3.org/1999/02/22-rdf-syntax-ns#"
   xmlns:cc="http://creativecommons.org/ns#"
   xmlns:dc="http://purl.org/dc/elements/1.1/">
  <sodipodi:namedview
     id="namedview25"
     pagecolor="#ffffff"
     bordercolor="#111111"
     borderopacity="1"
     inkscape:pageshadow="0"
     inkscape:pageopacity="0"
     inkscape:pagecheckerboard="1"
     showgrid="false"
     inkscape:zoom="9.3028735"
     inkscape:cx="-2.2036202"
     inkscape:cy="15.801569"
     inkscape:window-width="1920"
     inkscape:window-height="1057"
     inkscape:window-x="-8"
     inkscape:window-y="-8"
     inkscape:window-maximized="1"
     inkscape:current-layer="Calque_1"
     inkscape:snap-bbox="true"
     inkscape:bbox-paths="true"
     inkscape:bbox-nodes="true"
     inkscape:snap-bbox-edge-midpoints="true"
     inkscape:snap-bbox-midpoints="true"
     inkscape:showpageshadow="0"
     inkscape:deskcolor="#d1d1d1" />
  <defs
     id="defs4">
    <style
       id="style2">.cls-1,.cls-2{fill:none;stroke:#e3e3e3;stroke-miterlimit:10;}.cls-1{stroke-width:3px;}.cls-2{stroke-width:2px;}</style>
  </defs>
  <title
     id="title6">measure_l</title>
  <metadata
     id="metadata1695">
    <rdf:RDF>
      <cc:Work
         rdf:about="">
        <dc:title>measure_l</dc:title>
      </cc:Work>
    </rdf:RDF>
  </metadata>
  <path
     id="path3259"
     style="color:#000000;fill:#b1b1b1;stroke-width:0.304912;stroke-linecap:round;-inkscape-stroke:none"
     d="M 13.576172 0.26757812 L 13.576172 8.2480469 C 14.347756 8.0004357 15.166771 7.8652344 16.015625 7.8652344 C 16.786903 7.8652344 17.533086 7.9777205 18.242188 8.1835938 L 18.242188 0.26757812 L 13.576172 0.26757812 z M 16.015625 11.105469 C 13.342254 11.105469 11.160156 13.289519 11.160156 15.962891 C 11.160156 18.636261 13.342254 20.820312 16.015625 20.820312 C 18.688995 20.820312 20.873047 18.636261 20.873047 15.962891 C 20.873047 13.289519 18.688995 11.105469 16.015625 11.105469 z M 0.109375 13.740234 L 0.109375 18.400391 L 8.3007812 18.400391 C 8.0538384 17.629463 7.9199219 16.810602 7.9199219 15.962891 C 7.9199219 15.193194 8.0331777 14.448156 8.2382812 13.740234 L 0.109375 13.740234 z M 23.794922 13.740234 C 24.000123 14.448264 24.113281 15.19292 24.113281 15.962891 C 24.113281 16.811024 23.977595 17.629263 23.730469 18.400391 L 31.708984 18.400391 L 31.708984 13.740234 L 23.794922 13.740234 z M 13.576172 23.677734 L 13.576172 31.873047 L 18.242188 31.873047 L 18.242188 23.742188 C 17.533086 23.94806 16.786903 24.060547 16.015625 24.060547 C 15.166771 24.060547 14.347756 23.925346 13.576172 23.677734 z " />
</svg>
