<?xml version="1.0" encoding="UTF-8" standalone="no"?>
<!-- Created with Inkscape (http://www.inkscape.org/) -->

<svg
   width="32"
   height="32"
   viewBox="0 0 8.4666666 8.4666666"
   version="1.1"
   id="svg8"
   inkscape:version="1.1 (c68e22c387, 2021-05-23)"
   sodipodi:docname="looper.svg"
   inkscape:export-filename="C:\DEV_SRC\RxOT\DuAEF_Duik\icons\w16\w16_looper.png"
   inkscape:export-xdpi="48"
   inkscape:export-ydpi="48"
   xmlns:inkscape="http://www.inkscape.org/namespaces/inkscape"
   xmlns:sodipodi="http://sodipodi.sourceforge.net/DTD/sodipodi-0.dtd"
   xmlns="http://www.w3.org/2000/svg"
   xmlns:svg="http://www.w3.org/2000/svg"
   xmlns:rdf="http://www.w3.org/1999/02/22-rdf-syntax-ns#"
   xmlns:cc="http://creativecommons.org/ns#"
   xmlns:dc="http://purl.org/dc/elements/1.1/">
  <defs
     id="defs2">
    <style
       id="style1399">.cls-1{fill:#e3e3e3;}</style>
    <style
       id="style1399-4">.cls-1{fill:#e3e3e3;}</style>
    <style
       id="style1399-5">.cls-1{fill:#e3e3e3;}</style>
    <style
       id="style1399-7">.cls-1{fill:#e3e3e3;}</style>
  </defs>
  <sodipodi:namedview
     id="base"
     pagecolor="#ffffff"
     bordercolor="#666666"
     borderopacity="1.0"
     inkscape:pageopacity="0.0"
     inkscape:pageshadow="2"
     inkscape:zoom="4"
     inkscape:cx="-32.875"
     inkscape:cy="8.75"
     inkscape:document-units="mm"
     inkscape:current-layer="svg8"
     showgrid="false"
     units="px"
     inkscape:window-width="1920"
     inkscape:window-height="1137"
     inkscape:window-x="-8"
     inkscape:window-y="-8"
     inkscape:window-maximized="1"
     inkscape:pagecheckerboard="1">
    <sodipodi:guide
       position="8.4666666,0"
       orientation="-32,0"
       id="guide854"
       inkscape:locked="false" />
    <sodipodi:guide
       position="8.4666666,8.4599157"
       orientation="0,-32"
       id="guide856"
       inkscape:locked="false" />
    <sodipodi:guide
       position="0,8.4666814"
       orientation="32,0"
       id="guide858"
       inkscape:locked="false" />
  </sodipodi:namedview>
  <metadata
     id="metadata5">
    <rdf:RDF>
      <cc:Work
         rdf:about="">
        <dc:format>image/svg+xml</dc:format>
        <dc:type
           rdf:resource="http://purl.org/dc/dcmitype/StillImage" />
        <dc:title />
      </cc:Work>
    </rdf:RDF>
  </metadata>
  <path
     id="path822"
     d="M 8.4666667,8.2579236 V 7.4630926 A 0.20118059,0.20118059 0 0 0 8.2559301,7.2619119 L 6.8684547,7.3289725 A 4.1480085,4.1480085 0 0 0 8.3325464,4.1617192 c 0,-2.2911116 -1.869806,-4.15940855 -4.1609176,-4.15773213 C 1.8768289,0.00566807 0.01708221,1.866584 0.01708221,4.1617192 A 4.1426439,4.1426439 0 0 0 1.088536,6.947735 0.20118059,0.20118059 0 0 0 1.3807512,6.9557822 L 1.9507627,6.3857707 A 0.20118059,0.20118059 0 0 0 1.9599834,6.111159 2.9506486,2.9506486 0 1 1 5.821142,6.6110929 L 5.9027879,4.9089375 A 0.20118059,0.20118059 0 0 0 5.7016071,4.6982008 H 4.9067763 A 0.20118059,0.20118059 0 0 0 4.7055956,4.8993814 V 8.2579236 A 0.20118059,0.20118059 0 0 0 4.9067763,8.4591044 H 8.2654862 A 0.20118059,0.20118059 0 0 0 8.4666667,8.2579236 Z"
     inkscape:connector-curvature="0"
     style="stroke-width:0.01676505;fill:#b1b1b1;fill-opacity:1" />
</svg>
