<?xml version="1.0" encoding="UTF-8" standalone="no"?>
<svg
   width="32"
   height="32"
   viewBox="0 0 8.4666666 8.4666666"
   version="1.1"
   id="svg8"
   inkscape:version="1.1.1 (3bf5ae0d25, 2021-09-20)"
   sodipodi:docname="motion_trail.svg"
   inkscape:export-filename="D:\RxLab\src\RxOT\DuAEF\DuAEF_Duik\inc\icons\w16\w16_motion_trail.png"
   inkscape:export-xdpi="48.000004"
   inkscape:export-ydpi="48.000004"
   xmlns:inkscape="http://www.inkscape.org/namespaces/inkscape"
   xmlns:sodipodi="http://sodipodi.sourceforge.net/DTD/sodipodi-0.dtd"
   xmlns="http://www.w3.org/2000/svg"
   xmlns:svg="http://www.w3.org/2000/svg"
   xmlns:rdf="http://www.w3.org/1999/02/22-rdf-syntax-ns#"
   xmlns:cc="http://creativecommons.org/ns#"
   xmlns:dc="http://purl.org/dc/elements/1.1/">
  <defs
     id="defs2" />
  <sodipodi:namedview
     id="base"
     pagecolor="#ffffff"
     bordercolor="#666666"
     borderopacity="1.0"
     inkscape:pageopacity="0.0"
     inkscape:pageshadow="2"
     inkscape:zoom="11.313709"
     inkscape:cx="11.976621"
     inkscape:cy="18.561552"
     inkscape:document-units="mm"
     inkscape:current-layer="svg8"
     showgrid="false"
     units="px"
     inkscape:window-width="1528"
     inkscape:window-height="1080"
     inkscape:window-x="2400"
     inkscape:window-y="154"
     inkscape:window-maximized="0"
     inkscape:document-rotation="0"
     inkscape:snap-bbox="true"
     inkscape:bbox-paths="true"
     inkscape:bbox-nodes="true"
     inkscape:snap-bbox-edge-midpoints="true"
     inkscape:snap-bbox-midpoints="true"
     inkscape:snap-nodes="false"
     inkscape:pagecheckerboard="0">
    <sodipodi:guide
       position="8.4666666,0"
       orientation="-32,0"
       id="guide854"
       inkscape:locked="false" />
    <sodipodi:guide
       position="8.4666666,8.4666666"
       orientation="0,-32"
       id="guide856"
       inkscape:locked="false" />
    <sodipodi:guide
       position="0,8.4666814"
       orientation="32,0"
       id="guide858"
       inkscape:locked="false" />
  </sodipodi:namedview>
  <metadata
     id="metadata5">
    <rdf:RDF>
      <cc:Work
         rdf:about="">
        <dc:format>image/svg+xml</dc:format>
        <dc:type
           rdf:resource="http://purl.org/dc/dcmitype/StillImage" />
      </cc:Work>
    </rdf:RDF>
  </metadata>
  <path
     id="path1052"
     style="color:#000000;fill:#b1b1b1;stroke-width:3.77953;stroke-linecap:round;-inkscape-stroke:none"
     d="M 1.9179688 0.17578125 A 1.9509922 1.9509922 0 0 0 0.57617188 0.82617188 A 1.9509922 1.9509922 0 0 0 0.73828125 3.5800781 C 1.7722902 4.4967389 3.131784 6.8168063 4.2597656 9.7148438 C 5.3877475 12.612881 6.3729779 16.078748 7.1757812 19.392578 C 8.7813884 26.020238 9.6484375 32.007813 9.6484375 32.007812 L 13.486328 32.15625 C 13.486328 32.15625 15.390828 23.735538 22.339844 17.349609 C 21.288277 16.510551 20.454288 15.408317 19.939453 14.148438 C 15.969055 17.644501 13.735665 21.584364 12.238281 24.958984 C 11.809968 22.57036 11.796129 21.891838 10.96875 18.476562 C 10.140462 15.057541 9.1190497 11.452973 7.890625 8.296875 C 6.6622007 5.1407775 5.3176373 2.4260566 3.3300781 0.6640625 A 1.9509922 1.9509922 0 0 0 1.9179688 0.17578125 z M 27.195312 6.4824219 C 24.576775 6.4824215 22.455078 8.6041187 22.455078 11.222656 C 22.455078 13.841194 24.576775 15.964844 27.195312 15.964844 C 29.81385 15.964844 31.9375 13.841194 31.9375 11.222656 C 31.9375 8.6041187 29.81385 6.4824215 27.195312 6.4824219 z "
     transform="scale(0.26458333)" />
</svg>
