<?xml version="1.0" encoding="UTF-8" standalone="no"?>
<svg
   id="Calque_1"
   data-name="Calque 1"
   viewBox="0 0 32 32"
   version="1.1"
   sodipodi:docname="parent_sl.svg"
   inkscape:version="1.1 (c68e22c387, 2021-05-23)"
   xmlns:inkscape="http://www.inkscape.org/namespaces/inkscape"
   xmlns:sodipodi="http://sodipodi.sourceforge.net/DTD/sodipodi-0.dtd"
   xmlns="http://www.w3.org/2000/svg"
   xmlns:svg="http://www.w3.org/2000/svg"
   xmlns:rdf="http://www.w3.org/1999/02/22-rdf-syntax-ns#"
   xmlns:cc="http://creativecommons.org/ns#"
   xmlns:dc="http://purl.org/dc/elements/1.1/">
  <sodipodi:namedview
     id="namedview17"
     pagecolor="#ffffff"
     bordercolor="#111111"
     borderopacity="1"
     inkscape:pageshadow="0"
     inkscape:pageopacity="0"
     inkscape:pagecheckerboard="1"
     showgrid="false"
     inkscape:zoom="9.3028736"
     inkscape:cx="-8.7607339"
     inkscape:cy="23.917341"
     inkscape:window-width="1920"
     inkscape:window-height="1027"
     inkscape:window-x="-8"
     inkscape:window-y="-8"
     inkscape:window-maximized="1"
     inkscape:current-layer="Calque_1" />
  <defs
     id="defs4">
    <style
       id="style2">.cls-1{fill:#e3e3e3;}</style>
  </defs>
  <title
     id="title6">parent_l</title>
  <path
     id="path8"
     style="stroke-width:1.33144;fill:#b1b1b1;fill-opacity:1"
     class="cls-1"
     d="M 9.8496094 2.5195312 A 4.8996948 4.8996948 0 1 0 14.748047 7.4199219 A 4.8996948 4.8996948 0 0 0 9.8496094 2.5195312 z M 24.615234 6.0742188 A 4.7132934 4.7132934 0 1 0 29.314453 10.828125 A 4.7132934 4.7132934 0 0 0 24.615234 6.0742188 z M 5.8417969 14.064453 A 5.8183876 5.8183876 0 0 0 0.0234375 19.882812 L 0.0234375 28.550781 L 16 28.550781 L 16 20.867188 A 4.4070625 4.4070625 0 0 1 18.808594 16.765625 A 5.8183876 5.8183876 0 0 0 13.830078 14.064453 L 5.8417969 14.064453 z M 20.339844 17.685547 A 3.15551 3.15551 0 0 0 17.185547 20.839844 L 17.185547 28.550781 L 31.976562 28.550781 L 31.976562 20.839844 A 3.15551 3.15551 0 0 0 28.822266 17.685547 L 20.339844 17.685547 z "
     inkscape:export-filename="D:\DEV_SRC\RxOT\DuAEF\DuAEF_Duik\icons\w16\w16_parent.png"
     inkscape:export-xdpi="48"
     inkscape:export-ydpi="48" />
  <metadata
     id="metadata967">
    <rdf:RDF>
      <cc:Work
         rdf:about="">
        <dc:title>parent_l</dc:title>
      </cc:Work>
    </rdf:RDF>
  </metadata>
</svg>
