<?xml version="1.0" encoding="UTF-8" standalone="no"?>
<!-- Created with Inkscape (http://www.inkscape.org/) -->

<svg
   width="32"
   height="32"
   viewBox="0 0 8.4666666 8.4666666"
   version="1.1"
   id="svg8"
   inkscape:version="1.1.1 (3bf5ae0d25, 2021-09-20)"
   sodipodi:docname="pig_sl.svg"
   inkscape:export-filename="D:\RxLab\src\RxOT\After-Effects\Duik\inc\oco\pig.png"
   inkscape:export-xdpi="48"
   inkscape:export-ydpi="48"
   xmlns:inkscape="http://www.inkscape.org/namespaces/inkscape"
   xmlns:sodipodi="http://sodipodi.sourceforge.net/DTD/sodipodi-0.dtd"
   xmlns="http://www.w3.org/2000/svg"
   xmlns:svg="http://www.w3.org/2000/svg"
   xmlns:rdf="http://www.w3.org/1999/02/22-rdf-syntax-ns#"
   xmlns:cc="http://creativecommons.org/ns#"
   xmlns:dc="http://purl.org/dc/elements/1.1/">
  <defs
     id="defs2">
    <inkscape:path-effect
       effect="taper_stroke"
       id="path-effect879"
       is_visible="true"
       stroke_width="1.77"
       attach_start="1e-07"
       end_offset="1.0001633"
       smoothing="0.5"
       jointype="extrapolated"
       miter_limit="100" />
    <inkscape:path-effect
       effect="mirror_symmetry"
       start_point="4.2333333,0"
       end_point="4.2333333,8.4666667"
       center_point="4.2333333,4.2333333"
       id="path-effect897"
       is_visible="true"
       mode="vertical"
       discard_orig_path="false"
       fuse_paths="false"
       oposite_fuse="false" />
    <inkscape:path-effect
       effect="mirror_symmetry"
       start_point="4.2328811,1.6730093"
       end_point="4.2328811,6.1768975"
       center_point="4.2328811,3.9249534"
       id="path-effect862"
       is_visible="true"
       mode="free"
       discard_orig_path="false"
       fuse_paths="false"
       oposite_fuse="false" />
    <inkscape:path-effect
       effect="mirror_symmetry"
       start_point="4.2333333,0"
       end_point="4.2333333,8.4666667"
       center_point="4.2333333,4.2333333"
       id="path-effect858"
       is_visible="true"
       mode="vertical"
       discard_orig_path="false"
       fuse_paths="false"
       oposite_fuse="false" />
    <inkscape:path-effect
       effect="mirror_symmetry"
       start_point="4.2333333,0"
       end_point="4.2333333,8.4666667"
       center_point="4.2333333,4.2333333"
       id="path-effect854"
       is_visible="true"
       mode="vertical"
       discard_orig_path="false"
       fuse_paths="false"
       oposite_fuse="false" />
    <style
       id="style1399">.cls-1{fill:#e3e3e3;}</style>
    <style
       id="style1399-4">.cls-1{fill:#e3e3e3;}</style>
    <style
       id="style1399-8">.cls-1{fill:#e3e3e3;}</style>
    <style
       id="style1399-4-5">.cls-1{fill:#e3e3e3;}</style>
    <inkscape:path-effect
       oposite_fuse="false"
       fuse_paths="false"
       discard_orig_path="false"
       mode="vertical"
       is_visible="true"
       id="path-effect897-3"
       center_point="4.2333333,4.2333333"
       end_point="4.2333333,8.4666667"
       start_point="4.2333333,0"
       effect="mirror_symmetry" />
    <inkscape:path-effect
       oposite_fuse="false"
       fuse_paths="false"
       discard_orig_path="false"
       mode="free"
       is_visible="true"
       id="path-effect862-8"
       center_point="4.2328811,3.9249534"
       end_point="4.2328811,6.1768975"
       start_point="4.2328811,1.6730093"
       effect="mirror_symmetry" />
    <inkscape:path-effect
       oposite_fuse="false"
       fuse_paths="false"
       discard_orig_path="false"
       mode="vertical"
       is_visible="true"
       id="path-effect858-5"
       center_point="4.2333333,4.2333333"
       end_point="4.2333333,8.4666667"
       start_point="4.2333333,0"
       effect="mirror_symmetry" />
    <inkscape:path-effect
       oposite_fuse="false"
       fuse_paths="false"
       discard_orig_path="false"
       mode="vertical"
       is_visible="true"
       id="path-effect854-6"
       center_point="4.2333333,4.2333333"
       end_point="4.2333333,8.4666667"
       start_point="4.2333333,0"
       effect="mirror_symmetry" />
    <style
       id="style1399-1">.cls-1{fill:#e3e3e3;}</style>
    <style
       id="style1399-4-1">.cls-1{fill:#e3e3e3;}</style>
    <style
       id="style1399-8-5">.cls-1{fill:#e3e3e3;}</style>
    <style
       id="style1399-4-5-9">.cls-1{fill:#e3e3e3;}</style>
  </defs>
  <sodipodi:namedview
     id="base"
     pagecolor="#ffffff"
     bordercolor="#666666"
     borderopacity="1.0"
     inkscape:pageopacity="0.0"
     inkscape:pageshadow="2"
     inkscape:zoom="22.627418"
     inkscape:cx="14.429397"
     inkscape:cy="12.772116"
     inkscape:document-units="mm"
     inkscape:current-layer="svg8"
     showgrid="false"
     units="px"
     inkscape:window-width="1706"
     inkscape:window-height="1168"
     inkscape:window-x="1481"
     inkscape:window-y="103"
     inkscape:window-maximized="0"
     inkscape:pagecheckerboard="0">
    <sodipodi:guide
       position="8.4666666,0"
       orientation="-32,0"
       id="guide854"
       inkscape:locked="false" />
    <sodipodi:guide
       position="0,8.4666814"
       orientation="0,-32"
       id="guide856"
       inkscape:locked="false" />
    <sodipodi:guide
       position="0,8.4666814"
       orientation="32,0"
       id="guide858"
       inkscape:locked="false" />
  </sodipodi:namedview>
  <metadata
     id="metadata5">
    <rdf:RDF>
      <cc:Work
         rdf:about="">
        <dc:format>image/svg+xml</dc:format>
        <dc:type
           rdf:resource="http://purl.org/dc/dcmitype/StillImage" />
      </cc:Work>
    </rdf:RDF>
  </metadata>
  <path
     id="path944"
     style="fill:#b1b1b1;fill-opacity:1;stroke:none;stroke-width:2.13543;stroke-linecap:round"
     d="M 4.3496094,4.125 C 2.4588936,4.1369577 0.47939919,4.5179592 0.1015625,5.21875 -0.60965946,6.5378855 2.7441716,11.975272 4.2421875,11.931641 5.7402034,11.888009 8.773122,6.2657385 7.9863281,4.9902344 7.6175185,4.3923418 6.017888,4.1144491 4.3496094,4.125 Z m 23.8652346,0 c -1.890716,0.011958 -3.87021,0.3929592 -4.248047,1.09375 -0.711222,1.3191355 2.642609,6.756522 4.140625,6.712891 1.498016,-0.04363 4.530934,-5.6659025 3.74414,-6.9414066 C 31.482757,4.3923418 29.883122,4.1144491 28.214844,4.125 Z M 16.019531,4.3300781 c -2.262849,0.00293 -4.488811,0.5051967 -6.4746091,1.4609375 -0.035523,0.4060955 -0.155944,0.7938938 -0.265625,1.1875 C 9.0422895,7.8290503 8.6548639,8.722582 8.1914062,9.5820312 7.7279493,10.441481 7.1956549,11.25652 6.6152344,11.921875 6.034814,12.587231 5.5108563,13.284562 4.2832031,13.320312 3.7460282,13.335958 3.3354176,13.216848 2.9921875,13.025391 c -0.3404148,1.053387 -0.5145761,2.143045 -0.5175781,3.238281 4.934e-4,6.589586 6.064521,11.931352 13.5449216,11.93164 7.481163,6.62e-4 13.546382,-5.341382 13.546875,-11.93164 -0.0011,-1.060383 -0.16271,-2.115902 -0.480468,-3.138672 -0.262716,0.111697 -0.56804,0.184556 -0.9375,0.195312 -1.227829,0.03576 -1.792121,-0.63112 -2.410157,-1.261718 C 25.120245,11.427996 24.539858,10.645626 24.027344,9.8144531 23.51483,8.9832805 23.076963,8.1146807 22.791016,7.2792969 22.620514,6.7811841 22.430097,6.294606 22.427734,5.7539062 20.457879,4.8204943 18.256285,4.3313258 16.019531,4.3300781 Z m -4.285156,7.2485039 c 1.379117,4.84e-4 2.496689,1.11893 2.496094,2.498047 -4.84e-4,1.378354 -1.11774,2.495609 -2.496094,2.496093 -1.379116,5.95e-4 -2.4975623,-1.116977 -2.4980469,-2.496093 -5.951e-4,-1.37988 1.1181669,-2.498642 2.4980469,-2.498047 z m 8.263672,0 c 1.379117,4.84e-4 2.496689,1.11893 2.496094,2.498047 -4.84e-4,1.378354 -1.11774,2.495609 -2.496094,2.496093 -1.379116,5.95e-4 -2.497562,-1.116977 -2.498047,-2.496093 -5.95e-4,-1.37988 1.118167,-2.498642 2.498047,-2.498047 z m -3.978512,5.32627 c 5.600063,0 7.279942,4.079137 6.556163,7.258053 -0.524158,2.302161 -4.195085,2.685071 -6.556163,2.685071 -2.361076,0 -6.030059,-0.38291 -6.5542174,-2.685071 -0.723779,-3.178916 0.9541564,-7.258053 6.5542174,-7.258053 z m -3.154687,4.657333 c -0.743781,2.8e-4 -1.346392,0.603679 -1.345699,1.347461 2.81e-4,0.743093 0.602606,1.345418 1.345699,1.345698 0.74378,6.93e-4 1.347179,-0.601918 1.34746,-1.345698 6.93e-4,-0.744469 -0.602992,-1.348154 -1.34746,-1.347461 z m 6.259705,0.0442 c -0.695602,-6.49e-4 -1.259661,0.563411 -1.259014,1.259014 2.63e-4,0.694959 0.564054,1.258015 1.259014,1.257368 0.694317,-2.62e-4 1.257106,-0.563051 1.257369,-1.257368 6.47e-4,-0.69496 -0.562409,-1.258753 -1.257369,-1.259014 z"
     transform="scale(0.26458333)"
     sodipodi:nodetypes="ssssssssssccssscccccccsssccccccccccccssssscccccccccc" />
</svg>
