<?xml version="1.0" encoding="UTF-8" standalone="no"?>
<!-- Created with Inkscape (http://www.inkscape.org/) -->

<svg
   width="32"
   height="32"
   viewBox="0 0 8.4666666 8.4666666"
   version="1.1"
   id="svg8"
   inkscape:version="1.1 (c68e22c387, 2021-05-23)"
   sodipodi:docname="path_position_onstraint.svg"
   inkscape:export-filename="D:\DEV_SRC\RxOT\DuAEF\DuAEF_Duik\icons\w16\w16_path_constraint.png"
   inkscape:export-xdpi="48"
   inkscape:export-ydpi="48"
   xmlns:inkscape="http://www.inkscape.org/namespaces/inkscape"
   xmlns:sodipodi="http://sodipodi.sourceforge.net/DTD/sodipodi-0.dtd"
   xmlns="http://www.w3.org/2000/svg"
   xmlns:svg="http://www.w3.org/2000/svg"
   xmlns:rdf="http://www.w3.org/1999/02/22-rdf-syntax-ns#"
   xmlns:cc="http://creativecommons.org/ns#"
   xmlns:dc="http://purl.org/dc/elements/1.1/">
  <defs
     id="defs2">
    <style
       id="style1399">.cls-1{fill:#e3e3e3;}</style>
    <style
       id="style1399-4">.cls-1{fill:#e3e3e3;}</style>
    <style
       id="style1399-5">.cls-1{fill:#e3e3e3;}</style>
    <style
       id="style1399-7">.cls-1{fill:#e3e3e3;}</style>
    <style
       id="style1399-3">.cls-1{fill:#e3e3e3;}</style>
    <style
       id="style1399-1">.cls-1{fill:#e3e3e3;}</style>
    <style
       id="style1399-5-8">.cls-1{fill:#e3e3e3;}</style>
    <style
       id="style1399-8">.cls-1{fill:#e3e3e3;}</style>
    <style
       id="style1399-7-8">.cls-1{fill:#e3e3e3;}</style>
    <style
       id="style1399-1-5">.cls-1{fill:#e3e3e3;}</style>
    <style
       id="style1399-5-6">.cls-1{fill:#e3e3e3;}</style>
    <style
       id="style1399-8-9">.cls-1{fill:#e3e3e3;}</style>
    <style
       id="style1399-2">.cls-1{fill:#e3e3e3;}</style>
    <style
       id="style1399-1-1">.cls-1{fill:#e3e3e3;}</style>
    <style
       id="style1399-5-5">.cls-1{fill:#e3e3e3;}</style>
    <style
       id="style1399-8-99">.cls-1{fill:#e3e3e3;}</style>
    <style
       id="style857">.cls-1{fill:#e52120;}.cls-1,.cls-2,.cls-3,.cls-4,.cls-5{stroke:#000;stroke-miterlimit:10;stroke-width:1.2px;}.cls-2{fill:#6dbc88;}.cls-3{fill:#701034;}.cls-4{fill:#51aae0;}.cls-5{fill:none;}</style>
    <style
       id="style1399-33">.cls-1{fill:#e3e3e3;}</style>
    <style
       id="style1399-4-8">.cls-1{fill:#e3e3e3;}</style>
    <style
       id="style1399-5-60">.cls-1{fill:#e3e3e3;}</style>
    <style
       id="style1399-7-4">.cls-1{fill:#e3e3e3;}</style>
    <style
       id="style1399-3-8">.cls-1{fill:#e3e3e3;}</style>
    <style
       id="style1399-1-8">.cls-1{fill:#e3e3e3;}</style>
    <style
       id="style1399-5-8-8">.cls-1{fill:#e3e3e3;}</style>
    <style
       id="style1399-8-97">.cls-1{fill:#e3e3e3;}</style>
    <style
       id="style1399-7-8-7">.cls-1{fill:#e3e3e3;}</style>
    <style
       id="style1399-1-5-6">.cls-1{fill:#e3e3e3;}</style>
    <style
       id="style1399-5-6-4">.cls-1{fill:#e3e3e3;}</style>
    <style
       id="style1399-8-9-3">.cls-1{fill:#e3e3e3;}</style>
    <style
       id="style1399-2-0">.cls-1{fill:#e3e3e3;}</style>
    <style
       id="style1399-1-1-3">.cls-1{fill:#e3e3e3;}</style>
    <style
       id="style1399-5-5-0">.cls-1{fill:#e3e3e3;}</style>
    <style
       id="style1399-8-99-9">.cls-1{fill:#e3e3e3;}</style>
    <style
       id="style857-2">.cls-1{fill:#e52120;}.cls-1,.cls-2,.cls-3,.cls-4,.cls-5{stroke:#000;stroke-miterlimit:10;stroke-width:1.2px;}.cls-2{fill:#6dbc88;}.cls-3{fill:#701034;}.cls-4{fill:#51aae0;}.cls-5{fill:none;}</style>
    <style
       id="style1399-22">.cls-1{fill:#e3e3e3;}</style>
    <style
       id="style1399-4-4">.cls-1{fill:#e3e3e3;}</style>
    <style
       id="style1399-5-7">.cls-1{fill:#e3e3e3;}</style>
    <style
       id="style1399-7-7">.cls-1{fill:#e3e3e3;}</style>
    <style
       id="style1399-3-5">.cls-1{fill:#e3e3e3;}</style>
    <style
       id="style1399-1-4">.cls-1{fill:#e3e3e3;}</style>
    <style
       id="style1399-5-8-81">.cls-1{fill:#e3e3e3;}</style>
    <style
       id="style1399-8-2">.cls-1{fill:#e3e3e3;}</style>
    <style
       id="style1399-7-8-8">.cls-1{fill:#e3e3e3;}</style>
    <style
       id="style1399-1-5-9">.cls-1{fill:#e3e3e3;}</style>
    <style
       id="style1399-5-6-3">.cls-1{fill:#e3e3e3;}</style>
    <style
       id="style1399-8-9-6">.cls-1{fill:#e3e3e3;}</style>
    <style
       id="style1399-2-8">.cls-1{fill:#e3e3e3;}</style>
    <style
       id="style1399-1-1-0">.cls-1{fill:#e3e3e3;}</style>
    <style
       id="style1399-5-5-2">.cls-1{fill:#e3e3e3;}</style>
    <style
       id="style1399-8-99-1">.cls-1{fill:#e3e3e3;}</style>
    <style
       id="style857-0">.cls-1{fill:#e52120;}.cls-1,.cls-2,.cls-3,.cls-4,.cls-5{stroke:#000;stroke-miterlimit:10;stroke-width:1.2px;}.cls-2{fill:#6dbc88;}.cls-3{fill:#701034;}.cls-4{fill:#51aae0;}.cls-5{fill:none;}</style>
  </defs>
  <sodipodi:namedview
     id="base"
     pagecolor="#ffffff"
     bordercolor="#666666"
     borderopacity="1.0"
     inkscape:pageopacity="0.0"
     inkscape:pageshadow="2"
     inkscape:zoom="11.313708"
     inkscape:cx="-9.4133594"
     inkscape:cy="12.683728"
     inkscape:document-units="mm"
     inkscape:current-layer="layer1"
     showgrid="false"
     units="px"
     inkscape:window-width="1920"
     inkscape:window-height="1027"
     inkscape:window-x="-8"
     inkscape:window-y="-8"
     inkscape:window-maximized="1"
     inkscape:pagecheckerboard="1"
     inkscape:snap-nodes="false"
     inkscape:snap-bbox="true"
     inkscape:bbox-paths="true"
     inkscape:snap-bbox-edge-midpoints="true"
     inkscape:snap-bbox-midpoints="true"
     inkscape:bbox-nodes="true">
    <sodipodi:guide
       position="8.4666666,0"
       orientation="-32,0"
       id="guide854"
       inkscape:locked="false" />
    <sodipodi:guide
       position="8.4666666,8.4666666"
       orientation="0,-32"
       id="guide856"
       inkscape:locked="false" />
    <sodipodi:guide
       position="0,8.4666814"
       orientation="32,0"
       id="guide858"
       inkscape:locked="false" />
  </sodipodi:namedview>
  <metadata
     id="metadata5">
    <rdf:RDF>
      <cc:Work
         rdf:about="">
        <dc:format>image/svg+xml</dc:format>
        <dc:type
           rdf:resource="http://purl.org/dc/dcmitype/StillImage" />
      </cc:Work>
    </rdf:RDF>
  </metadata>
  <g
     inkscape:label="Layer 1"
     inkscape:groupmode="layer"
     id="layer1"
     transform="translate(0,-288.53334)">
    <path
       id="path1357"
       style="opacity:1;fill:#b1b1b1;fill-opacity:1;stroke:none;stroke-width:3.2768;stroke-linecap:round;stroke-linejoin:round;stroke-miterlimit:4;stroke-dasharray:none;stroke-dashoffset:10.3937;stroke-opacity:1"
       d="M 11.837891 8.6054688 C 11.692708 8.6016892 11.547726 8.6649083 11.384766 8.8066406 L 7.2519531 12.939453 C 6.8472228 13.344165 7.1346464 14.035156 7.7070312 14.035156 L 12.183594 14.035156 C 11.91688 12.479909 12.161064 10.850068 12.921875 9.4316406 L 12.294922 8.8046875 C 12.129904 8.680719 11.983074 8.6096262 11.837891 8.6054688 z M 4.7558594 15.447266 C 4.6029321 15.450025 4.4487441 15.510105 4.3222656 15.636719 L 0.18945312 19.769531 C -0.061397899 20.020492 -0.063385039 20.426849 0.1875 20.677734 L 4.3222656 24.8125 C 4.7269967 25.21725 5.4200179 24.929642 5.4199219 24.357422 L 5.4179688 16.091797 C 5.4179688 15.87712 5.3226821 15.702738 5.1796875 15.589844 C 5.060519 15.495734 4.908787 15.443864 4.7558594 15.447266 z M 22.488281 19.121094 C 21.070935 19.857889 19.44984 20.084431 17.90625 19.806641 L 17.90625 24.357422 C 17.906253 24.929794 18.599174 25.217287 19.003906 24.8125 L 23.136719 20.677734 C 23.384353 20.347782 23.42037 20.095478 23.136719 19.769531 L 22.488281 19.121094 z M 7.703125 26.505859 C 7.4884781 26.505859 7.316018 26.60285 7.203125 26.746094 C 7.0149801 26.984582 6.9970211 27.348599 7.25 27.601562 L 11.382812 31.734375 C 11.633701 31.985336 12.040129 31.987289 12.291016 31.736328 L 16.425781 27.601562 C 16.830512 27.196813 16.54309 26.505746 15.970703 26.505859 L 7.703125 26.505859 z "
       transform="matrix(0.26458333,0,0,0.26458333,0,288.53334)" />
    <path
       id="path4635"
       d="m 6.7293791,290.27058 c 0.5653773,0.56597 0.5576177,1.47334 0.00341,2.03064 -0.00107,5.7e-4 -0.00228,0.002 -0.00341,0.004 l -0.6359045,0.63591 c -0.5608635,0.56085 -1.4733575,0.56078 -2.034136,0 -0.5608639,-0.56078 -0.5608639,-1.47337 0,-2.03415 l 0.3511289,-0.35151 c 0.093115,-0.0932 0.2534719,-0.0312 0.258279,0.10036 0.00614,0.1677 0.036205,0.33618 0.091695,0.49888 0.018793,0.0551 0.00537,0.11604 -0.035798,0.1572 l -0.1238406,0.12385 c -0.265206,0.2652 -0.2735241,0.69702 -0.010929,0.96482 0.2651873,0.27044 0.7010655,0.27206 0.9682871,0.005 l 0.6359042,-0.63582 c 0.2667675,-0.26676 0.2656509,-0.69794 0,-0.9636 -0.035021,-0.035 -0.070299,-0.0621 -0.097855,-0.0811 a 0.15175589,0.15175589 0 0 1 -0.065739,-0.11923 c -0.00376,-0.1 0.031681,-0.20303 0.1106964,-0.28205 l 0.1992309,-0.19924 c 0.052245,-0.0522 0.1342026,-0.0587 0.194784,-0.0163 a 1.4429158,1.4429158 0 0 1 0.1941966,0.16273 z m 1.3336481,-1.33372 c -0.5607785,-0.56079 -1.4732726,-0.56087 -2.0341366,0 l -0.6359039,0.6359 c -0.00112,5.8e-4 -0.00236,0.002 -0.00341,0.004 -0.5542016,0.55728 -0.5619708,1.46466 0.00341,2.03063 a 1.4426508,1.4426508 0 0 0 0.1941871,0.16273 c 0.060581,0.0422 0.1425486,0.0357 0.1947837,-0.0164 l 0.1992311,-0.19923 c 0.079015,-0.0789 0.1144439,-0.18206 0.1106963,-0.28205 a 0.15175589,0.15175589 0 0 0 -0.065739,-0.11929 c -0.027556,-0.019 -0.062834,-0.0462 -0.097856,-0.0811 -0.2656506,-0.26565 -0.2667673,-0.69683 0,-0.9636 l 0.6359044,-0.6358 c 0.2672217,-0.26724 0.7030908,-0.26562 0.9682872,0.005 0.2625941,0.26781 0.2542858,0.69963 -0.010929,0.96484 l -0.1238403,0.12383 c -0.041164,0.0411 -0.054592,0.1021 -0.035797,0.1572 0.05549,0.16271 0.085563,0.33119 0.091695,0.4989 0.00482,0.13157 0.1651648,0.19347 0.2582793,0.10036 l 0.3511288,-0.35113 c 0.5608734,-0.56076 0.5608734,-1.47335 9.5e-6,-2.03412 z"
       inkscape:connector-curvature="0"
       style="fill:#b1b1b1;fill-opacity:1;stroke-width:0.00946284"
       inkscape:export-filename="D:\DEV_SRC\RxOT\DuAEF\DuAEF_Duik\icons\w16\w16_constraints.png"
       inkscape:export-xdpi="48"
       inkscape:export-ydpi="48" />
  </g>
  <style
     type="text/css"
     id="style815">
	.st0{fill:#00005B;}
	.st1{fill:#9999FF;}
</style>
  <style
     id="style815-4"
     type="text/css">
	.st0{fill:#00005B;}
	.st1{fill:#9999FF;}
</style>
  <style
     id="style815-5"
     type="text/css">
	.st0{fill:#00005B;}
	.st1{fill:#9999FF;}
</style>
</svg>
