<?xml version="1.0" encoding="UTF-8" standalone="no"?>
<!-- Created with Inkscape (http://www.inkscape.org/) -->

<svg
   width="32"
   height="32"
   viewBox="0 0 8.4666666 8.4666666"
   version="1.1"
   id="svg8"
   inkscape:version="1.1.1 (3bf5ae0d25, 2021-09-20)"
   sodipodi:docname="script_editor.svg"
   inkscape:export-filename="D:\RxLab\src\RxOT\DuAEF\DuAEF_Duik\inc\icons\w16\w16_script_editor.png"
   inkscape:export-xdpi="48.000004"
   inkscape:export-ydpi="48.000004"
   xmlns:inkscape="http://www.inkscape.org/namespaces/inkscape"
   xmlns:sodipodi="http://sodipodi.sourceforge.net/DTD/sodipodi-0.dtd"
   xmlns="http://www.w3.org/2000/svg"
   xmlns:svg="http://www.w3.org/2000/svg"
   xmlns:rdf="http://www.w3.org/1999/02/22-rdf-syntax-ns#"
   xmlns:cc="http://creativecommons.org/ns#"
   xmlns:dc="http://purl.org/dc/elements/1.1/">
  <defs
     id="defs2">
    <style
       id="style1399">.cls-1{fill:#e3e3e3;}</style>
  </defs>
  <sodipodi:namedview
     id="base"
     pagecolor="#ffffff"
     bordercolor="#666666"
     borderopacity="1.0"
     inkscape:pageopacity="0.0"
     inkscape:pageshadow="2"
     inkscape:zoom="22.627417"
     inkscape:cx="34.051611"
     inkscape:cy="16.152971"
     inkscape:document-units="mm"
     inkscape:current-layer="svg8"
     showgrid="false"
     units="px"
     inkscape:window-width="3440"
     inkscape:window-height="1369"
     inkscape:window-x="1912"
     inkscape:window-y="-8"
     inkscape:window-maximized="1"
     inkscape:pagecheckerboard="1">
    <sodipodi:guide
       position="8.4666666,0"
       orientation="-32,0"
       id="guide854"
       inkscape:locked="false" />
    <sodipodi:guide
       position="8.4666666,8.4666666"
       orientation="0,-32"
       id="guide856"
       inkscape:locked="false" />
    <sodipodi:guide
       position="0,8.4666814"
       orientation="32,0"
       id="guide858"
       inkscape:locked="false" />
  </sodipodi:namedview>
  <metadata
     id="metadata5">
    <rdf:RDF>
      <cc:Work
         rdf:about="">
        <dc:format>image/svg+xml</dc:format>
        <dc:type
           rdf:resource="http://purl.org/dc/dcmitype/StillImage" />
      </cc:Work>
    </rdf:RDF>
  </metadata>
  <path
     id="path1112"
     style="fill:#b1b1b1;fill-opacity:1;stroke-width:0.0828779"
     d="M 2.0761719 0.05078125 C 0.97389912 0.05078125 0.087890625 0.93875413 0.087890625 2.0410156 L 0.087890625 29.958984 C 0.087890625 31.061246 0.97389912 31.949219 2.0761719 31.949219 L 29.923828 31.949219 C 31.0261 31.949219 31.912109 31.061246 31.912109 29.958984 L 31.912109 10.154297 C 31.912109 9.6321551 31.70498 9.1269456 31.332031 8.7539062 L 23.21875 0.63085938 C 22.8458 0.25744205 22.340964 0.05078125 21.810547 0.05078125 L 2.0761719 0.05078125 z M 13.035156 7.9003906 C 13.31516 7.9003906 13.511033 7.9861119 13.623047 8.1621094 C 13.735049 8.3301079 13.791016 8.6622082 13.791016 9.1582031 C 13.791016 9.5261998 13.766746 9.8042825 13.71875 9.9882812 C 13.67075 10.17228 13.592471 10.295376 13.480469 10.359375 C 13.376473 10.423344 13.227156 10.455078 13.035156 10.455078 C 12.299163 10.455078 11.722637 10.531596 11.306641 10.683594 C 10.890645 10.835592 10.590249 11.070628 10.40625 11.390625 C 10.230253 11.702622 10.144531 12.128068 10.144531 12.664062 C 10.144531 12.808062 10.1482 12.919999 10.15625 13 L 10.214844 14.162109 L 10.226562 14.474609 C 10.226562 15.314601 10.012074 16.010505 9.5800781 16.5625 C 9.1480823 17.106494 8.4390687 17.51883 7.4550781 17.798828 L 7.4550781 17.919922 C 8.4390687 18.191919 9.1518606 18.604253 9.5917969 19.15625 C 10.039793 19.708244 10.261719 20.39104 10.261719 21.207031 C 10.261719 21.36703 10.25805 21.486409 10.25 21.566406 L 10.144531 23.138672 C 10.136519 23.23467 10.132812 23.378316 10.132812 23.570312 C 10.132813 24.106308 10.222251 24.535472 10.40625 24.855469 C 10.590249 25.175466 10.894363 25.410501 11.318359 25.5625 C 11.742355 25.722499 12.315164 25.802734 13.035156 25.802734 C 13.22715 25.802734 13.376467 25.830717 13.480469 25.886719 C 13.59246 25.950721 13.67075 26.073814 13.71875 26.257812 C 13.766769 26.441812 13.791016 26.719897 13.791016 27.087891 C 13.791016 27.583886 13.735049 27.917753 13.623047 28.09375 C 13.511049 28.269747 13.315159 28.359375 13.035156 28.359375 C 11.027178 28.359375 9.5402559 28.003009 8.5722656 27.291016 C 7.6042765 26.587027 7.1191406 25.489938 7.1191406 24.001953 C 7.1191406 23.769955 7.13225 23.531201 7.15625 23.283203 L 7.3125 21.566406 C 7.3205126 21.502408 7.3242188 21.407294 7.3242188 21.279297 C 7.3242188 20.599305 7.0835103 20.075025 6.6035156 19.707031 C 6.1315116 19.331039 5.4467719 19.142578 4.5507812 19.142578 C 4.358782 19.142578 4.2114194 19.110874 4.1074219 19.046875 C 4.0034244 18.974869 3.9231888 18.846108 3.8671875 18.662109 C 3.8191837 18.47811 3.796875 18.209417 3.796875 17.857422 C 3.796875 17.505423 3.8191913 17.242404 3.8671875 17.066406 C 3.9231812 16.882404 4.0034244 16.759311 4.1074219 16.695312 C 4.2114186 16.623316 4.358785 16.585938 4.5507812 16.585938 C 5.4467719 16.585937 6.1221299 16.40315 6.578125 16.035156 C 7.0421176 15.667161 7.2753906 15.142884 7.2753906 14.462891 C 7.2753906 14.334889 7.2697691 14.234109 7.2617188 14.162109 L 7.1445312 12.855469 C 7.1205312 12.615471 7.1074219 12.382197 7.1074219 12.158203 C 7.1074219 10.710218 7.5925566 9.6393526 8.5605469 8.9433594 C 9.5285368 8.2473677 11.019177 7.9003906 13.035156 7.9003906 z M 18.826172 7.9003906 C 20.842151 7.9003906 22.334758 8.2473684 23.302734 8.9433594 C 24.270725 9.6393522 24.753906 10.710218 24.753906 12.158203 C 24.753906 12.382201 24.74275 12.615473 24.71875 12.855469 L 24.599609 14.162109 C 24.591559 14.234117 24.585938 14.334897 24.585938 14.462891 C 24.585937 15.142884 24.813487 15.667158 25.269531 16.035156 C 25.733526 16.403152 26.414556 16.585938 27.310547 16.585938 C 27.502541 16.585938 27.649905 16.623309 27.753906 16.695312 C 27.857904 16.759315 27.934414 16.882408 27.982422 17.066406 C 28.038431 17.242404 28.066406 17.505427 28.066406 17.857422 C 28.066406 18.209417 28.038416 18.478111 27.982422 18.662109 C 27.934414 18.846103 27.857904 18.974875 27.753906 19.046875 C 27.649911 19.110844 27.502551 19.142578 27.310547 19.142578 C 26.414556 19.142578 25.726079 19.331036 25.246094 19.707031 C 24.774099 20.075027 24.537109 20.599305 24.537109 21.279297 C 24.537109 21.407294 24.54074 21.502408 24.548828 21.566406 L 24.705078 23.283203 C 24.729078 23.531201 24.742188 23.769954 24.742188 24.001953 C 24.742188 25.489939 24.259004 26.587023 23.291016 27.291016 C 22.323025 28.003008 20.834152 28.359375 18.826172 28.359375 C 18.546181 28.359375 18.350284 28.269747 18.238281 28.09375 C 18.126279 27.917752 18.070312 27.583886 18.070312 27.087891 C 18.070313 26.719894 18.094571 26.441811 18.142578 26.257812 C 18.190582 26.073814 18.265158 25.950717 18.369141 25.886719 C 18.481143 25.830721 18.634176 25.802734 18.826172 25.802734 C 19.546164 25.802734 20.118971 25.722499 20.542969 25.5625 C 20.966964 25.410502 21.271079 25.175466 21.455078 24.855469 C 21.639077 24.535472 21.730469 24.106308 21.730469 23.570312 C 21.730469 23.37831 21.726838 23.234672 21.71875 23.138672 L 21.611328 21.566406 C 21.603278 21.486405 21.599609 21.367034 21.599609 21.207031 C 21.599609 20.391041 21.817818 19.708244 22.257812 19.15625 C 22.705808 18.604256 23.422244 18.19191 24.40625 17.919922 L 24.40625 17.798828 C 23.422374 17.518831 22.713225 17.106493 22.28125 16.5625 C 21.849255 16.010505 21.634766 15.314601 21.634766 14.474609 L 21.646484 14.162109 L 21.707031 13 C 21.715082 12.919999 21.71875 12.808059 21.71875 12.664062 C 21.71875 12.128068 21.627358 11.702621 21.443359 11.390625 C 21.267357 11.070626 20.970683 10.835587 20.554688 10.683594 C 20.138692 10.531592 19.562166 10.455078 18.826172 10.455078 C 18.634169 10.455078 18.483096 10.423374 18.371094 10.359375 C 18.2671 10.295372 18.190571 10.17228 18.142578 9.9882812 C 18.094537 9.804284 18.070312 9.5262006 18.070312 9.1582031 C 18.070312 8.6622078 18.126275 8.3301056 18.238281 8.1621094 C 18.350285 7.9861119 18.546181 7.9003906 18.826172 7.9003906 z M 17.402344 13.15625 C 18.098337 13.15625 18.604019 13.215938 18.916016 13.335938 C 19.228012 13.447937 19.380859 13.638159 19.380859 13.910156 L 19.380859 16.478516 C 19.380859 16.750516 19.228016 16.94641 18.916016 17.066406 C 18.604019 17.178409 18.098337 17.234375 17.402344 17.234375 C 16.706351 17.234375 16.202617 17.178409 15.890625 17.066406 C 15.578631 16.946408 15.421875 16.750513 15.421875 16.478516 L 15.421875 13.910156 C 15.421875 13.63816 15.578625 13.44794 15.890625 13.335938 C 16.20262 13.215934 16.706351 13.156248 17.402344 13.15625 z M 16.345703 20.115234 L 19.263672 20.115234 C 19.399671 20.115234 19.502215 20.150656 19.574219 20.222656 C 19.646204 20.294649 19.681641 20.389769 19.681641 20.509766 C 19.681641 20.629766 19.653658 20.751098 19.597656 20.871094 L 16.753906 27.314453 C 16.593907 27.698448 16.170413 27.890625 15.482422 27.890625 C 15.178426 27.890625 14.937716 27.834659 14.761719 27.722656 C 14.593711 27.61066 14.511719 27.455857 14.511719 27.255859 C 14.511719 27.183856 14.515387 27.131622 14.523438 27.099609 L 15.722656 20.595703 C 15.754661 20.443698 15.823737 20.328048 15.927734 20.248047 C 16.039735 20.160041 16.177707 20.115234 16.345703 20.115234 z "
     transform="scale(0.26458333)" />
</svg>
