<?xml version="1.0" encoding="UTF-8" standalone="no"?>
<!-- Created with Inkscape (http://www.inkscape.org/) -->

<svg
   width="32"
   height="32"
   viewBox="0 0 8.4666666 8.4666666"
   version="1.1"
   id="svg8"
   inkscape:version="1.1 (c68e22c387, 2021-05-23)"
   sodipodi:docname="scriptify_expression.svg"
   inkscape:export-filename="D:\RxLab\src\RxOT\DuAEF_Duik\icons\w12\w12_expression.png"
   inkscape:export-xdpi="36.000004"
   inkscape:export-ydpi="36.000004"
   xmlns:inkscape="http://www.inkscape.org/namespaces/inkscape"
   xmlns:sodipodi="http://sodipodi.sourceforge.net/DTD/sodipodi-0.dtd"
   xmlns="http://www.w3.org/2000/svg"
   xmlns:svg="http://www.w3.org/2000/svg"
   xmlns:rdf="http://www.w3.org/1999/02/22-rdf-syntax-ns#"
   xmlns:cc="http://creativecommons.org/ns#"
   xmlns:dc="http://purl.org/dc/elements/1.1/">
  <defs
     id="defs2">
    <style
       id="style1399">.cls-1{fill:#e3e3e3;}</style>
  </defs>
  <sodipodi:namedview
     id="base"
     pagecolor="#ffffff"
     bordercolor="#666666"
     borderopacity="1.0"
     inkscape:pageopacity="0.0"
     inkscape:pageshadow="2"
     inkscape:zoom="5.6568543"
     inkscape:cx="-27.665553"
     inkscape:cy="-0.44194174"
     inkscape:document-units="mm"
     inkscape:current-layer="svg8"
     showgrid="false"
     units="px"
     inkscape:window-width="1920"
     inkscape:window-height="1027"
     inkscape:window-x="-8"
     inkscape:window-y="-8"
     inkscape:window-maximized="1"
     inkscape:pagecheckerboard="1"
     inkscape:snap-bbox="true"
     inkscape:bbox-paths="true"
     inkscape:bbox-nodes="true"
     inkscape:snap-bbox-midpoints="true"
     inkscape:snap-bbox-edge-midpoints="true"
     inkscape:snap-nodes="false"
     inkscape:snap-others="false">
    <sodipodi:guide
       position="8.4666666,0"
       orientation="-32,0"
       id="guide854"
       inkscape:locked="false" />
    <sodipodi:guide
       position="8.4666666,8.4666666"
       orientation="0,-32"
       id="guide856"
       inkscape:locked="false" />
    <sodipodi:guide
       position="0,8.4666814"
       orientation="32,0"
       id="guide858"
       inkscape:locked="false" />
  </sodipodi:namedview>
  <metadata
     id="metadata5">
    <rdf:RDF>
      <cc:Work
         rdf:about="">
        <dc:format>image/svg+xml</dc:format>
        <dc:type
           rdf:resource="http://purl.org/dc/dcmitype/StillImage" />
      </cc:Work>
    </rdf:RDF>
  </metadata>
  <path
     id="path884"
     style="font-style:normal;font-variant:normal;font-weight:bold;font-stretch:normal;font-size:10.5833px;line-height:1.25;font-family:'Courier Prime Sans';-inkscape-font-specification:'Courier Prime Sans, Bold';font-variant-ligatures:normal;font-variant-caps:normal;font-variant-numeric:normal;font-feature-settings:normal;text-align:start;letter-spacing:0px;word-spacing:0px;writing-mode:lr-tb;text-anchor:start;fill:#b1b1b1;fill-opacity:1;stroke:none;stroke-width:0.171959"
     d="m 3.4227886,1.8371187 c -0.5642416,0 -0.9817112,0.097174 -1.2526367,0.2919718 -0.2709255,0.1947977 -0.4066936,0.4949348 -0.4066936,0.9002034 0,0.062694 0.00362,0.1276485 0.010335,0.1948201 l 0.03359,0.3658693 c 0.00224,0.020151 0.0031,0.048408 0.0031,0.084232 0,0.1903195 -0.064955,0.3367701 -0.1948202,0.4397666 -0.1276254,0.1029969 -0.3166326,0.1545129 -0.5674066,0.1545129 -0.0537373,0 -0.0949157,0.00982 -0.12402342,0.029972 -0.0291077,0.017913 -0.051506,0.052888 -0.0671794,0.1043863 -0.0134343,0.049259 -0.0201538,0.1231736 -0.0201538,0.221692 0,0.098518 0.006719,0.1732939 0.0201538,0.2247924 0.0156734,0.051498 0.0380717,0.087335 0.0671794,0.1074869 0.0291077,0.017912 0.0702862,0.026872 0.12402342,0.026872 0.250774,0 0.4420185,0.052895 0.5741252,0.1581298 0.1343432,0.1029965 0.2015381,0.2494468 0.2015381,0.4397666 0,0.035825 -8.58e-4,0.062703 -0.0031,0.080615 l -0.043925,0.4805908 c -0.00672,0.069411 -0.00982,0.1366054 -0.00982,0.2015381 0,0.416464 0.1352517,0.7228049 0.4061767,0.9198406 0.2709256,0.1992755 0.6875338,0.2992065 1.2495362,0.2992065 0.078367,0 0.1329844,-0.024638 0.1643309,-0.073897 0.031347,-0.049259 0.047026,-0.143332 0.047026,-0.2821533 0,-0.1029959 -0.00672,-0.1805286 -0.020154,-0.2320271 -0.013435,-0.051499 -0.035833,-0.085958 -0.067179,-0.1038696 -0.029108,-0.015673 -0.070286,-0.023771 -0.1240235,-0.023771 -0.2015148,0 -0.3614043,-0.022399 -0.4800741,-0.067179 C 2.824045,6.7379442 2.7389316,6.6721275 2.6874329,6.5825655 2.6359349,6.4930032 2.6099183,6.3734309 2.6099183,6.2234142 c 0,-0.053737 0.00138,-0.094054 0.00362,-0.1209227 l 0.02997,-0.4402834 c 0.00224,-0.02239 0.00362,-0.055988 0.00362,-0.1007689 0,-0.2283836 -0.062715,-0.4196305 -0.1881022,-0.5741252 C 2.3358752,4.8328193 2.1365304,4.7172099 1.8611268,4.6410818 v -0.03359 C 2.1365304,4.5291253 2.3345031,4.4140328 2.4554058,4.2617768 2.5763146,4.1072821 2.63679,3.912417 2.63679,3.6773164 L 2.63369,3.5899834 2.616637,3.2644218 c -0.00224,-0.022391 -0.0031,-0.053748 -0.0031,-0.094051 0,-0.1500163 0.024638,-0.2687275 0.073897,-0.3560505 0.051498,-0.089562 0.1352334,-0.1558955 0.2516643,-0.1984375 0.1164308,-0.042542 0.2776985,-0.063562 0.4836914,-0.063562 0.053738,0 0.094916,-0.00896 0.1240235,-0.026872 0.031347,-0.017913 0.053745,-0.052888 0.067179,-0.1043863 0.013435,-0.051498 0.020154,-0.128514 0.020154,-0.2315104 0,-0.1388216 -0.015679,-0.2320328 -0.047026,-0.2790528 -0.031347,-0.049259 -0.085964,-0.07338 -0.1643316,-0.073381 z m 1.6210896,0 c -0.078365,0 -0.1334997,0.024121 -0.1648478,0.07338 -0.031348,0.04702 -0.047026,0.1402314 -0.047026,0.2790528 0,0.1029966 0.00672,0.1800124 0.020154,0.2315104 0.013432,0.051499 0.034971,0.086474 0.064079,0.1043863 0.031346,0.017912 0.073903,0.026872 0.1276408,0.026872 0.2059932,0 0.3672608,0.02102 0.4836914,0.063562 0.1164307,0.042542 0.1987868,0.1088755 0.2480469,0.1984375 0.051498,0.087323 0.077515,0.2060342 0.077515,0.3560505 0,0.040303 -0.00136,0.071661 -0.00362,0.094051 l -0.016536,0.3255616 -0.00362,0.087333 c 0,0.2351006 0.060475,0.4299659 0.1813843,0.5844604 0.1209085,0.1522558 0.3194241,0.2673485 0.5947958,0.3457154 v 0.03359 C 6.3301318,4.7172096 6.1294086,4.8328191 6.0040218,4.9873138 5.8808741,5.1418085 5.8195368,5.3330554 5.8195368,5.561439 c 3e-7,0.044782 8.475e-4,0.078379 0.0031,0.1007689 l 0.030489,0.4402834 c 0.00225,0.026868 0.0031,0.067185 0.0031,0.1209227 0,0.1500167 -0.025499,0.269589 -0.076998,0.3591513 C 5.7277298,6.6721273 5.642616,6.737944 5.5239462,6.780486 5.4052763,6.825267 5.245387,6.847665 5.0438721,6.847665 c -0.053736,0 -0.096293,0.0081 -0.1276408,0.023771 -0.029103,0.017912 -0.050643,0.052372 -0.064079,0.1038696 -0.013436,0.051498 -0.020154,0.1290306 -0.020154,0.2320271 0,0.1388213 0.015677,0.2328939 0.047026,0.2821533 0.031347,0.049259 0.086481,0.073897 0.1648478,0.073897 0.5620028,0 0.9780937,-0.099931 1.2490194,-0.2992065 C 6.5638227,7.0671409 6.699591,6.760801 6.699591,6.344337 c 0,-0.064932 -0.00362,-0.1321273 -0.010335,-0.2015381 L 6.6458475,5.6622081 c -0.00225,-0.017912 -0.00362,-0.04479 -0.00362,-0.080615 -3e-7,-0.1903195 0.066333,-0.3367701 0.1984375,-0.4397666 0.1343432,-0.1052353 0.3264516,-0.1581298 0.5772255,-0.1581298 0.053737,0 0.095432,-0.00896 0.1245402,-0.026872 0.029108,-0.020152 0.050126,-0.055989 0.063562,-0.1074869 0.015672,-0.051498 0.023771,-0.126274 0.023771,-0.2247924 0,-0.098518 -0.0081,-0.1724324 -0.023771,-0.221692 -0.013433,-0.051499 -0.034451,-0.086474 -0.063559,-0.1043863 -0.029108,-0.020152 -0.070803,-0.029972 -0.1245402,-0.029972 -0.2507739,0 -0.4406428,-0.051516 -0.5705078,-0.1545124 C 6.7197594,4.0109859 6.6556662,3.8645353 6.6556662,3.6742158 c 0,-0.035824 0.00136,-0.06408 0.00362,-0.084232 l 0.03359,-0.3658693 c 0.00672,-0.067172 0.00982,-0.1321268 0.00982,-0.1948201 0,-0.4052686 -0.1352513,-0.7054057 -0.4061767,-0.9002034 C 6.0255893,1.9342929 5.6081197,1.8371187 5.0438782,1.8371187 Z M 4.6449361,3.30783 C 4.4501384,3.3078298 4.3090293,3.324887 4.2217062,3.358473 4.1343832,3.38982 4.0909647,3.443576 4.0909647,3.5197034 v 0.7183024 c 0,0.076128 0.043418,0.1312624 0.1307415,0.1648476 0.087323,0.031347 0.2284322,0.047026 0.4232299,0.047026 0.1947979,0 0.335907,-0.015679 0.4232301,-0.047026 0.087323,-0.033586 0.1312579,-0.08872 0.1312579,-0.1648476 V 3.5197033 c 0,-0.076128 -0.043935,-0.1298839 -0.1312579,-0.1612304 C 4.9808431,3.3248875 4.839734,3.30783 4.6449361,3.30783 Z M 4.349347,5.2560314 c -0.04702,0 -0.085959,0.012061 -0.1173057,0.03669 -0.029107,0.022391 -0.048404,0.055127 -0.057361,0.097668 l -0.335897,1.8200442 c -0.00224,0.00896 -0.0031,0.023773 -0.0031,0.043925 0,0.055977 0.02326,0.099395 0.07028,0.1307414 0.049259,0.031346 0.116454,0.047026 0.2015379,0.047026 0.1925584,0 0.3112693,-0.053756 0.3560506,-0.1612305 L 5.2598857,5.467388 c 0.015673,-0.033586 0.023255,-0.067184 0.023255,-0.1007689 0,-0.033585 -0.00982,-0.060463 -0.029972,-0.080615 -0.020151,-0.020152 -0.049269,-0.029972 -0.087333,-0.029972 z" />
  <g
     aria-label="&quot;"
     id="text1051"
     style="font-size:11.4562px;line-height:1.25;font-family:Comfortaa;-inkscape-font-specification:'Comfortaa, Normal';fill:#b1b1b1;fill-opacity:1;stroke-width:0.286404"
     transform="matrix(0.84439659,0,0,0.84439659,-0.26643706,0.63039656)">
    <path
       d="M 0.75653342,-0.74725218 C 1.0460239,-0.70796418 1.1922777,-0.54929451 1.1816658,-0.36687056 1.1139431,0.79731422 1.0019437,1.3466503 0.89078576,1.3784099 L 0.73415803,1.4231609 C 0.55487082,1.4743861 0.47093025,1.1897787 0.42090257,0.72952385 L 0.30902562,-0.29974439 c -0.0328767,-0.30246527 0.21100506,-0.47960459 0.4475078,-0.44750779 z m 1.38727418,0 c 0.1891763,-0.0196183 0.409079,0.13115809 0.402757,0.4251324 C 2.5227176,0.78676154 2.3504682,1.3086427 2.3004353,1.3336591 2.2225663,1.3725931 2.1773707,1.4231611 2.1214322,1.4231611 h -0.022375 c -0.2088369,0 -0.2584504,-0.2565575 -0.3132554,-0.76076322 L 1.6739248,-0.36687056 C 1.652164,-0.56706989 1.8279255,-0.71449402 2.1438076,-0.74725218 Z"
       id="path2706"
       sodipodi:nodetypes="sssssssssssssss"
       style="fill:#b1b1b1;fill-opacity:1" />
  </g>
  <g
     aria-label="&quot;"
     id="g3307"
     style="font-size:11.4562px;line-height:1.25;font-family:Comfortaa;-inkscape-font-specification:'Comfortaa, Normal';fill:#b1b1b1;fill-opacity:1;stroke-width:0.286404"
     transform="matrix(0.84439659,0,0,0.84439659,6.3162437,0.63039656)">
    <path
       d="M 0.75653342,-0.74725218 C 1.0460239,-0.70796418 1.1922777,-0.54929451 1.1816658,-0.36687056 1.1139431,0.79731422 1.0019437,1.3466503 0.89078576,1.3784099 L 0.73415803,1.4231609 C 0.55487082,1.4743861 0.47093025,1.1897787 0.42090257,0.72952385 L 0.30902562,-0.29974439 c -0.0328767,-0.30246527 0.21100506,-0.47960459 0.4475078,-0.44750779 z m 1.38727418,0 c 0.1891763,-0.0196183 0.409079,0.13115809 0.402757,0.4251324 C 2.5227176,0.78676154 2.3504682,1.3086427 2.3004353,1.3336591 2.2225663,1.3725931 2.1773707,1.4231611 2.1214322,1.4231611 h -0.022375 c -0.2088369,0 -0.2584504,-0.2565575 -0.3132554,-0.76076322 L 1.6739248,-0.36687056 C 1.652164,-0.56706989 1.8279255,-0.71449402 2.1438076,-0.74725218 Z"
       id="path3305"
       sodipodi:nodetypes="sssssssssssssss"
       style="fill:#b1b1b1;fill-opacity:1" />
  </g>
</svg>
