<?xml version="1.0" encoding="UTF-8" standalone="no"?>
<svg
   width="32"
   height="32"
   viewBox="0 0 8.4666666 8.4666666"
   version="1.1"
   id="svg8"
   inkscape:version="1.1.1 (3bf5ae0d25, 2021-09-20)"
   sodipodi:docname="selected-compositions.svg"
   inkscape:export-filename="D:\DEV_SRC\RxOT\DuAEF_Duik\icons\w16\w16_selected-layers.png"
   inkscape:export-xdpi="48"
   inkscape:export-ydpi="48"
   xmlns:inkscape="http://www.inkscape.org/namespaces/inkscape"
   xmlns:sodipodi="http://sodipodi.sourceforge.net/DTD/sodipodi-0.dtd"
   xmlns="http://www.w3.org/2000/svg"
   xmlns:svg="http://www.w3.org/2000/svg"
   xmlns:rdf="http://www.w3.org/1999/02/22-rdf-syntax-ns#"
   xmlns:cc="http://creativecommons.org/ns#"
   xmlns:dc="http://purl.org/dc/elements/1.1/">
  <defs
     id="defs2">
    <style
       id="style1399">.cls-1{fill:#e3e3e3;}</style>
    <style
       id="style1399-4">.cls-1{fill:#e3e3e3;}</style>
    <style
       id="style1399-8">.cls-1{fill:#e3e3e3;}</style>
    <style
       id="style1399-4-5">.cls-1{fill:#e3e3e3;}</style>
  </defs>
  <sodipodi:namedview
     id="base"
     pagecolor="#ffffff"
     bordercolor="#666666"
     borderopacity="1.0"
     inkscape:pageopacity="0.0"
     inkscape:pageshadow="2"
     inkscape:zoom="16"
     inkscape:cx="34.1875"
     inkscape:cy="21.03125"
     inkscape:document-units="mm"
     inkscape:current-layer="svg8"
     showgrid="false"
     units="px"
     inkscape:window-width="3378"
     inkscape:window-height="1417"
     inkscape:window-x="1974"
     inkscape:window-y="-8"
     inkscape:window-maximized="1"
     inkscape:document-rotation="0"
     inkscape:snap-bbox="true"
     inkscape:snap-nodes="false"
     inkscape:bbox-paths="true"
     inkscape:bbox-nodes="true"
     inkscape:snap-bbox-edge-midpoints="true"
     inkscape:snap-bbox-midpoints="true"
     inkscape:pagecheckerboard="0">
    <sodipodi:guide
       position="8.4666666,0"
       orientation="-32,0"
       id="guide854"
       inkscape:locked="false" />
    <sodipodi:guide
       position="8.4666666,8.4666666"
       orientation="0,-32"
       id="guide856"
       inkscape:locked="false" />
    <sodipodi:guide
       position="0,8.4666814"
       orientation="32,0"
       id="guide858"
       inkscape:locked="false" />
  </sodipodi:namedview>
  <metadata
     id="metadata5">
    <rdf:RDF>
      <cc:Work
         rdf:about="">
        <dc:format>image/svg+xml</dc:format>
        <dc:type
           rdf:resource="http://purl.org/dc/dcmitype/StillImage" />
      </cc:Work>
    </rdf:RDF>
  </metadata>
  <path
     style="fill:none;fill-opacity:1;stroke:#b1b1b1;stroke-width:0.400715;stroke-linecap:round;stroke-linejoin:round;stroke-miterlimit:4;stroke-dasharray:none;stroke-opacity:1"
     d="m 1.3090346,2.7621202 0.8437764,1.01e-4 1.5473304,1.765899 c 0.072352,0.08263 0.159601,0.1474636 0.259247,0.1926439 0.099646,0.04518 0.2057854,0.06803 0.3157354,0.068057 l 2.3477787,1.701e-4 0.5562077,0.634661 C 7.3375493,5.6044353 7.2009709,5.9056624 6.9605848,5.9056154 L 3.5770168,5.9052956 C 3.4782566,5.9052573 3.385599,5.8632456 3.3204917,5.7889853 L 1.0905092,3.2440833 C 0.93207051,3.0633005 1.0686489,2.7620734 1.3090346,2.7621202 Z"
     id="path835" />
  <path
     style="fill:none;fill-opacity:1;stroke:#b1b1b1;stroke-width:0.400715;stroke-linecap:round;stroke-linejoin:round;stroke-miterlimit:4;stroke-dasharray:none;stroke-opacity:1"
     d="m 0.48505026,4.5794383 0.84377634,1.011e-4 1.5473304,1.765899 c 0.072352,0.08263 0.159601,0.1474636 0.2592471,0.1926438 0.099646,0.04518 0.2057854,0.06803 0.3157353,0.068057 L 5.7989182,6.606309 6.3551258,7.2409702 C 6.513565,7.4217532 6.3769863,7.7229803 6.1366005,7.7229333 L 2.7530324,7.7226137 C 2.6542722,7.7225755 2.5616146,7.6805639 2.4965073,7.6063035 L 0.26652488,5.0614016 C 0.10808614,4.8806185 0.24466455,4.5793914 0.48505026,4.5794383 Z"
     id="path839" />
  <path
     style="fill:#b1b1b1;fill-opacity:1;stroke-width:0.0150639"
     d="m 5.7190484,0.82360693 c 0.049833,0.0225945 0.09485,0.0557675 0.1316137,0.0979903 L 8.3892234,3.8200845 C 8.5695652,4.026069 8.4137432,4.3697381 8.1399686,4.369822 L 4.2869801,4.370337 C 4.1744658,4.3704319 4.0690036,4.3226146 3.9949322,4.2379204 L 1.4563709,1.3394334 C 1.2760287,1.1334498 1.4316561,0.79020957 1.7054308,0.79012571 l 3.8531835,-9.4539e-4 c 0.055986,-1.6946e-4 0.1105991,0.0118307 0.1604341,0.0344266 z M 5.816092,1.8394688 C 5.6664895,1.7576998 5.5117642,1.7070253 5.3874885,1.7067522 5.1389343,1.7062101 5.1060155,1.9075226 5.3140344,2.1565306 5.5220541,2.4055389 5.8919947,2.6078839 6.1405479,2.6084258 6.3891017,2.608967 6.4220211,2.4076554 6.2140014,2.1586469 6.1099926,2.0341428 5.9656945,1.9212371 5.816092,1.8394688 Z M 6.1701045,2.8698406 C 6.1009088,2.8320543 6.0398832,2.8314677 6.0337422,2.8691122 L 5.9607925,3.3154952 3.9603627,2.2220883 C 3.891167,2.184302 3.8301415,2.1837153 3.8240005,2.2213598 L 3.7095349,2.9248922 4.4625944,3.8265658 7.5487073,3.8330187 7.225706,3.4468383 Z"
     id="path885-3"
     sodipodi:nodetypes="sccccccccsscsssscccccccccc" />
</svg>
