<?xml version="1.0" encoding="UTF-8" standalone="no"?>
<svg
   width="32"
   height="32"
   viewBox="0 0 8.4666666 8.4666666"
   version="1.1"
   id="svg8"
   inkscape:version="1.1.1 (3bf5ae0d25, 2021-09-20)"
   sodipodi:docname="selected_props.svg"
   inkscape:export-filename="D:\RxLab\src\RxOT\DuAEF_Duik\icons\w16\w16_selected_props.png"
   inkscape:export-xdpi="48"
   inkscape:export-ydpi="48"
   xmlns:inkscape="http://www.inkscape.org/namespaces/inkscape"
   xmlns:sodipodi="http://sodipodi.sourceforge.net/DTD/sodipodi-0.dtd"
   xmlns="http://www.w3.org/2000/svg"
   xmlns:svg="http://www.w3.org/2000/svg"
   xmlns:rdf="http://www.w3.org/1999/02/22-rdf-syntax-ns#"
   xmlns:cc="http://creativecommons.org/ns#"
   xmlns:dc="http://purl.org/dc/elements/1.1/">
  <defs
     id="defs2">
    <style
       id="style857">.cls-1{fill:#e52120;}.cls-1,.cls-2,.cls-3,.cls-4,.cls-5{stroke:#000;stroke-miterlimit:10;stroke-width:1.2px;}.cls-2{fill:#6dbc88;}.cls-3{fill:#701034;}.cls-4{fill:#51aae0;}.cls-5{fill:none;}</style>
    <style
       id="style857-2">.cls-1{fill:#e52120;}.cls-1,.cls-2,.cls-3,.cls-4,.cls-5{stroke:#000;stroke-miterlimit:10;stroke-width:1.2px;}.cls-2{fill:#6dbc88;}.cls-3{fill:#701034;}.cls-4{fill:#51aae0;}.cls-5{fill:none;}</style>
  </defs>
  <sodipodi:namedview
     id="base"
     pagecolor="#ffffff"
     bordercolor="#666666"
     borderopacity="1.0"
     inkscape:pageopacity="0.0"
     inkscape:pageshadow="2"
     inkscape:zoom="15.999999"
     inkscape:cx="14.187501"
     inkscape:cy="15.531251"
     inkscape:document-units="mm"
     inkscape:current-layer="svg8"
     showgrid="false"
     units="px"
     inkscape:window-width="3378"
     inkscape:window-height="1417"
     inkscape:window-x="1974"
     inkscape:window-y="-8"
     inkscape:window-maximized="1"
     inkscape:document-rotation="0"
     inkscape:pagecheckerboard="0">
    <sodipodi:guide
       position="8.4666666,0"
       orientation="-32,0"
       id="guide854"
       inkscape:locked="false" />
    <sodipodi:guide
       position="8.4666666,8.4666666"
       orientation="0,-32"
       id="guide856"
       inkscape:locked="false" />
    <sodipodi:guide
       position="0,8.4666814"
       orientation="32,0"
       id="guide858"
       inkscape:locked="false" />
  </sodipodi:namedview>
  <metadata
     id="metadata5">
    <rdf:RDF>
      <cc:Work
         rdf:about="">
        <dc:format>image/svg+xml</dc:format>
        <dc:type
           rdf:resource="http://purl.org/dc/dcmitype/StillImage" />
      </cc:Work>
    </rdf:RDF>
  </metadata>
  <style
     type="text/css"
     id="style815">
	.st0{fill:#00005B;}
	.st1{fill:#9999FF;}
</style>
  <style
     type="text/css"
     id="style815-2">
	.st0{fill:#00005B;}
	.st1{fill:#9999FF;}
</style>
  <path
     id="path837"
     style="fill:none;fill-opacity:1;stroke:#b1b1b1;stroke-width:0.504;stroke-linecap:round;stroke-linejoin:round;stroke-miterlimit:10;stroke-dasharray:none;stroke-opacity:1"
     sodipodi:type="inkscape:offset"
     inkscape:radius="0.082682267"
     inkscape:original="M 2.4121094 1.7480469 C 2.4154101 2.9836833 2.4142848 4.2183099 2.4140625 5.453125 L 3.0605469 5.453125 C 3.3555157 5.4525528 3.5999434 5.6963583 3.6015625 5.9902344 A 0.23153358 0.23153358 0 0 1 3.6015625 5.9921875 L 3.6015625 6.3320312 C 3.600949 6.5644414 3.7824795 6.7460942 4.015625 6.7460938 L 4.5234375 6.7460938 C 4.7557194 6.7442734 4.935554 6.5638157 4.9355469 6.3320312 C 4.9355469 6.061663 4.933074 5.8422336 4.9316406 5.6054688 L 4.2929688 5.6054688 C 3.8810692 5.605232 3.5393 5.2664644 3.5390625 4.8535156 C 3.5390625 4.1866469 3.5392033 3.5198896 3.5390625 2.8535156 C 3.3094491 2.6943867 3.1359304 2.4554371 3.1367188 2.15625 L 3.1367188 1.8183594 L 3.1367188 1.8164062 C 3.1357744 1.7768871 3.111495 1.7537307 3.0742188 1.7480469 C 2.8528193 1.7482694 2.6329897 1.7481051 2.4121094 1.7480469 z "
     d="m 2.4121094,1.6660156 a 0.08269053,0.08269053 0 0 0 -0.082031,0.082031 c 0.0033,1.2354391 0.00218,2.4702227 0.00195,3.7050781 a 0.08269053,0.08269053 0 0 0 0.082031,0.082031 h 0.6464844 c 0.2493199,-4.836e-4 0.4576164,0.2067947 0.4589843,0.4550782 a 0.08269053,0.08269053 0 0 0 0,0.00195 V 6.3320312 C 3.5188038,6.6076089 3.7395321,6.8281255 4.015625,6.828125 h 0.5078125 c 0.2747669,-0.00215 0.494149,-0.2215408 0.4941406,-0.4960938 0,-0.2708723 -0.00247,-0.4900641 -0.00391,-0.7265624 A 0.08269053,0.08269053 0 0 0 4.9316406,5.5234375 H 4.2929688 C 3.9263776,5.5232267 3.621305,5.2208702 3.6210938,4.8535156 c 0,-0.666857 1.408e-4,-1.3336027 0,-2 A 0.08269053,0.08269053 0 0 0 3.5859375,2.7851562 C 3.3721453,2.6369919 3.2180461,2.4233528 3.21875,2.15625 v -0.3378906 -0.00195 a 0.08269053,0.08269053 0 0 0 0,-0.00195 C 3.2178827,1.7781611 3.2054649,1.7400749 3.1796875,1.7128906 3.1539101,1.6857064 3.118472,1.6709764 3.0859375,1.6660156 a 0.08269053,0.08269053 0 0 0 -0.011719,0 c -0.2213036,2.224e-4 -0.4412026,5.82e-5 -0.6621094,0 z"
     transform="matrix(1.0067938,0,0,1.0067938,0.02488685,-0.06347194)" />
  <path
     style="fill:#b1b1b1;fill-opacity:1;stroke:none;stroke-width:0.205013px;stroke-miterlimit:10"
     d="M 8.4666667,0.67849495 C 8.1675197,0.6786094 7.8673753,0.67904973 7.5693037,0.67936278 7.4041851,0.68517762 7.2716762,0.81982624 7.2707613,0.98614979 V 1.3280851 C 7.2707724,1.6865273 6.9817719,1.9778996 6.6233411,1.9807127 H 6.110872 C 5.7507129,1.9807138 5.4590313,1.6882429 5.4599803,1.3280851 V 0.98614979 C 5.4591153,0.82850965 5.3400452,0.70064292 5.1874735,0.68240031 4.8779145,0.68275904 4.5742717,0.68309458 4.2619053,0.68326521 4.2663956,2.082645 4.26408,3.4821283 4.26408,4.8815176 h 0.8852101 c 0.1707828,-9.507e-4 0.3097514,0.1368721 0.3106924,0.3076549 v 0.3415013 c -9.507e-4,0.3601578 0.2907328,0.6526287 0.6508918,0.6526276 h 0.512469 C 6.9817719,6.1804924 7.2707724,5.8891189 7.2707613,5.5306767 V 5.1891754 C 7.2716934,5.0197256 7.4089663,4.8824543 7.5784162,4.8815207 H 8.4666667 V 3.9932702 C 8.4676203,3.8211515 8.328093,3.6811902 8.1559741,3.6821438 H 7.8140392 C 7.4549378,3.6812049 7.1640861,3.3903533 7.1631471,3.0312521 V 2.5187831 C 7.166884,2.1626287 7.4565643,1.8753156 7.8127372,1.8744002 h 0.3415013 c 0.1727856,0.00191 0.3133934,-0.1378989 0.3124282,-0.3106924 z"
     id="path839"
     inkscape:connector-curvature="0" />
  <path
     id="path2160"
     style="fill:none;fill-opacity:1;stroke:#b1b1b1;stroke-width:0.504;stroke-linecap:round;stroke-linejoin:round;stroke-miterlimit:10;stroke-dasharray:none;stroke-opacity:1"
     sodipodi:type="inkscape:offset"
     inkscape:radius="0.082682267"
     inkscape:original="M 2.4121094 1.7480469 C 2.4154101 2.9836833 2.4142848 4.2183099 2.4140625 5.453125 L 3.0605469 5.453125 C 3.3555157 5.4525528 3.5999434 5.6963583 3.6015625 5.9902344 A 0.23153358 0.23153358 0 0 1 3.6015625 5.9921875 L 3.6015625 6.3320312 C 3.600949 6.5644414 3.7824795 6.7460942 4.015625 6.7460938 L 4.5234375 6.7460938 C 4.7557194 6.7442734 4.935554 6.5638157 4.9355469 6.3320312 C 4.9355469 6.061663 4.933074 5.8422336 4.9316406 5.6054688 L 4.2929688 5.6054688 C 3.8810692 5.605232 3.5393 5.2664644 3.5390625 4.8535156 C 3.5390625 4.1866469 3.5392033 3.5198896 3.5390625 2.8535156 C 3.3094491 2.6943867 3.1359304 2.4554371 3.1367188 2.15625 L 3.1367188 1.8183594 L 3.1367188 1.8164062 C 3.1357744 1.7768871 3.111495 1.7537307 3.0742188 1.7480469 C 2.8528193 1.7482694 2.6329897 1.7481051 2.4121094 1.7480469 z "
     d="m 2.4121094,1.6660156 a 0.08269053,0.08269053 0 0 0 -0.082031,0.082031 c 0.0033,1.2354391 0.00218,2.4702227 0.00195,3.7050781 a 0.08269053,0.08269053 0 0 0 0.082031,0.082031 h 0.6464844 c 0.2493199,-4.836e-4 0.4576164,0.2067947 0.4589843,0.4550782 a 0.08269053,0.08269053 0 0 0 0,0.00195 V 6.3320312 C 3.5188038,6.6076089 3.7395321,6.8281255 4.015625,6.828125 h 0.5078125 c 0.2747669,-0.00215 0.494149,-0.2215408 0.4941406,-0.4960938 0,-0.2708723 -0.00247,-0.4900641 -0.00391,-0.7265624 A 0.08269053,0.08269053 0 0 0 4.9316406,5.5234375 H 4.2929688 C 3.9263776,5.5232267 3.621305,5.2208702 3.6210938,4.8535156 c 0,-0.666857 1.408e-4,-1.3336027 0,-2 A 0.08269053,0.08269053 0 0 0 3.5859375,2.7851562 C 3.3721453,2.6369919 3.2180461,2.4233528 3.21875,2.15625 v -0.3378906 -0.00195 a 0.08269053,0.08269053 0 0 0 0,-0.00195 C 3.2178827,1.7781611 3.2054649,1.7400749 3.1796875,1.7128906 3.1539101,1.6857064 3.118472,1.6709764 3.0859375,1.6660156 a 0.08269053,0.08269053 0 0 0 -0.011719,0 c -0.2213036,2.224e-4 -0.4412026,5.82e-5 -0.6621094,0 z"
     transform="matrix(1.0067938,0,0,1.0067938,-2.0680942,0.79805294)" />
</svg>
