<?xml version="1.0" encoding="UTF-8" standalone="no"?>
<svg
   xmlns:dc="http://purl.org/dc/elements/1.1/"
   xmlns:cc="http://creativecommons.org/ns#"
   xmlns:rdf="http://www.w3.org/1999/02/22-rdf-syntax-ns#"
   xmlns:svg="http://www.w3.org/2000/svg"
   xmlns="http://www.w3.org/2000/svg"
   xmlns:sodipodi="http://sodipodi.sourceforge.net/DTD/sodipodi-0.dtd"
   xmlns:inkscape="http://www.inkscape.org/namespaces/inkscape"
   width="32"
   height="32"
   viewBox="0 0 8.4666666 8.4666666"
   version="1.1"
   id="svg8"
   inkscape:version="1.0.2-2 (e86c870879, 2021-01-15)"
   sodipodi:docname="selected-layers.svg"
   inkscape:export-filename="D:\DEV_SRC\RxOT\DuAEF_Duik\icons\w16\w16_selected-layers.png"
   inkscape:export-xdpi="48"
   inkscape:export-ydpi="48">
  <defs
     id="defs2" />
  <sodipodi:namedview
     id="base"
     pagecolor="#ffffff"
     bordercolor="#666666"
     borderopacity="1.0"
     inkscape:pageopacity="0.0"
     inkscape:pageshadow="2"
     inkscape:zoom="16"
     inkscape:cx="34.192902"
     inkscape:cy="21.05154"
     inkscape:document-units="mm"
     inkscape:current-layer="svg8"
     showgrid="false"
     units="px"
     inkscape:window-width="3378"
     inkscape:window-height="1417"
     inkscape:window-x="973"
     inkscape:window-y="-8"
     inkscape:window-maximized="1"
     inkscape:document-rotation="0"
     inkscape:snap-bbox="true"
     inkscape:snap-nodes="false"
     inkscape:bbox-paths="true"
     inkscape:bbox-nodes="true"
     inkscape:snap-bbox-edge-midpoints="true"
     inkscape:snap-bbox-midpoints="true">
    <sodipodi:guide
       position="8.4666666,0"
       orientation="-32,0"
       id="guide854"
       inkscape:locked="false" />
    <sodipodi:guide
       position="8.4666666,8.4666666"
       orientation="0,-32"
       id="guide856"
       inkscape:locked="false" />
    <sodipodi:guide
       position="0,8.4666814"
       orientation="32,0"
       id="guide858"
       inkscape:locked="false" />
  </sodipodi:namedview>
  <metadata
     id="metadata5">
    <rdf:RDF>
      <cc:Work
         rdf:about="">
        <dc:format>image/svg+xml</dc:format>
        <dc:type
           rdf:resource="http://purl.org/dc/dcmitype/StillImage" />
        <dc:title></dc:title>
      </cc:Work>
    </rdf:RDF>
  </metadata>
  <path
     style="fill:none;fill-opacity:1;stroke:#b1b1b1;stroke-width:0.439122;stroke-linecap:round;stroke-linejoin:round;stroke-miterlimit:4;stroke-dasharray:none;stroke-opacity:1"
     d="M 7.7648505,3.9272695 6.9226736,3.5455424 4.5792506,4.6077961 c -0.1096033,0.049727 -0.2260205,0.074953 -0.3459174,0.074953 -0.1198966,0 -0.2361689,-0.025226 -0.3459171,-0.074953 L 1.544138,3.5455424 0.70181624,3.9272695 c -0.23993859,0.1087333 -0.23993859,0.4711779 0,0.5799112 L 4.0789319,6.038003 c 0.098585,0.044653 0.2100731,0.044653 0.308658,0 L 7.7648505,4.5071807 c 0.2399382,-0.1087333 0.2399382,-0.4711779 0,-0.5799112 z"
     id="path835" />
  <path
     style="fill:#b1b1b1;fill-opacity:1;stroke-width:0.0165311"
     d="M 0.20784569,2.4409149 4.0586037,4.1877575 c 0.1124114,0.051082 0.239536,0.051082 0.3519475,0 L 8.261309,2.4409149 c 0.2735903,-0.1241488 0.2735903,-0.5375922 0,-0.6617409 L 4.4107164,0.03216573 a 0.42331226,0.42331226 0 0 0 -0.3519475,0 L 0.20784569,1.7790083 c -0.27359012,0.1241488 -0.27359012,0.5377578 0,0.6619066 z"
     id="path885" />
  <path
     style="fill:none;fill-opacity:1;stroke:#b1b1b1;stroke-width:0.439122;stroke-linecap:round;stroke-linejoin:round;stroke-miterlimit:4;stroke-dasharray:none;stroke-opacity:1"
     d="M 7.7648505,6.113916 6.9226736,5.7321889 4.5792506,6.7944426 c -0.1096033,0.049727 -0.2260205,0.074953 -0.3459174,0.074953 -0.1198966,0 -0.2361689,-0.025226 -0.3459171,-0.074953 L 1.544138,5.7321889 0.70181624,6.113916 c -0.23993859,0.1087333 -0.23993859,0.4711779 0,0.5799112 L 4.0789319,8.2246496 c 0.098585,0.044653 0.2100731,0.044653 0.308658,0 L 7.7648505,6.6938272 c 0.2399382,-0.1087333 0.2399382,-0.4711779 0,-0.5799112 z"
     id="path839" />
</svg>
