<?xml version="1.0" encoding="UTF-8" standalone="no"?>
<svg
   id="Calque_1"
   data-name="Calque 1"
   viewBox="0 0 32 32"
   version="1.1"
   sodipodi:docname="shoulders.svg"
   inkscape:version="1.1 (c68e22c387, 2021-05-23)"
   inkscape:export-filename="D:\DEV_SRC\RxOT\DuAEF\DuAEF_Duik\icons/w16\w16_shoulders.png"
   inkscape:export-xdpi="48"
   inkscape:export-ydpi="48"
   xmlns:inkscape="http://www.inkscape.org/namespaces/inkscape"
   xmlns:sodipodi="http://sodipodi.sourceforge.net/DTD/sodipodi-0.dtd"
   xmlns="http://www.w3.org/2000/svg"
   xmlns:svg="http://www.w3.org/2000/svg"
   xmlns:rdf="http://www.w3.org/1999/02/22-rdf-syntax-ns#"
   xmlns:cc="http://creativecommons.org/ns#"
   xmlns:dc="http://purl.org/dc/elements/1.1/">
  <metadata
     id="metadata31">
    <rdf:RDF>
      <cc:Work
         rdf:about="">
        <dc:format>image/svg+xml</dc:format>
        <dc:type
           rdf:resource="http://purl.org/dc/dcmitype/StillImage" />
        <dc:title>body_l</dc:title>
      </cc:Work>
    </rdf:RDF>
  </metadata>
  <sodipodi:namedview
     pagecolor="#ffffff"
     bordercolor="#666666"
     borderopacity="1"
     objecttolerance="10"
     gridtolerance="10"
     guidetolerance="10"
     inkscape:pageopacity="0"
     inkscape:pageshadow="2"
     inkscape:window-width="1920"
     inkscape:window-height="1027"
     id="namedview29"
     showgrid="false"
     inkscape:snap-bbox="true"
     inkscape:bbox-paths="true"
     inkscape:bbox-nodes="true"
     inkscape:snap-bbox-edge-midpoints="true"
     inkscape:snap-bbox-midpoints="true"
     inkscape:snap-nodes="false"
     inkscape:zoom="5.2149125"
     inkscape:cx="-39.789738"
     inkscape:cy="4.6980654"
     inkscape:window-x="-8"
     inkscape:window-y="-8"
     inkscape:window-maximized="1"
     inkscape:current-layer="g1541"
     inkscape:pagecheckerboard="1" />
  <defs
     id="defs4">
    <style
       id="style2">.cls-1{fill:#e3e3e3;}</style>
    <style
       id="style1399">.cls-1{fill:#e3e3e3;}</style>
    <style
       id="style1399-4">.cls-1{fill:#e3e3e3;}</style>
    <style
       id="style1399-8">.cls-1{fill:#e3e3e3;}</style>
    <style
       id="style1399-4-5">.cls-1{fill:#e3e3e3;}</style>
    <style
       id="style1399-0">.cls-1{fill:#e3e3e3;}</style>
    <style
       id="style854">.cls-1{fill:#e3e3e3;}</style>
    <style
       id="style1399-84">.cls-1{fill:#e3e3e3;}</style>
    <style
       id="style1399-4-8">.cls-1{fill:#e3e3e3;}</style>
    <style
       id="style1399-8-10">.cls-1{fill:#e3e3e3;}</style>
    <style
       id="style1399-4-5-3">.cls-1{fill:#e3e3e3;}</style>
    <style
       id="style1399-0-0">.cls-1{fill:#e3e3e3;}</style>
    <style
       id="style1399-5">.cls-1{fill:#e3e3e3;}</style>
    <style
       id="style1399-4-6">.cls-1{fill:#e3e3e3;}</style>
    <style
       id="style1399-8-1">.cls-1{fill:#e3e3e3;}</style>
    <style
       id="style1399-4-5-1">.cls-1{fill:#e3e3e3;}</style>
    <style
       id="style1399-0-5">.cls-1{fill:#e3e3e3;}</style>
    <style
       id="style1257">.cls-1{fill:#e3e3e3;}</style>
    <style
       id="style836">.cls-1{fill:#e3e3e3;}</style>
    <style
       id="style891">.cls-1{fill:#e3e3e3;}</style>
    <inkscape:path-effect
       oposite_fuse="false"
       fuse_paths="false"
       discard_orig_path="false"
       mode="free"
       is_visible="true"
       id="path-effect860"
       center_point="4.2644223,4.1242769"
       end_point="4.2644223,6.6226791"
       start_point="4.2644223,1.6258747"
       effect="mirror_symmetry" />
    <style
       id="style1399-9">.cls-1{fill:#e3e3e3;}</style>
    <style
       id="style1399-4-63">.cls-1{fill:#e3e3e3;}</style>
    <style
       id="style1399-8-8">.cls-1{fill:#e3e3e3;}</style>
    <style
       id="style1399-4-5-5">.cls-1{fill:#e3e3e3;}</style>
    <style
       id="style1399-0-6">.cls-1{fill:#e3e3e3;}</style>
    <style
       id="style854-1">.cls-1{fill:#e3e3e3;}</style>
    <style
       id="style1399-84-1">.cls-1{fill:#e3e3e3;}</style>
    <style
       id="style1399-4-8-5">.cls-1{fill:#e3e3e3;}</style>
    <style
       id="style1399-8-10-9">.cls-1{fill:#e3e3e3;}</style>
    <style
       id="style1399-4-5-3-8">.cls-1{fill:#e3e3e3;}</style>
    <style
       id="style1399-0-0-4">.cls-1{fill:#e3e3e3;}</style>
    <style
       id="style1399-5-8">.cls-1{fill:#e3e3e3;}</style>
    <style
       id="style1399-4-6-1">.cls-1{fill:#e3e3e3;}</style>
    <style
       id="style1399-8-1-0">.cls-1{fill:#e3e3e3;}</style>
    <style
       id="style1399-4-5-1-3">.cls-1{fill:#e3e3e3;}</style>
    <style
       id="style1399-0-5-0">.cls-1{fill:#e3e3e3;}</style>
    <style
       id="style1257-4">.cls-1{fill:#e3e3e3;}</style>
    <style
       id="style836-4">.cls-1{fill:#e3e3e3;}</style>
    <style
       id="style891-4">.cls-1{fill:#e3e3e3;}</style>
    <style
       id="style2-5">.cls-1{fill:#e3e3e3;}</style>
  </defs>
  <title
     id="title6">body_l</title>
  <path
     inkscape:connector-curvature="0"
     class="cls-1"
     d="M 0.03379701,24.501238 C -0.4003689,23.716399 4.6092378,19.358044 8.7338134,19.257852 c 4.1245766,-0.10019 5.3101826,-1.66987 5.9614316,-0.985224 0.651249,0.684647 1.40269,2.204227 0.484263,2.989065 C 14.26108,22.046532 9.3850623,19.27455 6.1288185,21.178198 2.872574,23.081852 2.6053951,25.169189 2.0877358,25.41967 A 1.8535545,1.8535545 0 0 1 0.03379701,24.501238 Z"
     id="path36"
     style="fill:#b1b1b1;stroke-width:1.66986895;fill-opacity:1" />
  <g
     id="g1541"
     transform="matrix(0.54834133,0,0,0.54834133,6.7938869,4.7212509)"
     style="fill:#232323">
    <path
       sodipodi:nodetypes="ccccccccccsssscccccccsscc"
       style="fill:#b1b1b1;stroke-width:3.56832;fill-opacity:1"
       inkscape:connector-curvature="0"
       id="path22-6"
       d="m 24.54543,14.122701 h -1.141864 v -1.57006 c 0.03175,-0.128928 0.03175,-0.263592 0,-0.392515 -0.209781,-0.598319 -0.903413,-0.869002 -1.463011,-0.570932 -1.662726,0.627701 -3.433588,0.918803 -5.209751,0.856398 -1.775982,0.05956 -3.546295,-0.231443 -5.20975,-0.856398 -0.32204,-0.177773 -0.712787,-0.177773 -1.034814,0 -0.297777,0.202039 -0.482912,0.532615 -0.4995642,0.892081 v 1.605745 h -1.141864 c -1.064195,0 -1.926893,0.862699 -1.926893,1.926894 v 0.963446 c 0,1.064196 0.862698,1.926894 1.926893,1.926894 h 1.2489132 v 0.785031 c 0.0057,0.62445 0.365389,1.191526 0.927763,1.463012 1.868136,0.652893 3.837816,0.967076 5.816366,0.927763 1.979407,0.05203 3.951362,-0.26252 5.816365,-0.927763 0.562374,-0.271479 0.921987,-0.838562 0.927764,-1.463012 v -0.785031 h 1.141862 c 1.064195,0 1.926893,-0.862698 1.926893,-1.926894 v -0.749347 c 0.118191,-1.208305 -0.897003,-2.223491 -2.105308,-2.105312 z"
       class="cls-1" />
    <path
       class="cls-1"
       d="m 24.54543,1.5506311 h -1.141864 v -1.57006197 c 0.03175,-0.128928 0.03175,-0.263592 0,-0.392515 -0.209781,-0.59831903 -0.903413,-0.86900003 -1.463011,-0.57093198 -1.662726,0.62769898 -3.433588,0.91880498 -5.209751,0.85639698 -1.775982,0.05956 -3.546295,-0.23144 -5.20975,-0.85639698 -0.32204,-0.17777405 -0.712787,-0.17777405 -1.034814,0 -0.297777,0.20203898 -0.482912,0.53261398 -0.4995642,0.89208098 V 1.5149471 h -1.141864 c -1.064195,0 -1.926893,0.8627 -1.926893,1.926895 v 0.963447 c 0,1.064195 0.862698,1.926894 1.926893,1.926894 h 1.2489132 v 0.78503 c 0.0057,0.624448 0.365389,1.1915277 0.927763,1.4630117 1.868136,0.652893 3.837816,0.967076 5.816366,0.927765 1.979407,0.05203 3.951362,-0.262524 5.816365,-0.927765 0.562374,-0.271477 0.921987,-0.8385637 0.927764,-1.4630117 v -0.78503 h 1.141862 c 1.064195,0 1.926893,-0.862699 1.926893,-1.926894 v -0.749348 c 0.118191,-1.208305 -0.897003,-2.223489 -2.105308,-2.10531 z"
       id="path838"
       inkscape:connector-curvature="0"
       style="fill:#b1b1b1;stroke-width:3.56832;fill-opacity:1"
       sodipodi:nodetypes="ccccccccccsssscccccccsscc" />
  </g>
  <path
     style="fill:#b1b1b1;stroke-width:1.66986895;fill-opacity:1"
     id="path1543"
     d="m 32.018853,24.501238 c 0.434166,-0.784839 -4.57544,-5.143194 -8.700016,-5.243386 -4.124576,-0.10019 -5.310182,-1.66987 -5.961431,-0.985224 -0.651249,0.684647 -1.40269,2.204227 -0.484263,2.989065 0.918428,0.784839 5.794445,-1.987143 9.05069,-0.08349 3.256243,1.903654 3.523422,3.990991 4.041082,4.241472 a 1.8535545,1.8535545 0 0 0 2.053938,-0.918432 z"
     class="cls-1"
     inkscape:connector-curvature="0" />
</svg>
