<?xml version="1.0" encoding="UTF-8" standalone="no"?>
<!-- Created with Inkscape (http://www.inkscape.org/) -->

<svg
   width="32"
   height="32"
   viewBox="0 0 8.4666666 8.4666666"
   version="1.1"
   id="svg8"
   inkscape:version="1.1.1 (3bf5ae0d25, 2021-09-20)"
   sodipodi:docname="shutdown.svg"
   inkscape:export-filename="D:\RxLab\src\RxOT\DuAEF\DuAEF_Duik\inc\icons\w12\w12_shutdown.png"
   inkscape:export-xdpi="36"
   inkscape:export-ydpi="36"
   xmlns:inkscape="http://www.inkscape.org/namespaces/inkscape"
   xmlns:sodipodi="http://sodipodi.sourceforge.net/DTD/sodipodi-0.dtd"
   xmlns="http://www.w3.org/2000/svg"
   xmlns:svg="http://www.w3.org/2000/svg"
   xmlns:rdf="http://www.w3.org/1999/02/22-rdf-syntax-ns#"
   xmlns:cc="http://creativecommons.org/ns#"
   xmlns:dc="http://purl.org/dc/elements/1.1/">
  <defs
     id="defs2">
    <style
       id="style1399">.cls-1{fill:#e3e3e3;}</style>
  </defs>
  <sodipodi:namedview
     id="base"
     pagecolor="#ffffff"
     bordercolor="#666666"
     borderopacity="1.0"
     inkscape:pageopacity="0.0"
     inkscape:pageshadow="2"
     inkscape:zoom="11.313709"
     inkscape:cx="38.227959"
     inkscape:cy="8.1759218"
     inkscape:document-units="mm"
     inkscape:current-layer="svg8"
     showgrid="false"
     units="px"
     inkscape:window-width="3440"
     inkscape:window-height="1369"
     inkscape:window-x="1912"
     inkscape:window-y="-8"
     inkscape:window-maximized="1"
     inkscape:pagecheckerboard="0">
    <sodipodi:guide
       position="8.4666666,0"
       orientation="-32,0"
       id="guide854"
       inkscape:locked="false" />
    <sodipodi:guide
       position="8.4666666,8.4666666"
       orientation="0,-32"
       id="guide856"
       inkscape:locked="false" />
    <sodipodi:guide
       position="0,8.4666814"
       orientation="32,0"
       id="guide858"
       inkscape:locked="false" />
  </sodipodi:namedview>
  <metadata
     id="metadata5">
    <rdf:RDF>
      <cc:Work
         rdf:about="">
        <dc:format>image/svg+xml</dc:format>
        <dc:type
           rdf:resource="http://purl.org/dc/dcmitype/StillImage" />
      </cc:Work>
    </rdf:RDF>
  </metadata>
  <path
     id="path868"
     style="fill:#b1b1b1;fill-opacity:1;stroke-width:0.0497121"
     d="m 15.867188,2.6452933 c -1.075763,0.0013 -1.947914,0.8715036 -1.949219,1.9472656 V 15.464844 c -0.0028,1.078643 0.870572,1.955725 1.949219,1.957031 h 0.177734 c 1.078648,-0.0013 1.950038,-0.878388 1.947266,-1.957031 V 4.5925589 c -0.0013,-1.075762 -0.871504,-1.9459607 -1.947266,-1.9472656 z m 4.380859,5.3468942 v 4.4160155 c 2.466365,1.451981 4.115234,4.132905 4.115234,7.212891 0,4.633831 -3.733356,8.365234 -8.367187,8.365234 -4.633833,0 -8.3652346,-3.731403 -8.3652346,-8.365234 0,-3.046009 1.6119884,-5.703326 4.0332026,-7.166016 V 8.0234375 C 6.9694459,9.7849332 3.6152344,14.321526 3.6152344,19.621094 c 0,6.822902 5.5579558,12.386718 12.3808596,12.386718 6.822902,0 12.388672,-5.563816 12.388672,-12.386718 0,-5.330393 -3.397555,-9.889702 -8.136719,-11.6289065 z"
     sodipodi:nodetypes="cccccccccccsssccsssc"
     transform="scale(0.26458333)" />
</svg>
