<?xml version="1.0" encoding="UTF-8" standalone="no"?>
<!-- Created with Inkscape (http://www.inkscape.org/) -->

<svg
   width="32"
   height="32"
   viewBox="0 0 8.4666666 8.4666666"
   version="1.1"
   id="svg8"
   inkscape:version="1.1.1 (3bf5ae0d25, 2021-09-20)"
   sodipodi:docname="startup.svg"
   inkscape:export-filename="D:\RxLab\src\RxOT\DuAEF\DuAEF_Duik\inc\icons\w12\w12_startup.png"
   inkscape:export-xdpi="36"
   inkscape:export-ydpi="36"
   xmlns:inkscape="http://www.inkscape.org/namespaces/inkscape"
   xmlns:sodipodi="http://sodipodi.sourceforge.net/DTD/sodipodi-0.dtd"
   xmlns="http://www.w3.org/2000/svg"
   xmlns:svg="http://www.w3.org/2000/svg"
   xmlns:rdf="http://www.w3.org/1999/02/22-rdf-syntax-ns#"
   xmlns:cc="http://creativecommons.org/ns#"
   xmlns:dc="http://purl.org/dc/elements/1.1/">
  <defs
     id="defs2">
    <style
       id="style1399">.cls-1{fill:#e3e3e3;}</style>
  </defs>
  <sodipodi:namedview
     id="base"
     pagecolor="#ffffff"
     bordercolor="#666666"
     borderopacity="1.0"
     inkscape:pageopacity="0.0"
     inkscape:pageshadow="2"
     inkscape:zoom="11.313709"
     inkscape:cx="26.030367"
     inkscape:cy="11.092737"
     inkscape:document-units="mm"
     inkscape:current-layer="svg8"
     showgrid="false"
     units="px"
     inkscape:window-width="3440"
     inkscape:window-height="1369"
     inkscape:window-x="1912"
     inkscape:window-y="-8"
     inkscape:window-maximized="1"
     inkscape:pagecheckerboard="0">
    <sodipodi:guide
       position="8.4666666,0"
       orientation="-32,0"
       id="guide854"
       inkscape:locked="false" />
    <sodipodi:guide
       position="8.4666666,8.4666666"
       orientation="0,-32"
       id="guide856"
       inkscape:locked="false" />
    <sodipodi:guide
       position="0,8.4666814"
       orientation="32,0"
       id="guide858"
       inkscape:locked="false" />
  </sodipodi:namedview>
  <metadata
     id="metadata5">
    <rdf:RDF>
      <cc:Work
         rdf:about="">
        <dc:format>image/svg+xml</dc:format>
        <dc:type
           rdf:resource="http://purl.org/dc/dcmitype/StillImage" />
      </cc:Work>
    </rdf:RDF>
  </metadata>
  <path
     id="path868"
     style="fill:#b1b1b1;fill-opacity:1;stroke-width:0.0642595"
     d="M 15.996094 -0.0078125 C 7.1765911 -0.0078125 -0.0078125 7.1765911 -0.0078125 15.996094 C -0.0078124622 24.815596 7.1765911 32.007812 15.996094 32.007812 C 24.815596 32.007812 32.007812 24.815596 32.007812 15.996094 C 32.007812 7.1765911 24.815596 -0.0078125 15.996094 -0.0078125 z M 15.996094 3.46875 C 22.935244 3.46875 28.523438 9.0569431 28.523438 15.996094 C 28.523438 22.935244 22.935244 28.523438 15.996094 28.523438 C 9.0569431 28.523438 3.46875 22.935244 3.46875 15.996094 C 3.46875 9.0569431 9.0569431 3.46875 15.996094 3.46875 z M 11.380859 7.7089844 C 10.591971 7.7318768 9.8769531 8.3671222 9.8769531 9.2539062 L 9.8769531 22.619141 C 9.8769531 23.807941 11.156573 24.534235 12.171875 23.96875 L 23.480469 17.478516 C 24.534327 16.893752 24.534327 15.370486 23.480469 14.779297 L 12.171875 7.9042969 C 11.916443 7.7629257 11.643822 7.7013536 11.380859 7.7089844 z "
     transform="scale(0.26458333)" />
</svg>
