<?xml version="1.0" encoding="UTF-8" standalone="no"?>
<svg
   xmlns:dc="http://purl.org/dc/elements/1.1/"
   xmlns:cc="http://creativecommons.org/ns#"
   xmlns:rdf="http://www.w3.org/1999/02/22-rdf-syntax-ns#"
   xmlns:svg="http://www.w3.org/2000/svg"
   xmlns="http://www.w3.org/2000/svg"
   xmlns:sodipodi="http://sodipodi.sourceforge.net/DTD/sodipodi-0.dtd"
   xmlns:inkscape="http://www.inkscape.org/namespaces/inkscape"
   id="Calque_1"
   data-name="Calque 1"
   viewBox="0 0 32 32"
   version="1.1"
   sodipodi:docname="ungulate.svg"
   inkscape:version="1.0.2-2 (e86c870879, 2021-01-15)"
   inkscape:export-filename="D:\DEV_SRC\RxOT\DuAEF_Duik\icons\w16/w16_ungulate.png"
   inkscape:export-xdpi="48"
   inkscape:export-ydpi="48">
  <metadata
     id="metadata31">
    <rdf:RDF>
      <cc:Work
         rdf:about="">
        <dc:format>image/svg+xml</dc:format>
        <dc:type
           rdf:resource="http://purl.org/dc/dcmitype/StillImage" />
        <dc:title>body_l</dc:title>
      </cc:Work>
    </rdf:RDF>
  </metadata>
  <sodipodi:namedview
     pagecolor="#ffffff"
     bordercolor="#666666"
     borderopacity="1"
     objecttolerance="10"
     gridtolerance="10"
     guidetolerance="10"
     inkscape:pageopacity="0"
     inkscape:pageshadow="2"
     inkscape:window-width="3440"
     inkscape:window-height="1417"
     id="namedview29"
     showgrid="false"
     inkscape:snap-bbox="true"
     inkscape:bbox-paths="true"
     inkscape:bbox-nodes="true"
     inkscape:snap-bbox-edge-midpoints="true"
     inkscape:snap-bbox-midpoints="true"
     inkscape:snap-nodes="false"
     inkscape:zoom="10.429825"
     inkscape:cx="13.857408"
     inkscape:cy="19.42407"
     inkscape:window-x="1915"
     inkscape:window-y="-8"
     inkscape:window-maximized="1"
     inkscape:current-layer="Calque_1"
     inkscape:document-rotation="0" />
  <defs
     id="defs4">
    <style
       id="style2">.cls-1{fill:#e3e3e3;}</style>
    <style
       id="style857">.cls-1{fill:#e3e3e3;}</style>
    <style
       id="style990">.cls-1{fill:#e3e3e3;}</style>
  </defs>
  <title
     id="title6">body_l</title>
  <path
     id="path996"
     d="M 29.631968,8.3610891 A 14.686601,14.686601 0 0 0 15.822749,0.08318676 C 9.5284905,0.08318676 4.5058,2.9314972 2.064391,7.9033249 -1.0509486,14.210298 0.70381422,22.424622 6.9217777,30.448211 a 3.331506,3.331506 0 0 0 2.6702911,1.271568 3.293359,3.293359 0 0 0 1.9963612,-0.6485 3.3696531,3.3696531 0 0 0 0.623068,-4.717514 C 7.7355807,20.517272 6.1969844,14.744357 8.0916195,10.878792 9.3631867,8.3356578 12.186066,6.8097772 15.822749,6.8097772 A 8.0363047,8.0363047 0 0 1 23.541162,11.2094 c 1.920066,4.094446 0.406901,9.714773 -4.018153,15.029924 a 3.3774535,3.3774535 0 1 0 5.20071,4.310613 c 6.116238,-7.37509 7.972726,-15.678424 4.908249,-22.1888479 z M 2.687459,10.446459 A 0.6357836,0.6357836 0 0 1 3.3105269,9.9124011 h 0.1017254 l 2.5431343,0.3814699 a 0.58492091,0.58492091 0 0 1 0.4069016,0.254314 0.61035225,0.61035225 0 0 1 0.114441,0.47048 L 6.095259,13.561799 A 0.58492091,0.58492091 0 0 1 5.8409456,13.968701 0.57220524,0.57220524 0 0 1 5.4721911,14.095857 H 5.3450344 L 2.8019,13.714387 A 0.62306792,0.62306792 0 0 1 2.2805575,12.989594 Z m 3.3442217,9.498607 -2.5431344,0.546774 h -0.08901 A 0.62306792,0.62306792 0 0 1 2.7891843,19.995929 L 2.2424104,17.452795 A 0.62306792,0.62306792 0 0 1 2.725606,16.70257 l 2.5431344,-0.546774 h 0.1398724 a 0.62306792,0.62306792 0 0 1 0.6103522,0.495911 l 0.5467739,2.543135 A 0.62306792,0.62306792 0 0 1 6.0316807,19.945066 Z M 9.2105987,7.1149533 7.608424,9.0985981 A 0.62306792,0.62306792 0 0 1 6.718327,9.2003235 L 4.7346821,7.5981488 A 0.6357836,0.6357836 0 0 1 4.6329568,6.7080518 L 6.2351314,4.724407 A 0.62306792,0.62306792 0 0 1 7.1252285,4.6226816 l 1.9836448,1.6021747 a 0.6357836,0.6357836 0 0 1 0.1017254,0.890097 z M 28.601999,9.9124011 a 0.59763658,0.59763658 0 0 1 0.38147,0.1271569 0.58492091,0.58492091 0 0 1 0.254314,0.406901 l 0.38147,2.543135 a 0.6357836,0.6357836 0 0 1 -0.534058,0.724793 l -2.543135,0.38147 h -0.101725 a 0.59763658,0.59763658 0 0 1 -0.38147,-0.127156 0.61035225,0.61035225 0 0 1 -0.241598,-0.406902 l -0.394186,-2.543134 a 0.64849927,0.64849927 0 0 1 0.534058,-0.724794 L 28.500274,9.9124011 Z M 24.787297,9.3401959 v 0 A 0.66121494,0.66121494 0 0 1 24.354965,9.1113138 L 22.714643,7.1149533 a 0.6357836,0.6357836 0 0 1 0.101725,-0.890097 l 1.983645,-1.6021747 a 0.59763658,0.59763658 0 0 1 0.394186,-0.1398724 h 0.06358 a 0.66121494,0.66121494 0 0 1 0.432333,0.2288821 l 1.576743,1.9963605 a 0.62306792,0.62306792 0 0 1 -0.08901,0.890097 l -1.970929,1.6021747 a 0.66121494,0.66121494 0 0 1 -0.406902,0.1398724 z m 4.336045,10.6684491 a 0.6357836,0.6357836 0 0 1 -0.623068,0.495911 H 28.360401 L 25.880845,19.957782 A 0.62306792,0.62306792 0 0 1 25.39765,19.207557 l 0.534058,-2.543134 a 0.6357836,0.6357836 0 0 1 0.623068,-0.495911 h 0.139872 l 2.543135,0.546774 a 0.59763658,0.59763658 0 0 1 0.406901,0.267029 0.7247933,0.7247933 0 0 1 0.08901,0.483195 z"
     class="cls-1"
     inkscape:connector-curvature="0"
     style="fill:#b1b1b1;stroke-width:1.27156723;fill-opacity:1" />
</svg>
