<?xml version="1.0" encoding="UTF-8" standalone="no"?>
<svg
   xmlns:dc="http://purl.org/dc/elements/1.1/"
   xmlns:cc="http://creativecommons.org/ns#"
   xmlns:rdf="http://www.w3.org/1999/02/22-rdf-syntax-ns#"
   xmlns:svg="http://www.w3.org/2000/svg"
   xmlns="http://www.w3.org/2000/svg"
   xmlns:sodipodi="http://sodipodi.sourceforge.net/DTD/sodipodi-0.dtd"
   xmlns:inkscape="http://www.inkscape.org/namespaces/inkscape"
   id="Calque_1"
   data-name="Calque 1"
   viewBox="0 0 32 32"
   version="1.1"
   sodipodi:docname="unlink.svg"
   inkscape:version="1.0.2-2 (e86c870879, 2021-01-15)"
   inkscape:export-filename="D:\DEV_SRC\RxOT\DuAEF_Duik\icons\w12/w12_unlink.png"
   inkscape:export-xdpi="36"
   inkscape:export-ydpi="36">
  <metadata
     id="metadata23">
    <rdf:RDF>
      <cc:Work
         rdf:about="">
        <dc:format>image/svg+xml</dc:format>
        <dc:type
           rdf:resource="http://purl.org/dc/dcmitype/StillImage" />
      </cc:Work>
    </rdf:RDF>
  </metadata>
  <sodipodi:namedview
     pagecolor="#ffffff"
     bordercolor="#666666"
     borderopacity="1"
     objecttolerance="10"
     gridtolerance="10"
     guidetolerance="10"
     inkscape:pageopacity="0"
     inkscape:pageshadow="2"
     inkscape:window-width="3440"
     inkscape:window-height="1417"
     id="namedview21"
     showgrid="false"
     inkscape:zoom="9.7448153"
     inkscape:cx="-14.353483"
     inkscape:cy="22.50764"
     inkscape:window-x="1915"
     inkscape:window-y="-8"
     inkscape:window-maximized="1"
     inkscape:current-layer="Calque_1"
     inkscape:document-rotation="0" />
  <defs
     id="defs4">
    <style
       id="style2">.cls-1{fill:#e3e3e3;}</style>
  </defs>
  <title
     id="title6">unlink_l</title>
  <path
     id="path8"
     d="m 26.163237,1.2064592 a 2.0743997,2.0743997 0 0 0 -1.43953,0.6073965 L 0.65258404,25.884979 a 2.0732468,2.0732468 0 0 0 1.47192416,3.535048 2.0732468,2.0732468 0 0 0 1.461801,-0.601323 L 27.657433,4.7475809 A 2.0743997,2.0743997 0 0 0 26.163237,1.2064592 Z M 12.719528,4.4681786 A 11.610182,11.610182 0 0 0 1.0676383,16.037057 a 13.838922,13.838922 0 0 0 1.0366234,5.40178 l 3.369026,-3.275892 a 10.065613,10.065613 0 0 1 -0.228786,-2.073247 7.4533222,7.4533222 0 0 1 7.4547793,-7.4547794 5.5770339,5.5770339 0 0 1 1.957842,0.3745612 l 3.10987,-3.1098702 a 9.6198651,9.6198651 0 0 0 -5.047465,-1.431431 z m 0.498065,4.9239611 A 5.9916832,5.9916832 0 0 0 7.2347377,15.37297 6.779517,6.779517 0 0 0 7.3076247,16.296213 L 14.045677,9.5682846 A 2.0732468,2.0732468 0 0 0 13.217593,9.3921397 Z M 29.927072,11.009839 A 2.0732468,2.0732468 0 0 0 27.853825,13.083086 12.812665,12.812665 0 0 1 15.05193,25.884979 9.7338937,9.7338937 0 0 1 10.543024,24.785592 L 7.5465345,27.812451 A 13.880387,13.880387 0 0 0 15.0823,30.031473 16.959159,16.959159 0 0 0 32.000318,13.083086 2.0732468,2.0732468 0 0 0 29.927072,11.009839 Z m -7.639024,2.030729 -9.175737,9.21623 a 6.1368105,6.1368105 0 0 0 1.079141,0.06277 8.1685924,8.1685924 0 0 0 8.167458,-8.169483 9.7960911,9.7960911 0 0 0 -0.07086,-1.109511 z"
     style="fill:#b1b1b1;fill-opacity:1;stroke-width:1.03662" />
</svg>
