<?xml version="1.0" encoding="UTF-8" standalone="no"?>
<!-- Created with Inkscape (http://www.inkscape.org/) -->

<svg
   width="32"
   height="32"
   viewBox="0 0 8.4666666 8.4666666"
   version="1.1"
   id="svg8"
   inkscape:version="1.1.1 (3bf5ae0d25, 2021-09-20)"
   sodipodi:docname="unlink (2).svg"
   inkscape:export-filename="D:\RxLab\src\RxOT\DuAEF\DuAEF_Duik\inc\icons\w12\w12_unlink_chain.png"
   inkscape:export-xdpi="36"
   inkscape:export-ydpi="36"
   xmlns:inkscape="http://www.inkscape.org/namespaces/inkscape"
   xmlns:sodipodi="http://sodipodi.sourceforge.net/DTD/sodipodi-0.dtd"
   xmlns="http://www.w3.org/2000/svg"
   xmlns:svg="http://www.w3.org/2000/svg"
   xmlns:rdf="http://www.w3.org/1999/02/22-rdf-syntax-ns#"
   xmlns:cc="http://creativecommons.org/ns#"
   xmlns:dc="http://purl.org/dc/elements/1.1/">
  <defs
     id="defs2" />
  <sodipodi:namedview
     id="base"
     pagecolor="#ffffff"
     bordercolor="#666666"
     borderopacity="1.0"
     inkscape:pageopacity="0.0"
     inkscape:pageshadow="2"
     inkscape:zoom="22.627416"
     inkscape:cx="14.120039"
     inkscape:cy="20.439806"
     inkscape:document-units="mm"
     inkscape:current-layer="layer1"
     showgrid="false"
     units="px"
     inkscape:window-width="3440"
     inkscape:window-height="1369"
     inkscape:window-x="1912"
     inkscape:window-y="-8"
     inkscape:window-maximized="1"
     inkscape:pagecheckerboard="0">
    <sodipodi:guide
       position="8.4666666,0"
       orientation="-32,0"
       id="guide854"
       inkscape:locked="false" />
    <sodipodi:guide
       position="8.4666666,8.4666666"
       orientation="0,-32"
       id="guide856"
       inkscape:locked="false" />
    <sodipodi:guide
       position="0,8.4666814"
       orientation="32,0"
       id="guide858"
       inkscape:locked="false" />
  </sodipodi:namedview>
  <metadata
     id="metadata5">
    <rdf:RDF>
      <cc:Work
         rdf:about="">
        <dc:format>image/svg+xml</dc:format>
        <dc:type
           rdf:resource="http://purl.org/dc/dcmitype/StillImage" />
      </cc:Work>
    </rdf:RDF>
  </metadata>
  <g
     inkscape:label="Layer 1"
     inkscape:groupmode="layer"
     id="layer1"
     transform="translate(0,-288.53334)">
    <path
       id="path1208"
       d="m 5.1778852,295.42796 c 0,0 -0.3454278,0.28703 -0.902655,0.84426 -0.976534,0.97652 -2.5653012,0.97639 -3.54168728,0 -0.97653472,-0.97638 -0.97653472,-2.56532 0,-3.5417 0.24736726,-0.24737 1.05141658,-1.09925 1.05141658,-1.09925 l 0.7117904,1.18951 c 0,0 -0.6412348,0.65187 -0.8204491,0.83109 -0.4617572,0.46175 -0.4762399,1.21361 -0.019029,1.67988 0.4617246,0.47087 1.2206434,0.47368 1.6859098,0.009 l 1.4579808,-1.34088 z m 2.526584,-6.12671 c -0.976386,-0.97639 -2.5651531,-0.97653 -3.541688,0 l -1.5632175,1.53983 1.5400705,0.33542 0.9551799,-0.94332 c 0.4652666,-0.46528 1.2241695,-0.46248 1.6859099,0.009 0.4572095,0.46628 0.4427437,1.21814 -0.019029,1.67991 C 6.3087857,292.375 5.9201096,292.786 5.9201096,292.786 l 1.4860434,0.35678 c 0,0 -0.037338,0.0363 0.2983013,-0.29936 0.9765511,-0.97636 0.9765511,-2.5653 1.63e-5,-3.54167 z"
       inkscape:connector-curvature="0"
       style="fill:#b1b1b1;fill-opacity:1;stroke-width:0.016476"
       sodipodi:nodetypes="ccccccccccccccccccccccc" />
  </g>
</svg>
