<?xml version="1.0" encoding="UTF-8" standalone="no"?>
<svg
   id="Calque_1"
   data-name="Calque 1"
   viewBox="0 0 32 32"
   version="1.1"
   sodipodi:docname="vertebrae.svg"
   inkscape:version="1.1.1 (3bf5ae0d25, 2021-09-20)"
   xmlns:inkscape="http://www.inkscape.org/namespaces/inkscape"
   xmlns:sodipodi="http://sodipodi.sourceforge.net/DTD/sodipodi-0.dtd"
   xmlns="http://www.w3.org/2000/svg"
   xmlns:svg="http://www.w3.org/2000/svg"
   xmlns:rdf="http://www.w3.org/1999/02/22-rdf-syntax-ns#"
   xmlns:cc="http://creativecommons.org/ns#"
   xmlns:dc="http://purl.org/dc/elements/1.1/">
  <metadata
     id="metadata31">
    <rdf:RDF>
      <cc:Work
         rdf:about="">
        <dc:format>image/svg+xml</dc:format>
        <dc:type
           rdf:resource="http://purl.org/dc/dcmitype/StillImage" />
        <dc:title>body_l</dc:title>
      </cc:Work>
    </rdf:RDF>
  </metadata>
  <sodipodi:namedview
     pagecolor="#ffffff"
     bordercolor="#666666"
     borderopacity="1"
     objecttolerance="10"
     gridtolerance="10"
     guidetolerance="10"
     inkscape:pageopacity="0"
     inkscape:pageshadow="2"
     inkscape:window-width="3440"
     inkscape:window-height="1369"
     id="namedview29"
     showgrid="false"
     inkscape:snap-bbox="true"
     inkscape:bbox-paths="true"
     inkscape:bbox-nodes="true"
     inkscape:snap-bbox-edge-midpoints="true"
     inkscape:snap-bbox-midpoints="true"
     inkscape:snap-nodes="false"
     inkscape:zoom="3.6875"
     inkscape:cx="-62.508475"
     inkscape:cy="9.8983051"
     inkscape:window-x="1912"
     inkscape:window-y="-8"
     inkscape:window-maximized="1"
     inkscape:current-layer="Calque_1"
     inkscape:pagecheckerboard="0" />
  <defs
     id="defs4">
    <style
       id="style2">.cls-1{fill:#e3e3e3;}</style>
  </defs>
  <title
     id="title6">body_l</title>
  <path
     class="cls-1"
     d="m 23.453019,25.176152 h -0.981044 v -1.348933 c 0.02728,-0.11077 0.02728,-0.226467 0,-0.337233 -0.180236,-0.514052 -0.776177,-0.746612 -1.256961,-0.490522 -1.428548,0.539296 -2.950002,0.789399 -4.476011,0.735783 -1.525853,0.05117 -3.046835,-0.198847 -4.47601,-0.735783 -0.276684,-0.152736 -0.612398,-0.152736 -0.889071,0 -0.255838,0.173584 -0.414899,0.457602 -0.429205,0.76644 v 1.379593 H 9.9636724 c -0.914314,0 -1.6555098,0.741196 -1.6555098,1.65551 v 0.827755 c 0,0.914315 0.7411958,1.65551 1.6555098,1.65551 h 1.0730166 v 0.674468 c 0.0049,0.536502 0.313928,1.023711 0.797097,1.256961 1.605028,0.56094 3.297299,0.830874 4.99719,0.797098 1.700628,0.0447 3.394853,-0.225547 4.997189,-0.797098 0.48317,-0.233243 0.792135,-0.720459 0.797098,-1.256961 v -0.674468 h 0.981043 c 0.914314,0 1.65551,-0.741195 1.65551,-1.65551 v -0.643809 c 0.101545,-1.038128 -0.77067,-1.910335 -1.808797,-1.808801 z"
     id="path22"
     inkscape:connector-curvature="0"
     style="fill:#b1b1b1;stroke-width:3.06576037;fill-opacity:1"
     sodipodi:nodetypes="ccccccccccsssscccccccsscc" />
  <path
     sodipodi:nodetypes="ccccccccccsssscccccccsscc"
     style="fill:#b1b1b1;stroke-width:3.06576037;fill-opacity:1"
     inkscape:connector-curvature="0"
     id="path838"
     d="m 23.453019,13.726127 h -0.981044 v -1.348935 c 0.02728,-0.11077 0.02728,-0.226468 0,-0.337233 -0.180236,-0.514052 -0.776177,-0.74661 -1.256961,-0.490522 -1.428548,0.539294 -2.950002,0.789401 -4.476011,0.735782 -1.525853,0.05117 -3.046835,-0.198844 -4.47601,-0.735782 -0.276684,-0.152736 -0.612398,-0.152736 -0.889071,0 -0.255838,0.173584 -0.414899,0.457601 -0.429205,0.76644 v 1.379592 H 9.9636724 c -0.914314,0 -1.6555098,0.741197 -1.6555098,1.655511 v 0.827756 c 0,0.914314 0.7411958,1.65551 1.6555098,1.65551 h 1.0730166 v 0.674467 c 0.0049,0.536501 0.313928,1.023713 0.797097,1.256961 1.605028,0.56094 3.297299,0.830874 4.99719,0.797099 1.700628,0.0447 3.394853,-0.22555 4.997189,-0.797099 0.48317,-0.233242 0.792135,-0.72046 0.797098,-1.256961 v -0.674467 h 0.981043 c 0.914314,0 1.65551,-0.741196 1.65551,-1.65551 v -0.64381 c 0.101545,-1.038128 -0.77067,-1.910334 -1.808797,-1.808799 z"
     class="cls-1" />
  <path
     class="cls-1"
     d="M 23.453019,2.4199152 H 22.471975 V 1.0709805 c 0.02728,-0.11077013 0.02728,-0.22646783 0,-0.33723363 -0.180236,-0.5140514 -0.776177,-0.7466113 -1.256961,-0.490522 -1.428548,0.5392959 -2.950002,0.78939913 -4.476011,0.7357838 -1.525853,0.051169 -3.046835,-0.1988456 -4.47601,-0.7357838 -0.276684,-0.1527349 -0.612398,-0.1527349 -0.889071,0 -0.255838,0.1735838 -0.414899,0.4576022 -0.429205,0.76643923 V 2.3892583 H 9.9636724 c -0.914314,0 -1.6555098,0.7411962 -1.6555098,1.65551 v 0.8277543 c 0,0.9143139 0.7411958,1.6555115 1.6555098,1.6555115 h 1.0730166 v 0.6744673 c 0.0049,0.5365022 0.313928,1.0237127 0.797097,1.2569617 1.605028,0.560939 3.297299,0.830873 4.99719,0.797097 1.700628,0.0447 3.394853,-0.225547 4.997189,-0.797097 0.48317,-0.233243 0.792135,-0.7204595 0.797098,-1.2569617 V 6.5280341 h 0.981043 c 0.914314,0 1.65551,-0.7411976 1.65551,-1.6555115 v -0.643809 c 0.101549,-1.0381272 -0.77067,-1.910333 -1.808797,-1.8087984 z"
     id="path840"
     inkscape:connector-curvature="0"
     style="fill:#b1b1b1;stroke-width:3.06576037;fill-opacity:1"
     sodipodi:nodetypes="ccccccccccsssscccccccsscc" />
</svg>
