<?xml version="1.0" encoding="UTF-8" standalone="no"?>
<!-- Created with Inkscape (http://www.inkscape.org/) -->

<svg
   width="32"
   height="32"
   viewBox="0 0 8.4666666 8.4666666"
   version="1.1"
   id="svg8"
   inkscape:version="1.1 (c68e22c387, 2021-05-23)"
   sodipodi:docname="wing.svg"
   inkscape:export-filename="D:\DEV_SRC\RxOT\DuAEF\DuAEF_Duik\icons\w16/w16_wing.png"
   inkscape:export-xdpi="48"
   inkscape:export-ydpi="48"
   xmlns:inkscape="http://www.inkscape.org/namespaces/inkscape"
   xmlns:sodipodi="http://sodipodi.sourceforge.net/DTD/sodipodi-0.dtd"
   xmlns="http://www.w3.org/2000/svg"
   xmlns:svg="http://www.w3.org/2000/svg"
   xmlns:rdf="http://www.w3.org/1999/02/22-rdf-syntax-ns#"
   xmlns:cc="http://creativecommons.org/ns#"
   xmlns:dc="http://purl.org/dc/elements/1.1/">
  <defs
     id="defs2">
    <style
       id="style1399">.cls-1{fill:#e3e3e3;}</style>
    <style
       id="style1399-4">.cls-1{fill:#e3e3e3;}</style>
    <style
       id="style1399-8">.cls-1{fill:#e3e3e3;}</style>
    <style
       id="style1399-4-5">.cls-1{fill:#e3e3e3;}</style>
    <style
       id="style1399-0">.cls-1{fill:#e3e3e3;}</style>
    <style
       id="style854">.cls-1{fill:#e3e3e3;}</style>
    <style
       id="style1399-84">.cls-1{fill:#e3e3e3;}</style>
    <style
       id="style1399-4-8">.cls-1{fill:#e3e3e3;}</style>
    <style
       id="style1399-8-10">.cls-1{fill:#e3e3e3;}</style>
    <style
       id="style1399-4-5-3">.cls-1{fill:#e3e3e3;}</style>
    <style
       id="style1399-0-0">.cls-1{fill:#e3e3e3;}</style>
    <style
       id="style1399-5">.cls-1{fill:#e3e3e3;}</style>
    <style
       id="style1399-4-6">.cls-1{fill:#e3e3e3;}</style>
    <style
       id="style1399-8-1">.cls-1{fill:#e3e3e3;}</style>
    <style
       id="style1399-4-5-1">.cls-1{fill:#e3e3e3;}</style>
    <style
       id="style1399-0-5">.cls-1{fill:#e3e3e3;}</style>
    <style
       id="style1257">.cls-1{fill:#e3e3e3;}</style>
  </defs>
  <sodipodi:namedview
     id="base"
     pagecolor="#ffffff"
     bordercolor="#666666"
     borderopacity="1.0"
     inkscape:pageopacity="0.0"
     inkscape:pageshadow="2"
     inkscape:zoom="15.999999"
     inkscape:cx="9.2187506"
     inkscape:cy="16.906251"
     inkscape:document-units="mm"
     inkscape:current-layer="svg8"
     showgrid="false"
     units="px"
     inkscape:window-width="1920"
     inkscape:window-height="1027"
     inkscape:window-x="-8"
     inkscape:window-y="-8"
     inkscape:window-maximized="1"
     inkscape:snap-bbox="true"
     inkscape:bbox-paths="true"
     inkscape:bbox-nodes="true"
     inkscape:snap-bbox-edge-midpoints="true"
     inkscape:snap-bbox-midpoints="true"
     inkscape:snap-nodes="true"
     inkscape:snap-others="true"
     inkscape:snap-object-midpoints="true"
     inkscape:snap-page="true"
     inkscape:pagecheckerboard="1"
     inkscape:snap-global="false">
    <sodipodi:guide
       position="8.4666666,0"
       orientation="-32,0"
       id="guide854"
       inkscape:locked="false" />
    <sodipodi:guide
       position="6.7220706,8.4666666"
       orientation="0,-32"
       id="guide856"
       inkscape:locked="false" />
    <sodipodi:guide
       position="0,8.4666814"
       orientation="32,0"
       id="guide858"
       inkscape:locked="false" />
  </sodipodi:namedview>
  <metadata
     id="metadata5">
    <rdf:RDF>
      <cc:Work
         rdf:about="">
        <dc:format>image/svg+xml</dc:format>
        <dc:type
           rdf:resource="http://purl.org/dc/dcmitype/StillImage" />
      </cc:Work>
    </rdf:RDF>
  </metadata>
  <path
     style="fill:#b1b1b1;fill-opacity:1;stroke:none;stroke-width:0.0720087px;stroke-linecap:butt;stroke-linejoin:miter;stroke-opacity:1"
     d="M 8.1271764,5.2735262 C 7.9213333,5.158367 7.7513202,5.1976282 7.4197343,5.2884538 7.0146426,5.3994136 6.6791596,5.5850072 6.5637366,5.6189141 6.315758,5.6917612 6.2402787,5.6052568 6.1624588,5.6260806 5.9437037,5.6846177 5.9080698,6.325006 6.362015,6.2884979 6.5347398,6.2746068 6.8417983,6.0580662 7.3827403,5.9346578 7.7092363,5.8601723 8.0024348,6.1863243 8.2440844,6.0281726 8.3497256,5.9590338 8.3715623,5.7921848 8.3573307,5.666735 8.3402114,5.5158316 8.2597161,5.3476757 8.1271764,5.2735262 Z"
     id="path1314"
     sodipodi:nodetypes="asssssaaa" />
  <path
     style="fill:#b1b1b1;fill-opacity:1;stroke:none;stroke-width:0.105537px;stroke-linecap:butt;stroke-linejoin:miter;stroke-opacity:1"
     d="m 5.3061956,3.3832195 c -0.124334,0.011935 -0.2267043,0.095578 -0.2246855,0.2750984 0.0019,0.1689056 0.1036964,0.1678931 0.058348,0.8353721 -0.040725,0.599403 0.0036,1.1798421 0.093272,1.4574519 0.1597093,0.4944732 0.5300936,0.5218516 0.6232861,0.365543 0.00285,-0.00481 0.00343,-0.010113 0.00508,-0.015156 -0.1149526,-0.1596826 -0.1493935,-0.3722178 -0.028849,-0.555589 7.799e-4,-0.00123 0.00158,-0.0018 0.00241,-0.00299 0.00283,-0.00995 0.00504,-0.02069 0.00592,-0.032836 C 5.8477629,5.6165321 5.7106857,5.6462455 5.6833221,5.5856641 5.65253,5.5174903 5.5880084,5.2229429 5.6022985,4.7304065 5.6171588,4.2182335 5.8136804,3.9158501 5.7204082,3.6416625 5.6623455,3.4709795 5.4660631,3.3678651 5.3062056,3.3832098 Z"
     id="path1316" />
  <path
     style="fill:#b1b1b1;fill-opacity:1;stroke:none;stroke-width:0.270003px;stroke-linecap:butt;stroke-linejoin:miter;stroke-opacity:1"
     d="M 4.9686669,2.6031526 C 4.7209641,2.3781212 4.3547696,1.8779433 4.2028929,1.9538817 4.0510163,2.02982 4.4892988,3.0081356 4.9237592,3.2342762 5.04354,3.2966237 5.1334928,3.2425421 5.3269148,3.1945651 5.4470884,3.1647547 5.571622,3.317071 5.6132962,3.2303627 5.743168,2.9601487 5.1905716,2.8047474 4.9686669,2.6031526 Z"
     id="path1765"
     sodipodi:nodetypes="asasaa" />
  <path
     style="fill:#b1b1b1;fill-opacity:1;stroke:none;stroke-width:0.270003px;stroke-linecap:butt;stroke-linejoin:miter;stroke-opacity:1"
     d="M 3.2028514,1.9926435 C 2.3407034,1.7845238 1.546422,1.1925433 1.0092043,0.48684508 0.90881015,0.35496545 0.75163058,0.1241739 0.84709104,0.01678086 0.94255115,-0.0906122 2.923357,1.0549138 3.4483895,1.4128906 c 0.5250328,0.3579769 0.6443585,0.46537 0.6443585,0.46537 0,0 -0.5991746,0.1845623 -0.8898966,0.1143829 z"
     id="path2231"
     sodipodi:nodetypes="aassca" />
  <path
     style="fill:#b1b1b1;fill-opacity:1;stroke:none;stroke-width:0.270003px;stroke-linecap:butt;stroke-linejoin:miter;stroke-opacity:1"
     d="M 3.4153412,3.0190587 C 2.3064261,2.9581941 1.2095877,2.3749574 0.38803213,1.6276669 0.26542248,1.5161405 0.06558016,1.321237 0.13862991,1.1975045 0.2116797,1.073772 2.9608963,2.1524942 3.5449229,2.4029329 c 0.5840268,0.2504388 0.721762,0.3329064 0.721762,0.3329064 0,0 -0.5527206,0.2996098 -0.8513437,0.2832194 z"
     id="path2816"
     sodipodi:nodetypes="aassca" />
  <path
     style="fill:#b1b1b1;fill-opacity:1;stroke:none;stroke-width:0.270003px;stroke-linecap:butt;stroke-linejoin:miter;stroke-opacity:1"
     d="M 3.916377,3.8999837 C 2.9935094,4.1369243 1.9284961,4.0400643 1.0713342,3.624013 0.84629128,3.5147811 0.51617162,3.2761657 0.55230743,3.081985 0.58390649,2.9121832 3.2414437,3.1915212 3.8717898,3.2719595 c 0.6303464,0.080439 0.7854324,0.1219138 0.7854324,0.1219138 0,0 -0.4511677,0.4317376 -0.7408452,0.5061104 z"
     id="path2955"
     sodipodi:nodetypes="aassca" />
  <path
     style="fill:#b1b1b1;fill-opacity:1;stroke:none;stroke-width:0.270003px;stroke-linecap:butt;stroke-linejoin:miter;stroke-opacity:1"
     d="M 4.273033,4.6821915 C 3.6431238,5.1595602 2.8483086,5.5779216 2.059311,5.5315636 1.7543286,5.5136443 1.2497983,5.3959791 1.247946,5.1052947 1.24514,4.6649429 3.4043573,4.2317955 4.0265892,4.1028229 4.6488217,3.9738504 4.8089647,3.9626244 4.8089647,3.9626244 c 0,0 -0.2975733,0.5389303 -0.5359317,0.7195671 z"
     id="path3246"
     sodipodi:nodetypes="aassca" />
  <path
     style="fill:#b1b1b1;fill-opacity:1;stroke:none;stroke-width:0.270003px;stroke-linecap:butt;stroke-linejoin:miter;stroke-opacity:1"
     d="M 4.7072897,5.4632722 C 4.4216553,5.99715 4.0099988,6.5501582 3.4460025,6.7704326 3.1614282,6.881576 2.6526357,6.9808209 2.5310491,6.7167801 2.34686,6.3167903 3.7301762,5.41128 4.2438132,5.0371361 4.7574507,4.6629924 4.8987059,4.5867111 4.8987059,4.5867111 c 0,0 -0.05033,0.6128583 -0.1914162,0.8765611 z"
     id="path3750"
     sodipodi:nodetypes="aassca" />
  <path
     style="fill:#b1b1b1;fill-opacity:1;stroke:none;stroke-width:0.270003px;stroke-linecap:butt;stroke-linejoin:miter;stroke-opacity:1"
     d="M 5.0848014,6.619023 C 5.037772,6.9499709 4.9810093,7.3360405 4.7302419,7.55707 4.5010532,7.7590796 4.0319066,7.9883727 3.8390107,7.7709054 3.5467969,7.4414687 4.1345596,6.8524633 4.51771,6.3455093 4.9008609,5.8385553 5.0139441,5.7246077 5.0139441,5.7246077 c 0,0 0.1129345,0.5983175 0.070857,0.8944153 z"
     id="path3889"
     sodipodi:nodetypes="aassca" />
  <path
     style="fill:#b1b1b1;fill-opacity:1;stroke:none;stroke-width:0.270003px;stroke-linecap:butt;stroke-linejoin:miter;stroke-opacity:1"
     d="M 5.8520612,7.1613968 C 5.9486973,7.3487366 6.0888663,7.5598206 6.0406144,7.7650191 5.9706821,8.0624161 5.6859075,8.5052065 5.406105,8.4263939 4.9822382,8.3070023 5.1784814,7.8711462 5.2270786,7.2375493 c 0.048598,-0.6335969 0.082211,-0.7905746 0.082211,-0.7905746 0,0 0.4056658,0.4486281 0.5427716,0.7144221 z"
     id="path4028"
     sodipodi:nodetypes="aassca" />
</svg>
