<?xml version="1.0" encoding="UTF-8" standalone="no"?>
<!-- Created with Inkscape (http://www.inkscape.org/) -->

<svg
   width="32"
   height="32"
   viewBox="0 0 8.4666666 8.4666666"
   version="1.1"
   id="svg8"
   inkscape:version="1.1 (c68e22c387, 2021-05-23)"
   sodipodi:docname="wing_illu.svg"
   inkscape:export-filename="D:\DEV_SRC\RxOT\DuAEF\DuAEF_Duik\icons\w128/w128_wing.png"
   inkscape:export-xdpi="384"
   inkscape:export-ydpi="384"
   xmlns:inkscape="http://www.inkscape.org/namespaces/inkscape"
   xmlns:sodipodi="http://sodipodi.sourceforge.net/DTD/sodipodi-0.dtd"
   xmlns="http://www.w3.org/2000/svg"
   xmlns:svg="http://www.w3.org/2000/svg"
   xmlns:rdf="http://www.w3.org/1999/02/22-rdf-syntax-ns#"
   xmlns:cc="http://creativecommons.org/ns#"
   xmlns:dc="http://purl.org/dc/elements/1.1/">
  <defs
     id="defs2">
    <style
       id="style1399">.cls-1{fill:#e3e3e3;}</style>
    <style
       id="style1399-4">.cls-1{fill:#e3e3e3;}</style>
    <style
       id="style1399-8">.cls-1{fill:#e3e3e3;}</style>
    <style
       id="style1399-4-5">.cls-1{fill:#e3e3e3;}</style>
    <style
       id="style1399-0">.cls-1{fill:#e3e3e3;}</style>
    <style
       id="style854">.cls-1{fill:#e3e3e3;}</style>
    <style
       id="style1399-84">.cls-1{fill:#e3e3e3;}</style>
    <style
       id="style1399-4-8">.cls-1{fill:#e3e3e3;}</style>
    <style
       id="style1399-8-10">.cls-1{fill:#e3e3e3;}</style>
    <style
       id="style1399-4-5-3">.cls-1{fill:#e3e3e3;}</style>
    <style
       id="style1399-0-0">.cls-1{fill:#e3e3e3;}</style>
    <style
       id="style1399-5">.cls-1{fill:#e3e3e3;}</style>
    <style
       id="style1399-4-6">.cls-1{fill:#e3e3e3;}</style>
    <style
       id="style1399-8-1">.cls-1{fill:#e3e3e3;}</style>
    <style
       id="style1399-4-5-1">.cls-1{fill:#e3e3e3;}</style>
    <style
       id="style1399-0-5">.cls-1{fill:#e3e3e3;}</style>
    <style
       id="style1257">.cls-1{fill:#e3e3e3;}</style>
  </defs>
  <sodipodi:namedview
     id="base"
     pagecolor="#ffffff"
     bordercolor="#666666"
     borderopacity="1.0"
     inkscape:pageopacity="0.0"
     inkscape:pageshadow="2"
     inkscape:zoom="15.999999"
     inkscape:cx="9.2812506"
     inkscape:cy="16.906251"
     inkscape:document-units="mm"
     inkscape:current-layer="svg8"
     showgrid="false"
     units="px"
     inkscape:window-width="1920"
     inkscape:window-height="1027"
     inkscape:window-x="-8"
     inkscape:window-y="-8"
     inkscape:window-maximized="1"
     inkscape:snap-bbox="true"
     inkscape:bbox-paths="true"
     inkscape:bbox-nodes="true"
     inkscape:snap-bbox-edge-midpoints="true"
     inkscape:snap-bbox-midpoints="true"
     inkscape:snap-nodes="true"
     inkscape:snap-others="true"
     inkscape:snap-object-midpoints="true"
     inkscape:snap-page="true"
     inkscape:pagecheckerboard="1"
     inkscape:snap-global="false">
    <sodipodi:guide
       position="8.4666666,0"
       orientation="-32,0"
       id="guide854"
       inkscape:locked="false" />
    <sodipodi:guide
       position="6.7220706,8.4666666"
       orientation="0,-32"
       id="guide856"
       inkscape:locked="false" />
    <sodipodi:guide
       position="0,8.4666814"
       orientation="32,0"
       id="guide858"
       inkscape:locked="false" />
  </sodipodi:namedview>
  <metadata
     id="metadata5">
    <rdf:RDF>
      <cc:Work
         rdf:about="">
        <dc:format>image/svg+xml</dc:format>
        <dc:type
           rdf:resource="http://purl.org/dc/dcmitype/StillImage" />
      </cc:Work>
    </rdf:RDF>
  </metadata>
  <path
     style="fill:#ec7818;fill-opacity:1;stroke:none;stroke-width:0.0570286px;stroke-linecap:butt;stroke-linejoin:miter;stroke-opacity:1"
     d="M 7.318958,5.0549146 C 7.1559369,4.9637122 7.021292,4.9948058 6.7586867,5.0667368 6.4378671,5.1546133 6.1721754,5.3015975 6.0807641,5.3284507 5.884373,5.3861432 5.8245958,5.3176345 5.762965,5.3341263 5.589718,5.3804858 5.5614971,5.8876527 5.9210071,5.8587395 6.0577995,5.8477381 6.30098,5.676245 6.7293886,5.5785095 6.9879629,5.5195194 7.2201667,5.7778213 7.4115454,5.6525702 7.4952098,5.5978145 7.5125038,5.4656755 7.5012328,5.3663233 7.4876749,5.2468126 7.4239252,5.1136386 7.318958,5.0549146 Z"
     id="path1314"
     sodipodi:nodetypes="asssssaaa" />
  <path
     style="fill:#ecd618;fill-opacity:1;stroke:none;stroke-width:0.0835819px;stroke-linecap:butt;stroke-linejoin:miter;stroke-opacity:1"
     d="m 5.0848321,3.5578526 c -0.098469,0.00945 -0.1795425,0.075695 -0.1779436,0.2178691 0.0015,0.1337678 0.082124,0.1329659 0.04621,0.6615877 -0.032253,0.4747079 0.00285,0.934397 0.073868,1.154255 0.1264846,0.3916068 0.4198171,0.4132896 0.4936225,0.2894982 0.00226,-0.00381 0.00272,-0.00801 0.00402,-0.012003 C 5.4335736,5.7425961 5.4062975,5.5742751 5.5017648,5.429051 c 6.177e-4,-9.741e-4 0.00125,-0.00143 0.00191,-0.00237 0.00224,-0.00788 0.00399,-0.016386 0.00469,-0.026005 C 5.513736,5.3265642 5.4051753,5.3500963 5.3835042,5.3021177 5.3591178,5.2481263 5.3080188,5.0148542 5.3193361,4.6247813 5.331105,4.2191568 5.4867437,3.9796789 5.4128752,3.7625311 5.3668914,3.6273557 5.211442,3.5456924 5.0848401,3.5578449 Z"
     id="path1316" />
  <path
     style="fill:#78d6ec;fill-opacity:1;stroke:none;stroke-width:0.213834px;stroke-linecap:butt;stroke-linejoin:miter;stroke-opacity:1"
     d="M 4.8175203,2.9400648 C 4.6213476,2.7618471 4.3313334,2.3657224 4.211052,2.4258631 c -0.1202814,0.060141 0.2268242,0.8349351 0.5709028,1.0140312 0.094863,0.049377 0.1661023,0.00655 0.3192863,-0.03145 0.095174,-0.023609 0.1938002,0.097021 0.2268048,0.028351 C 5.4309002,3.2227942 4.9932617,3.0997213 4.8175203,2.9400648 Z"
     id="path1765"
     sodipodi:nodetypes="asasaa" />
  <path
     style="fill:#7878ec;fill-opacity:1;stroke:none;stroke-width:0.213834px;stroke-linecap:butt;stroke-linejoin:miter;stroke-opacity:1"
     d="M 3.4190513,2.4565612 C 2.7362579,2.2917371 2.1072126,1.8229076 1.6817535,1.2640174 1.6022446,1.159573 1.4777634,0.97679352 1.553365,0.89174169 1.6289664,0.80668985 3.1977008,1.7139095 3.6135096,1.9974156 c 0.415809,0.2835062 0.5103111,0.368558 0.5103111,0.368558 0,0 -0.4745269,0.1461674 -0.7047694,0.090588 z"
     id="path2231"
     sodipodi:nodetypes="aassca" />
  <path
     style="fill:#7878ec;fill-opacity:1;stroke:none;stroke-width:0.213834px;stroke-linecap:butt;stroke-linejoin:miter;stroke-opacity:1"
     d="M 3.5873364,3.269449 C 2.7091114,3.2212462 1.8404507,2.7593415 1.1898052,2.1675115 1.0927023,2.0791862 0.93443361,1.9248289 0.99228665,1.8268368 c 0.057853,-0.097992 2.23514405,0.756321 2.69767425,0.9546604 0.4625304,0.1983395 0.5716123,0.2636511 0.5716123,0.2636511 0,0 -0.4377369,0.2372813 -0.6742368,0.2243007 z"
     id="path2816"
     sodipodi:nodetypes="aassca" />
  <path
     style="fill:#7878ec;fill-opacity:1;stroke:none;stroke-width:0.213834px;stroke-linecap:butt;stroke-linejoin:miter;stroke-opacity:1"
     d="M 3.9841406,3.9671132 C 3.2532592,4.1547625 2.409803,4.0780525 1.7309584,3.7485533 1.5527317,3.6620451 1.2912875,3.4730694 1.3199059,3.3192846 1.3449314,3.184807 3.4496152,3.4060337 3.948829,3.4697383 c 0.499214,0.063705 0.6220371,0.096552 0.6220371,0.096552 0,0 -0.3573103,0.3419222 -0.5867255,0.4008229 z"
     id="path2955"
     sodipodi:nodetypes="aassca" />
  <path
     style="fill:#7878ec;fill-opacity:1;stroke:none;stroke-width:0.213834px;stroke-linecap:butt;stroke-linejoin:miter;stroke-opacity:1"
     d="M 4.2666007,4.5865966 C 3.7677329,4.9646572 3.1382648,5.2959859 2.5134042,5.2592719 2.2718679,5.2450804 1.8722962,5.1518933 1.8708292,4.9216807 1.868607,4.5729362 3.5786375,4.2298974 4.0714251,4.1277553 4.5642132,4.0256132 4.6910413,4.0167226 4.6910413,4.0167226 c 0,0 -0.2356685,0.4268154 -0.4244406,0.569874 z"
     id="path3246"
     sodipodi:nodetypes="aassca" />
  <path
     style="fill:#7878ec;fill-opacity:1;stroke:none;stroke-width:0.213834px;stroke-linecap:butt;stroke-linejoin:miter;stroke-opacity:1"
     d="M 4.610518,5.2051873 C 4.3843047,5.6280013 4.058286,6.065966 3.6116192,6.2404162 3.3862455,6.3284382 2.9832982,6.407037 2.8870055,6.1979252 2.7411337,5.8811461 3.8366756,5.1640111 4.2434595,4.8677012 4.6502439,4.5713915 4.7621134,4.5109792 4.7621134,4.5109792 c 0,0 -0.03986,0.485364 -0.1515954,0.6942081 z"
     id="path3750"
     sodipodi:nodetypes="aassca" />
  <path
     style="fill:#7878ec;fill-opacity:1;stroke:none;stroke-width:0.213834px;stroke-linecap:butt;stroke-linejoin:miter;stroke-opacity:1"
     d="m 4.9094951,6.1205047 c -0.037246,0.2621 -0.0822,0.5678547 -0.2807997,0.742903 C 4.4471853,7.0233928 4.0756363,7.2049855 3.922869,7.0327584 3.6914451,6.7718552 4.1569342,6.3053819 4.460377,5.9038906 4.7638201,5.5023994 4.8533784,5.4121566 4.8533784,5.4121566 c 0,0 0.08944,0.4738482 0.056117,0.7083481 z"
     id="path3889"
     sodipodi:nodetypes="aassca" />
  <path
     style="fill:#7878ec;fill-opacity:1;stroke:none;stroke-width:0.213834px;stroke-linecap:butt;stroke-linejoin:miter;stroke-opacity:1"
     d="M 5.5171401,6.5500472 C 5.5936728,6.6984143 5.7046821,6.8655861 5.6664682,7.0280967 5.611084,7.2636255 5.3855517,7.6143012 5.1639572,7.5518842 4.8282683,7.4573299 4.9836866,7.1121459 5.022174,6.6103576 5.0606621,6.1085692 5.0872825,5.984248 5.0872825,5.984248 c 0,0 0.3212742,0.355299 0.4298576,0.5657992 z"
     id="path4028"
     sodipodi:nodetypes="aassca" />
</svg>
