<?xml version="1.0" encoding="UTF-8" standalone="no"?>
<svg
   id="Calque_1"
   data-name="Calque 1"
   viewBox="0 0 32 32"
   version="1.1"
   sodipodi:docname="zero.svg"
   inkscape:version="1.1 (c68e22c387, 2021-05-23)"
   inkscape:export-filename="D:\DEV_SRC\RxOT\DuAEF\DuAEF_Duik\icons\w16\w16_zero.png"
   inkscape:export-xdpi="48"
   inkscape:export-ydpi="48"
   xmlns:inkscape="http://www.inkscape.org/namespaces/inkscape"
   xmlns:sodipodi="http://sodipodi.sourceforge.net/DTD/sodipodi-0.dtd"
   xmlns="http://www.w3.org/2000/svg"
   xmlns:svg="http://www.w3.org/2000/svg"
   xmlns:rdf="http://www.w3.org/1999/02/22-rdf-syntax-ns#"
   xmlns:cc="http://creativecommons.org/ns#"
   xmlns:dc="http://purl.org/dc/elements/1.1/">
  <sodipodi:namedview
     id="namedview25"
     pagecolor="#ffffff"
     bordercolor="#111111"
     borderopacity="1"
     inkscape:pageshadow="0"
     inkscape:pageopacity="0"
     inkscape:pagecheckerboard="1"
     showgrid="false"
     inkscape:zoom="18.605747"
     inkscape:cx="3.3591771"
     inkscape:cy="15.667202"
     inkscape:window-width="1920"
     inkscape:window-height="1027"
     inkscape:window-x="-8"
     inkscape:window-y="-8"
     inkscape:window-maximized="1"
     inkscape:current-layer="Calque_1"
     inkscape:snap-bbox="true"
     inkscape:bbox-paths="true"
     inkscape:bbox-nodes="true"
     inkscape:snap-bbox-edge-midpoints="true"
     inkscape:snap-bbox-midpoints="true" />
  <defs
     id="defs4">
    <style
       id="style2">.cls-1,.cls-2{fill:none;stroke:#e3e3e3;stroke-miterlimit:10;}.cls-1{stroke-width:3px;}.cls-2{stroke-width:2px;}</style>
  </defs>
  <title
     id="title6">measure_l</title>
  <metadata
     id="metadata1695">
    <rdf:RDF>
      <cc:Work
         rdf:about="">
        <dc:title>measure_l</dc:title>
      </cc:Work>
    </rdf:RDF>
  </metadata>
  <path
     style="color:#000000;fill:#b1b1b1;stroke-linecap:round;-inkscape-stroke:none"
     d="m 16.015625,0.03320312 c -8.767675,0 -15.92773438,7.16201248 -15.92773438,15.92968788 0,8.767675 7.16005938,15.929687 15.92773438,15.929687 8.767675,0 15.929687,-7.162012 15.929687,-15.929687 0,-8.7676754 -7.162012,-15.92968788 -15.929687,-15.92968788 z m 0,5.00585938 c 6.062197,0 10.923828,4.8616315 10.923828,10.9238285 0,6.062196 -4.861631,10.921875 -10.923828,10.921875 -6.0621966,0 -10.921875,-4.859679 -10.921875,-10.921875 0,-6.062197 4.8596784,-10.9238285 10.921875,-10.9238285 z"
     id="path3259" />
  <path
     id="path3490"
     style="color:#000000;fill:#b1b1b1;stroke-width:0.531737;-inkscape-stroke:none"
     d="M 14.845703 8.8671875 L 14.845703 15.007812 L 8.7070312 15.007812 L 8.7070312 17.132812 L 14.845703 17.132812 L 14.845703 23.273438 L 16.972656 23.273438 L 16.972656 17.132812 L 23.111328 17.132812 L 23.111328 15.007812 L 16.972656 15.007812 L 16.972656 8.8671875 L 14.845703 8.8671875 z " />
</svg>
