<?xml version="1.0" encoding="UTF-8" standalone="no"?>
<!-- Created with Inkscape (http://www.inkscape.org/) -->

<svg
   width="32"
   height="32"
   viewBox="0 0 8.4666666 8.4666666"
   version="1.1"
   id="svg8"
   inkscape:version="1.1.1 (3bf5ae0d25, 2021-09-20)"
   sodipodi:docname="critical.svg"
   inkscape:export-filename="D:\RxLab\src\RxOT\DuAEF\DuSan\inc\api\icons\w12_critical.png"
   inkscape:export-xdpi="36"
   inkscape:export-ydpi="36"
   xmlns:inkscape="http://www.inkscape.org/namespaces/inkscape"
   xmlns:sodipodi="http://sodipodi.sourceforge.net/DTD/sodipodi-0.dtd"
   xmlns="http://www.w3.org/2000/svg"
   xmlns:svg="http://www.w3.org/2000/svg"
   xmlns:rdf="http://www.w3.org/1999/02/22-rdf-syntax-ns#"
   xmlns:cc="http://creativecommons.org/ns#"
   xmlns:dc="http://purl.org/dc/elements/1.1/">
  <defs
     id="defs2" />
  <sodipodi:namedview
     id="base"
     pagecolor="#ffffff"
     bordercolor="#666666"
     borderopacity="1.0"
     inkscape:pageopacity="0.0"
     inkscape:pageshadow="2"
     inkscape:zoom="16"
     inkscape:cx="18.90625"
     inkscape:cy="7.3125"
     inkscape:document-units="mm"
     inkscape:current-layer="layer1"
     showgrid="false"
     units="px"
     inkscape:window-width="1694"
     inkscape:window-height="1080"
     inkscape:window-x="1920"
     inkscape:window-y="273"
     inkscape:window-maximized="0"
     inkscape:snap-bbox="true"
     inkscape:bbox-paths="true"
     inkscape:bbox-nodes="true"
     inkscape:snap-bbox-edge-midpoints="true"
     inkscape:snap-bbox-midpoints="true"
     inkscape:snap-nodes="false"
     inkscape:pagecheckerboard="0">
    <sodipodi:guide
       position="8.4666666,0"
       orientation="-32,0"
       id="guide854"
       inkscape:locked="false" />
    <sodipodi:guide
       position="8.4666666,8.4666666"
       orientation="0,-32"
       id="guide856"
       inkscape:locked="false" />
    <sodipodi:guide
       position="0,8.4666814"
       orientation="32,0"
       id="guide858"
       inkscape:locked="false" />
  </sodipodi:namedview>
  <metadata
     id="metadata5">
    <rdf:RDF>
      <cc:Work
         rdf:about="">
        <dc:format>image/svg+xml</dc:format>
        <dc:type
           rdf:resource="http://purl.org/dc/dcmitype/StillImage" />
      </cc:Work>
    </rdf:RDF>
  </metadata>
  <g
     inkscape:label="Layer 1"
     inkscape:groupmode="layer"
     id="layer1"
     transform="translate(0,-288.53334)">
    <g
       id="g1260"
       transform="matrix(0.1020769,0,0,0.1020769,-0.87051179,287.62445)"
       style="fill:#ec1818;fill-opacity:1">
      <path
         id="path1258"
         d="M 91.17,81.374 91.176,81.37 91.037,81.13 C 90.969,81.002 90.903,80.873 90.821,80.755 L 53.131,15.472 c -0.611,-1.109 -1.776,-1.87 -3.133,-1.87 -1.47,0 -2.731,0.887 -3.285,2.153 L 46.709,15.753 9.312,80.529 9.348,80.55 c -0.505,0.618 -0.82,1.397 -0.82,2.257 0,1.982 1.607,3.59 3.588,3.59 v 0 h 75.767 v 0 c 1.982,0 3.589,-1.607 3.589,-3.589 0,-0.511 -0.11,-0.994 -0.302,-1.434 z M 50.035,79.617 c -2.874,0 -5.201,-2.257 -5.201,-5.13 0,-2.874 2.326,-5.2 5.201,-5.2 2.803,0 5.13,2.325 5.13,5.2 10e-4,2.873 -2.327,5.13 -5.13,5.13 z m 5.13,-45.367 v 28.299 h -0.002 c 0,0.005 0.002,0.01 0.002,0.016 0,1.173 -0.95,2.094 -2.094,2.094 -0.005,0 -0.009,-0.001 -0.014,-0.001 v 0.001 h -6.093 c -1.174,0 -2.123,-0.921 -2.123,-2.094 0,-0.005 0.002,-0.01 0.002,-0.016 H 44.841 V 34.326 C 44.84,34.3 44.833,34.275 44.833,34.249 c 0,-1.117 0.865,-1.996 1.935,-2.078 v -0.016 h 6.288 v 10e-4 c 1.149,0.007 2.074,0.897 2.103,2.039 h 0.005 v 0.053 0.002 c 0.002,0 10e-4,0 10e-4,0 z"
         inkscape:connector-curvature="0"
         style="fill:#ec1818;fill-opacity:1" />
    </g>
  </g>
</svg>
