<?xml version="1.0" encoding="UTF-8" standalone="no"?>
<!-- Created with Inkscape (http://www.inkscape.org/) -->

<svg
   width="32"
   height="32"
   viewBox="0 0 8.4666666 8.4666666"
   version="1.1"
   id="svg8"
   inkscape:version="1.1.1 (3bf5ae0d25, 2021-09-20)"
   sodipodi:docname="fatal.svg"
   inkscape:export-filename="D:\RxLab\src\RxOT\DuAEF\DuSan\inc\api\icons\w12_fatal.png"
   inkscape:export-xdpi="36"
   inkscape:export-ydpi="36"
   xmlns:inkscape="http://www.inkscape.org/namespaces/inkscape"
   xmlns:sodipodi="http://sodipodi.sourceforge.net/DTD/sodipodi-0.dtd"
   xmlns="http://www.w3.org/2000/svg"
   xmlns:svg="http://www.w3.org/2000/svg"
   xmlns:rdf="http://www.w3.org/1999/02/22-rdf-syntax-ns#"
   xmlns:cc="http://creativecommons.org/ns#"
   xmlns:dc="http://purl.org/dc/elements/1.1/">
  <defs
     id="defs2" />
  <sodipodi:namedview
     id="base"
     pagecolor="#ffffff"
     bordercolor="#666666"
     borderopacity="1.0"
     inkscape:pageopacity="0.0"
     inkscape:pageshadow="2"
     inkscape:zoom="16"
     inkscape:cx="19.46875"
     inkscape:cy="3.5625"
     inkscape:document-units="mm"
     inkscape:current-layer="g1260"
     showgrid="false"
     units="px"
     inkscape:window-width="1694"
     inkscape:window-height="1080"
     inkscape:window-x="1920"
     inkscape:window-y="273"
     inkscape:window-maximized="0"
     inkscape:snap-bbox="true"
     inkscape:bbox-paths="true"
     inkscape:bbox-nodes="true"
     inkscape:snap-bbox-edge-midpoints="true"
     inkscape:snap-bbox-midpoints="true"
     inkscape:snap-nodes="false"
     inkscape:pagecheckerboard="0">
    <sodipodi:guide
       position="8.4666666,0"
       orientation="-32,0"
       id="guide854"
       inkscape:locked="false" />
    <sodipodi:guide
       position="8.4666666,8.4666666"
       orientation="0,-32"
       id="guide856"
       inkscape:locked="false" />
    <sodipodi:guide
       position="0,8.4666814"
       orientation="32,0"
       id="guide858"
       inkscape:locked="false" />
  </sodipodi:namedview>
  <metadata
     id="metadata5">
    <rdf:RDF>
      <cc:Work
         rdf:about="">
        <dc:format>image/svg+xml</dc:format>
        <dc:type
           rdf:resource="http://purl.org/dc/dcmitype/StillImage" />
      </cc:Work>
    </rdf:RDF>
  </metadata>
  <g
     inkscape:label="Layer 1"
     inkscape:groupmode="layer"
     id="layer1"
     transform="translate(0,-288.53334)">
    <g
       id="g1260"
       transform="matrix(-0.1020769,0,0,-0.1020769,9.3371782,297.83204)"
       style="fill:#232323">
      <path
         style="fill:#a526c4;fill-opacity:1;stroke-width:0.385802"
         d="M 1.3847656,1.8125 C 0.62010518,1.8125 0,2.4326052 0,3.1972656 0,3.3944107 0.04311343,3.5802469 0.1171875,3.75 L 0.1132815,3.75195 0.167969,3.843747 C 0.1942036,3.89313 0.2203176,3.942754 0.2519534,3.9882782 L 14.792969,29.175781 c 0.235725,0.427855 0.683497,0.720703 1.207031,0.720703 0.56713,0 1.053844,-0.341652 1.267578,-0.830078 h 0.002 L 31.697266,4.0761719 31.683594,4.0683594 C 31.878424,3.8299335 32,3.5290557 32,3.1972656 32,2.4326052 31.379509,1.8125 30.615234,1.8125 Z M 14.753906,4.4277344 h 2.425782 c 0.443287,0.0027 0.799358,0.3465229 0.810546,0.7871094 h 0.002 v 0.021484 h 0.002 V 16.154297 h -0.002 c 0,0.0019 0.002,0.0035 0.002,0.0059 0,0.452547 -0.367236,0.808594 -0.808594,0.808594 -0.0019,0 -0.0039,0 -0.0059,0 h -2.34961 c -0.452932,0 -0.820312,-0.356047 -0.820312,-0.808594 0,-0.0019 0.002,-0.0035 0.002,-0.0059 h -0.002 V 5.265625 c -3.86e-4,-0.010031 -0.002,-0.019266 -0.002,-0.029297 0,-0.4309413 0.333286,-0.7710985 0.746094,-0.8027343 z m 1.259766,14.3261716 c 1.081404,0 1.980469,0.896678 1.980469,2.00586 3.85e-4,1.10841 -0.899065,1.978515 -1.980469,1.978515 -1.108796,0 -2.005859,-0.870105 -2.00586,-1.978515 0,-1.108797 0.896678,-2.00586 2.00586,-2.00586 z"
         transform="matrix(-2.5920001,0,0,-2.5920001,91.472,91.095047)"
         id="path1329"
         inkscape:connector-curvature="0" />
    </g>
  </g>
</svg>
