<svg id="Calque_1" data-name="Calque 1" xmlns="http://www.w3.org/2000/svg" viewBox="0 0 32 32"><title>icones</title><path d="M25.06,16.43l-1,1a.65.65,0,0,1-.45.2.69.69,0,0,1-.46-.2L15.39,9.65,7.62,17.42a.62.62,0,0,1-.91,0l-1-1a.62.62,0,0,1,0-.91l9.22-9.21a.65.65,0,0,1,.45-.2.69.69,0,0,1,.46.2l9.21,9.21a.62.62,0,0,1,0,.91Zm0,7.59-1,1a.65.65,0,0,1-.45.2.69.69,0,0,1-.46-.2l-7.77-7.77L7.62,25a.62.62,0,0,1-.91,0l-1-1a.61.61,0,0,1,0-.9l9.22-9.22a.65.65,0,0,1,.45-.2.69.69,0,0,1,.46.2l9.21,9.22a.61.61,0,0,1,0,.9Z" style="fill:#6d6d6d"/></svg>