<svg id="Calque_1" data-name="Calque 1" xmlns="http://www.w3.org/2000/svg" viewBox="0 0 32 32"><title>icones</title><path d="M25,15H13.09a7.45,7.45,0,0,0-5.18,2.39L3.09,23.06,3,23.15c0-.12,0-.24,0-.36V9A3.22,3.22,0,0,1,6.21,5.83h4.58A3.21,3.21,0,0,1,14,9v.45h7.8A3.23,3.23,0,0,1,25,12.7Zm4.47,3.58-4.82,5.67A5.61,5.61,0,0,1,20.88,26H5.29c-.51,0-1.24-.16-1.24-.8a1.53,1.53,0,0,1,.44-.95L9.3,18.58a5.65,5.65,0,0,1,3.79-1.75H28.68c.51,0,1.24.16,1.24.8A1.53,1.53,0,0,1,29.48,18.58Z" style="fill:#710132"/></svg>