<svg id="Calque_1" data-name="Calque 1" xmlns="http://www.w3.org/2000/svg" viewBox="0 0 32 32"><title>icones</title><path d="M15,13.45v9.62a.87.87,0,0,1-.87.87H1.87A.87.87,0,0,1,1,23.07V8.49a.87.87,0,0,1,.87-.87H9.16v5a.88.88,0,0,0,.88.88Zm-3.5,1.45a.28.28,0,0,0-.29-.29H4.79a.29.29,0,0,0-.29.29v.59a.29.29,0,0,0,.29.29H11.2a.28.28,0,0,0,.29-.29Zm0,2.34a.29.29,0,0,0-.29-.3H4.79a.29.29,0,0,0-.29.3v.58a.29.29,0,0,0,.29.29H11.2a.28.28,0,0,0,.29-.29Zm0,2.33a.28.28,0,0,0-.29-.29H4.79a.28.28,0,0,0-.29.29v.58a.29.29,0,0,0,.29.29H11.2a.28.28,0,0,0,.29-.29Zm3.14-7.29h-4.3V8a1.72,1.72,0,0,1,.33.26L14.37,12A1.81,1.81,0,0,1,14.63,12.28Z" style="fill:#710132"/><path d="M18,22a.27.27,0,0,1-.39,0l-.43-.42a.27.27,0,0,1,0-.39l3.34-3.33-3.34-3.34a.27.27,0,0,1,0-.39l.43-.42a.27.27,0,0,1,.39,0l3.95,4a.27.27,0,0,1,0,.39Zm13.11.47a.27.27,0,0,1-.27.27H22.7a.27.27,0,0,1-.27-.27V22a.27.27,0,0,1,.27-.27h8.15a.27.27,0,0,1,.27.27Z" style="fill:#710132"/></svg>