<?xml version="1.0" encoding="UTF-8" standalone="no"?>
<svg
   xmlns:dc="http://purl.org/dc/elements/1.1/"
   xmlns:cc="http://creativecommons.org/ns#"
   xmlns:rdf="http://www.w3.org/1999/02/22-rdf-syntax-ns#"
   xmlns:svg="http://www.w3.org/2000/svg"
   xmlns="http://www.w3.org/2000/svg"
   xmlns:sodipodi="http://sodipodi.sourceforge.net/DTD/sodipodi-0.dtd"
   xmlns:inkscape="http://www.inkscape.org/namespaces/inkscape"
   width="32"
   height="32"
   viewBox="0 0 8.4666666 8.4666666"
   version="1.1"
   id="svg8"
   inkscape:version="1.0.2-2 (e86c870879, 2021-01-15)"
   sodipodi:docname="animation.svg"
   inkscape:export-filename="D:\DEV_SRC\RxOT\DuAEF_Duik\icons/w16/w16_animation.png"
   inkscape:export-xdpi="48.000004"
   inkscape:export-ydpi="48.000004">
  <defs
     id="defs2" />
  <sodipodi:namedview
     id="base"
     pagecolor="#ffffff"
     bordercolor="#666666"
     borderopacity="1.0"
     inkscape:pageopacity="0.0"
     inkscape:pageshadow="2"
     inkscape:zoom="11.313709"
     inkscape:cx="11.94886"
     inkscape:cy="18.519267"
     inkscape:document-units="mm"
     inkscape:current-layer="svg8"
     showgrid="false"
     units="px"
     inkscape:window-width="1528"
     inkscape:window-height="1080"
     inkscape:window-x="3628"
     inkscape:window-y="72"
     inkscape:window-maximized="0"
     inkscape:document-rotation="0"
     inkscape:snap-bbox="true"
     inkscape:bbox-paths="true"
     inkscape:bbox-nodes="true"
     inkscape:snap-bbox-edge-midpoints="true"
     inkscape:snap-bbox-midpoints="true"
     inkscape:snap-nodes="false">
    <sodipodi:guide
       position="8.4666666,0"
       orientation="-32,0"
       id="guide854"
       inkscape:locked="false" />
    <sodipodi:guide
       position="8.4666666,8.4666666"
       orientation="0,-32"
       id="guide856"
       inkscape:locked="false" />
    <sodipodi:guide
       position="0,8.4666814"
       orientation="32,0"
       id="guide858"
       inkscape:locked="false" />
  </sodipodi:namedview>
  <metadata
     id="metadata5">
    <rdf:RDF>
      <cc:Work
         rdf:about="">
        <dc:format>image/svg+xml</dc:format>
        <dc:type
           rdf:resource="http://purl.org/dc/dcmitype/StillImage" />
        <dc:title />
      </cc:Work>
    </rdf:RDF>
  </metadata>
  <path
     style="color:#000000;font-style:normal;font-variant:normal;font-weight:normal;font-stretch:normal;font-size:medium;line-height:normal;font-family:sans-serif;font-variant-ligatures:normal;font-variant-position:normal;font-variant-caps:normal;font-variant-numeric:normal;font-variant-alternates:normal;font-feature-settings:normal;text-indent:0;text-align:start;text-decoration:none;text-decoration-line:none;text-decoration-style:solid;text-decoration-color:#000000;letter-spacing:normal;word-spacing:normal;text-transform:none;writing-mode:lr-tb;direction:ltr;text-orientation:mixed;dominant-baseline:auto;baseline-shift:baseline;text-anchor:start;white-space:normal;shape-padding:0;clip-rule:nonzero;display:inline;overflow:visible;visibility:visible;opacity:1;isolation:auto;mix-blend-mode:normal;color-interpolation:sRGB;color-interpolation-filters:linearRGB;solid-color:#000000;solid-opacity:1;vector-effect:none;fill:#232323;fill-opacity:1;fill-rule:nonzero;stroke:none;stroke-width:1.08945;stroke-linecap:butt;stroke-linejoin:miter;stroke-miterlimit:4;stroke-dasharray:none;stroke-dashoffset:2.75;stroke-opacity:1;color-rendering:auto;image-rendering:auto;shape-rendering:auto;text-rendering:auto;enable-background:accumulate"
     d="M 0.40810042,1.3493514 C 0.54196929,1.5109324 0.73066286,1.7543376 0.8917584,2.086354 1.2139495,2.7503869 1.4915446,3.7012728 1.7039968,4.6571625 2.128901,6.5689424 2.3053705,8.4667298 2.3053704,8.4667298 l 1.0778663,-2.659e-4 c 0,0 0.2067171,-0.9037903 0.723184,-2.02207 C 4.2567267,6.1189442 4.4357839,5.7907698 4.6366533,5.4760544 4.569274,5.4209557 4.504786,5.3626123 4.4431899,5.3010164 4.2290251,5.0868517 4.055771,4.8344239 3.9247291,4.5614546 3.5976823,5.027625 3.3333813,5.5217692 3.1181207,5.9878618 3.0667283,6.0991391 3.0924009,6.0902667 3.0464675,6.1987265 2.9462574,5.4878779 2.9666084,5.3141098 2.7680443,4.4207077 2.5457211,3.4204042 2.262054,2.4134851 1.8723814,1.6103731 1.677545,1.2088171 1.457241,0.85586361 1.1737643,0.5754986 1.032026,0.43531611 0.88919345,0.33577217 0.68228944,0.22367055 0.28706614,0.00953662 0.00982942,0.26187606 -7.9263238e-4,0.54748647 -0.01141468,0.83309687 0.24457795,1.1519782 0.40810042,1.3493514 Z M 6.353767,1.2940762 c -1.1577894,-10e-8 -2.0963631,0.9385737 -2.0963631,2.0963631 0,1.1577894 0.9385737,2.0963631 2.0963631,2.0963631 1.1577894,0 2.0963631,-0.9385737 2.0963631,-2.0963631 0,-1.1577894 -0.9385737,-2.0963632 -2.0963631,-2.0963631 z"
     id="path915"
     inkscape:connector-curvature="0"
     sodipodi:nodetypes="sssccscccscsssssssssss" />
</svg>
