<?xml version="1.0" encoding="UTF-8" standalone="no"?>
<!-- Created with Inkscape (http://www.inkscape.org/) -->

<svg
   width="32"
   height="32"
   viewBox="0 0 8.4666666 8.4666666"
   version="1.1"
   id="svg8"
   inkscape:version="1.1 (c68e22c387, 2021-05-23)"
   sodipodi:docname="audio.svg"
   inkscape:export-filename="D:\DEV_SRC\RxOT\DuAEF\DuAEF_Duik\inc\icons\w256\w256_audio.png"
   inkscape:export-xdpi="768"
   inkscape:export-ydpi="768"
   xmlns:inkscape="http://www.inkscape.org/namespaces/inkscape"
   xmlns:sodipodi="http://sodipodi.sourceforge.net/DTD/sodipodi-0.dtd"
   xmlns="http://www.w3.org/2000/svg"
   xmlns:svg="http://www.w3.org/2000/svg"
   xmlns:rdf="http://www.w3.org/1999/02/22-rdf-syntax-ns#"
   xmlns:cc="http://creativecommons.org/ns#"
   xmlns:dc="http://purl.org/dc/elements/1.1/">
  <defs
     id="defs2">
    <style
       id="style1399">.cls-1{fill:#e3e3e3;}</style>
  </defs>
  <sodipodi:namedview
     id="base"
     pagecolor="#ffffff"
     bordercolor="#666666"
     borderopacity="1.0"
     inkscape:pageopacity="0.0"
     inkscape:pageshadow="2"
     inkscape:zoom="11.313709"
     inkscape:cx="2.6074561"
     inkscape:cy="16.396038"
     inkscape:document-units="mm"
     inkscape:current-layer="svg8"
     showgrid="false"
     units="px"
     inkscape:window-width="1920"
     inkscape:window-height="1027"
     inkscape:window-x="-8"
     inkscape:window-y="-8"
     inkscape:window-maximized="1"
     inkscape:pagecheckerboard="1">
    <sodipodi:guide
       position="8.4666666,0"
       orientation="-32,0"
       id="guide854"
       inkscape:locked="false" />
    <sodipodi:guide
       position="8.4666666,8.4666666"
       orientation="0,-32"
       id="guide856"
       inkscape:locked="false" />
    <sodipodi:guide
       position="0,8.4666814"
       orientation="32,0"
       id="guide858"
       inkscape:locked="false" />
  </sodipodi:namedview>
  <metadata
     id="metadata5">
    <rdf:RDF>
      <cc:Work
         rdf:about="">
        <dc:format>image/svg+xml</dc:format>
        <dc:type
           rdf:resource="http://purl.org/dc/dcmitype/StillImage" />
        <dc:title />
      </cc:Work>
    </rdf:RDF>
  </metadata>
  <path
     id="path1124"
     d="M 3.8096151,1.0682836 2.2458993,2.6316482 h -1.793783 c -0.23305487,0 -0.42181859,0.1887638 -0.42181859,0.4218185 v 2.530911 c 0,0.2328791 0.18876372,0.4218185 0.42181859,0.4218185 h 1.793783 l 1.5637158,1.5633645 c 0.264164,0.2641641 0.7200793,0.078564 0.7200793,-0.2982608 V 1.3665444 c 0,-0.37717602 -0.4562669,-0.56207292 -0.7200793,-0.2982608 z m 4.6570516,3.2506385 c 0,-1.1165887 -0.563479,-2.1431894 -1.5074736,-2.7460381 -0.196673,-0.1254911 -0.4574973,-0.067139 -0.5821095,0.1311153 -0.1246122,0.1982546 -0.066437,0.460661 0.1302365,0.5863276 0.6986368,0.4462488 1.1157098,1.2044675 1.1157098,2.0285952 0,0.8241282 -0.417073,1.5823467 -1.1157098,2.0285955 C 6.3106471,6.4730088 6.2524714,6.735415 6.3770836,6.9338452 6.491502,7.11593 6.7482839,7.1999423 6.9591931,7.0649602 7.9031877,6.4621115 8.4666667,5.4356868 8.4666667,4.3189221 Z M 5.9749499,2.9678726 C 5.7714226,2.8566186 5.5146406,2.9299096 5.401804,3.1339639 5.2894953,3.3380184 5.3638411,3.594449 5.5678951,3.7071095 c 0.2269034,0.1246123 0.3678608,0.3592489 0.3678608,0.6118126 0,0.2527397 -0.1409574,0.4872006 -0.3676848,0.6118127 -0.2040548,0.1126612 -0.2784003,0.369091 -0.1660913,0.5731461 0.1130121,0.2049332 0.36997,0.2776968 0.5731461,0.1660908 0.4961638,-0.2733032 0.804443,-0.7909097 0.804443,-1.3512254 0,-0.5603154 -0.3082792,-1.077746 -0.804619,-1.3508737 z"
     inkscape:connector-curvature="0"
     style="stroke-width:0.01757578;fill:#b1b1b1;fill-opacity:1"
     sodipodi:nodetypes="ccssssccsscscscscccscccscccsc"
     inkscape:export-filename="D:\DEV_SRC\RxOT\DuAEF\DuAEF_Duik\inc\icons\w16\w16_audio.png"
     inkscape:export-xdpi="48"
     inkscape:export-ydpi="48" />
</svg>
