<?xml version="1.0" encoding="UTF-8" standalone="no"?>
<svg
   xmlns:dc="http://purl.org/dc/elements/1.1/"
   xmlns:cc="http://creativecommons.org/ns#"
   xmlns:rdf="http://www.w3.org/1999/02/22-rdf-syntax-ns#"
   xmlns:svg="http://www.w3.org/2000/svg"
   xmlns="http://www.w3.org/2000/svg"
   xmlns:sodipodi="http://sodipodi.sourceforge.net/DTD/sodipodi-0.dtd"
   xmlns:inkscape="http://www.inkscape.org/namespaces/inkscape"
   width="32"
   height="32"
   viewBox="0 0 8.4666666 8.4666666"
   version="1.1"
   id="svg8"
   inkscape:version="1.0.2-2 (e86c870879, 2021-01-15)"
   sodipodi:docname="bug.svg"
   inkscape:export-filename="D:\DEV_SRC\RxOT\DuAEF\src\DuESF\icons\w16\w16_bug.png"
   inkscape:export-xdpi="48.000004"
   inkscape:export-ydpi="48.000004">
  <defs
     id="defs2" />
  <sodipodi:namedview
     id="base"
     pagecolor="#ffffff"
     bordercolor="#666666"
     borderopacity="1.0"
     inkscape:pageopacity="0.0"
     inkscape:pageshadow="2"
     inkscape:zoom="8.0000001"
     inkscape:cx="6.2410388"
     inkscape:cy="17.568674"
     inkscape:document-units="mm"
     inkscape:current-layer="svg8"
     showgrid="false"
     units="px"
     inkscape:window-width="1767"
     inkscape:window-height="1127"
     inkscape:window-x="2303"
     inkscape:window-y="274"
     inkscape:window-maximized="0"
     inkscape:document-rotation="0">
    <sodipodi:guide
       position="8.4666666,0"
       orientation="-32,0"
       id="guide854"
       inkscape:locked="false" />
    <sodipodi:guide
       position="8.4666666,8.4666666"
       orientation="0,-32"
       id="guide856"
       inkscape:locked="false" />
    <sodipodi:guide
       position="0,8.4666814"
       orientation="32,0"
       id="guide858"
       inkscape:locked="false" />
  </sodipodi:namedview>
  <metadata
     id="metadata5">
    <rdf:RDF>
      <cc:Work
         rdf:about="">
        <dc:format>image/svg+xml</dc:format>
        <dc:type
           rdf:resource="http://purl.org/dc/dcmitype/StillImage" />
        <dc:title></dc:title>
      </cc:Work>
    </rdf:RDF>
  </metadata>
  <path
     id="path1061"
     d="M 8.4666667,4.77551 C 8.4587867,5.06362 8.2151301,5.28959 7.9269135,5.28959 H 7.0122276 v 0.26448 c 0,0.36141 -0.080699,0.70391 -0.2248073,1.01073 l 0.9955666,0.99556 c 0.2065589,0.20658 0.2065589,0.54149 0,0.74807 -0.2065914,0.20657 -0.5415049,0.20656 -0.7480801,0 L 6.1301223,7.40364 C 5.7210055,7.73544 5.1997329,7.93438 4.6319119,7.93438 V 3.90107 c 0,-0.10954 -0.088816,-0.19835 -0.1983596,-0.19835 H 4.0368329 c -0.109544,0 -0.1983596,0.0888 -0.1983596,0.19835 V 7.93438 C 3.2706524,7.93438 2.7493798,7.73544 2.340263,7.40364 L 1.4354786,8.30843 c -0.2065917,0.20657 -0.54150533,0.20656 -0.74808032,0 -0.20655858,-0.20658 -0.20655858,-0.54149 0,-0.74807 L 1.6829653,6.5648 C 1.538857,6.25798 1.4581577,5.91548 1.4581577,5.55407 V 5.28959 H 0.54348829 c -0.28821659,0 -0.53185183,-0.22597 -0.5397531,-0.51408 -0.008216,-0.29894 0.2316675,-0.54384 0.52874417,-0.54384 H 1.4581577 V 3.26062 L 0.68739828,2.48986 c -0.20655858,-0.20658 -0.20655858,-0.54149 0,-0.74806 0.20659159,-0.20657 0.54148862,-0.20657 0.74808032,0 L 2.3384612,2.64479 H 6.1319074 L 7.0348906,1.74181 c 0.2065914,-0.20657 0.5414887,-0.20657 0.7480801,0 0.2065584,0.20658 0.2065584,0.54149 0,0.74807 L 7.0122276,3.26062 v 0.97105 h 0.9256786 c 0.2970764,0 0.5369593,0.2449 0.5287605,0.54384 z M 4.2517226,0 C 3.2292448,0 2.4003659,0.82888 2.4003659,1.85135 H 6.1030792 C 6.1030792,0.82888 5.2742004,0 4.2517226,0 Z"
     inkscape:connector-curvature="0"
     style="fill:#b1b1b1;fill-opacity:1;stroke-width:0.01652997" />
</svg>
