<?xml version="1.0" encoding="UTF-8" standalone="no"?>
<!-- Created with Inkscape (http://www.inkscape.org/) -->

<svg
   width="32"
   height="32"
   viewBox="0 0 8.4666666 8.4666666"
   version="1.1"
   id="svg8"
   inkscape:version="1.1.1 (3bf5ae0d25, 2021-09-20)"
   sodipodi:docname="comp_baker.svg"
   inkscape:export-filename="D:\RxLab\src\RxOT\DuAEF\DuAEF_Duik\inc\icons\w12\w12_comp_baker.png"
   inkscape:export-xdpi="36"
   inkscape:export-ydpi="36"
   xmlns:inkscape="http://www.inkscape.org/namespaces/inkscape"
   xmlns:sodipodi="http://sodipodi.sourceforge.net/DTD/sodipodi-0.dtd"
   xmlns="http://www.w3.org/2000/svg"
   xmlns:svg="http://www.w3.org/2000/svg"
   xmlns:rdf="http://www.w3.org/1999/02/22-rdf-syntax-ns#"
   xmlns:cc="http://creativecommons.org/ns#"
   xmlns:dc="http://purl.org/dc/elements/1.1/">
  <defs
     id="defs2">
    <style
       id="style1399">.cls-1{fill:#e3e3e3;}</style>
    <linearGradient
       id="Neutral__dark_"
       inkscape:swatch="solid">
      <stop
         style="stop-color:#232323;stop-opacity:1;"
         offset="0"
         id="stop832" />
    </linearGradient>
    <linearGradient
       id="linearGradient1363"
       inkscape:swatch="solid">
      <stop
         style="stop-color:#84b330;stop-opacity:1;"
         offset="0"
         id="stop1361" />
    </linearGradient>
    <style
       id="style1399-1">.cls-1{fill:#e3e3e3;}</style>
    <style
       id="style857">.cls-1{fill:#e52120;}.cls-1,.cls-2,.cls-3,.cls-4,.cls-5{stroke:#000;stroke-miterlimit:10;stroke-width:1.2px;}.cls-2{fill:#6dbc88;}.cls-3{fill:#701034;}.cls-4{fill:#51aae0;}.cls-5{fill:none;}</style>
    <style
       id="style857-2">.cls-1{fill:#e52120;}.cls-1,.cls-2,.cls-3,.cls-4,.cls-5{stroke:#000;stroke-miterlimit:10;stroke-width:1.2px;}.cls-2{fill:#6dbc88;}.cls-3{fill:#701034;}.cls-4{fill:#51aae0;}.cls-5{fill:none;}</style>
    <style
       id="style1399-7">.cls-1{fill:#e3e3e3;}</style>
    <style
       id="style1399-2">.cls-1{fill:#e3e3e3;}</style>
    <style
       id="style1399-8">.cls-1{fill:#e3e3e3;}</style>
    <style
       id="style1399-9">.cls-1{fill:#e3e3e3;}</style>
  </defs>
  <sodipodi:namedview
     id="base"
     pagecolor="#ffffff"
     bordercolor="#666666"
     borderopacity="1.0"
     inkscape:pageopacity="0.0"
     inkscape:pageshadow="2"
     inkscape:zoom="11.313709"
     inkscape:cx="0.57452423"
     inkscape:cy="8.7062519"
     inkscape:document-units="mm"
     inkscape:current-layer="svg8"
     showgrid="false"
     units="px"
     inkscape:window-width="3378"
     inkscape:window-height="1417"
     inkscape:window-x="1974"
     inkscape:window-y="-8"
     inkscape:window-maximized="1"
     inkscape:snap-bbox="true"
     inkscape:bbox-nodes="true"
     inkscape:bbox-paths="true"
     inkscape:snap-bbox-edge-midpoints="true"
     inkscape:snap-bbox-midpoints="true"
     inkscape:snap-nodes="false"
     inkscape:pagecheckerboard="1">
    <sodipodi:guide
       position="8.4666666,0"
       orientation="-32,0"
       id="guide854"
       inkscape:locked="false" />
    <sodipodi:guide
       position="8.4666666,8.4666666"
       orientation="0,-32"
       id="guide856"
       inkscape:locked="false" />
    <sodipodi:guide
       position="0,8.4666814"
       orientation="32,0"
       id="guide858"
       inkscape:locked="false" />
  </sodipodi:namedview>
  <metadata
     id="metadata5">
    <rdf:RDF>
      <cc:Work
         rdf:about="">
        <dc:format>image/svg+xml</dc:format>
        <dc:type
           rdf:resource="http://purl.org/dc/dcmitype/StillImage" />
      </cc:Work>
    </rdf:RDF>
  </metadata>
  <path
     id="path1222"
     style="fill:#232323;fill-opacity:1;stroke-width:0.0625"
     d="M 1.5 3.9433594 C 0.66875283 3.9433594 -1.4802974e-16 4.6121094 0 5.4433594 L 0 26.443359 C 0 27.27461 0.66875283 27.943359 1.5 27.943359 L 2 27.943359 L 2 26.693359 C 2 26.28086 2.3375095 25.943359 2.75 25.943359 L 5.25 25.943359 C 5.6625018 25.943359 6 26.280861 6 26.693359 L 6 27.943359 L 26 27.943359 L 26 26.693359 C 26 26.28086 26.337507 25.943359 26.75 25.943359 L 29.25 25.943359 C 29.662498 25.943359 30 26.280861 30 26.693359 L 30 27.943359 L 30.5 27.943359 C 31.331247 27.943359 32 27.27461 32 26.443359 L 32 5.4433594 C 32 4.6121094 31.331247 3.9433594 30.5 3.9433594 L 30 3.9433594 L 30 5.1933594 C 30 5.6058597 29.66249 5.9433594 29.25 5.9433594 L 26.75 5.9433594 C 26.337502 5.9433594 26 5.6058597 26 5.1933594 L 26 3.9433594 L 6 3.9433594 L 6 5.1933594 C 6 5.6058597 5.6624935 5.9433594 5.25 5.9433594 L 2.75 5.9433594 C 2.337502 5.9433594 2 5.6058597 2 5.1933594 L 2 3.9433594 L 1.5 3.9433594 z M 12.367188 6.3417969 L 17.71875 6.3417969 C 18.302128 6.3417969 18.72871 6.9000542 18.580078 7.4648438 L 16.998047 12.287109 L 21.285156 12.287109 C 21.972576 12.287109 22.400255 13.034191 22.054688 13.625 L 15.515625 24.921875 C 15.35213 25.204191 15.054308 25.367188 14.742188 25.367188 C 14.17367 25.367187 13.743188 24.836273 13.876953 24.271484 L 15.589844 17.044922 L 11.179688 17.044922 C 10.640901 17.044922 10.224324 16.568264 10.294922 16.033203 L 11.484375 7.1152344 C 11.543827 6.6730417 11.921296 6.3417969 12.367188 6.3417969 z M 2.75 7.9433594 L 5.25 7.9433594 C 5.6625018 7.9433594 6 8.2808595 6 8.6933594 L 6 11.193359 C 6 11.60586 5.6624935 11.943359 5.25 11.943359 L 2.75 11.943359 C 2.337502 11.943359 2 11.605859 2 11.193359 L 2 8.6933594 C 2 8.2808591 2.3375095 7.9433594 2.75 7.9433594 z M 26.75 7.9433594 L 29.25 7.9433594 C 29.662498 7.9433594 30 8.2808595 30 8.6933594 L 30 11.193359 C 30 11.60586 29.66249 11.943359 29.25 11.943359 L 26.75 11.943359 C 26.337502 11.943359 26 11.605859 26 11.193359 L 26 8.6933594 C 26 8.2808591 26.337507 7.9433594 26.75 7.9433594 z M 2.75 13.943359 L 5.25 13.943359 C 5.6625018 13.943359 6 14.28086 6 14.693359 L 6 17.193359 C 6 17.605859 5.6624935 17.943359 5.25 17.943359 L 2.75 17.943359 C 2.337502 17.943359 2 17.605859 2 17.193359 L 2 14.693359 C 2 14.280859 2.3375095 13.943359 2.75 13.943359 z M 26.75 13.943359 L 29.25 13.943359 C 29.662498 13.943359 30 14.28086 30 14.693359 L 30 17.193359 C 30 17.605859 29.66249 17.943359 29.25 17.943359 L 26.75 17.943359 C 26.337502 17.943359 26 17.605859 26 17.193359 L 26 14.693359 C 26 14.280859 26.337507 13.943359 26.75 13.943359 z M 2.75 19.943359 L 5.25 19.943359 C 5.6625018 19.943359 6 20.280861 6 20.693359 L 6 23.193359 C 6 23.605859 5.6624935 23.943359 5.25 23.943359 L 2.75 23.943359 C 2.337502 23.943359 2 23.605858 2 23.193359 L 2 20.693359 C 2 20.28086 2.3375095 19.943359 2.75 19.943359 z M 26.75 19.943359 L 29.25 19.943359 C 29.662498 19.943359 30 20.280861 30 20.693359 L 30 23.193359 C 30 23.605859 29.66249 23.943359 29.25 23.943359 L 26.75 23.943359 C 26.337502 23.943359 26 23.605858 26 23.193359 L 26 20.693359 C 26 20.28086 26.337507 19.943359 26.75 19.943359 z "
     transform="scale(0.26458333)" />
  <style
     id="style815"
     type="text/css">
	.st0{fill:#00005B;}
	.st1{fill:#9999FF;}
</style>
  <style
     id="style815-2"
     type="text/css">
	.st0{fill:#00005B;}
	.st1{fill:#9999FF;}
</style>
</svg>
