<?xml version="1.0" encoding="UTF-8" standalone="no"?>
<!-- Created with Inkscape (http://www.inkscape.org/) -->

<svg
   width="32"
   height="32"
   viewBox="0 0 8.4666666 8.4666666"
   version="1.1"
   id="svg8"
   inkscape:version="1.1.1 (3bf5ae0d25, 2021-09-20)"
   sodipodi:docname="expression_baker.svg"
   inkscape:export-filename="D:\RxLab\src\RxOT\DuAEF_Duik\icons\w12\w12_expression.png"
   inkscape:export-xdpi="36.000004"
   inkscape:export-ydpi="36.000004"
   xmlns:inkscape="http://www.inkscape.org/namespaces/inkscape"
   xmlns:sodipodi="http://sodipodi.sourceforge.net/DTD/sodipodi-0.dtd"
   xmlns="http://www.w3.org/2000/svg"
   xmlns:svg="http://www.w3.org/2000/svg"
   xmlns:rdf="http://www.w3.org/1999/02/22-rdf-syntax-ns#"
   xmlns:cc="http://creativecommons.org/ns#"
   xmlns:dc="http://purl.org/dc/elements/1.1/">
  <defs
     id="defs2">
    <style
       id="style1399">.cls-1{fill:#e3e3e3;}</style>
    <linearGradient
       id="Neutral__dark_"
       inkscape:swatch="solid">
      <stop
         style="stop-color:#232323;stop-opacity:1;"
         offset="0"
         id="stop832" />
    </linearGradient>
    <linearGradient
       id="linearGradient1363"
       inkscape:swatch="solid">
      <stop
         style="stop-color:#84b330;stop-opacity:1;"
         offset="0"
         id="stop1361" />
    </linearGradient>
    <style
       id="style1399-70">.cls-1{fill:#e3e3e3;}</style>
    <style
       id="style857">.cls-1{fill:#e52120;}.cls-1,.cls-2,.cls-3,.cls-4,.cls-5{stroke:#000;stroke-miterlimit:10;stroke-width:1.2px;}.cls-2{fill:#6dbc88;}.cls-3{fill:#701034;}.cls-4{fill:#51aae0;}.cls-5{fill:none;}</style>
    <style
       id="style857-2">.cls-1{fill:#e52120;}.cls-1,.cls-2,.cls-3,.cls-4,.cls-5{stroke:#000;stroke-miterlimit:10;stroke-width:1.2px;}.cls-2{fill:#6dbc88;}.cls-3{fill:#701034;}.cls-4{fill:#51aae0;}.cls-5{fill:none;}</style>
    <style
       id="style1399-7">.cls-1{fill:#e3e3e3;}</style>
    <style
       id="style1399-2">.cls-1{fill:#e3e3e3;}</style>
    <style
       id="style1399-8">.cls-1{fill:#e3e3e3;}</style>
    <style
       id="style1399-9">.cls-1{fill:#e3e3e3;}</style>
  </defs>
  <sodipodi:namedview
     id="base"
     pagecolor="#ffffff"
     bordercolor="#666666"
     borderopacity="1.0"
     inkscape:pageopacity="0.0"
     inkscape:pageshadow="2"
     inkscape:zoom="16"
     inkscape:cx="2.84375"
     inkscape:cy="18.21875"
     inkscape:document-units="mm"
     inkscape:current-layer="svg8"
     showgrid="false"
     units="px"
     inkscape:window-width="3378"
     inkscape:window-height="1417"
     inkscape:window-x="1974"
     inkscape:window-y="-8"
     inkscape:window-maximized="1"
     inkscape:pagecheckerboard="1">
    <sodipodi:guide
       position="8.4666666,0"
       orientation="-32,0"
       id="guide854"
       inkscape:locked="false" />
    <sodipodi:guide
       position="8.4666666,8.4666666"
       orientation="0,-32"
       id="guide856"
       inkscape:locked="false" />
    <sodipodi:guide
       position="0,8.4666814"
       orientation="32,0"
       id="guide858"
       inkscape:locked="false" />
  </sodipodi:namedview>
  <metadata
     id="metadata5">
    <rdf:RDF>
      <cc:Work
         rdf:about="">
        <dc:format>image/svg+xml</dc:format>
        <dc:type
           rdf:resource="http://purl.org/dc/dcmitype/StillImage" />
      </cc:Work>
    </rdf:RDF>
  </metadata>
  <path
     inkscape:connector-curvature="0"
     id="path884"
     style="font-style:normal;font-variant:normal;font-weight:bold;font-stretch:normal;font-size:10.58333302px;line-height:1.25;font-family:'Courier Prime Sans';-inkscape-font-specification:'Courier Prime Sans, Bold';font-variant-ligatures:normal;font-variant-caps:normal;font-variant-numeric:normal;font-feature-settings:normal;text-align:start;letter-spacing:0px;word-spacing:0px;writing-mode:lr-tb;text-anchor:start;fill:#232323;fill-opacity:1;stroke:none;stroke-width:0.21367191"
     d="m 3.2183413,0.61934832 q 0.1460648,0 0.2044907,0.0918121 0.058426,0.0876389 0.058426,0.34638228 0,0.1919709 -0.02504,0.2879563 -0.02504,0.095985 -0.083466,0.1293716 -0.054252,0.033386 -0.1544113,0.033386 -0.3839417,0 -0.6009523,0.079292 -0.2170105,0.079292 -0.3129959,0.2462235 -0.091812,0.1627579 -0.091812,0.4423676 0,0.075119 0.00418,0.1168519 l 0.020866,0.4048081 0.00418,0.1085053 q 0,0.4381943 -0.2253571,0.7261506 -0.2253571,0.283783 -0.7386705,0.4298478 v 0.041732 q 0.5133134,0.1418916 0.7428438,0.4298479 0.2337037,0.2879562 0.2337037,0.7136308 0,0.083466 -0.00418,0.1251983 l -0.03756,0.5466997 q -0.00418,0.05008 -0.00418,0.150238 0,0.2796098 0.095985,0.446541 0.095986,0.1669312 0.3171693,0.2462235 0.2211838,0.083465 0.596779,0.083465 0.1001587,0 0.1544113,0.029213 0.058426,0.033386 0.083466,0.1293717 0.02504,0.095986 0.02504,0.2879563 0,0.2587433 -0.058426,0.3505555 -0.058426,0.091812 -0.2044908,0.091812 -1.0474931,0 -1.55246,-0.3714218 -0.5049661,-0.3672467 -0.5049661,-1.1434766 0,-0.1210252 0.01252,-0.2503968 l 0.054252,-0.5967791 q 0.00418,-0.033386 0.00418,-0.1001586 0,-0.3547288 -0.25039671,-0.5466996 -0.24622813,-0.1961442 -0.71363544,-0.1961442 -0.10015871,0 -0.15441135,-0.033386 -0.05425263,-0.03756 -0.08346559,-0.133545 -0.0250397,-0.095986 -0.0250397,-0.2796098 0,-0.1836243 0.0250397,-0.2754364 0.02921296,-0.095985 0.08346559,-0.1293717 0.0542526,-0.03756 0.15441135,-0.03756 0.46740731,0 0.70528427,-0.1919709 Q 1.2151685,3.2568608 1.2151685,2.902132 q 0,-0.066772 -0.00418,-0.104332 L 1.169261,2.3429128 q -0.01252,-0.1251984 -0.01252,-0.2420502 0,-0.7553636 0.5049668,-1.11843897 0.5049669,-0.36307531 1.5566335,-0.36307531 z" />
  <path
     inkscape:connector-curvature="0"
     id="path888"
     style="font-style:normal;font-variant:normal;font-weight:bold;font-stretch:normal;font-size:10.58333302px;line-height:1.25;font-family:'Courier Prime Sans';-inkscape-font-specification:'Courier Prime Sans, Bold';font-variant-ligatures:normal;font-variant-caps:normal;font-variant-numeric:normal;font-feature-settings:normal;text-align:start;letter-spacing:0px;word-spacing:0px;writing-mode:lr-tb;text-anchor:start;fill:#232323;fill-opacity:1;stroke:none;stroke-width:0.21367191"
     d="m 5.2324076,0.61934832 q 1.0516664,0 1.5566334,0.36307531 0.504967,0.36307537 0.504967,1.11843897 0,0.1168518 -0.012517,0.2420502 L 7.239755,2.7978003 q -0.0042,0.03756 -0.0042,0.1043319 0,0.3547288 0.2378773,0.5466997 0.2420499,0.1919709 0.7094572,0.1919709 0.1001586,0 0.1544117,0.03756 0.054253,0.033386 0.079296,0.1293717 0.02921,0.091812 0.02921,0.2754364 0,0.1836243 -0.02921,0.2796098 -0.025043,0.095985 -0.079296,0.1335449 -0.054253,0.033386 -0.1544117,0.033386 -0.4674073,0 -0.7178044,0.1961442 -0.2462235,0.1919707 -0.2462235,0.5466995 0,0.066772 0.0042,0.1001587 l 0.054253,0.596779 q 0.012517,0.1293717 0.012517,0.2503968 0,0.77623 -0.5049662,1.1434786 -0.5049669,0.3714219 -1.5524606,0.3714219 -0.1460644,0 -0.2044903,-0.091812 -0.058428,-0.091812 -0.058428,-0.3505556 0,-0.1919708 0.025043,-0.2879562 0.025043,-0.095985 0.079288,-0.1293717 0.058428,-0.029213 0.1585843,-0.029213 0.3755952,0 0.596779,-0.083466 0.2211837,-0.079292 0.3171693,-0.2462236 0.095986,-0.1669311 0.095986,-0.4465409 0,-0.1001587 -0.0042,-0.150238 l -0.03756,-0.5466998 q -0.0042,-0.041732 -0.0042,-0.1251984 0,-0.4256745 0.2295301,-0.7136307 Q 6.6596097,4.2459281 7.1729231,4.1040365 V 4.062304 Q 6.6596693,3.9162392 6.4343128,3.6324562 6.2089555,3.3444999 6.2089555,2.9063056 l 0.0042,-0.1085053 0.020868,-0.4048081 q 0.0042,-0.041733 0.0042,-0.1168519 0,-0.2796097 -0.095985,-0.4423676 Q 6.0504245,1.6668415 5.8334143,1.5875492 5.6164041,1.5082569 5.2324617,1.5082569 q -0.1001583,0 -0.1585842,-0.033386 -0.054253,-0.033386 -0.079288,-0.1293716 -0.025043,-0.095985 -0.025043,-0.2879563 0,-0.25874338 0.058428,-0.34638227 0.058428,-0.0918121 0.2044903,-0.0918121 z" />
  <path
     id="path834"
     d="M 5.4539414,3.436894 H 4.4945675 L 4.8487211,2.3578079 C 4.881975,2.2314453 4.7863702,2.1067418 4.6558486,2.1067418 H 3.4587097 c -0.099761,0 -0.1845588,0.073987 -0.1978604,0.1729209 L 2.9948184,4.2748935 c -0.015795,0.1197113 0.077316,0.2261253 0.1978605,0.2261253 H 4.1794872 L 3.7962364,6.1179915 c -0.029928,0.1263625 0.066507,0.2452444 0.1937038,0.2452444 0.069834,0 0.1363407,-0.0366 0.1729201,-0.099763 L 5.6260301,3.7361824 C 5.7033454,3.6039982 5.6077406,3.436894 5.4539414,3.436894 Z"
     inkscape:connector-curvature="0"
     style="fill:#232323;fill-opacity:1;stroke-width:0.00831349"
     inkscape:export-filename="D:\DEV_SRC\RxOT\DuAEF\DuAEF_Duik\icons\w16\w16_quick.png"
     inkscape:export-xdpi="48"
     inkscape:export-ydpi="48" />
  <style
     id="style815"
     type="text/css">
	.st0{fill:#00005B;}
	.st1{fill:#9999FF;}
</style>
  <style
     id="style815-2"
     type="text/css">
	.st0{fill:#00005B;}
	.st1{fill:#9999FF;}
</style>
</svg>
