<?xml version="1.0" encoding="UTF-8" standalone="no"?>
<svg
   xmlns:dc="http://purl.org/dc/elements/1.1/"
   xmlns:cc="http://creativecommons.org/ns#"
   xmlns:rdf="http://www.w3.org/1999/02/22-rdf-syntax-ns#"
   xmlns:svg="http://www.w3.org/2000/svg"
   xmlns="http://www.w3.org/2000/svg"
   xmlns:sodipodi="http://sodipodi.sourceforge.net/DTD/sodipodi-0.dtd"
   xmlns:inkscape="http://www.inkscape.org/namespaces/inkscape"
   width="32"
   height="32"
   viewBox="0 0 8.4666666 8.4666666"
   version="1.1"
   id="svg8"
   inkscape:version="1.0.2-2 (e86c870879, 2021-01-15)"
   sodipodi:docname="help.svg"
   inkscape:export-filename="D:\DEV_SRC\RxOT\DuAEF\src\DuESF\icons\w12\w12_help.png"
   inkscape:export-xdpi="36"
   inkscape:export-ydpi="36">
  <defs
     id="defs2" />
  <sodipodi:namedview
     id="base"
     pagecolor="#ffffff"
     bordercolor="#666666"
     borderopacity="1.0"
     inkscape:pageopacity="0.0"
     inkscape:pageshadow="2"
     inkscape:zoom="5.6568543"
     inkscape:cx="-14.569548"
     inkscape:cy="20.49582"
     inkscape:document-units="mm"
     inkscape:current-layer="layer1"
     showgrid="false"
     units="px"
     inkscape:window-width="1858"
     inkscape:window-height="1057"
     inkscape:window-x="-5"
     inkscape:window-y="-1"
     inkscape:window-maximized="1"
     inkscape:document-rotation="0">
    <sodipodi:guide
       position="8.4666666,0"
       orientation="-32,0"
       id="guide854"
       inkscape:locked="false" />
    <sodipodi:guide
       position="8.4666666,8.4666666"
       orientation="0,-32"
       id="guide856"
       inkscape:locked="false" />
    <sodipodi:guide
       position="0,8.4666814"
       orientation="32,0"
       id="guide858"
       inkscape:locked="false" />
  </sodipodi:namedview>
  <metadata
     id="metadata5">
    <rdf:RDF>
      <cc:Work
         rdf:about="">
        <dc:format>image/svg+xml</dc:format>
        <dc:type
           rdf:resource="http://purl.org/dc/dcmitype/StillImage" />
        <dc:title />
      </cc:Work>
    </rdf:RDF>
  </metadata>
  <g
     inkscape:label="Layer 1"
     inkscape:groupmode="layer"
     id="layer1"
     transform="translate(0,-288.53334)">
    <path
       id="path935"
       d="m 4.3948085,288.53334 c -1.3213017,0 -2.1771126,0.54136 -2.8490119,1.50682 -0.1218852,0.17514 -0.084308,0.41527 0.085715,0.54419 l 0.7140945,0.54145 c 0.1717118,0.1302 0.4160283,0.0998 0.5504613,-0.0687 0.4146542,-0.51947 0.7222391,-0.81857 1.3699363,-0.81857 0.5092592,0 1.1391616,0.32775 1.1391616,0.82158 0,0.37332 -0.3081809,0.56504 -0.8110172,0.84696 -0.5863822,0.32875 -1.3623548,0.73789 -1.3623548,1.7614 v 0.16202 c 0,0.21942 0.1778699,0.39729 0.3972892,0.39729 h 1.1996655 c 0.2194193,0 0.3972894,-0.17787 0.3972894,-0.39729 v -0.0956 c 0,-0.70949 2.0736523,-0.73905 2.0736523,-2.65898 1.64e-5,-1.44586 -1.4997846,-2.54265 -2.9048814,-2.54265 z m -0.1658846,6.18214 c -0.6322863,0 -1.146693,0.5144 -1.146693,1.14669 0,0.63227 0.5144067,1.14668 1.146693,1.14668 0.6322859,0 1.1466933,-0.51441 1.1466933,-1.14669 0,-0.63229 -0.5144074,-1.14668 -1.1466933,-1.14668 z"
       inkscape:connector-curvature="0"
       style="stroke-width:0.01655373;fill:#b1b1b1;fill-opacity:1" />
  </g>
</svg>
