<?xml version="1.0" encoding="UTF-8" standalone="no"?>
<!-- Created with Inkscape (http://www.inkscape.org/) -->

<svg
   width="32"
   height="32"
   viewBox="0 0 8.4666666 8.4666666"
   version="1.1"
   id="svg8"
   inkscape:version="1.1.1 (3bf5ae0d25, 2021-09-20)"
   sodipodi:docname="ik_fk_switch.svg"
   inkscape:export-filename="D:\RxLab\src\RxOT\DuAEF\Duik\inc\icons\w16\w16_ik_fk_switch.png"
   inkscape:export-xdpi="48"
   inkscape:export-ydpi="48"
   xmlns:inkscape="http://www.inkscape.org/namespaces/inkscape"
   xmlns:sodipodi="http://sodipodi.sourceforge.net/DTD/sodipodi-0.dtd"
   xmlns="http://www.w3.org/2000/svg"
   xmlns:svg="http://www.w3.org/2000/svg"
   xmlns:rdf="http://www.w3.org/1999/02/22-rdf-syntax-ns#"
   xmlns:cc="http://creativecommons.org/ns#"
   xmlns:dc="http://purl.org/dc/elements/1.1/">
  <defs
     id="defs2">
    <style
       id="style1399">.cls-1{fill:#e3e3e3;}</style>
    <style
       id="style1399-4">.cls-1{fill:#e3e3e3;}</style>
    <style
       id="style1399-8">.cls-1{fill:#e3e3e3;}</style>
    <style
       id="style1399-4-5">.cls-1{fill:#e3e3e3;}</style>
    <style
       id="style1399-0">.cls-1{fill:#e3e3e3;}</style>
    <style
       id="style1399-87">.cls-1{fill:#e3e3e3;}</style>
    <style
       id="style1399-4-2">.cls-1{fill:#e3e3e3;}</style>
    <style
       id="style1399-8-8">.cls-1{fill:#e3e3e3;}</style>
    <style
       id="style1399-4-5-3">.cls-1{fill:#e3e3e3;}</style>
    <style
       id="style1399-0-8">.cls-1{fill:#e3e3e3;}</style>
    <style
       id="style1399-46">.cls-1{fill:#e3e3e3;}</style>
  </defs>
  <sodipodi:namedview
     id="base"
     pagecolor="#ffffff"
     bordercolor="#666666"
     borderopacity="1.0"
     inkscape:pageopacity="0.0"
     inkscape:pageshadow="2"
     inkscape:zoom="15.999999"
     inkscape:cx="13.906251"
     inkscape:cy="20.906251"
     inkscape:document-units="mm"
     inkscape:current-layer="svg8"
     showgrid="false"
     units="px"
     inkscape:window-width="3440"
     inkscape:window-height="1369"
     inkscape:window-x="1912"
     inkscape:window-y="-8"
     inkscape:window-maximized="1"
     inkscape:snap-bbox="true"
     inkscape:bbox-paths="true"
     inkscape:bbox-nodes="true"
     inkscape:snap-bbox-edge-midpoints="true"
     inkscape:snap-bbox-midpoints="true"
     inkscape:snap-nodes="false"
     inkscape:snap-others="true"
     inkscape:snap-object-midpoints="true"
     inkscape:snap-page="true"
     inkscape:pagecheckerboard="1">
    <sodipodi:guide
       position="8.4666666,0"
       orientation="-32,0"
       id="guide854"
       inkscape:locked="false" />
    <sodipodi:guide
       position="9.9384114,8.4666666"
       orientation="0,-32"
       id="guide856"
       inkscape:locked="false" />
    <sodipodi:guide
       position="0,8.4666814"
       orientation="32,0"
       id="guide858"
       inkscape:locked="false" />
  </sodipodi:namedview>
  <metadata
     id="metadata5">
    <rdf:RDF>
      <cc:Work
         rdf:about="">
        <dc:format>image/svg+xml</dc:format>
        <dc:type
           rdf:resource="http://purl.org/dc/dcmitype/StillImage" />
      </cc:Work>
    </rdf:RDF>
  </metadata>
  <path
     id="rect928"
     style="fill:#b1b1b1;fill-opacity:1;stroke:none;stroke-width:0.765;stroke-linecap:round;stroke-dasharray:0.765, 1.53"
     d="M 3.4907429,4.2167968 3.3868733,5.3319743 c 0.065852,0.052418 0.1384469,0.097433 0.1932699,0.1622639 C 4.0390445,6.0408959 3.9662595,6.863421 3.4199462,7.3220336 2.8733438,7.7808888 2.0487078,7.7108464 1.589567,7.1639038 1.130425,6.6169589 1.203108,5.7929411 1.749764,5.3340412 a 0.25735269,0.25735269 0 0 1 0.00207,0 C 1.817691,5.2791612 1.8948897,5.2467382 1.968875,5.2069174 L 2.0608561,4.218347 C 0.91343233,4.2519049 0,5.185892 0,6.3417317 0,7.5189457 0.94772191,8.4666666 2.1249349,8.4666666 h 4.2167968 c 1.1772135,0 2.1249349,-0.9477209 2.1249349,-2.1249349 0,-1.1772141 -0.9477214,-2.1249349 -2.1249349,-2.1249349 z m 2.8675253,0.4630208 a 1.6619141,1.6619141 0 0 1 1.661914,1.6619141 1.6619141,1.6619141 0 0 1 -1.661914,1.661914 1.6619141,1.6619141 0 0 1 -1.6619141,-1.661914 1.6619141,1.6619141 0 0 1 1.6619141,-1.6619141 z" />
  <path
     id="path2317"
     style="opacity:1;fill:#b1b1b1;fill-opacity:1;stroke:none;stroke-width:1.11901;stroke-linecap:butt;stroke-linejoin:miter;stroke-miterlimit:4;stroke-dasharray:none;stroke-dashoffset:0;stroke-opacity:1"
     d="M 2.8584203,0.62105172 C 2.7569883,0.63482622 2.6559149,0.66402772 2.558272,0.70958472 2.0375094,0.95255722 1.8120667,1.5718832 2.0550391,2.0926453 2.2980115,2.6134072 2.9172789,2.8385189 3.4380415,2.5955465 3.5424226,2.546386 3.63795,2.4802199 3.7206157,2.3997298 L 6.9277899,3.5339086 C 7.1624693,3.6192672 7.4199305,3.499171 7.5052891,3.2644929 l 0.00301,-0.00805 C 7.550971,3.1391035 7.5426407,3.0161776 7.4939236,2.911761 7.4452181,2.8073428 7.3562345,2.7216215 7.2388949,2.6789421 L 4.031603,1.5441005 C 4.0199659,1.4293099 3.9893451,1.3172793 3.9409422,1.2125448 3.7435274,0.78942562 3.2979559,0.56135082 2.8584203,0.62105172 Z M 2.4452066,2.862421 2.3515541,5.6884864 C 2.283976,5.714142 2.2211489,5.750832 2.1656184,5.7971066 1.8898791,6.0285807 1.8541528,6.4398694 2.0856268,6.7156086 2.3171008,6.9913476 2.7281824,7.0271105 3.0039213,6.7956366 3.2796602,6.5641626 3.3156309,6.1530447 3.0841569,5.8773056 3.0374824,5.8221107 2.9818719,5.7750169 2.9197597,5.7380433 L 3.3521109,2.9353823 C 3.0448728,3.0197285 2.7242652,2.9893478 2.4452066,2.862421 Z"
     sodipodi:nodetypes="ccscccccccccccccsscccc" />
</svg>
