<?xml version="1.0" encoding="UTF-8" standalone="no"?>
<svg
   xmlns:dc="http://purl.org/dc/elements/1.1/"
   xmlns:cc="http://creativecommons.org/ns#"
   xmlns:rdf="http://www.w3.org/1999/02/22-rdf-syntax-ns#"
   xmlns:svg="http://www.w3.org/2000/svg"
   xmlns="http://www.w3.org/2000/svg"
   xmlns:sodipodi="http://sodipodi.sourceforge.net/DTD/sodipodi-0.dtd"
   xmlns:inkscape="http://www.inkscape.org/namespaces/inkscape"
   width="32"
   height="32"
   viewBox="0 0 8.4666666 8.4666666"
   version="1.1"
   id="svg8"
   inkscape:version="1.0.2-2 (e86c870879, 2021-01-15)"
   sodipodi:docname="layers.svg"
   inkscape:export-filename="D:\DEV_SRC\RxOT\DuAEF_Duik\icons\w16\w16_layers.png"
   inkscape:export-xdpi="48"
   inkscape:export-ydpi="48">
  <defs
     id="defs2" />
  <sodipodi:namedview
     id="base"
     pagecolor="#ffffff"
     bordercolor="#666666"
     borderopacity="1.0"
     inkscape:pageopacity="0.0"
     inkscape:pageshadow="2"
     inkscape:zoom="16"
     inkscape:cx="28.005402"
     inkscape:cy="18.23904"
     inkscape:document-units="mm"
     inkscape:current-layer="svg8"
     showgrid="false"
     units="px"
     inkscape:window-width="3378"
     inkscape:window-height="1417"
     inkscape:window-x="973"
     inkscape:window-y="-8"
     inkscape:window-maximized="1"
     inkscape:document-rotation="0"
     inkscape:snap-bbox="true"
     inkscape:snap-nodes="false"
     inkscape:bbox-paths="true"
     inkscape:bbox-nodes="true"
     inkscape:snap-bbox-edge-midpoints="true"
     inkscape:snap-bbox-midpoints="true">
    <sodipodi:guide
       position="8.4666666,0"
       orientation="-32,0"
       id="guide854"
       inkscape:locked="false" />
    <sodipodi:guide
       position="8.4666666,8.4666666"
       orientation="0,-32"
       id="guide856"
       inkscape:locked="false" />
    <sodipodi:guide
       position="0,8.4666814"
       orientation="32,0"
       id="guide858"
       inkscape:locked="false" />
  </sodipodi:namedview>
  <metadata
     id="metadata5">
    <rdf:RDF>
      <cc:Work
         rdf:about="">
        <dc:format>image/svg+xml</dc:format>
        <dc:type
           rdf:resource="http://purl.org/dc/dcmitype/StillImage" />
        <dc:title />
      </cc:Work>
    </rdf:RDF>
  </metadata>
  <path
     style="stroke-width:0.01650772;fill:#b1b1b1;fill-opacity:1"
     d="M 8.2497808,6.0044382 7.294479,5.571441 4.6225401,6.7826121 c -0.1247983,0.056621 -0.2573553,0.085345 -0.3938741,0.085345 -0.1365187,0 -0.2689107,-0.028724 -0.393874,-0.085345 L 1.1630181,5.571441 0.20755149,6.0044382 c -0.27320286,0.123808 -0.27320286,0.5365009 0,0.6603084 L 4.0528589,8.4077969 c 0.1122523,0.050843 0.2391969,0.050843 0.3514493,0 L 8.2497808,6.6647466 c 0.2732024,-0.1238075 0.2732024,-0.5365004 0,-0.6603084 z"
     id="path837" />
  <path
     style="stroke-width:0.01650772;fill:#b1b1b1;fill-opacity:1"
     d="m 0.20755149,2.4374512 3.84530741,1.74437 c 0.1122523,0.05101 0.2391969,0.05101 0.3514493,0 l 3.8453072,-1.74437 c 0.273203,-0.1239731 0.273203,-0.5368313 0,-0.6608043 L 4.4044732,0.0321115 a 0.42271308,0.42271308 0 0 0 -0.3514493,0 l -3.84547241,1.74437 c -0.27320286,0.1239731 -0.27320286,0.5369966 0,0.6609697 z"
     id="path885" />
  <path
     style="fill:#b1b1b1;fill-opacity:1;stroke-width:0.0165077"
     d="M 8.2497808,3.904308 7.294479,3.4713108 4.6225401,4.6824819 c -0.1247983,0.056621 -0.2573553,0.085345 -0.3938741,0.085345 -0.1365187,0 -0.2689107,-0.028724 -0.393874,-0.085345 L 1.1630181,3.4713108 0.20755149,3.904308 c -0.27320286,0.123808 -0.27320286,0.5365009 0,0.6603084 L 4.0528589,6.3076667 c 0.1122523,0.050843 0.2391969,0.050843 0.3514493,0 L 8.2497808,4.5646164 c 0.2732024,-0.1238075 0.2732024,-0.5365004 0,-0.6603084 z"
     id="path835" />
</svg>
