<?xml version="1.0" encoding="UTF-8" standalone="no"?>
<svg
   xmlns:dc="http://purl.org/dc/elements/1.1/"
   xmlns:cc="http://creativecommons.org/ns#"
   xmlns:rdf="http://www.w3.org/1999/02/22-rdf-syntax-ns#"
   xmlns:svg="http://www.w3.org/2000/svg"
   xmlns="http://www.w3.org/2000/svg"
   xmlns:sodipodi="http://sodipodi.sourceforge.net/DTD/sodipodi-0.dtd"
   xmlns:inkscape="http://www.inkscape.org/namespaces/inkscape"
   width="32"
   height="32"
   viewBox="0 0 8.4666666 8.4666666"
   version="1.1"
   id="svg8"
   inkscape:version="1.0.2-2 (e86c870879, 2021-01-15)"
   sodipodi:docname="leg.svg"
   inkscape:export-filename="D:\DEV_SRC\RxOT\DuAEF_Duik\icons/w16\w16_leg.png"
   inkscape:export-xdpi="48"
   inkscape:export-ydpi="48">
  <defs
     id="defs2">
    <style
       id="style1399">.cls-1{fill:#e3e3e3;}</style>
    <style
       id="style1399-4">.cls-1{fill:#e3e3e3;}</style>
    <style
       id="style1399-8">.cls-1{fill:#e3e3e3;}</style>
    <style
       id="style1399-4-5">.cls-1{fill:#e3e3e3;}</style>
    <style
       id="style1399-0">.cls-1{fill:#e3e3e3;}</style>
    <style
       id="style854">.cls-1{fill:#e3e3e3;}</style>
    <style
       id="style1399-84">.cls-1{fill:#e3e3e3;}</style>
    <style
       id="style1399-4-8">.cls-1{fill:#e3e3e3;}</style>
    <style
       id="style1399-8-10">.cls-1{fill:#e3e3e3;}</style>
    <style
       id="style1399-4-5-3">.cls-1{fill:#e3e3e3;}</style>
    <style
       id="style1399-0-0">.cls-1{fill:#e3e3e3;}</style>
    <style
       id="style1399-5">.cls-1{fill:#e3e3e3;}</style>
    <style
       id="style1399-4-6">.cls-1{fill:#e3e3e3;}</style>
    <style
       id="style1399-8-1">.cls-1{fill:#e3e3e3;}</style>
    <style
       id="style1399-4-5-1">.cls-1{fill:#e3e3e3;}</style>
    <style
       id="style1399-0-5">.cls-1{fill:#e3e3e3;}</style>
    <style
       id="style1257">.cls-1{fill:#e3e3e3;}</style>
    <style
       id="style836">.cls-1{fill:#e3e3e3;}</style>
    <style
       id="style891">.cls-1{fill:#e3e3e3;}</style>
    <style
       id="style949">.cls-1{fill:#e3e3e3;}</style>
  </defs>
  <sodipodi:namedview
     id="base"
     pagecolor="#ffffff"
     bordercolor="#666666"
     borderopacity="1.0"
     inkscape:pageopacity="0.0"
     inkscape:pageshadow="2"
     inkscape:zoom="5.656854"
     inkscape:cx="-9.1779006"
     inkscape:cy="9.7678015"
     inkscape:document-units="mm"
     inkscape:current-layer="svg8"
     showgrid="false"
     units="px"
     inkscape:window-width="3440"
     inkscape:window-height="1417"
     inkscape:window-x="1915"
     inkscape:window-y="-8"
     inkscape:window-maximized="1"
     inkscape:snap-bbox="true"
     inkscape:bbox-paths="true"
     inkscape:bbox-nodes="true"
     inkscape:snap-bbox-edge-midpoints="true"
     inkscape:snap-bbox-midpoints="true"
     inkscape:snap-nodes="true"
     inkscape:snap-others="true"
     inkscape:snap-object-midpoints="true"
     inkscape:snap-page="true"
     inkscape:document-rotation="0">
    <sodipodi:guide
       position="8.3674482,-3.1750001"
       orientation="-32,0"
       id="guide854"
       inkscape:locked="false" />
    <sodipodi:guide
       position="8.4666666,8.4666666"
       orientation="0,-32"
       id="guide856"
       inkscape:locked="false" />
    <sodipodi:guide
       position="0,8.4666814"
       orientation="32,0"
       id="guide858"
       inkscape:locked="false" />
  </sodipodi:namedview>
  <metadata
     id="metadata5">
    <rdf:RDF>
      <cc:Work
         rdf:about="">
        <dc:format>image/svg+xml</dc:format>
        <dc:type
           rdf:resource="http://purl.org/dc/dcmitype/StillImage" />
        <dc:title />
      </cc:Work>
    </rdf:RDF>
  </metadata>
  <path
     id="path980"
     style="fill:#232323;stroke:none;stroke-width:0.905792px;stroke-linecap:butt;stroke-linejoin:miter;stroke-opacity:1;fill-opacity:1"
     d="M 8.40625 0.25390625 C 7.524512 0.19376263 6.7770621 0.48447878 6.2441406 0.953125 C 5.1289819 1.9337857 5.1904035 4.3203951 6.4179688 5.1113281 C 7.2185301 5.627138 7.7308336 5.6393961 8.6972656 5.6875 C 9.6636976 5.7356036 13.085104 7.6224669 16.599609 10.554688 C 20.114114 13.486908 21.515389 15.074624 22.255859 16.210938 C 22.996329 17.347251 24.733436 17.978998 26.216797 16.962891 C 27.274828 16.238134 27.357422 14.453125 27.357422 14.453125 C 27.357422 14.453125 29.335688 14.378822 28.90625 12.630859 C 28.658849 11.623848 27.289919 10.97254 26.046875 12.472656 C 25.526661 13.100455 22.729461 10.539866 19.277344 7.7324219 C 15.825226 4.9249767 13.516976 3.531786 11.375 1.6601562 C 10.304012 0.72434133 9.287988 0.31404987 8.40625 0.25390625 z M 3.9707031 0.3671875 C 3.2105825 0.45958312 2.6033805 1.3794431 2.8652344 3.2128906 C 3.0714663 4.6568828 3.5003871 5.1728682 3.9453125 5.0195312 C 4.0787049 4.9735601 4.235764 4.6079836 4.3769531 4.1132812 C 4.2959269 3.7935487 4.2477517 3.4673997 4.2363281 3.1464844 C 4.2105037 2.4210129 4.3412898 1.6668535 4.6953125 1.0058594 C 4.6343774 0.65731902 4.5140844 0.41322591 4.3027344 0.375 C 4.1899189 0.35459558 4.0792916 0.3539881 3.9707031 0.3671875 z M 4.8105469 5.0449219 C 4.7912335 6.0561148 4.8827938 7.3231143 5.3613281 8.2949219 C 6.4489957 10.503759 8.4369986 12.32021 10.71875 16.523438 C 13.000502 20.726663 12.971038 22.450307 13.164062 23.556641 C 13.357088 24.662974 13.788025 25.307976 14.291016 25.695312 C 15.840008 26.88814 17.764256 26.472415 18.224609 25.013672 C 18.616842 23.770789 18.001746 22.249056 17.351562 21.097656 C 16.499669 19.589051 16.19561 18.619824 14.476562 14.972656 C 12.995425 11.830244 10.86717 9.1595404 9.6992188 7.3457031 C 9.4709153 7.0525615 9.0259965 6.8826602 8.6367188 6.8496094 C 7.2676631 6.7333723 6.7731021 6.7226123 5.7910156 6.0898438 C 5.3595247 5.81183 5.042936 5.4490369 4.8105469 5.0449219 z M 12.443359 26.394531 C 12.050436 26.427716 11.658028 26.751341 11.310547 27.136719 C 11.196159 27.263579 11.074729 27.39521 10.958984 27.525391 L 13.140625 30.248047 C 14.144986 30.079278 14.985443 30.056843 15.720703 30.015625 C 16.887486 29.950216 17.469245 31.3359 19.527344 30.945312 C 21.976069 30.480591 21.821531 27.418186 19.759766 27.013672 C 18.529279 26.772251 17.504361 28.157988 15.857422 28.160156 C 14.4628 28.161992 13.749886 27.325389 13.142578 26.695312 C 12.914838 26.459034 12.679113 26.374646 12.443359 26.394531 z M 10.09375 28.412109 C 9.3647702 29.101063 8.4763493 29.718771 7.0761719 30.001953 C 4.9372511 30.434539 3.4614217 29.395152 3.1328125 30.40625 C 2.8042009 31.417352 5.1036202 32 6.8730469 32 C 8.6424731 32 9.6676983 31.260689 11.181641 30.738281 C 11.373595 30.672041 11.533956 30.639584 11.714844 30.585938 L 10.09375 28.412109 z "
     transform="scale(0.26458333)" />
</svg>
