<?xml version="1.0" encoding="UTF-8" standalone="no"?>
<svg
   id="Calque_1"
   data-name="Calque 1"
   viewBox="0 0 32 32"
   version="1.1"
   sodipodi:docname="opacity_l.svg"
   inkscape:version="1.1 (c68e22c387, 2021-05-23)"
   xmlns:inkscape="http://www.inkscape.org/namespaces/inkscape"
   xmlns:sodipodi="http://sodipodi.sourceforge.net/DTD/sodipodi-0.dtd"
   xmlns="http://www.w3.org/2000/svg"
   xmlns:svg="http://www.w3.org/2000/svg">
  <sodipodi:namedview
     id="namedview29"
     pagecolor="#ffffff"
     bordercolor="#111111"
     borderopacity="1"
     inkscape:pageshadow="0"
     inkscape:pageopacity="0"
     inkscape:pagecheckerboard="1"
     showgrid="false"
     inkscape:zoom="13.15625"
     inkscape:cx="-6.8028504"
     inkscape:cy="21.092637"
     inkscape:window-width="1920"
     inkscape:window-height="1027"
     inkscape:window-x="-8"
     inkscape:window-y="-8"
     inkscape:window-maximized="1"
     inkscape:current-layer="Calque_1"
     inkscape:snap-bbox="true"
     inkscape:bbox-paths="true"
     inkscape:bbox-nodes="true"
     inkscape:snap-bbox-edge-midpoints="true"
     inkscape:snap-bbox-midpoints="true"
     inkscape:snap-nodes="false" />
  <defs
     id="defs4">
    <style
       id="style2">.cls-1{fill:#e3e3e3;}.cls-2{fill:none;stroke:#e3e3e3;stroke-linecap:round;stroke-miterlimit:10;stroke-width:2px;}</style>
  </defs>
  <title
     id="title6">opacity_l</title>
  <path
     id="path8"
     style="stroke-width:1.40659;fill:#232323;fill-opacity:1"
     class="cls-1"
     d="M 15.980797,3.247477e-4 C 7.1886668,3.247477e-4 0.01806525,7.2031007 0.01806525,16.0371 c 0,8.834 7.17060155,16.038747 15.96273175,16.038747 8.792133,0 15.960771,-7.204747 15.960771,-16.038747 0,-8.8339993 -7.168639,-16.0367752523 -15.960771,-16.0367752523 z M 16.023972,4.0129692 c 1.381495,0.00488 2.705377,0.2432152 3.936715,0.6763328 L 4.6848195,20.028054 C 4.2564635,18.795953 4.0195809,17.471988 4.0136546,16.090339 Z M 14.073277,4.1628272 4.1628024,14.122467 C 4.9710872,8.9978859 8.9732578,4.9757651 14.073277,4.1628272 Z m 7.161053,1.0568931 c 1.00405,0.4909189 1.930171,1.1187122 2.751383,1.859422 L 7.0652959,24.080135 C 6.3296447,23.256744 5.7067481,22.327941 5.2186114,21.321565 Z m 3.65412,2.7684289 c 0.736891,0.8234487 1.361512,1.7517242 1.85061,2.7585698 L 10.742965,26.862367 C 9.7299016,26.368898 8.7972895,25.734571 7.9699946,24.987171 Z m 2.386364,4.0520808 c 0.428011,1.229054 0.665466,2.549727 0.673127,3.927856 l -12.03583,12.093145 c -1.362642,-0.0077 -2.669256,-0.24174 -3.88569,-0.666474 z m 0.525942,5.8977 c -0.803463,5.132448 -4.809933,9.161181 -9.916362,9.973443 z"
     inkscape:export-filename="D:\DEV_SRC\RxOT\DuAEF\DuAEF_Duik\icons\w16\w16_opacity.png"
     inkscape:export-xdpi="48"
     inkscape:export-ydpi="48" />
</svg>
