<?xml version="1.0" encoding="UTF-8" standalone="no"?>
<svg
   xmlns:dc="http://purl.org/dc/elements/1.1/"
   xmlns:cc="http://creativecommons.org/ns#"
   xmlns:rdf="http://www.w3.org/1999/02/22-rdf-syntax-ns#"
   xmlns:svg="http://www.w3.org/2000/svg"
   xmlns="http://www.w3.org/2000/svg"
   xmlns:sodipodi="http://sodipodi.sourceforge.net/DTD/sodipodi-0.dtd"
   xmlns:inkscape="http://www.inkscape.org/namespaces/inkscape"
   width="32"
   height="32"
   viewBox="0 0 8.4666666 8.4666666"
   version="1.1"
   id="svg8"
   inkscape:version="1.0.2-2 (e86c870879, 2021-01-15)"
   sodipodi:docname="props.svg"
   inkscape:export-filename="D:\DEV_SRC\RxOT\DuAEF_Duik\icons\w16\w16_props.png"
   inkscape:export-xdpi="48"
   inkscape:export-ydpi="48">
  <defs
     id="defs2">
    <style
       id="style857">.cls-1{fill:#e52120;}.cls-1,.cls-2,.cls-3,.cls-4,.cls-5{stroke:#000;stroke-miterlimit:10;stroke-width:1.2px;}.cls-2{fill:#6dbc88;}.cls-3{fill:#701034;}.cls-4{fill:#51aae0;}.cls-5{fill:none;}</style>
    <style
       id="style857-2">.cls-1{fill:#e52120;}.cls-1,.cls-2,.cls-3,.cls-4,.cls-5{stroke:#000;stroke-miterlimit:10;stroke-width:1.2px;}.cls-2{fill:#6dbc88;}.cls-3{fill:#701034;}.cls-4{fill:#51aae0;}.cls-5{fill:none;}</style>
  </defs>
  <sodipodi:namedview
     id="base"
     pagecolor="#ffffff"
     bordercolor="#666666"
     borderopacity="1.0"
     inkscape:pageopacity="0.0"
     inkscape:pageshadow="2"
     inkscape:zoom="11.313708"
     inkscape:cx="26.096412"
     inkscape:cy="8.9636313"
     inkscape:document-units="mm"
     inkscape:current-layer="svg8"
     showgrid="false"
     units="px"
     inkscape:window-width="3378"
     inkscape:window-height="1417"
     inkscape:window-x="973"
     inkscape:window-y="-8"
     inkscape:window-maximized="1"
     inkscape:document-rotation="0">
    <sodipodi:guide
       position="8.4666666,0"
       orientation="-32,0"
       id="guide854"
       inkscape:locked="false" />
    <sodipodi:guide
       position="8.4666666,8.4666666"
       orientation="0,-32"
       id="guide856"
       inkscape:locked="false" />
    <sodipodi:guide
       position="0,8.4666814"
       orientation="32,0"
       id="guide858"
       inkscape:locked="false" />
  </sodipodi:namedview>
  <metadata
     id="metadata5">
    <rdf:RDF>
      <cc:Work
         rdf:about="">
        <dc:format>image/svg+xml</dc:format>
        <dc:type
           rdf:resource="http://purl.org/dc/dcmitype/StillImage" />
        <dc:title></dc:title>
      </cc:Work>
    </rdf:RDF>
  </metadata>
  <style
     type="text/css"
     id="style815">
	.st0{fill:#00005B;}
	.st1{fill:#9999FF;}
</style>
  <style
     type="text/css"
     id="style815-2">
	.st0{fill:#00005B;}
	.st1{fill:#9999FF;}
</style>
  <path
     id="path837"
     style="fill:#b1b1b1;fill-opacity:1;stroke:none;stroke-width:0.203629px;stroke-miterlimit:10"
     d="m 3.0988533,1.5157636 c -0.3074702,3.563e-4 -0.6092475,5.957e-4 -0.919506,7.673e-4 0.00446,1.3899347 0.0023,2.7798615 0.0023,4.1698079 h 0.8792272 c 0.1696305,-9.443e-4 0.3074854,0.1361044 0.30842,0.3057348 V 6.3311821 C 3.3683502,6.6889098 3.6583281,6.979479 4.0160569,6.9794781 H 4.5251041 C 4.8811142,6.9766868 5.1680403,6.6872057 5.1680293,6.3311821 V 6.1593262 C 5.0368502,5.9704581 4.9593901,5.742429 4.9597307,5.4979878 V 5.3733155 H 4.2926382 A 0.52085424,0.52085424 0 0 1 3.7720835,4.8527609 c 0,-0.699391 -0.00136,-1.3978429 -0.00154,-2.0967957 C 3.5348879,2.658995 3.368583,2.4278357 3.3692962,2.1571545 V 1.8172788 C 3.3684371,1.6607023 3.2503954,1.5338831 3.0988533,1.5157636 Z" />
  <path
     style="fill:#b1b1b1;fill-opacity:1;stroke:none;stroke-width:0.20363px;stroke-miterlimit:10"
     d="M 8.4666667,0.67849495 C 8.1695384,0.67860863 7.8714193,0.67904599 7.5753591,0.67935692 7.4113547,0.68513253 7.2797399,0.81887255 7.2788312,0.98407376 V 1.3237017 c 1.1e-5,0.3560235 -0.2870393,0.6454296 -0.6430515,0.6482237 H 6.1267687 C 5.76904,1.9719265 5.4793266,1.6814292 5.4802692,1.3237017 V 0.98407376 C 5.47941,0.82749736 5.3611434,0.70049347 5.2096013,0.68237396 c -0.3074702,3.5631e-4 -0.609064,6.8958e-4 -0.9193226,8.5906e-4 0.00446,1.38993688 0.00216,2.77997658 0.00216,4.16992298 H 5.1716755 C 5.3413059,4.8522117 5.4793367,4.9891045 5.4802714,5.1587348 V 5.4979317 C 5.4793271,5.8556592 5.7690423,6.1461565 6.126771,6.1461554 h 0.5090109 c 0.35601,-0.00279 0.6430603,-0.2921973 0.6430493,-0.6482208 V 5.1587377 C 7.279757,4.9904313 7.4161036,4.8540863 7.5844101,4.853159 H 8.4666667 V 3.9709024 C 8.4676139,3.7999451 8.3290281,3.6609283 8.1580707,3.6618754 H 7.8184431 C 7.4617649,3.6609429 7.1728758,3.3720539 7.1719432,3.0153759 V 2.506365 C 7.1756549,2.1526139 7.4633804,1.8672396 7.8171499,1.8663303 h 0.3391969 c 0.1716196,0.0019 0.3112786,-0.1369683 0.3103199,-0.3085958 z"
     id="path839"
     inkscape:connector-curvature="0" />
  <path
     id="path843"
     style="fill:#b1b1b1;fill-opacity:1;stroke:none;stroke-width:0.203629px;stroke-miterlimit:10"
     d="M 0.91720252,2.4995021 C 0.60973235,2.4998583 0.30795505,2.5000977 -0.00230343,2.5002693 0.00216062,3.890204 -2.73333e-6,5.2801307 -2.73333e-6,6.6700771 H 0.8792245 c 0.1696304,-9.443e-4 0.3074854,0.1361045 0.30842,0.3057349 v 0.3391084 c -9.443e-4,0.3577277 0.2890335,0.648297 0.6467623,0.648296 h 0.5090466 c 0.35601,-0.00279 0.6429362,-0.2922723 0.6429252,-0.648296 V 7.1430645 C 2.8551995,6.9541964 2.7777394,6.7261674 2.77808,6.4817262 V 6.3570539 H 2.1109875 A 0.52085424,0.52085424 0 0 1 1.5904328,5.8364992 c 0,-0.6993909 -0.00136,-1.3978429 -0.00154,-2.0967957 C 1.3532372,3.6427333 1.1869322,3.4115741 1.1876455,3.1408929 V 2.8010171 C 1.1867864,2.6444407 1.0687447,2.5176215 0.91720252,2.4995021 Z" />
</svg>
