<?xml version="1.0" encoding="UTF-8" standalone="no"?>
<svg
   xmlns:dc="http://purl.org/dc/elements/1.1/"
   xmlns:cc="http://creativecommons.org/ns#"
   xmlns:rdf="http://www.w3.org/1999/02/22-rdf-syntax-ns#"
   xmlns:svg="http://www.w3.org/2000/svg"
   xmlns="http://www.w3.org/2000/svg"
   xmlns:sodipodi="http://sodipodi.sourceforge.net/DTD/sodipodi-0.dtd"
   xmlns:inkscape="http://www.inkscape.org/namespaces/inkscape"
   width="32"
   height="32"
   viewBox="0 0 8.4666666 8.4666666"
   version="1.1"
   id="svg8"
   inkscape:version="1.0.2-2 (e86c870879, 2021-01-15)"
   sodipodi:docname="random.svg"
   inkscape:export-filename="D:\DEV_SRC\RxOT\DuAEF_Duik\icons\w16/w16_random.png"
   inkscape:export-xdpi="48"
   inkscape:export-ydpi="48">
  <defs
     id="defs2">
    <style
       id="style1399">.cls-1{fill:#e3e3e3;}</style>
    <style
       id="style1399-4">.cls-1{fill:#e3e3e3;}</style>
    <style
       id="style1399-5">.cls-1{fill:#e3e3e3;}</style>
    <style
       id="style1399-7">.cls-1{fill:#e3e3e3;}</style>
    <style
       id="style1399-85">.cls-1{fill:#e3e3e3;}</style>
    <style
       id="style1399-4-6">.cls-1{fill:#e3e3e3;}</style>
    <style
       id="style1399-8">.cls-1{fill:#e3e3e3;}</style>
    <style
       id="style1399-4-5">.cls-1{fill:#e3e3e3;}</style>
    <style
       id="style1399-44">.cls-1{fill:#e3e3e3;}</style>
    <style
       id="style1399-59">.cls-1{fill:#e3e3e3;}</style>
    <style
       id="style1399-41">.cls-1{fill:#e3e3e3;}</style>
    <style
       id="style1399-83">.cls-1{fill:#e3e3e3;}</style>
    <style
       id="style1399-4-1">.cls-1{fill:#e3e3e3;}</style>
    <style
       id="style846">.cls-1{fill:#e3e3e3;}</style>
  </defs>
  <sodipodi:namedview
     id="base"
     pagecolor="#ffffff"
     bordercolor="#666666"
     borderopacity="1.0"
     inkscape:pageopacity="0.0"
     inkscape:pageshadow="2"
     inkscape:zoom="22.627417"
     inkscape:cx="16.858805"
     inkscape:cy="20.683267"
     inkscape:document-units="mm"
     inkscape:current-layer="svg8"
     showgrid="false"
     units="px"
     inkscape:window-width="3440"
     inkscape:window-height="1417"
     inkscape:window-x="1915"
     inkscape:window-y="-8"
     inkscape:window-maximized="1"
     inkscape:snap-global="true"
     inkscape:snap-bbox="true"
     inkscape:bbox-paths="true"
     inkscape:bbox-nodes="true"
     inkscape:snap-bbox-edge-midpoints="true"
     inkscape:snap-bbox-midpoints="true"
     inkscape:snap-nodes="false"
     inkscape:snap-others="false"
     inkscape:document-rotation="0">
    <sodipodi:guide
       position="8.4666666,0"
       orientation="-32,0"
       id="guide854"
       inkscape:locked="false" />
    <sodipodi:guide
       position="0,8.4666666"
       orientation="0,-32"
       id="guide856"
       inkscape:locked="false" />
    <sodipodi:guide
       position="0,8.4666666"
       orientation="32,0"
       id="guide858"
       inkscape:locked="false" />
  </sodipodi:namedview>
  <metadata
     id="metadata5">
    <rdf:RDF>
      <cc:Work
         rdf:about="">
        <dc:format>image/svg+xml</dc:format>
        <dc:type
           rdf:resource="http://purl.org/dc/dcmitype/StillImage" />
        <dc:title />
      </cc:Work>
    </rdf:RDF>
  </metadata>
  <path
     id="path852"
     style="stroke-width:1.28617;fill:#b1b1b1;fill-opacity:1"
     d="M 25.693359 2.0078125 A 0.56591218 0.56591218 0 0 0 25.144531 2.5859375 L 25.144531 6.0195312 L 20.566406 6.0195312 C 14.765807 6.0195312 12.437724 10.803736 10.457031 15.408203 C 10.032597 16.424273 9.5828249 17.466685 9.0683594 18.457031 C 8.0651514 20.386277 6.9458093 22.019531 4.5664062 22.019531 L 0.56640625 22.019531 A 0.55305052 0.55305052 0 0 0 0 22.585938 L 0 26.019531 A 0.55305052 0.55305052 0 0 0 0.56640625 26.585938 L 4.5664062 26.585938 C 10.367006 26.585937 12.695088 21.801733 14.675781 17.197266 C 15.100215 16.181196 15.549988 15.137974 16.064453 14.134766 C 17.067661 12.20552 18.199865 10.585938 20.566406 10.585938 L 25.144531 10.585938 L 25.144531 14.019531 A 0.56591218 0.56591218 0 0 0 25.710938 14.585938 A 0.60449707 0.60449707 0 0 0 26.123047 14.431641 L 31.832031 8.7089844 A 0.56591218 0.56591218 0 0 0 32 8.296875 A 0.5787738 0.5787738 0 0 0 31.832031 7.8847656 L 26.134766 2.1875 A 0.643082 0.643082 0 0 0 25.710938 2.0078125 A 0.56591218 0.56591218 0 0 0 25.693359 2.0078125 z M 0.546875 6.0195312 A 0.55305052 0.55305052 0 0 0 0 6.5859375 L 0 10.019531 A 0.55305052 0.55305052 0 0 0 0.56640625 10.585938 L 4.5664062 10.585938 C 7.2673504 10.585938 8.4124752 12.747448 9.4414062 14.908203 A 32.565673 32.565673 0 0 1 11.884766 10.033203 A 8.5915756 8.5915756 0 0 0 4.5664062 6.0195312 L 0.56640625 6.0195312 A 0.55305052 0.55305052 0 0 0 0.546875 6.0195312 z M 15.691406 17.699219 A 31.896867 31.896867 0 0 1 13.259766 22.572266 C 16.565207 27.215318 19.832674 26.585938 25.144531 26.585938 L 25.144531 30.019531 A 0.5787738 0.5787738 0 0 0 25.710938 30.585938 A 0.60449707 0.60449707 0 0 0 26.123047 30.431641 L 31.832031 24.707031 A 0.56591218 0.56591218 0 0 0 32 24.296875 A 0.5787738 0.5787738 0 0 0 31.832031 23.884766 L 26.134766 18.1875 A 0.63022035 0.63022035 0 0 0 25.710938 18.019531 A 0.55305052 0.55305052 0 0 0 25.144531 18.585938 L 25.144531 22.019531 L 20.566406 22.019531 C 17.878323 22.019531 16.733199 19.859974 15.691406 17.699219 z "
     transform="scale(0.26458333)" />
</svg>
