<?xml version="1.0" encoding="UTF-8" standalone="no"?>
<!-- Created with Inkscape (http://www.inkscape.org/) -->

<svg
   width="32"
   height="32"
   viewBox="0 0 8.4666666 8.4666666"
   version="1.1"
   id="svg8"
   inkscape:version="1.1.1 (3bf5ae0d25, 2021-09-20)"
   sodipodi:docname="rename.svg"
   inkscape:export-filename="D:\RxLab\src\RxOT\DuAEF\Duik\inc\icons\w16\w16_rename.png"
   inkscape:export-xdpi="48"
   inkscape:export-ydpi="48"
   xmlns:inkscape="http://www.inkscape.org/namespaces/inkscape"
   xmlns:sodipodi="http://sodipodi.sourceforge.net/DTD/sodipodi-0.dtd"
   xmlns="http://www.w3.org/2000/svg"
   xmlns:svg="http://www.w3.org/2000/svg"
   xmlns:rdf="http://www.w3.org/1999/02/22-rdf-syntax-ns#"
   xmlns:cc="http://creativecommons.org/ns#"
   xmlns:dc="http://purl.org/dc/elements/1.1/">
  <defs
     id="defs2" />
  <sodipodi:namedview
     id="base"
     pagecolor="#ffffff"
     bordercolor="#666666"
     borderopacity="1.0"
     inkscape:pageopacity="0.0"
     inkscape:pageshadow="2"
     inkscape:zoom="22.627418"
     inkscape:cx="12.838407"
     inkscape:cy="14.341009"
     inkscape:document-units="mm"
     inkscape:current-layer="svg8"
     showgrid="false"
     units="px"
     inkscape:window-width="3440"
     inkscape:window-height="1369"
     inkscape:window-x="1912"
     inkscape:window-y="-8"
     inkscape:window-maximized="1"
     inkscape:pagecheckerboard="0">
    <sodipodi:guide
       position="8.4666666,0"
       orientation="-32,0"
       id="guide854"
       inkscape:locked="false" />
    <sodipodi:guide
       position="8.4666666,8.4666666"
       orientation="0,-32"
       id="guide856"
       inkscape:locked="false" />
    <sodipodi:guide
       position="0,8.4666814"
       orientation="32,0"
       id="guide858"
       inkscape:locked="false" />
  </sodipodi:namedview>
  <metadata
     id="metadata5">
    <rdf:RDF>
      <cc:Work
         rdf:about="">
        <dc:format>image/svg+xml</dc:format>
        <dc:type
           rdf:resource="http://purl.org/dc/dcmitype/StillImage" />
      </cc:Work>
    </rdf:RDF>
  </metadata>
  <path
     id="rect855"
     style="color:#000000;fill:#232323;stroke-width:3.77953;stroke-linecap:round;-inkscape-stroke:none;fill-opacity:1"
     d="M 4.8203125 17.960938 C 2.1780249 17.960938 0.015625 20.115525 0.015625 22.757812 L 0.015625 27.179688 C 0.015625 29.821975 2.1780249 31.978516 4.8203125 31.978516 L 27.179688 31.978516 C 29.821975 31.978516 31.986328 29.821975 31.986328 27.179688 L 31.986328 22.757812 C 31.986328 20.115525 29.821975 17.960937 27.179688 17.960938 L 23.414062 17.960938 L 21.414062 19.960938 L 27.179688 19.960938 C 28.74857 19.960938 29.984375 21.18893 29.984375 22.757812 L 29.984375 27.179688 C 29.984375 28.74857 28.74857 29.978516 27.179688 29.978516 L 4.8203125 29.978516 C 3.25143 29.978516 2.015625 28.748571 2.015625 27.179688 L 2.015625 22.757812 C 2.015625 21.18893 3.25143 19.960938 4.8203125 19.960938 L 5.4863281 19.960938 L 5.7089844 17.960938 L 4.8203125 17.960938 z "
     transform="scale(0.26458333)" />
  <path
     id="path845"
     d="M 5.6527538,1.1856873 7.2808522,2.8137858 3.7455053,6.3491327 2.2939262,6.5093738 C 2.0996022,6.5308659 1.9354189,6.3665559 1.9570387,6.1722315 L 2.1185514,4.7196353 Z M 8.2878261,0.94329113 7.5233757,0.17884032 c -0.2384541,-0.23845377 -0.6251946,-0.23845377 -0.863648,0 L 5.9405518,0.89801671 7.5686501,2.5261152 8.2878261,1.8069388 c 0.2384541,-0.238581 0.2384541,-0.625194 0,-0.86364767 z"
     inkscape:connector-curvature="0"
     style="fill:#232323;stroke-width:0.0128055;stroke-miterlimit:4;stroke-dasharray:none;fill-opacity:1" />
</svg>
