<?xml version="1.0" encoding="UTF-8" standalone="no"?>
<svg
   width="32"
   height="32"
   viewBox="0 0 8.4666666 8.4666666"
   version="1.1"
   id="svg8"
   inkscape:version="1.1 (c68e22c387, 2021-05-23)"
   sodipodi:docname="separate_dimensions.svg"
   inkscape:export-filename="D:\DEV_SRC\RxOT\DuAEF\DuAEF_Duik\icons\w12\w12_separate_dimensions.png"
   inkscape:export-xdpi="36"
   inkscape:export-ydpi="36"
   xmlns:inkscape="http://www.inkscape.org/namespaces/inkscape"
   xmlns:sodipodi="http://sodipodi.sourceforge.net/DTD/sodipodi-0.dtd"
   xmlns="http://www.w3.org/2000/svg"
   xmlns:svg="http://www.w3.org/2000/svg"
   xmlns:rdf="http://www.w3.org/1999/02/22-rdf-syntax-ns#"
   xmlns:cc="http://creativecommons.org/ns#"
   xmlns:dc="http://purl.org/dc/elements/1.1/">
  <defs
     id="defs2" />
  <sodipodi:namedview
     id="base"
     pagecolor="#ffffff"
     bordercolor="#666666"
     borderopacity="1.0"
     inkscape:pageopacity="0.0"
     inkscape:pageshadow="2"
     inkscape:zoom="7.9999995"
     inkscape:cx="-14.687501"
     inkscape:cy="5.4375003"
     inkscape:document-units="mm"
     inkscape:current-layer="svg8"
     showgrid="false"
     units="px"
     inkscape:window-width="1920"
     inkscape:window-height="1027"
     inkscape:window-x="-8"
     inkscape:window-y="-8"
     inkscape:window-maximized="1"
     inkscape:document-rotation="0"
     inkscape:pagecheckerboard="1">
    <sodipodi:guide
       position="8.4666666,0"
       orientation="-32,0"
       id="guide854"
       inkscape:locked="false" />
    <sodipodi:guide
       position="8.4666666,8.4666666"
       orientation="0,-32"
       id="guide856"
       inkscape:locked="false" />
    <sodipodi:guide
       position="0,8.4666814"
       orientation="32,0"
       id="guide858"
       inkscape:locked="false" />
  </sodipodi:namedview>
  <metadata
     id="metadata5">
    <rdf:RDF>
      <cc:Work
         rdf:about="">
        <dc:format>image/svg+xml</dc:format>
        <dc:type
           rdf:resource="http://purl.org/dc/dcmitype/StillImage" />
      </cc:Work>
    </rdf:RDF>
  </metadata>
  <path
     id="rect935"
     style="fill:#b1b1b1;fill-opacity:1;stroke-width:3.15969;stroke-linecap:round"
     d="M 21.9375 0 C 20.864125 0 20 0.86412509 20 1.9375 L 20 5.3125 L 12 13.3125 L 12 11.9375 C 12 10.864125 11.135875 10 10.0625 10 L 1.9375 10 C 0.86412509 10 0 10.864125 0 11.9375 L 0 20.0625 C -1.4802974e-16 21.135875 0.86412509 22 1.9375 22 L 10.0625 22 C 11.135875 22 12 21.135875 12 20.0625 L 12 18.833984 L 20 26.830078 L 20 30.0625 C 20 31.135875 20.864125 32 21.9375 32 L 30.0625 32 C 31.135875 32 32 31.135875 32 30.0625 L 32 21.9375 C 32 20.864125 31.135875 20 30.0625 20 L 21.9375 20 C 20.864125 20 20 20.864125 20 21.9375 L 20 22.742188 L 13.328125 16.072266 L 20 9.4003906 L 20 10.0625 C 20 11.135875 20.864125 12 21.9375 12 L 30.0625 12 C 31.135875 12 32 11.135875 32 10.0625 L 32 1.9375 C 32 0.86412509 31.135875 0 30.0625 0 L 21.9375 0 z "
     transform="scale(0.26458333)" />
</svg>
