<?xml version="1.0" encoding="UTF-8" standalone="no"?>
<svg
   width="32"
   height="32"
   viewBox="0 0 8.4666666 8.4666666"
   version="1.1"
   id="svg8"
   inkscape:version="1.1.1 (3bf5ae0d25, 2021-09-20)"
   sodipodi:docname="snap.svg"
   inkscape:export-filename="D:\RxLab\src\RxOT\DuAEF\DuAEF_Duik\inc\icons\w12\w12_snap.png"
   inkscape:export-xdpi="36.000004"
   inkscape:export-ydpi="36.000004"
   xmlns:inkscape="http://www.inkscape.org/namespaces/inkscape"
   xmlns:sodipodi="http://sodipodi.sourceforge.net/DTD/sodipodi-0.dtd"
   xmlns="http://www.w3.org/2000/svg"
   xmlns:svg="http://www.w3.org/2000/svg"
   xmlns:rdf="http://www.w3.org/1999/02/22-rdf-syntax-ns#"
   xmlns:cc="http://creativecommons.org/ns#"
   xmlns:dc="http://purl.org/dc/elements/1.1/">
  <defs
     id="defs2">
    <style
       id="style1399">.cls-1{fill:#e3e3e3;}</style>
    <style
       id="style1399-4">.cls-1{fill:#e3e3e3;}</style>
    <style
       id="style1399-8">.cls-1{fill:#e3e3e3;}</style>
    <style
       id="style1399-4-5">.cls-1{fill:#e3e3e3;}</style>
    <style
       id="style1399-9">.cls-1{fill:#e3e3e3;}</style>
    <style
       id="style1399-4-6">.cls-1{fill:#e3e3e3;}</style>
    <style
       id="style1399-8-4">.cls-1{fill:#e3e3e3;}</style>
    <style
       id="style1399-4-5-3">.cls-1{fill:#e3e3e3;}</style>
    <style
       id="style1399-88">.cls-1{fill:#e3e3e3;}</style>
    <style
       id="style1399-3">.cls-1{fill:#e3e3e3;}</style>
    <style
       id="style1399-94">.cls-1{fill:#e3e3e3;}</style>
    <style
       id="style1399-5">.cls-1{fill:#e3e3e3;}</style>
    <style
       id="style1399-46">.cls-1{fill:#e3e3e3;}</style>
    <style
       id="style1399-4-2">.cls-1{fill:#e3e3e3;}</style>
    <style
       id="style1399-8-5">.cls-1{fill:#e3e3e3;}</style>
    <style
       id="style1399-4-5-8">.cls-1{fill:#e3e3e3;}</style>
    <style
       id="style1399-9-6">.cls-1{fill:#e3e3e3;}</style>
    <style
       id="style1399-4-6-2">.cls-1{fill:#e3e3e3;}</style>
    <style
       id="style1399-8-4-8">.cls-1{fill:#e3e3e3;}</style>
    <style
       id="style1399-4-5-3-4">.cls-1{fill:#e3e3e3;}</style>
    <style
       id="style1399-88-7">.cls-1{fill:#e3e3e3;}</style>
    <style
       id="style1399-3-2">.cls-1{fill:#e3e3e3;}</style>
    <style
       id="style1399-94-4">.cls-1{fill:#e3e3e3;}</style>
    <style
       id="style1399-5-0">.cls-1{fill:#e3e3e3;}</style>
  </defs>
  <sodipodi:namedview
     id="base"
     pagecolor="#ffffff"
     bordercolor="#666666"
     borderopacity="1.0"
     inkscape:pageopacity="0.0"
     inkscape:pageshadow="2"
     inkscape:zoom="16"
     inkscape:cx="27.09375"
     inkscape:cy="15.84375"
     inkscape:document-units="mm"
     inkscape:current-layer="svg8"
     showgrid="false"
     units="px"
     inkscape:window-width="3440"
     inkscape:window-height="1369"
     inkscape:window-x="1912"
     inkscape:window-y="-8"
     inkscape:window-maximized="1"
     inkscape:document-rotation="0"
     inkscape:pagecheckerboard="0"
     inkscape:snap-bbox="true"
     inkscape:bbox-paths="true"
     inkscape:bbox-nodes="true"
     inkscape:snap-bbox-midpoints="true"
     inkscape:snap-bbox-edge-midpoints="true"
     inkscape:snap-nodes="false"
     inkscape:snap-global="true" />
  <metadata
     id="metadata5">
    <rdf:RDF>
      <cc:Work
         rdf:about="">
        <dc:format>image/svg+xml</dc:format>
        <dc:type
           rdf:resource="http://purl.org/dc/dcmitype/StillImage" />
      </cc:Work>
    </rdf:RDF>
  </metadata>
  <path
     id="path11"
     d="M 2.8172227,3.7338427 1.2362485,2.1528685 a 0.17643207,0.17643207 0 0 0 -0.24951219,0 L 0.15502732,2.9845772 a 0.52929618,0.52929618 0 0 0 0,0.7485378 L 1.2362485,4.8143363 a 0.52929618,0.52929618 0 0 0 0.7485379,0 L 2.8164951,3.9826276 A 0.17481476,0.17481476 0 0 0 2.8172227,3.7338427 Z M 6.3096716,7.4758043 5.4769234,8.3085526 a 0.52929618,0.52929618 0 0 1 -0.7485379,0 L 3.6471641,7.2273312 a 0.52929618,0.52929618 0 0 1 0,-0.7485379 L 4.4788727,5.6470847 a 0.17643207,0.17643207 0 0 1 0.2495126,-10e-8 L 6.308632,7.2273313 a 0.17481476,0.17481476 0 0 1 0.00104,0.248473 z M 5.0621085,5.3133615 a 0.17643207,0.17643207 0 0 1 0,-0.2495126 L 5.6027192,4.5232382 C 6.9344928,3.1914647 5.2689961,1.5301265 3.9393018,2.8598208 L 3.3986911,3.4004315 a 0.17643207,0.17643207 0 0 1 -0.2495126,0 L 1.5699716,1.8212245 a 0.17643207,0.17643207 0 0 1 0.00104,-0.2505523 C 1.7945331,1.34923 1.9962227,1.1579373 2.1251371,1.0165464 c 1.5656917,-1.56569179 3.9794145,-1.14806999 5.2330073,0.105523 1.253593,1.253593 1.653021,3.649122 0.08629,5.2158534 -0.13931,0.1268366 -0.3451606,0.3409987 -0.5530861,0.5530861 a 0.17643207,0.17643207 0 0 1 -0.2505522,0.00104 z"
     inkscape:connector-curvature="0"
     style="fill:#232323;fill-opacity:1;stroke-width:0.0147027" />
</svg>
