<?xml version="1.0" encoding="UTF-8" standalone="no"?>
<!-- Created with Inkscape (http://www.inkscape.org/) -->

<svg
   width="32"
   height="32"
   viewBox="0 0 8.4666666 8.4666666"
   version="1.1"
   id="svg8"
   inkscape:version="1.1 (c68e22c387, 2021-05-23)"
   sodipodi:docname="three-ik_sl.svg"
   inkscape:export-filename="D:\DEV_SRC\RxOT\DuAEF\DuAEF_Duik\icons\w16\w16_three_ik.png"
   inkscape:export-xdpi="48"
   inkscape:export-ydpi="48"
   xmlns:inkscape="http://www.inkscape.org/namespaces/inkscape"
   xmlns:sodipodi="http://sodipodi.sourceforge.net/DTD/sodipodi-0.dtd"
   xmlns="http://www.w3.org/2000/svg"
   xmlns:svg="http://www.w3.org/2000/svg"
   xmlns:rdf="http://www.w3.org/1999/02/22-rdf-syntax-ns#"
   xmlns:cc="http://creativecommons.org/ns#"
   xmlns:dc="http://purl.org/dc/elements/1.1/">
  <defs
     id="defs2">
    <style
       id="style1399">.cls-1{fill:#e3e3e3;}</style>
    <style
       id="style1399-4">.cls-1{fill:#e3e3e3;}</style>
    <style
       id="style1399-8">.cls-1{fill:#e3e3e3;}</style>
    <style
       id="style1399-4-5">.cls-1{fill:#e3e3e3;}</style>
    <style
       id="style1399-0">.cls-1{fill:#e3e3e3;}</style>
  </defs>
  <sodipodi:namedview
     id="base"
     pagecolor="#ffffff"
     bordercolor="#666666"
     borderopacity="1.0"
     inkscape:pageopacity="0.0"
     inkscape:pageshadow="2"
     inkscape:zoom="7.9999996"
     inkscape:cx="-14.187501"
     inkscape:cy="0.43750002"
     inkscape:document-units="mm"
     inkscape:current-layer="svg8"
     showgrid="false"
     units="px"
     inkscape:window-width="1920"
     inkscape:window-height="1027"
     inkscape:window-x="-8"
     inkscape:window-y="-8"
     inkscape:window-maximized="1"
     inkscape:snap-bbox="true"
     inkscape:bbox-paths="true"
     inkscape:bbox-nodes="true"
     inkscape:snap-bbox-edge-midpoints="true"
     inkscape:snap-bbox-midpoints="true"
     inkscape:snap-nodes="false"
     inkscape:snap-others="true"
     inkscape:snap-object-midpoints="true"
     inkscape:snap-page="true"
     inkscape:pagecheckerboard="1"
     inkscape:snap-global="false">
    <sodipodi:guide
       position="8.4666666,0"
       orientation="-32,0"
       id="guide854"
       inkscape:locked="false" />
    <sodipodi:guide
       position="9.9384114,8.4666666"
       orientation="0,-32"
       id="guide856"
       inkscape:locked="false" />
    <sodipodi:guide
       position="0,8.4666814"
       orientation="32,0"
       id="guide858"
       inkscape:locked="false" />
  </sodipodi:namedview>
  <metadata
     id="metadata5">
    <rdf:RDF>
      <cc:Work
         rdf:about="">
        <dc:format>image/svg+xml</dc:format>
        <dc:type
           rdf:resource="http://purl.org/dc/dcmitype/StillImage" />
      </cc:Work>
    </rdf:RDF>
  </metadata>
  <path
     style="opacity:1;fill:#b1b1b1;fill-opacity:1;stroke:none;stroke-width:1.41155;stroke-linecap:butt;stroke-linejoin:miter;stroke-miterlimit:4;stroke-dasharray:none;stroke-dashoffset:0;stroke-opacity:1"
     d="M 2.3183914,1.7213688 C 2.3083677,1.6581459 2.2800469,1.5970803 2.233047,1.5467897 2.1077835,1.4126172 1.8975437,1.4052213 1.7634359,1.5305543 1.6292631,1.6558181 1.6219631,1.8664714 1.7472961,2.0005792 1.8725598,2.1347519 2.0831172,2.1416381 2.2172252,2.0163053 2.3010829,1.9380153 2.3350975,1.8267406 2.3183914,1.7213688 Z"
     id="path1542" />
  <path
     id="path1538"
     style="opacity:1;fill:#b1b1b1;fill-opacity:1;stroke:none;stroke-width:1.41155;stroke-linecap:butt;stroke-linejoin:miter;stroke-miterlimit:4;stroke-dasharray:none;stroke-dashoffset:0;stroke-opacity:1"
     d="M 1.9720205,0.46095547 C 1.6570261,0.46532393 1.34262,0.58250526 1.0943084,0.81444931 0.56457713,1.3092632 0.53612738,2.139644 1.0309413,2.6693754 1.5257553,3.1991069 2.3566598,3.2275564 2.886391,2.7327425 2.9923924,2.633012 3.0810444,2.516456 3.1487622,2.3876278 l 1.721384,0.035611 C 4.7433749,2.0418603 4.7598023,1.6358207 4.9010441,1.2758242 L 3.1875154,1.2396893 C 3.128726,1.1065496 3.0481978,0.9840106 2.9492346,0.87729266 2.6863646,0.59587294 2.329014,0.45600454 1.9720205,0.46095547 Z M 1.998205,0.97103396 C 2.2100004,0.9731105 2.4204625,1.0585601 2.5763639,1.2255495 2.6898068,1.3469406 2.7585054,1.4945187 2.7826997,1.6471237 2.8230243,1.9014642 2.7400218,2.1709003 2.5376106,2.359872 2.2139081,2.6623936 1.7066904,2.6449767 1.4043356,2.3211185 1.1018138,1.9974165 1.1187073,1.4896746 1.4425652,1.1873198 1.5993586,1.0407858 1.799246,0.96908331 1.998205,0.97103396 Z" />
  <path
     style="opacity:1;fill:#b1b1b1;fill-opacity:1;stroke:none;stroke-width:1.41155;stroke-linecap:butt;stroke-linejoin:miter;stroke-miterlimit:4;stroke-dasharray:none;stroke-dashoffset:0;stroke-opacity:1"
     d="M 6.658501,1.6041495 C 6.6411468,1.5904902 6.6221587,1.5780658 6.6016509,1.5677763 6.4376287,1.4853748 6.2379581,1.5518296 6.1556415,1.7158942 6.0732397,1.8799165 6.1390961,2.0796216 6.3031606,2.1619384 6.4671828,2.2443397 6.66717,2.1781668 6.7494868,2.0141022 6.8215885,1.8705831 6.7799605,1.6997741 6.658501,1.6041495 Z"
     id="path1536" />
  <path
     id="path828"
     style="opacity:1;fill:#b1b1b1;fill-opacity:1;stroke:none;stroke-width:1.41155;stroke-linecap:butt;stroke-linejoin:miter;stroke-miterlimit:4;stroke-dasharray:none;stroke-dashoffset:0;stroke-opacity:1"
     d="M 5.7018468,0.78815772 C 5.5280631,0.90901981 5.3807876,1.0735541 5.2791491,1.2759984 4.9539059,1.9238201 5.215778,2.7127738 5.8636001,3.038017 5.9939038,3.1028494 6.1341776,3.1457587 6.2784957,3.1645928 L 7.34802,6.2527391 c 0.099122,0.2990016 0.4195916,0.4598567 0.7185931,0.3607358 l 0.010364,-0.00349 C 8.2264726,6.5604186 8.3413587,6.455891 8.4065722,6.3259978 8.4717856,6.196105 8.4868466,6.0411988 8.4372855,5.891698 L 7.3683137,2.8025192 C 7.4728004,2.7012033 7.5598438,2.583396 7.6256185,2.4535662 7.8898789,1.9272107 7.7668069,1.3081828 7.3638837,0.9199446 7.2709016,0.83035129 7.1629367,0.75295823 7.0414702,0.69197506 6.5960928,0.46837015 6.0841713,0.52226103 5.7018468,0.78815772 Z M 5.9780414,1.2182299 C 6.2132465,1.04589 6.5340697,1.0081034 6.8124425,1.1479519 c 0.049501,0.024837 0.094966,0.054305 0.1368477,0.087277 0.2931723,0.2308134 0.3943854,0.6428908 0.2203514,0.98931 C 6.9709497,2.6205482 6.4885356,2.7809359 6.0926278,2.5820401 5.6966177,2.3833479 5.5365327,1.9013611 5.7354286,1.5054537 5.7944152,1.3878881 5.8787326,1.2909956 5.9780414,1.2182299 Z" />
  <path
     style="color:#000000;font-style:normal;font-variant:normal;font-weight:normal;font-stretch:normal;font-size:medium;line-height:normal;font-family:sans-serif;font-variant-ligatures:normal;font-variant-position:normal;font-variant-caps:normal;font-variant-numeric:normal;font-variant-alternates:normal;font-feature-settings:normal;text-indent:0;text-align:start;text-decoration:none;text-decoration-line:none;text-decoration-style:solid;text-decoration-color:#000000;letter-spacing:normal;word-spacing:normal;text-transform:none;writing-mode:lr-tb;direction:ltr;text-orientation:mixed;dominant-baseline:auto;baseline-shift:baseline;text-anchor:start;white-space:normal;shape-padding:0;clip-rule:nonzero;display:inline;overflow:visible;visibility:visible;opacity:1;isolation:auto;mix-blend-mode:normal;color-interpolation:sRGB;color-interpolation-filters:linearRGB;solid-color:#000000;solid-opacity:1;vector-effect:none;fill:#b1b1b1;fill-opacity:1;fill-rule:nonzero;stroke:none;stroke-width:0.620141;stroke-linecap:round;stroke-linejoin:miter;stroke-miterlimit:4;stroke-dasharray:0.620141, 1.24028;stroke-dashoffset:4.58905;stroke-opacity:1;color-rendering:auto;image-rendering:auto;shape-rendering:auto;text-rendering:auto;enable-background:accumulate"
     d="M 4.9133885,5.920161 A 0.31010134,0.31010134 0 0 0 4.8010894,5.902444 l -0.6197801,0.014269 a 0.31010134,0.31010134 0 1 0 0.014269,0.6197811 l 0.6191905,-0.012796 a 0.31010134,0.31010134 0 0 0 0.09862,-0.6035308 z"
     id="path1047"
     inkscape:connector-curvature="0" />
  <path
     style="color:#000000;font-style:normal;font-variant:normal;font-weight:normal;font-stretch:normal;font-size:medium;line-height:normal;font-family:sans-serif;font-variant-ligatures:normal;font-variant-position:normal;font-variant-caps:normal;font-variant-numeric:normal;font-variant-alternates:normal;font-feature-settings:normal;text-indent:0;text-align:start;text-decoration:none;text-decoration-line:none;text-decoration-style:solid;text-decoration-color:#000000;letter-spacing:normal;word-spacing:normal;text-transform:none;writing-mode:lr-tb;direction:ltr;text-orientation:mixed;dominant-baseline:auto;baseline-shift:baseline;text-anchor:start;white-space:normal;shape-padding:0;clip-rule:nonzero;display:inline;overflow:visible;visibility:visible;opacity:1;isolation:auto;mix-blend-mode:normal;color-interpolation:sRGB;color-interpolation-filters:linearRGB;solid-color:#000000;solid-opacity:1;vector-effect:none;fill:#b1b1b1;fill-opacity:1;fill-rule:nonzero;stroke:none;stroke-width:0.620141;stroke-linecap:round;stroke-linejoin:miter;stroke-miterlimit:4;stroke-dasharray:0.620141, 1.24028;stroke-dashoffset:4.58905;stroke-opacity:1;color-rendering:auto;image-rendering:auto;shape-rendering:auto;text-rendering:auto;enable-background:accumulate"
     d="M 3.3225439,5.9470612 A 0.31010134,0.31010134 0 0 0 3.2096561,5.9308095 L 2.589876,5.9450795 A 0.31010134,0.31010134 0 1 0 2.604145,6.5648591 L 3.2239253,6.5505881 A 0.31010134,0.31010134 0 0 0 3.3225443,5.947056 Z"
     id="path1045"
     inkscape:connector-curvature="0" />
  <path
     id="path944"
     style="opacity:1;fill:#b1b1b1;fill-opacity:1;stroke:none;stroke-width:1.41155;stroke-linecap:butt;stroke-linejoin:miter;stroke-miterlimit:4;stroke-dasharray:none;stroke-dashoffset:0;stroke-opacity:1"
     d="M 1.2048936,3.2732425 0.94252192,4.9668194 C 0.80276801,5.0074508 0.67036618,5.0710901 0.55148295,5.1550495 -0.03912183,5.5753378 -0.17697988,6.3950394 0.24330961,6.9856433 0.66359903,7.5762471 1.4833,7.714106 2.0739036,7.2938167 2.6645083,6.8735285 2.802671,6.0542321 2.3823808,5.4636271 2.2975668,5.3453534 2.1934204,5.2421454 2.0746959,5.1579615 L 2.3378684,3.4561836 C 1.9430578,3.5313211 1.5430102,3.4609222 1.2048943,3.2732379 Z M 0.81437622,5.5957071 c 0.010732,-0.00849 0.0218947,-0.016918 0.033175,-0.024937 C 0.98290016,5.4744079 1.1381249,5.4261291 1.2925913,5.4223632 1.5500321,5.41608 1.8061687,5.5340381 1.9666643,5.759699 2.2236447,6.1206207 2.138888,6.6213098 1.7778355,6.8781043 1.4169126,7.1350815 0.91612531,7.051037 0.65933014,6.6899873 0.41037998,6.3403454 0.48143498,5.8589229 0.81437582,5.595715 Z M 1.0997671,5.9694248 C 0.96749966,6.0795508 0.94059796,6.2749174 1.0420728,6.4174347 1.148462,6.5670173 1.3564714,6.6019242 1.5059988,6.4954582 1.6556106,6.3891085 1.690083,6.1813637 1.5836178,6.0318356 1.5171224,5.9383484 1.41143,5.8899551 1.3047718,5.8925588 c -0.063996,0.00156 -0.1282988,0.021431 -0.1843711,0.061356 -0.007,0.00494 -0.014125,0.010094 -0.02063,0.015509 z" />
  <path
     style="color:#000000;font-style:normal;font-variant:normal;font-weight:normal;font-stretch:normal;font-size:medium;line-height:normal;font-family:sans-serif;font-variant-ligatures:normal;font-variant-position:normal;font-variant-caps:normal;font-variant-numeric:normal;font-variant-alternates:normal;font-feature-settings:normal;text-indent:0;text-align:start;text-decoration:none;text-decoration-line:none;text-decoration-style:solid;text-decoration-color:#000000;letter-spacing:normal;word-spacing:normal;text-transform:none;writing-mode:lr-tb;direction:ltr;text-orientation:mixed;dominant-baseline:auto;baseline-shift:baseline;text-anchor:start;white-space:normal;shape-padding:0;clip-rule:nonzero;display:inline;overflow:visible;visibility:visible;opacity:1;isolation:auto;mix-blend-mode:normal;color-interpolation:sRGB;color-interpolation-filters:linearRGB;solid-color:#000000;solid-opacity:1;vector-effect:none;fill:#b1b1b1;fill-opacity:1;fill-rule:nonzero;stroke:none;stroke-width:0.620141;stroke-linecap:round;stroke-linejoin:miter;stroke-miterlimit:4;stroke-dasharray:0.620141, 1.24028;stroke-dashoffset:4.58905;stroke-opacity:1;color-rendering:auto;image-rendering:auto;shape-rendering:auto;text-rendering:auto;enable-background:accumulate"
     d="M 6.6331802,5.920161 A 0.31010134,0.31010134 0 0 0 6.5208811,5.902444 L 5.901101,5.916713 A 0.31010134,0.31010134 0 1 0 5.91537,6.5364941 l 0.6191905,-0.012796 a 0.31010134,0.31010134 0 0 0 0.09862,-0.6035308 z"
     id="path1564"
     inkscape:connector-curvature="0" />
</svg>
