<?xml version="1.0" encoding="UTF-8" standalone="no"?>
<svg
   xmlns:dc="http://purl.org/dc/elements/1.1/"
   xmlns:cc="http://creativecommons.org/ns#"
   xmlns:rdf="http://www.w3.org/1999/02/22-rdf-syntax-ns#"
   xmlns:svg="http://www.w3.org/2000/svg"
   xmlns="http://www.w3.org/2000/svg"
   xmlns:sodipodi="http://sodipodi.sourceforge.net/DTD/sodipodi-0.dtd"
   xmlns:inkscape="http://www.inkscape.org/namespaces/inkscape"
   width="32"
   height="32"
   viewBox="0 0 8.4666666 8.4666666"
   version="1.1"
   id="svg8"
   inkscape:version="1.0.2-2 (e86c870879, 2021-01-15)"
   sodipodi:docname="update.svg">
  <defs
     id="defs2" />
  <sodipodi:namedview
     id="base"
     pagecolor="#ffffff"
     bordercolor="#666666"
     borderopacity="1.0"
     inkscape:pageopacity="0.0"
     inkscape:pageshadow="2"
     inkscape:zoom="8"
     inkscape:cx="-12.194746"
     inkscape:cy="22.650104"
     inkscape:document-units="mm"
     inkscape:current-layer="layer1"
     showgrid="false"
     units="px"
     inkscape:window-width="1858"
     inkscape:window-height="1057"
     inkscape:window-x="-5"
     inkscape:window-y="-1"
     inkscape:window-maximized="1"
     inkscape:document-rotation="0">
    <sodipodi:guide
       position="8.4666666,0"
       orientation="-32,0"
       id="guide854"
       inkscape:locked="false" />
    <sodipodi:guide
       position="8.4666666,8.4666666"
       orientation="0,-32"
       id="guide856"
       inkscape:locked="false" />
    <sodipodi:guide
       position="0,8.4666814"
       orientation="32,0"
       id="guide858"
       inkscape:locked="false" />
  </sodipodi:namedview>
  <metadata
     id="metadata5">
    <rdf:RDF>
      <cc:Work
         rdf:about="">
        <dc:format>image/svg+xml</dc:format>
        <dc:type
           rdf:resource="http://purl.org/dc/dcmitype/StillImage" />
        <dc:title />
      </cc:Work>
    </rdf:RDF>
  </metadata>
  <g
     inkscape:label="Layer 1"
     inkscape:groupmode="layer"
     id="layer1"
     transform="translate(0,-288.53334)">
    <path
       id="path1009"
       d="m 5.6467769,291.24394 c -0.3869161,-0.36229 -0.889033,-0.56088 -1.4217201,-0.56041 -0.9586634,7.2e-4 -1.7862839,0.65816 -2.0147923,1.56996 -0.016634,0.0664 -0.075769,0.11325 -0.1441993,0.11325 H 1.3568513 c -0.092799,0 -0.1632963,-0.0842 -0.1461301,-0.17545 0.2677916,-1.42207 1.5163388,-2.49789 3.0162169,-2.49789 0.8223975,0 1.5692362,0.32348 2.1202902,0.85009 l 0.4420286,-0.44204 c 0.1871214,-0.18712 0.5070677,-0.0546 0.5070677,0.21005 v 1.65919 c 0,0.16405 -0.1329863,0.29703 -0.2970374,0.29703 H 5.3400981 c -0.2646356,0 -0.3971638,-0.31994 -0.2100426,-0.50708 z m -4.1921879,2.01391 h 1.659189 c 0.2646355,0 0.3971637,0.31995 0.2100425,0.50708 l -0.5167212,0.51672 c 0.3869159,0.3623 0.88907,0.56089 1.4217695,0.56041 0.9581684,-7.3e-4 1.7861229,-0.65774 2.014743,-1.56996 0.016634,-0.0664 0.075768,-0.11324 0.1441993,-0.11324 h 0.7092261 c 0.092799,0 0.1632962,0.0842 0.1461298,0.17545 -0.2678038,1.42204 -1.516351,2.49787 -3.0162289,2.49787 -0.8223976,0 -1.5692363,-0.32348 -2.1202902,-0.85009 l -0.4420287,0.44203 c -0.1871212,0.18713 -0.5070676,0.0546 -0.5070676,-0.21005 v -1.65918 c 0,-0.16405 0.1329861,-0.29704 0.2970374,-0.29704 z"
       inkscape:connector-curvature="0"
       style="fill:#b1b1b1;fill-opacity:1;stroke-width:0.0123766" />
  </g>
</svg>
