<?xml version="1.0" encoding="UTF-8" standalone="no"?>
<svg
   id="Calque_1"
   data-name="Calque 1"
   viewBox="0 0 32 32"
   version="1.1"
   sodipodi:docname="walk_cycle.svg"
   inkscape:version="1.1.1 (3bf5ae0d25, 2021-09-20)"
   inkscape:export-filename="D:\RxLab\src\RxOT\DuAEF\Duik\inc\icons\w16\w16_walk_cycle.png"
   inkscape:export-xdpi="48"
   inkscape:export-ydpi="48"
   xmlns:inkscape="http://www.inkscape.org/namespaces/inkscape"
   xmlns:sodipodi="http://sodipodi.sourceforge.net/DTD/sodipodi-0.dtd"
   xmlns="http://www.w3.org/2000/svg"
   xmlns:svg="http://www.w3.org/2000/svg"
   xmlns:rdf="http://www.w3.org/1999/02/22-rdf-syntax-ns#"
   xmlns:cc="http://creativecommons.org/ns#"
   xmlns:dc="http://purl.org/dc/elements/1.1/">
  <metadata
     id="metadata31">
    <rdf:RDF>
      <cc:Work
         rdf:about="">
        <dc:format>image/svg+xml</dc:format>
        <dc:type
           rdf:resource="http://purl.org/dc/dcmitype/StillImage" />
        <dc:title>body_l</dc:title>
      </cc:Work>
    </rdf:RDF>
  </metadata>
  <sodipodi:namedview
     pagecolor="#ffffff"
     bordercolor="#666666"
     borderopacity="1"
     objecttolerance="10"
     gridtolerance="10"
     guidetolerance="10"
     inkscape:pageopacity="0"
     inkscape:pageshadow="2"
     inkscape:window-width="3440"
     inkscape:window-height="1369"
     id="namedview29"
     showgrid="false"
     inkscape:snap-bbox="true"
     inkscape:bbox-paths="true"
     inkscape:bbox-nodes="true"
     inkscape:snap-bbox-edge-midpoints="true"
     inkscape:snap-bbox-midpoints="true"
     inkscape:snap-nodes="false"
     inkscape:zoom="10.429825"
     inkscape:cx="13.183347"
     inkscape:cy="6.1841881"
     inkscape:window-x="1912"
     inkscape:window-y="-8"
     inkscape:window-maximized="1"
     inkscape:current-layer="Calque_1"
     inkscape:document-rotation="0"
     inkscape:pagecheckerboard="0" />
  <defs
     id="defs4">
    <style
       id="style2">.cls-1{fill:#e3e3e3;}</style>
    <style
       id="style1399">.cls-1{fill:#e3e3e3;}</style>
    <style
       id="style1399-4">.cls-1{fill:#e3e3e3;}</style>
    <style
       id="style1399-8">.cls-1{fill:#e3e3e3;}</style>
    <style
       id="style1399-4-5">.cls-1{fill:#e3e3e3;}</style>
    <style
       id="style1399-0">.cls-1{fill:#e3e3e3;}</style>
    <style
       id="style854">.cls-1{fill:#e3e3e3;}</style>
    <style
       id="style1399-84">.cls-1{fill:#e3e3e3;}</style>
    <style
       id="style1399-4-8">.cls-1{fill:#e3e3e3;}</style>
    <style
       id="style1399-8-10">.cls-1{fill:#e3e3e3;}</style>
    <style
       id="style1399-4-5-3">.cls-1{fill:#e3e3e3;}</style>
    <style
       id="style1399-0-0">.cls-1{fill:#e3e3e3;}</style>
    <style
       id="style1399-5">.cls-1{fill:#e3e3e3;}</style>
    <style
       id="style1399-4-6">.cls-1{fill:#e3e3e3;}</style>
    <style
       id="style1399-8-1">.cls-1{fill:#e3e3e3;}</style>
    <style
       id="style1399-4-5-1">.cls-1{fill:#e3e3e3;}</style>
    <style
       id="style1399-0-5">.cls-1{fill:#e3e3e3;}</style>
    <style
       id="style1257">.cls-1{fill:#e3e3e3;}</style>
    <style
       id="style836">.cls-1{fill:#e3e3e3;}</style>
    <style
       id="style891">.cls-1{fill:#e3e3e3;}</style>
    <inkscape:path-effect
       oposite_fuse="false"
       fuse_paths="false"
       discard_orig_path="false"
       mode="free"
       is_visible="true"
       id="path-effect860"
       center_point="4.2644223,4.1242769"
       end_point="4.2644223,6.6226791"
       start_point="4.2644223,1.6258747"
       effect="mirror_symmetry" />
    <style
       id="style1399-9">.cls-1{fill:#e3e3e3;}</style>
    <style
       id="style1399-4-63">.cls-1{fill:#e3e3e3;}</style>
    <style
       id="style1399-8-8">.cls-1{fill:#e3e3e3;}</style>
    <style
       id="style1399-4-5-5">.cls-1{fill:#e3e3e3;}</style>
    <style
       id="style1399-0-6">.cls-1{fill:#e3e3e3;}</style>
    <style
       id="style854-1">.cls-1{fill:#e3e3e3;}</style>
    <style
       id="style1399-84-1">.cls-1{fill:#e3e3e3;}</style>
    <style
       id="style1399-4-8-5">.cls-1{fill:#e3e3e3;}</style>
    <style
       id="style1399-8-10-9">.cls-1{fill:#e3e3e3;}</style>
    <style
       id="style1399-4-5-3-8">.cls-1{fill:#e3e3e3;}</style>
    <style
       id="style1399-0-0-4">.cls-1{fill:#e3e3e3;}</style>
    <style
       id="style1399-5-8">.cls-1{fill:#e3e3e3;}</style>
    <style
       id="style1399-4-6-1">.cls-1{fill:#e3e3e3;}</style>
    <style
       id="style1399-8-1-0">.cls-1{fill:#e3e3e3;}</style>
    <style
       id="style1399-4-5-1-3">.cls-1{fill:#e3e3e3;}</style>
    <style
       id="style1399-0-5-0">.cls-1{fill:#e3e3e3;}</style>
    <style
       id="style1257-4">.cls-1{fill:#e3e3e3;}</style>
    <style
       id="style836-4">.cls-1{fill:#e3e3e3;}</style>
    <style
       id="style891-4">.cls-1{fill:#e3e3e3;}</style>
    <style
       id="style1399-3">.cls-1{fill:#e3e3e3;}</style>
  </defs>
  <title
     id="title6">body_l</title>
  <path
     id="path8"
     style="fill:#232323;fill-opacity:1;stroke-width:1.15901"
     d="M 2.1557404,0.04194098 C 2.0032193,0.02324739 1.8501462,0.03074131 1.6969918,0.06938749 0.1331209,0.46400406 -0.2503269,3.1101818 0.1795914,4.664718 0.47324659,5.7265325 1.6079153,7.0738619 2.6811446,6.8251506 4.1460775,6.4856663 4.755717,4.1470878 4.4494845,2.6748458 4.2243144,1.5923241 3.2233898,0.17279612 2.1557404,0.04194098 Z M 7.2353059,2.292555 C 6.9812687,2.2728774 6.7429013,2.3190432 6.5550238,2.4513528 5.6166745,3.112168 5.8709395,5.5108295 6.9608403,5.8704041 7.9133626,6.1846559 9.2016204,4.6659913 9.0252104,3.678604 8.9039654,2.9999784 7.9974154,2.3515895 7.2353059,2.292555 Z m 4.0346381,1.5409257 c -0.107476,0.00545 -0.210819,0.028921 -0.305832,0.074498 -0.955349,0.4582653 -1.0796213,2.6877999 -0.139193,3.1759537 0.814102,0.422581 2.191263,-0.7649041 2.180037,-1.6820792 -0.009,-0.7376006 -0.98268,-1.6064949 -1.735012,-1.5683725 z m 3.24457,2.6446676 c -0.08525,0.012515 -0.164996,0.040954 -0.237216,0.0843 -0.722885,0.433876 -0.664053,2.2043765 0.115667,2.5250792 0.680182,0.2797633 1.699991,-0.762418 1.623266,-1.4938745 C 15.954721,7.0072672 15.111248,6.3905429 14.514514,6.4781483 Z M 6.6922566,7.8112646 C 5.8919,7.7714656 5.1095438,7.8845801 4.412236,8.2111995 2.8427778,8.9463353 1.8510506,10.883657 1.6303352,12.602642 c -0.2830367,2.204354 1.904573,4.132839 2.0271218,6.351908 0.1521155,2.754468 -2.2678742,5.427771 -1.6330674,8.112404 0.4794451,2.02761 1.7766731,5.148118 3.8483928,4.926649 3.8228013,-0.408658 3.378848,-6.906391 5.0168316,-10.384584 1.184324,-2.514866 3.788624,-4.816802 3.477865,-7.579158 C 14.131826,11.935109 12.344818,10.06474 10.519086,9.0110693 9.4075584,8.3695835 8.0261854,7.8775971 6.6922566,7.8112646 Z" />
  <path
     id="path819"
     d="M 31.268077,22.73226 20.291466,16.242962 c -0.891849,-0.527001 -2.257689,-0.01559 -2.257689,1.287881 V 30.50632 c 0,1.169383 1.269171,1.87413 2.257689,1.28788 l 10.976611,-6.486178 c 0.979162,-0.576896 0.982281,-1.998866 0,-2.575762 z"
     inkscape:connector-curvature="0"
     style="fill:#232323;fill-opacity:1;stroke-width:0.0311836" />
</svg>
