<?xml version="1.0" encoding="UTF-8" standalone="no"?>
<svg
   xmlns:dc="http://purl.org/dc/elements/1.1/"
   xmlns:cc="http://creativecommons.org/ns#"
   xmlns:rdf="http://www.w3.org/1999/02/22-rdf-syntax-ns#"
   xmlns:svg="http://www.w3.org/2000/svg"
   xmlns="http://www.w3.org/2000/svg"
   xmlns:sodipodi="http://sodipodi.sourceforge.net/DTD/sodipodi-0.dtd"
   xmlns:inkscape="http://www.inkscape.org/namespaces/inkscape"
   width="32"
   height="32"
   viewBox="0 0 8.4666666 8.4666666"
   version="1.1"
   id="svg8"
   inkscape:version="1.0.2-2 (e86c870879, 2021-01-15)"
   sodipodi:docname="bake.svg"
   inkscape:export-filename="D:\DEV_SRC\RxOT\DuAEF_Duik\icons\w12/w12_bake.png"
   inkscape:export-xdpi="36"
   inkscape:export-ydpi="36">
  <defs
     id="defs2">
    <style
       id="style857">.cls-1{fill:#e52120;}.cls-1,.cls-2,.cls-3,.cls-4,.cls-5{stroke:#000;stroke-miterlimit:10;stroke-width:1.2px;}.cls-2{fill:#6dbc88;}.cls-3{fill:#701034;}.cls-4{fill:#51aae0;}.cls-5{fill:none;}</style>
    <style
       id="style835">.cls-1{fill:#e3e3e3;}</style>
  </defs>
  <sodipodi:namedview
     id="base"
     pagecolor="#ffffff"
     bordercolor="#666666"
     borderopacity="1.0"
     inkscape:pageopacity="0.0"
     inkscape:pageshadow="2"
     inkscape:zoom="22.627417"
     inkscape:cx="12.970958"
     inkscape:cy="12.986309"
     inkscape:document-units="mm"
     inkscape:current-layer="g865"
     showgrid="false"
     units="px"
     inkscape:window-width="3440"
     inkscape:window-height="1417"
     inkscape:window-x="1915"
     inkscape:window-y="-8"
     inkscape:window-maximized="1"
     inkscape:document-rotation="0">
    <sodipodi:guide
       position="8.4666666,0"
       orientation="-32,0"
       id="guide854"
       inkscape:locked="false" />
    <sodipodi:guide
       position="8.4666666,8.4666666"
       orientation="0,-32"
       id="guide856"
       inkscape:locked="false" />
    <sodipodi:guide
       position="0,8.4666814"
       orientation="32,0"
       id="guide858"
       inkscape:locked="false" />
  </sodipodi:namedview>
  <metadata
     id="metadata5">
    <rdf:RDF>
      <cc:Work
         rdf:about="">
        <dc:format>image/svg+xml</dc:format>
        <dc:type
           rdf:resource="http://purl.org/dc/dcmitype/StillImage" />
        <dc:title />
      </cc:Work>
    </rdf:RDF>
  </metadata>
  <style
     type="text/css"
     id="style815">
	.st0{fill:#00005B;}
	.st1{fill:#9999FF;}
</style>
  <g
     id="g865"
     transform="matrix(0.28711256,0,0,0.28711256,-0.42819887,-0.42913465)">
    <path
       id="rect841"
       style="fill:#b1b1b1;fill-opacity:1;stroke:none;stroke-width:0.921532"
       d="m 4.6699618,5.6634988 c -1.7314723,0 -3.1353678,1.4020959 -3.1353678,3.1335679 V 23.282393 c 2e-7,1.731473 1.4038957,3.135368 3.1353678,3.135368 H 27.828846 c 1.731472,0 3.135368,-1.403895 3.135368,-3.135368 V 8.7970667 c 0,-1.7314718 -1.403896,-3.1335677 -3.135368,-3.1335679 z M 6.4650614,10.307082 H 20.451019 V 22.049707 H 6.4650614 Z M 26.100848,7.963729 c 1.153617,0.1409859 2.183882,1.0882785 2.172565,2.458839 1.3e-5,1.350874 -1.092444,2.448817 -2.443305,2.454401 v -0.02219 c -2.192951,0.0089 -3.293517,-2.642547 -1.739828,-4.1897904 0.68003,-0.6253757 1.240727,-0.6705467 2.010568,-0.7012596 z m -10.12799,4.59395 c -0.107974,-0.01916 -0.215969,-0.0038 -0.296398,0.0029 -0.16086,0.01346 -2.58481,0.646712 -3.067147,1.457295 -0.482338,0.810583 -0.520141,1.633519 -0.546305,2.247691 -0.02616,0.614173 -0.05495,1.030345 -0.20341,1.330889 -0.148457,0.300543 -1.100604,1.347784 -1.294566,1.543017 -0.193962,0.195232 -0.356674,0.372481 -0.258622,0.613139 0.09787,0.240344 0.316299,0.323547 0.613139,0.258623 0.296839,-0.06493 2.415542,-0.674589 2.817242,-1.487806 0.401699,-0.813217 0.395194,-1.589312 0.419899,-2.169233 0.0247,-0.579921 0.06714,-0.95203 0.25281,-1.264054 0.185668,-0.312022 1.44363,-1.483935 1.596776,-1.650535 0.153146,-0.166598 0.414635,-0.429882 0.260075,-0.682879 -0.07728,-0.126505 -0.293493,-0.0894 -0.293493,-0.199055 z m 10.114674,1.486564 c 1.152517,0.134069 2.18587,1.073528 2.185881,2.441085 1.3e-5,1.350874 -1.092444,2.446599 -2.443305,2.452182 -2.188075,0.0089 -3.292523,-2.632908 -1.748704,-4.183132 0.677023,-0.628278 1.236492,-0.675773 2.006128,-0.710135 z"
       sodipodi:nodetypes="sssccssssccccccccccccsssssccsccscscccscc" />
  </g>
</svg>
