<?xml version="1.0" encoding="UTF-8" standalone="no"?>
<svg
   id="Calque_1"
   data-name="Calque 1"
   viewBox="0 0 32 32"
   version="1.1"
   sodipodi:docname="bear_arm.svg"
   inkscape:version="1.1 (c68e22c387, 2021-05-23)"
   inkscape:export-filename="D:\DEV_SRC\RxOT\DuAEF\DuAEF_Duik\icons\w128/w128_bear_arm.png"
   inkscape:export-xdpi="384"
   inkscape:export-ydpi="384"
   xmlns:inkscape="http://www.inkscape.org/namespaces/inkscape"
   xmlns:sodipodi="http://sodipodi.sourceforge.net/DTD/sodipodi-0.dtd"
   xmlns="http://www.w3.org/2000/svg"
   xmlns:svg="http://www.w3.org/2000/svg"
   xmlns:rdf="http://www.w3.org/1999/02/22-rdf-syntax-ns#"
   xmlns:cc="http://creativecommons.org/ns#"
   xmlns:dc="http://purl.org/dc/elements/1.1/">
  <metadata
     id="metadata31">
    <rdf:RDF>
      <cc:Work
         rdf:about="">
        <dc:format>image/svg+xml</dc:format>
        <dc:type
           rdf:resource="http://purl.org/dc/dcmitype/StillImage" />
        <dc:title>body_l</dc:title>
      </cc:Work>
    </rdf:RDF>
  </metadata>
  <sodipodi:namedview
     pagecolor="#ffffff"
     bordercolor="#666666"
     borderopacity="1"
     objecttolerance="10"
     gridtolerance="10"
     guidetolerance="10"
     inkscape:pageopacity="0"
     inkscape:pageshadow="2"
     inkscape:window-width="1920"
     inkscape:window-height="1027"
     id="namedview29"
     showgrid="false"
     inkscape:snap-bbox="true"
     inkscape:bbox-paths="true"
     inkscape:bbox-nodes="true"
     inkscape:snap-bbox-edge-midpoints="true"
     inkscape:snap-bbox-midpoints="true"
     inkscape:snap-nodes="false"
     inkscape:zoom="5.2149125"
     inkscape:cx="-19.559293"
     inkscape:cy="6.6156431"
     inkscape:window-x="-8"
     inkscape:window-y="-8"
     inkscape:window-maximized="1"
     inkscape:current-layer="g1118"
     inkscape:document-rotation="0"
     inkscape:pagecheckerboard="0" />
  <defs
     id="defs4">
    <style
       id="style2">.cls-1{fill:#e3e3e3;}</style>
    <style
       id="style857">.cls-1{fill:#e3e3e3;}</style>
    <style
       id="style990">.cls-1{fill:#e3e3e3;}</style>
    <style
       id="style1091">.cls-1{fill:#e3e3e3;}</style>
    <style
       id="style1399">.cls-1{fill:#e3e3e3;}</style>
    <style
       id="style1399-4">.cls-1{fill:#e3e3e3;}</style>
    <style
       id="style1399-8">.cls-1{fill:#e3e3e3;}</style>
    <style
       id="style1399-4-5">.cls-1{fill:#e3e3e3;}</style>
    <style
       id="style1399-0">.cls-1{fill:#e3e3e3;}</style>
    <style
       id="style854">.cls-1{fill:#e3e3e3;}</style>
    <style
       id="style1399-84">.cls-1{fill:#e3e3e3;}</style>
    <style
       id="style1399-4-8">.cls-1{fill:#e3e3e3;}</style>
    <style
       id="style1399-8-10">.cls-1{fill:#e3e3e3;}</style>
    <style
       id="style1399-4-5-3">.cls-1{fill:#e3e3e3;}</style>
    <style
       id="style1399-0-0">.cls-1{fill:#e3e3e3;}</style>
    <style
       id="style1399-5">.cls-1{fill:#e3e3e3;}</style>
    <style
       id="style1399-4-6">.cls-1{fill:#e3e3e3;}</style>
    <style
       id="style1399-8-1">.cls-1{fill:#e3e3e3;}</style>
    <style
       id="style1399-4-5-1">.cls-1{fill:#e3e3e3;}</style>
    <style
       id="style1399-0-5">.cls-1{fill:#e3e3e3;}</style>
    <style
       id="style1257">.cls-1{fill:#e3e3e3;}</style>
  </defs>
  <title
     id="title6">body_l</title>
  <g
     id="g1118"
     transform="matrix(1.1404506,0,0,1.1404506,-2.3537809,-2.1777348)">
    <path
       style="fill:#ec6418;fill-opacity:1;stroke:none;stroke-width:0.415326px;stroke-linecap:butt;stroke-linejoin:miter;stroke-opacity:1"
       d="m 16.149534,8.4946709 c 0.113675,0.9721759 0.09826,1.6578581 -0.491742,3.0250491 -0.720805,1.670269 -1.719612,2.996877 -1.934818,3.471402 -0.462356,1.019487 -0.136991,1.395502 -0.273351,1.716665 -0.383312,0.902804 -2.434884,0.76945 -2.003851,-1.155354 0.164007,-0.732381 1.278354,-1.918372 2.134685,-4.163749 0.516853,-1.35524 -0.326584,-2.7052225 0.119707,-3.7506668 0.444016,0.3344891 0.94728,0.614458 1.510259,0.7673115 0.317104,0.086101 0.632492,0.1103573 0.939112,0.089345 z"
       id="path4191" />
    <path
       style="fill:#ecbe18;fill-opacity:1;stroke:none;stroke-width:0.415326px;stroke-linecap:butt;stroke-linejoin:miter;stroke-opacity:1"
       d="m 15.390568,26.560317 c -0.382475,0.163414 -0.815118,0.08217 -1.095525,-0.445815 -0.263826,-0.496763 0.03536,-0.656155 -1.161731,-2.534967 -1.074997,-1.687193 -0.707306,-3.347043 -1.462888,-3.95761 -1.345822,-1.087528 -0.988096,-2.271373 -0.39089,-2.374127 0.0183,-0.0031 0.03557,0.0013 0.05317,0.0023 0.358846,0.548158 0.978208,0.909291 1.692215,0.753893 0.0048,-10e-4 0.0075,-0.0028 0.01219,-0.0039 0.03433,0.0031 0.07034,0.0091 0.109131,0.02085 0.298933,0.09084 0.208061,0.400993 0.198277,0.63879 -0.04897,1.189906 -0.06428,2.073347 0.763007,3.490313 0.860274,1.473456 1.916987,2.043946 2.081626,2.99419 0.102494,0.591529 -0.30682,1.205988 -0.79858,1.416081 z"
       id="path4189"
       sodipodi:nodetypes="cssssccccssscc" />
    <path
       style="fill:#ec1818;fill-opacity:1;stroke:none;stroke-width:0.415326px;stroke-linecap:butt;stroke-linejoin:miter;stroke-opacity:1"
       d="m 18.019236,4.8120051 c 0.07315,0.1509606 0.110559,0.3150384 0.106102,0.4879147 -0.04018,1.5585489 -1.33214,2.5931936 -2.67658,2.2281657 C 14.21973,7.1943922 12.973944,5.8831067 12.962733,5.13909 c 0.0088,-0.6348124 2.250348,-1.4206839 3.611524,-1.2174024 0.68599,0.1024471 1.225543,0.4374349 1.444979,0.8903175 z"
       id="path4187" />
    <path
       style="fill:#61b7eb;fill-opacity:1;stroke:none;stroke-width:0.470019px;stroke-linecap:butt;stroke-linejoin:miter;stroke-opacity:1"
       d="m 18.98865,27.684755 c -1.255784,-0.610501 -3.28206,-1.055037 -3.791157,-0.255715 -0.509095,0.799322 0.458897,1.346622 0.774363,1.38317 0.315467,0.03654 0.878933,-0.115874 1.201648,-0.190124 0.322714,-0.07425 0.701156,0.204838 1.010159,0.06909 0.393306,-0.172783 1.250619,-0.789775 0.804987,-1.006422 z"
       id="path1312"
       sodipodi:nodetypes="ssssas" />
    <path
       style="fill:#7878ec;fill-opacity:1;stroke:none;stroke-width:0.481655px;stroke-linecap:butt;stroke-linejoin:miter;stroke-opacity:1"
       d="m 19.555789,28.028135 c -0.357913,0.593941 -0.869475,0.614206 -0.746244,0.761636 0.150699,0.180292 1.318671,0.231663 2.499463,-0.374941 0.320823,-0.164816 -1.475227,-0.848005 -1.753219,-0.386695 z"
       id="path9658"
       sodipodi:nodetypes="ssss" />
  </g>
</svg>
