<?xml version="1.0" encoding="UTF-8" standalone="no"?>
<svg
   xmlns:dc="http://purl.org/dc/elements/1.1/"
   xmlns:cc="http://creativecommons.org/ns#"
   xmlns:rdf="http://www.w3.org/1999/02/22-rdf-syntax-ns#"
   xmlns:svg="http://www.w3.org/2000/svg"
   xmlns="http://www.w3.org/2000/svg"
   xmlns:sodipodi="http://sodipodi.sourceforge.net/DTD/sodipodi-0.dtd"
   xmlns:inkscape="http://www.inkscape.org/namespaces/inkscape"
   width="32"
   height="32"
   viewBox="0 0 8.4666666 8.4666666"
   version="1.1"
   id="svg8"
   inkscape:version="1.0.2-2 (e86c870879, 2021-01-15)"
   sodipodi:docname="biped.svg"
   inkscape:export-filename="D:\DEV_SRC\RxOT\DuAEF_Duik\icons/w16\w16_biped.png"
   inkscape:export-xdpi="48"
   inkscape:export-ydpi="48">
  <defs
     id="defs2">
    <style
       id="style1399">.cls-1{fill:#e3e3e3;}</style>
    <style
       id="style1399-4">.cls-1{fill:#e3e3e3;}</style>
    <style
       id="style1399-8">.cls-1{fill:#e3e3e3;}</style>
    <style
       id="style1399-4-5">.cls-1{fill:#e3e3e3;}</style>
    <style
       id="style1399-0">.cls-1{fill:#e3e3e3;}</style>
    <style
       id="style854">.cls-1{fill:#e3e3e3;}</style>
    <style
       id="style1399-84">.cls-1{fill:#e3e3e3;}</style>
    <style
       id="style1399-4-8">.cls-1{fill:#e3e3e3;}</style>
    <style
       id="style1399-8-10">.cls-1{fill:#e3e3e3;}</style>
    <style
       id="style1399-4-5-3">.cls-1{fill:#e3e3e3;}</style>
    <style
       id="style1399-0-0">.cls-1{fill:#e3e3e3;}</style>
    <style
       id="style1399-5">.cls-1{fill:#e3e3e3;}</style>
    <style
       id="style1399-4-6">.cls-1{fill:#e3e3e3;}</style>
    <style
       id="style1399-8-1">.cls-1{fill:#e3e3e3;}</style>
    <style
       id="style1399-4-5-1">.cls-1{fill:#e3e3e3;}</style>
    <style
       id="style1399-0-5">.cls-1{fill:#e3e3e3;}</style>
    <style
       id="style1257">.cls-1{fill:#e3e3e3;}</style>
    <style
       id="style1387">.cls-1{fill:#e3e3e3;}</style>
    <style
       id="style1399-59">.cls-1{fill:#e3e3e3;}</style>
    <style
       id="style1399-89">.cls-1{fill:#e3e3e3;}</style>
    <style
       id="style1399-4-64">.cls-1{fill:#e3e3e3;}</style>
    <style
       id="style1399-8-3">.cls-1{fill:#e3e3e3;}</style>
    <style
       id="style1399-4-5-33">.cls-1{fill:#e3e3e3;}</style>
    <style
       id="style1399-0-8">.cls-1{fill:#e3e3e3;}</style>
    <style
       id="style1399-7">.cls-1{fill:#e3e3e3;}</style>
    <style
       id="style1399-4-7">.cls-1{fill:#e3e3e3;}</style>
    <style
       id="style1399-8-6">.cls-1{fill:#e3e3e3;}</style>
    <style
       id="style1399-4-5-4">.cls-1{fill:#e3e3e3;}</style>
    <style
       id="style1399-0-3">.cls-1{fill:#e3e3e3;}</style>
    <style
       id="style1399-05">.cls-1{fill:#e3e3e3;}</style>
    <style
       id="style1399-4-9">.cls-1{fill:#e3e3e3;}</style>
    <style
       id="style1399-8-4">.cls-1{fill:#e3e3e3;}</style>
    <style
       id="style1399-4-5-6">.cls-1{fill:#e3e3e3;}</style>
    <style
       id="style1399-0-9">.cls-1{fill:#e3e3e3;}</style>
    <style
       id="style854-2">.cls-1{fill:#e3e3e3;}</style>
    <style
       id="style1399-84-2">.cls-1{fill:#e3e3e3;}</style>
    <style
       id="style1399-4-8-4">.cls-1{fill:#e3e3e3;}</style>
    <style
       id="style1399-8-10-7">.cls-1{fill:#e3e3e3;}</style>
    <style
       id="style1399-4-5-3-7">.cls-1{fill:#e3e3e3;}</style>
    <style
       id="style1399-0-0-5">.cls-1{fill:#e3e3e3;}</style>
    <style
       id="style1399-5-4">.cls-1{fill:#e3e3e3;}</style>
    <style
       id="style1399-4-6-8">.cls-1{fill:#e3e3e3;}</style>
    <style
       id="style1399-8-1-1">.cls-1{fill:#e3e3e3;}</style>
    <style
       id="style1399-4-5-1-2">.cls-1{fill:#e3e3e3;}</style>
    <style
       id="style1399-0-5-8">.cls-1{fill:#e3e3e3;}</style>
    <style
       id="style1257-9">.cls-1{fill:#e3e3e3;}</style>
    <style
       id="style1387-3">.cls-1{fill:#e3e3e3;}</style>
    <style
       id="style1399-59-6">.cls-1{fill:#e3e3e3;}</style>
    <style
       id="style1399-89-8">.cls-1{fill:#e3e3e3;}</style>
    <style
       id="style1399-4-64-0">.cls-1{fill:#e3e3e3;}</style>
    <style
       id="style1399-8-3-2">.cls-1{fill:#e3e3e3;}</style>
    <style
       id="style1399-4-5-33-1">.cls-1{fill:#e3e3e3;}</style>
    <style
       id="style1399-0-8-0">.cls-1{fill:#e3e3e3;}</style>
  </defs>
  <sodipodi:namedview
     id="base"
     pagecolor="#ffffff"
     bordercolor="#666666"
     borderopacity="1.0"
     inkscape:pageopacity="0.0"
     inkscape:pageshadow="2"
     inkscape:zoom="3.9999998"
     inkscape:cx="-25.518201"
     inkscape:cy="43.545466"
     inkscape:document-units="mm"
     inkscape:current-layer="svg8"
     showgrid="false"
     units="px"
     inkscape:window-width="3440"
     inkscape:window-height="1417"
     inkscape:window-x="1915"
     inkscape:window-y="-8"
     inkscape:window-maximized="1"
     inkscape:snap-bbox="true"
     inkscape:bbox-paths="true"
     inkscape:bbox-nodes="true"
     inkscape:snap-bbox-edge-midpoints="true"
     inkscape:snap-bbox-midpoints="true"
     inkscape:snap-nodes="true"
     inkscape:snap-others="true"
     inkscape:snap-object-midpoints="true"
     inkscape:snap-page="true"
     inkscape:document-rotation="0">
    <sodipodi:guide
       position="8.4666666,0"
       orientation="-32,0"
       id="guide854"
       inkscape:locked="false" />
    <sodipodi:guide
       position="8.4666666,8.4666666"
       orientation="0,-32"
       id="guide856"
       inkscape:locked="false" />
    <sodipodi:guide
       position="0,8.4666814"
       orientation="32,0"
       id="guide858"
       inkscape:locked="false" />
  </sodipodi:namedview>
  <metadata
     id="metadata5">
    <rdf:RDF>
      <cc:Work
         rdf:about="">
        <dc:format>image/svg+xml</dc:format>
        <dc:type
           rdf:resource="http://purl.org/dc/dcmitype/StillImage" />
        <dc:title />
      </cc:Work>
    </rdf:RDF>
  </metadata>
  <path
     id="path828"
     style="opacity:1;fill:#b1b1b1;fill-opacity:1;stroke:none;stroke-width:3.36416;stroke-linecap:butt;stroke-linejoin:miter;stroke-miterlimit:4;stroke-dasharray:none;stroke-dashoffset:0;stroke-opacity:1"
     d="M 16 0 A 4.1844129 4.1844129 0 0 0 11.816406 4.1835938 A 4.1844129 4.1844129 0 0 0 16 8.3691406 A 4.1844129 4.1844129 0 0 0 20.183594 4.1835938 A 4.1844129 4.1844129 0 0 0 16 0 z M 16 1.6230469 C 16.654506 1.6230469 17.309323 1.8754713 17.808594 2.375 C 18.807649 3.3735386 18.807649 4.9916942 17.808594 5.9902344 C 16.810054 6.9892886 15.189946 6.9892886 14.191406 5.9902344 C 13.192351 4.9916945 13.192353 3.3735392 14.191406 2.375 C 14.690677 1.8754725 15.345491 1.6230469 16 1.6230469 z M 16 3.1210938 C 15.728842 3.1210938 15.458799 3.2266461 15.251953 3.4335938 C 14.838051 3.847285 14.838051 4.5179521 15.251953 4.9316406 C 15.665644 5.3455424 16.334356 5.3455424 16.748047 4.9316406 C 17.161949 4.5179494 17.161949 3.8472835 16.748047 3.4335938 C 16.541197 3.2266397 16.271161 3.1210937 16 3.1210938 z M 11.953125 8.3691406 C 11.152562 8.3691406 10.351043 8.6743472 9.7402344 9.2851562 C 9.4958463 9.5313169 9.2953722 9.8165476 9.1445312 10.128906 L 1.3554688 10.232422 C 0.60471583 10.232421 2.9605947e-16 10.837138 0 11.587891 L 0 11.611328 C -1.3936059e-06 11.986719 0.14958929 12.327322 0.39453125 12.572266 C 0.63947412 12.817209 0.98009235 12.966797 1.3554688 12.966797 L 9.1445312 12.865234 C 9.2953684 13.17759 9.4958482 13.462823 9.7402344 13.708984 C 10.961853 14.930603 12.942445 14.930603 14.164062 13.708984 C 15.385681 12.487367 15.385681 10.506774 14.164062 9.2851562 C 13.553254 8.6743472 12.753688 8.3691406 11.953125 8.3691406 z M 20.046875 8.3691406 C 19.246312 8.3691406 18.446746 8.6743474 17.835938 9.2851562 C 16.614319 10.506774 16.614319 12.487367 17.835938 13.708984 C 19.057555 14.930603 21.038147 14.930603 22.259766 13.708984 C 22.504157 13.462824 22.704627 13.177592 22.855469 12.865234 L 30.644531 12.761719 C 31.395284 12.761719 32 12.157003 32 11.40625 L 32 11.380859 C 32.000001 11.005488 31.850411 10.666818 31.605469 10.421875 C 31.360526 10.176933 31.019908 10.02539 30.644531 10.025391 L 22.855469 10.128906 C 22.704628 9.816551 22.504152 9.5313184 22.259766 9.2851562 C 21.648957 8.6743474 20.847438 8.3691406 20.046875 8.3691406 z M 11.953125 9.5839844 C 12.442418 9.5839844 12.931448 9.7710992 13.304688 10.144531 C 14.051552 10.891011 14.051553 12.101176 13.304688 12.847656 C 12.558208 13.594522 11.348042 13.594521 10.601562 12.847656 C 9.8546976 12.101177 9.8546976 10.891012 10.601562 10.144531 C 10.974802 9.7710992 11.463832 9.5839844 11.953125 9.5839844 z M 20.046875 9.5839844 C 20.536168 9.5839844 21.025198 9.7710988 21.398438 10.144531 C 22.145303 10.891011 22.145303 12.101175 21.398438 12.847656 C 20.651958 13.59452 19.441791 13.59452 18.695312 12.847656 C 17.948447 12.101176 17.948447 10.891011 18.695312 10.144531 C 19.068552 9.7710988 19.557582 9.5839844 20.046875 9.5839844 z M 11.953125 10.705078 C 11.750414 10.705078 11.547209 10.780836 11.392578 10.935547 C 11.083156 11.24481 11.083156 11.747378 11.392578 12.056641 C 11.701842 12.366063 12.20441 12.366063 12.513672 12.056641 C 12.823094 11.747377 12.823095 11.244808 12.513672 10.935547 C 12.35904 10.780836 12.155836 10.705078 11.953125 10.705078 z M 20.046875 10.705078 C 19.844164 10.705078 19.640959 10.780836 19.486328 10.935547 C 19.176906 11.24481 19.176905 11.747379 19.486328 12.056641 C 19.795592 12.366063 20.29816 12.366063 20.607422 12.056641 C 20.916844 11.747377 20.916844 11.244809 20.607422 10.935547 C 20.45279 10.780836 20.249586 10.705078 20.046875 10.705078 z M 15.972656 13.125 C 15.24342 13.125 14.65625 13.71217 14.65625 14.441406 L 14.65625 16.496094 C 14.65625 17.22533 15.24342 17.8125 15.972656 17.8125 L 16.027344 17.8125 C 16.75658 17.8125 17.34375 17.22533 17.34375 16.496094 L 17.34375 14.441406 C 17.34375 13.71217 16.75658 13.125 16.027344 13.125 L 15.972656 13.125 z M 12.693359 16.919922 C 11.892796 16.919922 11.095184 17.225126 10.484375 17.835938 C 9.2627565 19.057555 9.2627565 21.038147 10.484375 22.259766 C 10.730536 22.504157 11.013814 22.704627 11.326172 22.855469 L 11.429688 30.644531 C 11.429688 31.395284 12.03245 32 12.783203 32 L 12.810547 32 C 13.185918 32.000001 13.524588 31.85041 13.769531 31.605469 C 14.014475 31.360525 14.166016 31.019908 14.166016 30.644531 L 14.064453 22.855469 C 14.376808 22.704628 14.662041 22.50415 14.908203 22.259766 C 16.129821 21.038147 16.129821 19.057555 14.908203 17.835938 C 14.29739 17.225127 13.493922 16.919922 12.693359 16.919922 z M 19.302734 16.919922 C 18.502171 16.919922 17.704559 17.225126 17.09375 17.835938 C 15.872131 19.057555 15.872131 21.038147 17.09375 22.259766 C 17.339911 22.504157 17.625142 22.704627 17.9375 22.855469 L 18.039062 30.644531 C 18.039062 31.395284 18.643778 32 19.394531 32 L 19.417969 32 C 19.79334 32.000001 20.133963 31.85041 20.378906 31.605469 C 20.62385 31.360525 20.773438 31.019908 20.773438 30.644531 L 20.673828 22.855469 C 20.986183 22.704628 21.271416 22.50415 21.517578 22.259766 C 22.739196 21.038147 22.739196 19.057555 21.517578 17.835938 C 20.906768 17.225127 20.103297 16.919922 19.302734 16.919922 z M 12.693359 18.134766 C 13.182652 18.134766 13.673635 18.32188 14.046875 18.695312 C 14.79374 19.441791 14.79374 20.651957 14.046875 21.398438 C 13.300395 22.145302 12.090231 22.145302 11.34375 21.398438 C 10.596886 20.651957 10.596886 19.441791 11.34375 18.695312 C 11.71699 18.32188 12.204067 18.134766 12.693359 18.134766 z M 19.302734 18.134766 C 19.792027 18.134766 20.28301 18.32188 20.65625 18.695312 C 21.403115 19.441791 21.403115 20.651957 20.65625 21.398438 C 19.90977 22.145302 18.699606 22.145302 17.953125 21.398438 C 17.206261 20.651957 17.206261 19.441791 17.953125 18.695312 C 18.326365 18.32188 18.813442 18.134766 19.302734 18.134766 z M 12.693359 19.255859 C 12.490648 19.255859 12.287444 19.331617 12.132812 19.486328 C 11.82339 19.795592 11.82339 20.29816 12.132812 20.607422 C 12.442076 20.916844 12.946598 20.916844 13.255859 20.607422 C 13.565282 20.298158 13.565282 19.795591 13.255859 19.486328 C 13.101228 19.331617 12.896072 19.255859 12.693359 19.255859 z M 19.302734 19.255859 C 19.100023 19.255859 18.900725 19.331617 18.746094 19.486328 C 18.436671 19.795592 18.436671 20.29816 18.746094 20.607422 C 19.055357 20.916844 19.55402 20.916844 19.863281 20.607422 C 20.172704 20.298158 20.172704 19.795591 19.863281 19.486328 C 19.708649 19.331617 19.505447 19.255859 19.302734 19.255859 z "
     transform="scale(0.26458333)" />
</svg>
