<?xml version="1.0" encoding="UTF-8" standalone="no"?>
<svg
   xmlns:dc="http://purl.org/dc/elements/1.1/"
   xmlns:cc="http://creativecommons.org/ns#"
   xmlns:rdf="http://www.w3.org/1999/02/22-rdf-syntax-ns#"
   xmlns:svg="http://www.w3.org/2000/svg"
   xmlns="http://www.w3.org/2000/svg"
   xmlns:sodipodi="http://sodipodi.sourceforge.net/DTD/sodipodi-0.dtd"
   xmlns:inkscape="http://www.inkscape.org/namespaces/inkscape"
   width="32"
   height="32"
   viewBox="0 0 8.4666666 8.4666666"
   version="1.1"
   id="svg8"
   inkscape:version="1.0.2-2 (e86c870879, 2021-01-15)"
   sodipodi:docname="bone.svg"
   inkscape:export-filename="D:\DEV_SRC\RxOT\DuAEF_Duik\icons\w16\w16_bone.png"
   inkscape:export-xdpi="48.000004"
   inkscape:export-ydpi="48.000004">
  <defs
     id="defs2">
    <style
       id="style1399">.cls-1{fill:#e3e3e3;}</style>
    <style
       id="style1399-4">.cls-1{fill:#e3e3e3;}</style>
    <style
       id="style1399-8">.cls-1{fill:#e3e3e3;}</style>
    <style
       id="style1399-4-5">.cls-1{fill:#e3e3e3;}</style>
    <style
       id="style1399-0">.cls-1{fill:#e3e3e3;}</style>
  </defs>
  <sodipodi:namedview
     id="base"
     pagecolor="#ffffff"
     bordercolor="#666666"
     borderopacity="1.0"
     inkscape:pageopacity="0.0"
     inkscape:pageshadow="2"
     inkscape:zoom="11.313708"
     inkscape:cx="17.42671"
     inkscape:cy="21.459652"
     inkscape:document-units="mm"
     inkscape:current-layer="svg8"
     showgrid="false"
     units="px"
     inkscape:window-width="3440"
     inkscape:window-height="1417"
     inkscape:window-x="1915"
     inkscape:window-y="-8"
     inkscape:window-maximized="1"
     inkscape:snap-bbox="true"
     inkscape:bbox-paths="true"
     inkscape:bbox-nodes="true"
     inkscape:snap-bbox-edge-midpoints="true"
     inkscape:snap-bbox-midpoints="true"
     inkscape:snap-nodes="false"
     inkscape:snap-others="true"
     inkscape:snap-object-midpoints="true"
     inkscape:snap-page="true"
     inkscape:document-rotation="0">
    <sodipodi:guide
       position="8.4666666,0"
       orientation="-32,0"
       id="guide854"
       inkscape:locked="false" />
    <sodipodi:guide
       position="9.9384114,8.4666666"
       orientation="0,-32"
       id="guide856"
       inkscape:locked="false" />
    <sodipodi:guide
       position="0,8.4666814"
       orientation="32,0"
       id="guide858"
       inkscape:locked="false" />
  </sodipodi:namedview>
  <metadata
     id="metadata5">
    <rdf:RDF>
      <cc:Work
         rdf:about="">
        <dc:format>image/svg+xml</dc:format>
        <dc:type
           rdf:resource="http://purl.org/dc/dcmitype/StillImage" />
        <dc:title />
      </cc:Work>
    </rdf:RDF>
  </metadata>
  <path
     style="opacity:1;fill:#b1b1b1;fill-opacity:1;stroke:none;stroke-width:2.36164975;stroke-linecap:butt;stroke-linejoin:miter;stroke-miterlimit:4;stroke-dasharray:none;stroke-dashoffset:0;stroke-opacity:1"
     d="M 7.399633,0 C 7.156458,0 6.9129829,0.09362138 6.7266494,0.27995501 L 2.9110631,4.1971596 C 2.6811353,4.116984 2.4394733,4.0756087 2.1959694,4.0747279 0.98316895,4.0747279 -4.4101834e-8,5.0578969 0,6.2706973 c -4.4101834e-8,1.2128004 0.98316895,2.1959694 2.1959694,2.1959694 1.2128004,0 2.1959694,-0.983169 2.1959694,-2.1959694 C 4.3910603,6.0271934 4.3496827,5.7855314 4.2695071,5.5556035 L 8.0843139,1.6376193 c 0.3726666,-0.3726668 0.3726666,-0.97252042 0,-1.34518723 l -0.012479,-0.012479 C 7.8855035,0.09362153 7.6428082,0 7.399633,0 Z M 2.1959694,4.9286293 c 0.7412827,-1.912e-4 1.342259,0.600785 1.342068,1.342068 1.91e-4,0.741283 -0.6007853,1.3422592 -1.342068,1.3420678 C 1.4546866,7.6129565 0.85371029,7.0119803 0.85390146,6.2706973 0.85371029,5.5294143 1.4546866,4.9284381 2.1959694,4.9286293 Z m 0,0.7860573 C 1.8888603,5.7146072 1.6398794,5.9635882 1.6399587,6.2706973 1.6398794,6.5778064 1.8888603,6.8267874 2.1959694,6.8267079 2.5030785,6.8267874 2.7520591,6.5778064 2.7519801,6.2706973 2.7520591,5.9635882 2.5030785,5.7146072 2.1959694,5.7146866 Z"
     id="path828"
     inkscape:connector-curvature="0"
     sodipodi:nodetypes="scccsscccccscccccccccc" />
</svg>
