<?xml version="1.0" encoding="UTF-8" standalone="no"?>
<svg
   xmlns:dc="http://purl.org/dc/elements/1.1/"
   xmlns:cc="http://creativecommons.org/ns#"
   xmlns:rdf="http://www.w3.org/1999/02/22-rdf-syntax-ns#"
   xmlns:svg="http://www.w3.org/2000/svg"
   xmlns="http://www.w3.org/2000/svg"
   xmlns:sodipodi="http://sodipodi.sourceforge.net/DTD/sodipodi-0.dtd"
   xmlns:inkscape="http://www.inkscape.org/namespaces/inkscape"
   width="32"
   height="32"
   viewBox="0 0 8.4666666 8.4666666"
   version="1.1"
   id="svg8"
   inkscape:version="1.0.2-2 (e86c870879, 2021-01-15)"
   sodipodi:docname="bunny.svg"
   inkscape:export-filename="D:\DEV_SRC\RxOT\DuAEF_Duik\icons\w16/w16_bunny.png"
   inkscape:export-xdpi="48"
   inkscape:export-ydpi="48">
  <defs
     id="defs2">
    <inkscape:path-effect
       effect="mirror_symmetry"
       start_point="4.2333333,0"
       end_point="4.2333333,8.4666667"
       center_point="4.2333333,4.2333333"
       id="path-effect897"
       is_visible="true"
       mode="vertical"
       discard_orig_path="false"
       fuse_paths="false"
       oposite_fuse="false" />
    <inkscape:path-effect
       effect="mirror_symmetry"
       start_point="4.2328811,1.6730093"
       end_point="4.2328811,6.1768975"
       center_point="4.2328811,3.9249534"
       id="path-effect862"
       is_visible="true"
       mode="free"
       discard_orig_path="false"
       fuse_paths="false"
       oposite_fuse="false" />
    <inkscape:path-effect
       effect="mirror_symmetry"
       start_point="4.2333333,0"
       end_point="4.2333333,8.4666667"
       center_point="4.2333333,4.2333333"
       id="path-effect858"
       is_visible="true"
       mode="vertical"
       discard_orig_path="false"
       fuse_paths="false"
       oposite_fuse="false" />
    <inkscape:path-effect
       effect="mirror_symmetry"
       start_point="4.2333333,0"
       end_point="4.2333333,8.4666667"
       center_point="4.2333333,4.2333333"
       id="path-effect854"
       is_visible="true"
       mode="vertical"
       discard_orig_path="false"
       fuse_paths="false"
       oposite_fuse="false" />
    <style
       id="style1399">.cls-1{fill:#e3e3e3;}</style>
    <style
       id="style1399-4">.cls-1{fill:#e3e3e3;}</style>
    <style
       id="style1399-8">.cls-1{fill:#e3e3e3;}</style>
    <style
       id="style1399-4-5">.cls-1{fill:#e3e3e3;}</style>
  </defs>
  <sodipodi:namedview
     id="base"
     pagecolor="#ffffff"
     bordercolor="#666666"
     borderopacity="1.0"
     inkscape:pageopacity="0.0"
     inkscape:pageshadow="2"
     inkscape:zoom="16"
     inkscape:cx="8.7588961"
     inkscape:cy="13.474694"
     inkscape:document-units="mm"
     inkscape:current-layer="svg8"
     showgrid="false"
     units="px"
     inkscape:window-width="3440"
     inkscape:window-height="1417"
     inkscape:window-x="1915"
     inkscape:window-y="-8"
     inkscape:window-maximized="1"
     inkscape:document-rotation="0"
     inkscape:snap-nodes="false"
     inkscape:snap-bbox="true"
     inkscape:bbox-paths="true"
     inkscape:snap-bbox-edge-midpoints="true"
     inkscape:bbox-nodes="true"
     inkscape:snap-bbox-midpoints="true">
    <sodipodi:guide
       position="8.4666666,0"
       orientation="-32,0"
       id="guide854"
       inkscape:locked="false" />
    <sodipodi:guide
       position="0,8.4666814"
       orientation="0,-32"
       id="guide856"
       inkscape:locked="false" />
    <sodipodi:guide
       position="0,8.4666814"
       orientation="32,0"
       id="guide858"
       inkscape:locked="false" />
  </sodipodi:namedview>
  <metadata
     id="metadata5">
    <rdf:RDF>
      <cc:Work
         rdf:about="">
        <dc:format>image/svg+xml</dc:format>
        <dc:type
           rdf:resource="http://purl.org/dc/dcmitype/StillImage" />
        <dc:title />
      </cc:Work>
    </rdf:RDF>
  </metadata>
  <path
     id="path895"
     style="fill:#b1b1b1;fill-opacity:1;stroke:none;stroke-width:0.559066;stroke-linecap:round;stroke-miterlimit:4;stroke-dasharray:none;stroke-opacity:1"
     d="M 4.0550776,-2.3544329e-6 C 4.0395828,0.00122163 4.0264297,0.00507246 4.0162997,0.01092096 3.9008076,0.07760042 3.86484,0.8273555 4.1839725,1.6242942 3.4754841,1.2352118 2.7934922,1.1595787 2.6994944,1.2791176 2.602161,1.4028985 2.956181,2.3707155 3.8065721,3.0394096 4.1504744,3.3098322 4.4836708,3.5175492 4.7934935,3.6511153 4.8162222,3.8501724 4.739549,3.9148481 4.5673801,3.9051253 4.3952116,3.8954022 4.2700893,3.8728678 3.9513052,3.8729012 2.7159507,3.8730711 1.7146249,4.9858662 1.7147569,6.2212207 c 1.696e-4,1.2351413 1.001407,2.2363787 2.2365483,2.2365485 0.018389,4.02e-5 0.036778,-1.197e-4 0.055163,-5.593e-4 3.635e-4,4.7e-6 7.271e-4,-3.9e-6 0.00109,0 0.00188,2.01e-5 0.0036,5.593e-4 0.00546,5.593e-4 H 6.867819 c 0.2772833,0 0.5008338,-0.2230054 0.5008338,-0.5002877 0,-0.2772836 -0.2235505,-0.5002878 -0.5008338,-0.5002878 H 6.5346668 6.4210642 4.4575988 V 7.1868416 C 4.4575988,6.5915415 3.9818681,6.1136261 3.386568,6.1136264 3.2366936,6.1141297 3.1147311,5.9931489 3.1140315,5.8432743 3.1135283,5.6925471 3.2358408,5.5702291 3.386568,5.5707375 c 0.7827065,0 1.3545842,0.602128 1.5003169,1.3435675 H 6.2763305 C 6.2149615,6.5681158 6.1633412,6.246298 6.1080688,5.9120909 6.0637359,5.6440308 5.8874683,5.3700771 5.9770317,5.1075889 c 0.017315,-0.050745 0.07939,-0.09831 0.1272559,-0.09831 0.9794119,0 1.4865453,-0.3433489 1.4865453,-1.0840962 0,-0.7283888 -0.7581567,-1.374592 -1.4865453,-1.3745916 -0.00487,0 -0.00935,0.00158 -0.014198,0.00165 C 6.0106158,2.2010971 5.8469559,1.7833016 5.6012727,1.3577655 5.0941733,0.47944392 4.2874972,-0.01836208 4.0550776,-2.3544329e-6 Z M 6.3058262,3.0077318 C 6.4936273,3.0078082 6.6457664,3.1601921 6.6455414,3.3479931 6.645465,3.5355808 6.4934138,3.6876318 6.3058262,3.6877081 6.1180252,3.6879333 5.9656412,3.535794 5.9655649,3.3479931 5.9653394,3.1599787 6.1178119,3.0075062 6.3058262,3.0077318 Z m -5.0929947,3.724154 c -0.29250074,0.1638858 -0.47360744,0.4730413 -0.47352562,0.808325 0,0.5115796 0.41471732,0.9262971 0.92629692,0.9262971 0.1679786,-10e-6 0.3327929,-0.045697 0.4768026,-0.1321716 C 1.668904,7.9280354 1.3320401,7.3676367 1.2128315,6.7318858 Z"
     sodipodi:nodetypes="sscssczccccssssscccscccccasssscsscccccccccc" />
</svg>
