<?xml version="1.0" encoding="UTF-8" standalone="no"?>
<svg
   width="32"
   height="32"
   viewBox="0 0 8.4666666 8.4666666"
   version="1.1"
   id="svg8"
   inkscape:version="1.1.1 (3bf5ae0d25, 2021-09-20)"
   sodipodi:docname="compositions.svg"
   inkscape:export-filename="D:\RxLab\src\RxOT\DuAEF_Duik\icons\w16\w16_selected_compositions.png"
   inkscape:export-xdpi="48"
   inkscape:export-ydpi="48"
   xmlns:inkscape="http://www.inkscape.org/namespaces/inkscape"
   xmlns:sodipodi="http://sodipodi.sourceforge.net/DTD/sodipodi-0.dtd"
   xmlns="http://www.w3.org/2000/svg"
   xmlns:svg="http://www.w3.org/2000/svg"
   xmlns:rdf="http://www.w3.org/1999/02/22-rdf-syntax-ns#"
   xmlns:cc="http://creativecommons.org/ns#"
   xmlns:dc="http://purl.org/dc/elements/1.1/">
  <defs
     id="defs2">
    <style
       id="style1399">.cls-1{fill:#e3e3e3;}</style>
    <style
       id="style1399-4">.cls-1{fill:#e3e3e3;}</style>
    <style
       id="style1399-8">.cls-1{fill:#e3e3e3;}</style>
    <style
       id="style1399-4-5">.cls-1{fill:#e3e3e3;}</style>
  </defs>
  <sodipodi:namedview
     id="base"
     pagecolor="#ffffff"
     bordercolor="#666666"
     borderopacity="1.0"
     inkscape:pageopacity="0.0"
     inkscape:pageshadow="2"
     inkscape:zoom="16"
     inkscape:cx="34.1875"
     inkscape:cy="21.03125"
     inkscape:document-units="mm"
     inkscape:current-layer="svg8"
     showgrid="false"
     units="px"
     inkscape:window-width="3378"
     inkscape:window-height="1417"
     inkscape:window-x="1974"
     inkscape:window-y="-8"
     inkscape:window-maximized="1"
     inkscape:document-rotation="0"
     inkscape:snap-bbox="true"
     inkscape:snap-nodes="false"
     inkscape:bbox-paths="true"
     inkscape:bbox-nodes="true"
     inkscape:snap-bbox-edge-midpoints="true"
     inkscape:snap-bbox-midpoints="true"
     inkscape:pagecheckerboard="0">
    <sodipodi:guide
       position="8.4666666,0"
       orientation="-32,0"
       id="guide854"
       inkscape:locked="false" />
    <sodipodi:guide
       position="8.4666666,8.4666666"
       orientation="0,-32"
       id="guide856"
       inkscape:locked="false" />
    <sodipodi:guide
       position="0,8.4666814"
       orientation="32,0"
       id="guide858"
       inkscape:locked="false" />
  </sodipodi:namedview>
  <metadata
     id="metadata5">
    <rdf:RDF>
      <cc:Work
         rdf:about="">
        <dc:format>image/svg+xml</dc:format>
        <dc:type
           rdf:resource="http://purl.org/dc/dcmitype/StillImage" />
      </cc:Work>
    </rdf:RDF>
  </metadata>
  <path
     style="fill:#b1b1b1;fill-opacity:1;stroke-width:0.0139395"
     d="m 5.9241309,0.82103719 c 0.046114,0.0209081 0.08777,0.051605 0.1217901,0.0906763 L 8.3950038,3.5938573 c 0.166881,0.1906098 0.02269,0.5086274 -0.2306504,0.5087051 l -3.565401,4.765e-4 C 4.4948362,4.1031267 4.3972457,4.0588785 4.328703,3.9805059 L 1.9796202,1.2983623 C 1.8127387,1.1077534 1.9567501,0.79013261 2.2100902,0.79005501 l 3.5655815,-8.7482e-4 c 0.051807,-1.5681e-4 0.1023439,0.0109477 0.1484592,0.031857 z m 0.0898,0.94003781 C 5.875495,1.6854093 5.7323184,1.6385171 5.6173187,1.6382644 5.3873166,1.6377628 5.3568549,1.8240493 5.5493472,2.0544713 5.7418403,2.2848936 6.0841685,2.4721355 6.3141697,2.472637 6.5441714,2.4731378 6.5746337,2.2868521 6.3821406,2.0564296 6.285895,1.9412185 6.1523673,1.8367401 6.0139309,1.761075 Z m 0.327589,0.9534648 C 6.2774892,2.6795738 6.2210186,2.679031 6.215336,2.7138657 L 6.1478312,3.1269306 4.2967137,2.1151358 C 4.2326828,2.0801698 4.1762123,2.0796269 4.1705296,2.1144616 L 4.0646077,2.7654823 4.7614588,3.5998549 7.6172239,3.6058261 7.3183314,3.2484703 Z"
     id="path885-3"
     sodipodi:nodetypes="sccccccccsscsssscccccccccc" />
  <g
     id="g1172"
     transform="matrix(0.84146328,0.38500711,-0.38500711,0.84146328,2.4692505,-1.0653138)">
    <path
       style="fill:#b1b1b1;fill-opacity:1;stroke-width:0.0165077"
       d="M 8.2497808,6.0044382 7.294479,5.571441 4.6225401,6.7826121 c -0.1247983,0.056621 -0.2573553,0.085345 -0.3938741,0.085345 -0.1365187,0 -0.2689107,-0.028724 -0.393874,-0.085345 L 1.1630181,5.571441 0.20755149,6.0044382 c -0.27320286,0.123808 -0.27320286,0.5365009 0,0.6603084 L 4.0528589,8.4077969 c 0.1122523,0.050843 0.2391969,0.050843 0.3514493,0 L 8.2497808,6.6647466 c 0.2732024,-0.1238075 0.2732024,-0.5365004 0,-0.6603084 z"
       id="path837" />
    <path
       style="fill:#b1b1b1;fill-opacity:1;stroke-width:0.0165077"
       d="M 8.2497808,3.904308 7.294479,3.4713108 4.6225401,4.6824819 c -0.1247983,0.056621 -0.2573553,0.085345 -0.3938741,0.085345 -0.1365187,0 -0.2689107,-0.028724 -0.393874,-0.085345 L 1.1630181,3.4713108 0.20755149,3.904308 c -0.27320286,0.123808 -0.27320286,0.5365009 0,0.6603084 L 4.0528589,6.3076667 c 0.1122523,0.050843 0.2391969,0.050843 0.3514493,0 L 8.2497808,4.5646164 c 0.2732024,-0.1238075 0.2732024,-0.5365004 0,-0.6603084 z"
       id="path835-2" />
  </g>
</svg>
