<?xml version="1.0" encoding="UTF-8" standalone="no"?>
<svg
   xmlns:dc="http://purl.org/dc/elements/1.1/"
   xmlns:cc="http://creativecommons.org/ns#"
   xmlns:rdf="http://www.w3.org/1999/02/22-rdf-syntax-ns#"
   xmlns:svg="http://www.w3.org/2000/svg"
   xmlns="http://www.w3.org/2000/svg"
   xmlns:sodipodi="http://sodipodi.sourceforge.net/DTD/sodipodi-0.dtd"
   xmlns:inkscape="http://www.inkscape.org/namespaces/inkscape"
   id="Calque_1"
   data-name="Calque 1"
   viewBox="0 0 32 32"
   version="1.1"
   sodipodi:docname="digitigrade.svg"
   inkscape:version="1.0.2-2 (e86c870879, 2021-01-15)"
   inkscape:export-filename="D:\DEV_SRC\RxOT\DuAEF_Duik\icons\w16/w16_digitigrade.png"
   inkscape:export-xdpi="48"
   inkscape:export-ydpi="48">
  <metadata
     id="metadata31">
    <rdf:RDF>
      <cc:Work
         rdf:about="">
        <dc:format>image/svg+xml</dc:format>
        <dc:type
           rdf:resource="http://purl.org/dc/dcmitype/StillImage" />
        <dc:title>body_l</dc:title>
      </cc:Work>
    </rdf:RDF>
  </metadata>
  <sodipodi:namedview
     pagecolor="#ffffff"
     bordercolor="#666666"
     borderopacity="1"
     objecttolerance="10"
     gridtolerance="10"
     guidetolerance="10"
     inkscape:pageopacity="0"
     inkscape:pageshadow="2"
     inkscape:window-width="3440"
     inkscape:window-height="1417"
     id="namedview29"
     showgrid="false"
     inkscape:snap-bbox="true"
     inkscape:bbox-paths="true"
     inkscape:bbox-nodes="true"
     inkscape:snap-bbox-edge-midpoints="true"
     inkscape:snap-bbox-midpoints="true"
     inkscape:snap-nodes="false"
     inkscape:zoom="20.85965"
     inkscape:cx="12.970977"
     inkscape:cy="28.423076"
     inkscape:window-x="1915"
     inkscape:window-y="-8"
     inkscape:window-maximized="1"
     inkscape:current-layer="g1118"
     inkscape:document-rotation="0" />
  <defs
     id="defs4">
    <style
       id="style2">.cls-1{fill:#e3e3e3;}</style>
    <style
       id="style857">.cls-1{fill:#e3e3e3;}</style>
    <style
       id="style990">.cls-1{fill:#e3e3e3;}</style>
    <style
       id="style1091">.cls-1{fill:#e3e3e3;}</style>
  </defs>
  <title
     id="title6">body_l</title>
  <g
     id="g1118"
     transform="matrix(1.1404506,0,0,1.1404506,-2.3537809,-2.1777348)">
    <path
       d="m 16.072095,13.921373 c -4.339163,0 -10.4913665,6.70792 -10.4913665,10.942168 0,1.907025 1.4649668,3.046322 3.9200558,3.046322 2.6687417,0 4.4309627,-1.370435 6.5713107,-1.370435 2.158927,0 3.926066,1.370435 6.571311,1.370435 2.455088,0 3.920055,-1.139297 3.920055,-3.046322 0,-4.234248 -6.152203,-10.942168 -10.491366,-10.942168 z M 8.0243426,13.232333 C 7.4560612,11.338968 5.7053136,10.11279 4.1141231,10.493103 2.5229327,10.873414 1.6940059,12.716507 2.262289,14.60987 2.83057,16.503234 4.5813169,17.729413 6.1725083,17.3491 7.7636984,16.968789 8.5926253,15.125696 8.0243426,13.232333 Z M 12.653659,12.096861 C 14.344298,11.65207 15.190165,9.3680128 14.543196,6.9954331 13.896229,4.6228555 12.001226,3.0606251 10.310587,3.5054149 8.6199468,3.9502046 7.7740797,6.2342632 8.4210484,8.6068419 9.0680156,10.979421 10.963565,12.542197 12.653659,12.096861 Z m 15.37586,-1.603212 c -1.59119,-0.380311 -3.34139,0.845865 -3.910218,2.73923 -0.568283,1.893363 0.260645,3.736456 1.851835,4.116768 1.59119,0.380313 3.341391,-0.845866 3.910219,-2.73923 0.568283,-1.893364 -0.260644,-3.736457 -1.851836,-4.116768 z m -8.538987,1.603212 c 1.69064,0.444789 3.585642,-1.11744 4.23261,-3.4900191 0.646968,-2.3725787 -0.198898,-4.6560894 -1.889538,-5.101427 -1.69064,-0.4453357 -3.585643,1.1174406 -4.232611,3.4900182 -0.646967,2.3725797 0.198899,4.6566369 1.889539,5.1014279 z"
       id="path840"
       style="fill:#b1b1b1;fill-opacity:1;stroke-width:0.0546425" />
  </g>
</svg>
