<?xml version="1.0" encoding="UTF-8" standalone="no"?>
<!-- Created with Inkscape (http://www.inkscape.org/) -->

<svg
   width="32"
   height="32"
   viewBox="0 0 8.4666666 8.4666666"
   version="1.1"
   id="svg8"
   inkscape:version="1.1 (c68e22c387, 2021-05-23)"
   sodipodi:docname="expose_transform.svg"
   xmlns:inkscape="http://www.inkscape.org/namespaces/inkscape"
   xmlns:sodipodi="http://sodipodi.sourceforge.net/DTD/sodipodi-0.dtd"
   xmlns="http://www.w3.org/2000/svg"
   xmlns:svg="http://www.w3.org/2000/svg"
   xmlns:rdf="http://www.w3.org/1999/02/22-rdf-syntax-ns#"
   xmlns:cc="http://creativecommons.org/ns#"
   xmlns:dc="http://purl.org/dc/elements/1.1/">
  <defs
     id="defs2">
    <style
       id="style1399">.cls-1{fill:#e3e3e3;}</style>
    <style
       id="style1399-4">.cls-1{fill:#e3e3e3;}</style>
    <style
       id="style1399-8">.cls-1{fill:#e3e3e3;}</style>
    <style
       id="style1399-4-5">.cls-1{fill:#e3e3e3;}</style>
    <style
       id="style1399-9">.cls-1{fill:#e3e3e3;}</style>
    <style
       id="style1399-4-6">.cls-1{fill:#e3e3e3;}</style>
    <style
       id="style1399-8-4">.cls-1{fill:#e3e3e3;}</style>
    <style
       id="style1399-4-5-3">.cls-1{fill:#e3e3e3;}</style>
    <style
       id="style1399-88">.cls-1{fill:#e3e3e3;}</style>
  </defs>
  <sodipodi:namedview
     id="base"
     pagecolor="#ffffff"
     bordercolor="#666666"
     borderopacity="1.0"
     inkscape:pageopacity="0.0"
     inkscape:pageshadow="2"
     inkscape:zoom="11.313709"
     inkscape:cx="1.7235727"
     inkscape:cy="20.285125"
     inkscape:document-units="mm"
     inkscape:current-layer="svg8"
     showgrid="false"
     units="px"
     inkscape:window-width="1920"
     inkscape:window-height="1027"
     inkscape:window-x="-8"
     inkscape:window-y="-8"
     inkscape:window-maximized="1"
     inkscape:pagecheckerboard="1">
    <sodipodi:guide
       position="8.4666666,0"
       orientation="-32,0"
       id="guide854"
       inkscape:locked="false" />
    <sodipodi:guide
       position="8.5622298,8.4657622"
       orientation="0,-32"
       id="guide856"
       inkscape:locked="false" />
    <sodipodi:guide
       position="0,8.4666814"
       orientation="32,0"
       id="guide858"
       inkscape:locked="false" />
  </sodipodi:namedview>
  <metadata
     id="metadata5">
    <rdf:RDF>
      <cc:Work
         rdf:about="">
        <dc:format>image/svg+xml</dc:format>
        <dc:type
           rdf:resource="http://purl.org/dc/dcmitype/StillImage" />
        <dc:title />
      </cc:Work>
    </rdf:RDF>
  </metadata>
  <path
     id="path5149"
     d="M 7.5339911,5.7042449 C 7.1210321,6.0393932 6.6663646,6.317172 6.1732866,6.5128534 l 0.8964756,1.5527597 0.889387,0.3798236 C 8.1208716,8.5145102 8.3035297,8.4090039 8.3246309,8.2344236 L 8.4403583,7.2741489 Z M 8.2344554,4.1453858 C 8.3145746,4.0189426 8.2656132,3.8488134 8.1347191,3.7762777 L 7.6719737,3.5195999 C 7.5486631,3.4511861 7.3981513,3.4955299 7.3214944,3.613896 6.6437798,4.6612132 5.4772731,5.3016711 4.2202613,5.3016711 c -0.3944952,0 -0.7786052,-0.070063 -1.1442511,-0.1900767 L 4.1864666,3.1880787 c 0.011539,3.19e-4 0.022091,0.00346 0.03363,0.00346 0.011539,0 0.022257,-0.00314 0.03363,-0.00346 L 5.0959658,4.6470363 C 5.6108047,4.4993273 6.077836,4.2225374 6.4578244,3.8405708 L 5.6040457,2.3616658 c 0.1228163,-0.224696 0.1988139,-0.4785711 0.1988139,-0.752723 0,-0.87405598 -0.7085423,-1.58259828 -1.5825983,-1.58259828 -0.8740556,0 -1.5825979,0.7085423 -1.5825979,1.58259828 0,0.2741519 0.075997,0.528027 0.1986491,0.752723 L 1.7103598,4.3120532 C 1.503468,4.1206578 1.3153698,3.9066771 1.1551318,3.6691226 1.0761666,3.5520763 0.92483062,3.5105331 0.80267371,3.5812555 L 0.34520407,3.8461758 C 0.21579361,3.92102 0.16996444,4.0918082 0.2522265,4.2166027 0.50890426,4.6063175 0.82410511,4.945422 1.1750791,5.2390271 L 0,7.2743141 0.11572752,8.2345888 c 0.021103,0.1745797 0.20375946,0.2800865 0.36548121,0.2110123 L 1.3705958,8.0657777 2.5377619,6.044174 c 0.5306652,0.2017811 1.0992465,0.3125629 1.6824996,0.3125629 1.6328787,0 3.1467326,-0.84092 4.0141939,-2.2113511 z M 4.2202613,1.0814098 c 0.2912974,0 0.527533,0.2362357 0.527533,0.527533 0,0.2912969 -0.2362356,0.5275326 -0.527533,0.5275326 -0.2912968,0 -0.5275326,-0.2362357 -0.5275326,-0.5275326 0,-0.2912973 0.2362358,-0.527533 0.5275326,-0.527533 z"
     inkscape:connector-curvature="0"
     style="stroke-width:0.01648539;fill:#b1b1b1;fill-opacity:1"
     inkscape:export-filename="D:\DEV_SRC\RxOT\DuAEF\DuAEF_Duik\icons\w12\w12_expose_transform.png"
     inkscape:export-xdpi="36"
     inkscape:export-ydpi="36" />
</svg>
