<?xml version="1.0" encoding="UTF-8" standalone="no"?>
<!-- Created with Inkscape (http://www.inkscape.org/) -->

<svg
   width="32"
   height="32"
   viewBox="0 0 8.4666666 8.4666666"
   version="1.1"
   id="svg8"
   inkscape:version="1.1 (c68e22c387, 2021-05-23)"
   sodipodi:docname="fx.svg"
   inkscape:export-filename="D:\DEV_SRC\RxOT\DuAEF\DuAEF_Duik\icons/w16/w16_fx.png"
   inkscape:export-xdpi="48"
   inkscape:export-ydpi="48"
   xmlns:inkscape="http://www.inkscape.org/namespaces/inkscape"
   xmlns:sodipodi="http://sodipodi.sourceforge.net/DTD/sodipodi-0.dtd"
   xmlns="http://www.w3.org/2000/svg"
   xmlns:svg="http://www.w3.org/2000/svg"
   xmlns:rdf="http://www.w3.org/1999/02/22-rdf-syntax-ns#"
   xmlns:cc="http://creativecommons.org/ns#"
   xmlns:dc="http://purl.org/dc/elements/1.1/">
  <defs
     id="defs2">
    <style
       id="style1399">.cls-1{fill:#e3e3e3;}</style>
  </defs>
  <sodipodi:namedview
     id="base"
     pagecolor="#ffffff"
     bordercolor="#666666"
     borderopacity="1.0"
     inkscape:pageopacity="0.0"
     inkscape:pageshadow="2"
     inkscape:zoom="11.313708"
     inkscape:cx="-11.00435"
     inkscape:cy="13.567612"
     inkscape:document-units="mm"
     inkscape:current-layer="svg8"
     showgrid="false"
     units="px"
     inkscape:window-width="1920"
     inkscape:window-height="1027"
     inkscape:window-x="-8"
     inkscape:window-y="-8"
     inkscape:window-maximized="1"
     inkscape:pagecheckerboard="1">
    <sodipodi:guide
       position="8.4666666,0"
       orientation="-32,0"
       id="guide854"
       inkscape:locked="false" />
    <sodipodi:guide
       position="8.4666666,8.4666666"
       orientation="0,-32"
       id="guide856"
       inkscape:locked="false" />
    <sodipodi:guide
       position="0,8.4666814"
       orientation="1,6.123234e-17"
       id="guide858"
       inkscape:locked="false" />
  </sodipodi:namedview>
  <metadata
     id="metadata5">
    <rdf:RDF>
      <cc:Work
         rdf:about="">
        <dc:format>image/svg+xml</dc:format>
        <dc:type
           rdf:resource="http://purl.org/dc/dcmitype/StillImage" />
        <dc:title />
      </cc:Work>
    </rdf:RDF>
  </metadata>
  <path
     style="opacity:1;fill:#b1b1b1;fill-opacity:1;stroke:none;stroke-width:5.53701;stroke-linecap:round;stroke-linejoin:round;stroke-miterlimit:4;stroke-dasharray:none;stroke-dashoffset:10.3937;stroke-opacity:1"
     d="M 16,0 C 7.1634438,-5.5228481e-7 -5.5228481e-7,7.1634438 0,16 c -5.5228481e-7,8.836556 7.1634438,16.000001 16,16 8.836556,10e-7 16.000001,-7.163444 16,-16 C 32.000001,7.1634438 24.836556,-5.5228482e-7 16,0 Z m -6.509348,5.5189182 2.10187,4.2037403 4.203741,2.1065725 -4.203741,2.10187 -2.10187,4.203741 -2.1018695,-4.203741 -4.2084426,-2.10187 4.2084426,-2.1065725 z m 11.355742,0 1.260183,2.5250655 2.525065,1.2601816 -2.525065,1.2601817 -1.260183,2.525066 -1.264883,-2.525066 -2.520365,-1.2601817 2.520365,-1.2601816 z m 1.396147,9.3706258 2.101871,4.203741 4.208443,2.106572 -4.208443,2.101871 -2.101871,4.203741 -2.10187,-4.203741 -4.208443,-2.101871 4.208443,-2.106572 z"
     transform="scale(0.26458333)"
     id="path1506"
     sodipodi:nodetypes="sssssccccccccccccccccccccccccccc" />
</svg>
