<?xml version="1.0" encoding="UTF-8" standalone="no"?>
<svg
   id="Calque_1"
   data-name="Calque 1"
   viewBox="0 0 32 32"
   version="1.1"
   sodipodi:docname="human_arm.svg"
   inkscape:version="1.1 (c68e22c387, 2021-05-23)"
   inkscape:export-filename="D:\DEV_SRC\RxOT\DuAEF\DuAEF_Duik\icons\w128/w128_human_arm.png"
   inkscape:export-xdpi="384"
   inkscape:export-ydpi="384"
   xmlns:inkscape="http://www.inkscape.org/namespaces/inkscape"
   xmlns:sodipodi="http://sodipodi.sourceforge.net/DTD/sodipodi-0.dtd"
   xmlns="http://www.w3.org/2000/svg"
   xmlns:svg="http://www.w3.org/2000/svg"
   xmlns:rdf="http://www.w3.org/1999/02/22-rdf-syntax-ns#"
   xmlns:cc="http://creativecommons.org/ns#"
   xmlns:dc="http://purl.org/dc/elements/1.1/">
  <metadata
     id="metadata31">
    <rdf:RDF>
      <cc:Work
         rdf:about="">
        <dc:format>image/svg+xml</dc:format>
        <dc:type
           rdf:resource="http://purl.org/dc/dcmitype/StillImage" />
        <dc:title>body_l</dc:title>
      </cc:Work>
    </rdf:RDF>
  </metadata>
  <sodipodi:namedview
     pagecolor="#ffffff"
     bordercolor="#666666"
     borderopacity="1"
     objecttolerance="10"
     gridtolerance="10"
     guidetolerance="10"
     inkscape:pageopacity="0"
     inkscape:pageshadow="2"
     inkscape:window-width="1920"
     inkscape:window-height="1027"
     id="namedview29"
     showgrid="false"
     inkscape:snap-bbox="true"
     inkscape:bbox-paths="true"
     inkscape:bbox-nodes="true"
     inkscape:snap-bbox-edge-midpoints="true"
     inkscape:snap-bbox-midpoints="true"
     inkscape:snap-nodes="false"
     inkscape:zoom="10.429825"
     inkscape:cx="-4.650126"
     inkscape:cy="8.9646758"
     inkscape:window-x="-8"
     inkscape:window-y="-8"
     inkscape:window-maximized="1"
     inkscape:current-layer="g1118"
     inkscape:document-rotation="0"
     inkscape:pagecheckerboard="0" />
  <defs
     id="defs4">
    <style
       id="style2">.cls-1{fill:#e3e3e3;}</style>
    <style
       id="style857">.cls-1{fill:#e3e3e3;}</style>
    <style
       id="style990">.cls-1{fill:#e3e3e3;}</style>
    <style
       id="style1091">.cls-1{fill:#e3e3e3;}</style>
    <style
       id="style1399">.cls-1{fill:#e3e3e3;}</style>
    <style
       id="style1399-4">.cls-1{fill:#e3e3e3;}</style>
    <style
       id="style1399-8">.cls-1{fill:#e3e3e3;}</style>
    <style
       id="style1399-4-5">.cls-1{fill:#e3e3e3;}</style>
    <style
       id="style1399-0">.cls-1{fill:#e3e3e3;}</style>
    <style
       id="style854">.cls-1{fill:#e3e3e3;}</style>
    <style
       id="style1399-84">.cls-1{fill:#e3e3e3;}</style>
    <style
       id="style1399-4-8">.cls-1{fill:#e3e3e3;}</style>
    <style
       id="style1399-8-10">.cls-1{fill:#e3e3e3;}</style>
    <style
       id="style1399-4-5-3">.cls-1{fill:#e3e3e3;}</style>
    <style
       id="style1399-0-0">.cls-1{fill:#e3e3e3;}</style>
    <style
       id="style1399-5">.cls-1{fill:#e3e3e3;}</style>
    <style
       id="style1399-4-6">.cls-1{fill:#e3e3e3;}</style>
    <style
       id="style1399-8-1">.cls-1{fill:#e3e3e3;}</style>
    <style
       id="style1399-4-5-1">.cls-1{fill:#e3e3e3;}</style>
    <style
       id="style1399-0-5">.cls-1{fill:#e3e3e3;}</style>
    <style
       id="style1257">.cls-1{fill:#e3e3e3;}</style>
  </defs>
  <title
     id="title6">body_l</title>
  <g
     id="g1118"
     transform="matrix(1.1404506,0,0,1.1404506,-2.3537809,-2.1777348)">
    <path
       style="fill:#ec6418;fill-opacity:1;stroke:none;stroke-width:0.555326px;stroke-linecap:butt;stroke-linejoin:miter;stroke-opacity:1"
       d="m 19.437273,14.372021 c -1.222326,0.467665 -2.02522,0.910765 -3.279586,2.456947 -1.532435,1.888941 -2.485429,3.894346 -2.914335,4.443346 -0.92148,1.179495 -1.5686,1.026958 -1.864647,1.387517 -0.832201,1.013544 0.596943,3.361749 2.610506,1.65844 0.766155,-0.648104 1.480948,-2.703284 3.610836,-5.109135 1.285535,-1.452097 3.407667,-1.289178 4.369856,-2.465722 -0.671433,-0.318852 -1.314976,-0.741682 -1.844904,-1.314029 -0.298488,-0.32238 -0.522645,-0.68104 -0.687726,-1.057364 z"
       id="path4191" />
    <path
       style="fill:#ecbe18;fill-opacity:1;stroke:none;stroke-width:0.555326px;stroke-linecap:butt;stroke-linejoin:miter;stroke-opacity:1"
       d="m 9.4679896,11.3831 c -0.5560952,-0.0057 -1.0487044,0.316445 -1.1242726,1.112208 -0.0711,0.748708 0.3800727,0.792145 -0.134913,3.726004 -0.462462,2.634636 -0.5394194,5.225349 -0.273116,6.496652 0.4743342,2.264418 2.101291,2.559987 2.587473,1.911813 0.0149,-0.01986 0.02004,-0.04318 0.02961,-0.06471 -0.433757,-0.761091 -0.486193,-1.718286 0.133815,-2.4734 0.0041,-0.005 0.0079,-0.0071 0.01207,-0.01207 0.01726,-0.04274 0.03207,-0.08924 0.04168,-0.14259 0.07402,-0.411136 -0.546833,-0.34411 -0.639465,-0.625206 -0.1042435,-0.316328 -0.2512497,-1.650784 0.04387,-3.824722 0.30689,-2.260607 1.319313,-3.506874 1.035428,-4.764723 C 11.003455,11.93934 10.18297,11.390413 9.4679896,11.3831 Z"
       id="path4189" />
    <path
       style="fill:#ec1818;fill-opacity:1;stroke:none;stroke-width:0.555326px;stroke-linecap:butt;stroke-linejoin:miter;stroke-opacity:1"
       d="m 22.642273,9.8749295 c -0.224187,0.00687 -0.441779,0.064199 -0.643852,0.1765935 -1.821767,1.013277 -2.247194,3.185125 -0.981681,4.551933 1.156876,1.249476 3.482449,1.913098 4.370953,1.465394 0.746735,-0.40371 0.289017,-3.546597 -0.795218,-5.033452 -0.54642,-0.749328 -1.277638,-1.1810699 -1.950202,-1.1604685 z"
       id="path4187" />
    <path
       style="fill:#ec1818;fill-opacity:1;stroke:none;stroke-width:0.555326px;stroke-linecap:butt;stroke-linejoin:miter;stroke-opacity:1"
       d="m 22.051071,6.9594982 c -0.714783,0.019521 -0.975379,0.6692304 -1.255896,0.8358009 -0.689082,0.4091766 -1.28077,0.531304 -1.964461,1.3831296 -0.82103,1.0229413 -0.865909,3.3151523 0.127235,3.3432033 0.06241,0.0017 0.116846,-0.0024 0.165624,-0.01207 0.104082,-1.390901 0.910405,-2.755505 2.282548,-3.5186998 0.543823,-0.3024775 1.163343,-0.3777434 1.739607,-0.2884718 0.07699,-0.065776 0.15056,-0.1452923 0.217177,-0.2511795 0.314052,-0.4991893 -0.04004,-1.526451 -1.311834,-1.4917174 z"
       id="path4185" />
    <path
       style="fill:#61b7eb;fill-opacity:1;stroke:none;stroke-width:0.555326px;stroke-linecap:butt;stroke-linejoin:miter;stroke-opacity:1"
       d="m 13.203866,6.9594982 c -0.667387,0 -3.9643765,1.9037774 -3.6799371,2.9867266 0.2844394,1.0829492 1.5358881,0.6829282 1.8207731,0.4387402 0.284885,-0.244187 0.60497,-0.8550708 0.799605,-1.194471 0.194635,-0.3394 0.494817,-0.4877755 0.69321,-0.5133262 0.198394,-0.025548 0.625579,0.7217667 0.614237,0.8873527 -0.01134,0.1655857 -0.118123,0.5170485 -0.333443,0.5122295 -0.21532,-0.0048 -0.180515,-0.01488 -0.471646,0.02303 -0.291131,0.03791 -0.648328,0.438743 -0.597784,0.748053 0.07472,0.457236 0.864062,0.555381 1.311834,0.534166 0.447772,-0.02121 1.590234,-1.4381454 1.593725,-1.8580663 0.0035,-0.4199209 -1.083187,-2.5644385 -1.750574,-2.5644385 z"
       id="path1312" />
  </g>
</svg>
