<?xml version="1.0" encoding="UTF-8" standalone="no"?>
<svg
   xmlns:dc="http://purl.org/dc/elements/1.1/"
   xmlns:cc="http://creativecommons.org/ns#"
   xmlns:rdf="http://www.w3.org/1999/02/22-rdf-syntax-ns#"
   xmlns:svg="http://www.w3.org/2000/svg"
   xmlns="http://www.w3.org/2000/svg"
   xmlns:sodipodi="http://sodipodi.sourceforge.net/DTD/sodipodi-0.dtd"
   xmlns:inkscape="http://www.inkscape.org/namespaces/inkscape"
   width="32"
   height="32"
   viewBox="0 0 8.4666666 8.4666666"
   version="1.1"
   id="svg8"
   inkscape:version="1.0.2-2 (e86c870879, 2021-01-15)"
   sodipodi:docname="list.svg"
   inkscape:export-filename="D:\DEV_SRC\RxOT\DuAEF_Dugr\DuAEF\DuESF\icons/w16\w16_list.png"
   inkscape:export-xdpi="48.000004"
   inkscape:export-ydpi="48.000004">
  <defs
     id="defs2" />
  <sodipodi:namedview
     id="base"
     pagecolor="#ffffff"
     bordercolor="#666666"
     borderopacity="1.0"
     inkscape:pageopacity="0.0"
     inkscape:pageshadow="2"
     inkscape:zoom="15.999999"
     inkscape:cx="0.057956838"
     inkscape:cy="16.994987"
     inkscape:document-units="mm"
     inkscape:current-layer="svg8"
     showgrid="false"
     units="px"
     inkscape:window-width="3440"
     inkscape:window-height="1417"
     inkscape:window-x="1915"
     inkscape:window-y="-8"
     inkscape:window-maximized="1"
     inkscape:document-rotation="0">
    <sodipodi:guide
       position="8.4666666,0"
       orientation="-32,0"
       id="guide854"
       inkscape:locked="false" />
    <sodipodi:guide
       position="8.4666666,8.4666666"
       orientation="0,-32"
       id="guide856"
       inkscape:locked="false" />
    <sodipodi:guide
       position="0,8.4666814"
       orientation="32,0"
       id="guide858"
       inkscape:locked="false" />
  </sodipodi:namedview>
  <metadata
     id="metadata5">
    <rdf:RDF>
      <cc:Work
         rdf:about="">
        <dc:format>image/svg+xml</dc:format>
        <dc:type
           rdf:resource="http://purl.org/dc/dcmitype/StillImage" />
        <dc:title />
      </cc:Work>
    </rdf:RDF>
  </metadata>
  <path
     id="path826"
     d="m 1.0330387,0.63869978 c -0.57019574,0 -1.03244839084,0.46225262 -1.03244839084,1.03244842 0,0.5701949 0.46225265084,1.0324482 1.03244839084,1.0324482 0.5701949,0 1.0324482,-0.4622533 1.0324482,-1.0324482 0,-0.5701958 -0.4622533,-1.03244842 -1.0324482,-1.03244842 z m 0,2.47787582 c -0.57019574,0 -1.03244839084,0.4622527 -1.03244839084,1.0324483 0,0.5701956 0.46225265084,1.0324484 1.03244839084,1.0324484 0.5701949,0 1.0324482,-0.4622528 1.0324482,-1.0324484 0,-0.5701956 -0.4622533,-1.0324483 -1.0324482,-1.0324483 z m 0,2.4778759 c -0.57019574,0 -1.03244839084,0.4622531 -1.03244839084,1.0324483 0,0.5701956 0.46225265084,1.0324488 1.03244839084,1.0324488 0.5701949,0 1.0324482,-0.4622532 1.0324482,-1.0324488 0,-0.5701952 -0.4622533,-1.0324483 -1.0324482,-1.0324483 z M 8.4666667,2.0841272 V 1.2581683 c 0,-0.1710507 -0.1386829,-0.30973425 -0.3097343,-0.30973425 H 2.9946902 c -0.1710508,0 -0.3097342,0.13868295 -0.3097342,0.30973425 v 0.8259589 c 0,0.1710507 0.1386828,0.3097343 0.3097342,0.3097343 h 5.1622422 c 0.1710502,0 0.3097343,-0.1386829 0.3097343,-0.3097343 z m 0,2.4778759 V 3.7360447 c 0,-0.1710512 -0.1386829,-0.3097349 -0.3097343,-0.3097349 H 2.9946902 c -0.1710508,0 -0.3097342,0.1386829 -0.3097342,0.3097349 v 0.8259584 c 0,0.1710509 0.1386828,0.3097348 0.3097342,0.3097348 h 5.1622422 c 0.1710502,0 0.3097343,-0.1386829 0.3097343,-0.3097348 z m 0,2.477876 V 6.2139205 c 0,-0.1710508 -0.1386829,-0.3097342 -0.3097343,-0.3097342 H 2.9946902 c -0.1710508,0 -0.3097342,0.1386829 -0.3097342,0.3097342 v 0.8259586 c 0,0.1710511 0.1386828,0.3097352 0.3097342,0.3097352 h 5.1622422 c 0.1710502,0 0.3097343,-0.1386829 0.3097343,-0.3097352 z"
     inkscape:connector-curvature="0"
     style="stroke-width:0.02581121;fill:#b1b1b1;fill-opacity:1"
     sodipodi:nodetypes="ssssssssssssssssssssssssssssssssssssssssss" />
</svg>
