<?xml version="1.0" encoding="UTF-8" standalone="no"?>
<svg
   id="Calque_1"
   data-name="Calque 1"
   viewBox="0 0 32 32"
   version="1.1"
   sodipodi:docname="measure.svg"
   inkscape:version="1.1 (c68e22c387, 2021-05-23)"
   xmlns:inkscape="http://www.inkscape.org/namespaces/inkscape"
   xmlns:sodipodi="http://sodipodi.sourceforge.net/DTD/sodipodi-0.dtd"
   xmlns="http://www.w3.org/2000/svg"
   xmlns:svg="http://www.w3.org/2000/svg"
   xmlns:rdf="http://www.w3.org/1999/02/22-rdf-syntax-ns#"
   xmlns:cc="http://creativecommons.org/ns#"
   xmlns:dc="http://purl.org/dc/elements/1.1/">
  <sodipodi:namedview
     id="namedview25"
     pagecolor="#ffffff"
     bordercolor="#111111"
     borderopacity="1"
     inkscape:pageshadow="0"
     inkscape:pageopacity="0"
     inkscape:pagecheckerboard="1"
     showgrid="false"
     inkscape:zoom="18.605747"
     inkscape:cx="4.2191264"
     inkscape:cy="17.924569"
     inkscape:window-width="1920"
     inkscape:window-height="1027"
     inkscape:window-x="-8"
     inkscape:window-y="-8"
     inkscape:window-maximized="1"
     inkscape:current-layer="Calque_1" />
  <defs
     id="defs4">
    <style
       id="style2">.cls-1,.cls-2{fill:none;stroke:#e3e3e3;stroke-miterlimit:10;}.cls-1{stroke-width:3px;}.cls-2{stroke-width:2px;}</style>
  </defs>
  <title
     id="title6">measure_l</title>
  <path
     id="path8"
     style="color:#000000;fill:#b1b1b1;stroke-width:1.05698;stroke-miterlimit:10;-inkscape-stroke:none;fill-opacity:1"
     d="M 25.133611,0.07075061 21.791333,3.4130294 27.579936,8.9662908 26.085304,10.460923 20.2967,4.9076619 l -1.345994,1.3459949 4.073078,3.8542522 -1.494631,1.494632 -4.073081,-3.8542518 -1.356316,1.3563171 4.079272,3.8563167 -1.492567,1.496696 -4.083402,-3.856316 -1.356317,1.356317 5.792733,5.559454 -1.494634,1.494633 -5.792731,-5.559455 -1.341867,1.341867 4.07308,3.854251 -1.494633,1.494634 -4.0730793,-3.854253 -1.3583815,1.358381 4.0730798,3.854253 -1.494633,1.494632 -4.0730793,-3.854252 -1.3563169,1.356317 5.7927332,5.559455 -1.4946329,1.494631 -5.7927328,-5.559453 -3.10900057,3.109 1.12097437,1.120974 4.215524,4.215524 c 2.0505962,2.050596 5.4246309,2.050596 7.4752269,0 L 30.47011,12.882476 c 2.050596,-2.050598 2.050595,-5.4225665 0,-7.4731626 z" />
  <metadata
     id="metadata1695">
    <rdf:RDF>
      <cc:Work
         rdf:about="">
        <dc:title>measure_l</dc:title>
      </cc:Work>
    </rdf:RDF>
  </metadata>
</svg>
