<?xml version="1.0" encoding="UTF-8" standalone="no"?>
<!-- Created with Inkscape (http://www.inkscape.org/) -->

<svg
   width="32"
   height="32"
   viewBox="0 0 8.4666666 8.4666666"
   version="1.1"
   id="svg8"
   inkscape:version="1.1 (c68e22c387, 2021-05-23)"
   sodipodi:docname="orientation_constraint.svg"
   inkscape:export-filename="D:\DEV_SRC\RxOT\DuAEF\DuAEF_Duik\icons\w16\w16_orientation_constraint.png"
   inkscape:export-xdpi="48"
   inkscape:export-ydpi="48"
   xmlns:inkscape="http://www.inkscape.org/namespaces/inkscape"
   xmlns:sodipodi="http://sodipodi.sourceforge.net/DTD/sodipodi-0.dtd"
   xmlns="http://www.w3.org/2000/svg"
   xmlns:svg="http://www.w3.org/2000/svg"
   xmlns:rdf="http://www.w3.org/1999/02/22-rdf-syntax-ns#"
   xmlns:cc="http://creativecommons.org/ns#"
   xmlns:dc="http://purl.org/dc/elements/1.1/">
  <defs
     id="defs2">
    <style
       id="style1399">.cls-1{fill:#e3e3e3;}</style>
    <style
       id="style1399-4">.cls-1{fill:#e3e3e3;}</style>
    <style
       id="style1399-5">.cls-1{fill:#e3e3e3;}</style>
    <style
       id="style1399-7">.cls-1{fill:#e3e3e3;}</style>
    <style
       id="style1399-3">.cls-1{fill:#e3e3e3;}</style>
    <style
       id="style1399-1">.cls-1{fill:#e3e3e3;}</style>
    <style
       id="style1399-5-8">.cls-1{fill:#e3e3e3;}</style>
    <style
       id="style1399-8">.cls-1{fill:#e3e3e3;}</style>
    <style
       id="style1399-7-8">.cls-1{fill:#e3e3e3;}</style>
    <style
       id="style1399-1-5">.cls-1{fill:#e3e3e3;}</style>
    <style
       id="style1399-5-6">.cls-1{fill:#e3e3e3;}</style>
    <style
       id="style1399-8-9">.cls-1{fill:#e3e3e3;}</style>
    <style
       id="style1399-2">.cls-1{fill:#e3e3e3;}</style>
    <style
       id="style1399-1-1">.cls-1{fill:#e3e3e3;}</style>
    <style
       id="style1399-5-5">.cls-1{fill:#e3e3e3;}</style>
    <style
       id="style1399-8-99">.cls-1{fill:#e3e3e3;}</style>
    <style
       id="style857">.cls-1{fill:#e52120;}.cls-1,.cls-2,.cls-3,.cls-4,.cls-5{stroke:#000;stroke-miterlimit:10;stroke-width:1.2px;}.cls-2{fill:#6dbc88;}.cls-3{fill:#701034;}.cls-4{fill:#51aae0;}.cls-5{fill:none;}</style>
    <style
       id="style1399-33">.cls-1{fill:#e3e3e3;}</style>
    <style
       id="style1399-4-8">.cls-1{fill:#e3e3e3;}</style>
    <style
       id="style1399-5-60">.cls-1{fill:#e3e3e3;}</style>
    <style
       id="style1399-7-4">.cls-1{fill:#e3e3e3;}</style>
    <style
       id="style1399-3-8">.cls-1{fill:#e3e3e3;}</style>
    <style
       id="style1399-1-8">.cls-1{fill:#e3e3e3;}</style>
    <style
       id="style1399-5-8-8">.cls-1{fill:#e3e3e3;}</style>
    <style
       id="style1399-8-97">.cls-1{fill:#e3e3e3;}</style>
    <style
       id="style1399-7-8-7">.cls-1{fill:#e3e3e3;}</style>
    <style
       id="style1399-1-5-6">.cls-1{fill:#e3e3e3;}</style>
    <style
       id="style1399-5-6-4">.cls-1{fill:#e3e3e3;}</style>
    <style
       id="style1399-8-9-3">.cls-1{fill:#e3e3e3;}</style>
    <style
       id="style1399-2-0">.cls-1{fill:#e3e3e3;}</style>
    <style
       id="style1399-1-1-3">.cls-1{fill:#e3e3e3;}</style>
    <style
       id="style1399-5-5-0">.cls-1{fill:#e3e3e3;}</style>
    <style
       id="style1399-8-99-9">.cls-1{fill:#e3e3e3;}</style>
    <style
       id="style857-2">.cls-1{fill:#e52120;}.cls-1,.cls-2,.cls-3,.cls-4,.cls-5{stroke:#000;stroke-miterlimit:10;stroke-width:1.2px;}.cls-2{fill:#6dbc88;}.cls-3{fill:#701034;}.cls-4{fill:#51aae0;}.cls-5{fill:none;}</style>
    <style
       id="style1399-22">.cls-1{fill:#e3e3e3;}</style>
    <style
       id="style1399-4-4">.cls-1{fill:#e3e3e3;}</style>
    <style
       id="style1399-5-7">.cls-1{fill:#e3e3e3;}</style>
    <style
       id="style1399-7-7">.cls-1{fill:#e3e3e3;}</style>
    <style
       id="style1399-3-5">.cls-1{fill:#e3e3e3;}</style>
    <style
       id="style1399-1-4">.cls-1{fill:#e3e3e3;}</style>
    <style
       id="style1399-5-8-81">.cls-1{fill:#e3e3e3;}</style>
    <style
       id="style1399-8-2">.cls-1{fill:#e3e3e3;}</style>
    <style
       id="style1399-7-8-8">.cls-1{fill:#e3e3e3;}</style>
    <style
       id="style1399-1-5-9">.cls-1{fill:#e3e3e3;}</style>
    <style
       id="style1399-5-6-3">.cls-1{fill:#e3e3e3;}</style>
    <style
       id="style1399-8-9-6">.cls-1{fill:#e3e3e3;}</style>
    <style
       id="style1399-2-8">.cls-1{fill:#e3e3e3;}</style>
    <style
       id="style1399-1-1-0">.cls-1{fill:#e3e3e3;}</style>
    <style
       id="style1399-5-5-2">.cls-1{fill:#e3e3e3;}</style>
    <style
       id="style1399-8-99-1">.cls-1{fill:#e3e3e3;}</style>
    <style
       id="style857-0">.cls-1{fill:#e52120;}.cls-1,.cls-2,.cls-3,.cls-4,.cls-5{stroke:#000;stroke-miterlimit:10;stroke-width:1.2px;}.cls-2{fill:#6dbc88;}.cls-3{fill:#701034;}.cls-4{fill:#51aae0;}.cls-5{fill:none;}</style>
    <style
       id="style1399-98">.cls-1{fill:#e3e3e3;}</style>
    <style
       id="style1399-1-6">.cls-1{fill:#e3e3e3;}</style>
    <style
       id="style1399-5-1">.cls-1{fill:#e3e3e3;}</style>
    <style
       id="style1399-8-0">.cls-1{fill:#e3e3e3;}</style>
    <style
       id="style1399-7-47">.cls-1{fill:#e3e3e3;}</style>
    <style
       id="style1399-1-5-2">.cls-1{fill:#e3e3e3;}</style>
    <style
       id="style1399-5-6-0">.cls-1{fill:#e3e3e3;}</style>
    <style
       id="style1399-8-9-2">.cls-1{fill:#e3e3e3;}</style>
    <style
       id="style1399-2-83">.cls-1{fill:#e3e3e3;}</style>
    <style
       id="style1399-1-1-30">.cls-1{fill:#e3e3e3;}</style>
    <style
       id="style1399-5-5-1">.cls-1{fill:#e3e3e3;}</style>
    <style
       id="style1399-8-99-5">.cls-1{fill:#e3e3e3;}</style>
    <style
       id="style2">.a{filter:url(#a);}.b{fill:#710132;}.c{fill:#e3e3e3;}</style>
    <filter
       name="AI_FlouGaussien_4"
       id="a">
      <feGaussianBlur
         id="feGaussianBlur4"
         stdDeviation="4" />
    </filter>
    <style
       id="style1399-3-4">.cls-1{fill:#e3e3e3;}</style>
    <style
       id="style1399-4-3">.cls-1{fill:#e3e3e3;}</style>
    <style
       id="style1399-8-7">.cls-1{fill:#e3e3e3;}</style>
    <style
       id="style1399-4-5">.cls-1{fill:#e3e3e3;}</style>
    <style
       id="style1399-9">.cls-1{fill:#e3e3e3;}</style>
    <style
       id="style1399-4-6">.cls-1{fill:#e3e3e3;}</style>
    <style
       id="style1399-8-4">.cls-1{fill:#e3e3e3;}</style>
    <style
       id="style1399-4-5-3">.cls-1{fill:#e3e3e3;}</style>
    <style
       id="style1399-88">.cls-1{fill:#e3e3e3;}</style>
    <style
       id="style1399-19">.cls-1{fill:#e3e3e3;}</style>
  </defs>
  <sodipodi:namedview
     id="base"
     pagecolor="#ffffff"
     bordercolor="#666666"
     borderopacity="1.0"
     inkscape:pageopacity="0.0"
     inkscape:pageshadow="2"
     inkscape:zoom="11.313708"
     inkscape:cx="-9.4133594"
     inkscape:cy="12.683728"
     inkscape:document-units="mm"
     inkscape:current-layer="layer1"
     showgrid="false"
     units="px"
     inkscape:window-width="1920"
     inkscape:window-height="1027"
     inkscape:window-x="-8"
     inkscape:window-y="-8"
     inkscape:window-maximized="1"
     inkscape:pagecheckerboard="1"
     inkscape:snap-nodes="false"
     inkscape:snap-bbox="true"
     inkscape:bbox-paths="true"
     inkscape:snap-bbox-edge-midpoints="true"
     inkscape:snap-bbox-midpoints="true"
     inkscape:bbox-nodes="true"
     showguides="false">
    <sodipodi:guide
       position="8.4666666,0"
       orientation="-32,0"
       id="guide854"
       inkscape:locked="false" />
    <sodipodi:guide
       position="8.4666666,8.4666666"
       orientation="0,-32"
       id="guide856"
       inkscape:locked="false" />
    <sodipodi:guide
       position="0,8.4666814"
       orientation="32,0"
       id="guide858"
       inkscape:locked="false" />
    <sodipodi:guide
       position="-0.86528513,11.483471"
       orientation="0,-1"
       id="guide5189" />
  </sodipodi:namedview>
  <metadata
     id="metadata5">
    <rdf:RDF>
      <cc:Work
         rdf:about="">
        <dc:format>image/svg+xml</dc:format>
        <dc:type
           rdf:resource="http://purl.org/dc/dcmitype/StillImage" />
      </cc:Work>
    </rdf:RDF>
  </metadata>
  <g
     inkscape:label="Layer 1"
     inkscape:groupmode="layer"
     id="layer1"
     transform="translate(0,-288.53334)">
    <path
       id="path826"
       style="fill:#b1b1b1;fill-opacity:1;stroke-width:0.036624"
       d="m 8.3398438,11.066406 c -0.2088996,0.006 -0.4193938,0.08811 -0.5917969,0.261719 l -3.4589844,3.482422 c -0.1710198,0.172346 -0.6833573,0.755689 -0.5898437,1.1875 0.090336,0.417373 0.3698707,0.832594 0.9941406,0.808594 1.9337166,-0.07484 1.9285695,-0.07258 4.5742187,-0.08203 1.5478639,0.04536 2.9992049,0.660765 4.1113279,1.746094 2.421899,2.363565 2.515448,6.314956 0.03125,8.775391 -2.355158,2.335445 -6.2239007,2.416062 -8.6621091,-0.0059 -1.0688312,-1.061253 -1.700195,-2.446564 -1.8027344,-3.935546 -0.01584,-0.23093 -0.2095353,-0.408027 -0.4414063,-0.40625 l -2.05468745,0.0059 c -0.25234609,9.07e-4 -0.45073962,0.215231 -0.4375,0.466797 0.11793471,2.167105 1.00855315,4.299681 2.66992185,5.949218 3.5596062,3.53435 9.3113474,3.512382 12.8457034,-0.04687 2.586258,-2.604693 3.263885,-6.400874 2.041015,-9.63086 -1.230535,-0.287537 -2.398014,-0.905822 -3.351562,-1.859375 -0.962278,-0.96213 -1.583087,-2.142 -1.867188,-3.384765 -0.994317,-0.382632 -2.041203,-0.585403 -3.0917965,-0.605469 L 9.25,11.943359 c -0.00192,-0.538393 -0.4505772,-0.89007 -0.9101562,-0.876953 z"
       transform="matrix(0.26458333,0,0,0.26458333,0,288.53334)" />
    <path
       id="path4961"
       d="m 6.7293791,290.27058 c 0.5653773,0.56597 0.5576177,1.47334 0.00341,2.03064 -0.00107,5.7e-4 -0.00228,0.002 -0.00341,0.004 l -0.6359045,0.63591 c -0.5608635,0.56085 -1.4733575,0.56078 -2.034136,0 -0.5608639,-0.56078 -0.5608639,-1.47337 0,-2.03415 l 0.3511289,-0.35151 c 0.093115,-0.0932 0.2534719,-0.0312 0.258279,0.10036 0.00614,0.1677 0.036205,0.33618 0.091695,0.49888 0.018793,0.0551 0.00537,0.11604 -0.035798,0.1572 l -0.1238406,0.12385 c -0.265206,0.2652 -0.2735241,0.69702 -0.010929,0.96482 0.2651873,0.27044 0.7010655,0.27206 0.9682871,0.005 l 0.6359042,-0.63582 c 0.2667675,-0.26676 0.2656509,-0.69794 0,-0.9636 -0.035021,-0.035 -0.070299,-0.0621 -0.097855,-0.0811 a 0.15175589,0.15175589 0 0 1 -0.065739,-0.11923 c -0.00376,-0.1 0.031681,-0.20303 0.1106964,-0.28205 l 0.1992309,-0.19924 c 0.052245,-0.0522 0.1342026,-0.0587 0.194784,-0.0163 a 1.4429158,1.4429158 0 0 1 0.1941966,0.16273 z m 1.3336481,-1.33372 c -0.5607785,-0.56079 -1.4732726,-0.56087 -2.0341366,0 l -0.6359039,0.6359 c -0.00112,5.8e-4 -0.00236,0.002 -0.00341,0.004 -0.5542016,0.55728 -0.5619708,1.46466 0.00341,2.03063 a 1.4426508,1.4426508 0 0 0 0.1941871,0.16273 c 0.060581,0.0422 0.1425486,0.0357 0.1947837,-0.0164 l 0.1992311,-0.19923 c 0.079015,-0.0789 0.1144439,-0.18206 0.1106963,-0.28205 a 0.15175589,0.15175589 0 0 0 -0.065739,-0.11929 c -0.027556,-0.019 -0.062834,-0.0462 -0.097856,-0.0811 -0.2656506,-0.26565 -0.2667673,-0.69683 0,-0.9636 l 0.6359044,-0.6358 c 0.2672217,-0.26724 0.7030908,-0.26562 0.9682872,0.005 0.2625941,0.26781 0.2542858,0.69963 -0.010929,0.96484 l -0.1238403,0.12383 c -0.041164,0.0411 -0.054592,0.1021 -0.035797,0.1572 0.05549,0.16271 0.085563,0.33119 0.091695,0.4989 0.00482,0.13157 0.1651648,0.19347 0.2582793,0.10036 l 0.3511288,-0.35113 c 0.5608734,-0.56076 0.5608734,-1.47335 9.5e-6,-2.03412 z"
       inkscape:connector-curvature="0"
       style="fill:#b1b1b1;fill-opacity:1;stroke-width:0.00946284"
       inkscape:export-filename="D:\DEV_SRC\RxOT\DuAEF\DuAEF_Duik\icons\w16\w16_constraints.png"
       inkscape:export-xdpi="48"
       inkscape:export-ydpi="48" />
  </g>
  <style
     type="text/css"
     id="style815">
	.st0{fill:#00005B;}
	.st1{fill:#9999FF;}
</style>
  <style
     id="style815-4"
     type="text/css">
	.st0{fill:#00005B;}
	.st1{fill:#9999FF;}
</style>
  <style
     id="style815-5"
     type="text/css">
	.st0{fill:#00005B;}
	.st1{fill:#9999FF;}
</style>
</svg>
