<?xml version="1.0" encoding="UTF-8" standalone="no"?>
<svg
   xmlns:dc="http://purl.org/dc/elements/1.1/"
   xmlns:cc="http://creativecommons.org/ns#"
   xmlns:rdf="http://www.w3.org/1999/02/22-rdf-syntax-ns#"
   xmlns:svg="http://www.w3.org/2000/svg"
   xmlns="http://www.w3.org/2000/svg"
   xmlns:sodipodi="http://sodipodi.sourceforge.net/DTD/sodipodi-0.dtd"
   xmlns:inkscape="http://www.inkscape.org/namespaces/inkscape"
   width="32"
   height="32"
   viewBox="0 0 8.4666666 8.4666666"
   version="1.1"
   id="svg8"
   inkscape:version="1.0.2-2 (e86c870879, 2021-01-15)"
   sodipodi:docname="paste.svg"
   inkscape:export-filename="D:\DEV_SRC\RxOT\DuAEF_Duik\icons\w12\w12_paste.png"
   inkscape:export-xdpi="36"
   inkscape:export-ydpi="36">
  <defs
     id="defs2" />
  <sodipodi:namedview
     id="base"
     pagecolor="#ffffff"
     bordercolor="#666666"
     borderopacity="1.0"
     inkscape:pageopacity="0.0"
     inkscape:pageshadow="2"
     inkscape:zoom="15.999999"
     inkscape:cx="25.891549"
     inkscape:cy="19.893534"
     inkscape:document-units="mm"
     inkscape:current-layer="layer1"
     showgrid="false"
     units="px"
     inkscape:window-width="3378"
     inkscape:window-height="1417"
     inkscape:window-x="973"
     inkscape:window-y="-8"
     inkscape:window-maximized="1"
     inkscape:snap-bbox="true"
     inkscape:bbox-paths="true"
     inkscape:bbox-nodes="true"
     inkscape:snap-bbox-edge-midpoints="true"
     inkscape:snap-bbox-midpoints="true"
     inkscape:snap-nodes="false"
     inkscape:document-rotation="0">
    <sodipodi:guide
       position="8.4666666,0"
       orientation="-32,0"
       id="guide854"
       inkscape:locked="false" />
    <sodipodi:guide
       position="8.4666666,8.4666666"
       orientation="0,-32"
       id="guide856"
       inkscape:locked="false" />
    <sodipodi:guide
       position="0,8.4666814"
       orientation="32,0"
       id="guide858"
       inkscape:locked="false" />
  </sodipodi:namedview>
  <metadata
     id="metadata5">
    <rdf:RDF>
      <cc:Work
         rdf:about="">
        <dc:format>image/svg+xml</dc:format>
        <dc:type
           rdf:resource="http://purl.org/dc/dcmitype/StillImage" />
        <dc:title></dc:title>
      </cc:Work>
    </rdf:RDF>
  </metadata>
  <g
     inkscape:label="Layer 1"
     inkscape:groupmode="layer"
     id="layer1"
     transform="translate(0,-288.53334)">
    <path
       id="path834"
       style="fill:#b1b1b1;fill-opacity:1;stroke-width:0.0164765"
       d="m 0.94128623,288.53024 c -0.21839553,0 -0.39558307,0.17719 -0.39558307,0.39558 v 6.0663 c 0,0.2184 0.17718754,0.39558 0.39558307,0.39558 H 2.6546166 v -3.82276 c 0,-0.50878 0.4139218,-0.92268 0.922682,-0.92268 h 2.240947 v -1.71644 c 0,-0.21839 -0.1771875,-0.39558 -0.3955832,-0.39558 z m 0.52399227,0.50017 h 3.2640781 c 0.2616069,0 0.4722143,0.21061 0.4722143,0.47222 v 0.11598 c 0,0.26161 -0.2106074,0.47221 -0.4722143,0.47221 H 1.4652785 c -0.2616068,0 -0.47221438,-0.2106 -0.47221438,-0.47221 v -0.11598 c 0,-0.26161 0.21060758,-0.47222 0.47221438,-0.47222 z m 2.1120201,2.13895 c -0.2183954,0 -0.3955831,0.17718 -0.3955831,0.39558 v 5.00899 c 0,0.21839 0.1771877,0.39559 0.3955831,0.39559 h 3.9542772 c 0.2183962,0 0.3955832,-0.1772 0.3955832,-0.39559 v -3.29514 H 6.2138286 c -0.2174893,0 -0.395583,-0.1781 -0.395583,-0.39558 v -1.71385 z m 2.7680459,0 v 1.58181 H 7.927159 v -0.0999 c -2.7e-6,-0.10488 -0.04182,-0.20545 -0.1159825,-0.2796 l -1.0863,-1.0863 c -0.074152,-0.0742 -0.174724,-0.11597 -0.2796007,-0.11598 z" />
  </g>
</svg>
