<?xml version="1.0" encoding="UTF-8" standalone="no"?>
<svg
   width="32"
   height="32"
   viewBox="0 0 8.4666666 8.4666666"
   version="1.1"
   id="svg8"
   inkscape:version="1.1 (c68e22c387, 2021-05-23)"
   sodipodi:docname="paste_expression.svg"
   inkscape:export-filename="C:\DEV_SRC\RxOT\DuAEF_Duik\icons\w12\w12_paste_expression.png"
   inkscape:export-xdpi="36"
   inkscape:export-ydpi="36"
   xmlns:inkscape="http://www.inkscape.org/namespaces/inkscape"
   xmlns:sodipodi="http://sodipodi.sourceforge.net/DTD/sodipodi-0.dtd"
   xmlns="http://www.w3.org/2000/svg"
   xmlns:svg="http://www.w3.org/2000/svg"
   xmlns:rdf="http://www.w3.org/1999/02/22-rdf-syntax-ns#"
   xmlns:cc="http://creativecommons.org/ns#"
   xmlns:dc="http://purl.org/dc/elements/1.1/">
  <defs
     id="defs2" />
  <sodipodi:namedview
     id="base"
     pagecolor="#ffffff"
     bordercolor="#666666"
     borderopacity="1.0"
     inkscape:pageopacity="0.0"
     inkscape:pageshadow="2"
     inkscape:zoom="11.313708"
     inkscape:cx="4.4194177"
     inkscape:cy="15.821515"
     inkscape:document-units="mm"
     inkscape:current-layer="layer1"
     showgrid="false"
     units="px"
     inkscape:window-width="1920"
     inkscape:window-height="1137"
     inkscape:window-x="-8"
     inkscape:window-y="-8"
     inkscape:window-maximized="1"
     inkscape:snap-bbox="true"
     inkscape:bbox-paths="true"
     inkscape:bbox-nodes="true"
     inkscape:snap-bbox-edge-midpoints="true"
     inkscape:snap-bbox-midpoints="true"
     inkscape:snap-nodes="false"
     inkscape:document-rotation="0"
     inkscape:pagecheckerboard="1">
    <sodipodi:guide
       position="8.4666666,0"
       orientation="-32,0"
       id="guide854"
       inkscape:locked="false" />
    <sodipodi:guide
       position="8.4666666,8.4666666"
       orientation="0,-32"
       id="guide856"
       inkscape:locked="false" />
    <sodipodi:guide
       position="0,8.4666814"
       orientation="32,0"
       id="guide858"
       inkscape:locked="false" />
  </sodipodi:namedview>
  <metadata
     id="metadata5">
    <rdf:RDF>
      <cc:Work
         rdf:about="">
        <dc:format>image/svg+xml</dc:format>
        <dc:type
           rdf:resource="http://purl.org/dc/dcmitype/StillImage" />
      </cc:Work>
    </rdf:RDF>
  </metadata>
  <g
     inkscape:label="Layer 1"
     inkscape:groupmode="layer"
     id="layer1"
     transform="translate(0,-288.53334)">
    <path
       id="path834"
       style="fill:#b1b1b1;fill-opacity:1;stroke-width:0.0622734"
       d="m 3.5585938,-0.01171875 c -0.825432,0 -1.4960938,0.6687296 -1.4960938,1.49414065 V 24.412109 c 0,0.825449 0.6706618,1.494141 1.4960938,1.494141 H 10.033203 V 11.458984 c 0,-1.9229477 1.563455,-3.4882809 3.486328,-3.4882809 h 8.470703 V 1.4824219 c 0,-0.82541105 -0.670661,-1.49414065 -1.496093,-1.49414065 z M 5.5371094,1.8789062 H 17.875 c 0.98875,0 1.785156,0.7963941 1.785156,1.7851563 v 0.4375 c 0,0.9887622 -0.796406,1.7851563 -1.785156,1.7851563 H 5.5371094 c -0.9887501,0 -1.7832032,-0.7963941 -1.7832032,-1.7851563 v -0.4375 c 0,-0.9887622 0.7944531,-1.7851563 1.7832032,-1.7851563 z m 7.9824216,8.0839844 c -0.825431,0 -1.49414,0.6706454 -1.49414,1.4960934 v 18.929688 c 0,0.825411 0.668709,1.496094 1.49414,1.496094 h 14.945313 c 0.825434,0 1.496094,-0.670683 1.496094,-1.496094 V 17.935547 h -6.476563 c -0.822007,0 -1.494141,-0.672169 -1.494141,-1.494141 V 9.9628906 Z m 10.462891,0 v 5.9785154 h 5.978516 v -0.376953 c -1.1e-5,-0.396397 -0.157201,-0.776389 -0.4375,-1.056641 L 25.416016,10.402344 C 25.135756,10.121903 24.755759,9.9629284 24.359375,9.9628906 Z m -7.923828,6.5253904 c 0.397344,-0.02991 0.798335,0.149412 1.123047,0.320313 l 7.828125,4.205078 c 1.298844,0.683602 2.015625,1.401353 2.015625,2.529297 0,1.093764 -0.615217,1.777334 -2.050782,2.529297 l -7.792968,4.205078 c -0.649423,0.341801 -1.605461,0.716813 -2.220703,-0.582032 -0.649423,-1.333024 0.272452,-1.777339 0.921874,-2.11914 l 7.72461,-4 -7.757813,-3.998047 c -0.683602,-0.341801 -1.538094,-0.787092 -0.888671,-2.154297 0.307621,-0.666512 0.700312,-0.905639 1.097656,-0.935547 z"
       transform="matrix(0.26458333,0,0,0.26458333,0,288.53334)" />
  </g>
</svg>
