<?xml version="1.0" encoding="UTF-8" standalone="no"?>
<!-- Created with Inkscape (http://www.inkscape.org/) -->

<svg
   xmlns:dc="http://purl.org/dc/elements/1.1/"
   xmlns:cc="http://creativecommons.org/ns#"
   xmlns:rdf="http://www.w3.org/1999/02/22-rdf-syntax-ns#"
   xmlns:svg="http://www.w3.org/2000/svg"
   xmlns="http://www.w3.org/2000/svg"
   xmlns:sodipodi="http://sodipodi.sourceforge.net/DTD/sodipodi-0.dtd"
   xmlns:inkscape="http://www.inkscape.org/namespaces/inkscape"
   width="32"
   height="32"
   viewBox="0 0 8.4666666 8.4666666"
   version="1.1"
   id="svg8"
   inkscape:version="0.92.5 (2060ec1f9f, 2020-04-08)"
   sodipodi:docname="quadruped-armature-structure-bones_sl.svg">
  <defs
     id="defs2">
    <style
       id="style1399">.cls-1{fill:#e3e3e3;}</style>
    <style
       id="style1399-4">.cls-1{fill:#e3e3e3;}</style>
    <style
       id="style1399-8">.cls-1{fill:#e3e3e3;}</style>
    <style
       id="style1399-4-5">.cls-1{fill:#e3e3e3;}</style>
    <style
       id="style1399-0">.cls-1{fill:#e3e3e3;}</style>
    <style
       id="style854">.cls-1{fill:#e3e3e3;}</style>
    <style
       id="style1399-84">.cls-1{fill:#e3e3e3;}</style>
    <style
       id="style1399-4-8">.cls-1{fill:#e3e3e3;}</style>
    <style
       id="style1399-8-10">.cls-1{fill:#e3e3e3;}</style>
    <style
       id="style1399-4-5-3">.cls-1{fill:#e3e3e3;}</style>
    <style
       id="style1399-0-0">.cls-1{fill:#e3e3e3;}</style>
    <style
       id="style1399-5">.cls-1{fill:#e3e3e3;}</style>
    <style
       id="style1399-4-6">.cls-1{fill:#e3e3e3;}</style>
    <style
       id="style1399-8-1">.cls-1{fill:#e3e3e3;}</style>
    <style
       id="style1399-4-5-1">.cls-1{fill:#e3e3e3;}</style>
    <style
       id="style1399-0-5">.cls-1{fill:#e3e3e3;}</style>
    <style
       id="style1257">.cls-1{fill:#e3e3e3;}</style>
    <style
       id="style1387">.cls-1{fill:#e3e3e3;}</style>
    <style
       id="style1399-59">.cls-1{fill:#e3e3e3;}</style>
    <style
       id="style1399-89">.cls-1{fill:#e3e3e3;}</style>
    <style
       id="style1399-4-64">.cls-1{fill:#e3e3e3;}</style>
    <style
       id="style1399-8-3">.cls-1{fill:#e3e3e3;}</style>
    <style
       id="style1399-4-5-33">.cls-1{fill:#e3e3e3;}</style>
    <style
       id="style1399-0-8">.cls-1{fill:#e3e3e3;}</style>
    <style
       id="style1399-7">.cls-1{fill:#e3e3e3;}</style>
    <style
       id="style1399-4-7">.cls-1{fill:#e3e3e3;}</style>
    <style
       id="style1399-8-6">.cls-1{fill:#e3e3e3;}</style>
    <style
       id="style1399-4-5-4">.cls-1{fill:#e3e3e3;}</style>
    <style
       id="style1399-0-3">.cls-1{fill:#e3e3e3;}</style>
    <style
       id="style1399-05">.cls-1{fill:#e3e3e3;}</style>
    <style
       id="style1399-4-9">.cls-1{fill:#e3e3e3;}</style>
    <style
       id="style1399-8-4">.cls-1{fill:#e3e3e3;}</style>
    <style
       id="style1399-4-5-6">.cls-1{fill:#e3e3e3;}</style>
    <style
       id="style1399-0-9">.cls-1{fill:#e3e3e3;}</style>
    <style
       id="style854-2">.cls-1{fill:#e3e3e3;}</style>
    <style
       id="style1399-84-2">.cls-1{fill:#e3e3e3;}</style>
    <style
       id="style1399-4-8-4">.cls-1{fill:#e3e3e3;}</style>
    <style
       id="style1399-8-10-7">.cls-1{fill:#e3e3e3;}</style>
    <style
       id="style1399-4-5-3-7">.cls-1{fill:#e3e3e3;}</style>
    <style
       id="style1399-0-0-5">.cls-1{fill:#e3e3e3;}</style>
    <style
       id="style1399-5-4">.cls-1{fill:#e3e3e3;}</style>
    <style
       id="style1399-4-6-8">.cls-1{fill:#e3e3e3;}</style>
    <style
       id="style1399-8-1-1">.cls-1{fill:#e3e3e3;}</style>
    <style
       id="style1399-4-5-1-2">.cls-1{fill:#e3e3e3;}</style>
    <style
       id="style1399-0-5-8">.cls-1{fill:#e3e3e3;}</style>
    <style
       id="style1257-9">.cls-1{fill:#e3e3e3;}</style>
    <style
       id="style1387-3">.cls-1{fill:#e3e3e3;}</style>
    <style
       id="style1399-59-6">.cls-1{fill:#e3e3e3;}</style>
    <style
       id="style1399-89-8">.cls-1{fill:#e3e3e3;}</style>
    <style
       id="style1399-4-64-0">.cls-1{fill:#e3e3e3;}</style>
    <style
       id="style1399-8-3-2">.cls-1{fill:#e3e3e3;}</style>
    <style
       id="style1399-4-5-33-1">.cls-1{fill:#e3e3e3;}</style>
    <style
       id="style1399-0-8-0">.cls-1{fill:#e3e3e3;}</style>
  </defs>
  <sodipodi:namedview
     id="base"
     pagecolor="#ffffff"
     bordercolor="#666666"
     borderopacity="1.0"
     inkscape:pageopacity="0.0"
     inkscape:pageshadow="2"
     inkscape:zoom="15.999999"
     inkscape:cx="12.839675"
     inkscape:cy="15.854336"
     inkscape:document-units="mm"
     inkscape:current-layer="svg8"
     showgrid="false"
     units="px"
     inkscape:window-width="1920"
     inkscape:window-height="1043"
     inkscape:window-x="0"
     inkscape:window-y="120"
     inkscape:window-maximized="1"
     inkscape:snap-bbox="true"
     inkscape:bbox-paths="true"
     inkscape:bbox-nodes="true"
     inkscape:snap-bbox-edge-midpoints="true"
     inkscape:snap-bbox-midpoints="true"
     inkscape:snap-nodes="true"
     inkscape:snap-others="true"
     inkscape:snap-object-midpoints="true"
     inkscape:snap-page="true">
    <sodipodi:guide
       position="8.4666666,0"
       orientation="-32,0"
       id="guide854"
       inkscape:locked="false" />
    <sodipodi:guide
       position="8.4666666,8.4666666"
       orientation="0,-32"
       id="guide856"
       inkscape:locked="false" />
  </sodipodi:namedview>
  <metadata
     id="metadata5">
    <rdf:RDF>
      <cc:Work
         rdf:about="">
        <dc:format>image/svg+xml</dc:format>
        <dc:type
           rdf:resource="http://purl.org/dc/dcmitype/StillImage" />
        <dc:title></dc:title>
      </cc:Work>
    </rdf:RDF>
  </metadata>
  <path
     sodipodi:nodetypes="scccsscccccscccccccccc"
     inkscape:connector-curvature="0"
     id="path828"
     d="M 5.658775,7.8729985 C 5.7295181,7.8022552 5.7731129,7.7041887 5.7731128,7.5957744 L 5.7435505,5.3461902 c 0.090213,-0.043565 0.1725535,-0.1018318 0.2436487,-0.1724143 0.3528216,-0.3528217 0.3528216,-0.9248587 0,-1.2776802 -0.3528218,-0.3528219 -0.9248588,-0.3528219 -1.2776805,0 -0.3528218,0.3528216 -0.3528218,0.9248585 0,1.2776802 0.071095,0.070584 0.1534349,0.128849 0.2436485,0.1724143 l 0.030016,2.2495842 c 0,0.2168287 0.1745064,0.391335 0.3913351,0.391335 l 0.00726,-2e-7 c 0.1084129,3e-7 0.2062522,-0.043368 0.2769955,-0.1141107 z M 5.738786,4.9253633 c -0.2155946,0.2157059 -0.5652602,0.2157059 -0.7808551,0 -0.2157058,-0.2155945 -0.2157058,-0.5652606 0,-0.7808549 0.2155947,-0.215706 0.5652605,-0.2157061 0.7808552,0 0.2157058,0.2155944 0.2157058,0.5652604 -10e-8,0.7808549 z M 5.5101107,4.6966875 c 0.089366,-0.08932 0.089366,-0.2341839 0,-0.3235036 -0.08932,-0.089366 -0.2341841,-0.089366 -0.3235037,1e-7 -0.089366,0.08932 -0.089366,0.234184 0,0.3235035 0.08932,0.089366 0.2341842,0.089366 0.3235037,0 z"
     style="opacity:1;fill:#e3e3e3;fill-opacity:1;stroke:none;stroke-width:0.97162002;stroke-linecap:butt;stroke-linejoin:miter;stroke-miterlimit:4;stroke-dasharray:none;stroke-dashoffset:0;stroke-opacity:1" />
  <path
     style="opacity:1;fill:#e3e3e3;fill-opacity:1;stroke:none;stroke-width:0.97162002;stroke-linecap:butt;stroke-linejoin:miter;stroke-miterlimit:4;stroke-dasharray:none;stroke-dashoffset:0;stroke-opacity:1"
     d="M 2.7968677,7.8729984 C 2.8676111,7.8022552 2.9112059,7.7041887 2.9112059,7.5957744 L 2.8816433,5.3461901 c 0.090213,-0.043564 0.1725533,-0.1018318 0.2436487,-0.1724142 0.3528217,-0.3528217 0.3528217,-0.9248588 0,-1.2776803 -0.3528217,-0.3528218 -0.9248588,-0.3528218 -1.2776806,0 -0.3528217,0.3528216 -0.3528217,0.9248586 0,1.2776803 0.071095,0.070583 0.1534349,0.128849 0.2436488,0.1724142 l 0.030016,2.2495843 c -2e-7,0.2168287 0.1745061,0.391335 0.3913349,0.391335 l 0.00726,-3e-7 c 0.1084184,4e-7 0.2062582,-0.043368 0.2770015,-0.1141107 z m 0.080013,-2.9476351 c -0.2155946,0.2157058 -0.5652604,0.2157058 -0.7808552,0 -0.2157057,-0.2155947 -0.2157057,-0.5652605 0,-0.780855 0.2155946,-0.2157059 0.5652605,-0.215706 0.7808552,0 0.215706,0.2155946 0.2157058,0.5652605 0,0.780855 z M 2.6482036,4.6966874 c 0.089366,-0.08932 0.089366,-0.234184 0,-0.3235035 -0.08932,-0.089366 -0.2341843,-0.089366 -0.3235037,2e-7 -0.089366,0.08932 -0.089366,0.2341839 0,0.3235033 0.08932,0.089366 0.234184,0.089366 0.3235037,0 z"
     id="path1638"
     inkscape:connector-curvature="0"
     sodipodi:nodetypes="scccsscccccscccccccccc" />
  <path
     style="opacity:1;fill:#e3e3e3;fill-opacity:1;stroke:none;stroke-width:1.23809922;stroke-linecap:round;stroke-linejoin:round;stroke-miterlimit:4;stroke-dasharray:1.23809914, 2.47619831;stroke-dashoffset:15.63091469;stroke-opacity:1"
     d="M 1.2084554,0.52597649 A 1.2085216,1.2085216 0 0 0 0,1.7344318 1.2085216,1.2085216 0 0 0 1.2084554,2.9428874 1.2085216,1.2085216 0 0 0 2.4169103,1.7344318 1.2085216,1.2085216 0 0 0 1.2084554,0.52597649 Z m 0,0.4689203 c 0.1890314,0 0.378408,0.072659 0.5226048,0.21693021 0.2885421,0.2883931 0.2885421,0.7557207 0,1.0441141 -0.2883933,0.288542 -0.75681648,0.288542 -1.04520985,0 -0.28854216,-0.2883933 -0.28854162,-0.7557208 0,-1.0441141 C 0.83004736,1.067556 1.0194232,0.99489679 1.2084554,0.99489679 Z m 0,0.43276491 c -0.078315,0 -0.1560946,0.03007 -0.21583496,0.08984 -0.11954107,0.1194803 -0.11954107,0.3132856 0,0.4327651 0.11948026,0.1195411 0.31218996,0.1195411 0.43166996,0 0.1195411,-0.1194802 0.1195411,-0.3132853 0,-0.4327651 -0.059741,-0.059772 -0.1375196,-0.08984 -0.215835,-0.08984 z"
     id="path1503"
     inkscape:connector-curvature="0" />
  <rect
     style="opacity:1;fill:#e3e3e3;fill-opacity:1;stroke:none;stroke-width:0.62875265;stroke-linecap:round;stroke-linejoin:round;stroke-miterlimit:4;stroke-dasharray:0.62875267, 1.25750533;stroke-dashoffset:15.63091469;stroke-opacity:1"
     id="rect1821"
     width="3.6372657"
     height="0.80777967"
     x="2.0991962"
     y="2.6620808"
     ry="0.3801702" />
  <rect
     ry="0.3801702"
     y="-3.8447285"
     x="6.1229625"
     height="0.80777967"
     width="3.6372657"
     id="rect1823"
     style="opacity:1;fill:#e3e3e3;fill-opacity:1;stroke:none;stroke-width:0.62875265;stroke-linecap:round;stroke-linejoin:round;stroke-miterlimit:4;stroke-dasharray:0.62875267, 1.25750533;stroke-dashoffset:15.63091469;stroke-opacity:1"
     transform="rotate(56.306534)" />
</svg>
