<?xml version="1.0" encoding="UTF-8" standalone="no"?>
<svg
   id="Calque_1"
   data-name="Calque 1"
   viewBox="0 0 32 32"
   version="1.1"
   sodipodi:docname="right_hand.svg"
   inkscape:version="1.1 (c68e22c387, 2021-05-23)"
   inkscape:export-filename="D:\DEV_SRC\RxOT\DuAEF\DuAEF_Duik\icons\w16/w16_left_hand.png"
   inkscape:export-xdpi="48"
   inkscape:export-ydpi="48"
   xmlns:inkscape="http://www.inkscape.org/namespaces/inkscape"
   xmlns:sodipodi="http://sodipodi.sourceforge.net/DTD/sodipodi-0.dtd"
   xmlns="http://www.w3.org/2000/svg"
   xmlns:svg="http://www.w3.org/2000/svg"
   xmlns:rdf="http://www.w3.org/1999/02/22-rdf-syntax-ns#"
   xmlns:cc="http://creativecommons.org/ns#"
   xmlns:dc="http://purl.org/dc/elements/1.1/">
  <metadata
     id="metadata31">
    <rdf:RDF>
      <cc:Work
         rdf:about="">
        <dc:format>image/svg+xml</dc:format>
        <dc:type
           rdf:resource="http://purl.org/dc/dcmitype/StillImage" />
        <dc:title>body_l</dc:title>
      </cc:Work>
    </rdf:RDF>
  </metadata>
  <sodipodi:namedview
     pagecolor="#ffffff"
     bordercolor="#666666"
     borderopacity="1"
     objecttolerance="10"
     gridtolerance="10"
     guidetolerance="10"
     inkscape:pageopacity="0"
     inkscape:pageshadow="2"
     inkscape:window-width="1920"
     inkscape:window-height="1027"
     id="namedview29"
     showgrid="false"
     inkscape:snap-bbox="true"
     inkscape:bbox-paths="true"
     inkscape:bbox-nodes="true"
     inkscape:snap-bbox-edge-midpoints="true"
     inkscape:snap-bbox-midpoints="true"
     inkscape:snap-nodes="false"
     inkscape:zoom="10.429825"
     inkscape:cx="2.1093355"
     inkscape:cy="15.580319"
     inkscape:window-x="-8"
     inkscape:window-y="-8"
     inkscape:window-maximized="1"
     inkscape:current-layer="Calque_1"
     inkscape:document-rotation="0"
     inkscape:pagecheckerboard="1" />
  <defs
     id="defs4">
    <style
       id="style2">.cls-1{fill:#e3e3e3;}</style>
    <style
       id="style1399">.cls-1{fill:#e3e3e3;}</style>
    <style
       id="style1399-4">.cls-1{fill:#e3e3e3;}</style>
    <style
       id="style1399-8">.cls-1{fill:#e3e3e3;}</style>
    <style
       id="style1399-4-5">.cls-1{fill:#e3e3e3;}</style>
    <style
       id="style1399-0">.cls-1{fill:#e3e3e3;}</style>
    <style
       id="style854">.cls-1{fill:#e3e3e3;}</style>
    <style
       id="style1399-84">.cls-1{fill:#e3e3e3;}</style>
    <style
       id="style1399-4-8">.cls-1{fill:#e3e3e3;}</style>
    <style
       id="style1399-8-10">.cls-1{fill:#e3e3e3;}</style>
    <style
       id="style1399-4-5-3">.cls-1{fill:#e3e3e3;}</style>
    <style
       id="style1399-0-0">.cls-1{fill:#e3e3e3;}</style>
    <style
       id="style1399-5">.cls-1{fill:#e3e3e3;}</style>
    <style
       id="style1399-4-6">.cls-1{fill:#e3e3e3;}</style>
    <style
       id="style1399-8-1">.cls-1{fill:#e3e3e3;}</style>
    <style
       id="style1399-4-5-1">.cls-1{fill:#e3e3e3;}</style>
    <style
       id="style1399-0-5">.cls-1{fill:#e3e3e3;}</style>
    <style
       id="style1257">.cls-1{fill:#e3e3e3;}</style>
    <style
       id="style836">.cls-1{fill:#e3e3e3;}</style>
    <style
       id="style891">.cls-1{fill:#e3e3e3;}</style>
    <inkscape:path-effect
       oposite_fuse="false"
       fuse_paths="false"
       discard_orig_path="false"
       mode="free"
       is_visible="true"
       id="path-effect860"
       center_point="4.2644223,4.1242769"
       end_point="4.2644223,6.6226791"
       start_point="4.2644223,1.6258747"
       effect="mirror_symmetry" />
    <style
       id="style1399-9">.cls-1{fill:#e3e3e3;}</style>
    <style
       id="style1399-4-63">.cls-1{fill:#e3e3e3;}</style>
    <style
       id="style1399-8-8">.cls-1{fill:#e3e3e3;}</style>
    <style
       id="style1399-4-5-5">.cls-1{fill:#e3e3e3;}</style>
    <style
       id="style1399-0-6">.cls-1{fill:#e3e3e3;}</style>
    <style
       id="style854-1">.cls-1{fill:#e3e3e3;}</style>
    <style
       id="style1399-84-1">.cls-1{fill:#e3e3e3;}</style>
    <style
       id="style1399-4-8-5">.cls-1{fill:#e3e3e3;}</style>
    <style
       id="style1399-8-10-9">.cls-1{fill:#e3e3e3;}</style>
    <style
       id="style1399-4-5-3-8">.cls-1{fill:#e3e3e3;}</style>
    <style
       id="style1399-0-0-4">.cls-1{fill:#e3e3e3;}</style>
    <style
       id="style1399-5-8">.cls-1{fill:#e3e3e3;}</style>
    <style
       id="style1399-4-6-1">.cls-1{fill:#e3e3e3;}</style>
    <style
       id="style1399-8-1-0">.cls-1{fill:#e3e3e3;}</style>
    <style
       id="style1399-4-5-1-3">.cls-1{fill:#e3e3e3;}</style>
    <style
       id="style1399-0-5-0">.cls-1{fill:#e3e3e3;}</style>
    <style
       id="style1257-4">.cls-1{fill:#e3e3e3;}</style>
    <style
       id="style836-4">.cls-1{fill:#e3e3e3;}</style>
    <style
       id="style891-4">.cls-1{fill:#e3e3e3;}</style>
  </defs>
  <title
     id="title6">body_l</title>
  <path
     id="path875"
     style="fill:#b1b1b1;fill-opacity:1;stroke-width:0.0470395"
     d="m 14.018463,4.8557834 c 0.362193,0.012551 0.724451,0.1294279 1.03962,0.3586211 l 8.124295,5.9077115 a -2.2578856,2.2578856 0 0 1 0.928982,1.827442 v 3.574767 c -0.668283,0.01202 -1.48304,-0.0218 -2.350113,-0.167866 -2.168105,-0.365235 -4.531073,-1.371604 -5.770368,-4.122236 a -0.73250283,0.73250283 0 0 0 -0.969039,-0.366251 -0.73250283,0.73250283 0 0 0 -0.366252,0.969041 c 1.475515,3.274923 4.41111,4.552589 6.861491,4.965377 0.95488,0.160858 1.852338,0.199294 2.594281,0.18694 v 4.253858 c 0,1.047752 -0.719792,1.957513 -1.739694,2.197508 l -5.301108,1.247545 a -9.03206,9.03206 0 0 1 -0.763024,0.133529 c 0.709147,-2.041131 1.280219,-4.685671 0.799268,-7.233465 a -0.73250283,0.73250283 0 0 0 -0.856495,-0.583714 -0.73250283,0.73250283 0 0 0 -0.583713,0.854586 c 0.452084,2.394873 -0.264298,5.101167 -1.007191,7.069416 H 7.9295326 c -1.026914,4.9e-5 -1.861286,-0.822399 -1.880853,-1.84461 -0.02019,-1.054858 0.863915,-1.919005 1.919005,-1.919005 H 12.068937 V 21.789189 H 3.7805906 c -1.055095,0 -1.939186,-0.864148 -1.919005,-1.919004 0.01958,-1.022212 0.855846,-1.844611 1.882762,-1.844611 H 12.068937 V 17.649785 H 1.9455186 c -1.05509096,0 -1.93727296,-0.864149 -1.91709696,-1.919005 0.01957,-1.022208 0.85394,-1.844608 1.88085396,-1.84461 H 12.068937 V 13.510381 H 3.8282796 c -1.055091,0 -1.939185,-0.864149 -1.919004,-1.919005 0.01958,-1.022211 0.85394,-1.8446103 1.880854,-1.8446103 H 14.892125 L 12.845314,8.2588695 C 12.004911,7.6476915 11.818235,6.4707487 12.429466,5.6302525 12.811482,5.1050306 13.414808,4.8348641 14.018463,4.8557834 Z" />
  <rect
     style="fill:#b1b1b1;fill-opacity:1;stroke:none;stroke-width:1.5;stroke-linecap:round;stroke-miterlimit:4;stroke-dasharray:none"
     id="rect1431"
     width="6.0619807"
     height="20.006916"
     x="-31.931988"
     y="7.2189989"
     ry="2.9830508"
     transform="scale(-1,1)" />
</svg>
