<?xml version="1.0" encoding="UTF-8" standalone="no"?>
<!-- Created with Inkscape (http://www.inkscape.org/) -->

<svg
   width="32"
   height="32"
   viewBox="0 0 8.4666666 8.4666666"
   version="1.1"
   id="svg8"
   inkscape:version="1.1.1 (3bf5ae0d25, 2021-09-20)"
   sodipodi:docname="scale-z-link.svg"
   inkscape:export-filename="D:\RxLab\src\RxOT\DuAEF_Duik\icons\w12\w12_scale_z_link.png"
   inkscape:export-xdpi="36"
   inkscape:export-ydpi="36"
   xmlns:inkscape="http://www.inkscape.org/namespaces/inkscape"
   xmlns:sodipodi="http://sodipodi.sourceforge.net/DTD/sodipodi-0.dtd"
   xmlns="http://www.w3.org/2000/svg"
   xmlns:svg="http://www.w3.org/2000/svg"
   xmlns:rdf="http://www.w3.org/1999/02/22-rdf-syntax-ns#"
   xmlns:cc="http://creativecommons.org/ns#"
   xmlns:dc="http://purl.org/dc/elements/1.1/">
  <defs
     id="defs2">
    <style
       id="style1399">.cls-1{fill:#e3e3e3;}</style>
    <style
       id="style1399-4">.cls-1{fill:#e3e3e3;}</style>
    <style
       id="style1399-5">.cls-1{fill:#e3e3e3;}</style>
    <style
       id="style1399-7">.cls-1{fill:#e3e3e3;}</style>
    <style
       id="style1399-3">.cls-1{fill:#e3e3e3;}</style>
    <style
       id="style1399-1">.cls-1{fill:#e3e3e3;}</style>
    <style
       id="style1399-5-8">.cls-1{fill:#e3e3e3;}</style>
    <style
       id="style1399-8">.cls-1{fill:#e3e3e3;}</style>
    <style
       id="style1399-7-8">.cls-1{fill:#e3e3e3;}</style>
    <style
       id="style1399-1-5">.cls-1{fill:#e3e3e3;}</style>
    <style
       id="style1399-5-6">.cls-1{fill:#e3e3e3;}</style>
    <style
       id="style1399-8-9">.cls-1{fill:#e3e3e3;}</style>
    <style
       id="style1399-2">.cls-1{fill:#e3e3e3;}</style>
    <style
       id="style1399-1-1">.cls-1{fill:#e3e3e3;}</style>
    <style
       id="style1399-5-5">.cls-1{fill:#e3e3e3;}</style>
    <style
       id="style1399-8-99">.cls-1{fill:#e3e3e3;}</style>
    <style
       id="style857">.cls-1{fill:#e52120;}.cls-1,.cls-2,.cls-3,.cls-4,.cls-5{stroke:#000;stroke-miterlimit:10;stroke-width:1.2px;}.cls-2{fill:#6dbc88;}.cls-3{fill:#701034;}.cls-4{fill:#51aae0;}.cls-5{fill:none;}</style>
  </defs>
  <sodipodi:namedview
     id="base"
     pagecolor="#ffffff"
     bordercolor="#666666"
     borderopacity="1.0"
     inkscape:pageopacity="0.0"
     inkscape:pageshadow="2"
     inkscape:zoom="22.627417"
     inkscape:cx="24.041631"
     inkscape:cy="14.650369"
     inkscape:document-units="mm"
     inkscape:current-layer="svg8"
     showgrid="false"
     units="px"
     inkscape:window-width="3378"
     inkscape:window-height="1417"
     inkscape:window-x="1974"
     inkscape:window-y="-8"
     inkscape:window-maximized="1"
     inkscape:pagecheckerboard="0"
     inkscape:snap-nodes="false"
     inkscape:snap-bbox="true"
     inkscape:bbox-paths="true"
     inkscape:bbox-nodes="true"
     inkscape:snap-bbox-edge-midpoints="true"
     inkscape:snap-bbox-midpoints="true">
    <sodipodi:guide
       position="8.4666666,0"
       orientation="-32,0"
       id="guide854"
       inkscape:locked="false" />
    <sodipodi:guide
       position="8.4666666,8.4686855"
       orientation="0,-32"
       id="guide856"
       inkscape:locked="false" />
    <sodipodi:guide
       position="0,8.4666814"
       orientation="32,0"
       id="guide858"
       inkscape:locked="false" />
  </sodipodi:namedview>
  <metadata
     id="metadata5">
    <rdf:RDF>
      <cc:Work
         rdf:about="">
        <dc:format>image/svg+xml</dc:format>
        <dc:type
           rdf:resource="http://purl.org/dc/dcmitype/StillImage" />
      </cc:Work>
    </rdf:RDF>
  </metadata>
  <style
     type="text/css"
     id="style815">
	.st0{fill:#00005B;}
	.st1{fill:#9999FF;}
</style>
  <path
     id="path2381"
     style="fill:#b1b1b1;fill-opacity:0.74901962;stroke-width:0.0343293"
     d="M 0.6953125 0.005859375 C 0.31614565 0.005859564 0.0097666077 0.31223864 0.009765625 0.69140625 L 0.009765625 6.9394531 C 0.009765247 7.5511213 0.74911715 7.8563516 1.1816406 7.4238281 L 7.4277344 1.1777344 C 7.8602575 0.74521063 7.5530986 0.005835186 6.9414062 0.005859375 L 0.6953125 0.005859375 z M 25.066406 0.01171875 C 24.454738 0.011718372 24.149508 0.7530229 24.582031 1.1855469 L 25.638672 2.2421875 C 26.075489 2.1638596 26.525242 2.1230456 26.982422 2.1230469 C 28.89475 2.1228868 30.65287 2.8440906 32 4.0253906 L 32 0.69921875 C 32 0.32005186 31.693622 0.011719922 31.314453 0.01171875 L 25.066406 0.01171875 z M 26.978516 4.8066406 C 24.242827 4.8066342 22.015631 7.0314848 22.015625 9.7675781 L 22.015625 12.871094 C 22.014293 12.875213 22.0154 12.881314 22.015625 12.886719 C 22.023184 15.597818 24.218933 17.830648 26.978516 17.832031 A 4.9764631 4.9764631 0 0 0 27.847656 17.755859 C 28.098397 17.711063 28.28313 17.494985 28.283203 17.240234 L 28.283203 16.267578 C 28.283308 15.882216 28.118265 15.545296 27.865234 15.310547 A 0.52348611 0.52348611 0 0 0 27.414062 15.179688 C 27.300476 15.200588 27.149024 15.220337 26.978516 15.220703 C 25.682576 15.220705 24.62696 14.170536 24.626953 12.869141 L 24.626953 9.7675781 C 24.626934 8.4639514 25.694605 7.4043504 27.001953 7.4179688 C 28.295691 7.430668 29.328173 8.5049726 29.328125 9.7988281 L 29.328125 10.402344 C 29.32804 10.603044 29.444766 10.784498 29.625 10.873047 C 30.157215 11.134571 30.642414 11.473069 31.066406 11.867188 C 31.399156 12.176338 31.939446 11.936659 31.939453 11.482422 L 31.939453 9.7695312 C 31.939711 7.033648 29.714384 4.8064116 26.978516 4.8066406 z M 26.978516 11.3125 L 26.978516 11.314453 A 4.9773774 4.9773774 0 0 0 26.109375 11.390625 C 25.858444 11.435233 25.673784 11.651328 25.673828 11.90625 L 25.673828 12.876953 C 25.673828 13.262432 25.838746 13.601142 26.091797 13.835938 A 0.52348611 0.52348611 0 0 0 26.542969 13.966797 C 26.65633 13.945711 26.807772 13.925894 26.978516 13.925781 C 28.27447 13.925793 29.330072 14.974 29.330078 16.275391 L 29.328125 19.376953 C 29.327328 20.679762 28.261572 21.739375 26.955078 21.726562 C 25.66136 21.713863 24.626944 20.639465 24.626953 19.345703 L 24.626953 18.742188 C 24.626938 18.5414 24.51236 18.360137 24.332031 18.271484 C 23.799824 18.009985 23.314608 17.671446 22.890625 17.277344 C 22.557892 16.968063 22.015591 17.209778 22.015625 17.664062 L 22.015625 19.376953 C 22.015408 22.112837 24.242632 24.338102 26.978516 24.337891 C 29.714205 24.337896 31.939434 22.113073 31.939453 19.376953 L 31.939453 16.273438 C 31.939453 16.267806 31.938261 16.261819 31.939453 16.257812 C 31.931812 13.546766 29.738058 11.313925 26.978516 11.3125 z M 16.144531 13.123047 C 15.909567 13.126839 15.683853 13.207254 15.451172 13.353516 L 7.2167969 17.751953 C 6.1835795 18.303895 6.6833008 19.701172 7.8398438 19.701172 L 19.347656 19.701172 C 19.343221 19.597601 19.340018 19.493205 19.339844 19.388672 L 19.333984 17.679688 A 2.6788569 2.6788569 0 0 1 19.333984 17.666016 C 19.333922 16.837112 20.024463 16.353124 20.554688 15.777344 C 20.454776 15.560795 20.337944 15.35254 20.21875 15.146484 L 16.892578 13.349609 C 16.623352 13.191207 16.379495 13.119255 16.144531 13.123047 z M 19.644531 21.494141 L 6.3828125 21.496094 C 5.8766695 21.496174 5.4673821 21.709365 5.2011719 22.03125 C 4.7575234 22.567748 4.7159666 23.391512 5.3125 23.960938 L 12.763672 30.894531 C 14.210025 32.340884 18.792355 32.400621 20.132812 30.898438 L 24.394531 26.560547 C 22.116412 25.729044 20.329812 23.835629 19.644531 21.494141 z M 0.68164062 24.378906 C 0.65722101 24.379174 0.63354493 24.37997 0.609375 24.382812 C 0.28710931 24.42072 -0.0019681393 24.686051 -0.001953125 25.068359 L -0.001953125 31.3125 C -0.001953125 31.691667 0.30442633 31.999998 0.68359375 32 L 6.9316406 32 C 7.5433099 32 7.8485395 31.26065 7.4160156 30.828125 L 1.1699219 24.582031 C 1.0280001 24.44011 0.85257802 24.37703 0.68164062 24.378906 z M 32.001953 25.113281 C 31.03676 25.96027 29.859651 26.569663 28.566406 26.847656 L 24.582031 30.830078 C 24.149508 31.262602 24.456667 32.001978 25.068359 32.001953 L 31.316406 32.001953 C 31.695572 32.001953 32.001951 31.695575 32.001953 31.316406 L 32.001953 25.113281 z "
     transform="scale(0.26458333)" />
</svg>
