<?xml version="1.0" encoding="UTF-8" standalone="no"?>
<svg
   xmlns:dc="http://purl.org/dc/elements/1.1/"
   xmlns:cc="http://creativecommons.org/ns#"
   xmlns:rdf="http://www.w3.org/1999/02/22-rdf-syntax-ns#"
   xmlns:svg="http://www.w3.org/2000/svg"
   xmlns="http://www.w3.org/2000/svg"
   xmlns:sodipodi="http://sodipodi.sourceforge.net/DTD/sodipodi-0.dtd"
   xmlns:inkscape="http://www.inkscape.org/namespaces/inkscape"
   width="32"
   height="32"
   viewBox="0 0 8.4666666 8.4666666"
   version="1.1"
   id="svg8"
   inkscape:version="1.0.2-2 (e86c870879, 2021-01-15)"
   sodipodi:docname="show_sl.svg"
   inkscape:export-filename="D:\DEV_SRC\RxOT\DuAEF_Duik\icons\w12/w12_show_sl.png"
   inkscape:export-xdpi="36"
   inkscape:export-ydpi="36">
  <defs
     id="defs2" />
  <sodipodi:namedview
     id="base"
     pagecolor="#ffffff"
     bordercolor="#666666"
     borderopacity="1.0"
     inkscape:pageopacity="0.0"
     inkscape:pageshadow="2"
     inkscape:zoom="11.313708"
     inkscape:cx="-10.53898"
     inkscape:cy="13.357964"
     inkscape:document-units="mm"
     inkscape:current-layer="layer1"
     showgrid="false"
     units="px"
     inkscape:window-width="3440"
     inkscape:window-height="1417"
     inkscape:window-x="1915"
     inkscape:window-y="-8"
     inkscape:window-maximized="1"
     inkscape:document-rotation="0">
    <sodipodi:guide
       position="8.4666666,0"
       orientation="-32,0"
       id="guide854"
       inkscape:locked="false" />
    <sodipodi:guide
       position="8.4666666,8.4666666"
       orientation="0,-32"
       id="guide856"
       inkscape:locked="false" />
    <sodipodi:guide
       position="0,8.4666814"
       orientation="32,0"
       id="guide858"
       inkscape:locked="false" />
  </sodipodi:namedview>
  <metadata
     id="metadata5">
    <rdf:RDF>
      <cc:Work
         rdf:about="">
        <dc:format>image/svg+xml</dc:format>
        <dc:type
           rdf:resource="http://purl.org/dc/dcmitype/StillImage" />
        <dc:title />
      </cc:Work>
    </rdf:RDF>
  </metadata>
  <g
     inkscape:label="Layer 1"
     inkscape:groupmode="layer"
     id="layer1"
     transform="translate(0,-288.53334)">
    <path
       style="fill:#b1b1b1;fill-opacity:1;stroke-width:0.0555371"
       d="m 16.001953,5.1367188 c -6.8271756,0 -12.7926235,3.9793738 -15.80273425,9.8535152 -0.25766003,0.50967 -0.25766003,1.111425 0,1.621094 3.01177685,5.876372 8.97555865,9.851563 15.80273425,9.851563 6.827175,0 12.79067,-3.979374 15.800781,-9.853516 0.257658,-0.509669 0.257658,-1.111424 0,-1.621094 C 28.790958,9.1119474 22.829128,5.1367188 16.001953,5.1367188 Z m -0.257812,2.6523437 c 4.181767,-0.1048907 8.253891,3.1130375 8.253906,8.0117185 0.0022,4.417701 -3.578384,7.998248 -7.996094,7.996094 -7.1253606,0 -10.6940222,-8.614536 -5.65625,-13.652344 1.574304,-1.5743029 3.497634,-2.3077909 5.398438,-2.3554685 z m 0.296875,2.6992185 a 5.3125002,5.3125002 0 0 0 -5.3125,5.3125 5.3125002,5.3125002 0 0 0 5.3125,5.3125 5.3125002,5.3125002 0 0 0 5.3125,-5.3125 5.3125002,5.3125002 0 0 0 -5.3125,-5.3125 z"
       transform="matrix(0.26458333,0,0,0.26458333,0,288.53334)"
       id="path904"
       inkscape:connector-curvature="0" />
  </g>
</svg>
