<?xml version="1.0" encoding="UTF-8" standalone="no"?>
<svg
   xmlns:dc="http://purl.org/dc/elements/1.1/"
   xmlns:cc="http://creativecommons.org/ns#"
   xmlns:rdf="http://www.w3.org/1999/02/22-rdf-syntax-ns#"
   xmlns:svg="http://www.w3.org/2000/svg"
   xmlns="http://www.w3.org/2000/svg"
   xmlns:sodipodi="http://sodipodi.sourceforge.net/DTD/sodipodi-0.dtd"
   xmlns:inkscape="http://www.inkscape.org/namespaces/inkscape"
   id="Calque_1"
   data-name="Calque 1"
   viewBox="0 0 32 32"
   version="1.1"
   sodipodi:docname="spine.svg"
   inkscape:version="1.0.2-2 (e86c870879, 2021-01-15)"
   inkscape:export-filename="D:\DEV_SRC\RxOT\DuAEF_Duik\icons\w16/w16_spine.png"
   inkscape:export-xdpi="48"
   inkscape:export-ydpi="48">
  <metadata
     id="metadata31">
    <rdf:RDF>
      <cc:Work
         rdf:about="">
        <dc:format>image/svg+xml</dc:format>
        <dc:type
           rdf:resource="http://purl.org/dc/dcmitype/StillImage" />
        <dc:title>body_l</dc:title>
      </cc:Work>
    </rdf:RDF>
  </metadata>
  <sodipodi:namedview
     pagecolor="#ffffff"
     bordercolor="#666666"
     borderopacity="1"
     objecttolerance="10"
     gridtolerance="10"
     guidetolerance="10"
     inkscape:pageopacity="0"
     inkscape:pageshadow="2"
     inkscape:window-width="3440"
     inkscape:window-height="1417"
     id="namedview29"
     showgrid="false"
     inkscape:snap-bbox="true"
     inkscape:bbox-paths="true"
     inkscape:bbox-nodes="true"
     inkscape:snap-bbox-edge-midpoints="true"
     inkscape:snap-bbox-midpoints="true"
     inkscape:snap-nodes="false"
     inkscape:zoom="14.75"
     inkscape:cx="3.0484033"
     inkscape:cy="9.9030971"
     inkscape:window-x="1915"
     inkscape:window-y="-8"
     inkscape:window-maximized="1"
     inkscape:current-layer="g1615"
     showguides="true"
     inkscape:guide-bbox="true"
     inkscape:document-rotation="0">
    <sodipodi:guide
       position="25.423729,31.977385"
       orientation="0,1"
       id="guide883"
       inkscape:locked="false" />
  </sodipodi:namedview>
  <defs
     id="defs4">
    <style
       id="style2">.cls-1{fill:#e3e3e3;}</style>
    <style
       id="style1399">.cls-1{fill:#e3e3e3;}</style>
    <style
       id="style1399-4">.cls-1{fill:#e3e3e3;}</style>
    <style
       id="style1399-8">.cls-1{fill:#e3e3e3;}</style>
    <style
       id="style1399-4-5">.cls-1{fill:#e3e3e3;}</style>
    <style
       id="style1399-0">.cls-1{fill:#e3e3e3;}</style>
    <style
       id="style854">.cls-1{fill:#e3e3e3;}</style>
    <style
       id="style1399-84">.cls-1{fill:#e3e3e3;}</style>
    <style
       id="style1399-4-8">.cls-1{fill:#e3e3e3;}</style>
    <style
       id="style1399-8-10">.cls-1{fill:#e3e3e3;}</style>
    <style
       id="style1399-4-5-3">.cls-1{fill:#e3e3e3;}</style>
    <style
       id="style1399-0-0">.cls-1{fill:#e3e3e3;}</style>
    <style
       id="style1399-5">.cls-1{fill:#e3e3e3;}</style>
    <style
       id="style1399-4-6">.cls-1{fill:#e3e3e3;}</style>
    <style
       id="style1399-8-1">.cls-1{fill:#e3e3e3;}</style>
    <style
       id="style1399-4-5-1">.cls-1{fill:#e3e3e3;}</style>
    <style
       id="style1399-0-5">.cls-1{fill:#e3e3e3;}</style>
    <style
       id="style1257">.cls-1{fill:#e3e3e3;}</style>
    <style
       id="style836">.cls-1{fill:#e3e3e3;}</style>
    <style
       id="style891">.cls-1{fill:#e3e3e3;}</style>
    <inkscape:path-effect
       oposite_fuse="false"
       fuse_paths="false"
       discard_orig_path="false"
       mode="free"
       is_visible="true"
       id="path-effect860"
       center_point="4.2644223,4.1242769"
       end_point="4.2644223,6.6226791"
       start_point="4.2644223,1.6258747"
       effect="mirror_symmetry" />
    <style
       id="style1399-9">.cls-1{fill:#e3e3e3;}</style>
    <style
       id="style1399-4-63">.cls-1{fill:#e3e3e3;}</style>
    <style
       id="style1399-8-8">.cls-1{fill:#e3e3e3;}</style>
    <style
       id="style1399-4-5-5">.cls-1{fill:#e3e3e3;}</style>
    <style
       id="style1399-0-6">.cls-1{fill:#e3e3e3;}</style>
    <style
       id="style854-1">.cls-1{fill:#e3e3e3;}</style>
    <style
       id="style1399-84-1">.cls-1{fill:#e3e3e3;}</style>
    <style
       id="style1399-4-8-5">.cls-1{fill:#e3e3e3;}</style>
    <style
       id="style1399-8-10-9">.cls-1{fill:#e3e3e3;}</style>
    <style
       id="style1399-4-5-3-8">.cls-1{fill:#e3e3e3;}</style>
    <style
       id="style1399-0-0-4">.cls-1{fill:#e3e3e3;}</style>
    <style
       id="style1399-5-8">.cls-1{fill:#e3e3e3;}</style>
    <style
       id="style1399-4-6-1">.cls-1{fill:#e3e3e3;}</style>
    <style
       id="style1399-8-1-0">.cls-1{fill:#e3e3e3;}</style>
    <style
       id="style1399-4-5-1-3">.cls-1{fill:#e3e3e3;}</style>
    <style
       id="style1399-0-5-0">.cls-1{fill:#e3e3e3;}</style>
    <style
       id="style1257-4">.cls-1{fill:#e3e3e3;}</style>
    <style
       id="style836-4">.cls-1{fill:#e3e3e3;}</style>
    <style
       id="style891-4">.cls-1{fill:#e3e3e3;}</style>
    <style
       id="style2-5">.cls-1{fill:#e3e3e3;}</style>
    <style
       id="style2-4">.cls-1{fill:#e3e3e3;}</style>
    <style
       id="style1399-59">.cls-1{fill:#e3e3e3;}</style>
    <style
       id="style1399-4-7">.cls-1{fill:#e3e3e3;}</style>
    <style
       id="style1399-8-5">.cls-1{fill:#e3e3e3;}</style>
    <style
       id="style1399-4-5-38">.cls-1{fill:#e3e3e3;}</style>
    <style
       id="style1399-0-8">.cls-1{fill:#e3e3e3;}</style>
    <style
       id="style854-3">.cls-1{fill:#e3e3e3;}</style>
    <style
       id="style1399-84-18">.cls-1{fill:#e3e3e3;}</style>
    <style
       id="style1399-4-8-9">.cls-1{fill:#e3e3e3;}</style>
    <style
       id="style1399-8-10-6">.cls-1{fill:#e3e3e3;}</style>
    <style
       id="style1399-4-5-3-4">.cls-1{fill:#e3e3e3;}</style>
    <style
       id="style1399-0-0-3">.cls-1{fill:#e3e3e3;}</style>
    <style
       id="style1399-5-3">.cls-1{fill:#e3e3e3;}</style>
    <style
       id="style1399-4-6-3">.cls-1{fill:#e3e3e3;}</style>
    <style
       id="style1399-8-1-8">.cls-1{fill:#e3e3e3;}</style>
    <style
       id="style1399-4-5-1-6">.cls-1{fill:#e3e3e3;}</style>
    <style
       id="style1399-0-5-04">.cls-1{fill:#e3e3e3;}</style>
    <style
       id="style1257-8">.cls-1{fill:#e3e3e3;}</style>
    <style
       id="style836-8">.cls-1{fill:#e3e3e3;}</style>
    <style
       id="style891-8">.cls-1{fill:#e3e3e3;}</style>
  </defs>
  <title
     id="title6">body_l</title>
  <g
     id="g1615"
     transform="matrix(0.50466184,0,0,0.50466184,1.3065783,15.82039)">
    <path
       class="cls-1"
       d="m 22.649105,22.895372 h -1.314667 v -1.807666 c 0.03655,-0.148439 0.03655,-0.303482 0,-0.451916 -0.241528,-0.688865 -1.040131,-1.000509 -1.684415,-0.657334 -1.914353,0.722692 -3.953208,1.057852 -5.998165,0.986 -2.044748,0.06857 -4.0829706,-0.266465 -5.9981634,-0.986 -0.3707757,-0.204677 -0.8206561,-0.204677 -1.1914168,0 -0.3428409,0.232615 -0.5559932,0.613217 -0.5751654,1.027084 v 1.848748 H 4.5724452 c -1.2252442,0 -2.218498,0.993256 -2.218498,2.2185 v 1.10925 c 0,1.225244 0.9932538,2.218499 2.218498,2.218499 h 1.4379166 v 0.903832 c 0.00656,0.718948 0.4206849,1.371847 1.0681654,1.684416 2.150849,0.751698 4.4186088,1.113428 6.6965808,1.068168 2.27896,0.0599 4.549339,-0.302253 6.696581,-1.068168 0.64748,-0.312561 1.061515,-0.965468 1.068166,-1.684416 v -0.903832 h 1.314665 c 1.225245,0 2.218498,-0.993255 2.218498,-2.218499 v -0.86275 c 0.136078,-1.391163 -1.03275,-2.559979 -2.423913,-2.423916 z"
       id="path838-8"
       inkscape:connector-curvature="0"
       style="fill:#b1b1b1;stroke-width:4.10833;fill-opacity:1"
       sodipodi:nodetypes="ccccccccccsssscccccccsscc" />
    <path
       sodipodi:nodetypes="ccccccccccsssscccccccsscc"
       style="fill:#b1b1b1;stroke-width:4.10833;fill-opacity:1"
       inkscape:connector-curvature="0"
       id="path840"
       d="m 22.649105,7.8510835 h -1.314667 v -1.807666 c 0.03655,-0.1484397 0.03655,-0.3034826 0,-0.4519165 C 21.09291,4.9026365 20.294307,4.5909901 19.650023,4.9341674 17.73567,5.6568614 15.696815,5.9920171 13.651858,5.9201688 11.60711,5.9887388 9.5688874,5.653702 7.6536946,4.9341674 7.2829189,4.7294921 6.8330385,4.7294921 6.4622778,4.9341674 6.1194369,5.1667818 5.9062846,5.5473862 5.8871124,5.9612492 V 7.8100013 H 4.5724452 c -1.2252442,0 -2.218498,0.9932542 -2.218498,2.2184977 v 1.109249 c 0,1.225244 0.9932538,2.2185 2.218498,2.2185 h 1.4379166 v 0.903833 c 0.00656,0.71895 0.4206849,1.371846 1.0681654,1.684415 2.150849,0.751697 4.4186088,1.113428 6.6965808,1.068166 2.27896,0.0599 4.549339,-0.302248 6.696581,-1.068166 0.64748,-0.312561 1.061515,-0.965465 1.068166,-1.684415 v -0.903833 h 1.314665 c 1.225245,0 2.218498,-0.993256 2.218498,-2.2185 V 10.274999 C 25.209101,8.8838365 24.040268,7.7150202 22.649105,7.8510835 Z"
       class="cls-1" />
  </g>
  <g
     style="fill:#b1b1b1;fill-opacity:1"
     transform="matrix(0.95467405,0,0,0.95467405,2.0257283,-4.0729363)"
     id="g909">
    <path
       style="fill:#b1b1b1;fill-opacity:1"
       inkscape:connector-curvature="0"
       class="cls-1"
       d="m 28,23.35 -0.17,-0.73 a 14,14 0 0 1 -3.57,1.11 13.4,13.4 0 0 1 -2.33,0.2 H 21.6 A 13,13 0 0 1 17,23 l 0.48,1.46 0.05,0.15 a 0.49,0.49 0 0 0 0.31,0.32 l 2,0.68 a 0.55,0.55 0 0 1 0.38,0.59 0.54,0.54 0 0 1 -0.54,0.48 h -0.17 l -2,-0.7 a 1.57,1.57 0 0 1 -1,-1 l -1.85,-5.61 a 1.39,1.39 0 0 0 -0.5,-0.63 1.48,1.48 0 0 0 -0.82,-0.26 1.65,1.65 0 0 0 -0.32,0 1.45,1.45 0 0 0 -0.91,0.68 1.42,1.42 0 0 0 -0.16,1 l 1.87,5.64 a 4.51,4.51 0 0 0 4.24,3 h 7.7 v 0 a 2,2 0 0 0 1.47,-0.63 2,2 0 0 0 0.15,-2.43 v 0 a 0.72,0.72 0 0 1 0.14,-1 1.43,1.43 0 0 0 0.48,-1.39 z"
       id="path897" />
    <path
       style="fill:#b1b1b1;fill-opacity:1"
       inkscape:connector-curvature="0"
       class="cls-1"
       d="m 12.47,17 a 2.54,2.54 0 0 1 0.61,-0.07 3.14,3.14 0 0 1 1.83,0.61 2.77,2.77 0 0 1 0.86,0.94 v 0 A 2.58,2.58 0 0 1 16,19 l 0.69,2.11 a 11.22,11.22 0 0 0 5.23,1.32 11.65,11.65 0 0 0 5.61,-1.48 l -0.1,-0.4 a 1.43,1.43 0 0 0 -1.21,-1.1 h -0.25 a 0.36,0.36 0 0 1 -0.3,-0.27 c 0,-0.11 0.64,-2.49 1,-3.77 A 1.29,1.29 0 0 0 26.25,14 L 26.1,13.88 25.75,13.56 c 0,-0.12 0,-0.24 0,-0.35 0,-6.34 -3.69,-8.92 -10,-8.92 H 14.56 C 8.2,4.65 4,10 4,17.21 c 0,4 2.62,4.76 7,4.91 l -0.56,-1.87 a 2.7,2.7 0 0 1 0.33,-2 2.53,2.53 0 0 1 1.7,-1.25 z M 21,12.78 c 1.95,0 3.07,1.59 3.07,3.54 0,1.95 -1.17,3.53 -3.07,3.53 a 3.54,3.54 0 1 1 0,-7.07 z"
       id="path899" />
  </g>
</svg>
