<?xml version="1.0" encoding="UTF-8" standalone="no"?>
<!-- Created with Inkscape (http://www.inkscape.org/) -->

<svg
   width="32"
   height="32"
   viewBox="0 0 8.4666666 8.4666666"
   version="1.1"
   id="svg8"
   inkscape:version="1.1 (c68e22c387, 2021-05-23)"
   sodipodi:docname="text-font_sl.svg"
   xmlns:inkscape="http://www.inkscape.org/namespaces/inkscape"
   xmlns:sodipodi="http://sodipodi.sourceforge.net/DTD/sodipodi-0.dtd"
   xmlns="http://www.w3.org/2000/svg"
   xmlns:svg="http://www.w3.org/2000/svg"
   xmlns:rdf="http://www.w3.org/1999/02/22-rdf-syntax-ns#"
   xmlns:cc="http://creativecommons.org/ns#"
   xmlns:dc="http://purl.org/dc/elements/1.1/">
  <defs
     id="defs2" />
  <sodipodi:namedview
     id="base"
     pagecolor="#ffffff"
     bordercolor="#666666"
     borderopacity="1.0"
     inkscape:pageopacity="0.0"
     inkscape:pageshadow="2"
     inkscape:zoom="5.6568539"
     inkscape:cx="-21.301593"
     inkscape:cy="29.963652"
     inkscape:document-units="mm"
     inkscape:current-layer="svg8"
     showgrid="false"
     units="px"
     inkscape:window-width="1920"
     inkscape:window-height="1027"
     inkscape:window-x="-8"
     inkscape:window-y="-8"
     inkscape:window-maximized="1"
     inkscape:pagecheckerboard="1"
     inkscape:snap-nodes="false"
     inkscape:snap-others="false"
     inkscape:snap-bbox="true"
     inkscape:bbox-paths="true"
     inkscape:bbox-nodes="true"
     inkscape:snap-bbox-edge-midpoints="true"
     inkscape:snap-bbox-midpoints="true">
    <sodipodi:guide
       position="8.4666666,0"
       orientation="-32,0"
       id="guide854"
       inkscape:locked="false" />
    <sodipodi:guide
       position="8.4666666,8.4666666"
       orientation="0,-32"
       id="guide856"
       inkscape:locked="false" />
    <sodipodi:guide
       position="0,8.4666814"
       orientation="32,0"
       id="guide858"
       inkscape:locked="false" />
  </sodipodi:namedview>
  <metadata
     id="metadata5">
    <rdf:RDF>
      <cc:Work
         rdf:about="">
        <dc:format>image/svg+xml</dc:format>
        <dc:type
           rdf:resource="http://purl.org/dc/dcmitype/StillImage" />
      </cc:Work>
    </rdf:RDF>
  </metadata>
  <path
     d="M 8.164286,7.257143 H 7.7218645 L 5.2516011,0.40991516 A 0.6047619,0.6047619 0 0 0 4.6789672,1.200204e-8 H 3.7876993 A 0.6047619,0.6047619 0 0 0 3.2150655,0.40991516 L 0.74480208,7.257143 H 0.30238093 A 0.30238095,0.30238095 0 0 0 0,7.5595237 V 8.164286 A 0.30238095,0.30238095 0 0 0 0.30238093,8.4666667 H 2.7214286 A 0.30238095,0.30238095 0 0 0 3.0238095,8.164286 V 7.5595237 A 0.30238095,0.30238095 0 0 0 2.7214286,7.257143 H 2.3513899 L 2.7917322,6.047619 H 5.6749345 L 6.1152768,7.257143 H 5.7452381 A 0.30238095,0.30238095 0 0 0 5.4428572,7.5595237 V 8.164286 A 0.30238095,0.30238095 0 0 0 5.7452381,8.4666667 H 8.164286 A 0.30238095,0.30238095 0 0 0 8.4666667,8.164286 V 7.5595237 A 0.30238095,0.30238095 0 0 0 8.164286,7.257143 Z M 3.3422543,4.5357144 4.2333332,2.0885075 5.1244122,4.5357144 Z"
     id="path825"
     style="stroke-width:0.0188988;fill:#e3e3e3;fill-opacity:1" />
</svg>
