<?xml version="1.0" encoding="UTF-8" standalone="no"?>
<svg
   xmlns:dc="http://purl.org/dc/elements/1.1/"
   xmlns:cc="http://creativecommons.org/ns#"
   xmlns:rdf="http://www.w3.org/1999/02/22-rdf-syntax-ns#"
   xmlns:svg="http://www.w3.org/2000/svg"
   xmlns="http://www.w3.org/2000/svg"
   xmlns:sodipodi="http://sodipodi.sourceforge.net/DTD/sodipodi-0.dtd"
   xmlns:inkscape="http://www.inkscape.org/namespaces/inkscape"
   width="32"
   height="32"
   viewBox="0 0 8.4666666 8.4666666"
   version="1.1"
   id="svg8"
   inkscape:version="1.0.2-2 (e86c870879, 2021-01-15)"
   sodipodi:docname="tools.svg"
   inkscape:export-filename="D:\DEV_SRC\RxOT\DuAEF_Duik\icons\w12/w12_tools.png"
   inkscape:export-xdpi="36"
   inkscape:export-ydpi="36">
  <defs
     id="defs2">
    <style
       id="style1399">.cls-1{fill:#e3e3e3;}</style>
    <style
       id="style1399-4">.cls-1{fill:#e3e3e3;}</style>
    <style
       id="style1399-8">.cls-1{fill:#e3e3e3;}</style>
    <style
       id="style1399-4-5">.cls-1{fill:#e3e3e3;}</style>
    <style
       id="style1399-0">.cls-1{fill:#e3e3e3;}</style>
    <style
       id="style854">.cls-1{fill:#e3e3e3;}</style>
    <style
       id="style1399-84">.cls-1{fill:#e3e3e3;}</style>
    <style
       id="style1399-4-8">.cls-1{fill:#e3e3e3;}</style>
    <style
       id="style1399-8-10">.cls-1{fill:#e3e3e3;}</style>
    <style
       id="style1399-4-5-3">.cls-1{fill:#e3e3e3;}</style>
    <style
       id="style1399-0-0">.cls-1{fill:#e3e3e3;}</style>
    <style
       id="style1399-5">.cls-1{fill:#e3e3e3;}</style>
    <style
       id="style1399-4-6">.cls-1{fill:#e3e3e3;}</style>
    <style
       id="style1399-8-1">.cls-1{fill:#e3e3e3;}</style>
    <style
       id="style1399-4-5-1">.cls-1{fill:#e3e3e3;}</style>
    <style
       id="style1399-0-5">.cls-1{fill:#e3e3e3;}</style>
    <style
       id="style1399-3">.cls-1{fill:#e3e3e3;}</style>
    <style
       id="style832">.cls-1{fill:#e3e3e3;}</style>
  </defs>
  <sodipodi:namedview
     id="base"
     pagecolor="#ffffff"
     bordercolor="#666666"
     borderopacity="1.0"
     inkscape:pageopacity="0.0"
     inkscape:pageshadow="2"
     inkscape:zoom="7.9999995"
     inkscape:cx="19.721614"
     inkscape:cy="9.1581756"
     inkscape:document-units="mm"
     inkscape:current-layer="svg8"
     showgrid="false"
     units="px"
     inkscape:window-width="1309"
     inkscape:window-height="1161"
     inkscape:window-x="3728"
     inkscape:window-y="100"
     inkscape:window-maximized="0"
     inkscape:snap-bbox="true"
     inkscape:bbox-paths="true"
     inkscape:bbox-nodes="true"
     inkscape:snap-bbox-edge-midpoints="true"
     inkscape:snap-bbox-midpoints="true"
     inkscape:snap-nodes="true"
     inkscape:snap-others="true"
     inkscape:snap-object-midpoints="true"
     inkscape:snap-page="true"
     inkscape:document-rotation="0">
    <sodipodi:guide
       position="8.4666666,0"
       orientation="-32,0"
       id="guide854"
       inkscape:locked="false" />
    <sodipodi:guide
       position="8.4666666,8.4666666"
       orientation="0,-32"
       id="guide856"
       inkscape:locked="false" />
    <sodipodi:guide
       position="0,8.4666666"
       orientation="32,0"
       id="guide858"
       inkscape:locked="false" />
  </sodipodi:namedview>
  <metadata
     id="metadata5">
    <rdf:RDF>
      <cc:Work
         rdf:about="">
        <dc:format>image/svg+xml</dc:format>
        <dc:type
           rdf:resource="http://purl.org/dc/dcmitype/StillImage" />
        <dc:title />
      </cc:Work>
    </rdf:RDF>
  </metadata>
  <g
     id="g856"
     transform="matrix(0.28100454,0,0,0.28100454,-0.38497621,-0.33299044)"
     style="fill:#b1b1b1;fill-opacity:1">
    <path
       id="path838"
       d="m 26.11,19.89 -3.17,-3.17 c 0,0 1.58,-1.59 0.31,-2.85 -1.27,-1.26 -2.85,0.31 -2.85,0.31 l -1.59,1.59 -3.17,-3.17 3.17,-3.17 c 0,0 0.64,-4.43 -4.75,-6.67 L 14.69,1.5 a 17.49,17.49 0 0 1 7.93,4.12 l 2.85,2.85 c 0,0 -1.58,1.59 -0.31,2.86 C 26.43,12.6 28,11 28,11 l 3.5,3.5 z"
       class="cls-1"
       inkscape:connector-curvature="0"
       style="fill:#b1b1b1;fill-opacity:1" />
    <path
       id="path840"
       d="m 10,2 c -2.536747,5.8612218 -4.9375726,12.237672 1,18 6.089187,5.909468 14,4 14,4 l 3,5 -3,2 -5,-3 C 20,28 9.7299569,27.329875 6.1172851,20.764609 3.2337072,15.524317 2.8265277,7.8804904 10,2 Z"
       class="cls-1"
       inkscape:connector-curvature="0"
       style="fill:#b1b1b1;fill-opacity:1"
       sodipodi:nodetypes="csccccsc" />
    <path
       id="path842"
       d="M 5.66,22.58 1.37,26.87 4.54,30 8.75,25.79 A 13.7,13.7 0 0 1 5.66,22.58 Z"
       class="cls-1"
       inkscape:connector-curvature="0"
       style="fill:#b1b1b1;fill-opacity:1" />
    <path
       id="path844"
       d="m 12.115762,18.884238 c 0.610217,0.600301 1.28039,1.136439 2,1.6 L 18.2,16.4 15,13.23 10.935762,17.294238 c 0.319191,0.581199 0.716186,1.116132 1.18,1.59 z"
       class="cls-1"
       inkscape:connector-curvature="0"
       style="fill:#b1b1b1;fill-opacity:1"
       sodipodi:nodetypes="cccccc" />
  </g>
</svg>
