<?xml version="1.0" encoding="UTF-8" standalone="no"?>
<svg
   id="Calque_1"
   data-name="Calque 1"
   viewBox="0 0 32 32"
   version="1.1"
   sodipodi:docname="ungulate_arm.svg"
   inkscape:version="1.1 (c68e22c387, 2021-05-23)"
   inkscape:export-filename="D:\DEV_SRC\RxOT\DuAEF\DuAEF_Duik\icons\w128/w128_ungulate_arm.png"
   inkscape:export-xdpi="384"
   inkscape:export-ydpi="384"
   xmlns:inkscape="http://www.inkscape.org/namespaces/inkscape"
   xmlns:sodipodi="http://sodipodi.sourceforge.net/DTD/sodipodi-0.dtd"
   xmlns="http://www.w3.org/2000/svg"
   xmlns:svg="http://www.w3.org/2000/svg"
   xmlns:rdf="http://www.w3.org/1999/02/22-rdf-syntax-ns#"
   xmlns:cc="http://creativecommons.org/ns#"
   xmlns:dc="http://purl.org/dc/elements/1.1/">
  <metadata
     id="metadata31">
    <rdf:RDF>
      <cc:Work
         rdf:about="">
        <dc:format>image/svg+xml</dc:format>
        <dc:type
           rdf:resource="http://purl.org/dc/dcmitype/StillImage" />
        <dc:title>body_l</dc:title>
      </cc:Work>
    </rdf:RDF>
  </metadata>
  <sodipodi:namedview
     pagecolor="#ffffff"
     bordercolor="#666666"
     borderopacity="1"
     objecttolerance="10"
     gridtolerance="10"
     guidetolerance="10"
     inkscape:pageopacity="0"
     inkscape:pageshadow="2"
     inkscape:window-width="1920"
     inkscape:window-height="1027"
     id="namedview29"
     showgrid="false"
     inkscape:snap-bbox="true"
     inkscape:bbox-paths="true"
     inkscape:bbox-nodes="true"
     inkscape:snap-bbox-edge-midpoints="true"
     inkscape:snap-bbox-midpoints="true"
     inkscape:snap-nodes="false"
     inkscape:zoom="11.313709"
     inkscape:cx="-6.0546018"
     inkscape:cy="9.7669124"
     inkscape:window-x="-8"
     inkscape:window-y="-8"
     inkscape:window-maximized="1"
     inkscape:current-layer="g1118"
     inkscape:document-rotation="0"
     inkscape:pagecheckerboard="0" />
  <defs
     id="defs4">
    <style
       id="style2">.cls-1{fill:#e3e3e3;}</style>
    <style
       id="style857">.cls-1{fill:#e3e3e3;}</style>
    <style
       id="style990">.cls-1{fill:#e3e3e3;}</style>
    <style
       id="style1091">.cls-1{fill:#e3e3e3;}</style>
    <style
       id="style1399">.cls-1{fill:#e3e3e3;}</style>
    <style
       id="style1399-4">.cls-1{fill:#e3e3e3;}</style>
    <style
       id="style1399-8">.cls-1{fill:#e3e3e3;}</style>
    <style
       id="style1399-4-5">.cls-1{fill:#e3e3e3;}</style>
    <style
       id="style1399-0">.cls-1{fill:#e3e3e3;}</style>
    <style
       id="style854">.cls-1{fill:#e3e3e3;}</style>
    <style
       id="style1399-84">.cls-1{fill:#e3e3e3;}</style>
    <style
       id="style1399-4-8">.cls-1{fill:#e3e3e3;}</style>
    <style
       id="style1399-8-10">.cls-1{fill:#e3e3e3;}</style>
    <style
       id="style1399-4-5-3">.cls-1{fill:#e3e3e3;}</style>
    <style
       id="style1399-0-0">.cls-1{fill:#e3e3e3;}</style>
    <style
       id="style1399-5">.cls-1{fill:#e3e3e3;}</style>
    <style
       id="style1399-4-6">.cls-1{fill:#e3e3e3;}</style>
    <style
       id="style1399-8-1">.cls-1{fill:#e3e3e3;}</style>
    <style
       id="style1399-4-5-1">.cls-1{fill:#e3e3e3;}</style>
    <style
       id="style1399-0-5">.cls-1{fill:#e3e3e3;}</style>
    <style
       id="style1257">.cls-1{fill:#e3e3e3;}</style>
  </defs>
  <title
     id="title6">body_l</title>
  <g
     id="g1118"
     transform="matrix(1.1404506,0,0,1.1404506,-2.3537809,-2.1777348)">
    <path
       style="fill:#ec6418;fill-opacity:1;stroke:none;stroke-width:0.39506px;stroke-linecap:butt;stroke-linejoin:miter;stroke-opacity:1"
       d="m 15.504364,9.7791853 c 0.93069,0.025494 0.786621,0.3388527 1.160125,0.7368107 0.252937,0.269497 0.484945,0.607237 0.813513,0.978296 0.705905,0.797193 1.158721,0.660572 1.384706,0.903637 0.635251,0.683265 -0.371368,2.360602 -1.875631,1.23925 -0.572367,-0.426672 -1.180332,-1.297723 -1.589406,-1.662277 -1.030018,-0.917918 -1.484668,-0.197045 -2.679878,-1.555692 0.612438,0.112985 1.026047,-0.01985 1.521358,-0.137967 0.441352,-0.10525 0.791161,-0.5150433 1.265213,-0.5020577 z"
       id="path4191"
       sodipodi:nodetypes="sssssscas" />
    <path
       style="fill:#ecbe18;fill-opacity:1;stroke:none;stroke-width:0.39506px;stroke-linecap:butt;stroke-linejoin:miter;stroke-opacity:1"
       d="m 18.438074,20.458181 c 0.32473,-0.584075 0.408013,-1.222402 0.483054,-2.076645 0.114761,-1.306404 -0.08864,-2.168156 0.347124,-2.982996 0.749378,-1.401286 0.967431,-2.206207 0.391106,-2.216366 -0.01765,-2.65e-4 -0.03325,0.0064 -0.04965,0.0099 -0.278568,0.971452 -0.942157,1.428014 -1.635909,1.38527 -0.0047,-2.46e-4 -0.0074,-0.0015 -0.01202,-0.0019 -0.03183,0.0079 -0.06481,0.01874 -0.09958,0.03539 -0.267887,0.12867 -0.137562,0.407101 -0.09394,0.629244 0.218273,1.111576 0.462984,1.953912 0.156023,2.645817 -0.323319,0.728779 -0.861706,1.291262 -0.787107,2.205568 0.119569,1.4655 0.773781,1.314818 1.300899,0.366718 z"
       id="path4189"
       sodipodi:nodetypes="ssssccccssss" />
    <path
       style="fill:#ec1818;fill-opacity:1;stroke:none;stroke-width:0.476382px;stroke-linecap:butt;stroke-linejoin:miter;stroke-opacity:1"
       d="m 17.522052,3.4487819 c 0.179787,0.068549 0.340055,0.176121 0.472271,0.3239912 1.192024,1.3330285 0.736098,2.9321748 -0.482885,3.9653251 -1.171816,0.9931735 -4.477755,2.9501748 -5.116355,1.7890734 -0.702502,-1.2772852 1.923793,-4.7849384 3.220264,-5.685561 0.653381,-0.4538872 1.367342,-0.5984433 1.906705,-0.3928287 z"
       id="path4187"
       sodipodi:nodetypes="ccsssc" />
    <path
       style="fill:#61b7eb;fill-opacity:1;stroke:none;stroke-width:0.447085px;stroke-linecap:butt;stroke-linejoin:miter;stroke-opacity:1"
       d="m 17.097651,21.823092 c 0.07059,-0.445157 0.144349,0.109452 0.798694,-0.186805 0.536478,-0.242895 0.509499,-0.869999 0.946305,-0.749786 0.301112,0.08287 -0.635244,1.439783 -0.827031,2.199091 -0.160279,0.634563 -0.05388,1.503476 -0.264454,1.945584 -0.188982,0.396782 -0.560772,-0.06919 -0.700152,-0.278078 -0.542157,-0.81252 -0.106871,-1.961898 0.04664,-2.930006 z"
       id="path1312"
       sodipodi:nodetypes="sssasas" />
    <path
       style="fill:#7878ec;fill-opacity:1;stroke:none;stroke-width:0.458153px;stroke-linecap:butt;stroke-linejoin:miter;stroke-opacity:1"
       d="m 16.984838,25.445495 c 0.09958,-0.200021 0.367937,0.233862 0.583509,0.198891 0.226773,-0.03679 0.450803,-0.515472 0.518489,-0.454071 0.165548,0.150174 -0.22912,0.941626 -0.2677,1.422606 -0.03029,0.377674 0.208481,1.122874 0.02946,1.13628 -0.284138,0.02128 -1.267739,0.08447 -1.359162,-0.06844 -0.176815,-0.295729 0.417653,-0.600889 0.503019,-0.948407 0.10233,-0.416576 -0.128377,-1.044305 -0.0076,-1.286859 z"
       id="path9658"
       sodipodi:nodetypes="sssassass" />
  </g>
</svg>
