<?xml version="1.0" encoding="UTF-8" standalone="no"?>
<!-- Created with Inkscape (http://www.inkscape.org/) -->

<svg
   width="1024.0006"
   height="900.32898"
   viewBox="0 0 270.93349 238.21204"
   version="1.1"
   id="svg5"
   xml:space="preserve"
   inkscape:version="1.2.2 (732a01da63, 2022-12-09)"
   sodipodi:docname="emilecohl.svg"
   xmlns:inkscape="http://www.inkscape.org/namespaces/inkscape"
   xmlns:sodipodi="http://sodipodi.sourceforge.net/DTD/sodipodi-0.dtd"
   xmlns="http://www.w3.org/2000/svg"
   xmlns:svg="http://www.w3.org/2000/svg"><sodipodi:namedview
     id="namedview7"
     pagecolor="#ffffff"
     bordercolor="#999999"
     borderopacity="1"
     inkscape:showpageshadow="0"
     inkscape:pageopacity="0"
     inkscape:pagecheckerboard="0"
     inkscape:deskcolor="#d1d1d1"
     inkscape:document-units="mm"
     showgrid="false"
     inkscape:zoom="0.63118804"
     inkscape:cx="573.52164"
     inkscape:cy="532.32948"
     inkscape:window-width="3440"
     inkscape:window-height="1369"
     inkscape:window-x="1912"
     inkscape:window-y="-8"
     inkscape:window-maximized="1"
     inkscape:current-layer="layer1" /><defs
     id="defs2" /><g
     inkscape:label="Calque 1"
     inkscape:groupmode="layer"
     id="layer1"><rect
       style="opacity:1;fill:#fff1ce;fill-opacity:1;stroke-width:1.68511;stroke-linecap:round;stroke-linejoin:round;stroke-dasharray:1.68511, 1.68511"
       id="rect360"
       width="270.9335"
       height="237.86252"
       x="0"
       y="-3.5527137e-15"
       ry="0.75118041" /><path
       style="fill:#000000;stroke-width:0.677334"
       d="m 2.70932,193.79595 c 0,-22.27168 -0.20274,-74.37728 -0.45054,-115.790211 L 1.80823,2.709495 h 133.20796 c 73.26438,0 133.24636,0.0762 133.29329,0.169333 0.0469,0.09313 0.17836,52.203303 0.29208,115.800372 l 0.20675,115.63105 -133.04949,-0.0102 -133.0495,-0.0102 z m 264.8375,20.33309 v -18.87389 l -8.636,-0.34637 c -4.74981,-0.1905 -8.78467,-0.20998 -8.96637,-0.0433 -0.1817,0.16668 -0.3742,2.18639 -0.42778,4.48825 -0.12941,5.55948 -0.0473,5.32533 -1.78186,5.07898 -1.41469,-0.20092 -1.524,-0.55653 -1.524,-4.95777 0,-4.74135 0,-4.74135 -2.11638,-4.94725 -1.25188,-0.12181 -2.54633,0.22404 -3.16895,0.84666 -1.26338,1.26339 -2.61595,1.34704 -3.73212,0.23087 -0.98526,-0.98526 -9.8467,-1.34399 -12.09393,-0.48959 -1.13974,0.43332 -1.5793,1.13297 -1.5793,2.51374 0,1.05232 0.31409,2.22739 0.69798,2.61128 0.4178,0.41781 0.47407,1.30327 0.14017,2.20588 -0.5578,1.50789 -0.5578,1.50789 -2.45598,0.0148 -1.57545,-1.23925 -1.82822,-1.8428 -1.48679,-3.54997 0.22625,-1.13128 0.84368,-2.53406 1.37205,-3.11731 0.86871,-0.95891 -0.11454,-1.04535 -10.2693,-0.90275 -6.1765,0.0867 -11.29967,0.23914 -11.38483,0.33867 -0.0851,0.0995 -0.30678,2.05421 -0.49248,4.34373 -0.3711,4.57513 -0.79199,5.65858 -2.19817,5.65858 -1.54381,0 -1.99434,-1.47146 -1.79748,-5.87062 0.18694,-4.17729 0.18694,-4.17729 -25.93181,-4.24798 -28.36182,-0.0767 -27.35397,-0.22668 -24.76408,3.68393 0.74016,1.1176 1.34775,2.23883 1.35021,2.49162 0.006,0.65558 -2.01342,2.58838 -2.70488,2.58838 -1.31756,0 -2.70933,-2.27755 -2.70933,-4.43366 0,-1.8673 -0.37939,-2.50108 -1.99836,-3.33828 -1.09911,-0.56837 -2.91336,-1.0334 -4.03168,-1.0334 -2.02114,0 -2.03453,0.0253 -2.23498,4.23334 -0.19583,4.11113 -0.25822,4.23979 -2.16142,4.45703 -1.95976,0.22369 -1.95976,0.22369 -1.602,-4.23334 0.32261,-4.01898 0.2342,-4.45703 -0.89959,-4.45703 -2.3151,0 -8.59869,3.20809 -9.04638,4.61865 -0.77656,2.44674 -3.14064,4.86402 -4.75697,4.86402 -2.33212,0 -2.72274,-1.94471 -0.80446,-4.00495 1.76847,-1.89934 3.15182,-4.28401 3.15182,-5.43319 0,-0.47884 -3.4204,-0.72186 -10.16,-0.72186 -5.588,0 -10.16001,0.17555 -10.16001,0.39012 0,0.96942 6.37224,8.52504 10.10246,11.97857 3.86355,3.57696 4.89024,5.36429 3.55533,6.18931 -1.12827,0.69731 -5.30949,0.48519 -10.94845,-0.55545 -3.16654,-0.58437 -8.32345,-1.2926 -11.45982,-1.57385 -3.17854,-0.28503 -5.81389,-0.84772 -5.95421,-1.27131 -0.13845,-0.41797 2.22766,-3.86918 5.25803,-7.66935 3.03036,-3.80016 5.3419,-7.07724 5.13676,-7.28238 -0.20514,-0.20515 -6.31975,-0.15002 -13.58801,0.12251 -9.98981,0.37457 -13.40599,0.7256 -13.9975,1.43833 -1.01072,1.21784 -2.68718,1.19521 -5.11119,-0.069 -1.43356,-0.74766 -4.2735,-1.01292 -10.87747,-1.01601 -10.05348,-0.005 -8.79522,-0.71424 -17.89166,10.08932 -6.67327,7.92563 -7.77546,7.50113 -7.59294,-2.9243 0.12204,-6.97083 0.12204,-6.97083 -7.60805,-6.90067 -4.74003,0.043 -7.7357,-0.19185 -7.74458,-0.60718 -0.009,-0.40192 3.12398,-0.75468 7.70384,-0.86753 8.52483,-0.21006 8.51526,-0.2042 8.53036,-5.22848 0.003,-1.1176 0.52712,-4.54587 1.16392,-7.61837 0.88567,-4.2733 1.45965,-5.68217 2.44199,-5.99395 0.7063,-0.22417 1.61926,-0.0725 2.0288,0.33703 1.45039,1.45039 1.82835,0.69419 1.82835,-3.65805 0,-4.18416 -0.0799,-4.40267 -1.6104,-4.40267 -3.70784,0 -3.94836,-3.50044 -0.5055,-7.35669 1.99738,-2.2372 1.99738,-2.2372 2.01273,-20.37392 0.0154,-18.13672 0.0154,-18.13672 -5.10809,-18.56981 -6.84706,-0.57879 -11.04475,-3.173 -11.04475,-6.82574 0,-1.43798 1.68715,-1.33298 5.76948,0.35905 2.95828,1.22613 3.81224,1.3153 6.26691,0.65433 1.56305,-0.42089 3.14726,-1.3358 3.52046,-2.03313 0.4074,-0.76122 0.75034,-11.10512 0.85819,-25.885017 L 31.49601,62.653524 H 64.3467 97.19738 l 0.19012,8.709569 c 0.1887,8.644234 0.2014,8.706149 1.69334,8.254131 0.82677,-0.250485 2.74965,-0.622511 4.27307,-0.82672 2.43674,-0.326631 2.94588,-0.147523 4.23334,1.489213 0.80491,1.023282 1.46347,2.418278 1.46347,3.099994 0,1.562249 -2.33018,2.853451 -4.12275,2.284511 -1.555,-0.49354 -4.68259,1.268841 -4.68259,2.638621 0,0.49247 0.60853,1.44611 1.35228,2.11919 1.63894,1.48323 0.72765,3.05017 -1.77387,3.05017 -0.97992,0 -1.61041,0.39778 -1.61041,1.016 0,0.70959 0.71497,1.016 2.37067,1.016 1.30387,0 2.37067,0.23267 2.37067,0.51704 0,0.28437 -1.30025,1.84199 -2.88944,3.46137 -2.53484,2.582987 -2.85973,3.255997 -2.64727,5.483847 0.23245,2.43741 0.4371,2.62508 5.09078,4.66831 2.66673,1.17084 5.07281,2.12805 5.34685,2.12712 0.64743,-0.002 3.91135,-6.51024 6.28523,-12.532347 4.48989,-11.39008 13.86517,-17.688035 25.5095,-17.136285 4.28304,0.202942 4.28304,0.202942 5.23557,9.827325 0.77425,7.8231 0.79043,9.819707 0.0864,10.668007 -1.76501,2.1267 -2.45344,1.2101 -4.39405,-5.850397 -1.0571,-3.84602 -1.0571,-3.84602 -3.20954,-3.22871 -4.24451,1.21731 -9.04704,7.007117 -13.78615,16.620237 -2.40453,4.87749 -4.37187,9.19733 -4.37187,9.59963 0,1.51272 7.41743,7.02306 11.28212,8.38139 4.85599,1.70674 13.33248,2.47413 14.7091,1.33164 0.61119,-0.50725 0.97925,-2.19041 1.00815,-4.61044 0.0461,-3.85741 0.91217,-5.7848 2.05411,-4.57118 1.2168,1.29316 4.045,12.27744 4.2568,16.53274 0.21774,4.37461 0.21774,4.37461 -3.5076,5.27035 -2.13389,0.5131 -6.18482,0.79636 -9.48267,0.66308 -7.20772,-0.2913 -12.04843,-2.52742 -20.25119,-9.35486 -3.09152,-2.57318 -5.81953,-4.67207 -6.06222,-4.6642 -0.2427,0.008 -1.81287,1.85641 -3.48927,4.10789 -1.6764,2.25147 -4.93493,5.88523 -7.24119,8.07503 -4.19317,3.98145 -4.19317,3.98145 -4.21451,15.36546 -0.0213,11.384 -0.0213,11.384 6.43844,16.6709 3.55288,2.90779 6.3638,5.55995 6.24652,5.89368 -0.1173,0.33374 -3.03266,3.47372 -6.4786,6.97775 -3.44593,3.50401 -6.26534,6.56686 -6.26534,6.80631 0,0.23945 4.4138,0.43537 9.80844,0.43537 9.62575,0 9.81437,-0.0284 10.12705,-1.524 0.56777,-2.71576 1.14185,-6.85475 1.50555,-10.85465 0.35571,-3.91198 0.35571,-3.91198 10.62402,-3.72534 11.40841,0.20738 10.11982,-1.07868 12.40304,12.37866 0.5746,3.38666 0.5746,3.38666 20.89461,3.38666 h 20.32001 l 0.46976,-12.53067 c 0.25837,-6.89187 0.49135,-15.8355 0.51774,-19.87474 0.0264,-4.03923 0.33355,-7.87765 0.68257,-8.5298 0.53272,-0.99538 2.01963,-1.25593 9.26213,-1.623 4.74515,-0.2405 8.89016,-0.69989 9.21115,-1.02087 0.32658,-0.32658 -0.0771,-2.49261 -0.9167,-4.91828 -1.61176,-4.65668 -1.84431,-9.75951 -0.55893,-12.2649 0.43805,-0.85384 1.8644,-2.67015 3.16967,-4.03627 2.3732,-2.48383 2.3732,-2.48383 1.10524,-5.23186 -0.69737,-1.51142 -1.49035,-2.75589 -1.76218,-2.7655 -0.27183,-0.01 -1.11622,1.20173 -1.87644,2.69186 -1.05137,2.06087 -1.78419,2.70933 -3.06176,2.70933 -1.98989,0 -1.97487,0.0881 -0.57962,-3.39898 1.17376,-2.93351 3.70081,-4.72902 6.65575,-4.72902 0.94983,0 1.72697,-0.2667 1.72697,-0.59267 0,-0.98271 -4.14272,-1.49769 -8.28139,-1.02946 -3.51574,0.39776 -4.11984,0.26866 -6.2128,-1.32771 -1.68709,-1.28681 -2.2211,-2.14036 -1.9611,-3.13458 0.44507,-1.70195 0.94721,-1.70331 4.26328,-0.0116 2.73068,1.39308 10.83734,1.96412 10.83734,0.76338 0,-0.76008 -12.21404,-7.60669 -16.42534,-9.20729 -1.76953,-0.67255 -3.21733,-1.64944 -3.21733,-2.17087 0,-0.521417 1.42185,-1.557517 3.15967,-2.302437 2.40457,-1.03072 2.97112,-1.54294 2.37067,-2.14339 -1.61611,-1.61612 -0.61418,-2.43315 6.4192,-5.23459 3.96451,-1.57909 8.15551,-3.44873 9.31334,-4.15475 1.91981,-1.170675 1.96949,-1.283898 0.56436,-1.286208 -1.79576,-0.0027 -2.42014,-1.34024 -4.01536,-8.600038 -0.84108,-3.827734 -1.35377,-4.949169 -2.26265,-4.949169 -1.9073,0 -4.08325,2.206726 -6.003,6.087903 -1.26933,2.566207 -2.35135,3.818698 -3.68222,4.262318 -1.03658,0.345528 -2.04779,0.465112 -2.24717,0.265745 -0.19936,-0.199366 0.27689,-2.071354 1.05834,-4.159966 1.64821,-4.40525 1.832,-5.783448 0.60802,-4.559465 -0.94916,0.949154 -3.2512,1.092444 -3.2512,0.202373 0,-1.091103 4.72793,-3.43507 9.18909,-4.555678 4.34974,-1.09262 5.17329,-1.984117 3.81202,-4.12655 -0.72581,-1.142316 -20.65463,8.598049 -22.03454,10.769554 -4.0305,6.342661 -4.01894,5.756063 -0.32833,16.671041 3.3682,9.961407 3.3682,9.961407 1.24025,18.766747 -1.17037,4.84294 -3.35741,13.98695 -4.86008,20.32001 -3.34959,14.11706 -5.65803,19.22899 -8.23658,18.23951 -1.11952,-0.4296 -1.89,-2.69087 -4.02224,-11.80484 -0.9213,-3.93799 -1.90152,-7.45947 -4.6489,-16.70136 -0.67337,-2.26513 -0.6622,-3.59016 0.0571,-6.77333 2.18434,-9.66673 4.25794,-18.711587 5.79868,-25.293337 0.91567,-3.911601 2.20202,-10.007604 2.85853,-13.546673 1.03609,-5.585225 1.37249,-6.434669 2.54833,-6.434669 1.06841,0 1.63553,0.894575 2.68373,4.233335 0.73098,2.328335 1.52773,4.233335 1.77055,4.233335 0.24282,0 1.29771,-1.235524 2.3442,-2.745612 2.1136,-3.049925 6.40962,-5.775238 15.47039,-9.814129 5.95709,-2.6554 5.98851,-2.682158 3.38667,-2.884155 -3.79217,-0.294411 -4.31954,-1.401696 -4.31954,-9.069574 0,-6.643878 0,-6.643878 -3.63399,-6.643878 -2.68478,0 -4.11412,-0.377665 -5.47212,-1.445868 -1.66261,-1.307817 -2.10037,-1.367297 -4.58477,-0.622952 -2.27665,0.6821 -2.91226,0.657306 -3.71447,-0.144899 -0.83886,-0.838865 -0.72857,-1.252134 0.82775,-3.101716 1.51843,-1.80455 1.72713,-2.538898 1.35223,-4.75793 -0.81249,-4.809075 2.45827,-9.751085 8.59438,-12.98586 1.38216,-0.728633 3.40564,-1.324787 4.49662,-1.324787 1.71857,0 2.04118,-0.306895 2.4145,-2.296832 0.43089,-2.296833 0.43089,-2.296833 8.57793,-2.786338 4.48088,-0.269228 8.30552,-0.331036 8.49921,-0.13735 0.19369,0.193685 0.0354,1.499235 -0.35167,2.901222 -1.42459,5.15943 1.3746,11.915091 6.19884,14.9605 4.14011,2.613533 9.63397,2.563585 13.44726,-0.122257 4.13855,-2.914938 6.20693,-7.116739 5.82917,-11.841611 -0.16382,-2.048935 -0.53226,-4.277055 -0.81877,-4.951379 -0.46738,-1.100048 -0.18553,-1.204458 2.7427,-1.016001 3.26361,0.210043 3.26361,0.210043 3.12261,21.884721 -0.141,21.674677 -0.141,21.674677 -4.57538,22.295185 -4.32695,0.605474 -4.42367,0.662911 -3.99207,2.370668 0.64996,2.571764 2.3554,12.421856 2.35647,13.610299 6e-4,0.655957 -2.35082,1.99212 -6.55595,3.725335 -7.79741,3.213833 -7.92294,3.279325 -19.17266,10.00178 -4.84796,2.89698 -8.81448,5.55397 -8.81448,5.90442 0,1.88832 15.95644,15.450527 19.47406,16.551997 0.8386,0.26259 1.83882,1.06433 2.22271,1.78164 0.42897,0.80153 1.74309,1.47133 3.40944,1.73779 6.74275,1.07821 8.18633,6.73463 3.1342,12.28081 -1.2932,1.41967 -1.32125,1.68654 -0.3916,3.72534 1.35449,2.9705 1.02574,6.75876 -1.03597,11.93754 -1.85669,4.66381 -1.74192,5.81304 0.52373,5.24442 0.79756,-0.20016 4.66152,-0.41095 8.58657,-0.46841 6.90099,-0.10103 7.23659,-0.0369 10.17121,1.94365 5.61075,3.78665 5.33761,2.79507 5.45734,19.81156 0.0589,8.3626 -0.11373,16.02092 -0.3835,17.01851 -0.26976,0.99757 -0.29002,2.44537 -0.045,3.21733 0.42049,1.32482 0.93833,1.40355 9.23241,1.40355 h 8.78692 L 267.40474,98.947103 C 267.29665,47.195874 267.04017,4.686029 266.83481,4.480778 266.50369,4.149842 179.83343,3.976092 47.92139,4.041919 L 3.3867,4.064139 3.38717,65.193502 c 2.6e-4,33.621151 0.20282,85.132378 0.45014,114.469388 l 0.44966,53.34003 h 131.62995 131.62994 z m -49.88405,11.42776 c -2.97639,-1.2009 -2.41691,-3.21767 1.23359,-4.44678 1.88446,-0.6345 2.23552,-1.09425 2.33869,-3.06282 0.0668,-1.27395 -0.21039,-2.7205 -0.61588,-3.21455 -0.5437,-0.66246 -0.48661,-1.05322 0.21747,-1.48835 0.5251,-0.32454 0.98677,-1.13951 1.02592,-1.81105 0.0391,-0.67153 0.12332,-2.37354 0.18704,-3.78224 0.12534,-2.77076 1.14903,-3.59505 3.67338,-2.95788 1.38282,0.34905 1.52186,0.78615 1.5157,4.76473 -0.004,2.40923 -0.23233,4.60597 -0.508,4.88164 -0.79677,0.79676 -0.5808,4.88765 0.28633,5.42355 0.43314,0.26771 1.72854,0.67919 2.87866,0.91441 2.71906,0.55611 2.95598,3.28127 0.39779,4.5755 -1.90618,0.96437 -10.40579,1.10155 -12.63069,0.20384 z m 3.82536,-2.44767 c 0,-0.71425 -0.36834,-0.94712 -1.0714,-0.67733 -0.58927,0.22613 -1.42747,0.4158 -1.86267,0.4215 -1.05557,0.0138 0.98912,1.32047 2.0874,1.33394 0.46567,0.005 0.84667,-0.47945 0.84667,-1.07811 z m 7.33859,-0.34979 c -1.31627,-0.83438 -1.91992,-0.72155 -1.91992,0.35885 0,0.63199 0.47518,0.82832 1.41192,0.58336 1.07348,-0.28072 1.19525,-0.50657 0.508,-0.94221 z m -3.32515,-10.81561 c 0.63494,-4.01656 0.37365,-5.35681 -1.04432,-5.35681 -0.73849,0 -0.8855,0.86701 -0.66038,3.89467 0.15926,2.14207 0.31456,4.32647 0.34508,4.85423 0.10899,1.88402 0.79687,0.16783 1.35962,-3.39209 z m -81.883,-159.744349 c -0.38564,-0.720576 -0.70116,-2.522187 -0.70116,-4.003579 0,-2.881391 -0.53418,-3.298453 -8.22973,-6.425389 -2.66125,-1.081353 -3.80566,-3.681713 -2.94995,-6.703015 0.99924,-3.528053 5.27284,-11.277985 7.30271,-13.243039 2.18364,-2.113917 2.18364,-2.113917 7.50409,0.561614 6.00144,3.01799 7.81832,3.268474 9.58089,1.320865 1.55921,-1.72291 5.15748,-1.785504 6.66836,-0.115999 3.51329,3.882142 -1.81266,18.318196 -9.72608,26.362679 -3.02619,3.076303 -3.85218,3.556002 -6.12302,3.556002 -1.90198,0 -2.81805,-0.360838 -3.32611,-1.310139 z m 8.85033,-6.309865 c 3.22429,-3.218896 8.19746,-14.046813 7.93099,-17.267878 -0.18279,-2.209625 -0.45537,-2.572312 -2.07314,-2.758455 -1.82009,-0.209424 -2.53395,0.735497 -1.18533,1.56899 2.90883,1.797754 -3.29895,16.263926 -8.28333,19.302917 -2.21534,1.350696 -2.21534,1.350696 -0.40478,1.353228 1.14113,0.0016 2.62586,-0.811393 4.01559,-2.198802 z m -2.51897,-4.068919 c 1.95406,-2.561903 5.14732,-9.181353 5.14394,-10.663088 -0.001,-0.60844 -2.14313,-2.000812 -5.33908,-3.471018 -5.33675,-2.455017 -5.33675,-2.455017 -5.78339,0.338667 -0.46744,2.923787 -2.93998,7.753327 -5.37897,10.506602 -0.7878,0.889303 -1.12756,1.731653 -0.75502,1.871888 0.37253,0.140235 2.20133,0.988783 4.064,1.885663 4.65488,2.241339 6.04312,2.160492 8.04852,-0.468714 z m -12.83044,-7.085961 c 1.51733,-1.636368 3.76592,-6.74578 3.76592,-8.557191 0,-1.684069 -3.5117,2.865047 -4.73441,6.133037 -1.90742,5.098034 -1.78801,5.396919 0.96849,2.424154 z M 104.98672,209.98922 c 0,-0.36395 -0.8382,-1.20215 -1.86267,-1.86267 -3.3446,-2.15642 -5.69357,-4.53461 -7.47165,-7.56461 -1.74698,-2.97699 -1.74698,-2.97699 -4.97274,0.67734 -3.49439,3.95865 -5.10361,6.48276 -4.51088,7.07551 0.20637,0.20637 3.37447,0.68206 7.04021,1.05709 3.66575,0.37503 6.79936,0.81623 6.96358,0.98047 0.59803,0.59801 4.81415,0.28 4.81415,-0.36313 z m -12.90535,-3.10701 c -0.81498,-0.98198 -0.73363,-1.29179 0.62887,-2.39508 1.97976,-1.60311 4.34448,-0.63984 4.02024,1.63763 -0.26772,1.88059 -3.30614,2.37563 -4.64911,0.75745 z m -60.86075,-8.05853 c 2.6404,-2.77965 6.29713,-6.19509 8.12606,-7.58985 3.60655,-2.75039 3.95552,-3.41876 2.14,-4.09864 -1.94665,-0.72898 -9.91847,-5.98003 -10.92027,-7.1932 -0.51129,-0.61915 -1.16955,-1.12574 -1.46281,-1.12574 -0.65412,0 -1.83226,7.26748 -2.36078,14.56268 -0.21591,2.98027 -0.55696,6.56167 -0.75789,7.95867 -0.20093,1.397 -0.18527,2.54 0.0348,2.54 0.22007,0 2.56047,-2.27426 5.20087,-5.05392 z m -1.0309,-6.8478 c -1.36643,-1.36643 -1.33965,-1.86322 0.17429,-3.23331 1.76589,-1.59811 3.4107,-1.38656 4.29411,0.5523 1.38463,3.03895 -2.04981,5.09959 -4.4684,2.68101 z m 20.6103,0.62187 c 0,-0.49499 -4.12707,-2.26682 -5.28005,-2.26682 -0.70583,0 -1.83625,0.61097 -2.51203,1.3577 -1.21874,1.34669 -1.1921,1.3567 3.28169,1.23343 2.48071,-0.0683 4.51039,-0.21429 4.51039,-0.32431 z m 20.41493,-2.43616 c 1.23241,-1.58326 2.40276,-3.03106 2.60077,-3.21733 0.19801,-0.18627 1.25672,-1.55787 2.35268,-3.048 1.09596,-1.49014 3.40317,-4.38574 5.12714,-6.43467 4.42297,-5.25673 8.3405,-10.83735 7.60768,-10.83735 -0.34111,0 -1.64105,1.4478 -2.88875,3.21733 -3.14507,4.46047 -10.36891,12.93736 -11.07224,12.99287 -0.31925,0.0252 -0.39709,-0.48759 -0.17297,-1.13953 0.50271,-1.46228 -4.86598,4.34662 -5.77433,6.24782 -0.36058,0.75471 0.72579,-0.15181 2.41416,-2.01448 4.10312,-4.52672 3.9302,-3.27277 -0.28906,2.09614 -1.86266,2.3702 -3.38666,4.46839 -3.38666,4.66265 0,1.09711 1.52007,-0.005 3.48158,-2.52545 z m 4.1968,-1.69333 c 1.67259,-2.5146 3.601,-5.23033 4.28535,-6.03496 0.68435,-0.80462 3.18792,-3.94098 5.56348,-6.96969 2.37557,-3.0287 4.46948,-5.35646 4.65315,-5.1728 0.18367,0.18369 -2.75057,4.27823 -6.52054,9.099 -3.76997,4.82078 -6.85449,8.96785 -6.85449,9.21572 0,1.05487 1.68325,-0.80586 6.58894,-7.28365 2.86743,-3.78633 6.2583,-8.04071 7.53527,-9.45418 1.27698,-1.41345 2.11006,-2.78164 1.8513,-3.04041 -0.25877,-0.25877 -0.74214,-0.0309 -1.07416,0.50628 -0.33203,0.53722 -0.81609,0.76437 -1.0757,0.50476 -0.25961,-0.25961 -0.0476,-0.98615 0.47118,-1.61454 0.5575,-0.67532 0.62499,-1.02823 0.16504,-0.86303 -0.42799,0.15371 -3.01879,3.13631 -5.75734,6.62799 -14.46775,18.44651 -14.89638,19.0515 -13.49788,19.0515 0.34393,0 1.9938,-2.0574 3.6664,-4.57199 z m 4.51362,1.14815 c 1.30387,-1.87505 4.65667,-6.51766 7.45067,-10.31688 7.80316,-10.61059 7.25223,-9.79277 5.81481,-8.63167 -0.67791,0.5476 -3.23477,3.59559 -5.68191,6.77334 -2.44713,3.17774 -6.06894,7.79284 -8.04846,10.25578 -3.79481,4.72157 -4.11783,5.34777 -2.75244,5.33594 0.46566,-0.004 1.91347,-1.54147 3.21733,-3.41651 z m 9.81027,-6.44362 c 4.0157,-5.39444 7.12308,-10.16906 7.12308,-10.94492 0,-0.2856 -1.05043,0.95816 -2.3343,2.76394 -1.28386,1.80578 -2.77308,3.6336 -3.30937,4.06183 -1.55893,1.24481 -9.93785,12.71067 -9.90681,13.55667 0.036,0.98156 3.85479,-3.29494 8.4274,-9.43752 z m -3.71426,7.66959 c 0,-0.37783 -0.44925,-0.30448 -1.016,0.16588 -0.5588,0.46376 -1.01601,1.14801 -1.01601,1.52054 0,0.37784 0.44925,0.30449 1.01601,-0.16587 0.5588,-0.46378 1.016,-1.14801 1.016,-1.52055 z m 5.08,-0.99127 c 1.1176,-1.73048 2.84624,-4.38786 3.84143,-5.90526 0.99518,-1.51742 1.83338,-3.1806 1.86267,-3.69598 0.0293,-0.51539 -1.92796,2.00546 -4.34943,5.60188 -2.42147,3.59641 -4.40267,6.68509 -4.40267,6.86372 0,1.07364 1.28398,-0.13297 3.048,-2.86436 z m 6.12167,-3.44562 c -0.5454,-0.54541 -4.38933,4.31012 -4.40848,5.56866 -0.0135,0.88923 0.72771,0.25308 2.32826,-1.99811 1.29146,-1.81647 2.22756,-3.42322 2.08022,-3.57055 z m 30.62369,5.28753 c 2.00204,-1.22067 2.20133,-1.64302 2.20133,-4.66526 0,-3.26563 -0.0487,-3.34256 -2.81576,-4.44972 -3.32566,-1.33067 -3.60421,-1.07262 -4.25836,3.94495 -0.24876,1.9081 -0.6207,4.15507 -0.82652,4.99327 -0.32232,1.31265 -0.10571,1.52365 1.56187,1.52147 1.06486,-0.001 2.9267,-0.60651 4.13744,-1.34471 z m 68.16365,-4.24076 c 0.2104,-3.0734 0.54012,-8.78841 0.73271,-12.70001 0.35017,-7.112 0.35017,-7.112 -2.69185,-9.33438 -4.4824,-3.27466 -4.93657,-3.3353 -5.33915,-0.7129 -0.19066,1.24187 -0.50817,7.43955 -0.7056,13.77262 -0.19742,6.33307 -0.55278,12.20047 -0.78967,13.03867 -0.41511,1.46878 -0.27052,1.524 3.99014,1.524 4.42087,0 4.42087,0 4.80342,-5.588 z m 27.97742,4.53975 c 1.43518,-1.43518 0.63459,-1.99636 -2.87964,-2.01853 -3.96748,-0.025 -5.08872,-1.14701 -3.18747,-3.18959 1.00664,-1.08146 1.32027,-2.07954 1.06485,-3.38874 -0.29304,-1.50208 -0.0568,-1.97188 1.2396,-2.46498 1.16408,-0.44277 1.92661,-0.32242 2.79113,0.4405 1.5966,1.40899 2.37565,0.49434 0.93492,-1.09764 -1.22775,-1.35665 -0.92239,-3.15531 0.6373,-3.75382 1.08166,-0.41507 1.32965,0.63622 0.30017,1.27247 -0.42296,0.26141 -0.38705,0.85265 0.0991,1.63108 0.41964,0.67194 0.55989,2.02849 0.3119,3.0166 -0.48809,1.94467 -2.25882,2.42244 -2.88925,0.77956 -0.43339,-1.12939 -2.27694,-1.40359 -2.27694,-0.33866 0,0.37253 0.3048,0.67733 0.67733,0.67733 1.01149,0 0.81787,1.3109 -0.3689,2.49767 -1.47093,1.47092 -0.86662,2.57257 1.4472,2.63821 1.08334,0.0308 2.3181,0.10693 2.7439,0.16933 1.18452,0.17359 1.71446,2.20316 0.84789,3.24731 -0.64486,0.77701 0.23877,0.93015 5.36701,0.93015 3.37643,0 6.28524,-0.23667 6.46402,-0.52594 0.17877,-0.28927 0.40262,-5.85187 0.49743,-12.36134 0.19321,-13.26582 3.40929,-11.91353 -27.5884,-11.60032 l -10.25117,0.10359 -0.30329,11.68401 c -0.16681,6.42619 -0.18399,11.91259 -0.0382,12.192 0.14581,0.2794 5.45049,0.508 11.78818,0.508 9.49721,0 11.70737,-0.18429 12.57134,-1.04825 z m 22.56475,-3.52375 c 0.001,-2.5146 0.20066,-8.001 0.44215,-12.19201 0.43908,-7.62 0.43908,-7.62 -2.54308,-7.61655 -2.98216,0.003 -2.98216,0.003 -3.08874,12.192 -0.10658,12.18856 -0.10658,12.18856 2.54,12.18856 2.64658,0 2.64658,0 2.64967,-4.572 z M 63.65728,188.29893 c 1.07627,0 3.41789,-3.95679 5.21097,-8.80534 0.48913,-1.32262 0.88123,-5.2558 0.88692,-8.89677 0.01,-6.38688 -0.0295,-6.55126 -1.85247,-7.70469 -1.02447,-0.64821 -2.36606,-1.80956 -2.98131,-2.58077 -1.07806,-1.35133 -1.33611,-1.37124 -7.11201,-0.54859 -3.29635,0.46949 -9.55292,1.24162 -13.90349,1.71585 -5.01515,0.54666 -8.54763,1.27992 -9.65201,2.00353 -1.67384,1.09675 -1.74187,1.3993 -1.74187,7.74683 0,6.60552 0,6.60552 6.94267,10.74117 9.50597,5.66257 14.73201,8.48614 14.73201,7.95953 0,-0.24307 0.46673,-0.0546 1.03717,0.41882 0.85759,0.71172 1.20569,0.63813 2.01046,-0.42508 0.93083,-1.22973 0.97623,-1.21197 1.04067,0.4075 0.0674,1.69333 0.0674,1.69333 0.80238,0.16933 1.02716,-2.12978 2.11072,-1.90501 1.63254,0.33868 -0.37266,1.74859 -0.32815,1.72784 0.72679,-0.33868 0.61807,-1.21073 1.61733,-2.20133 2.22058,-2.20132 z m 75.62525,3.03948 c -0.21622,-0.56348 -0.59573,-3.00188 -0.84333,-5.41867 -0.24761,-2.41678 -0.72804,-4.39415 -1.06763,-4.39415 -0.33959,0 -1.5167,0.46503 -2.6158,1.03339 -1.81051,0.93625 -1.99837,1.35319 -1.99837,4.43537 0,3.1903 0.13697,3.4615 2.20134,4.35876 2.98826,1.29882 4.82544,1.29258 4.32379,-0.0147 z m -42.46936,-7.78082 c -0.001,-0.58924 -0.40905,-0.30474 -0.97045,0.67733 -1.27257,2.22612 -1.2869,3.32642 -0.0215,1.65346 0.54694,-0.72313 0.99335,-1.77199 0.99199,-2.33079 z m 5.7199,-0.63686 c 1.72204,-2.02667 3.13098,-3.90571 3.13098,-4.17564 0,-0.52754 -6.33956,-5.3475 -7.03342,-5.3475 -0.22948,0 -0.41725,3.0734 -0.41725,6.82977 0,3.75639 0.26746,6.72819 0.59435,6.604 0.3269,-0.12418 2.0033,-1.88396 3.72534,-3.91063 z m -10.86146,-6.09948 c 3.49657,-4.0113 4.89014,-6.13391 4.0256,-6.13157 -0.62692,10e-4 -8.25427,9.58933 -9.96751,12.52923 -1.09269,1.87505 -1.0356,1.85176 0.7391,-0.30164 1.05778,-1.28353 3.39905,-4.02673 5.20281,-6.09602 z m 0.4681,5.72033 c 0.91915,-1.25307 0.90478,-1.28495 -0.19166,-0.42507 -0.65194,0.51129 -1.18534,1.24789 -1.18534,1.63689 0,0.38901 0.0863,0.58029 0.19167,0.42507 0.10541,-0.15522 0.63881,-0.89182 1.18533,-1.63689 z m 42.25563,-2.10447 c 2.342,-0.89871 0.85643,-1.62188 -2.99232,-1.45665 -4.1075,0.17634 -5.33986,0.85055 -2.54028,1.38977 2.4952,0.48061 4.39464,0.50356 5.5326,0.0668 z m -56.68692,-6.8702 c 6.11436,-7.5636 6.61632,-8.29734 5.67641,-8.29734 -0.96764,0 -8.73039,9.31274 -10.30395,12.36135 -0.72107,1.39699 -1.17605,2.53999 -1.01107,2.53999 0.16499,0 2.70236,-2.9718 5.63861,-6.604 z m -0.12733,5.22019 c 1.09764,-1.21289 1.11061,-1.32944 0.10497,-0.94354 -1.76321,0.67661 -1.41517,0.005 2.06998,-3.99797 1.76953,-2.03216 3.79404,-4.71689 4.49892,-5.96609 1.59074,-2.81918 1.01588,-2.23442 -4.09293,4.16341 -4.70315,5.8898 -5.60468,7.24059 -4.29021,6.42821 0.65137,-0.40257 0.77862,-0.24571 0.46458,0.57268 -0.56894,1.48262 -0.2744,1.42187 1.24469,-0.2567 z m 19.23172,-3.01886 c 0.003,-0.77305 -1.74519,1.3621 -2.77322,3.38668 -0.37834,0.74507 0.0902,0.44027 1.04127,-0.67734 0.95102,-1.1176 1.73041,-2.3368 1.73195,-2.70934 z M 72.4747,171.42097 c 0,-0.34206 0.19341,-1.18026 0.42979,-1.86266 0.3777,-1.09037 0.29822,-1.07656 -0.65579,0.11393 -1.25819,1.57007 -1.41061,2.37067 -0.45133,2.37067 0.37253,0 0.67733,-0.27988 0.67733,-0.62194 z m 14.58963,-4.6274 c 1.19875,-1.86267 1.19875,-1.86267 -0.26077,-0.57235 -0.80273,0.70967 -1.45952,1.54787 -1.45952,1.86267 0,0.99351 0.48424,0.63031 1.72029,-1.29032 z m -14.58963,0.50801 c 0,-0.37254 -0.13441,-0.67734 -0.29869,-0.67734 -0.16428,0 -0.48707,0.3048 -0.71731,0.67734 -0.23024,0.37253 -0.0958,0.67733 0.29869,0.67733 0.39452,0 0.71731,-0.3048 0.71731,-0.67733 z m 139.99766,-3.89467 c -0.17037,-0.65193 -0.30976,-0.11853 -0.30976,1.18534 0,1.30385 0.13939,1.83726 0.30976,1.18533 0.17036,-0.65193 0.17036,-1.71873 0,-2.37067 z M 74.5067,165.26958 c 0,-0.37253 -0.3048,-0.67733 -0.67733,-0.67733 -0.37253,0 -0.67734,0.3048 -0.67734,0.67733 0,0.37253 0.30481,0.67733 0.67734,0.67733 0.37253,0 0.67733,-0.3048 0.67733,-0.67733 z m 4.74134,0 c 0,-0.37253 -0.13441,-0.67733 -0.29869,-0.67733 -0.16428,0 -0.48707,0.3048 -0.71731,0.67733 -0.23024,0.37253 -0.0958,0.67733 0.29869,0.67733 0.39452,0 0.71731,-0.3048 0.71731,-0.67733 z m 124.43009,-3.556 c -0.16144,-0.8382 -0.29354,-0.1524 -0.29354,1.524 0,1.6764 0.1321,2.3622 0.29354,1.524 0.16145,-0.8382 0.16145,-2.2098 0,-3.048 z m 3.4731,1.18533 c 0,-1.67641 -0.2794,-3.04801 -0.62089,-3.04801 -0.34149,0 -0.62089,1.3716 -0.62089,3.04801 0,1.6764 0.2794,3.048 0.62089,3.048 0.34149,0 0.62089,-1.3716 0.62089,-3.048 z m 2.82222,0 c 0,-1.67641 -0.26093,-3.04801 -0.57984,-3.04801 -0.31892,0 -0.51396,1.143 -0.43342,2.54 0.18328,3.17928 0.25475,3.55601 0.6746,3.55601 0.18626,0 0.33866,-1.3716 0.33866,-3.048 z m 8.02633,-2.37066 c 0.0523,-1.51197 -0.0339,-1.5716 -0.80555,-0.55677 -0.51859,0.68209 -0.72964,2.17176 -0.52779,3.72534 0.33636,2.58876 0.33636,2.58876 0.80554,0.55675 0.25806,-1.1176 0.49557,-2.794 0.5278,-3.72532 z m 2.08607,2.54 c -0.0369,-2.22947 -0.17888,-2.57317 -0.62972,-1.524 -0.8117,1.88892 -0.8117,4.40266 0,4.40266 0.37253,0 0.6559,-1.2954 0.62972,-2.87866 z m 6.88948,0.36419 c -0.65064,-1.11802 -0.70625,-1.10266 -0.72527,0.20025 -0.0229,1.56793 0.83666,2.79047 1.19856,1.70475 0.12727,-0.38179 -0.0857,-1.23904 -0.47329,-1.905 z m 6.7048,-0.87219 c 0,-1.86267 -0.3048,-3.38667 -0.67733,-3.38667 -0.73978,0 -0.92574,3.98321 -0.2662,5.70194 0.69673,1.81566 0.94353,1.21007 0.94353,-2.31527 z m 3.38667,-0.33867 c 0,-2.04893 -0.27021,-3.72534 -0.60045,-3.72534 -0.75133,0 -1.32093,3.66 -0.90676,5.82653 0.56951,2.97924 1.50721,1.672 1.50721,-2.10119 z m 5.41867,-0.04 c 0,-2.33773 -0.2568,-3.60659 -0.67733,-3.3467 -1.19159,0.73645 -0.78679,7.11201 0.45156,7.11201 0.12417,-2e-5 0.22577,-1.69441 0.22577,-3.76533 z m 4.54915,-1.48403 c -0.1552,-1.02446 -0.28218,-0.18626 -0.28218,1.86267 0,2.04893 0.12698,2.88713 0.28218,1.86267 0.15519,-1.02447 0.15519,-2.70087 0,-3.72534 z m -150.1759,3.13738 c 0,-0.37254 -0.3048,-0.48896 -0.67734,-0.25872 -0.37253,0.23024 -0.67733,0.72341 -0.67733,1.09594 0,0.37254 0.3048,0.48896 0.67733,0.25872 0.37254,-0.23023 0.67734,-0.72341 0.67734,-1.09594 z m 127.29113,-0.42806 c -0.0262,-1.02446 -0.30955,-2.47226 -0.62972,-3.21733 -0.438,-1.01927 -0.59391,-0.5581 -0.62973,1.86267 -0.0262,1.76953 0.25719,3.21733 0.62973,3.21733 0.37253,0 0.65591,-0.8382 0.62972,-1.86267 z m 6.14361,-1.18533 c 0,-1.6764 -0.3048,-3.048 -0.67733,-3.048 -0.74324,0 -0.91927,3.32273 -0.2662,5.0246 0.68199,1.77723 0.94353,1.22931 0.94353,-1.9766 z m 9.31794,-2.20133 c -0.21092,-1.54244 -0.3479,-1.65801 -0.79674,-0.67224 -0.29813,0.65474 -0.29581,2.33114 0.005,3.72534 0.50985,2.36193 0.56421,2.4078 0.79675,0.67223 0.13727,-1.02447 0.13495,-2.70087 -0.005,-3.72533 z m -24.28679,3.72533 c -0.0371,-0.46567 -0.31156,-1.60867 -0.60982,-2.54 -0.48398,-1.51123 -0.54956,-1.42018 -0.60982,0.84667 -0.0371,1.397 0.23729,2.54 0.60982,2.54 0.37253,0 0.64695,-0.381 0.60982,-0.84667 z m 29.8702,-2.20133 c 0,-1.6764 -0.3048,-3.04801 -0.67734,-3.04801 -0.74806,0 -0.94507,4.92516 -0.22577,5.64445 0.80028,0.80029 0.90311,0.50466 0.90311,-2.59644 z m -209.80413,-1.2688 c 1.24378,-0.30071 1.86267,-0.89062 1.86267,-1.77543 0,-1.24523 -0.17788,-1.21765 -2.95125,0.45752 -1.62318,0.98044 -3.32757,2.38523 -3.78754,3.12175 -0.83003,1.32909 -0.82187,1.32903 1.08858,-0.007 1.05868,-0.74048 2.76307,-1.54897 3.78754,-1.79666 z m 48.90555,0.89498 c -0.68801,-0.76025 -0.93911,-1.74916 -0.66414,-2.61555 0.4174,-1.31508 0.64241,-1.24192 4.01727,1.30613 1.96631,1.48458 3.89336,2.69924 4.28234,2.69924 0.38897,0 1.24063,-0.8141 1.89258,-1.8091 0.98369,-1.50131 1.11449,-2.72821 0.76878,-7.21136 -0.22913,-2.97123 -0.54355,-5.5292 -0.69872,-5.68436 -0.34203,-0.34204 -10.37466,4.68898 -12.27563,6.15579 -1.24271,0.95889 -0.89282,1.01118 4.23333,0.63276 3.99418,-0.29486 5.58801,-0.1907 5.58801,0.3652 0,0.47773 -1.50233,0.836 -3.89467,0.92878 -2.14207,0.0831 -5.72347,0.21767 -7.95867,0.29907 -5.02269,0.18293 -12.19201,1.69471 -12.19201,2.57089 0,1.05457 4.4652,3.75232 6.21069,3.75232 1.05757,0 1.87169,-0.57943 2.37922,-1.69334 0.51711,-1.13493 1.3183,-1.69333 2.42958,-1.69333 1.41881,0 1.59828,0.2381 1.24385,1.65026 -0.36846,1.46807 -0.17092,1.67517 1.78924,1.87587 3.3837,0.34644 4.16629,-0.0736 2.84895,-1.52927 z m 110.75513,-0.98085 c 0,-0.37253 -0.29546,-0.22013 -0.65658,0.33867 -0.36113,0.5588 -0.65659,1.3208 -0.65659,1.69333 0,0.37253 0.29546,0.22013 0.65659,-0.33867 0.36112,-0.5588 0.65658,-1.3208 0.65658,-1.69333 z m -2.22168,-2.87867 c -0.17037,-0.65193 -0.30976,-0.11853 -0.30976,1.18533 0,1.30387 0.13939,1.83727 0.30976,1.18534 0.17036,-0.65194 0.17036,-1.71874 0,-2.37067 z m -136.66784,0.51611 c 5.19443,-0.74061 10.76123,-1.77842 12.37064,-2.30624 1.60942,-0.52783 4.73129,-1.46965 6.93749,-2.09293 2.20619,-0.62328 7.23539,-2.75925 11.176,-4.74659 6.36664,-3.21084 8.08901,-4.50729 15.46208,-11.63845 4.56354,-4.4138 8.29734,-8.49911 8.29734,-9.07845 0,-0.57934 -1.24488,-1.75301 -2.76639,-2.60815 -2.76639,-1.55479 -2.76639,-1.55479 -4.7138,0.72194 -1.07109,1.25221 -1.95982,2.47768 -1.97495,2.72327 -0.0473,0.76709 -8.01497,8.15764 -11.38106,10.55669 -4.48556,3.1969 -11.86469,7.19976 -17.81097,9.66166 -5.67637,2.35016 -16.63365,5.40674 -19.44266,5.42361 -2.08405,0.0125 -7.01951,2.58666 -7.446,3.88353 -0.36454,1.1085 0.18074,1.08436 11.29228,-0.49989 z m -20.38873,-1.98761 c 1.74547,-0.7162 5.30717,-2.1197 7.91491,-3.11889 9.36443,-3.58813 16.3295,-8.21997 18.52252,-12.31767 0.95946,-1.79277 1.04655,-18.37905 0.10415,-19.83729 -0.36112,-0.5588 -0.66125,-0.67526 -0.66696,-0.2588 -0.006,0.41645 -1.86668,3.15965 -4.1355,6.096 -4.40221,5.6974 -11.02362,11.77347 -12.83016,11.77347 -2.36764,0 -6.44283,-6.45235 -8.44888,-13.37734 -0.93178,-3.21654 -1.52594,-4.23333 -2.47375,-4.23333 -1.12769,0 -1.2577,0.69895 -1.35444,7.28134 -0.23039,15.67755 -0.24447,29.29468 -0.0303,29.29468 0.12365,0 1.65292,-0.58598 3.39838,-1.30217 z m 198.77663,0.22663 c 4.38988,-0.26548 8.13876,-0.737 8.33086,-1.04782 0.19209,-0.31081 -0.65643,-1.19552 -1.8856,-1.96601 -1.98732,-1.24573 -3.10856,-1.37818 -10.1226,-1.19577 -6.36423,0.16551 -8.1407,0.43408 -9.19734,1.39047 -1.6771,1.51796 -10.13303,1.58575 -14.07228,0.11282 -1.49013,-0.55719 -3.62373,-1.16155 -4.74133,-1.34303 -2.53157,-0.41109 -9.82134,0.34115 -9.82134,1.01348 0,0.27331 1.4478,1.31343 3.21733,2.31137 3.21734,1.81443 3.21734,1.81443 16.76401,1.51081 7.45068,-0.16699 17.1384,-0.52083 21.52829,-0.78632 z M 59.77469,150.9819 c 1.397,-0.36626 2.57612,-1.03516 2.62026,-1.48647 0.10067,-1.02934 -0.14007,-2.78102 -0.42247,-3.07394 -0.11738,-0.12176 -2.14581,1.20896 -4.50761,2.95715 -4.53225,3.35475 -4.48801,3.38545 2.30982,1.60326 z m 154.9401,-2.0209 c 0,-1.41486 1.73007,-2.92335 2.67967,-2.33647 0.38885,0.24032 0.707,1.02857 0.707,1.75165 0,0.72308 0.40996,1.31469 0.91102,1.31469 2.69512,0 5.53877,-7.35965 4.93924,-12.78321 -0.23173,-2.0963 -0.59228,-4.42343 -0.80122,-5.17138 -0.26158,-0.93641 0.36964,-2.23558 2.02687,-4.17168 2.52103,-2.94526 2.91658,-4.58561 1.53855,-6.38044 -1.77482,-2.31164 -3.73673,-2.74085 -10.50512,-2.2982 -8.76601,0.57328 -8.5058,0.43123 -6.76467,3.69318 1.4668,2.74799 1.4668,2.74799 -1.31834,5.61652 -3.91593,4.03317 -4.55581,6.93295 -2.92577,13.25892 1.29075,5.00921 1.66017,5.79541 2.79587,5.95029 0.34149,0.0465 0.9257,0.12276 1.29823,0.16933 0.37253,0.0465 0.67733,0.63331 0.67733,1.30387 0,0.94182 0.53936,1.2192 2.37067,1.2192 1.76723,0 2.37067,-0.28924 2.37067,-1.13627 z m 5.16925,-22.597 c -0.60789,-0.92775 -1.10525,-2.08692 -1.10525,-2.57594 0,-1.64635 2.09659,-3.89987 3.62827,-3.89987 4.22055,0 4.23243,6.36933 0.0144,7.70809 -1.07413,0.34092 -1.70844,0.0328 -2.5374,-1.23228 z m 3.51386,-2.58115 c -0.11904,-0.8382 -0.52124,-1.524 -0.89377,-1.524 -0.37254,0 -0.77474,0.6858 -0.89378,1.524 -0.14893,1.04863 0.12987,1.524 0.89378,1.524 0.76391,0 1.0427,-0.47537 0.89377,-1.524 z M 71.15782,147.25192 c 11.13635,-4.5251 22.69246,-11.83501 21.84318,-13.81706 -0.23944,-0.5588 -0.52413,-4.17893 -0.63264,-8.04471 -0.10851,-3.8658 -0.31424,-7.14567 -0.45718,-7.28861 -0.14294,-0.14294 -1.68972,1.56007 -3.43731,3.78446 -3.37084,4.29054 -12.73237,13.15422 -18.36984,17.39292 -4.12508,3.10157 -4.14442,3.12821 -3.97323,5.47467 0.0758,1.0391 0.1626,2.42268 0.19287,3.07461 0.0682,1.47013 -0.31433,1.51574 4.83415,-0.57628 z m 99.92346,-10.07947 c 0.88968,-3.25704 0.38424,-7.63562 -1.08006,-9.35642 -0.25219,-0.29636 -0.98221,1.88499 -1.62228,4.84744 -0.96191,4.45199 -1.02469,5.89656 -0.36188,8.32816 0.77333,2.83708 0.82577,2.88157 1.47219,1.24857 0.36866,-0.93134 1.08507,-3.21182 1.59203,-5.06775 z m -23.2078,2.29734 c 2.32463,-0.62304 2.55106,-0.87693 2.24491,-2.51726 -0.18727,-1.00339 -0.55852,-3.34834 -0.825,-5.21101 -0.39662,-2.77226 -0.56332,-3.07947 -0.91889,-1.69333 -0.6232,2.42945 -3.69442,3.70036 -8.87972,3.67454 -3.82004,-0.019 -5.04718,-0.36335 -8.80534,-2.47065 -4.16336,-2.33452 -11.02988,-7.45979 -15.03471,-11.22213 -1.86267,-1.74988 -1.86267,-1.74988 -1.86267,0.33638 0,1.26719 -0.41573,2.24579 -1.05891,2.49259 -1.16682,0.44776 -5.03709,-1.29058 -5.03709,-2.26241 0,-1.12262 2.11085,-2.74006 3.60438,-2.76186 1.46177,-0.0213 1.46293,-0.0312 0.12316,-1.04355 -0.74385,-0.5621 -4.55386,-2.64957 -8.46667,-4.63882 -10.05365,-5.1112 -20.07176,-7.47425 -29.46623,-6.95042 -9.63238,0.53709 -33.94055,6.39291 -36.91469,8.89273 -2.36244,1.98567 -5.28616,2.74559 -10.56337,2.74559 -3.69008,0 -5.85523,-0.30846 -6.62038,-0.94318 -1.22087,-1.01277 -2.20794,-0.6333 -1.4678,0.56427 1.76734,2.85962 10.65974,3.84465 16.61955,1.84097 12.0502,-4.05124 35.15514,-8.32469 41.31021,-7.64066 8.19351,0.91057 11.46782,1.87231 18.63383,5.47323 14.84996,7.46209 21.50737,11.51456 27.99837,17.04304 3.94411,3.35926 9.24463,6.35458 12.42109,7.01914 3.2169,0.67303 8.93889,0.35211 12.96597,-0.7272 z m -77.34132,-4.51093 c 3.34226,-2.8628 10.13686,-10.1377 15.77185,-16.88673 1.60684,-1.92453 1.79664,-2.47871 1.016,-2.96666 -2.01822,-1.26151 -8.11699,-2.03473 -14.56902,-1.84711 -6.71096,0.19516 -6.71096,0.19516 -6.71096,12.55383 0,6.79727 0.16559,12.35987 0.36798,12.36134 0.20239,0.001 2.05826,-1.44514 4.12415,-3.21467 z m -21.29898,-4.74134 c 3.83159,-4.08726 11.4077,-14.93826 10.83186,-15.51411 -0.50676,-0.50675 -6.55568,0.52022 -6.55568,1.11301 0,0.28367 0.9906,0.73476 2.20133,1.00242 1.21074,0.26766 1.79055,0.64589 1.28848,0.84051 -0.50207,0.19462 -2.65936,-0.0168 -4.79397,-0.46978 -3.33401,-0.70753 -4.49433,-0.65665 -8.23115,0.36087 -2.39252,0.65148 -4.54631,1.36778 -4.7862,1.59179 -1.11808,1.04407 4.09881,14.96996 5.60802,14.96996 0.43245,0 2.42923,-1.7526 4.43731,-3.89467 z m 117.79254,-1.35466 c 1.06212,-4.88391 0.85435,-11.44425 -0.33909,-10.70666 -0.9789,0.605 -2.27313,8.35699 -1.80862,10.83304 0.58591,3.12315 1.4521,3.07218 2.14771,-0.12638 z m -64.47065,-6.36401 c -0.59223,-0.95825 -4.24177,-2.64912 -4.53296,-2.10018 -0.23276,0.43879 -0.1604,6.72273 0.0994,8.63135 0.0505,0.37134 1.15059,-0.81389 2.44453,-2.63386 1.29396,-1.81997 2.18903,-3.57376 1.98906,-3.89731 z m 71.9414,1.80111 c 0.65532,-2.5095 0.77757,-4.12252 0.35148,-4.63777 -0.35933,-0.4345 -0.77038,-1.70441 -0.91345,-2.82201 -0.23499,-1.83564 -0.37435,-1.66247 -1.44214,1.79205 -0.99367,3.21478 -1.05584,4.32508 -0.39019,6.96862 0.4355,1.72951 0.9263,3.01008 1.09066,2.84571 0.16437,-0.16437 0.75101,-2.03033 1.30364,-4.1466 z m -10.14934,-9.19256 c -0.2087,-1.04351 -0.0683,-2.00103 0.31207,-2.12781 0.43219,-0.14406 0.32749,-0.93221 -0.27919,-2.10157 -0.97071,-1.87106 -0.97071,-1.87106 -1.73399,1.16015 -0.86094,3.41914 -1.00154,7.38597 -0.28709,8.10041 0.8404,0.8404 2.38221,-3.06116 1.9882,-5.03118 z m 6.83102,-0.29922 c 0.81416,-3.07042 0.66536,-6.37801 -0.37018,-8.22838 -0.63867,-1.14121 -0.77452,-1.07109 -1.50696,0.77771 -0.95397,2.40803 -1.14154,6.67393 -0.41382,9.41131 0.61891,2.32808 1.31074,1.73601 2.29096,-1.96064 z m -51.64229,-2.87866 c 3.28548,-7.73346 5.2475,-11.07829 8.69842,-14.828997 3.33694,-3.62682 6.5471,-5.4245 10.28129,-5.75749 2.5487,-0.22728 2.74674,-0.11165 3.35658,1.9598 0.35643,1.21073 0.82615,2.20133 1.0438,2.20133 0.41642,0 -0.44047,-11.505044 -0.89038,-11.954956 -0.56639,-0.566393 -10.04226,1.175526 -13.23004,2.432034 -4.00657,1.579242 -8.16247,5.758282 -10.48057,10.538922 -5.32099,10.973537 -8.08927,17.318097 -7.71819,17.689167 1.1203,1.12031 4.97603,3.58421 5.65491,3.61364 0.42146,0.0183 1.89934,-2.63379 3.28418,-5.89345 z m 58.87364,-2.75711 c 1.11684,-5.377 0.98548,-9.604237 -0.29844,-9.604237 -0.77726,0 -2.18862,5.054757 -2.30949,8.271397 -0.052,1.38274 -0.27559,2.69518 -0.49696,2.91654 -0.22136,0.22136 -0.078,1.45975 0.31861,2.75197 0.3966,1.29223 0.92237,2.11338 1.16839,1.8248 0.24602,-0.28859 0.97407,-3.06079 1.61789,-6.16047 z m -136.64203,1.19073 c 2.63448,-1.00163 2.93903,-1.76716 2.4738,-6.21829 -0.28325,-2.70999 -0.17154,-3.89935 0.36626,-3.89935 0.49337,0 0.77382,1.45839 0.77382,4.02404 0,2.21321 0.26466,4.1876 0.58814,4.38751 0.32347,0.19992 2.22848,-0.0895 4.23333,-0.64315 2.00486,-0.55365 7.60761,-1.82089 12.45054,-2.81607 4.84294,-0.9952 8.9059,-1.88054 9.02879,-1.96745 0.12291,-0.0869 -0.22379,-0.87026 -0.77043,-1.74078 -0.54664,-0.87052 -1.36057,-3.171177 -1.80873,-5.112567 -0.55575,-2.40748 -1.22105,-3.65873 -2.0924,-3.93529 -0.70266,-0.22302 -2.19909,-1.52345 -3.3254,-2.88986 -2.32234,-2.8174 -2.716,-6.369567 -1.06065,-9.57066 0.98719,-1.909004 0.98719,-1.909004 -3.556,-3.760678 C 56.56979,75.20212 52.69656,73.511298 50.46135,72.463152 39.43716,67.293627 33.73666,64.928395 33.31585,65.3492 c -0.6026,0.602602 -1.08625,43.70165 -0.49041,43.70165 0.24913,0 1.05404,-0.32169 1.78868,-0.71486 1.8004,-0.96354 3.99389,-0.17387 3.99389,1.43784 0,1.49907 0.5143,1.595 3.15946,0.58931 z m 5.64588,-4.17842 c -0.93133,-0.37129 -1.36242,-0.8014 -0.95796,-0.95582 0.99989,-0.38173 4.05801,0.79498 3.2751,1.2602 -0.34309,0.20388 -1.3858,0.0669 -2.31714,-0.30438 z m 4.74134,-3.66242 c -5.02605,-1.7353 -6.65602,-2.619897 -6.01276,-3.263147 0.81443,-0.81443 12.10876,3.342257 12.10876,4.456427 0,0.84692 -0.43151,0.76245 -6.096,-1.19328 z m 116.07237,-1.93813 c -0.0796,-1.117597 -0.41833,-3.098807 -0.75277,-4.402667 -0.69472,-2.70841 -0.91289,-2.29349 -2.19332,4.171087 -0.64362,3.24951 -0.58591,4.22823 0.37943,6.43468 1.13851,2.60224 1.13851,2.60224 1.92492,-0.78442 0.43254,-1.86267 0.72132,-4.30108 0.64174,-5.41868 z m -75.44281,1.94528 c 1.91572,-2.667567 2.23362,-3.651687 2.13331,-6.603997 -0.0648,-1.90811 -0.28473,-4.00269 -0.48867,-4.65462 -0.25363,-0.8108 -0.005,-1.18534 0.78551,-1.18534 0.63597,0 1.56121,0.5334 2.0561,1.18534 0.85695,1.12889 0.90083,1.12889 0.92134,0 0.0118,-0.65194 -0.28326,-1.18534 -0.65579,-1.18534 -1.32054,0 -0.64141,-1.23364 2.19437,-3.98605 1.70519,-1.655065 3.51652,-2.787282 4.45911,-2.787282 2.22418,0 1.50043,-1.638172 -0.84565,-1.914084 -1.33779,-0.157331 -3.03317,0.590222 -5.90135,2.60214 -2.4831,1.741797 -4.43979,2.663456 -5.1092,2.40658 -0.8654,-0.33209 -0.92611,-0.224997 -0.30007,0.529346 1.00909,1.21588 0.27424,3.14935 -1.19698,3.14935 -1.6539,0 -3.65565,-3.597653 -2.593,-4.660302 2.32663,-2.326627 -5.58581,-2.847111 -11.52869,-0.758363 -2.11985,0.745067 -4.56136,1.354667 -5.42558,1.354667 -2.36407,0 -4.91031,-1.952258 -4.91031,-3.76483 0,-1.7229 2.27465,-3.68584 4.27116,-3.68584 2.09015,0 0.87057,-1.676814 -1.3826,-1.900957 -1.46134,-0.145369 -2.50179,0.237473 -3.47013,1.276869 -3.32609,3.570144 -2.1288,8.417103 2.98666,12.090746 1.65747,1.1903 3.01358,2.61006 3.01358,3.15503 0,0.54495 0.57667,2.63158 1.2815,4.63694 0.9263,2.635487 1.0765,3.851117 0.54187,4.385747 -0.53463,0.53464 0.18968,0.75041 2.61316,0.77847 2.46792,0.0286 13.77226,2.1011 14.24466,2.6116 0.03,0.0324 1.06754,-1.35171 2.30569,-3.07582 z M 80.36902,98.329503 c -1.45334,-1.60592 -1.41719,-2.98679 0.12814,-4.89519 2.65899,-3.28372 8.15454,-1.18998 7.21068,2.74719 -0.79815,3.3294 -5.12386,4.595497 -7.33882,2.148 z m 4.67623,-3.86288 c -1.71131,-1.29437 -2.81394,-1.28066 -1.73321,0.0215 0.46376,0.5588 1.33929,1.00631 1.9456,0.99446 0.92613,-0.0181 0.89218,-0.18055 -0.21239,-1.016 z m 89.9566,5.13436 c 1.49836,-5.17318 1.55248,-5.83596 0.6524,-7.99017 -0.53983,-1.29199 -1.12327,-2.20731 -1.29653,-2.03405 -0.17326,0.17326 -0.87648,2.33981 -1.5627,4.81456 -0.91801,3.3106 -1.10054,5.26018 -0.6908,7.378187 0.30628,1.58327 0.57016,3.15807 0.58638,3.49956 0.066,1.38866 0.76105,-0.31595 2.31125,-5.668087 z m 26.16626,5.137807 c 0,-0.72416 -6.50277,-5.170617 -7.56182,-5.170617 -2.31182,0 -1.26262,1.323087 2.65115,3.343237 3.73479,1.92775 4.91067,2.36533 4.91067,1.82738 z M 99.56805,97.370293 c 0,-0.37783 -0.44925,-0.30449 -1.016,0.16587 -0.5588,0.46377 -1.016,1.14801 -1.016,1.52054 0,0.37784 0.44925,0.30449 1.016,-0.16587 0.5588,-0.46376 1.016,-1.148 1.016,-1.52054 z m 71.73891,-5.76079 c 0.80925,-3.063 0.60149,-10.202601 -0.34536,-11.867805 -0.55276,-0.972136 -0.91669,-0.295704 -1.91803,3.564997 -1.06266,4.097108 -1.1166,5.190628 -0.38496,7.803798 0.46798,1.67145 1.10431,3.03901 1.41407,3.03901 0.30976,0 0.86519,-1.143 1.23428,-2.54 z M 220.30279,79.19381 c 8.63601,-2.763949 8.63601,-2.763949 8.63601,-5.190652 0,-2.390744 -5.67159,-26.778683 -6.62313,-28.479558 -0.54579,-0.975619 -9.89718,-4.392898 -15.9202,-5.817728 -3.67281,-0.868855 -3.95939,-0.846658 -4.60332,0.356531 -0.907,1.694738 -0.55321,2.139075 2.89924,3.641217 1.60127,0.696702 3.02169,1.342529 3.15649,1.43517 0.13481,0.09264 -0.8155,1.480546 -2.11179,3.084231 -4.15652,5.142161 -4.17598,5.294107 -1.84853,14.430463 1.30587,5.126156 1.38759,5.168686 6.97087,3.627667 2.6798,-0.739639 5.13756,-1.605477 5.46168,-1.924086 0.33144,-0.3258 -0.76961,-2.307232 -2.51621,-4.528103 -1.70805,-2.171848 -3.72585,-4.759022 -4.48399,-5.749277 -1.17773,-1.538279 -1.95574,-5.311541 -1.09519,-5.311541 0.1558,0 0.72542,-0.169667 1.26581,-0.377038 0.64533,-0.247634 2.22182,1.2053 4.59334,4.233335 1.98594,2.535706 4.76912,5.898964 6.18486,7.473908 2.64455,2.941947 3.21498,4.950036 1.7274,6.080901 -1.40565,1.068567 -6.87573,2.908653 -8.65865,2.912683 -0.91888,0.002 -2.81369,0.321205 -4.21069,0.709169 -3.00701,0.835091 -3.09427,1.41388 -1.15812,7.682372 0.99777,3.230408 1.7038,4.47406 2.54,4.474155 0.63696,7.4e-5 5.04432,-1.243646 9.79412,-2.763819 z M 196.43776,41.873682 c 2.34266,-2.564885 2.99192,-5.042862 2.38382,-9.098002 -0.55317,-3.688793 -2.57571,-6.129827 -6.06659,-7.321866 -3.06509,-1.046641 -5.15458,-0.440554 -8.96613,2.600752 -2.33757,1.865191 -3.03399,3.35612 -1.24742,2.67055 1.21028,-0.464428 1.34133,0.513454 0.2192,1.635588 -0.61084,0.61084 -0.51263,1.110798 0.42082,2.142241 1.34672,1.488109 0.99657,3.4279 -0.61877,3.4279 -0.61713,0 -1.03726,-0.603553 -1.03726,-1.490134 0,-1.105201 -0.19715,-1.292981 -0.7632,-0.726925 -1.06277,1.062768 -0.19003,4.034732 1.75641,5.981179 1.61546,1.615452 1.61546,1.615452 4.713,-0.115798 2.7,-1.509057 3.15084,-1.592372 3.51278,-0.649159 0.22838,0.59515 0.039,1.535409 -0.42081,2.089466 -0.7142,0.860562 -0.4729,1.007374 1.65575,1.007374 1.93582,0 2.93057,-0.480411 4.4584,-2.153166 z"
       id="path303" /></g></svg>
