<svg id="Calque_1" data-name="Calque 1" xmlns="http://www.w3.org/2000/svg" viewBox="0 0 32 32"><title>icones</title><path d="M21.63,15.72V27.84a1.11,1.11,0,0,1-1.11,1.1H5.1A1.1,1.1,0,0,1,4,27.84V9.48a1.1,1.1,0,0,1,1.1-1.1h9.18v6.24a1.1,1.1,0,0,0,1.1,1.1Zm-4.41,1.83a.36.36,0,0,0-.37-.36H8.77a.36.36,0,0,0-.36.36v.74a.36.36,0,0,0,.36.37h8.08a.36.36,0,0,0,.37-.37Zm0,2.94a.36.36,0,0,0-.37-.36H8.77a.36.36,0,0,0-.36.36v.74a.36.36,0,0,0,.36.36h8.08a.36.36,0,0,0,.37-.36Zm0,2.94a.36.36,0,0,0-.37-.37H8.77a.36.36,0,0,0-.36.37v.73a.36.36,0,0,0,.36.37h8.08a.36.36,0,0,0,.37-.37Zm4-9.18H15.75V8.83a2.36,2.36,0,0,1,.41.33l4.68,4.68A2.36,2.36,0,0,1,21.17,14.25Z" style="fill:#710132"/><path d="M29,10.72H26.81v9.91a.36.36,0,0,1-.36.37H18.37a.38.38,0,0,1-.34-.21.41.41,0,0,1,0-.4l1.84-2.2a.39.39,0,0,1,.28-.13h3.68V10.72H21.67a.71.71,0,0,1-.66-.43.74.74,0,0,1,.1-.78l3.67-4.4a.75.75,0,0,1,1.13,0l3.67,4.4a.72.72,0,0,1,.1.78A.73.73,0,0,1,29,10.72Z" style="fill:#710132"/></svg>