<svg id="Calque_1" data-name="Calque 1" xmlns="http://www.w3.org/2000/svg" viewBox="0 0 32 32"><title>icones</title><path d="M28.81,23.89a1.64,1.64,0,0,1,0,1.63,1.66,1.66,0,0,1-1.42.81H7.51a1.66,1.66,0,0,1-1.42-.81,1.64,1.64,0,0,1,0-1.63L16,5.69a1.65,1.65,0,0,1,2.9,0ZM19.3,11.83a.31.31,0,0,0-.13-.24.5.5,0,0,0-.31-.14H16a.5.5,0,0,0-.31.14.35.35,0,0,0-.13.27l.22,5.91c0,.16.19.29.44.29h2.39c.23,0,.43-.13.44-.29Zm-.21,8.31a.41.41,0,0,0-.41-.42H16.2a.41.41,0,0,0-.41.42V22.6a.42.42,0,0,0,.41.43h2.48a.42.42,0,0,0,.41-.43Z" style="fill:#ec1818"/></svg>