<svg id="Calque_1" data-name="Calque 1" xmlns="http://www.w3.org/2000/svg" viewBox="0 0 32 32"><title>icones</title><path d="M6.94,7.86l1-1a.64.64,0,0,1,.45-.19.68.68,0,0,1,.46.19l7.77,7.78,7.77-7.78a.64.64,0,0,1,.91,0l1,1a.69.69,0,0,1,.2.46.67.67,0,0,1-.2.45L17.06,18a.64.64,0,0,1-.45.19.68.68,0,0,1-.46-.19L6.94,8.77a.67.67,0,0,1-.2-.45A.69.69,0,0,1,6.94,7.86Zm0,7.6,1-1a.65.65,0,0,1,.45-.2.69.69,0,0,1,.46.2l7.77,7.77,7.77-7.77a.62.62,0,0,1,.91,0l1,1a.65.65,0,0,1,.2.45.69.69,0,0,1-.2.46l-9.22,9.21a.65.65,0,0,1-.45.2.69.69,0,0,1-.46-.2L6.94,16.37a.69.69,0,0,1-.2-.46A.65.65,0,0,1,6.94,15.46Z" style="fill:#6d6d6d"/></svg>