<svg id="Calque_1" data-name="Calque 1" xmlns="http://www.w3.org/2000/svg" viewBox="0 0 32 32"><title>icones</title><path d="M27.12,25.11,24.43,27.8a1.92,1.92,0,0,1-1.35.56,1.89,1.89,0,0,1-1.34-.56L15.92,22,10.11,27.8a1.92,1.92,0,0,1-1.35.56,1.89,1.89,0,0,1-1.34-.56L4.73,25.11a1.88,1.88,0,0,1-.55-1.34,1.91,1.91,0,0,1,.55-1.35l5.81-5.81L4.73,10.79a1.91,1.91,0,0,1,0-2.68L7.42,5.42a1.89,1.89,0,0,1,1.34-.56,1.92,1.92,0,0,1,1.35.56l5.81,5.81,5.82-5.81a1.89,1.89,0,0,1,1.34-.56,1.92,1.92,0,0,1,1.35.56l2.69,2.69a1.91,1.91,0,0,1,0,2.68L21.3,16.61l5.82,5.81a2,2,0,0,1,.55,1.35A1.93,1.93,0,0,1,27.12,25.11Z" style="fill:#6d6d6d"/></svg>