<?xml version="1.0" encoding="UTF-8" standalone="no"?>
<!-- Created with Inkscape (http://www.inkscape.org/) -->

<svg
   width="32"
   height="32"
   viewBox="0 0 8.4666666 8.4666666"
   version="1.1"
   id="svg8"
   inkscape:version="1.1.1 (3bf5ae0d25, 2021-09-20)"
   sodipodi:docname="2d_camera.svg"
   inkscape:export-filename="D:\RxLab\src\RxOT\DuAEF_Duik\icons\w16\w16_2d_camera.png"
   inkscape:export-xdpi="48"
   inkscape:export-ydpi="48"
   xmlns:inkscape="http://www.inkscape.org/namespaces/inkscape"
   xmlns:sodipodi="http://sodipodi.sourceforge.net/DTD/sodipodi-0.dtd"
   xmlns="http://www.w3.org/2000/svg"
   xmlns:svg="http://www.w3.org/2000/svg"
   xmlns:rdf="http://www.w3.org/1999/02/22-rdf-syntax-ns#"
   xmlns:cc="http://creativecommons.org/ns#"
   xmlns:dc="http://purl.org/dc/elements/1.1/">
  <defs
     id="defs2">
    <style
       id="style1399">.cls-1{fill:#e3e3e3;}</style>
    <style
       id="style1399-4">.cls-1{fill:#e3e3e3;}</style>
    <style
       id="style1399-8">.cls-1{fill:#e3e3e3;}</style>
    <style
       id="style1399-4-5">.cls-1{fill:#e3e3e3;}</style>
    <style
       id="style1399-0">.cls-1{fill:#e3e3e3;}</style>
  </defs>
  <sodipodi:namedview
     id="base"
     pagecolor="#ffffff"
     bordercolor="#666666"
     borderopacity="1.0"
     inkscape:pageopacity="0.0"
     inkscape:pageshadow="2"
     inkscape:zoom="11.313708"
     inkscape:cx="0.35355341"
     inkscape:cy="28.15169"
     inkscape:document-units="mm"
     inkscape:current-layer="svg8"
     showgrid="false"
     units="px"
     inkscape:window-width="3378"
     inkscape:window-height="1417"
     inkscape:window-x="1974"
     inkscape:window-y="-8"
     inkscape:window-maximized="1"
     inkscape:snap-bbox="true"
     inkscape:bbox-paths="true"
     inkscape:bbox-nodes="true"
     inkscape:snap-bbox-edge-midpoints="true"
     inkscape:snap-bbox-midpoints="true"
     inkscape:snap-nodes="false"
     inkscape:snap-others="false"
     inkscape:pagecheckerboard="0">
    <sodipodi:guide
       position="8.4666666,0"
       orientation="-32,0"
       id="guide854"
       inkscape:locked="false" />
    <sodipodi:guide
       position="9.9384114,8.4666666"
       orientation="0,-32"
       id="guide856"
       inkscape:locked="false" />
    <sodipodi:guide
       position="0,8.4666814"
       orientation="32,0"
       id="guide858"
       inkscape:locked="false" />
  </sodipodi:namedview>
  <metadata
     id="metadata5">
    <rdf:RDF>
      <cc:Work
         rdf:about="">
        <dc:format>image/svg+xml</dc:format>
        <dc:type
           rdf:resource="http://purl.org/dc/dcmitype/StillImage" />
        <dc:title />
      </cc:Work>
    </rdf:RDF>
  </metadata>
  <path
     id="path885-2"
     style="fill:#b1b1b1;fill-opacity:1;stroke-width:0.0499147"
     d="M 19.212891 3.2226562 C 18.80696 3.2226562 18.400321 3.4287545 18.212891 3.8417969 L 16.109375 8.4765625 C 18.08451 7.9834275 20.363281 9.4709376 20.363281 11.669922 L 20.363281 19.707031 C 20.363281 22.032627 17.819219 23.559109 15.777344 22.791016 L 18.212891 28.158203 C 18.587752 28.984291 19.836079 28.984291 20.210938 28.158203 L 25.486328 16.53125 C 25.640563 16.19183 25.640563 15.808169 25.486328 15.46875 L 20.210938 3.8417969 C 20.023509 3.4287533 19.618822 3.2226563 19.212891 3.2226562 z M 25.615234 3.2226562 C 25.209679 3.2226562 24.804364 3.4287545 24.617188 3.8417969 L 23.302734 6.7421875 L 26.960938 14.808594 C 27.132139 15.186448 27.21875 15.58721 27.21875 16 C 27.21875 16.412794 27.132139 16.814057 26.960938 17.191406 L 23.302734 25.257812 L 24.617188 28.158203 C 24.991542 28.984289 26.240875 28.984289 26.615234 28.158203 L 31.884766 16.53125 C 32.03849 16.19183 32.03849 15.808169 31.884766 15.46875 L 26.615234 3.8417969 C 26.428055 3.4287533 26.020791 3.2226563 25.615234 3.2226562 z M 1.4960938 9.9941406 C 0.67016372 9.9941406 0 10.662351 0 11.488281 L 0 20.511719 C 0 21.337649 0.67016372 22.005859 1.4960938 22.005859 L 10.517578 22.005859 C 11.34351 22.005859 12.013672 21.337649 12.013672 20.511719 L 12.013672 11.488281 C 12.013672 10.662351 11.34351 9.9941406 10.517578 9.9941406 L 1.4960938 9.9941406 z M 16.970703 10.994141 C 16.791644 11.001962 16.609953 11.057684 16.443359 11.171875 L 13.015625 13.537109 L 13.015625 18.462891 L 16.443359 20.824219 C 17.106605 21.280984 18.019531 20.815363 18.019531 20.017578 L 18.019531 11.980469 C 18.019531 11.384485 17.50788 10.970677 16.970703 10.994141 z "
     transform="scale(0.26458333)" />
</svg>
