<?xml version="1.0" encoding="UTF-8" standalone="no"?>
<svg
   width="32"
   height="32"
   viewBox="0 0 8.4666666 8.4666666"
   version="1.1"
   id="svg8"
   inkscape:version="1.1.1 (3bf5ae0d25, 2021-09-20)"
   sodipodi:docname="animated_prop.svg"
   inkscape:export-filename="D:\RxLab\src\RxOT\DuAEF\DuAEF_Duik\inc\icons\w16\w16_animated_prop.png"
   inkscape:export-xdpi="48.000004"
   inkscape:export-ydpi="48.000004"
   xmlns:inkscape="http://www.inkscape.org/namespaces/inkscape"
   xmlns:sodipodi="http://sodipodi.sourceforge.net/DTD/sodipodi-0.dtd"
   xmlns="http://www.w3.org/2000/svg"
   xmlns:svg="http://www.w3.org/2000/svg"
   xmlns:rdf="http://www.w3.org/1999/02/22-rdf-syntax-ns#"
   xmlns:cc="http://creativecommons.org/ns#"
   xmlns:dc="http://purl.org/dc/elements/1.1/">
  <defs
     id="defs2">
    <style
       id="style857">.cls-1{fill:#e52120;}.cls-1,.cls-2,.cls-3,.cls-4,.cls-5{stroke:#000;stroke-miterlimit:10;stroke-width:1.2px;}.cls-2{fill:#6dbc88;}.cls-3{fill:#701034;}.cls-4{fill:#51aae0;}.cls-5{fill:none;}</style>
    <style
       id="style857-2">.cls-1{fill:#e52120;}.cls-1,.cls-2,.cls-3,.cls-4,.cls-5{stroke:#000;stroke-miterlimit:10;stroke-width:1.2px;}.cls-2{fill:#6dbc88;}.cls-3{fill:#701034;}.cls-4{fill:#51aae0;}.cls-5{fill:none;}</style>
  </defs>
  <sodipodi:namedview
     id="base"
     pagecolor="#ffffff"
     bordercolor="#666666"
     borderopacity="1.0"
     inkscape:pageopacity="0.0"
     inkscape:pageshadow="2"
     inkscape:zoom="11.313708"
     inkscape:cx="47.597127"
     inkscape:cy="14.18633"
     inkscape:document-units="mm"
     inkscape:current-layer="svg8"
     showgrid="false"
     units="px"
     inkscape:window-width="3440"
     inkscape:window-height="1369"
     inkscape:window-x="1912"
     inkscape:window-y="-8"
     inkscape:window-maximized="1"
     inkscape:document-rotation="0"
     inkscape:pagecheckerboard="0">
    <sodipodi:guide
       position="8.4666666,0"
       orientation="-32,0"
       id="guide854"
       inkscape:locked="false" />
    <sodipodi:guide
       position="8.4666666,8.4666666"
       orientation="0,-32"
       id="guide856"
       inkscape:locked="false" />
    <sodipodi:guide
       position="0,8.4666814"
       orientation="32,0"
       id="guide858"
       inkscape:locked="false" />
  </sodipodi:namedview>
  <metadata
     id="metadata5">
    <rdf:RDF>
      <cc:Work
         rdf:about="">
        <dc:format>image/svg+xml</dc:format>
        <dc:type
           rdf:resource="http://purl.org/dc/dcmitype/StillImage" />
      </cc:Work>
    </rdf:RDF>
  </metadata>
  <style
     type="text/css"
     id="style815">
	.st0{fill:#00005B;}
	.st1{fill:#9999FF;}
</style>
  <path
     id="path877"
     style="fill:#b1b1b1;fill-opacity:1;stroke:none;stroke-width:1.19149px;stroke-miterlimit:10"
     d="M 27.931641 -0.0234375 C 26.193066 -0.022772341 24.449123 -0.019397438 22.716797 -0.017578125 C 21.757165 0.016216483 20.987739 0.79898951 20.982422 1.765625 L 20.982422 3.7519531 C 20.982486 5.8351395 19.301871 7.5285732 17.21875 7.5449219 L 14.240234 7.5449219 C 12.14707 7.5449287 10.45347 5.8451095 10.458984 3.7519531 L 10.458984 1.765625 C 10.453958 0.84945573 9.7617131 0.10602195 8.875 0 C 7.0759124 0.0020848252 5.3114971 0.0048677026 3.4960938 0.005859375 C 3.5222124 8.1387407 3.5078125 16.271359 3.5078125 24.404297 L 8.6523438 24.404297 C 9.6448953 24.398779 10.453515 25.198855 10.458984 26.191406 L 10.458984 28.177734 C 10.453466 30.270891 12.14707 31.97071 14.240234 31.970703 L 17.21875 31.970703 C 19.301871 31.954371 20.982486 30.26092 20.982422 28.177734 L 20.982422 26.191406 C 20.987839 25.206602 21.784726 24.409723 22.769531 24.404297 L 27.931641 24.404297 L 27.931641 19.242188 C 27.937183 18.241872 27.127269 17.428052 26.126953 17.433594 L 24.138672 17.433594 C 22.051655 17.428137 20.362878 15.737406 20.357422 13.650391 L 20.357422 10.671875 C 20.379139 8.601985 22.062815 6.9330544 24.132812 6.9277344 L 26.117188 6.9277344 C 27.121378 6.9388462 27.93725 6.1253305 27.931641 5.1210938 L 27.931641 -0.0234375 z M 11.800781 10.632812 C 12.024641 10.632812 12.247255 10.717958 12.417969 10.888672 L 16.953125 15.423828 C 17.294552 15.765255 17.294552 16.318729 16.953125 16.660156 L 12.417969 21.195312 C 12.076542 21.53674 11.523068 21.53674 11.181641 21.195312 L 6.6464844 16.660156 C 6.305057 16.31873 6.305057 15.765256 6.6464844 15.423828 L 11.181641 10.888672 C 11.352354 10.717958 11.576921 10.632813 11.800781 10.632812 z "
     transform="scale(0.26458333)" />
  <style
     type="text/css"
     id="style815-2">
	.st0{fill:#00005B;}
	.st1{fill:#9999FF;}
</style>
</svg>
