<?xml version="1.0" encoding="UTF-8" standalone="no"?>
<svg
   id="Calque_1"
   data-name="Calque 1"
   viewBox="0 0 32 32"
   version="1.1"
   sodipodi:docname="ant.svg"
   inkscape:version="1.1 (c68e22c387, 2021-05-23)"
   inkscape:export-filename="D:\DEV_SRC\RxOT\DuAEF\DuAEF_Duik\icons\w16/w16_ant.png"
   inkscape:export-xdpi="48"
   inkscape:export-ydpi="48"
   xmlns:inkscape="http://www.inkscape.org/namespaces/inkscape"
   xmlns:sodipodi="http://sodipodi.sourceforge.net/DTD/sodipodi-0.dtd"
   xmlns="http://www.w3.org/2000/svg"
   xmlns:svg="http://www.w3.org/2000/svg"
   xmlns:rdf="http://www.w3.org/1999/02/22-rdf-syntax-ns#"
   xmlns:cc="http://creativecommons.org/ns#"
   xmlns:dc="http://purl.org/dc/elements/1.1/">
  <metadata
     id="metadata31">
    <rdf:RDF>
      <cc:Work
         rdf:about="">
        <dc:format>image/svg+xml</dc:format>
        <dc:type
           rdf:resource="http://purl.org/dc/dcmitype/StillImage" />
        <dc:title>body_l</dc:title>
      </cc:Work>
    </rdf:RDF>
  </metadata>
  <sodipodi:namedview
     pagecolor="#ffffff"
     bordercolor="#666666"
     borderopacity="1"
     objecttolerance="10"
     gridtolerance="10"
     guidetolerance="10"
     inkscape:pageopacity="0"
     inkscape:pageshadow="2"
     inkscape:window-width="1920"
     inkscape:window-height="1027"
     id="namedview29"
     showgrid="false"
     inkscape:snap-bbox="true"
     inkscape:bbox-paths="true"
     inkscape:bbox-nodes="true"
     inkscape:snap-bbox-edge-midpoints="true"
     inkscape:snap-bbox-midpoints="true"
     inkscape:snap-nodes="false"
     inkscape:zoom="16"
     inkscape:cx="3.09375"
     inkscape:cy="15.90625"
     inkscape:window-x="-8"
     inkscape:window-y="-8"
     inkscape:window-maximized="1"
     inkscape:current-layer="g1118"
     inkscape:document-rotation="0"
     inkscape:pagecheckerboard="0" />
  <defs
     id="defs4">
    <style
       id="style2">.cls-1{fill:#e3e3e3;}</style>
    <style
       id="style857">.cls-1{fill:#e3e3e3;}</style>
    <style
       id="style990">.cls-1{fill:#e3e3e3;}</style>
    <style
       id="style1091">.cls-1{fill:#e3e3e3;}</style>
  </defs>
  <title
     id="title6">body_l</title>
  <g
     id="g1118"
     transform="matrix(1.1404506,0,0,1.1404506,-2.3537809,-2.1777348)">
    <path
       id="path940"
       style="fill:#b1b1b1;stroke-width:2.79792;stroke-linejoin:round;stroke-dasharray:1.39896, 1.39896;stroke-dashoffset:1.11917"
       d="m 23.494444,12.670849 c -1.245325,1.245324 -3.148652,0.84403 -4.251201,-0.258519 -1.102548,-1.102547 -1.503842,-3.0058755 -0.258518,-4.251199 1.245324,-1.2453239 3.809309,-1.5046886 4.911858,-0.4021399 1.102549,1.1025484 0.843184,3.6665339 -0.402139,4.9118579 z"
       sodipodi:nodetypes="sssss" />
    <path
       style="fill:#b1b1b1;fill-opacity:1;stroke:none;stroke-width:0.847367px;stroke-linecap:butt;stroke-linejoin:miter;stroke-opacity:1"
       d="m 23.932488,9.9061337 c 0,0 2.197411,-0.6750214 1.92453,-2.2979454 -0.660659,0.8904539 -0.804282,0.9191776 -2.19741,0.7037456 -1.393131,-0.2154326 0.27288,1.5941998 0.27288,1.5941998 z"
       id="path1112"
       sodipodi:nodetypes="ccsc" />
    <path
       style="fill:#b1b1b1;fill-opacity:1;stroke:none;stroke-width:0.847367px;stroke-linecap:butt;stroke-linejoin:miter;stroke-opacity:1"
       d="m 21.64039,7.6140344 c 0,0 0.675022,-2.1974098 2.297945,-1.9245295 C 23.04788,6.3501643 23.019157,6.4937867 23.234589,7.8869157 23.450022,9.2800454 21.64039,7.6140344 21.64039,7.6140344 Z"
       id="path1270"
       sodipodi:nodetypes="ccsc" />
    <path
       id="path1294"
       style="fill:#b1b1b1;stroke-width:2.79792;stroke-linejoin:round;stroke-dasharray:1.39896, 1.39896;stroke-dashoffset:1.11917"
       d="m 20.248595,16.577357 c -1.427761,1.42776 -4.202207,1.88735 -5.629968,0.45959 -1.42776,-1.42776 -0.96817,-4.202207 0.459589,-5.629969 1.42776,-1.4277584 3.369203,-1.054343 4.796963,0.373418 1.42776,1.42776 1.801176,3.3692 0.373416,4.796961 z"
       sodipodi:nodetypes="sssss" />
    <path
       id="path1593"
       style="fill:#b1b1b1;stroke-width:2.79792;stroke-linejoin:round;stroke-dasharray:1.39896, 1.39896;stroke-dashoffset:1.11917"
       d="m 15.911222,21.374319 c -3.014293,3.014293 -7.1162234,4.373505 -8.5598473,2.92988 -1.4436242,-1.443625 0.09804,-5.728007 2.9298803,-8.559848 1.111574,-1.111574 3.611856,-0.869137 5.055481,0.574487 1.443625,1.443625 1.73819,3.891778 0.574486,5.055481 z"
       sodipodi:nodetypes="sssss" />
    <path
       id="path2367"
       style="color:#000000;fill:#b1b1b1;stroke-width:0.96638;stroke-linecap:round;-inkscape-stroke:none"
       d="m 29.213257,7.026517 a 0.42368353,0.42368353 0 0 0 -0.498537,0.00234 c -1.851364,1.3612969 -2.54283,3.452187 -2.720882,4.033928 l -0.614394,-0.207139 c -0.05487,0.276428 -0.13051,0.550318 -0.228197,0.815681 l 1.375068,0.466939 0.120529,-0.431833 c 0,0 0.785414,-2.6811357 2.571087,-3.9941373 a 0.42368353,0.42368353 0 0 0 0.08895,-0.5921553 0.42368353,0.42368353 0 0 0 -0.09362,-0.093622 z" />
    <path
       id="path2940"
       style="color:#000000;fill:#b1b1b1;stroke-width:0.96638;stroke-linecap:round;-inkscape-stroke:none"
       d="m 24.349607,2.1628664 a 0.42368353,0.42368353 0 0 0 -0.592159,0.088941 C 22.444449,4.0374881 19.76331,4.8228949 19.76331,4.8228949 L 19.331479,4.943433 19.875656,6.5478757 C 20.138758,6.4438601 20.409932,6.3606113 20.685485,6.2997778 L 20.408129,5.4770762 c 0.582475,-0.1783205 2.670624,-0.8723089 4.031587,-2.7232229 a 0.42368353,0.42368353 0 0 0 -0.09011,-0.5909869 z" />
    <path
       id="path3193"
       style="color:#000000;fill:#b1b1b1;stroke-width:0.96638;stroke-linecap:round;stroke-linejoin:round;-inkscape-stroke:none"
       d="M 17.326804,2.2506366 A 0.84736609,0.84736609 0 0 0 17.107963,2.0996717 0.84736609,0.84736609 0 0 0 15.97865,2.5010749 L 14.176432,6.283394 a 0.84745082,0.84745082 0 0 0 -0.0024,0.7279094 l 1.280277,2.6892854 C 15.996704,9.446651 16.57485,9.3151023 17.146559,9.3097168 L 15.879178,6.6473487 17.508196,3.2301544 A 0.84736609,0.84736609 0 0 0 17.326804,2.2506366 Z M 29.810095,14.733928 a 0.84736609,0.84736609 0 0 0 -0.979519,-0.181389 l -3.417193,1.629019 -3.075476,-1.462841 c -0.03547,0.563627 -0.192465,1.129462 -0.468109,1.654764 l 3.179629,1.513162 a 0.84745082,0.84745082 0 0 0 0.727909,-0.0024 l 3.78232,-1.802218 a 0.84736609,0.84736609 0 0 0 0.401406,-1.129277 0.84736609,0.84736609 0 0 0 -0.150966,-0.218841 z M 13.003819,7.495796 A 0.84745082,0.84745082 0 0 0 12.481878,7.3366385 L 7.2074619,7.4852631 a 0.84736609,0.84736609 0 0 0 -0.8238717,0.8706825 0.84736609,0.84736609 0 0 0 0.870681,0.8238727 l 4.8238608,-0.1357509 1.569335,2.2059606 c 0.174412,-0.245385 0.369388,-0.477051 0.583968,-0.69163 0.19834,-0.19834 0.410415,-0.371722 0.633117,-0.523112 L 13.198085,7.6924017 A 0.84745082,0.84745082 0 0 0 13.003847,7.4957678 Z M 24.564936,19.056913 A 0.84745082,0.84745082 0 0 0 24.368302,18.862675 L 21.5655,16.869703 c -0.138308,0.193984 -0.294546,0.378803 -0.469281,0.553537 -0.238555,0.238555 -0.498551,0.452451 -0.774718,0.641309 l 2.695136,1.918075 -0.135751,4.823862 a 0.84736609,0.84736609 0 0 0 0.823872,0.870681 0.84736609,0.84736609 0 0 0 0.870681,-0.823873 l 0.148624,-5.274417 a 0.84745082,0.84745082 0 0 0 -0.159158,-0.52194 z m -5.411338,-0.376827 c -0.509187,0.199127 -1.045792,0.330038 -1.590399,0.3897 -0.02369,0.0026 -0.04762,0.0036 -0.0714,0.0058 l 1.260383,3.320062 -1.901692,6.386174 a 0.84736609,0.84736609 0 0 0 0.569922,1.054416 0.84736609,0.84736609 0 0 0 1.054416,-0.569922 L 20.45844,22.603961 A 0.84745082,0.84745082 0 0 0 20.43855,22.062124 Z M 12.893813,12.72223 9.9985604,11.622175 a 0.84745082,0.84745082 0 0 0 -0.541836,-0.01989 l -6.6611879,1.984781 a 0.84736609,0.84736609 0 0 0 -0.5699226,1.054416 0.84736609,0.84736609 0 0 0 1.0532449,0.568752 l 6.3861741,-1.901693 2.8952521,1.100057 c 0.0057,-0.10635 0.01307,-0.212109 0.02459,-0.317142 0.05109,-0.466384 0.155351,-0.926689 0.308957,-1.369218 z" />
  </g>
</svg>
