<?xml version="1.0" encoding="UTF-8" standalone="no"?>
<svg
   id="Calque_1"
   data-name="Calque 1"
   viewBox="0 0 32 32"
   version="1.1"
   sodipodi:docname="arthropod.svg"
   inkscape:version="1.1 (c68e22c387, 2021-05-23)"
   inkscape:export-filename="D:\DEV_SRC\RxOT\DuAEF\DuAEF_Duik\icons\w16/w16_arthropod.png"
   inkscape:export-xdpi="48"
   inkscape:export-ydpi="48"
   xmlns:inkscape="http://www.inkscape.org/namespaces/inkscape"
   xmlns:sodipodi="http://sodipodi.sourceforge.net/DTD/sodipodi-0.dtd"
   xmlns="http://www.w3.org/2000/svg"
   xmlns:svg="http://www.w3.org/2000/svg"
   xmlns:rdf="http://www.w3.org/1999/02/22-rdf-syntax-ns#"
   xmlns:cc="http://creativecommons.org/ns#"
   xmlns:dc="http://purl.org/dc/elements/1.1/">
  <metadata
     id="metadata31">
    <rdf:RDF>
      <cc:Work
         rdf:about="">
        <dc:format>image/svg+xml</dc:format>
        <dc:type
           rdf:resource="http://purl.org/dc/dcmitype/StillImage" />
        <dc:title>body_l</dc:title>
      </cc:Work>
    </rdf:RDF>
  </metadata>
  <sodipodi:namedview
     pagecolor="#ffffff"
     bordercolor="#666666"
     borderopacity="1"
     objecttolerance="10"
     gridtolerance="10"
     guidetolerance="10"
     inkscape:pageopacity="0"
     inkscape:pageshadow="2"
     inkscape:window-width="1920"
     inkscape:window-height="1027"
     id="namedview29"
     showgrid="false"
     inkscape:snap-bbox="true"
     inkscape:bbox-paths="true"
     inkscape:bbox-nodes="true"
     inkscape:snap-bbox-edge-midpoints="true"
     inkscape:snap-bbox-midpoints="true"
     inkscape:snap-nodes="false"
     inkscape:zoom="20.85965"
     inkscape:cx="10.426829"
     inkscape:cy="17.665685"
     inkscape:window-x="-8"
     inkscape:window-y="-8"
     inkscape:window-maximized="1"
     inkscape:current-layer="g1118"
     inkscape:document-rotation="0"
     inkscape:pagecheckerboard="0" />
  <defs
     id="defs4">
    <style
       id="style2">.cls-1{fill:#e3e3e3;}</style>
    <style
       id="style857">.cls-1{fill:#e3e3e3;}</style>
    <style
       id="style990">.cls-1{fill:#e3e3e3;}</style>
    <style
       id="style1091">.cls-1{fill:#e3e3e3;}</style>
  </defs>
  <title
     id="title6">body_l</title>
  <g
     id="g1118"
     transform="matrix(1.1404506,0,0,1.1404506,-2.3537809,-2.1777348)">
    <path
       id="path200"
       style="fill:#b1b1b1;fill-opacity:1;stroke:none;stroke-width:1.14128px;stroke-linecap:butt;stroke-linejoin:miter;stroke-opacity:1"
       d="m 10.822266,0.05078125 c -0.201583,-0.0024031 -0.40572,4.2903e-4 -0.609375,0.0078125 2.83757,0.82937639 6.204315,2.82444185 6.785156,5.72656245 0.299005,1.493944 -2.087891,4.0644532 -2.087891,4.0644532 0,0 9.36266,-0.5103143 5.876953,11.3847656 -0.167596,0.571926 -0.263843,1.109571 -0.30664,1.617187 -0.44209,-0.122234 -0.920142,-0.214403 -1.445313,-0.263671 -12.3410974,-1.157765 -8.40625,-9.667969 -8.40625,-9.667969 0,0 -3.2731484,1.267524 -4.550781,0.4375 C 3.5962096,11.745039 2.987452,7.8806775 3.265625,4.9375 c -5.2566434,11.936248 9.907702,27.490804 16.203125,27.021484 2.696069,-0.200992 4.457323,-0.752695 6.235234,-2.02294 1.63938,-1.171269 2.483462,-2.483104 3.628047,-4.834482 C 32.051843,19.514117 23.521994,0.20217668 10.822266,0.05078125 Z"
       transform="matrix(0.8768464,0,0,0.8768464,2.0639043,1.9095389)"
       sodipodi:nodetypes="scscscccccsass" />
  </g>
</svg>
