<?xml version="1.0" encoding="UTF-8" standalone="no"?>
<svg
   width="32"
   height="32"
   viewBox="0 0 8.4666666 8.4666666"
   version="1.1"
   id="svg8"
   inkscape:version="1.2.2 (732a01da63, 2022-12-09)"
   sodipodi:docname="bake_bone.svg"
   inkscape:export-filename="w16\w16_bake_bone.png"
   inkscape:export-xdpi="48.000004"
   inkscape:export-ydpi="48.000004"
   xmlns:inkscape="http://www.inkscape.org/namespaces/inkscape"
   xmlns:sodipodi="http://sodipodi.sourceforge.net/DTD/sodipodi-0.dtd"
   xmlns="http://www.w3.org/2000/svg"
   xmlns:svg="http://www.w3.org/2000/svg"
   xmlns:rdf="http://www.w3.org/1999/02/22-rdf-syntax-ns#"
   xmlns:cc="http://creativecommons.org/ns#"
   xmlns:dc="http://purl.org/dc/elements/1.1/">
  <defs
     id="defs2">
    <style
       id="style1399">.cls-1{fill:#e3e3e3;}</style>
    <style
       id="style1399-4">.cls-1{fill:#e3e3e3;}</style>
    <style
       id="style1399-8">.cls-1{fill:#e3e3e3;}</style>
    <style
       id="style1399-4-5">.cls-1{fill:#e3e3e3;}</style>
    <style
       id="style1399-0">.cls-1{fill:#e3e3e3;}</style>
    <style
       id="style1399-84">.cls-1{fill:#e3e3e3;}</style>
    <linearGradient
       id="Neutral__dark_"
       inkscape:swatch="solid">
      <stop
         style="stop-color:#232323;stop-opacity:1;"
         offset="0"
         id="stop832" />
    </linearGradient>
    <linearGradient
       id="linearGradient1363"
       inkscape:swatch="solid">
      <stop
         style="stop-color:#84b330;stop-opacity:1;"
         offset="0"
         id="stop1361" />
    </linearGradient>
    <style
       id="style1399-70">.cls-1{fill:#e3e3e3;}</style>
    <style
       id="style857">.cls-1{fill:#e52120;}.cls-1,.cls-2,.cls-3,.cls-4,.cls-5{stroke:#000;stroke-miterlimit:10;stroke-width:1.2px;}.cls-2{fill:#6dbc88;}.cls-3{fill:#701034;}.cls-4{fill:#51aae0;}.cls-5{fill:none;}</style>
    <style
       id="style857-2">.cls-1{fill:#e52120;}.cls-1,.cls-2,.cls-3,.cls-4,.cls-5{stroke:#000;stroke-miterlimit:10;stroke-width:1.2px;}.cls-2{fill:#6dbc88;}.cls-3{fill:#701034;}.cls-4{fill:#51aae0;}.cls-5{fill:none;}</style>
    <style
       id="style1399-7">.cls-1{fill:#e3e3e3;}</style>
    <style
       id="style1399-2">.cls-1{fill:#e3e3e3;}</style>
    <style
       id="style1399-8-7">.cls-1{fill:#e3e3e3;}</style>
    <style
       id="style1399-9">.cls-1{fill:#e3e3e3;}</style>
  </defs>
  <sodipodi:namedview
     id="base"
     pagecolor="#ffffff"
     bordercolor="#666666"
     borderopacity="1.0"
     inkscape:pageopacity="0.0"
     inkscape:pageshadow="2"
     inkscape:zoom="11.313708"
     inkscape:cx="7.6013982"
     inkscape:cy="20.859651"
     inkscape:document-units="mm"
     inkscape:current-layer="svg8"
     showgrid="false"
     units="px"
     inkscape:window-width="3440"
     inkscape:window-height="1369"
     inkscape:window-x="1912"
     inkscape:window-y="-8"
     inkscape:window-maximized="1"
     inkscape:snap-bbox="true"
     inkscape:bbox-paths="true"
     inkscape:bbox-nodes="true"
     inkscape:snap-bbox-edge-midpoints="true"
     inkscape:snap-bbox-midpoints="true"
     inkscape:snap-nodes="false"
     inkscape:snap-others="true"
     inkscape:snap-object-midpoints="true"
     inkscape:snap-page="true"
     inkscape:document-rotation="0"
     inkscape:pagecheckerboard="0"
     inkscape:showpageshadow="0"
     inkscape:deskcolor="#d1d1d1">
    <sodipodi:guide
       position="8.4666666,0"
       orientation="-32,0"
       id="guide854"
       inkscape:locked="false" />
    <sodipodi:guide
       position="9.9384114,8.4666666"
       orientation="0,-32"
       id="guide856"
       inkscape:locked="false" />
    <sodipodi:guide
       position="0,8.4666814"
       orientation="32,0"
       id="guide858"
       inkscape:locked="false" />
  </sodipodi:namedview>
  <metadata
     id="metadata5">
    <rdf:RDF>
      <cc:Work
         rdf:about="">
        <dc:format>image/svg+xml</dc:format>
        <dc:type
           rdf:resource="http://purl.org/dc/dcmitype/StillImage" />
      </cc:Work>
    </rdf:RDF>
  </metadata>
  <path
     id="path828"
     style="opacity:1;fill:#b1b1b1;fill-opacity:1;stroke:none;stroke-width:8.92592;stroke-linecap:butt;stroke-linejoin:miter;stroke-miterlimit:4;stroke-dasharray:none;stroke-dashoffset:0;stroke-opacity:1"
     d="M 27.966797 0 C 27.04771 0 26.128081 0.35434066 25.423828 1.0585938 L 24.427734 2.0820312 C 25.362685 2.7120873 26.012452 3.7617564 25.957031 4.9746094 L 25.699219 11.175781 L 30.554688 6.1894531 C 31.963191 4.7809487 31.963191 2.5139732 30.554688 1.1054688 L 30.507812 1.0585938 C 29.803568 0.35434856 28.885884 1.4802974e-16 27.966797 0 z M 12.488281 14.337891 L 11.001953 15.863281 C 10.132935 15.560255 9.2191578 15.40372 8.2988281 15.400391 C 3.7150154 15.400391 -1.666841e-07 19.117359 0 23.701172 C -1.666841e-07 28.284984 3.7150154 32 8.2988281 32 C 12.882641 32 16.599609 28.284984 16.599609 23.701172 C 16.596289 22.780842 16.439745 21.867066 16.136719 20.998047 L 18.664062 18.402344 L 17.679688 14.570312 L 16.640625 15.115234 A 2.5228457 2.5228457 0 0 1 16.630859 15.115234 C 15.222691 15.854671 13.497893 15.469481 12.488281 14.337891 z M 8.2988281 18.626953 C 11.100527 18.62623 13.373769 20.899472 13.373047 23.701172 C 13.373769 26.502871 11.100527 28.774161 8.2988281 28.773438 C 5.4971294 28.774161 3.22584 26.502871 3.2265625 23.701172 C 3.22584 20.899472 5.4971294 18.62623 8.2988281 18.626953 z M 8.2988281 21.599609 C 7.1381008 21.599309 6.198919 22.540445 6.1992188 23.701172 C 6.198919 24.861899 7.1381008 25.801082 8.2988281 25.800781 C 9.4595554 25.801082 10.400689 24.861899 10.400391 23.701172 C 10.400689 22.540445 9.4595554 21.599309 8.2988281 21.599609 z "
     transform="scale(0.26458333)" />
  <style
     id="style815"
     type="text/css">
	.st0{fill:#00005B;}
	.st1{fill:#9999FF;}
</style>
  <style
     id="style815-2"
     type="text/css">
	.st0{fill:#00005B;}
	.st1{fill:#9999FF;}
</style>
  <path
     id="path1213"
     d="M 5.8585266,1.0705292 4.8622072,1.5937016 4.6415436,0.27992952 C 4.6071652,0.13056842 4.4398793,0.05319582 4.3043307,0.12437308 L 3.0610887,0.77720579 C 2.9574874,0.83160765 2.9097694,0.95468726 2.9499065,1.0646851 l 0.811778,2.2171431 c 0.048884,0.1329321 0.20361,0.1926688 0.3287931,0.1269346 L 5.1152886,2.8706293 5.5990578,4.7588705 C 5.6368838,4.906421 5.8018677,4.9772897 5.93396,4.9079273 6.00648,4.8698473 6.0555926,4.7955674 6.0591358,4.7100243 L 6.2004531,1.2874986 C 6.2086522,1.1080646 6.0182485,0.98665841 5.8585266,1.0705292 Z"
     inkscape:connector-curvature="0"
     style="fill:#b1b1b1;fill-opacity:1;stroke-width:0.00975158"
     inkscape:export-filename="D:\DEV_SRC\RxOT\DuAEF\DuAEF_Duik\icons\w16\w16_quick.png"
     inkscape:export-xdpi="48"
     inkscape:export-ydpi="48" />
</svg>
