<?xml version="1.0" encoding="UTF-8" standalone="no"?>
<svg
   width="32"
   height="32"
   viewBox="0 0 8.4666666 8.4666666"
   version="1.1"
   id="svg8"
   inkscape:version="1.2.2 (732a01da63, 2022-12-09)"
   sodipodi:docname="bake_controller.svg"
   inkscape:export-filename="w16\w16_bake_controller.png"
   inkscape:export-xdpi="48.000004"
   inkscape:export-ydpi="48.000004"
   xmlns:inkscape="http://www.inkscape.org/namespaces/inkscape"
   xmlns:sodipodi="http://sodipodi.sourceforge.net/DTD/sodipodi-0.dtd"
   xmlns="http://www.w3.org/2000/svg"
   xmlns:svg="http://www.w3.org/2000/svg"
   xmlns:rdf="http://www.w3.org/1999/02/22-rdf-syntax-ns#"
   xmlns:cc="http://creativecommons.org/ns#"
   xmlns:dc="http://purl.org/dc/elements/1.1/">
  <defs
     id="defs2">
    <style
       id="style1399">.cls-1{fill:#e3e3e3;}</style>
    <style
       id="style1399-4">.cls-1{fill:#e3e3e3;}</style>
    <style
       id="style1399-8">.cls-1{fill:#e3e3e3;}</style>
    <style
       id="style1399-4-5">.cls-1{fill:#e3e3e3;}</style>
    <style
       id="style1399-0">.cls-1{fill:#e3e3e3;}</style>
    <style
       id="style1399-84">.cls-1{fill:#e3e3e3;}</style>
    <linearGradient
       id="Neutral__dark_"
       inkscape:swatch="solid">
      <stop
         style="stop-color:#232323;stop-opacity:1;"
         offset="0"
         id="stop832" />
    </linearGradient>
    <linearGradient
       id="linearGradient1363"
       inkscape:swatch="solid">
      <stop
         style="stop-color:#84b330;stop-opacity:1;"
         offset="0"
         id="stop1361" />
    </linearGradient>
    <style
       id="style1399-70">.cls-1{fill:#e3e3e3;}</style>
    <style
       id="style857">.cls-1{fill:#e52120;}.cls-1,.cls-2,.cls-3,.cls-4,.cls-5{stroke:#000;stroke-miterlimit:10;stroke-width:1.2px;}.cls-2{fill:#6dbc88;}.cls-3{fill:#701034;}.cls-4{fill:#51aae0;}.cls-5{fill:none;}</style>
    <style
       id="style857-2">.cls-1{fill:#e52120;}.cls-1,.cls-2,.cls-3,.cls-4,.cls-5{stroke:#000;stroke-miterlimit:10;stroke-width:1.2px;}.cls-2{fill:#6dbc88;}.cls-3{fill:#701034;}.cls-4{fill:#51aae0;}.cls-5{fill:none;}</style>
    <style
       id="style1399-7">.cls-1{fill:#e3e3e3;}</style>
    <style
       id="style1399-2">.cls-1{fill:#e3e3e3;}</style>
    <style
       id="style1399-8-7">.cls-1{fill:#e3e3e3;}</style>
    <style
       id="style1399-9">.cls-1{fill:#e3e3e3;}</style>
  </defs>
  <sodipodi:namedview
     id="base"
     pagecolor="#ffffff"
     bordercolor="#666666"
     borderopacity="1.0"
     inkscape:pageopacity="0.0"
     inkscape:pageshadow="2"
     inkscape:zoom="11.313708"
     inkscape:cx="-0.39774758"
     inkscape:cy="20.859651"
     inkscape:document-units="mm"
     inkscape:current-layer="svg8"
     showgrid="false"
     units="px"
     inkscape:window-width="3440"
     inkscape:window-height="1369"
     inkscape:window-x="1912"
     inkscape:window-y="-8"
     inkscape:window-maximized="1"
     inkscape:snap-bbox="true"
     inkscape:bbox-paths="true"
     inkscape:bbox-nodes="true"
     inkscape:snap-bbox-edge-midpoints="true"
     inkscape:snap-bbox-midpoints="true"
     inkscape:snap-nodes="false"
     inkscape:snap-others="true"
     inkscape:snap-object-midpoints="true"
     inkscape:snap-page="true"
     inkscape:document-rotation="0"
     inkscape:pagecheckerboard="0"
     inkscape:showpageshadow="0"
     inkscape:deskcolor="#d1d1d1" />
  <metadata
     id="metadata5">
    <rdf:RDF>
      <cc:Work
         rdf:about="">
        <dc:format>image/svg+xml</dc:format>
        <dc:type
           rdf:resource="http://purl.org/dc/dcmitype/StillImage" />
      </cc:Work>
    </rdf:RDF>
  </metadata>
  <style
     id="style815"
     type="text/css">
	.st0{fill:#00005B;}
	.st1{fill:#9999FF;}
</style>
  <style
     id="style815-2"
     type="text/css">
	.st0{fill:#00005B;}
	.st1{fill:#9999FF;}
</style>
  <path
     id="path875"
     style="fill:#b1b1b1;fill-opacity:1;stroke-width:0.0164568"
     d="M 1.4738118 0 C 1.4385301 0.00042185333 1.402279 0.0090774476 1.3683919 0.026871745 L 0.12557373 0.67954508 C 0.021972534 0.73394693 -0.026184423 0.85686832 0.013952637 0.96686605 L 0.82578939 3.1843018 C 0.87467334 3.3172337 1.0297853 3.3766432 1.1549683 3.310909 L 2.1797119 2.7729574 L 2.6634033 4.6612142 C 2.7012293 4.8087645 2.8661744 4.8794046 2.9982666 4.8100423 C 3.0707865 4.7719624 3.1197804 4.6981814 3.1233236 4.6126383 L 3.264917 1.1901082 C 3.2731161 1.0106744 3.0825408 0.88919651 2.922819 0.97306722 L 1.9264974 1.4960327 L 1.705839 0.18241781 C 1.6800553 0.070397093 1.579657 -0.00126556 1.4738118 0 z M 4.889624 0.020670573 C 4.5320034 0.027519159 4.2441854 0.31924428 4.2441854 0.67851156 L 4.2441854 4.2333333 L 4.1124105 4.2333333 L 4.1124105 1.3497884 C 4.1124105 1.0729447 3.9427499 0.82989385 3.7020996 0.7286377 C 3.8006841 0.86571355 3.8577599 1.0335323 3.8493774 1.21698 L 3.7072673 4.6369263 C 3.6950864 4.9310089 3.5209275 5.1963689 3.2695679 5.3283569 C 2.8171975 5.5658991 2.225275 5.3046643 2.0975464 4.806425 L 1.9600871 4.2705404 C 1.7632119 4.2018959 1.5368853 4.2274963 1.3554728 4.3594238 C 1.0614734 4.5732624 0.99643926 4.9847142 1.210262 5.2787476 L 3.2773193 8.1209513 A 0.78992618 0.78992618 0 0 0 3.91604 8.4465129 L 7.1680379 8.4465129 C 7.5345956 8.4465129 7.8530204 8.1940631 7.9369832 7.8372477 L 8.3731323 5.9830973 A 3.1598859 3.1598859 0 0 0 8.4568481 5.2596273 L 8.4568481 2.7853597 C 8.4568691 2.4260927 8.1695485 2.1338476 7.8119263 2.127002 C 7.442883 2.1199416 7.1406494 2.429154 7.1406494 2.7982788 L 7.1406494 4.2333333 L 7.0088745 4.2333333 L 7.0088745 1.333252 C 7.0088745 0.96412556 6.7066406 0.65543138 6.3375977 0.66249186 C 5.9799753 0.66934186 5.692159 0.96106422 5.692159 1.3203328 L 5.692159 4.2333333 L 5.5609009 4.2333333 L 5.5609009 0.69143066 C 5.5609009 0.3223056 5.2586671 0.013611587 4.889624 0.020670573 z " />
</svg>
