<?xml version="1.0" encoding="UTF-8" standalone="no"?>
<!-- Created with Inkscape (http://www.inkscape.org/) -->

<svg
   width="32"
   height="32"
   viewBox="0 0 8.4666666 8.4666666"
   version="1.1"
   id="svg8"
   inkscape:version="1.2.2 (732a01da63, 2022-12-09)"
   sodipodi:docname="bear.svg"
   inkscape:export-filename="..\oco\bear.png"
   inkscape:export-xdpi="48"
   inkscape:export-ydpi="48"
   xmlns:inkscape="http://www.inkscape.org/namespaces/inkscape"
   xmlns:sodipodi="http://sodipodi.sourceforge.net/DTD/sodipodi-0.dtd"
   xmlns="http://www.w3.org/2000/svg"
   xmlns:svg="http://www.w3.org/2000/svg"
   xmlns:rdf="http://www.w3.org/1999/02/22-rdf-syntax-ns#"
   xmlns:cc="http://creativecommons.org/ns#"
   xmlns:dc="http://purl.org/dc/elements/1.1/">
  <defs
     id="defs2">
    <inkscape:path-effect
       effect="taper_stroke"
       id="path-effect879"
       is_visible="true"
       stroke_width="1.77"
       attach_start="1e-07"
       end_offset="1.0001633"
       smoothing="0.5"
       jointype="extrapolated"
       miter_limit="100" />
    <inkscape:path-effect
       effect="mirror_symmetry"
       start_point="4.2333333,0"
       end_point="4.2333333,8.4666667"
       center_point="4.2333333,4.2333333"
       id="path-effect897"
       is_visible="true"
       mode="vertical"
       discard_orig_path="false"
       fuse_paths="false"
       oposite_fuse="false" />
    <inkscape:path-effect
       effect="mirror_symmetry"
       start_point="4.2328811,1.6730093"
       end_point="4.2328811,6.1768975"
       center_point="4.2328811,3.9249534"
       id="path-effect862"
       is_visible="true"
       mode="free"
       discard_orig_path="false"
       fuse_paths="false"
       oposite_fuse="false" />
    <inkscape:path-effect
       effect="mirror_symmetry"
       start_point="4.2333333,0"
       end_point="4.2333333,8.4666667"
       center_point="4.2333333,4.2333333"
       id="path-effect858"
       is_visible="true"
       mode="vertical"
       discard_orig_path="false"
       fuse_paths="false"
       oposite_fuse="false" />
    <inkscape:path-effect
       effect="mirror_symmetry"
       start_point="4.2333333,0"
       end_point="4.2333333,8.4666667"
       center_point="4.2333333,4.2333333"
       id="path-effect854"
       is_visible="true"
       mode="vertical"
       discard_orig_path="false"
       fuse_paths="false"
       oposite_fuse="false" />
    <style
       id="style1399">.cls-1{fill:#e3e3e3;}</style>
    <style
       id="style1399-4">.cls-1{fill:#e3e3e3;}</style>
    <style
       id="style1399-8">.cls-1{fill:#e3e3e3;}</style>
    <style
       id="style1399-4-5">.cls-1{fill:#e3e3e3;}</style>
    <inkscape:path-effect
       oposite_fuse="false"
       fuse_paths="false"
       discard_orig_path="false"
       mode="vertical"
       is_visible="true"
       id="path-effect897-3"
       center_point="4.2333333,4.2333333"
       end_point="4.2333333,8.4666667"
       start_point="4.2333333,0"
       effect="mirror_symmetry" />
    <inkscape:path-effect
       oposite_fuse="false"
       fuse_paths="false"
       discard_orig_path="false"
       mode="free"
       is_visible="true"
       id="path-effect862-8"
       center_point="4.2328811,3.9249534"
       end_point="4.2328811,6.1768975"
       start_point="4.2328811,1.6730093"
       effect="mirror_symmetry" />
    <inkscape:path-effect
       oposite_fuse="false"
       fuse_paths="false"
       discard_orig_path="false"
       mode="vertical"
       is_visible="true"
       id="path-effect858-5"
       center_point="4.2333333,4.2333333"
       end_point="4.2333333,8.4666667"
       start_point="4.2333333,0"
       effect="mirror_symmetry" />
    <inkscape:path-effect
       oposite_fuse="false"
       fuse_paths="false"
       discard_orig_path="false"
       mode="vertical"
       is_visible="true"
       id="path-effect854-6"
       center_point="4.2333333,4.2333333"
       end_point="4.2333333,8.4666667"
       start_point="4.2333333,0"
       effect="mirror_symmetry" />
    <style
       id="style1399-1">.cls-1{fill:#e3e3e3;}</style>
    <style
       id="style1399-4-1">.cls-1{fill:#e3e3e3;}</style>
    <style
       id="style1399-8-5">.cls-1{fill:#e3e3e3;}</style>
    <style
       id="style1399-4-5-9">.cls-1{fill:#e3e3e3;}</style>
  </defs>
  <sodipodi:namedview
     id="base"
     pagecolor="#ffffff"
     bordercolor="#666666"
     borderopacity="1.0"
     inkscape:pageopacity="0.0"
     inkscape:pageshadow="2"
     inkscape:zoom="16.000001"
     inkscape:cx="9.1249996"
     inkscape:cy="21.031249"
     inkscape:document-units="mm"
     inkscape:current-layer="svg8"
     showgrid="false"
     units="px"
     inkscape:window-width="2256"
     inkscape:window-height="1126"
     inkscape:window-x="2297"
     inkscape:window-y="149"
     inkscape:window-maximized="0"
     inkscape:pagecheckerboard="0"
     inkscape:showpageshadow="0"
     inkscape:deskcolor="#d1d1d1" />
  <metadata
     id="metadata5">
    <rdf:RDF>
      <cc:Work
         rdf:about="">
        <dc:format>image/svg+xml</dc:format>
        <dc:type
           rdf:resource="http://purl.org/dc/dcmitype/StillImage" />
      </cc:Work>
    </rdf:RDF>
  </metadata>
  <path
     id="circle1043"
     style="fill:#b1b1b1;stroke-width:1.08493;stroke-linecap:round;stroke-linejoin:round;fill-opacity:1"
     d="M 1.1363297,0.64974889 A 1.1363135,1.1363135 0 0 0 0,1.7860788 1.1363135,1.1363135 0 0 0 1.1363297,2.9224086 c -0.29483267,0.5184902 -0.46346091,1.118064 -0.46346091,1.7571122 0,1.9662582 1.59420631,3.137397 3.56046441,3.137397 1.9662583,0 3.5604646,-1.1711388 3.5604646,-3.137397 0,-0.6390481 -0.1686284,-1.2386224 -0.463461,-1.7571122 A 1.1363133,1.1363133 0 0 0 8.4666667,1.7860788 1.1363133,1.1363133 0 0 0 7.3303368,0.64974889 1.1363133,1.1363133 0 0 0 6.1966645,1.7090124 C 5.6337984,1.3361968 4.9589738,1.1190564 4.2333332,1.1190564 c -0.7257994,0 -1.4009216,0.2169898 -1.9638625,0.589956 A 1.1363135,1.1363135 0 0 0 1.1363297,0.64974889 Z M 2.901946,3.4028773 A 0.32615119,0.32615119 0 0 1 3.2277505,3.7292133 0.32615119,0.32615119 0 0 1 2.901946,4.0555493 0.32615119,0.32615119 0 0 1 2.5756099,3.7292133 0.32615119,0.32615119 0 0 1 2.901946,3.4028773 Z m 2.6627747,0 A 0.32615116,0.32615116 0 0 1 5.8910568,3.7292133 0.32615116,0.32615116 0 0 1 5.5647207,4.0555493 0.32615116,0.32615116 0 0 1 5.2389161,3.7292133 0.32615116,0.32615116 0 0 1 5.5647207,3.4028773 Z M 4.2333332,4.3739131 A 1.6754701,1.462666 0 0 1 5.908596,5.8365789 1.6754701,1.462666 0 0 1 4.2333332,7.2992448 1.6754701,1.462666 0 0 1 2.5580707,5.8365789 1.6754701,1.462666 0 0 1 4.2333332,4.3739131 Z m 0,0.6292864 A 0.45920881,0.28913141 0 0 0 3.7741243,5.2923311 0.45920881,0.28913141 0 0 0 4.0978029,5.568707 V 6.5073218 A 0.13606176,0.13606176 0 0 0 4.2322703,6.6439152 0.13606176,0.13606176 0 0 0 4.3688637,6.5073218 V 5.568707 A 0.45920881,0.28913141 0 0 0 4.6925424,5.2923311 0.45920881,0.28913141 0 0 0 4.2333332,5.0031995 Z" />
</svg>
