<?xml version="1.0" encoding="UTF-8" standalone="no"?>
<!-- Created with Inkscape (http://www.inkscape.org/) -->

<svg
   width="32"
   height="32"
   viewBox="0 0 8.4666666 8.4666666"
   version="1.1"
   id="svg8"
   inkscape:version="1.1.1 (3bf5ae0d25, 2021-09-20)"
   sodipodi:docname="composition_settings.svg"
   inkscape:export-filename="D:\RxLab\src\RxOT\DuAEF\Duik\inc\icons\w16\w16_composition_settings.png"
   inkscape:export-xdpi="48"
   inkscape:export-ydpi="48"
   xmlns:inkscape="http://www.inkscape.org/namespaces/inkscape"
   xmlns:sodipodi="http://sodipodi.sourceforge.net/DTD/sodipodi-0.dtd"
   xmlns="http://www.w3.org/2000/svg"
   xmlns:svg="http://www.w3.org/2000/svg"
   xmlns:rdf="http://www.w3.org/1999/02/22-rdf-syntax-ns#"
   xmlns:cc="http://creativecommons.org/ns#"
   xmlns:dc="http://purl.org/dc/elements/1.1/">
  <defs
     id="defs2">
    <style
       id="style1399">.cls-1{fill:#e3e3e3;}</style>
  </defs>
  <sodipodi:namedview
     id="base"
     pagecolor="#ffffff"
     bordercolor="#666666"
     borderopacity="1.0"
     inkscape:pageopacity="0.0"
     inkscape:pageshadow="2"
     inkscape:zoom="22.627418"
     inkscape:cx="26.140853"
     inkscape:cy="13.899067"
     inkscape:document-units="mm"
     inkscape:current-layer="svg8"
     showgrid="false"
     units="px"
     inkscape:window-width="3440"
     inkscape:window-height="1369"
     inkscape:window-x="1912"
     inkscape:window-y="-8"
     inkscape:window-maximized="1"
     inkscape:snap-bbox="true"
     inkscape:bbox-nodes="true"
     inkscape:bbox-paths="true"
     inkscape:snap-bbox-edge-midpoints="true"
     inkscape:snap-bbox-midpoints="true"
     inkscape:snap-nodes="false"
     inkscape:pagecheckerboard="1">
    <sodipodi:guide
       position="8.4666666,0"
       orientation="-32,0"
       id="guide854"
       inkscape:locked="false" />
    <sodipodi:guide
       position="8.4666666,8.4666666"
       orientation="0,-32"
       id="guide856"
       inkscape:locked="false" />
    <sodipodi:guide
       position="0,8.4666814"
       orientation="32,0"
       id="guide858"
       inkscape:locked="false" />
  </sodipodi:namedview>
  <metadata
     id="metadata5">
    <rdf:RDF>
      <cc:Work
         rdf:about="">
        <dc:format>image/svg+xml</dc:format>
        <dc:type
           rdf:resource="http://purl.org/dc/dcmitype/StillImage" />
      </cc:Work>
    </rdf:RDF>
  </metadata>
  <path
     id="path1222"
     style="fill:#b1b1b1;fill-opacity:1;stroke-width:0.0625"
     d="M 1.5 3.9433594 C 0.66875283 3.9433594 -1.4802974e-16 4.6121094 0 5.4433594 L 0 26.443359 C 0 27.27461 0.66875283 27.943359 1.5 27.943359 L 2 27.943359 L 2 26.693359 C 2 26.28086 2.3375095 25.943359 2.75 25.943359 L 5.25 25.943359 C 5.6625018 25.943359 6 26.280861 6 26.693359 L 6 27.943359 L 26 27.943359 L 26 26.693359 C 26 26.28086 26.337507 25.943359 26.75 25.943359 L 29.25 25.943359 C 29.662498 25.943359 30 26.280861 30 26.693359 L 30 27.943359 L 30.5 27.943359 C 31.331247 27.943359 32 27.27461 32 26.443359 L 32 5.4433594 C 32 4.6121094 31.331247 3.9433594 30.5 3.9433594 L 30 3.9433594 L 30 5.1933594 C 30 5.6058597 29.66249 5.9433594 29.25 5.9433594 L 26.75 5.9433594 C 26.337502 5.9433594 26 5.6058597 26 5.1933594 L 26 3.9433594 L 6 3.9433594 L 6 5.1933594 C 6 5.6058597 5.6624935 5.9433594 5.25 5.9433594 L 2.75 5.9433594 C 2.337502 5.9433594 2 5.6058597 2 5.1933594 L 2 3.9433594 L 1.5 3.9433594 z M 20.771484 7.6816406 C 21.168092 7.6816406 21.564649 7.8341808 21.867188 8.1367188 L 23.808594 10.076172 C 24.41367 10.681247 24.41367 11.662179 23.808594 12.267578 L 21.982422 14.091797 L 17.851562 9.9609375 L 19.675781 8.1367188 C 19.978319 7.8341808 20.374877 7.6816406 20.771484 7.6816406 z M 2.75 7.9433594 L 5.25 7.9433594 C 5.6625018 7.9433594 6 8.2808595 6 8.6933594 L 6 11.193359 C 6 11.60586 5.6624935 11.943359 5.25 11.943359 L 2.75 11.943359 C 2.337502 11.943359 2 11.605859 2 11.193359 L 2 8.6933594 C 2 8.2808591 2.3375095 7.9433594 2.75 7.9433594 z M 26.75 7.9433594 L 29.25 7.9433594 C 29.662498 7.9433594 30 8.2808595 30 8.6933594 L 30 11.193359 C 30 11.60586 29.66249 11.943359 29.25 11.943359 L 26.75 11.943359 C 26.337502 11.943359 26 11.605859 26 11.193359 L 26 8.6933594 C 26 8.2808591 26.337507 7.9433594 26.75 7.9433594 z M 17.121094 10.691406 L 21.251953 14.822266 L 12.28125 23.792969 L 8.5976562 24.199219 C 8.1045602 24.253754 7.6892808 23.836848 7.7441406 23.34375 L 8.1523438 19.658203 L 17.121094 10.691406 z M 2.75 13.943359 L 5.25 13.943359 C 5.6625018 13.943359 6 14.28086 6 14.693359 L 6 17.193359 C 6 17.605859 5.6624935 17.943359 5.25 17.943359 L 2.75 17.943359 C 2.337502 17.943359 2 17.605859 2 17.193359 L 2 14.693359 C 2 14.280859 2.3375095 13.943359 2.75 13.943359 z M 26.75 13.943359 L 29.25 13.943359 C 29.662498 13.943359 30 14.28086 30 14.693359 L 30 17.193359 C 30 17.605859 29.66249 17.943359 29.25 17.943359 L 26.75 17.943359 C 26.337502 17.943359 26 17.605859 26 17.193359 L 26 14.693359 C 26 14.280859 26.337507 13.943359 26.75 13.943359 z M 2.75 19.943359 L 5.25 19.943359 C 5.6625018 19.943359 6 20.280861 6 20.693359 L 6 23.193359 C 6 23.605859 5.6624935 23.943359 5.25 23.943359 L 2.75 23.943359 C 2.337502 23.943359 2 23.605858 2 23.193359 L 2 20.693359 C 2 20.28086 2.3375095 19.943359 2.75 19.943359 z M 26.75 19.943359 L 29.25 19.943359 C 29.662498 19.943359 30 20.280861 30 20.693359 L 30 23.193359 C 30 23.605859 29.66249 23.943359 29.25 23.943359 L 26.75 23.943359 C 26.337502 23.943359 26 23.605858 26 23.193359 L 26 20.693359 C 26 20.28086 26.337507 19.943359 26.75 19.943359 z "
     transform="scale(0.26458333)" />
</svg>
