<?xml version="1.0" encoding="UTF-8" standalone="no"?>
<!-- Created with Inkscape (http://www.inkscape.org/) -->

<svg
   width="32"
   height="32"
   viewBox="0 0 8.4666666 8.4666666"
   version="1.1"
   id="svg8"
   inkscape:version="1.1.1 (3bf5ae0d25, 2021-09-20)"
   sodipodi:docname="count.svg"
   inkscape:export-filename="D:\RxLab\src\RxOT\DuAEF\DuAEF_Duik\inc\icons\w12\w12_count.png"
   inkscape:export-xdpi="36"
   inkscape:export-ydpi="36"
   xmlns:inkscape="http://www.inkscape.org/namespaces/inkscape"
   xmlns:sodipodi="http://sodipodi.sourceforge.net/DTD/sodipodi-0.dtd"
   xmlns="http://www.w3.org/2000/svg"
   xmlns:svg="http://www.w3.org/2000/svg"
   xmlns:rdf="http://www.w3.org/1999/02/22-rdf-syntax-ns#"
   xmlns:cc="http://creativecommons.org/ns#"
   xmlns:dc="http://purl.org/dc/elements/1.1/">
  <defs
     id="defs2" />
  <sodipodi:namedview
     id="base"
     pagecolor="#ffffff"
     bordercolor="#666666"
     borderopacity="1.0"
     inkscape:pageopacity="0.0"
     inkscape:pageshadow="2"
     inkscape:zoom="5.6568543"
     inkscape:cx="17.235728"
     inkscape:cy="15.114407"
     inkscape:document-units="mm"
     inkscape:current-layer="svg8"
     showgrid="false"
     units="px"
     inkscape:window-width="3440"
     inkscape:window-height="1369"
     inkscape:window-x="1912"
     inkscape:window-y="-8"
     inkscape:window-maximized="1"
     inkscape:snap-global="true"
     inkscape:snap-bbox="true"
     inkscape:snap-nodes="false"
     inkscape:bbox-paths="true"
     inkscape:bbox-nodes="true"
     inkscape:snap-bbox-edge-midpoints="true"
     inkscape:snap-bbox-midpoints="true"
     inkscape:pagecheckerboard="0">
    <sodipodi:guide
       position="8.4666666,0"
       orientation="-32,0"
       id="guide854"
       inkscape:locked="false" />
    <sodipodi:guide
       position="8.4666666,8.4666666"
       orientation="0,-32"
       id="guide856"
       inkscape:locked="false" />
    <sodipodi:guide
       position="0,8.4666814"
       orientation="32,0"
       id="guide858"
       inkscape:locked="false" />
  </sodipodi:namedview>
  <metadata
     id="metadata5">
    <rdf:RDF>
      <cc:Work
         rdf:about="">
        <dc:format>image/svg+xml</dc:format>
        <dc:type
           rdf:resource="http://purl.org/dc/dcmitype/StillImage" />
      </cc:Work>
    </rdf:RDF>
  </metadata>
  <path
     style="stroke-width:0.02370018;fill:#b1b1b1;fill-opacity:1"
     d="m 5.8768981,3.1532959 c -0.1525876,0.00394 -0.308808,0.025998 -0.467155,0.068213 A 1.872313,1.872313 0 0 0 4.6227112,3.6633422 c 0.010898,0.054115 0.017208,0.1097531 0.017053,0.1669148 V 4.6756835 C 4.6407507,5.0399698 4.4146968,5.3784886 4.1028462,5.5614175 4.3109415,6.2994716 4.9539639,6.8572189 5.7373716,6.935494 A 1.9924729,1.9924729 0 0 1 5.2433451,7.2409017 C 5.0639348,7.3214819 4.9869472,7.5365228 5.0490417,7.7230427 L 5.2841695,8.1974324 C 5.3521904,8.4019651 5.5813762,8.5168892 5.7797465,8.4320435 7.1543558,7.845227 7.8235493,6.9718067 7.8235493,5.3035522 V 5.0482706 C 7.8231339,3.9862955 6.9450133,3.1256822 5.8768981,3.1532959 Z m 0.030489,1.4216187 a 0.47400334,0.47400334 0 0 1 0.4935101,0.473356 0.47400334,0.47400334 0 0 1 -0.4733562,0.473873 0.47400334,0.47400334 0 0 1 -0.020154,-0.947229 z"
     id="path1015"
     inkscape:connector-curvature="0" />
  <path
     inkscape:connector-curvature="0"
     id="path1018"
     d="M 1.0662544,1.703607 H 1.4911778 V 3.4033022 H 1.0662544 A 0.4249239,0.4249239 0 0 0 0.6413308,3.8282258 v 0.849848 A 0.4249239,0.4249239 0 0 0 1.0662544,5.1029975 H 3.6157978 A 0.4249239,0.4249239 0 0 0 4.0407222,4.6780738 V 3.8282258 A 0.4249239,0.4249239 0 0 0 3.6157978,3.4033022 H 3.1908742 V 0.4288345 A 0.4249239,0.4249239 0 0 0 2.7659505,0.00391092 H 1.4911778 A 0.4249239,0.4249239 0 0 0 1.111668,0.23841599 L 0.6867445,1.0882641 A 0.4249239,0.4249239 0 0 0 1.0662544,1.703607 Z"
     style="stroke-width:0.02655775;fill:#b1b1b1;fill-opacity:1" />
</svg>
