<?xml version="1.0" encoding="UTF-8" standalone="no"?>
<!-- Created with Inkscape (http://www.inkscape.org/) -->

<svg
   width="32"
   height="32"
   viewBox="0 0 8.4666666 8.4666666"
   version="1.1"
   id="svg8"
   inkscape:version="1.1.1 (3bf5ae0d25, 2021-09-20)"
   sodipodi:docname="cow.svg"
   inkscape:export-filename="D:\RxLab\src\RxOT\After-Effects\Duik\inc\oco\cow.png"
   inkscape:export-xdpi="48"
   inkscape:export-ydpi="48"
   xmlns:inkscape="http://www.inkscape.org/namespaces/inkscape"
   xmlns:sodipodi="http://sodipodi.sourceforge.net/DTD/sodipodi-0.dtd"
   xmlns="http://www.w3.org/2000/svg"
   xmlns:svg="http://www.w3.org/2000/svg"
   xmlns:rdf="http://www.w3.org/1999/02/22-rdf-syntax-ns#"
   xmlns:cc="http://creativecommons.org/ns#"
   xmlns:dc="http://purl.org/dc/elements/1.1/">
  <defs
     id="defs2">
    <inkscape:path-effect
       effect="taper_stroke"
       id="path-effect879"
       is_visible="true"
       stroke_width="1.77"
       attach_start="1e-07"
       end_offset="1.0001633"
       smoothing="0.5"
       jointype="extrapolated"
       miter_limit="100" />
    <inkscape:path-effect
       effect="mirror_symmetry"
       start_point="4.2333333,0"
       end_point="4.2333333,8.4666667"
       center_point="4.2333333,4.2333333"
       id="path-effect897"
       is_visible="true"
       mode="vertical"
       discard_orig_path="false"
       fuse_paths="false"
       oposite_fuse="false" />
    <inkscape:path-effect
       effect="mirror_symmetry"
       start_point="4.2328811,1.6730093"
       end_point="4.2328811,6.1768975"
       center_point="4.2328811,3.9249534"
       id="path-effect862"
       is_visible="true"
       mode="free"
       discard_orig_path="false"
       fuse_paths="false"
       oposite_fuse="false" />
    <inkscape:path-effect
       effect="mirror_symmetry"
       start_point="4.2333333,0"
       end_point="4.2333333,8.4666667"
       center_point="4.2333333,4.2333333"
       id="path-effect858"
       is_visible="true"
       mode="vertical"
       discard_orig_path="false"
       fuse_paths="false"
       oposite_fuse="false" />
    <inkscape:path-effect
       effect="mirror_symmetry"
       start_point="4.2333333,0"
       end_point="4.2333333,8.4666667"
       center_point="4.2333333,4.2333333"
       id="path-effect854"
       is_visible="true"
       mode="vertical"
       discard_orig_path="false"
       fuse_paths="false"
       oposite_fuse="false" />
    <style
       id="style1399">.cls-1{fill:#e3e3e3;}</style>
    <style
       id="style1399-4">.cls-1{fill:#e3e3e3;}</style>
    <style
       id="style1399-8">.cls-1{fill:#e3e3e3;}</style>
    <style
       id="style1399-4-5">.cls-1{fill:#e3e3e3;}</style>
    <inkscape:path-effect
       oposite_fuse="false"
       fuse_paths="false"
       discard_orig_path="false"
       mode="vertical"
       is_visible="true"
       id="path-effect897-3"
       center_point="4.2333333,4.2333333"
       end_point="4.2333333,8.4666667"
       start_point="4.2333333,0"
       effect="mirror_symmetry" />
    <inkscape:path-effect
       oposite_fuse="false"
       fuse_paths="false"
       discard_orig_path="false"
       mode="free"
       is_visible="true"
       id="path-effect862-8"
       center_point="4.2328811,3.9249534"
       end_point="4.2328811,6.1768975"
       start_point="4.2328811,1.6730093"
       effect="mirror_symmetry" />
    <inkscape:path-effect
       oposite_fuse="false"
       fuse_paths="false"
       discard_orig_path="false"
       mode="vertical"
       is_visible="true"
       id="path-effect858-5"
       center_point="4.2333333,4.2333333"
       end_point="4.2333333,8.4666667"
       start_point="4.2333333,0"
       effect="mirror_symmetry" />
    <inkscape:path-effect
       oposite_fuse="false"
       fuse_paths="false"
       discard_orig_path="false"
       mode="vertical"
       is_visible="true"
       id="path-effect854-6"
       center_point="4.2333333,4.2333333"
       end_point="4.2333333,8.4666667"
       start_point="4.2333333,0"
       effect="mirror_symmetry" />
    <style
       id="style1399-1">.cls-1{fill:#e3e3e3;}</style>
    <style
       id="style1399-4-1">.cls-1{fill:#e3e3e3;}</style>
    <style
       id="style1399-8-5">.cls-1{fill:#e3e3e3;}</style>
    <style
       id="style1399-4-5-9">.cls-1{fill:#e3e3e3;}</style>
  </defs>
  <sodipodi:namedview
     id="base"
     pagecolor="#ffffff"
     bordercolor="#666666"
     borderopacity="1.0"
     inkscape:pageopacity="0.0"
     inkscape:pageshadow="2"
     inkscape:zoom="16.000001"
     inkscape:cx="12.906249"
     inkscape:cy="11.374999"
     inkscape:document-units="mm"
     inkscape:current-layer="svg8"
     showgrid="false"
     units="px"
     inkscape:window-width="1706"
     inkscape:window-height="1168"
     inkscape:window-x="1481"
     inkscape:window-y="103"
     inkscape:window-maximized="0"
     inkscape:pagecheckerboard="0">
    <sodipodi:guide
       position="8.4666666,0"
       orientation="-32,0"
       id="guide854"
       inkscape:locked="false" />
    <sodipodi:guide
       position="0,8.4666814"
       orientation="0,-32"
       id="guide856"
       inkscape:locked="false" />
    <sodipodi:guide
       position="0,8.4666814"
       orientation="32,0"
       id="guide858"
       inkscape:locked="false" />
  </sodipodi:namedview>
  <metadata
     id="metadata5">
    <rdf:RDF>
      <cc:Work
         rdf:about="">
        <dc:format>image/svg+xml</dc:format>
        <dc:type
           rdf:resource="http://purl.org/dc/dcmitype/StillImage" />
      </cc:Work>
    </rdf:RDF>
  </metadata>
  <path
     id="path3417"
     style="fill:#b1b1b1;fill-opacity:1;stroke:none;stroke-width:0.999999px;stroke-linecap:butt;stroke-linejoin:miter;stroke-opacity:1"
     d="M 3.4570312 1.5117188 C 4.4281678 4.2911349 5.934124 6.1990264 8.5410156 7.2910156 C 8.3460264 7.5387737 8.1641002 7.7956077 7.9980469 8.0625 L 0 8.0625 C 0 8.0625 1.2895204 13.4372 6.8105469 11.675781 C 6.7821924 12.074229 6.7852857 12.479747 6.8203125 12.892578 L 7.6582031 22.78125 C 7.0841274 23.621005 6.75 24.637956 6.75 25.736328 L 6.75 25.970703 C 6.75 28.868343 9.0828286 31.201172 11.980469 31.201172 L 20.019531 31.201172 C 22.917171 31.201172 25.25 28.868343 25.25 25.970703 L 25.25 25.736328 C 25.25 24.637956 24.915873 23.621005 24.341797 22.78125 L 25.179688 12.892578 C 25.214709 12.479747 25.217808 12.074229 25.189453 11.675781 C 30.71048 13.4372 32 8.0625 32 8.0625 L 24.001953 8.0625 C 23.8359 7.7956077 23.653974 7.5387737 23.458984 7.2910156 C 26.065876 6.1990264 27.571832 4.2911349 28.542969 1.5117188 C 25.922622 3.5682348 22.154009 4.1916178 19.431641 4.3515625 C 18.356724 3.9393907 17.193535 3.7128906 16 3.7128906 C 14.806465 3.7128906 13.643276 3.9393907 12.568359 4.3515625 C 9.8459932 4.1916178 6.0773776 3.5682348 3.4570312 1.5117188 z M 10.974609 11.992188 A 1.8119611 1.8119611 0 0 1 12.787109 13.804688 A 1.8119611 1.8119611 0 0 1 10.974609 15.617188 A 1.8119611 1.8119611 0 0 1 9.1621094 13.804688 A 1.8119611 1.8119611 0 0 1 10.974609 11.992188 z M 21.511719 11.992188 A 1.8119611 1.8119611 0 0 1 23.322266 13.804688 A 1.8119611 1.8119611 0 0 1 21.511719 15.617188 A 1.8119611 1.8119611 0 0 1 19.699219 13.804688 A 1.8119611 1.8119611 0 0 1 21.511719 11.992188 z M 12.699219 21.537109 C 12.717436 21.53688 12.735633 21.537109 12.753906 21.537109 L 19.246094 21.537109 C 21.585076 21.537109 23.466797 23.420783 23.466797 25.759766 L 23.466797 25.947266 C 23.466797 28.286248 21.585076 30.169922 19.246094 30.169922 L 12.753906 30.169922 C 10.414924 30.169922 8.5332031 28.286248 8.5332031 25.947266 L 8.5332031 25.759766 C 8.5332031 23.439056 10.385685 21.566225 12.699219 21.537109 z M 11.976562 24.566406 A 1.2880827 1.2880827 0 0 0 10.689453 25.853516 A 1.2880827 1.2880827 0 0 0 11.976562 27.142578 A 1.2880827 1.2880827 0 0 0 13.265625 25.853516 A 1.2880827 1.2880827 0 0 0 11.976562 24.566406 z M 20.167969 24.566406 A 1.2880827 1.2880827 0 0 0 18.880859 25.853516 A 1.2880827 1.2880827 0 0 0 20.167969 27.142578 A 1.2880827 1.2880827 0 0 0 21.457031 25.853516 A 1.2880827 1.2880827 0 0 0 20.167969 24.566406 z "
     transform="scale(0.26458333)" />
</svg>
