<?xml version="1.0" encoding="UTF-8" standalone="no"?>
<!-- Created with Inkscape (http://www.inkscape.org/) -->

<svg
   width="32"
   height="32"
   viewBox="0 0 8.4666666 8.4666666"
   version="1.1"
   id="svg8"
   inkscape:version="1.1.1 (3bf5ae0d25, 2021-09-20)"
   sodipodi:docname="dialog.svg"
   xmlns:inkscape="http://www.inkscape.org/namespaces/inkscape"
   xmlns:sodipodi="http://sodipodi.sourceforge.net/DTD/sodipodi-0.dtd"
   xmlns="http://www.w3.org/2000/svg"
   xmlns:svg="http://www.w3.org/2000/svg"
   xmlns:rdf="http://www.w3.org/1999/02/22-rdf-syntax-ns#"
   xmlns:cc="http://creativecommons.org/ns#"
   xmlns:dc="http://purl.org/dc/elements/1.1/">
  <defs
     id="defs2" />
  <sodipodi:namedview
     id="base"
     pagecolor="#ffffff"
     bordercolor="#666666"
     borderopacity="1.0"
     inkscape:pageopacity="0.0"
     inkscape:pageshadow="2"
     inkscape:zoom="11.313709"
     inkscape:cx="-12.595339"
     inkscape:cy="11.092737"
     inkscape:document-units="mm"
     inkscape:current-layer="layer1"
     showgrid="false"
     units="px"
     inkscape:window-width="3440"
     inkscape:window-height="1369"
     inkscape:window-x="-8"
     inkscape:window-y="-8"
     inkscape:window-maximized="1"
     inkscape:pagecheckerboard="0"
     inkscape:object-paths="true"
     inkscape:snap-intersection-paths="true"
     inkscape:snap-nodes="false"
     inkscape:snap-bbox="true"
     inkscape:bbox-paths="true"
     inkscape:bbox-nodes="true"
     inkscape:snap-bbox-edge-midpoints="true"
     inkscape:snap-bbox-midpoints="true" />
  <metadata
     id="metadata5">
    <rdf:RDF>
      <cc:Work
         rdf:about="">
        <dc:format>image/svg+xml</dc:format>
        <dc:type
           rdf:resource="http://purl.org/dc/dcmitype/StillImage" />
        <dc:title />
      </cc:Work>
    </rdf:RDF>
  </metadata>
  <g
     inkscape:label="Layer 1"
     inkscape:groupmode="layer"
     id="layer1"
     transform="translate(0,-288.53334)">
    <path
       style="fill:#b1b1b1;fill-opacity:1;stroke-width:0.0164799"
       d="m 1.0881276,288.53334 c -0.58173933,0 -1.05453792,0.4728 -1.05453792,1.05454 v 4.7462 c 0,0.58173 0.47279859,1.05505 1.05453792,1.05505 h 1.582066 v 1.38412 c 0,0.1615 0.1848748,0.2557 0.3150658,0.16012 l 2.0582924,-1.54424 h 2.3728398 c 0.5817392,0 1.0545378,-0.47332 1.0545378,-1.05505 v -4.7462 c 0,-0.58174 -0.4727986,-1.05454 -1.0545378,-1.05454 z m 1.3696038,1.10999 h 3.5279087 c 0.1168984,0 0.211944,0.095 0.211944,0.21194 v 0.56432 c 0,0.1169 -0.095047,0.21194 -0.211944,0.21194 H 2.4577314 c -0.1168984,0 -0.2114258,-0.095 -0.2114258,-0.21194 v -0.56432 c 0,-0.1169 0.094529,-0.21194 0.2114258,-0.21194 z m 0,1.69347 h 3.5279087 c 0.1168984,0 0.211944,0.095 0.211944,0.21195 v 0.56432 c 0,0.11691 -0.095047,0.21142 -0.211944,0.21142 H 2.4577314 c -0.1168984,0 -0.2114258,-0.0945 -0.2114258,-0.21142 v -0.56432 c 0,-0.11691 0.094529,-0.21195 0.2114258,-0.21195 z m 0,1.69348 h 3.5279087 c 0.1168984,0 0.211944,0.0945 0.211944,0.21143 v 0.56484 c 0,0.1169 -0.095047,0.21142 -0.211944,0.21142 H 2.4577314 c -0.1168984,0 -0.2114258,-0.0945 -0.2114258,-0.21142 v -0.56484 c 0,-0.1169 0.094529,-0.21143 0.2114258,-0.21143 z"
       id="path1110"
       inkscape:connector-curvature="0" />
  </g>
</svg>
