<?xml version="1.0" encoding="UTF-8" standalone="no"?>
<!-- Created with Inkscape (http://www.inkscape.org/) -->

<svg
   width="32"
   height="32"
   viewBox="0 0 8.4666666 8.4666666"
   version="1.1"
   id="svg8"
   inkscape:version="1.1 (c68e22c387, 2021-05-23)"
   sodipodi:docname="expression_file.svg"
   inkscape:export-filename="D:\RxLab\Src\RxOT\DuAEF\Duik\inc\icons\w12\w12_expression_file.png"
   inkscape:export-xdpi="36"
   inkscape:export-ydpi="36"
   xmlns:inkscape="http://www.inkscape.org/namespaces/inkscape"
   xmlns:sodipodi="http://sodipodi.sourceforge.net/DTD/sodipodi-0.dtd"
   xmlns="http://www.w3.org/2000/svg"
   xmlns:svg="http://www.w3.org/2000/svg"
   xmlns:rdf="http://www.w3.org/1999/02/22-rdf-syntax-ns#"
   xmlns:cc="http://creativecommons.org/ns#"
   xmlns:dc="http://purl.org/dc/elements/1.1/">
  <defs
     id="defs2">
    <style
       id="style1399">.cls-1{fill:#e3e3e3;}</style>
  </defs>
  <sodipodi:namedview
     id="base"
     pagecolor="#ffffff"
     bordercolor="#666666"
     borderopacity="1.0"
     inkscape:pageopacity="0.0"
     inkscape:pageshadow="2"
     inkscape:zoom="16"
     inkscape:cx="32.53125"
     inkscape:cy="18.21875"
     inkscape:document-units="mm"
     inkscape:current-layer="svg8"
     showgrid="false"
     units="px"
     inkscape:window-width="1920"
     inkscape:window-height="1027"
     inkscape:window-x="-8"
     inkscape:window-y="-8"
     inkscape:window-maximized="1"
     inkscape:pagecheckerboard="1">
    <sodipodi:guide
       position="8.4666666,0"
       orientation="-32,0"
       id="guide854"
       inkscape:locked="false" />
    <sodipodi:guide
       position="8.4666666,8.4666666"
       orientation="0,-32"
       id="guide856"
       inkscape:locked="false" />
    <sodipodi:guide
       position="0,8.4666814"
       orientation="32,0"
       id="guide858"
       inkscape:locked="false" />
  </sodipodi:namedview>
  <metadata
     id="metadata5">
    <rdf:RDF>
      <cc:Work
         rdf:about="">
        <dc:format>image/svg+xml</dc:format>
        <dc:type
           rdf:resource="http://purl.org/dc/dcmitype/StillImage" />
      </cc:Work>
    </rdf:RDF>
  </metadata>
  <path
     id="path1112"
     style="fill:#b1b1b1;fill-opacity:1;stroke-width:0.0828779"
     d="m 2.0761719,0.05078125 c -1.10227278,0 -1.98828128,0.88797288 -1.98828128,1.99023435 V 30.009765 C 0.08789062,31.112027 0.97389912,32 2.0761719,32 H 30.001168 c 1.102272,0 1.988281,-0.887973 1.988281,-1.990235 V 10.154297 c 0,-0.5221419 -0.207129,-1.0273514 -0.580078,-1.4003908 L 23.21875,0.63085938 C 22.8458,0.25744205 22.340964,0.05078125 21.810547,0.05078125 Z M 13.035156,7.9003906 c 0.280004,0 0.475877,0.085721 0.587891,0.2617188 0.112002,0.1679985 0.167969,0.5000988 0.167969,0.9960937 0,0.3679967 -0.02427,0.6460794 -0.07227,0.8300781 -0.048,0.1839988 -0.126279,0.3070948 -0.238281,0.3710938 -0.103996,0.06397 -0.253313,0.0957 -0.445313,0.0957 -0.735993,0 -1.312519,0.07652 -1.728515,0.228516 -0.415996,0.151998 -0.716392,0.387034 -0.900391,0.707031 -0.175997,0.311997 -0.261719,0.737443 -0.261719,1.273437 0,0.144 0.0037,0.255937 0.01172,0.335938 l 0.05859,1.162109 0.01172,0.3125 c 0,0.839992 -0.214488,1.535896 -0.6464839,2.087891 -0.4319958,0.543994 -1.1410094,0.95633 -2.125,1.236328 v 0.121094 c 0.9839906,0.271997 1.6967825,0.684331 2.1367188,1.236328 0.4479961,0.551994 0.6699221,1.23479 0.6699221,2.050781 0,0.159999 -0.0037,0.279378 -0.01172,0.359375 l -0.105469,1.572266 c -0.008,0.096 -0.01172,0.239644 -0.01172,0.43164 1e-6,0.535996 0.08944,0.96516 0.273438,1.285157 0.183999,0.319997 0.488113,0.555032 0.912109,0.707031 0.423996,0.159999 0.996805,0.240234 1.716797,0.240234 0.191994,0 0.341311,0.02798 0.445313,0.08398 0.111991,0.064 0.190281,0.187095 0.238281,0.371093 0.04802,0.184 0.07227,0.462085 0.07227,0.830079 0,0.495995 -0.05597,0.829862 -0.167969,1.005859 -0.111998,0.175997 -0.307888,0.265625 -0.587891,0.265625 -2.007978,0 -3.4949001,-0.356366 -4.4628904,-1.068359 -0.9679891,-0.703989 -1.453125,-1.801078 -1.453125,-3.289063 0,-0.231998 0.013109,-0.470752 0.037109,-0.71875 L 7.3125,21.566406 c 0.00801,-0.064 0.011719,-0.159112 0.011719,-0.287109 0,-0.679992 -0.2407085,-1.204272 -0.7207032,-1.572266 -0.472004,-0.375992 -1.1567437,-0.564453 -2.0527344,-0.564453 -0.1919992,0 -0.3393618,-0.0317 -0.4433593,-0.0957 C 4.0034244,18.974869 3.9231888,18.846108 3.8671875,18.662109 3.8191837,18.47811 3.796875,18.209417 3.796875,17.857422 c 0,-0.351999 0.022316,-0.615018 0.070312,-0.791016 0.055994,-0.184002 0.1362369,-0.307095 0.2402344,-0.371094 0.1039967,-0.072 0.2513631,-0.109374 0.4433593,-0.109374 0.8959907,-10e-7 1.5713487,-0.182788 2.0273438,-0.550782 0.4639926,-0.367995 0.6972656,-0.892272 0.6972656,-1.572265 0,-0.128002 -0.00562,-0.228782 -0.013672,-0.300782 l -0.1171876,-1.30664 c -0.024,-0.239998 -0.037109,-0.473272 -0.037109,-0.697266 0,-1.447985 0.4851347,-2.5188504 1.453125,-3.2148436 C 9.5285368,8.2473677 11.019177,7.9003906 13.035156,7.9003906 Z m 5.791016,0 c 2.015979,0 3.508586,0.3469778 4.476562,1.0429688 0.967991,0.6959928 1.451172,1.7668586 1.451172,3.2148436 0,0.223998 -0.01116,0.45727 -0.03516,0.697266 l -0.119141,1.30664 c -0.0081,0.07201 -0.01367,0.172788 -0.01367,0.300782 -10e-7,0.679993 0.227549,1.204267 0.683593,1.572265 0.463995,0.367996 1.145025,0.550782 2.041016,0.550782 0.191994,0 0.339358,0.03737 0.443359,0.109374 0.103998,0.064 0.180508,0.187096 0.228516,0.371094 0.05601,0.175998 0.08398,0.439021 0.08398,0.791016 0,0.351995 -0.02799,0.620689 -0.08398,0.804687 -0.04801,0.183994 -0.124518,0.312766 -0.228516,0.384766 -0.103995,0.06397 -0.251355,0.0957 -0.443359,0.0957 -0.895991,0 -1.584468,0.188458 -2.064453,0.564453 -0.471995,0.367996 -0.708985,0.892274 -0.708985,1.572266 0,0.127997 0.0036,0.223111 0.01172,0.287109 l 0.15625,1.716797 c 0.024,0.247998 0.03711,0.486751 0.03711,0.71875 0,1.487986 -0.483184,2.58507 -1.451172,3.289063 -0.967991,0.711992 -2.456864,1.068359 -4.464844,1.068359 -0.279991,0 -0.475888,-0.08963 -0.587891,-0.265625 -0.112002,-0.175998 -0.167969,-0.509864 -0.167969,-1.005859 10e-7,-0.367997 0.02426,-0.64608 0.07227,-0.830079 0.048,-0.183998 0.12258,-0.307095 0.226563,-0.371093 0.112002,-0.056 0.265035,-0.08398 0.457031,-0.08398 0.719992,0 1.292799,-0.08024 1.716797,-0.240234 0.423995,-0.151998 0.72811,-0.387034 0.912109,-0.707031 0.183999,-0.319997 0.275391,-0.749161 0.275391,-1.285157 0,-0.192002 -0.0036,-0.33564 -0.01172,-0.43164 l -0.107422,-1.572266 c -0.0081,-0.08 -0.01172,-0.199372 -0.01172,-0.359375 0,-0.81599 0.218209,-1.498787 0.658203,-2.050781 0.447996,-0.551994 1.164432,-0.96434 2.148438,-1.236328 v -0.121094 c -0.983876,-0.279997 -1.693025,-0.692335 -2.125,-1.236328 -0.431995,-0.551995 -0.646484,-1.247899 -0.646484,-2.087891 l 0.01172,-0.3125 L 21.707031,13 c 0.0081,-0.08 0.01172,-0.191941 0.01172,-0.335938 0,-0.535994 -0.09139,-0.961441 -0.275391,-1.273437 -0.176002,-0.319999 -0.472676,-0.555038 -0.888671,-0.707031 -0.415996,-0.152002 -0.992522,-0.228516 -1.728516,-0.228516 -0.192003,0 -0.343076,-0.0317 -0.455078,-0.0957 -0.103994,-0.064 -0.180523,-0.187095 -0.228516,-0.3710938 -0.04804,-0.1839972 -0.07227,-0.4620806 -0.07227,-0.8300781 0,-0.4959953 0.05596,-0.8280975 0.167969,-0.9960937 0.112004,-0.1759975 0.3079,-0.2617188 0.587891,-0.2617188 z M 17.402344,13.15625 c 0.695993,0 1.201675,0.05969 1.513672,0.179688 0.311996,0.111999 0.464843,0.302221 0.464843,0.574218 v 2.56836 c 0,0.272 -0.152843,0.467894 -0.464843,0.58789 -0.311997,0.112003 -0.817679,0.167969 -1.513672,0.167969 -0.695993,0 -1.199727,-0.05597 -1.511719,-0.167969 -0.311994,-0.119998 -0.46875,-0.315893 -0.46875,-0.58789 v -2.56836 c 0,-0.271996 0.15675,-0.462216 0.46875,-0.574218 0.311995,-0.120004 0.815726,-0.17969 1.511719,-0.179688 z m -1.056641,6.958984 h 2.917969 c 0.135999,0 0.238543,0.03542 0.310547,0.107422 0.07199,0.07199 0.107422,0.167113 0.107422,0.28711 0,0.12 -0.02798,0.241332 -0.08398,0.361328 l -2.84375,6.443359 c -0.159999,0.383995 -0.583493,0.576172 -1.271484,0.576172 -0.303996,0 -0.544706,-0.05597 -0.720703,-0.167969 -0.168008,-0.111996 -0.25,-0.266799 -0.25,-0.466797 0,-0.072 0.0037,-0.124237 0.01172,-0.15625 l 1.199218,-6.503906 c 0.032,-0.152005 0.101081,-0.267655 0.205078,-0.347656 0.112001,-0.08801 0.249973,-0.132813 0.417969,-0.132813 z"
     transform="scale(0.26458333)"
     sodipodi:nodetypes="sssssssccssscsccsscscccccccsccsscsccssscsccscsccsccscsccsssscsccscsccsccscsccscsssscscssccscccccccsccsccscsscsscscsscssscsccscscccs" />
</svg>
