<?xml version="1.0" encoding="UTF-8" standalone="no"?>
<!-- Created with Inkscape (http://www.inkscape.org/) -->

<svg
   width="32"
   height="32"
   viewBox="0 0 8.4666666 8.4666666"
   version="1.1"
   id="svg8"
   inkscape:version="1.1.1 (3bf5ae0d25, 2021-09-20)"
   sodipodi:docname="frame.svg"
   xmlns:inkscape="http://www.inkscape.org/namespaces/inkscape"
   xmlns:sodipodi="http://sodipodi.sourceforge.net/DTD/sodipodi-0.dtd"
   xmlns="http://www.w3.org/2000/svg"
   xmlns:svg="http://www.w3.org/2000/svg"
   xmlns:rdf="http://www.w3.org/1999/02/22-rdf-syntax-ns#"
   xmlns:cc="http://creativecommons.org/ns#"
   xmlns:dc="http://purl.org/dc/elements/1.1/">
  <defs
     id="defs2" />
  <sodipodi:namedview
     id="base"
     pagecolor="#ffffff"
     bordercolor="#666666"
     borderopacity="1.0"
     inkscape:pageopacity="0.0"
     inkscape:pageshadow="2"
     inkscape:zoom="22.627417"
     inkscape:cx="19.26866"
     inkscape:cy="16.948466"
     inkscape:document-units="mm"
     inkscape:current-layer="svg8"
     showgrid="false"
     units="px"
     inkscape:window-width="3378"
     inkscape:window-height="1417"
     inkscape:window-x="1974"
     inkscape:window-y="-8"
     inkscape:window-maximized="1"
     inkscape:pagecheckerboard="0"
     inkscape:snap-global="true"
     inkscape:snap-bbox="true"
     inkscape:bbox-paths="true"
     inkscape:bbox-nodes="true"
     inkscape:snap-bbox-edge-midpoints="true"
     inkscape:snap-bbox-midpoints="true"
     inkscape:snap-nodes="false">
    <sodipodi:guide
       position="8.4666666,0"
       orientation="-32,0"
       id="guide854"
       inkscape:locked="false" />
    <sodipodi:guide
       position="8.4666666,8.4666666"
       orientation="0,-32"
       id="guide856"
       inkscape:locked="false" />
    <sodipodi:guide
       position="0,8.4666814"
       orientation="32,0"
       id="guide858"
       inkscape:locked="false" />
  </sodipodi:namedview>
  <metadata
     id="metadata5">
    <rdf:RDF>
      <cc:Work
         rdf:about="">
        <dc:format>image/svg+xml</dc:format>
        <dc:type
           rdf:resource="http://purl.org/dc/dcmitype/StillImage" />
      </cc:Work>
    </rdf:RDF>
  </metadata>
  <path
     id="path815"
     style="fill:#b1b1b1;fill-opacity:1;stroke-width:0.0441411"
     d="M 1.9453125 0 C 0.8680354 0 -1.1842379e-15 0.8680354 0 1.9453125 L 0 4.6621094 L 0 6.0332031 L 0 25.958984 L 0 26.185547 L 0 30.046875 C 0 31.124152 0.8680354 31.992188 1.9453125 31.992188 L 30.054688 31.992188 C 31.131963 31.992188 32 31.124152 32 30.046875 C 32.02914 28.704592 32.018105 27.328923 32.019531 25.958984 L 32 25.958984 L 32 6.0332031 L 32.019531 6.0332031 C 32.018105 4.6632643 32.029149 3.2875952 32 1.9453125 C 32 0.8680354 31.13196 -1.1842379e-15 30.054688 0 L 1.9453125 0 z M 1.8789062 6.0332031 L 30.121094 6.0332031 L 30.121094 25.958984 L 1.8789062 25.958984 L 1.8789062 6.0332031 z M 16 13.527344 C 14.634807 13.527344 13.527344 14.634807 13.527344 16 C 13.527344 17.365194 14.634807 18.472656 16 18.472656 C 17.365194 18.472656 18.472656 17.365194 18.472656 16 C 18.472656 14.634807 17.365194 13.527344 16 13.527344 z "
     transform="scale(0.26458333)"
     inkscape:export-filename="D:\RxLab\src\RxOT\DuAEF_Duik\icons\w12\w12_frame.png"
     inkscape:export-xdpi="36.008793"
     inkscape:export-ydpi="36.008793" />
</svg>
