<?xml version="1.0" encoding="UTF-8" standalone="no"?>
<!-- Created with Inkscape (http://www.inkscape.org/) -->

<svg
   width="32"
   height="32"
   viewBox="0 0 8.4666666 8.4666666"
   version="1.1"
   id="svg8"
   inkscape:version="1.1 (c68e22c387, 2021-05-23)"
   sodipodi:docname="head.svg"
   inkscape:export-filename="D:\DEV_SRC\RxOT\DuAEF\DuAEF_Duik\icons/w16\w16_head.png"
   inkscape:export-xdpi="48"
   inkscape:export-ydpi="48"
   xmlns:inkscape="http://www.inkscape.org/namespaces/inkscape"
   xmlns:sodipodi="http://sodipodi.sourceforge.net/DTD/sodipodi-0.dtd"
   xmlns="http://www.w3.org/2000/svg"
   xmlns:svg="http://www.w3.org/2000/svg"
   xmlns:rdf="http://www.w3.org/1999/02/22-rdf-syntax-ns#"
   xmlns:cc="http://creativecommons.org/ns#"
   xmlns:dc="http://purl.org/dc/elements/1.1/">
  <defs
     id="defs2">
    <style
       id="style1399">.cls-1{fill:#e3e3e3;}</style>
    <style
       id="style1399-4">.cls-1{fill:#e3e3e3;}</style>
    <style
       id="style1399-8">.cls-1{fill:#e3e3e3;}</style>
    <style
       id="style1399-4-5">.cls-1{fill:#e3e3e3;}</style>
    <style
       id="style1399-0">.cls-1{fill:#e3e3e3;}</style>
    <style
       id="style854">.cls-1{fill:#e3e3e3;}</style>
    <style
       id="style1399-84">.cls-1{fill:#e3e3e3;}</style>
    <style
       id="style1399-4-8">.cls-1{fill:#e3e3e3;}</style>
    <style
       id="style1399-8-10">.cls-1{fill:#e3e3e3;}</style>
    <style
       id="style1399-4-5-3">.cls-1{fill:#e3e3e3;}</style>
    <style
       id="style1399-0-0">.cls-1{fill:#e3e3e3;}</style>
    <style
       id="style1399-5">.cls-1{fill:#e3e3e3;}</style>
    <style
       id="style1399-4-6">.cls-1{fill:#e3e3e3;}</style>
    <style
       id="style1399-8-1">.cls-1{fill:#e3e3e3;}</style>
    <style
       id="style1399-4-5-1">.cls-1{fill:#e3e3e3;}</style>
    <style
       id="style1399-0-5">.cls-1{fill:#e3e3e3;}</style>
    <style
       id="style1257">.cls-1{fill:#e3e3e3;}</style>
    <style
       id="style836">.cls-1{fill:#e3e3e3;}</style>
    <style
       id="style891">.cls-1{fill:#e3e3e3;}</style>
  </defs>
  <sodipodi:namedview
     id="base"
     pagecolor="#ffffff"
     bordercolor="#666666"
     borderopacity="1.0"
     inkscape:pageopacity="0.0"
     inkscape:pageshadow="2"
     inkscape:zoom="7.9999996"
     inkscape:cx="-0.81250004"
     inkscape:cy="8.8125004"
     inkscape:document-units="mm"
     inkscape:current-layer="svg8"
     showgrid="false"
     units="px"
     inkscape:window-width="1920"
     inkscape:window-height="1027"
     inkscape:window-x="-8"
     inkscape:window-y="-8"
     inkscape:window-maximized="1"
     inkscape:snap-bbox="true"
     inkscape:bbox-paths="true"
     inkscape:bbox-nodes="true"
     inkscape:snap-bbox-edge-midpoints="true"
     inkscape:snap-bbox-midpoints="true"
     inkscape:snap-nodes="true"
     inkscape:snap-others="true"
     inkscape:snap-object-midpoints="true"
     inkscape:snap-page="true"
     inkscape:pagecheckerboard="1">
    <sodipodi:guide
       position="8.4666666,0"
       orientation="-32,0"
       id="guide854"
       inkscape:locked="false" />
    <sodipodi:guide
       position="8.4666666,8.4666666"
       orientation="0,-32"
       id="guide856"
       inkscape:locked="false" />
    <sodipodi:guide
       position="0,8.4666814"
       orientation="32,0"
       id="guide858"
       inkscape:locked="false" />
  </sodipodi:namedview>
  <metadata
     id="metadata5">
    <rdf:RDF>
      <cc:Work
         rdf:about="">
        <dc:format>image/svg+xml</dc:format>
        <dc:type
           rdf:resource="http://purl.org/dc/dcmitype/StillImage" />
        <dc:title />
      </cc:Work>
    </rdf:RDF>
  </metadata>
  <g
     id="g909"
     transform="matrix(0.34543665,0,0,0.34543665,-1.3817466,-1.4819232)"
     style="fill:#b1b1b1;fill-opacity:1">
    <path
       id="path897"
       d="m 28,23.35 -0.17,-0.73 a 14,14 0 0 1 -3.57,1.11 13.4,13.4 0 0 1 -2.33,0.2 H 21.6 A 13,13 0 0 1 17,23 l 0.48,1.46 0.05,0.15 a 0.49,0.49 0 0 0 0.31,0.32 l 2,0.68 a 0.55,0.55 0 0 1 0.38,0.59 0.54,0.54 0 0 1 -0.54,0.48 h -0.17 l -2,-0.7 a 1.57,1.57 0 0 1 -1,-1 l -1.85,-5.61 a 1.39,1.39 0 0 0 -0.5,-0.63 1.48,1.48 0 0 0 -0.82,-0.26 1.65,1.65 0 0 0 -0.32,0 1.45,1.45 0 0 0 -0.91,0.68 1.42,1.42 0 0 0 -0.16,1 l 1.87,5.64 a 4.51,4.51 0 0 0 4.24,3 h 7.7 v 0 a 2,2 0 0 0 1.47,-0.63 2,2 0 0 0 0.15,-2.43 v 0 a 0.72,0.72 0 0 1 0.14,-1 1.43,1.43 0 0 0 0.48,-1.39 z"
       class="cls-1"
       inkscape:connector-curvature="0"
       style="fill:#b1b1b1;fill-opacity:1" />
    <path
       id="path899"
       d="m 12.47,17 a 2.54,2.54 0 0 1 0.61,-0.07 3.14,3.14 0 0 1 1.83,0.61 2.77,2.77 0 0 1 0.86,0.94 v 0 A 2.58,2.58 0 0 1 16,19 l 0.69,2.11 a 11.22,11.22 0 0 0 5.23,1.32 11.65,11.65 0 0 0 5.61,-1.48 l -0.1,-0.4 a 1.43,1.43 0 0 0 -1.21,-1.1 h -0.25 a 0.36,0.36 0 0 1 -0.3,-0.27 c 0,-0.11 0.64,-2.49 1,-3.77 A 1.29,1.29 0 0 0 26.25,14 L 26.1,13.88 25.75,13.56 c 0,-0.12 0,-0.24 0,-0.35 0,-6.34 -3.69,-8.92 -10,-8.92 H 14.56 C 8.2,4.65 4,10 4,17.21 c 0,4 2.62,4.76 7,4.91 l -0.56,-1.87 a 2.7,2.7 0 0 1 0.33,-2 2.53,2.53 0 0 1 1.7,-1.25 z M 21,12.78 c 1.95,0 3.07,1.59 3.07,3.54 0,1.95 -1.17,3.53 -3.07,3.53 a 3.54,3.54 0 1 1 0,-7.07 z"
       class="cls-1"
       inkscape:connector-curvature="0"
       style="fill:#b1b1b1;fill-opacity:1" />
  </g>
</svg>
