<?xml version="1.0" encoding="UTF-8" standalone="no"?>
<svg
   xmlns:dc="http://purl.org/dc/elements/1.1/"
   xmlns:cc="http://creativecommons.org/ns#"
   xmlns:rdf="http://www.w3.org/1999/02/22-rdf-syntax-ns#"
   xmlns:svg="http://www.w3.org/2000/svg"
   xmlns="http://www.w3.org/2000/svg"
   xmlns:sodipodi="http://sodipodi.sourceforge.net/DTD/sodipodi-0.dtd"
   xmlns:inkscape="http://www.inkscape.org/namespaces/inkscape"
   width="32"
   height="32"
   viewBox="0 0 8.4666666 8.4666666"
   version="1.1"
   id="svg8"
   inkscape:version="1.0.2-2 (e86c870879, 2021-01-15)"
   sodipodi:docname="home.svg">
  <defs
     id="defs2">
    <style
       id="style857">.cls-1{fill:#e52120;}.cls-1,.cls-2,.cls-3,.cls-4,.cls-5{stroke:#000;stroke-miterlimit:10;stroke-width:1.2px;}.cls-2{fill:#6dbc88;}.cls-3{fill:#701034;}.cls-4{fill:#51aae0;}.cls-5{fill:none;}</style>
  </defs>
  <sodipodi:namedview
     id="base"
     pagecolor="#ffffff"
     bordercolor="#666666"
     borderopacity="1.0"
     inkscape:pageopacity="0.0"
     inkscape:pageshadow="2"
     inkscape:zoom="5.6568543"
     inkscape:cx="-5.3863292"
     inkscape:cy="22.51539"
     inkscape:document-units="mm"
     inkscape:current-layer="svg8"
     showgrid="false"
     units="px"
     inkscape:window-width="3440"
     inkscape:window-height="1417"
     inkscape:window-x="1915"
     inkscape:window-y="-8"
     inkscape:window-maximized="1"
     inkscape:document-rotation="0"
     inkscape:snap-nodes="false"
     inkscape:snap-bbox="true"
     inkscape:bbox-nodes="true"
     inkscape:snap-bbox-edge-midpoints="true"
     inkscape:snap-bbox-midpoints="true"
     inkscape:bbox-paths="true">
    <sodipodi:guide
       position="8.4666666,0"
       orientation="-32,0"
       id="guide854"
       inkscape:locked="false" />
    <sodipodi:guide
       position="8.4666666,8.4666666"
       orientation="0,-32"
       id="guide856"
       inkscape:locked="false" />
    <sodipodi:guide
       position="0,8.4666814"
       orientation="32,0"
       id="guide858"
       inkscape:locked="false" />
  </sodipodi:namedview>
  <metadata
     id="metadata5">
    <rdf:RDF>
      <cc:Work
         rdf:about="">
        <dc:format>image/svg+xml</dc:format>
        <dc:type
           rdf:resource="http://purl.org/dc/dcmitype/StillImage" />
        <dc:title />
      </cc:Work>
    </rdf:RDF>
  </metadata>
  <style
     type="text/css"
     id="style815">
	.st0{fill:#00005B;}
	.st1{fill:#9999FF;}
</style>
  <path
     d="M 4.1210807,2.7370354 1.4112215,4.9689172 v 2.4088459 a 0.23516703,0.23516703 0 0 0 0.2351667,0.2351667 l 1.6470511,-0.00428 A 0.23516703,0.23516703 0 0 0 3.5274308,7.3734787 V 5.9667374 A 0.23516703,0.23516703 0 0 1 3.7625981,5.7315701 H 4.703266 A 0.23516703,0.23516703 0 0 1 4.9384327,5.9667374 V 7.372448 a 0.23516703,0.23516703 0 0 0 0.2351675,0.2359024 l 1.6464634,0.00453 A 0.23516703,0.23516703 0 0 0 7.0552302,7.3777129 V 4.9672506 L 4.3459592,2.7369852 a 0.17916788,0.17916788 0 0 0 -0.2248785,0 z M 8.4015613,4.2540099 7.1728142,3.2411746 V 1.205363 A 0.17637527,0.17637527 0 0 0 6.9964389,1.0289877 H 6.1733537 A 0.17637527,0.17637527 0 0 0 5.9969785,1.205363 V 2.2725803 L 4.6810721,1.1899299 a 0.70550111,0.70550111 0 0 0 -0.8965745,0 l -3.72048913,3.06408 A 0.17637527,0.17637527 0 0 0 0.04049315,4.502405 l 0.37479699,0.4556359 a 0.17637527,0.17637527 0 0 0 0.24854203,0.023956 L 4.1210819,2.1344177 a 0.17916788,0.17916788 0 0 1 0.2248786,0 l 3.457396,2.8475792 A 0.17637527,0.17637527 0 0 0 8.0517516,4.9584816 L 8.4265492,4.5028456 A 0.17637527,0.17637527 0 0 0 8.401565,4.2540099 Z"
     id="path835"
     style="stroke-width:0.0146979;fill:#b1b1b1;fill-opacity:1" />
</svg>
