<?xml version="1.0" encoding="UTF-8" standalone="no"?>
<!-- Created with Inkscape (http://www.inkscape.org/) -->

<svg
   width="32"
   height="32"
   viewBox="0 0 8.4666666 8.4666666"
   version="1.1"
   id="svg8"
   inkscape:version="1.1.1 (3bf5ae0d25, 2021-09-20)"
   sodipodi:docname="import.svg"
   inkscape:export-filename="D:\RxLab\src\RxOT\After-Effects\Duik\inc\icons\w12\w12_import.png"
   inkscape:export-xdpi="36"
   inkscape:export-ydpi="36"
   xmlns:inkscape="http://www.inkscape.org/namespaces/inkscape"
   xmlns:sodipodi="http://sodipodi.sourceforge.net/DTD/sodipodi-0.dtd"
   xmlns="http://www.w3.org/2000/svg"
   xmlns:svg="http://www.w3.org/2000/svg"
   xmlns:rdf="http://www.w3.org/1999/02/22-rdf-syntax-ns#"
   xmlns:cc="http://creativecommons.org/ns#"
   xmlns:dc="http://purl.org/dc/elements/1.1/">
  <defs
     id="defs2" />
  <sodipodi:namedview
     id="base"
     pagecolor="#ffffff"
     bordercolor="#666666"
     borderopacity="1.0"
     inkscape:pageopacity="0.0"
     inkscape:pageshadow="2"
     inkscape:zoom="8.9218534"
     inkscape:cx="12.66553"
     inkscape:cy="14.627006"
     inkscape:document-units="mm"
     inkscape:current-layer="svg8"
     showgrid="false"
     units="px"
     inkscape:window-width="1287"
     inkscape:window-height="1081"
     inkscape:window-x="1436"
     inkscape:window-y="67"
     inkscape:window-maximized="0"
     inkscape:pagecheckerboard="0"
     inkscape:object-paths="true"
     inkscape:snap-intersection-paths="true"
     inkscape:snap-smooth-nodes="true"
     inkscape:snap-midpoints="true"
     inkscape:snap-global="true">
    <sodipodi:guide
       position="8.4666666,0"
       orientation="-32,0"
       id="guide854"
       inkscape:locked="false" />
    <sodipodi:guide
       position="8.4666666,8.4666666"
       orientation="0,-32"
       id="guide856"
       inkscape:locked="false" />
    <sodipodi:guide
       position="0,8.4666814"
       orientation="32,0"
       id="guide858"
       inkscape:locked="false" />
  </sodipodi:namedview>
  <metadata
     id="metadata5">
    <rdf:RDF>
      <cc:Work
         rdf:about="">
        <dc:format>image/svg+xml</dc:format>
        <dc:type
           rdf:resource="http://purl.org/dc/dcmitype/StillImage" />
      </cc:Work>
    </rdf:RDF>
  </metadata>
  <path
     id="path1112"
     style="fill:#b1b1b1;fill-opacity:1;stroke-width:0.0624884"
     d="M 9.5214844 0 C 8.6903889 0 8.0214844 0.6688819 8.0214844 1.5 L 8.0214844 8.2636719 C 8.8924246 8.3375886 9.8166057 8.7156498 10.496094 9.390625 A 2.9339985 2.9339985 0 0 1 10.503906 9.3964844 L 17.488281 16.388672 A 2.9339985 2.9339985 0 0 1 17.501953 16.394531 C 18.9939 17.902439 18.993791 20.431558 17.501953 21.939453 A 2.9339985 2.9339985 0 0 1 17.488281 21.947266 L 10.503906 28.9375 C 9.8220882 29.619338 8.9208842 29.983911 8.0214844 30.056641 L 8.0214844 30.494141 C 8.0214844 31.325258 8.6903889 31.994141 9.5214844 31.994141 L 30.517578 31.994141 C 31.348676 31.994141 32.015625 31.325258 32.015625 30.494141 L 32.015625 7.6171875 C 32.015625 7.2235497 31.859323 6.8437346 31.578125 6.5625 L 25.462891 0.4375 C 25.181694 0.1559252 24.800318 7.4014868e-17 24.400391 0 C 19.4412 3.7795276e-05 14.480675 -4.5175091e-21 9.5214844 0 z M 7.6816406 11.183594 C 7.1852643 11.206824 6.7226563 11.597628 6.7226562 12.181641 L 6.7226562 16.173828 L 1.0664062 16.173828 C 0.51331325 16.173828 0.068359375 16.618814 0.068359375 17.171875 L 0.068359375 21.164062 C 0.068359375 21.717123 0.51331325 22.162109 1.0664062 22.162109 L 6.7226562 22.162109 L 6.7226562 26.154297 C 6.7226562 27.048502 7.8039445 27.485136 8.4277344 26.861328 L 15.414062 19.875 C 15.800812 19.484088 15.800812 18.851824 15.414062 18.460938 L 8.4277344 11.474609 C 8.2118765 11.260184 7.9416476 11.171427 7.6816406 11.183594 z "
     transform="scale(0.26458333)" />
</svg>
