<?xml version="1.0" encoding="UTF-8" standalone="no"?>
<!-- Created with Inkscape (http://www.inkscape.org/) -->

<svg
   width="32"
   height="32"
   viewBox="0 0 8.4666666 8.4666666"
   version="1.1"
   id="svg8"
   inkscape:version="1.1.1 (3bf5ae0d25, 2021-09-20)"
   sodipodi:docname="layer-indices-random-shuffle_sl.svg"
   inkscape:export-filename="D:\RxLab\src\RxOT\DuAEF\DuAEF_Duik\inc\icons\w16\w16_indices_random.png"
   inkscape:export-xdpi="48"
   inkscape:export-ydpi="48"
   xmlns:inkscape="http://www.inkscape.org/namespaces/inkscape"
   xmlns:sodipodi="http://sodipodi.sourceforge.net/DTD/sodipodi-0.dtd"
   xmlns="http://www.w3.org/2000/svg"
   xmlns:svg="http://www.w3.org/2000/svg"
   xmlns:rdf="http://www.w3.org/1999/02/22-rdf-syntax-ns#"
   xmlns:cc="http://creativecommons.org/ns#"
   xmlns:dc="http://purl.org/dc/elements/1.1/">
  <defs
     id="defs2">
    <style
       id="style1399">.cls-1{fill:#e3e3e3;}</style>
    <style
       id="style1399-4">.cls-1{fill:#e3e3e3;}</style>
    <style
       id="style1399-8">.cls-1{fill:#e3e3e3;}</style>
    <style
       id="style1399-4-5">.cls-1{fill:#e3e3e3;}</style>
    <style
       id="style1399-9">.cls-1{fill:#e3e3e3;}</style>
    <style
       id="style1399-4-6">.cls-1{fill:#e3e3e3;}</style>
    <style
       id="style1399-8-4">.cls-1{fill:#e3e3e3;}</style>
    <style
       id="style1399-4-5-3">.cls-1{fill:#e3e3e3;}</style>
    <style
       id="style1399-88">.cls-1{fill:#e3e3e3;}</style>
    <style
       id="style1399-3">.cls-1{fill:#e3e3e3;}</style>
    <style
       id="style1399-94">.cls-1{fill:#e3e3e3;}</style>
    <style
       id="style1399-5">.cls-1{fill:#e3e3e3;}</style>
    <style
       id="style1399-46">.cls-1{fill:#e3e3e3;}</style>
    <style
       id="style1399-4-2">.cls-1{fill:#e3e3e3;}</style>
    <style
       id="style1399-8-5">.cls-1{fill:#e3e3e3;}</style>
    <style
       id="style1399-4-5-8">.cls-1{fill:#e3e3e3;}</style>
    <style
       id="style1399-9-6">.cls-1{fill:#e3e3e3;}</style>
    <style
       id="style1399-4-6-2">.cls-1{fill:#e3e3e3;}</style>
    <style
       id="style1399-8-4-8">.cls-1{fill:#e3e3e3;}</style>
    <style
       id="style1399-4-5-3-4">.cls-1{fill:#e3e3e3;}</style>
    <style
       id="style1399-88-7">.cls-1{fill:#e3e3e3;}</style>
    <style
       id="style1399-3-2">.cls-1{fill:#e3e3e3;}</style>
    <style
       id="style1399-94-4">.cls-1{fill:#e3e3e3;}</style>
    <style
       id="style1399-5-0">.cls-1{fill:#e3e3e3;}</style>
    <style
       id="style1399-6">.cls-1{fill:#e3e3e3;}</style>
    <style
       id="style1399-4-8">.cls-1{fill:#e3e3e3;}</style>
    <style
       id="style1399-5-8">.cls-1{fill:#e3e3e3;}</style>
    <style
       id="style1399-7">.cls-1{fill:#e3e3e3;}</style>
    <style
       id="style1399-85">.cls-1{fill:#e3e3e3;}</style>
    <style
       id="style1399-4-6-8">.cls-1{fill:#e3e3e3;}</style>
    <style
       id="style1399-8-2">.cls-1{fill:#e3e3e3;}</style>
    <style
       id="style1399-4-5-4">.cls-1{fill:#e3e3e3;}</style>
    <style
       id="style1399-44">.cls-1{fill:#e3e3e3;}</style>
    <style
       id="style1399-59">.cls-1{fill:#e3e3e3;}</style>
    <style
       id="style1399-41">.cls-1{fill:#e3e3e3;}</style>
    <style
       id="style1399-83">.cls-1{fill:#e3e3e3;}</style>
    <style
       id="style1399-4-1">.cls-1{fill:#e3e3e3;}</style>
    <style
       id="style846">.cls-1{fill:#e3e3e3;}</style>
  </defs>
  <sodipodi:namedview
     id="base"
     pagecolor="#ffffff"
     bordercolor="#666666"
     borderopacity="1.0"
     inkscape:pageopacity="0.0"
     inkscape:pageshadow="2"
     inkscape:zoom="5.6568543"
     inkscape:cx="21.124815"
     inkscape:cy="-19.533825"
     inkscape:document-units="mm"
     inkscape:current-layer="svg8"
     showgrid="false"
     units="px"
     inkscape:window-width="1920"
     inkscape:window-height="1009"
     inkscape:window-x="-8"
     inkscape:window-y="150"
     inkscape:window-maximized="1"
     inkscape:snap-bbox="true"
     inkscape:bbox-paths="true"
     inkscape:bbox-nodes="true"
     inkscape:snap-bbox-edge-midpoints="true"
     inkscape:snap-bbox-midpoints="true"
     inkscape:snap-nodes="false"
     inkscape:pagecheckerboard="1"
     inkscape:snap-global="true">
    <sodipodi:guide
       position="8.4553541,3.980707"
       orientation="-32,0"
       id="guide854"
       inkscape:locked="false" />
    <sodipodi:guide
       position="8.4666666,8.4666662"
       orientation="0,-32"
       id="guide856"
       inkscape:locked="false" />
    <sodipodi:guide
       position="0,8.4666814"
       orientation="32,0"
       id="guide858"
       inkscape:locked="false" />
  </sodipodi:namedview>
  <metadata
     id="metadata5">
    <rdf:RDF>
      <cc:Work
         rdf:about="">
        <dc:format>image/svg+xml</dc:format>
        <dc:type
           rdf:resource="http://purl.org/dc/dcmitype/StillImage" />
      </cc:Work>
    </rdf:RDF>
  </metadata>
  <path
     id="rect3820"
     style="fill:#b1b1b1;fill-opacity:1;stroke:none;stroke-width:0.999999"
     d="m 25.650391,2.5234375 c -0.310659,0.00931 -0.554592,0.2674043 -0.548829,0.578125 v 3.4335937 h -0.486328 c -4.882497,0 -6.842568,4.7842048 -8.509765,9.3886718 -0.357256,1.01607 -0.734931,2.058482 -1.167969,3.048828 -0.844424,1.929246 -1.786263,3.5625 -3.789062,3.5625 h -0.527344 c -0.265954,-0.0077 -0.483067,0.250442 -0.476563,0.566406 v 3.433594 c -0.0065,0.315961 0.210609,0.574133 0.476563,0.566406 h 0.527344 c 4.882501,0 6.840617,-4.784204 8.507812,-9.388671 0.357255,-1.01607 0.736884,-2.059292 1.169922,-3.0625 0.844423,-1.929247 1.79709,-3.548828 3.789062,-3.548829 h 0.486328 v 3.433594 c -2.3e-4,0.31293 0.253477,0.566681 0.566407,0.566406 0.151876,0.0022 0.299003,-0.05292 0.412109,-0.154296 L 31.789062,9.2246094 C 31.898979,9.1159404 31.959673,8.9670422 31.957031,8.8125 31.958204,8.6582348 31.897735,8.5098847 31.789062,8.4003906 L 26.091797,2.703125 c -0.114263,-0.1101419 -0.26522,-0.1741418 -0.423828,-0.1796875 -0.0059,-9.29e-5 -0.01164,-9.29e-5 -0.01758,0 z M 1.6445312,6.0625 c -0.86813778,0 -1.5664062,0.6982688 -1.5664062,1.5664062 v 2.7246098 c 0,0.868137 0.69826842,1.566406 1.5664062,1.566406 H 6.6875 c 0.8681371,0 1.5664062,-0.698269 1.5664062,-1.566406 V 7.6289062 C 8.2539062,6.7607688 7.5556371,6.0625 6.6875,6.0625 Z m 8.9609378,0.4726562 c -0.25951,0.00335 -0.46722,0.2581707 -0.460938,0.5664063 v 3.4335935 c -0.0065,0.315961 0.210609,0.574133 0.476563,0.566406 h 0.527344 c 2.273448,0 3.235487,2.161511 4.101562,4.322266 0.56962,-1.690451 1.257583,-3.321167 2.056641,-4.875 -1.33163,-2.5125837 -3.659033,-4.0302344 -6.158203,-4.0136718 h -0.527344 c -0.0055,-1.148e-4 -0.01015,-1.148e-4 -0.01563,0 z M 1.6757812,14.128906 c -0.86813778,0 -1.5664062,0.698272 -1.5664062,1.566406 v 2.72461 c 0,0.868138 0.69826842,1.566406 1.5664062,1.566406 H 6.71875 c 0.8681374,0 1.5664062,-0.698268 1.5664062,-1.566406 v -2.72461 c 0,-0.868134 -0.6982688,-1.566406 -1.5664062,-1.566406 z m 18.8359378,4.085938 c -0.564074,1.690701 -1.24893,3.320991 -2.046875,4.873047 1.297938,2.166 2.165604,4.013672 6.636718,4.013671 v 3.433594 c 0.0055,0.310061 0.256346,0.559849 0.566407,0.566406 0.151876,0.0022 0.299003,-0.05291 0.412109,-0.154296 l 5.708984,-5.72461 c 0.109425,-0.108196 0.170074,-0.256286 0.167969,-0.410156 0.0012,-0.154265 -0.0593,-0.302616 -0.167969,-0.412109 l -5.697265,-5.697266 c -0.115366,-0.106919 -0.266539,-0.166831 -0.423828,-0.167969 -0.315965,-0.0077 -0.572911,0.250442 -0.566407,0.566406 v 3.433594 h -0.486328 c -2.262622,0 -3.226614,-2.159558 -4.103515,-4.320312 z M 1.5664062,22.041016 C 0.69826805,22.041016 0,22.739284 0,23.607422 v 2.724609 c 0,0.868138 0.69826805,1.566407 1.5664062,1.566407 h 5.0410157 c 0.8681378,-10e-7 1.5683593,-0.698269 1.5683593,-1.566407 v -2.724609 c 0,-0.868138 -0.7002215,-1.566406 -1.5683593,-1.566406 z"
     transform="scale(0.26458333)"
     sodipodi:nodetypes="cccsccsccccsccsccccccccccsssssssssccccscccccssssssssscccccccccccccscsssscssss" />
</svg>
