<?xml version="1.0" encoding="UTF-8" standalone="no"?>
<!-- Created with Inkscape (http://www.inkscape.org/) -->

<svg
   width="32"
   height="32"
   viewBox="0 0 8.4666666 8.4666666"
   version="1.1"
   id="svg8"
   inkscape:version="1.1.1 (3bf5ae0d25, 2021-09-20)"
   sodipodi:docname="files_sl.svg"
   inkscape:export-filename="D:\RxLab\src\RxOT\DuAEF\Duik\inc\icons\w16\w16_items.png"
   inkscape:export-xdpi="48"
   inkscape:export-ydpi="48"
   xmlns:inkscape="http://www.inkscape.org/namespaces/inkscape"
   xmlns:sodipodi="http://sodipodi.sourceforge.net/DTD/sodipodi-0.dtd"
   xmlns="http://www.w3.org/2000/svg"
   xmlns:svg="http://www.w3.org/2000/svg"
   xmlns:rdf="http://www.w3.org/1999/02/22-rdf-syntax-ns#"
   xmlns:cc="http://creativecommons.org/ns#"
   xmlns:dc="http://purl.org/dc/elements/1.1/">
  <defs
     id="defs2" />
  <sodipodi:namedview
     id="base"
     pagecolor="#ffffff"
     bordercolor="#666666"
     borderopacity="1.0"
     inkscape:pageopacity="0.0"
     inkscape:pageshadow="2"
     inkscape:zoom="16"
     inkscape:cx="20.09375"
     inkscape:cy="14.59375"
     inkscape:document-units="mm"
     inkscape:current-layer="layer1"
     showgrid="false"
     units="px"
     inkscape:window-width="3440"
     inkscape:window-height="1369"
     inkscape:window-x="1912"
     inkscape:window-y="-8"
     inkscape:window-maximized="1"
     inkscape:pagecheckerboard="0">
    <sodipodi:guide
       position="8.4666666,0"
       orientation="-32,0"
       id="guide854"
       inkscape:locked="false" />
    <sodipodi:guide
       position="8.4666666,8.4666666"
       orientation="0,-32"
       id="guide856"
       inkscape:locked="false" />
    <sodipodi:guide
       position="0,8.4666814"
       orientation="32,0"
       id="guide858"
       inkscape:locked="false" />
  </sodipodi:namedview>
  <metadata
     id="metadata5">
    <rdf:RDF>
      <cc:Work
         rdf:about="">
        <dc:format>image/svg+xml</dc:format>
        <dc:type
           rdf:resource="http://purl.org/dc/dcmitype/StillImage" />
      </cc:Work>
    </rdf:RDF>
  </metadata>
  <g
     inkscape:label="Layer 1"
     inkscape:groupmode="layer"
     id="layer1"
     transform="translate(0,-288.53334)">
    <path
       id="path1112"
       style="fill:#b1b1b1;fill-opacity:1;stroke-width:0.0444824"
       d="m 1.1171875,0.06054687 c -0.59161587,0 -1.06835938,0.47667434 -1.06835938,1.06835933 V 16.732422 c 0,0.591685 0.47674351,1.068359 1.06835938,1.068359 h 3.1875 V 8.2441406 c -1.5e-6,-1.3714771 1.1540913,-2.5 2.5117187,-2.5 3.3856668,-0.015118 6.7891038,0.011719 10.1621098,0.011719 v 0.00195 c 0.05094,-0.00363 0.100995,-0.00794 0.152343,-0.011719 V 5.484375 c 0,-0.280063 -0.110387,-0.5518649 -0.310547,-0.7519531 L 12.466797,0.37304688 C 12.266629,0.17310987 11.993671,0.06054687 11.708984,0.06054687 Z M 6.8125,7.1796875 c -0.5916155,0 -1.0683594,0.4767121 -1.0683594,1.0683594 V 23.851562 c 0,0.591648 0.4767439,1.06836 1.0683594,1.06836 h 4.613281 v -9.556641 c 0,-1.357682 1.140358,-2.5 2.498047,-2.5 h 8.900391 v -0.261719 c 0,-0.280062 -0.11038,-0.551789 -0.310547,-0.751953 L 18.158203,7.4921875 c -0.200175,-0.199937 -0.471173,-0.3125 -0.755859,-0.3125 z m 7.115234,7.1171875 c -0.591615,0 -1.066406,0.476712 -1.066406,1.068359 V 30.96875 c 0,0.591647 0.474791,1.066406 1.066406,1.066406 H 28.875 c 0.591615,0 1.066406,-0.474759 1.066406,-1.066406 v -11.25 c 0,-0.280176 -0.110375,-0.552016 -0.310547,-0.751953 l -4.355468,-4.359375 c -0.200172,-0.200315 -0.471171,-0.310547 -0.75586,-0.310547 -3.530421,-7.6e-5 -7.061375,0 -10.591797,0 z"
       transform="matrix(0.26458333,0,0,0.26458333,0,288.53334)" />
  </g>
</svg>
