<?xml version="1.0" encoding="UTF-8" standalone="no"?>
<svg
   width="32"
   height="32"
   viewBox="0 0 8.4666666 8.4666666"
   version="1.1"
   id="svg8"
   inkscape:version="1.1.1 (3bf5ae0d25, 2021-09-20)"
   sodipodi:docname="keyframe_times_random.svg"
   inkscape:export-filename="D:\RxLab\src\RxOT\DuAEF\DuAEF_Duik\inc\icons\w16\w16_keyframe_times_random.png"
   inkscape:export-xdpi="48"
   inkscape:export-ydpi="48"
   xmlns:inkscape="http://www.inkscape.org/namespaces/inkscape"
   xmlns:sodipodi="http://sodipodi.sourceforge.net/DTD/sodipodi-0.dtd"
   xmlns="http://www.w3.org/2000/svg"
   xmlns:svg="http://www.w3.org/2000/svg"
   xmlns:rdf="http://www.w3.org/1999/02/22-rdf-syntax-ns#"
   xmlns:cc="http://creativecommons.org/ns#"
   xmlns:dc="http://purl.org/dc/elements/1.1/">
  <defs
     id="defs2">
    <style
       id="style1399">.cls-1{fill:#e3e3e3;}</style>
    <style
       id="style1399-4">.cls-1{fill:#e3e3e3;}</style>
    <style
       id="style1399-8">.cls-1{fill:#e3e3e3;}</style>
    <style
       id="style1399-4-5">.cls-1{fill:#e3e3e3;}</style>
    <style
       id="style1399-9">.cls-1{fill:#e3e3e3;}</style>
    <style
       id="style1399-4-6">.cls-1{fill:#e3e3e3;}</style>
    <style
       id="style1399-8-4">.cls-1{fill:#e3e3e3;}</style>
    <style
       id="style1399-4-5-3">.cls-1{fill:#e3e3e3;}</style>
    <style
       id="style1399-88">.cls-1{fill:#e3e3e3;}</style>
    <style
       id="style1399-3">.cls-1{fill:#e3e3e3;}</style>
    <style
       id="style1399-94">.cls-1{fill:#e3e3e3;}</style>
    <style
       id="style1399-5">.cls-1{fill:#e3e3e3;}</style>
    <style
       id="style1399-46">.cls-1{fill:#e3e3e3;}</style>
    <style
       id="style1399-4-2">.cls-1{fill:#e3e3e3;}</style>
    <style
       id="style1399-8-5">.cls-1{fill:#e3e3e3;}</style>
    <style
       id="style1399-4-5-8">.cls-1{fill:#e3e3e3;}</style>
    <style
       id="style1399-9-6">.cls-1{fill:#e3e3e3;}</style>
    <style
       id="style1399-4-6-2">.cls-1{fill:#e3e3e3;}</style>
    <style
       id="style1399-8-4-8">.cls-1{fill:#e3e3e3;}</style>
    <style
       id="style1399-4-5-3-4">.cls-1{fill:#e3e3e3;}</style>
    <style
       id="style1399-88-7">.cls-1{fill:#e3e3e3;}</style>
    <style
       id="style1399-3-2">.cls-1{fill:#e3e3e3;}</style>
    <style
       id="style1399-94-4">.cls-1{fill:#e3e3e3;}</style>
    <style
       id="style1399-5-0">.cls-1{fill:#e3e3e3;}</style>
  </defs>
  <sodipodi:namedview
     id="base"
     pagecolor="#ffffff"
     bordercolor="#666666"
     borderopacity="1.0"
     inkscape:pageopacity="0.0"
     inkscape:pageshadow="2"
     inkscape:zoom="16"
     inkscape:cx="27.09375"
     inkscape:cy="15.84375"
     inkscape:document-units="mm"
     inkscape:current-layer="svg8"
     showgrid="false"
     units="px"
     inkscape:window-width="3440"
     inkscape:window-height="1369"
     inkscape:window-x="1912"
     inkscape:window-y="-8"
     inkscape:window-maximized="1"
     inkscape:document-rotation="0"
     inkscape:pagecheckerboard="0"
     inkscape:snap-bbox="true"
     inkscape:bbox-paths="true"
     inkscape:bbox-nodes="true"
     inkscape:snap-bbox-midpoints="true"
     inkscape:snap-bbox-edge-midpoints="true"
     inkscape:snap-nodes="false"
     inkscape:snap-global="true">
    <sodipodi:guide
       position="8.4666666,0"
       orientation="-32,0"
       id="guide854"
       inkscape:locked="false" />
    <sodipodi:guide
       position="8.4666666,8.4666666"
       orientation="0,-32"
       id="guide856"
       inkscape:locked="false" />
    <sodipodi:guide
       position="0,8.4666814"
       orientation="32,0"
       id="guide858"
       inkscape:locked="false" />
  </sodipodi:namedview>
  <metadata
     id="metadata5">
    <rdf:RDF>
      <cc:Work
         rdf:about="">
        <dc:format>image/svg+xml</dc:format>
        <dc:type
           rdf:resource="http://purl.org/dc/dcmitype/StillImage" />
      </cc:Work>
    </rdf:RDF>
  </metadata>
  <path
     id="path864"
     d="M 2.4373492,3.2435413 1.3205868,4.3603038 c -0.084074,0.084074 -0.084074,0.220497 0,0.3045715 l 1.1167624,1.1167625 c 0.084074,0.084074 0.2204974,0.084074 0.3045717,0 L 3.8586833,4.6648753 c 0.084074,-0.084074 0.084074,-0.2204971 10e-8,-0.3045715 L 2.7419209,3.2435412 c -0.084074,-0.084074 -0.2204971,-0.084074 -0.3045717,10e-8 z"
     inkscape:connector-curvature="0"
     style="fill:#b1b1b1;fill-opacity:1;stroke-width:0.00448675" />
  <path
     id="rect3820"
     style="fill:#b1b1b1;fill-opacity:1;stroke:none;stroke-width:0.264583"
     d="m 8.0315817,2.8677287 c 0.229695,0 0.414445,-0.1847504 0.414445,-0.414445 v -0.034623 c 0,-0.2296947 -0.18475,-0.414445 -0.414445,-0.414445 l -7.60177992,0 c -0.2296946,0 -0.4144449,0.1847503 -0.4144449,0.414445 v 0.034623 c 0,0.2296946 0.1847503,0.414445 0.4144449,0.414445 z m -0.0083,2.0846271 c 0.229695,0 0.414445,-0.1847501 0.414445,-0.4144449 l 0,-0.026355 c 0,-0.229694 -0.18475,-0.4144449 -0.414445,-0.4144449 l -7.61415399,0 c -0.2296947,0 -0.414445,0.1847509 -0.414445,0.4144449 l 0,0.026355 c 0,0.2296948 0.1847503,0.4144449 0.414445,0.4144449 z m 0.02894,2.1016807 c 0.229695,0 0.414445,-0.1847503 0.414445,-0.4144452 l 0,-0.00155 c 0,-0.2296948 -0.18475,-0.4144449 -0.414445,-0.4144449 l -7.62725421,0 c -0.2296947,0 -0.4149617,0.1847501 -0.4149617,0.4144449 l 0,0.00155 c 0,0.2296949 0.185267,0.414445 0.4149617,0.4144452 z"
     sodipodi:nodetypes="cssccsscccssccsscccssccsscc" />
  <path
     id="path882"
     d="M 6.0738852,1.1504868 4.9571228,2.2672493 c -0.084074,0.084074 -0.084074,0.220497 0,0.3045715 l 1.1167624,1.1167625 c 0.084074,0.084074 0.2204974,0.084074 0.3045717,0 L 7.4952193,2.5718208 c 0.084074,-0.084074 0.084074,-0.2204971 1e-7,-0.3045715 L 6.3784569,1.1504867 c -0.084074,-0.084074 -0.2204971,-0.084074 -0.3045717,10e-8 z"
     inkscape:connector-curvature="0"
     style="fill:#b1b1b1;fill-opacity:1;stroke-width:0.00448675" />
  <path
     id="path884"
     d="M 4.5187106,5.3599819 3.4019482,6.4767444 c -0.084074,0.084074 -0.084074,0.220497 0,0.3045715 l 1.1167624,1.1167625 c 0.084074,0.084074 0.2204974,0.084074 0.3045717,0 L 5.9400447,6.7813159 c 0.084074,-0.084074 0.084074,-0.2204971 1e-7,-0.3045715 L 4.8232823,5.3599818 c -0.084074,-0.084074 -0.2204971,-0.084074 -0.3045717,1e-7 z"
     inkscape:connector-curvature="0"
     style="fill:#b1b1b1;fill-opacity:1;stroke-width:0.00448675" />
</svg>
