<?xml version="1.0" encoding="UTF-8" standalone="no"?>
<svg
   width="32"
   height="32"
   viewBox="0 0 8.4666666 8.4666666"
   version="1.1"
   id="svg8"
   inkscape:version="1.1.1 (3bf5ae0d25, 2021-09-20)"
   sodipodi:docname="link_to_bone.svg"
   inkscape:export-filename="D:\DEV_SRC\RxOT\DuAEF_Dugr\icons/w16\w16_layer_group.png"
   inkscape:export-xdpi="48"
   inkscape:export-ydpi="48"
   xmlns:inkscape="http://www.inkscape.org/namespaces/inkscape"
   xmlns:sodipodi="http://sodipodi.sourceforge.net/DTD/sodipodi-0.dtd"
   xmlns="http://www.w3.org/2000/svg"
   xmlns:svg="http://www.w3.org/2000/svg"
   xmlns:rdf="http://www.w3.org/1999/02/22-rdf-syntax-ns#"
   xmlns:cc="http://creativecommons.org/ns#"
   xmlns:dc="http://purl.org/dc/elements/1.1/">
  <defs
     id="defs2">
    <style
       id="style1399">.cls-1{fill:#e3e3e3;}</style>
    <style
       id="style1399-4">.cls-1{fill:#e3e3e3;}</style>
    <style
       id="style1399-8">.cls-1{fill:#e3e3e3;}</style>
    <style
       id="style1399-4-5">.cls-1{fill:#e3e3e3;}</style>
    <style
       id="style1399-0">.cls-1{fill:#e3e3e3;}</style>
  </defs>
  <sodipodi:namedview
     id="base"
     pagecolor="#ffffff"
     bordercolor="#666666"
     borderopacity="1.0"
     inkscape:pageopacity="0.0"
     inkscape:pageshadow="2"
     inkscape:zoom="22.627416"
     inkscape:cx="30.471884"
     inkscape:cy="9.3912624"
     inkscape:document-units="mm"
     inkscape:current-layer="svg8"
     showgrid="false"
     units="px"
     inkscape:window-width="3440"
     inkscape:window-height="1369"
     inkscape:window-x="1912"
     inkscape:window-y="-8"
     inkscape:window-maximized="1"
     inkscape:document-rotation="0"
     inkscape:pagecheckerboard="1">
    <sodipodi:guide
       position="8.4666666,0"
       orientation="-32,0"
       id="guide854"
       inkscape:locked="false" />
    <sodipodi:guide
       position="8.4666666,8.4666666"
       orientation="0,-32"
       id="guide856"
       inkscape:locked="false" />
    <sodipodi:guide
       position="0,8.4666814"
       orientation="32,0"
       id="guide858"
       inkscape:locked="false" />
  </sodipodi:namedview>
  <metadata
     id="metadata5">
    <rdf:RDF>
      <cc:Work
         rdf:about="">
        <dc:format>image/svg+xml</dc:format>
        <dc:type
           rdf:resource="http://purl.org/dc/dcmitype/StillImage" />
      </cc:Work>
    </rdf:RDF>
  </metadata>
  <path
     id="path1010"
     style="fill:#b1b1b1;fill-opacity:1;stroke-width:0.0939205"
     d="M 22.414062 19.652344 C 21.658401 23.451548 18.290418 26.345703 14.277344 26.345703 C 10.600455 26.345703 7.4598562 23.917742 6.3769531 20.587891 L 0.796875 23.117188 C -0.19703443 23.568199 -0.19703443 25.07047 0.796875 25.521484 L 14.785156 31.867188 C 15.193531 32.052759 15.654125 32.052759 16.0625 31.867188 L 30.054688 25.521484 C 31.048596 25.07047 31.048596 23.568198 30.054688 23.117188 L 22.414062 19.652344 z "
     transform="scale(0.26458333)" />
  <path
     style="opacity:1;fill:#b1b1b1;fill-opacity:1;stroke:none;stroke-width:1.79771;stroke-linecap:butt;stroke-linejoin:miter;stroke-miterlimit:4;stroke-dasharray:none;stroke-dashoffset:0;stroke-opacity:1"
     d="M 7.7376672,0 C 7.5525597,0 7.3672235,0.07126534 7.225384,0.213105 L 4.3209156,3.1949266 C 4.1458918,3.1338952 3.9619358,3.1024004 3.7765778,3.1017301 c -0.9231975,0 -1.6715972,0.7483998 -1.6715972,1.6715975 0,0.9231978 0.7483997,1.6715974 1.6715972,1.6715974 0.9231974,0 1.6715971,-0.7483996 1.6715971,-1.6715974 C 5.4475064,4.5879696 5.416006,4.4040137 5.354979,4.22899 L 8.2588543,1.2465749 c 0.2836776,-0.28367836 0.2836776,-0.74029392 0,-1.02397226 l -0.0095,-0.009499 C 8.1075163,0.07126578 7.922774,0 7.7376672,0 Z M 3.7765778,3.7517298 C 4.340851,3.7515843 4.7983209,4.2090544 4.7981755,4.7733276 4.7983209,5.3376008 4.340851,5.7950709 3.7765778,5.7949252 3.2123046,5.7950709 2.7548346,5.3376008 2.75498,4.7733276 2.7548346,4.2090544 3.2123046,3.7515843 3.7765778,3.7517298 Z m 0,0.598356 c -0.233775,-6.04e-5 -0.4233023,0.1894667 -0.4232421,0.4232418 -6.02e-5,0.2337749 0.1894671,0.4233022 0.4232421,0.4232418 0.233775,6.04e-5 0.4233021,-0.1894669 0.423242,-0.4232418 6.01e-5,-0.2337751 -0.189467,-0.4233022 -0.423242,-0.4232418 z"
     id="path1024"
     inkscape:connector-curvature="0"
     sodipodi:nodetypes="scccsscccccscccccccccc"
     inkscape:transform-center-x="-1.5200955"
     inkscape:transform-center-y="-1.5200955" />
  <path
     id="path1208"
     d="m 1.0983962,1.4334522 c 0.6080467,3.137e-4 1.0915537,0.4921618 1.093217,1.0895433 -2.624e-4,8.796e-4 8e-6,0.00246 1.61e-5,0.00369 l 2.3e-6,0.6835459 C 2.1916272,3.8131077 1.7011601,4.3034946 1.0983693,4.3034935 0.49553572,4.3035412 0.00505534,3.8130608 0.00510312,3.2102272 l 6.07e-6,-0.3774278 c -7.9e-6,-0.1000986 0.1194385,-0.1530226 0.19275335,-0.084875 0.0934277,0.086832 0.20014391,0.1612263 0.31741149,0.2188468 0.0397341,0.019533 0.0652464,0.05948 0.0652464,0.1037273 l 2.39e-6,0.1331205 c -1.94e-6,0.2850721 0.22761462,0.5216299 0.51267838,0.5244263 0.2878771,0.00283 0.5230106,-0.2305757 0.5231916,-0.5176351 l 5.23e-5,-0.6834913 c -10e-7,-0.2867538 -0.2323425,-0.5178951 -0.5178973,-0.5178977 -0.037622,2.42e-5 -0.07118,0.00439 -0.096158,0.00902 A 0.11534664,0.11534664 0 0 1 0.9029758,1.9892952 C 0.84722009,1.937571 0.81088336,1.8631515 0.81088211,1.7782153 l -4.44e-6,-0.2141606 C 0.81086639,1.507885 0.8514765,1.460398 0.90676885,1.4505693 A 1.0967316,1.0967316 0 0 1 1.0986036,1.4336598 Z M 1.0983558,-1.4734e-4 C 0.495565,-1.4851e-4 0.0050948,0.49023527 0.00509327,1.0931152 l 4e-7,0.6835434 c -2.9326e-4,9.106e-4 -3.787e-5,0.00251 1.53e-5,0.00369 0.00165627,0.5973674 0.48516434,1.0892268 1.09321393,1.089538 a 1.0965302,1.0965302 0 0 0 0.1918267,-0.016908 c 0.055248,-0.00987 0.095846,-0.057382 0.095859,-0.1135173 l -1e-6,-0.2141574 C 1.3860313,2.4403934 1.3496667,2.3659467 1.293914,2.314222 A 0.11534664,0.11534664 0 0 0 1.194468,2.285439 C 1.16944,2.290029 1.13588,2.294389 1.09831,2.294459 0.81275834,2.2944595 0.58041678,2.0633181 0.58041541,1.7765643 l 5.218e-5,-0.6834902 c -4.1e-6,-0.28724492 0.23512145,-0.52064175 0.52319201,-0.51763491 0.2850665,0.0028 0.5126883,0.23935243 0.5126885,0.52443421 l -3.3e-6,0.1331149 c -2.16e-5,0.044225 0.025534,0.084216 0.065248,0.1037261 0.1172705,0.057623 0.2239897,0.1320155 0.3174172,0.2188533 0.073305,0.068133 0.1927524,0.015214 0.1927536,-0.084875 l -1.8e-6,-0.3774335 C 2.191821,0.49042953 1.7013405,-5.092e-5 1.09851,0 Z"
     inkscape:connector-curvature="0"
     style="fill:#b1b1b1;fill-opacity:1;stroke-width:0.00719252"
     inkscape:export-filename="D:\DEV_SRC\RxOT\DuAEF\DuAEF_Duik\icons\w16\w16_constraints.png"
     inkscape:export-xdpi="48"
     inkscape:export-ydpi="48" />
</svg>
