<?xml version="1.0" encoding="UTF-8" standalone="no"?>
<!-- Created with Inkscape (http://www.inkscape.org/) -->

<svg
   width="32"
   height="32"
   viewBox="0 0 8.4666666 8.4666666"
   version="1.1"
   id="svg8"
   inkscape:version="1.1.1 (3bf5ae0d25, 2021-09-20)"
   sodipodi:docname="no_dialog.svg"
   inkscape:export-filename="D:\RxLab\src\RxOT\After-Effects\Duik\inc\icons\w16\no_dialog.png"
   inkscape:export-xdpi="48.169998"
   inkscape:export-ydpi="48.169998"
   xmlns:inkscape="http://www.inkscape.org/namespaces/inkscape"
   xmlns:sodipodi="http://sodipodi.sourceforge.net/DTD/sodipodi-0.dtd"
   xmlns="http://www.w3.org/2000/svg"
   xmlns:svg="http://www.w3.org/2000/svg"
   xmlns:rdf="http://www.w3.org/1999/02/22-rdf-syntax-ns#"
   xmlns:cc="http://creativecommons.org/ns#"
   xmlns:dc="http://purl.org/dc/elements/1.1/">
  <defs
     id="defs2" />
  <sodipodi:namedview
     id="base"
     pagecolor="#ffffff"
     bordercolor="#666666"
     borderopacity="1.0"
     inkscape:pageopacity="0.0"
     inkscape:pageshadow="2"
     inkscape:zoom="11.313709"
     inkscape:cx="-12.595339"
     inkscape:cy="11.092737"
     inkscape:document-units="mm"
     inkscape:current-layer="layer1"
     showgrid="false"
     units="px"
     inkscape:window-width="3440"
     inkscape:window-height="1369"
     inkscape:window-x="-8"
     inkscape:window-y="-8"
     inkscape:window-maximized="1"
     inkscape:pagecheckerboard="0"
     inkscape:object-paths="true"
     inkscape:snap-intersection-paths="true"
     inkscape:snap-nodes="false"
     inkscape:snap-bbox="true"
     inkscape:bbox-paths="true"
     inkscape:bbox-nodes="true"
     inkscape:snap-bbox-edge-midpoints="true"
     inkscape:snap-bbox-midpoints="true" />
  <metadata
     id="metadata5">
    <rdf:RDF>
      <cc:Work
         rdf:about="">
        <dc:format>image/svg+xml</dc:format>
        <dc:type
           rdf:resource="http://purl.org/dc/dcmitype/StillImage" />
      </cc:Work>
    </rdf:RDF>
  </metadata>
  <g
     inkscape:label="Layer 1"
     inkscape:groupmode="layer"
     id="layer1"
     transform="translate(0,-288.53334)">
    <path
       id="path1110"
       style="fill:#b1b1b1;fill-opacity:1;stroke-width:0.0477842"
       d="m 13.949219,4.1542969 2.433593,3.21875 h 4.273438 c 0.338956,0 0.613281,0.2762107 0.613281,0.6152343 V 9.625 c 0,0.3390236 -0.274329,0.613281 -0.613281,0.613281 h -2.105469 l 1.544922,2.044922 h 0.560547 c 0.338956,0 0.613281,0.275795 0.613281,0.615235 v 0.9375 l 6.332031,8.373046 c 0.167241,-0.377879 0.259766,-0.795208 0.259766,-1.234375 V 7.2128906 c 0,-1.6868031 -1.369855,-3.0585937 -3.05664,-3.0585937 z m -9.7246096,0.96875 C 3.711528,5.6701093 3.3964844,6.404959 3.3964844,7.2128906 V 20.974609 c 0,1.686766 1.3718083,3.058594 3.0585937,3.058594 h 4.5878909 v 4.013672 c 0,0.468246 0.534613,0.741959 0.912109,0.464844 l 5.96875,-4.478516 h 0.59961 l -3.00586,-3.974609 h -5.091797 c -0.338952,0 -0.613281,-0.274258 -0.613281,-0.613282 v -1.638671 c 0,-0.339024 0.274331,-0.613282 0.613281,-0.613282 h 2.925781 l -1.548828,-2.046875 h -1.376953 c -0.338952,0 -0.613281,-0.271926 -0.613281,-0.611328 v -1.636718 c 0,-0.104364 0.026422,-0.202914 0.072266,-0.289063 z"
       transform="matrix(0.26458333,0,0,0.26458333,0,288.53334)" />
    <path
       style="color:#000000;fill:#b1b1b1;stroke-linecap:round;-inkscape-stroke:none"
       d="m 1.5566406,288.63867 a 0.54233003,0.54233003 0 0 0 -0.1054687,0.75977 l 5.625,7.4414 a 0.54233003,0.54233003 0 0 0 0.7597656,0.10547 0.54233003,0.54233003 0 0 0 0.1054687,-0.75976 l -5.6249999,-7.44141 a 0.54233003,0.54233003 0 0 0 -0.7597657,-0.10547 z"
       id="path1333" />
  </g>
</svg>
