<?xml version="1.0" encoding="UTF-8" standalone="no"?>
<svg
   id="Calque_1"
   data-name="Calque 1"
   viewBox="0 0 32 32"
   version="1.1"
   sodipodi:docname="noodle.svg"
   inkscape:version="1.2.1 (9c6d41e410, 2022-07-14)"
   inkscape:export-filename="w16\w16_noodle.png"
   inkscape:export-xdpi="48"
   inkscape:export-ydpi="48"
   xmlns:inkscape="http://www.inkscape.org/namespaces/inkscape"
   xmlns:sodipodi="http://sodipodi.sourceforge.net/DTD/sodipodi-0.dtd"
   xmlns="http://www.w3.org/2000/svg"
   xmlns:svg="http://www.w3.org/2000/svg"
   xmlns:rdf="http://www.w3.org/1999/02/22-rdf-syntax-ns#"
   xmlns:cc="http://creativecommons.org/ns#"
   xmlns:dc="http://purl.org/dc/elements/1.1/">
  <metadata
     id="metadata31">
    <rdf:RDF>
      <cc:Work
         rdf:about="">
        <dc:format>image/svg+xml</dc:format>
        <dc:type
           rdf:resource="http://purl.org/dc/dcmitype/StillImage" />
        <dc:title>body_l</dc:title>
      </cc:Work>
    </rdf:RDF>
  </metadata>
  <sodipodi:namedview
     pagecolor="#ffffff"
     bordercolor="#666666"
     borderopacity="1"
     objecttolerance="10"
     gridtolerance="10"
     guidetolerance="10"
     inkscape:pageopacity="0"
     inkscape:pageshadow="2"
     inkscape:window-width="1920"
     inkscape:window-height="1009"
     id="namedview29"
     showgrid="false"
     inkscape:snap-bbox="true"
     inkscape:bbox-paths="true"
     inkscape:bbox-nodes="true"
     inkscape:snap-bbox-edge-midpoints="true"
     inkscape:snap-bbox-midpoints="true"
     inkscape:snap-nodes="false"
     inkscape:zoom="7.375"
     inkscape:cx="-12.677966"
     inkscape:cy="11.118644"
     inkscape:window-x="-8"
     inkscape:window-y="-8"
     inkscape:window-maximized="1"
     inkscape:current-layer="g1118"
     inkscape:document-rotation="0"
     inkscape:pagecheckerboard="0"
     inkscape:showpageshadow="2"
     inkscape:deskcolor="#d1d1d1" />
  <defs
     id="defs4">
    <style
       id="style2">.cls-1{fill:#e3e3e3;}</style>
    <style
       id="style857">.cls-1{fill:#e3e3e3;}</style>
    <style
       id="style990">.cls-1{fill:#e3e3e3;}</style>
    <style
       id="style1091">.cls-1{fill:#e3e3e3;}</style>
  </defs>
  <title
     id="title6">body_l</title>
  <g
     id="g1118"
     transform="matrix(1.1404506,0,0,1.1404506,-2.3537809,-2.1777348)">
    <path
       id="path297"
       style="color:#000000;display:inline;fill:#b1b1b1;stroke-linecap:round;-inkscape-stroke:none;fill-opacity:1"
       d="M 13.010784 1.9951684 C 12.846826 1.9921038 12.682267 1.9935611 12.51927 2.0003062 C 11.649955 2.0362804 10.797006 2.2111251 10.005187 2.515796 C 6.8379114 3.7344796 4.4247303 7.1743502 5.2493229 11.188355 C 5.692363 13.345014 6.9638519 14.935405 8.4210407 15.771247 C 9.8782294 16.60709 11.367511 16.864324 12.685391 17.184135 C 14.003272 17.503945 15.139716 17.852782 16.043782 18.489129 C 16.795002 19.017892 17.623175 19.749545 17.980722 21.201872 C 18.246364 22.280893 17.642959 24.163641 16.764782 24.98841 C 16.523509 25.21501 16.329473 25.438567 15.966715 25.577541 C 14.048174 26.312545 11.697657 26.031202 10.597743 24.748647 C 10.282174 24.380677 10.23066 23.989213 10.359693 23.614912 C 10.488726 23.240613 10.784226 22.829776 11.692089 22.602771 C 12.054463 22.512161 12.651268 22.608311 13.617041 23.095997 L 15.357033 24.144103 C 16.131455 23.588949 16.969471 22.025105 16.608936 20.503135 L 15.363883 19.638277 C 14.037609 18.968485 12.463845 18.417282 10.751877 18.845348 C 8.7670865 19.34163 7.2656358 20.701674 6.6964619 22.352733 C 6.1272882 24.003792 6.4787141 25.893381 7.6589379 27.269581 C 10.141534 30.164413 14.199264 30.402439 17.352201 29.194533 C 18.639236 28.701463 19.763997 27.872686 20.678052 26.820882 C 21.417349 25.679631 21.861148 25.128048 22.222808 23.238142 C 22.287638 22.441316 22.283275 21.622883 22.025861 20.797701 C 21.224182 18.227846 19.85391 16.43319 18.273575 15.320836 C 16.69324 14.208481 15.012866 13.762742 13.599915 13.41986 C 12.186964 13.076979 11.030497 12.800099 10.349418 12.409432 C 9.6683394 12.018766 9.3063773 11.690905 9.0427111 10.407414 C 8.5806172 8.1580039 9.7286786 6.772543 11.395811 6.1310748 C 13.062943 5.4896065 15.044742 5.7323416 16.470217 7.8316773 C 17.071251 8.7158761 18.276101 8.9459057 19.160696 8.3454545 C 20.045565 7.7450446 20.27625 6.5417899 19.676186 5.6566872 C 18.005953 3.196888 15.47015 2.0411378 13.010784 1.9951684 z M 26.903319 22.76033 C 26.800886 22.758763 26.697118 22.765749 26.59334 22.780881 C 26.392733 22.810241 26.19798 22.870921 26.016197 22.960703 C 25.185929 23.371099 24.464971 23.533121 23.75729 23.534421 C 23.474101 25.354176 22.86538 26.433666 22.274186 27.278144 C 23.967096 27.542628 25.867319 27.355643 27.732213 26.433837 C 28.690744 25.959434 29.083297 24.797874 28.609059 23.839262 C 28.283795 23.181122 27.620346 22.771298 26.903319 22.76033 z " />
  </g>
</svg>
