<?xml version="1.0" encoding="UTF-8" standalone="no"?>
<svg
   width="32"
   height="32"
   viewBox="0 0 8.4666666 8.4666666"
   version="1.1"
   id="svg8"
   inkscape:version="1.2.2 (732a01da63, 2022-12-09)"
   sodipodi:docname="penguin.svg"
   inkscape:export-filename="..\oco\penguin.png"
   inkscape:export-xdpi="48"
   inkscape:export-ydpi="48"
   xml:space="preserve"
   xmlns:inkscape="http://www.inkscape.org/namespaces/inkscape"
   xmlns:sodipodi="http://sodipodi.sourceforge.net/DTD/sodipodi-0.dtd"
   xmlns="http://www.w3.org/2000/svg"
   xmlns:svg="http://www.w3.org/2000/svg"
   xmlns:rdf="http://www.w3.org/1999/02/22-rdf-syntax-ns#"
   xmlns:cc="http://creativecommons.org/ns#"
   xmlns:dc="http://purl.org/dc/elements/1.1/"><defs
     id="defs2"><inkscape:path-effect
       effect="mirror_symmetry"
       start_point="4.2333333,0"
       end_point="4.2333333,8.4666667"
       center_point="4.2333333,4.2333333"
       id="path-effect897"
       is_visible="true"
       mode="vertical"
       discard_orig_path="false"
       fuse_paths="false"
       oposite_fuse="false" /><inkscape:path-effect
       effect="mirror_symmetry"
       start_point="4.2328811,1.6730093"
       end_point="4.2328811,6.1768975"
       center_point="4.2328811,3.9249534"
       id="path-effect862"
       is_visible="true"
       mode="free"
       discard_orig_path="false"
       fuse_paths="false"
       oposite_fuse="false" /><inkscape:path-effect
       effect="mirror_symmetry"
       start_point="4.2333333,0"
       end_point="4.2333333,8.4666667"
       center_point="4.2333333,4.2333333"
       id="path-effect858"
       is_visible="true"
       mode="vertical"
       discard_orig_path="false"
       fuse_paths="false"
       oposite_fuse="false" /><inkscape:path-effect
       effect="mirror_symmetry"
       start_point="4.2333333,0"
       end_point="4.2333333,8.4666667"
       center_point="4.2333333,4.2333333"
       id="path-effect854"
       is_visible="true"
       mode="vertical"
       discard_orig_path="false"
       fuse_paths="false"
       oposite_fuse="false" /><style
       id="style1399">.cls-1{fill:#e3e3e3;}</style><style
       id="style1399-4">.cls-1{fill:#e3e3e3;}</style><style
       id="style1399-8">.cls-1{fill:#e3e3e3;}</style><style
       id="style1399-4-5">.cls-1{fill:#e3e3e3;}</style></defs><sodipodi:namedview
     id="base"
     pagecolor="#ffffff"
     bordercolor="#666666"
     borderopacity="1.0"
     inkscape:pageopacity="0.0"
     inkscape:pageshadow="2"
     inkscape:zoom="17.715232"
     inkscape:cx="-22.494766"
     inkscape:cy="17.499065"
     inkscape:document-units="mm"
     inkscape:current-layer="svg8"
     showgrid="false"
     units="px"
     inkscape:window-width="3440"
     inkscape:window-height="1369"
     inkscape:window-x="1912"
     inkscape:window-y="-8"
     inkscape:window-maximized="1"
     inkscape:document-rotation="0"
     inkscape:snap-nodes="false"
     inkscape:snap-bbox="true"
     inkscape:bbox-paths="true"
     inkscape:snap-bbox-edge-midpoints="true"
     inkscape:bbox-nodes="true"
     inkscape:snap-bbox-midpoints="true"
     inkscape:showpageshadow="0"
     inkscape:pagecheckerboard="0"
     inkscape:deskcolor="#d1d1d1" /><metadata
     id="metadata5"><rdf:RDF><cc:Work
         rdf:about=""><dc:format>image/svg+xml</dc:format><dc:type
           rdf:resource="http://purl.org/dc/dcmitype/StillImage" /></cc:Work></rdf:RDF></metadata><path
     id="path2104"
     style="display:inline;fill:#b1b1b1;fill-opacity:1;stroke:none;stroke-width:0.852727;stroke-linecap:round;stroke-linejoin:round"
     d="M 4.2327296,-0.01493531 A 4.2333144,4.2333144 0 0 0 4.579019e-8,4.2177944 4.2333144,4.2333144 0 0 0 4.2327296,8.4517314 4.2333144,4.2333144 0 0 0 8.4666666,4.2177944 4.2333144,4.2333144 0 0 0 4.2327296,-0.01493531 Z M 2.3336755,2.0809057 c 0.9012141,4.791e-4 1.633884,0.7142076 1.6684633,1.6068919 -0.1557309,0.019601 -0.2831764,0.060366 -0.3187224,0.121935 -0.1043385,0.1807216 0.340636,0.9513382 0.5493132,0.951338 0.2086793,0 0.6536513,-0.7706176 0.5493133,-0.951338 C 4.7516541,3.7570977 4.6545341,3.7206385 4.5297209,3.6986632 4.5585495,2.8001799 5.2950436,2.0806175 6.2005989,2.0809057 7.12461,2.0806117 7.8741852,2.8301862 7.8738913,3.7541982 7.8734004,4.6776552 7.124055,5.4265776 6.2005989,5.4262834 H 2.3336755 C 1.4102183,5.4265776 0.66087402,4.6776552 0.66038318,3.7541982 0.66008904,2.8301862 1.4096635,2.0806117 2.3336755,2.0809057 Z M 2.2986645,3.4547923 C 2.1334508,3.4544474 1.9984913,3.58778 1.9980514,3.7529909 1.9977056,3.9187606 2.1328955,4.0527426 2.2986645,4.0523968 2.4638779,4.0519569 2.5972079,3.9182036 2.596863,3.7529909 2.5964248,3.5883332 2.4633233,3.4552305 2.2986645,3.4547923 Z m 3.9309091,0 C 6.0649136,3.4552305 5.9318133,3.5883337 5.931375,3.7529909 5.9310302,3.9182046 6.064358,4.0519569 6.2295736,4.0523968 6.3953433,4.0527426 6.5293253,3.9187597 6.5289796,3.7529909 6.5285397,3.5877772 6.3947864,3.4544474 6.2295736,3.4547923 Z" /></svg>
