<?xml version="1.0" encoding="UTF-8" standalone="no"?>
<!-- Created with Inkscape (http://www.inkscape.org/) -->

<svg
   width="32"
   height="32"
   viewBox="0 0 8.4666666 8.4666666"
   version="1.1"
   id="svg8"
   inkscape:version="1.1 (c68e22c387, 2021-05-23)"
   sodipodi:docname="pick_audio.svg"
   inkscape:export-filename="D:\DEV_SRC\RxOT\DuAEF\DuAEF_Duik\icons\w16\w16_effector.png"
   inkscape:export-xdpi="48"
   inkscape:export-ydpi="48"
   xmlns:inkscape="http://www.inkscape.org/namespaces/inkscape"
   xmlns:sodipodi="http://sodipodi.sourceforge.net/DTD/sodipodi-0.dtd"
   xmlns="http://www.w3.org/2000/svg"
   xmlns:svg="http://www.w3.org/2000/svg"
   xmlns:rdf="http://www.w3.org/1999/02/22-rdf-syntax-ns#"
   xmlns:cc="http://creativecommons.org/ns#"
   xmlns:dc="http://purl.org/dc/elements/1.1/">
  <defs
     id="defs2">
    <style
       id="style1399">.cls-1{fill:#e3e3e3;}</style>
    <style
       id="style1399-4">.cls-1{fill:#e3e3e3;}</style>
    <style
       id="style1399-8">.cls-1{fill:#e3e3e3;}</style>
    <style
       id="style1399-4-5">.cls-1{fill:#e3e3e3;}</style>
    <style
       id="style1399-0">.cls-1{fill:#e3e3e3;}</style>
    <style
       id="style1399-28">.cls-1{fill:#e3e3e3;}</style>
    <style
       id="style1399-1">.cls-1{fill:#e3e3e3;}</style>
    <style
       id="style1399-5">.cls-1{fill:#e3e3e3;}</style>
    <style
       id="style1399-8-6">.cls-1{fill:#e3e3e3;}</style>
    <style
       id="style1399-7">.cls-1{fill:#e3e3e3;}</style>
    <style
       id="style1399-1-5">.cls-1{fill:#e3e3e3;}</style>
    <style
       id="style1399-5-6">.cls-1{fill:#e3e3e3;}</style>
    <style
       id="style1399-8-9">.cls-1{fill:#e3e3e3;}</style>
    <style
       id="style1399-2">.cls-1{fill:#e3e3e3;}</style>
    <style
       id="style1399-1-1">.cls-1{fill:#e3e3e3;}</style>
    <style
       id="style1399-5-5">.cls-1{fill:#e3e3e3;}</style>
    <style
       id="style1399-8-99">.cls-1{fill:#e3e3e3;}</style>
    <style
       id="style857">.cls-1{fill:#e52120;}.cls-1,.cls-2,.cls-3,.cls-4,.cls-5{stroke:#000;stroke-miterlimit:10;stroke-width:1.2px;}.cls-2{fill:#6dbc88;}.cls-3{fill:#701034;}.cls-4{fill:#51aae0;}.cls-5{fill:none;}</style>
    <style
       id="style1399-3">.cls-1{fill:#e3e3e3;}</style>
    <style
       id="style1399-4-6">.cls-1{fill:#e3e3e3;}</style>
    <style
       id="style1399-8-5">.cls-1{fill:#e3e3e3;}</style>
    <style
       id="style1399-4-5-0">.cls-1{fill:#e3e3e3;}</style>
    <style
       id="style1399-0-6">.cls-1{fill:#e3e3e3;}</style>
    <style
       id="style1399-28-2">.cls-1{fill:#e3e3e3;}</style>
    <style
       id="style1399-1-6">.cls-1{fill:#e3e3e3;}</style>
    <style
       id="style1399-5-2">.cls-1{fill:#e3e3e3;}</style>
    <style
       id="style1399-8-6-7">.cls-1{fill:#e3e3e3;}</style>
    <style
       id="style1399-7-3">.cls-1{fill:#e3e3e3;}</style>
    <style
       id="style1399-1-5-5">.cls-1{fill:#e3e3e3;}</style>
    <style
       id="style1399-5-6-5">.cls-1{fill:#e3e3e3;}</style>
    <style
       id="style1399-8-9-5">.cls-1{fill:#e3e3e3;}</style>
    <style
       id="style1399-2-0">.cls-1{fill:#e3e3e3;}</style>
    <style
       id="style1399-1-1-5">.cls-1{fill:#e3e3e3;}</style>
    <style
       id="style1399-5-5-2">.cls-1{fill:#e3e3e3;}</style>
    <style
       id="style1399-8-99-4">.cls-1{fill:#e3e3e3;}</style>
    <style
       id="style857-5">.cls-1{fill:#e52120;}.cls-1,.cls-2,.cls-3,.cls-4,.cls-5{stroke:#000;stroke-miterlimit:10;stroke-width:1.2px;}.cls-2{fill:#6dbc88;}.cls-3{fill:#701034;}.cls-4{fill:#51aae0;}.cls-5{fill:none;}</style>
    <style
       id="style1399-52">.cls-1{fill:#e3e3e3;}</style>
    <style
       id="style1399-4-4">.cls-1{fill:#e3e3e3;}</style>
    <style
       id="style1399-8-0">.cls-1{fill:#e3e3e3;}</style>
    <style
       id="style1399-4-5-1">.cls-1{fill:#e3e3e3;}</style>
    <style
       id="style1399-9">.cls-1{fill:#e3e3e3;}</style>
    <style
       id="style1399-4-6-28">.cls-1{fill:#e3e3e3;}</style>
    <style
       id="style1399-8-4">.cls-1{fill:#e3e3e3;}</style>
    <style
       id="style1399-4-5-3">.cls-1{fill:#e3e3e3;}</style>
    <style
       id="style1399-88">.cls-1{fill:#e3e3e3;}</style>
    <style
       id="style1399-3-8">.cls-1{fill:#e3e3e3;}</style>
    <style
       id="style1399-94">.cls-1{fill:#e3e3e3;}</style>
    <style
       id="style1399-5-3">.cls-1{fill:#e3e3e3;}</style>
    <style
       id="style1399-46">.cls-1{fill:#e3e3e3;}</style>
    <style
       id="style1399-4-2">.cls-1{fill:#e3e3e3;}</style>
    <style
       id="style1399-8-5-8">.cls-1{fill:#e3e3e3;}</style>
    <style
       id="style1399-4-5-8">.cls-1{fill:#e3e3e3;}</style>
    <style
       id="style1399-9-6">.cls-1{fill:#e3e3e3;}</style>
    <style
       id="style1399-4-6-2">.cls-1{fill:#e3e3e3;}</style>
    <style
       id="style1399-8-4-8">.cls-1{fill:#e3e3e3;}</style>
    <style
       id="style1399-4-5-3-4">.cls-1{fill:#e3e3e3;}</style>
    <style
       id="style1399-88-7">.cls-1{fill:#e3e3e3;}</style>
    <style
       id="style1399-3-2">.cls-1{fill:#e3e3e3;}</style>
    <style
       id="style1399-94-4">.cls-1{fill:#e3e3e3;}</style>
    <style
       id="style1399-5-0">.cls-1{fill:#e3e3e3;}</style>
    <style
       id="style857-6">.cls-1{fill:#e52120;}.cls-1,.cls-2,.cls-3,.cls-4,.cls-5{stroke:#000;stroke-miterlimit:10;stroke-width:1.2px;}.cls-2{fill:#6dbc88;}.cls-3{fill:#701034;}.cls-4{fill:#51aae0;}.cls-5{fill:none;}</style>
    <style
       id="style857-2">.cls-1{fill:#e52120;}.cls-1,.cls-2,.cls-3,.cls-4,.cls-5{stroke:#000;stroke-miterlimit:10;stroke-width:1.2px;}.cls-2{fill:#6dbc88;}.cls-3{fill:#701034;}.cls-4{fill:#51aae0;}.cls-5{fill:none;}</style>
    <style
       id="style1399-36">.cls-1{fill:#e3e3e3;}</style>
    <style
       id="style1399-4-7">.cls-1{fill:#e3e3e3;}</style>
    <style
       id="style1399-8-61">.cls-1{fill:#e3e3e3;}</style>
    <style
       id="style1399-4-5-03">.cls-1{fill:#e3e3e3;}</style>
    <style
       id="style1399-9-9">.cls-1{fill:#e3e3e3;}</style>
    <style
       id="style1399-4-6-3">.cls-1{fill:#e3e3e3;}</style>
    <style
       id="style1399-8-4-87">.cls-1{fill:#e3e3e3;}</style>
    <style
       id="style1399-4-5-3-9">.cls-1{fill:#e3e3e3;}</style>
    <style
       id="style1399-88-0">.cls-1{fill:#e3e3e3;}</style>
    <style
       id="style1399-3-23">.cls-1{fill:#e3e3e3;}</style>
    <style
       id="style1399-94-1">.cls-1{fill:#e3e3e3;}</style>
    <style
       id="style1399-5-22">.cls-1{fill:#e3e3e3;}</style>
  </defs>
  <sodipodi:namedview
     id="base"
     pagecolor="#ffffff"
     bordercolor="#666666"
     borderopacity="1.0"
     inkscape:pageopacity="0.0"
     inkscape:pageshadow="2"
     inkscape:zoom="10.900697"
     inkscape:cx="-3.6236215"
     inkscape:cy="9.6782803"
     inkscape:document-units="mm"
     inkscape:current-layer="svg8"
     showgrid="false"
     units="px"
     inkscape:window-width="1920"
     inkscape:window-height="1027"
     inkscape:window-x="-8"
     inkscape:window-y="-8"
     inkscape:window-maximized="1"
     inkscape:snap-bbox="true"
     inkscape:bbox-paths="true"
     inkscape:bbox-nodes="true"
     inkscape:snap-bbox-edge-midpoints="true"
     inkscape:snap-bbox-midpoints="true"
     inkscape:snap-nodes="false"
     inkscape:snap-others="true"
     inkscape:snap-object-midpoints="true"
     inkscape:snap-page="true"
     inkscape:pagecheckerboard="1">
    <sodipodi:guide
       position="8.4666666,0"
       orientation="-32,0"
       id="guide854"
       inkscape:locked="false" />
    <sodipodi:guide
       position="9.9384114,8.4666666"
       orientation="0,-32"
       id="guide856"
       inkscape:locked="false" />
    <sodipodi:guide
       position="0,8.4666814"
       orientation="32,0"
       id="guide858"
       inkscape:locked="false" />
  </sodipodi:namedview>
  <metadata
     id="metadata5">
    <rdf:RDF>
      <cc:Work
         rdf:about="">
        <dc:format>image/svg+xml</dc:format>
        <dc:type
           rdf:resource="http://purl.org/dc/dcmitype/StillImage" />
      </cc:Work>
    </rdf:RDF>
  </metadata>
  <style
     id="style815"
     type="text/css">
	.st0{fill:#00005B;}
	.st1{fill:#9999FF;}
</style>
  <style
     id="style815-2"
     type="text/css">
	.st0{fill:#00005B;}
	.st1{fill:#9999FF;}
</style>
  <path
     id="rect5813"
     style="fill:#b1b1b1;fill-opacity:1;stroke:none;stroke-width:2;stroke-linecap:round;stroke-linejoin:round;stroke-dashoffset:1.32076"
     d="M 28.478516 0 C 27.577195 0 26.675551 0.34343041 25.988281 1.03125 L 23.160156 3.859375 L 22.679688 3.3789062 C 22.333392 3.0326108 21.77634 3.0373806 21.435547 3.3789062 L 19.931641 4.8828125 C 19.587915 5.2265379 19.587915 5.7832263 19.931641 6.1269531 L 25.873047 12.068359 C 26.219342 12.414655 26.776397 12.409885 27.117188 12.068359 L 28.621094 10.564453 C 28.964819 10.220728 28.964819 9.6640394 28.621094 9.3203125 L 28.140625 8.8398438 L 30.96875 6.0117188 C 32.344756 4.636812 32.34434 2.4065237 30.96875 1.03125 C 30.28148 0.34343419 29.379835 0 28.478516 0 z M 13.416016 1.4609375 C 12.643403 1.4609375 12.021484 2.0828566 12.021484 2.8554688 L 12.021484 13.080078 C 12.187174 12.11029 12.647029 11.202582 13.353516 10.496094 L 15.998047 7.8515625 L 15.998047 2.8554688 C 15.998047 2.0828566 15.376128 1.4609375 14.603516 1.4609375 L 13.416016 1.4609375 z M 7.4042969 7.5585938 C 6.6316847 7.5585938 6.0097656 8.1805129 6.0097656 8.953125 L 6.0097656 23.046875 C 6.0097656 23.819487 6.6316847 24.441406 7.4042969 24.441406 L 8.59375 24.441406 C 9.3663621 24.441406 9.9882812 23.819487 9.9882812 23.046875 L 9.9882812 8.953125 C 9.9882813 8.1805129 9.3663621 7.5585937 8.59375 7.5585938 L 7.4042969 7.5585938 z M 19.724609 7.5800781 L 15.080078 12.224609 C 14.639874 12.664814 14.392578 13.261875 14.392578 13.884766 L 14.392578 15.554688 L 13.21875 17.607422 L 14.392578 18.783203 L 16.445312 17.607422 L 18.115234 17.607422 C 18.737757 17.607422 19.335186 17.362078 19.775391 16.921875 L 24.419922 12.275391 L 19.724609 7.5800781 z M 1.3945312 10.386719 C 0.62191922 10.386719 -5.9211895e-16 11.008638 0 11.78125 L 0 20.21875 C 0 20.991362 0.62191922 21.613281 1.3945312 21.613281 L 2.5820312 21.613281 C 3.3546434 21.613281 3.9765625 20.991362 3.9765625 20.21875 L 3.9765625 11.78125 C 3.9765625 11.008638 3.3546434 10.386719 2.5820312 10.386719 L 1.3945312 10.386719 z M 31.001953 13.083984 C 30.45109 13.103005 30.011719 13.717976 30.011719 14.478516 L 30.011719 17.521484 C 30.011719 18.294097 30.464222 18.916016 31.027344 18.916016 C 31.590465 18.916016 32.044922 18.294097 32.044922 17.521484 L 32.044922 14.478516 C 32.044922 13.705903 31.590465 13.083984 31.027344 13.083984 C 31.018545 13.083984 31.010697 13.083682 31.001953 13.083984 z M 28.107422 14.306641 C 27.380702 14.648847 26.532856 14.637415 25.71875 14.431641 L 24.130859 16.019531 L 24.130859 21.322266 C 24.130859 22.094878 24.752778 22.716797 25.525391 22.716797 L 26.712891 22.716797 C 27.485503 22.716797 28.107422 22.094878 28.107422 21.322266 L 28.107422 14.306641 z M 21.919922 18.230469 L 21.503906 18.646484 C 20.62353 19.526856 19.433911 20.025587 18.197266 20.046875 C 18.449046 20.405986 18.864076 20.640625 19.337891 20.640625 L 20.525391 20.640625 C 21.298003 20.640625 21.919922 20.018706 21.919922 19.246094 L 21.919922 18.230469 z M 12.021484 19.861328 L 12.021484 29.144531 C 12.021484 29.917143 12.643403 30.539062 13.416016 30.539062 L 14.603516 30.539062 C 15.376128 30.539063 15.998047 29.917143 15.998047 29.144531 L 15.998047 20.673828 L 15.605469 20.898438 A 2.4400748 2.4400748 0 0 1 12.667969 20.507812 L 12.021484 19.861328 z "
     transform="scale(0.26458333)"
     inkscape:export-filename="D:\DEV_SRC\RxOT\DuAEF\DuAEF_Duik\icons\w16\w16_pick_audio.png"
     inkscape:export-xdpi="48"
     inkscape:export-ydpi="48" />
  <style
     type="text/css"
     id="style815-3">
	.st0{fill:#00005B;}
	.st1{fill:#9999FF;}
</style>
  <style
     type="text/css"
     id="style815-2-6">
	.st0{fill:#00005B;}
	.st1{fill:#9999FF;}
</style>
</svg>
