<?xml version="1.0" encoding="UTF-8" standalone="no"?>
<!-- Created with Inkscape (http://www.inkscape.org/) -->

<svg
   width="32"
   height="32"
   viewBox="0 0 8.4666666 8.4666666"
   version="1.1"
   id="svg8"
   inkscape:version="1.1.1 (3bf5ae0d25, 2021-09-20)"
   sodipodi:docname="recent.svg"
   inkscape:export-filename="D:\RxLab\src\RxOT\DuAEF\DuAEF_Duik\inc\icons\w12\w12_recent.png"
   inkscape:export-xdpi="36.000004"
   inkscape:export-ydpi="36.000004"
   xmlns:inkscape="http://www.inkscape.org/namespaces/inkscape"
   xmlns:sodipodi="http://sodipodi.sourceforge.net/DTD/sodipodi-0.dtd"
   xmlns="http://www.w3.org/2000/svg"
   xmlns:svg="http://www.w3.org/2000/svg"
   xmlns:rdf="http://www.w3.org/1999/02/22-rdf-syntax-ns#"
   xmlns:cc="http://creativecommons.org/ns#"
   xmlns:dc="http://purl.org/dc/elements/1.1/">
  <defs
     id="defs2" />
  <sodipodi:namedview
     id="base"
     pagecolor="#ffffff"
     bordercolor="#666666"
     borderopacity="1.0"
     inkscape:pageopacity="0.0"
     inkscape:pageshadow="2"
     inkscape:zoom="5.6568543"
     inkscape:cx="8.396893"
     inkscape:cy="-6.9826794"
     inkscape:document-units="mm"
     inkscape:current-layer="layer1"
     showgrid="false"
     units="px"
     inkscape:window-width="3440"
     inkscape:window-height="1369"
     inkscape:window-x="1912"
     inkscape:window-y="-8"
     inkscape:window-maximized="1"
     inkscape:pagecheckerboard="0">
    <sodipodi:guide
       position="8.4666666,0"
       orientation="-32,0"
       id="guide854"
       inkscape:locked="false" />
    <sodipodi:guide
       position="8.4666666,8.4666666"
       orientation="0,-32"
       id="guide856"
       inkscape:locked="false" />
    <sodipodi:guide
       position="0,8.4666814"
       orientation="32,0"
       id="guide858"
       inkscape:locked="false" />
  </sodipodi:namedview>
  <metadata
     id="metadata5">
    <rdf:RDF>
      <cc:Work
         rdf:about="">
        <dc:format>image/svg+xml</dc:format>
        <dc:type
           rdf:resource="http://purl.org/dc/dcmitype/StillImage" />
      </cc:Work>
    </rdf:RDF>
  </metadata>
  <g
     inkscape:label="Layer 1"
     inkscape:groupmode="layer"
     id="layer1"
     transform="translate(0,-288.53334)">
    <path
       id="path819"
       d="m 4.2796519,288.53334 c -2.3357367,0 -4.22819585,1.89246 -4.22819585,4.22819 0,2.33575 1.89245915,4.22821 4.22819585,4.22821 2.3357372,0 4.2281963,-1.89246 4.2281963,-4.22821 0,-2.33573 -1.8924591,-4.22819 -4.2281963,-4.22819 z m 1.5768783,5.3364 v 0 l -0.3409833,0.42621 a 0.27278684,0.27278684 0 0 1 -0.383436,0.0427 v 0 L 3.989816,293.49093 a 0.6819671,0.6819671 0 0 1 -0.2557387,-0.53245 v -2.65199 a 0.27278684,0.27278684 0 0 1 0.2727873,-0.27278 h 0.5455745 a 0.27278684,0.27278684 0 0 1 0.2727857,0.27278 v 2.45507 l 0.9888527,0.7246 a 0.27278684,0.27278684 0 0 1 0.042453,0.38361 z"
       inkscape:connector-curvature="0"
       style="fill:#b1b1b1;fill-opacity:1;stroke-width:0.0170492" />
  </g>
</svg>
