<?xml version="1.0" encoding="UTF-8" standalone="no"?>
<!-- Created with Inkscape (http://www.inkscape.org/) -->

<svg
   width="32"
   height="32"
   viewBox="0 0 8.4666666 8.4666666"
   version="1.1"
   id="svg8"
   inkscape:version="1.1.1 (3bf5ae0d25, 2021-09-20)"
   sodipodi:docname="rooster.svg"
   inkscape:export-filename="D:\RxLab\src\RxOT\After-Effects\Duik\inc\oco\rooster.png"
   inkscape:export-xdpi="48"
   inkscape:export-ydpi="48"
   xmlns:inkscape="http://www.inkscape.org/namespaces/inkscape"
   xmlns:sodipodi="http://sodipodi.sourceforge.net/DTD/sodipodi-0.dtd"
   xmlns="http://www.w3.org/2000/svg"
   xmlns:svg="http://www.w3.org/2000/svg"
   xmlns:rdf="http://www.w3.org/1999/02/22-rdf-syntax-ns#"
   xmlns:cc="http://creativecommons.org/ns#"
   xmlns:dc="http://purl.org/dc/elements/1.1/">
  <defs
     id="defs2">
    <inkscape:path-effect
       effect="taper_stroke"
       id="path-effect879"
       is_visible="true"
       stroke_width="1.77"
       attach_start="1e-07"
       end_offset="1.0001633"
       smoothing="0.5"
       jointype="extrapolated"
       miter_limit="100" />
    <inkscape:path-effect
       effect="mirror_symmetry"
       start_point="4.2333333,0"
       end_point="4.2333333,8.4666667"
       center_point="4.2333333,4.2333333"
       id="path-effect897"
       is_visible="true"
       mode="vertical"
       discard_orig_path="false"
       fuse_paths="false"
       oposite_fuse="false" />
    <inkscape:path-effect
       effect="mirror_symmetry"
       start_point="4.2328811,1.6730093"
       end_point="4.2328811,6.1768975"
       center_point="4.2328811,3.9249534"
       id="path-effect862"
       is_visible="true"
       mode="free"
       discard_orig_path="false"
       fuse_paths="false"
       oposite_fuse="false" />
    <inkscape:path-effect
       effect="mirror_symmetry"
       start_point="4.2333333,0"
       end_point="4.2333333,8.4666667"
       center_point="4.2333333,4.2333333"
       id="path-effect858"
       is_visible="true"
       mode="vertical"
       discard_orig_path="false"
       fuse_paths="false"
       oposite_fuse="false" />
    <inkscape:path-effect
       effect="mirror_symmetry"
       start_point="4.2333333,0"
       end_point="4.2333333,8.4666667"
       center_point="4.2333333,4.2333333"
       id="path-effect854"
       is_visible="true"
       mode="vertical"
       discard_orig_path="false"
       fuse_paths="false"
       oposite_fuse="false" />
    <style
       id="style1399">.cls-1{fill:#e3e3e3;}</style>
    <style
       id="style1399-4">.cls-1{fill:#e3e3e3;}</style>
    <style
       id="style1399-8">.cls-1{fill:#e3e3e3;}</style>
    <style
       id="style1399-4-5">.cls-1{fill:#e3e3e3;}</style>
    <inkscape:path-effect
       oposite_fuse="false"
       fuse_paths="false"
       discard_orig_path="false"
       mode="vertical"
       is_visible="true"
       id="path-effect897-3"
       center_point="4.2333333,4.2333333"
       end_point="4.2333333,8.4666667"
       start_point="4.2333333,0"
       effect="mirror_symmetry" />
    <inkscape:path-effect
       oposite_fuse="false"
       fuse_paths="false"
       discard_orig_path="false"
       mode="free"
       is_visible="true"
       id="path-effect862-8"
       center_point="4.2328811,3.9249534"
       end_point="4.2328811,6.1768975"
       start_point="4.2328811,1.6730093"
       effect="mirror_symmetry" />
    <inkscape:path-effect
       oposite_fuse="false"
       fuse_paths="false"
       discard_orig_path="false"
       mode="vertical"
       is_visible="true"
       id="path-effect858-5"
       center_point="4.2333333,4.2333333"
       end_point="4.2333333,8.4666667"
       start_point="4.2333333,0"
       effect="mirror_symmetry" />
    <inkscape:path-effect
       oposite_fuse="false"
       fuse_paths="false"
       discard_orig_path="false"
       mode="vertical"
       is_visible="true"
       id="path-effect854-6"
       center_point="4.2333333,4.2333333"
       end_point="4.2333333,8.4666667"
       start_point="4.2333333,0"
       effect="mirror_symmetry" />
    <style
       id="style1399-1">.cls-1{fill:#e3e3e3;}</style>
    <style
       id="style1399-4-1">.cls-1{fill:#e3e3e3;}</style>
    <style
       id="style1399-8-5">.cls-1{fill:#e3e3e3;}</style>
    <style
       id="style1399-4-5-9">.cls-1{fill:#e3e3e3;}</style>
  </defs>
  <sodipodi:namedview
     id="base"
     pagecolor="#ffffff"
     bordercolor="#666666"
     borderopacity="1.0"
     inkscape:pageopacity="0.0"
     inkscape:pageshadow="2"
     inkscape:zoom="22.627418"
     inkscape:cx="14.208426"
     inkscape:cy="18.11961"
     inkscape:document-units="mm"
     inkscape:current-layer="svg8"
     showgrid="false"
     units="px"
     inkscape:window-width="1706"
     inkscape:window-height="1168"
     inkscape:window-x="803"
     inkscape:window-y="66"
     inkscape:window-maximized="0"
     inkscape:pagecheckerboard="0">
    <sodipodi:guide
       position="8.4666666,0"
       orientation="-32,0"
       id="guide854"
       inkscape:locked="false" />
    <sodipodi:guide
       position="0,8.4666814"
       orientation="0,-32"
       id="guide856"
       inkscape:locked="false" />
    <sodipodi:guide
       position="0,8.4666814"
       orientation="32,0"
       id="guide858"
       inkscape:locked="false" />
  </sodipodi:namedview>
  <metadata
     id="metadata5">
    <rdf:RDF>
      <cc:Work
         rdf:about="">
        <dc:format>image/svg+xml</dc:format>
        <dc:type
           rdf:resource="http://purl.org/dc/dcmitype/StillImage" />
      </cc:Work>
    </rdf:RDF>
  </metadata>
  <path
     id="path967"
     style="fill:#b1b1b1;fill-opacity:1;stroke:none;stroke-width:1.09719px;stroke-linecap:butt;stroke-linejoin:miter;stroke-opacity:1"
     d="M 1.1074219,1.3222656 C 0.51870901,1.312107 0.03288994,1.7804506 0.02148438,2.3691406 0.01133278,2.9586021 0.48085434,3.4447361 1.0703125,3.4550781 c 0,0 0.8742851,0.023233 1.8535156,0.4648438 C 3.5168129,4.1873447 4.1116802,4.5677495 4.5722656,5.2109375 4.2776677,5.0282332 3.9835257,4.8832176 3.6992188,4.7695312 2.373,4.2392145 1.1894531,4.3339844 1.1894531,4.3339844 0.60324298,4.3793811 0.16405165,4.8901702 0.20703125,5.4765625 c 0.0453802,0.5870303 0.55740419,1.0265321 1.14453125,0.9824219 0,0 0.6948278,-0.049692 1.5566406,0.2949218 C 3.591197,7.0270154 4.3251429,7.3168895 4.8632812,8.3622858 3.3465351,7.3648975 1.8964844,7.2490046 1.8964844,7.2490045 1.3075062,7.2187501 0.80554449,7.67174 0.77539062,8.2607233 0.74847436,8.8474659 1.200526,9.3457699 1.7871094,9.3759577 c 0,0 1.3910441,0.00763 2.6269531,1.2910153 -0.9581356,-0.39562 -1.6757811,-0.457031 -1.6757813,-0.457031 -0.5889782,-0.03025 -1.0909399,0.422736 -1.1210937,1.011719 -0.030254,0.588978 0.4227357,1.090939 1.0117187,1.121093 0,0 2.2968959,0.181977 3.6796876,3.067402 0.1421986,2.737808 0.4762222,3.886068 1.7326896,5.22205 1.9392124,2.061933 5.0500346,3.15515 7.8805916,3.163117 2.358394,0.0066 5.152562,-0.721697 6.580768,-2.598474 0.951595,-1.250471 1.209133,-2.918776 0.5,-4.687524 -0.09375,-0.441147 0.170591,-0.878218 0.589843,-0.977766 0.418871,-0.09745 0.833057,0.178233 0.927735,0.618293 0.787639,2.07924 0.406459,4.507501 -0.859375,6.141848 -1.671163,2.157677 -4.8558,2.814562 -7.567096,3.126385 -2.308471,0.265495 -5.460849,-0.495114 -6.8789062,-1.129771 1.5534332,1.344086 3.7422782,3.414972 6.8281252,3.772233 v 3.330078 c 1e-6,0.31203 0.250471,0.5625 0.5625,0.5625 h 0.755859 c 0.312027,0 0.5625,-0.250472 0.5625,-0.5625 v -3.183594 c 0.450893,0.01943 0.918345,0.0293 1.402344,0.0293 10.078132,0 9.17578,-11.219959 9.175781,-13.867187 -1e-6,-0.463203 0.04027,-0.858023 0.101563,-1.205079 0.189762,0.103352 0.401107,0.15809 0.617187,0.158204 0.714613,-2.13e-4 1.294699,-0.58031 1.294922,-1.294922 5.5e-5,-0.397619 -0.18326,-0.774099 -0.496094,-1.019532 0.324,-0.03337 1.260835,-0.09362 1.980469,0.259766 -0.219758,-1.9424355 -1.521484,-2.6757811 -1.521484,-2.6757811 0,0 0.134989,-0.9389175 -0.451172,-1.7890625 0.363433,-0.2395533 0.582091,-0.6467506 0.582031,-1.0820313 7.33e-4,-0.715288 -0.579633,-1.2946981 -1.294922,-1.2949219 -0.143868,2.23e-5 -0.285901,0.023322 -0.421875,0.070313 C 28.706103,3.9852683 28.21958,3.646432 27.675781,3.6464844 27.150229,3.647106 26.677018,3.9645486 26.478516,4.4511719 26.266316,4.3108134 26.018091,4.2360681 25.763672,4.2363281 25.04906,4.2365519 24.468975,4.8166385 24.46875,5.53125 c 5.87e-4,0.3082624 0.111831,0.6058385 0.3125,0.8398438 -2.349659,2.3820226 -2.106541,8.7219872 -6.708984,9.2753902 -2.888453,0.347312 -5.211915,0.05408 -7.108259,-1.44604 C 8.7130934,12.419836 8.1049032,9.8427635 7.3515625,6.3847656 6.8248173,3.9668908 5.203415,2.6032596 3.8007812,1.9707031 2.3981475,1.3381467 1.1074219,1.3222656 1.1074219,1.3222656 Z M 27.746094,7.2148438 c 0.489864,0 0.886719,0.3968545 0.886718,0.8867187 0,0.4898642 -0.396854,0.8867188 -0.886718,0.8867187 -0.489865,0 -0.888672,-0.3968545 -0.888672,-0.8867187 0,-0.4898642 0.398807,-0.8867187 0.888672,-0.8867187 z"
     transform="scale(0.26458333)"
     sodipodi:nodetypes="cccscscccscccccccccaaacccaacccssscsscccccccccccccccsasscsssss" />
</svg>
