<?xml version="1.0" encoding="UTF-8" standalone="no"?>
<!-- Created with Inkscape (http://www.inkscape.org/) -->

<svg
   width="32"
   height="32"
   viewBox="0 0 8.4666666 8.4666666"
   version="1.1"
   id="svg8"
   inkscape:version="1.2.2 (732a01da63, 2022-12-09)"
   sodipodi:docname="scorpion.svg"
   xml:space="preserve"
   inkscape:export-filename="..\oco\scorpion.png"
   inkscape:export-xdpi="48"
   inkscape:export-ydpi="48"
   xmlns:inkscape="http://www.inkscape.org/namespaces/inkscape"
   xmlns:sodipodi="http://sodipodi.sourceforge.net/DTD/sodipodi-0.dtd"
   xmlns="http://www.w3.org/2000/svg"
   xmlns:svg="http://www.w3.org/2000/svg"
   xmlns:rdf="http://www.w3.org/1999/02/22-rdf-syntax-ns#"
   xmlns:cc="http://creativecommons.org/ns#"
   xmlns:dc="http://purl.org/dc/elements/1.1/"><defs
     id="defs2"><inkscape:path-effect
       effect="taper_stroke"
       id="path-effect879"
       is_visible="true"
       stroke_width="1.77"
       attach_start="1e-07"
       end_offset="1.0001633"
       smoothing="0.5"
       jointype="extrapolated"
       miter_limit="100" /><inkscape:path-effect
       effect="mirror_symmetry"
       start_point="4.2333333,0"
       end_point="4.2333333,8.4666667"
       center_point="4.2333333,4.2333333"
       id="path-effect897"
       is_visible="true"
       mode="vertical"
       discard_orig_path="false"
       fuse_paths="false"
       oposite_fuse="false" /><inkscape:path-effect
       effect="mirror_symmetry"
       start_point="4.2328811,1.6730093"
       end_point="4.2328811,6.1768975"
       center_point="4.2328811,3.9249534"
       id="path-effect862"
       is_visible="true"
       mode="free"
       discard_orig_path="false"
       fuse_paths="false"
       oposite_fuse="false" /><inkscape:path-effect
       effect="mirror_symmetry"
       start_point="4.2333333,0"
       end_point="4.2333333,8.4666667"
       center_point="4.2333333,4.2333333"
       id="path-effect858"
       is_visible="true"
       mode="vertical"
       discard_orig_path="false"
       fuse_paths="false"
       oposite_fuse="false" /><inkscape:path-effect
       effect="mirror_symmetry"
       start_point="4.2333333,0"
       end_point="4.2333333,8.4666667"
       center_point="4.2333333,4.2333333"
       id="path-effect854"
       is_visible="true"
       mode="vertical"
       discard_orig_path="false"
       fuse_paths="false"
       oposite_fuse="false" /><style
       id="style1399">.cls-1{fill:#e3e3e3;}</style><style
       id="style1399-4">.cls-1{fill:#e3e3e3;}</style><style
       id="style1399-8">.cls-1{fill:#e3e3e3;}</style><style
       id="style1399-4-5">.cls-1{fill:#e3e3e3;}</style><inkscape:path-effect
       oposite_fuse="false"
       fuse_paths="false"
       discard_orig_path="false"
       mode="vertical"
       is_visible="true"
       id="path-effect897-3"
       center_point="4.2333333,4.2333333"
       end_point="4.2333333,8.4666667"
       start_point="4.2333333,0"
       effect="mirror_symmetry" /><inkscape:path-effect
       oposite_fuse="false"
       fuse_paths="false"
       discard_orig_path="false"
       mode="free"
       is_visible="true"
       id="path-effect862-8"
       center_point="4.2328811,3.9249534"
       end_point="4.2328811,6.1768975"
       start_point="4.2328811,1.6730093"
       effect="mirror_symmetry" /><inkscape:path-effect
       oposite_fuse="false"
       fuse_paths="false"
       discard_orig_path="false"
       mode="vertical"
       is_visible="true"
       id="path-effect858-5"
       center_point="4.2333333,4.2333333"
       end_point="4.2333333,8.4666667"
       start_point="4.2333333,0"
       effect="mirror_symmetry" /><inkscape:path-effect
       oposite_fuse="false"
       fuse_paths="false"
       discard_orig_path="false"
       mode="vertical"
       is_visible="true"
       id="path-effect854-6"
       center_point="4.2333333,4.2333333"
       end_point="4.2333333,8.4666667"
       start_point="4.2333333,0"
       effect="mirror_symmetry" /><style
       id="style1399-1">.cls-1{fill:#e3e3e3;}</style><style
       id="style1399-4-1">.cls-1{fill:#e3e3e3;}</style><style
       id="style1399-8-5">.cls-1{fill:#e3e3e3;}</style><style
       id="style1399-4-5-9">.cls-1{fill:#e3e3e3;}</style></defs><sodipodi:namedview
     id="base"
     pagecolor="#ffffff"
     bordercolor="#666666"
     borderopacity="1.0"
     inkscape:pageopacity="0.0"
     inkscape:pageshadow="2"
     inkscape:zoom="22.627418"
     inkscape:cx="22.67161"
     inkscape:cy="14.93763"
     inkscape:document-units="mm"
     inkscape:current-layer="svg8"
     showgrid="false"
     units="px"
     inkscape:window-width="2180"
     inkscape:window-height="1205"
     inkscape:window-x="2919"
     inkscape:window-y="3"
     inkscape:window-maximized="0"
     inkscape:pagecheckerboard="0"
     inkscape:showpageshadow="0"
     inkscape:deskcolor="#d1d1d1"><sodipodi:guide
       position="8.4666666,0"
       orientation="-32,0"
       id="guide854"
       inkscape:locked="false" /><sodipodi:guide
       position="0,8.4666814"
       orientation="0,-32"
       id="guide856"
       inkscape:locked="false" /><sodipodi:guide
       position="0,8.4666814"
       orientation="32,0"
       id="guide858"
       inkscape:locked="false" /></sodipodi:namedview><metadata
     id="metadata5"><rdf:RDF><cc:Work
         rdf:about=""><dc:format>image/svg+xml</dc:format><dc:type
           rdf:resource="http://purl.org/dc/dcmitype/StillImage" /></cc:Work></rdf:RDF></metadata><path
     style="fill:#b1b1b1;fill-opacity:1;stroke-width:0.0161329"
     d="m 3.5707325,8.4361294 c -0.1296795,-0.033995 -0.31825,-0.1407255 -0.31825,-0.1407255 0,0 -0.2022298,0.012242 -0.2761982,0.00832 C 2.7674067,8.2926428 2.6002273,8.181118 2.5067949,7.9905273 2.4668709,7.909087 2.4602915,7.8769168 2.4609528,7.7663768 2.4619176,7.6050476 2.5032379,7.5036228 2.6246257,7.3646221 2.7497499,7.2213434 2.8352685,7.0391964 2.8568083,6.8700945 2.8792376,6.6940106 2.8975973,6.6570002 2.9716798,6.6385313 c 0.075459,-0.018812 0.1166691,0.00699 0.2189875,0.137077 0.1674058,0.2530254 0.3048729,0.5044242 0.3469034,0.7932134 0.084239,-0.011714 0.169461,-0.014191 0.2539968,-0.020238 0.055986,0 0.061123,-0.00402 0.07075,-0.055335 0.0057,-0.030434 0.035659,-0.1058634 0.066555,-0.1676189 L 3.9850459,7.2133509 3.9608576,7.1107436 C 3.9101809,6.89577 3.9375761,6.6310235 4.027614,6.4655943 L 4.069576,6.3884963 3.99302,6.3033473 C 3.8949721,6.1942941 3.7904643,6.0154258 3.7169331,5.8308157 3.6673819,5.7064109 3.6484231,5.6773964 3.5865999,5.6313548 c -0.039791,-0.029634 -0.074531,-0.051413 -0.0772,-0.048399 -0.00267,0.00301 -0.030376,0.061091 -0.06157,0.1290601 C 3.3258197,5.9778618 3.0974743,6.2561223 2.9136818,6.3629259 2.6248346,6.5307779 2.3151216,6.5415218 1.9559363,6.3961507 1.7379784,6.307938 1.6789854,6.2194859 1.7677516,6.1139935 c 0.054461,-0.064725 0.093972,-0.063522 0.2603015,0.00792 0.0737,0.031654 0.189399,0.068851 0.2571088,0.08266 0.1532032,0.031238 0.2881806,0.012942 0.4339646,-0.058828 C 2.9118138,6.0508886 3.1298969,5.7747652 3.2399127,5.4863612 3.3206152,5.274801 3.3297747,5.2839261 3.1338907,5.3807372 2.8753863,5.5084968 2.7117659,5.5522253 2.4842312,5.5543628 2.3281293,5.5558293 2.2796404,5.5498682 2.1785173,5.5167799 2.0293043,5.4679566 1.8466328,5.3475446 1.7459672,5.231655 1.649414,5.1204996 1.5199518,4.9104499 1.507033,4.8439892 1.490231,4.7575502 1.550716,4.6783852 1.6342818,4.6774413 c 0.072708,-8.212e-4 0.097831,0.022026 0.180304,0.1639816 0.096286,0.1657292 0.2424064,0.314211 0.3706491,0.3766381 0.081011,0.039436 0.1207561,0.047842 0.2509091,0.053071 0.2244474,0.00901 0.4101415,-0.043676 0.6574616,-0.1865531 0.1391151,-0.080367 0.3263333,-0.2115283 0.3263333,-0.2286226 0,-0.00547 -0.013879,-0.018605 -0.030841,-0.029197 C 3.3666054,4.8127115 3.3070966,4.8109298 3.1692954,4.8201789 2.8090749,4.8443501 2.5214544,4.7998327 2.2745035,4.6816831 2.1241814,4.6097639 1.9363567,4.4279609 1.8581427,4.278671 1.7537012,4.0793193 1.6901262,3.6637661 1.7471877,3.5534212 1.7822313,3.485656 1.8548629,3.456288 1.9203408,3.4834094 c 0.073117,0.030286 0.091214,0.082853 0.099868,0.2900769 0.00572,0.1370401 0.01685,0.2091621 0.042576,0.2759577 0.1291366,0.3353001 0.4283309,0.4968303 0.9215655,0.4975386 0.1524573,2.195e-4 0.3734556,-0.02099 0.4019024,-0.038572 0.00605,-0.00374 0.00522,-0.067171 -0.00182,-0.1409649 -0.00705,-0.073794 -0.018276,-0.1922339 -0.024952,-0.2631985 l -0.01214,-0.129027 -0.089168,-0.011107 C 2.7862558,3.9053321 2.1205213,3.3454523 1.9012695,2.8229646 1.8374874,2.6709691 1.8672983,2.3276161 1.8672983,2.3276161 1.7128473,2.1448552 1.7094113,1.9396216 1.7023818,1.8052737 1.7036872,1.2926791 1.8714302,0.87645202 2.2247606,0.50907584 2.4182365,0.30790857 2.7397111,0.09589334 2.8519876,0.09541413 2.966637,0.09492482 3.0219421,0.22531147 2.9511143,0.32911413 2.8911388,0.41701202 2.7952357,0.61736203 2.7464688,0.75663574 2.6967962,0.89849708 2.6512172,1.1064612 2.6664583,1.1217023 2.6822194,1.1374632 2.843909,1.0764504 2.9167384,0.94402243 2.9895678,0.81159444 3.1232887,0.57929167 3.2263441,0.5307753 3.3293995,0.48225893 3.3954302,0.65250081 3.4449522,0.9302494 3.4969922,1.222122 3.4636342,1.492875 3.3454502,1.7378581 3.2852902,1.8625643 3.2502242,1.9107625 3.1400464,2.0201837 2.9377286,2.2284538 2.6745387,2.3223495 2.4358328,2.4338307 c 0,0.031347 0.24672,0.3304064 0.3940531,0.4776497 0.1200387,0.1199656 0.2242693,0.2032683 0.3986717,0.3186246 0.129877,0.085905 0.2412949,0.1561917 0.2475953,0.1561917 0.0063,0 0.045234,-0.037607 0.086519,-0.08357 0.041284,-0.045964 0.1264978,-0.1171719 0.1893641,-0.1582406 l 0.1143011,-0.07467 -0.055863,-0.063587 C 3.7797502,2.971257 3.7360759,2.9027133 3.7134206,2.8539116 c -0.034979,-0.07535 -0.04136,-0.1126528 -0.042307,-0.2473542 -0.00109,-0.1543961 9.69e-5,-0.1596627 0.044149,-0.197628 0.066435,-0.057247 0.1420668,-0.052625 0.1964491,0.012004 0.037809,0.044934 0.041678,0.060044 0.032487,0.1268703 -0.019786,0.1438575 0.041896,0.2645177 0.1902061,0.3720795 0.059236,0.042961 0.06583,0.044031 0.217794,0.035368 0.1718981,-0.0098 0.2148867,-0.025483 0.3134563,-0.1143523 0.089835,-0.080995 0.124787,-0.1636764 0.1252235,-0.2962264 4.34e-4,-0.1320233 0.00816,-0.153481 0.06604,-0.1834113 0.067696,-0.035007 0.1088617,-0.029 0.161416,0.023555 0.045075,0.045075 0.047141,0.053446 0.046775,0.1895615 C 5.064689,2.7311518 5.0287627,2.846862 4.9473835,2.953556 l -0.043282,0.056747 0.1169949,0.05798 c 0.064347,0.03189 0.1588225,0.095365 0.209945,0.1410547 L 5.3239924,3.2924117 5.4811022,3.191727 C 5.7148761,3.0419117 5.8652955,2.9222141 6.0093603,2.7713599 6.1406991,2.6338315 6.3160583,2.3930936 6.3561243,2.3388191 6.1853149,2.2680134 6.0032462,2.173803 5.8326197,2.0800935 5.4361925,1.8073436 5.2571353,1.3536277 5.3470052,0.84958494 5.3776397,0.67776779 5.4339265,0.5157995 5.4784862,0.47123975 c 0.074581,-0.0745816 0.1954819,-0.0289791 0.2333576,0.0880203 0.033632,0.1038912 0.089866,0.20256648 0.1621558,0.2845393 C 5.9448611,0.92415307 6.1089767,1.0414274 6.1263084,1.0240954 6.1411321,1.0092721 6.1002228,0.809702 6.0549476,0.67597127 6.0324172,0.6094231 5.9664801,0.46353357 5.9084205,0.35177231 5.7954428,0.13429659 5.7894452,0.0972157 5.8564157,0.03024528 5.905336,-0.01867517 5.9787966,-0.00892919 6.1141316,0.0644366 6.2779705,0.15325441 6.4411861,0.28022548 6.5849538,0.43070547 6.9101242,0.77105759 7.0721366,1.1578353 7.0932577,1.6441957 7.1199292,1.8881652 7.027829,2.1317363 6.9625503,2.2164508 6.9822294,2.3446332 6.9606282,2.5159825 6.9270275,2.6291295 6.789965,3.0906688 6.2113553,3.6600636 5.7079644,3.8287778 c -0.068113,0.022828 -0.1463832,0.041506 -0.1739347,0.041506 -0.027551,0 -0.053048,0.00907 -0.056659,0.020166 -0.00597,0.018353 -0.057196,0.5601164 -0.057026,0.6031654 1.29e-4,0.031535 0.2999196,0.060043 0.518824,0.049334 C 6.1528692,4.532496 6.2796201,4.5049969 6.4206556,4.4384915 6.5239667,4.3897737 6.6651544,4.2622726 6.7206491,4.1675779 6.7799135,4.0664517 6.823978,3.8701538 6.823978,3.7072734 c 0,-0.1258384 0.00428,-0.1466968 0.038242,-0.1861742 0.052011,-0.060466 0.1391359,-0.061556 0.1982122,-0.00248 0.040305,0.040305 0.041913,0.04896 0.040338,0.2169874 -0.00542,0.5783678 -0.3240723,0.9555639 -0.8979084,1.0628866 -0.1600707,0.029937 -0.5339962,0.03516 -0.6856479,0.00957 -0.085948,-0.0145 -0.1290631,-0.00376 -0.1290631,0.032163 0,0.00779 0.00907,0.014421 0.020167,0.014744 0.011092,3.227e-4 0.066623,0.035947 0.1234032,0.079165 C 5.8394464,5.1683563 6.1401215,5.2823802 6.4203452,5.271125 6.5504982,5.265895 6.5902421,5.25749 6.6712543,5.218055 6.799497,5.155627 6.9456179,5.007146 7.0419034,4.8414169 c 0.042807,-0.07368 0.090666,-0.1408332 0.1063541,-0.1492293 0.091222,-0.048821 0.2081067,0.019605 0.2081067,0.1218271 0,0.062213 -0.1330167,0.2883027 -0.2458425,0.4178594 C 7.0096778,5.347678 6.8269461,5.4680348 6.6779717,5.5167799 6.5044163,5.5735684 6.2463525,5.5705673 6.0431406,5.5093974 5.8855224,5.4619519 5.701412,5.3812751 5.5793245,5.3061537 c -0.043301,-0.026643 -0.085722,-0.048442 -0.09427,-0.048442 -0.03991,0 0.1428831,0.4110736 0.258638,0.5816359 0.080513,0.1186355 0.2355181,0.2602901 0.3414399,0.312033 0.2079115,0.1015657 0.4632406,0.084503 0.7262116,-0.048529 0.098715,-0.049938 0.1643252,-0.049601 0.2150303,0.0011 0.047299,0.047299 0.05224,0.1288189 0.011007,0.1816317 C 7.0045704,6.3276081 6.84879,6.400626 6.6787831,6.4536646 6.5092416,6.5065575 6.2520706,6.5073454 6.0871035,6.4554748 5.7977982,6.3645158 5.52963,6.0963959 5.3562717,5.7247812 5.3254285,5.6586646 5.2983887,5.6017288 5.2961838,5.5982574 c -0.0022,-0.00347 -0.04377,0.024364 -0.092368,0.061856 -0.077892,0.060093 -0.098801,0.089885 -0.1765033,0.2514753 -0.099626,0.207184 -0.16355,0.308282 -0.2561771,0.4051506 l -0.063928,0.066856 0.040635,0.070275 c 0.02235,0.038651 0.052145,0.1097057 0.066212,0.1578998 0.034052,0.1166558 0.033833,0.3832485 -4.179e-4,0.5099349 -0.014299,0.052885 -0.025661,0.1034126 -0.025249,0.1122865 4.113e-4,0.00887 0.00582,0.067709 0.012007,0.1307445 0.014414,0.1467364 -0.02204,0.3179862 -0.101821,0.4783296 C 4.6434365,7.9538806 4.6000045,8.0050544 4.305564,8.3061373 4.241715,8.3714273 4.136732,8.4266924 4.0296237,8.4513989 3.9190782,8.4768979 3.6982178,8.4695499 3.5707325,8.4361294 Z"
     id="path4028"
     sodipodi:nodetypes="scssssssccccscsscsssssssssscssssssssscssscssscccsccscssccssssszzssccssssscssccssscsscssscsscssccssssssssssccssscccssscscssssccsssssssssssscsssscssscsssscssss" /></svg>
