<?xml version="1.0" encoding="UTF-8" standalone="no"?>
<!-- Created with Inkscape (http://www.inkscape.org/) -->

<svg
   width="32"
   height="32"
   viewBox="0 0 8.4666666 8.4666666"
   version="1.1"
   id="svg8"
   inkscape:version="1.1.1 (3bf5ae0d25, 2021-09-20)"
   sodipodi:docname="search_replace.svg"
   inkscape:export-filename="D:\RxLab\src\RxOT\DuAEF\Duik\inc\icons\w16\w16_search_replace.png"
   inkscape:export-xdpi="48"
   inkscape:export-ydpi="48"
   xmlns:inkscape="http://www.inkscape.org/namespaces/inkscape"
   xmlns:sodipodi="http://sodipodi.sourceforge.net/DTD/sodipodi-0.dtd"
   xmlns="http://www.w3.org/2000/svg"
   xmlns:svg="http://www.w3.org/2000/svg"
   xmlns:rdf="http://www.w3.org/1999/02/22-rdf-syntax-ns#"
   xmlns:cc="http://creativecommons.org/ns#"
   xmlns:dc="http://purl.org/dc/elements/1.1/">
  <defs
     id="defs2">
    <linearGradient
       id="Neutral__dark_"
       inkscape:swatch="solid">
      <stop
         style="stop-color:#232323;stop-opacity:1;"
         offset="0"
         id="stop832" />
    </linearGradient>
    <style
       id="style1399">.cls-1{fill:#e3e3e3;}</style>
    <style
       id="style857">.cls-1{fill:#e52120;}.cls-1,.cls-2,.cls-3,.cls-4,.cls-5{stroke:#000;stroke-miterlimit:10;stroke-width:1.2px;}.cls-2{fill:#6dbc88;}.cls-3{fill:#701034;}.cls-4{fill:#51aae0;}.cls-5{fill:none;}</style>
    <style
       id="style857-2">.cls-1{fill:#e52120;}.cls-1,.cls-2,.cls-3,.cls-4,.cls-5{stroke:#000;stroke-miterlimit:10;stroke-width:1.2px;}.cls-2{fill:#6dbc88;}.cls-3{fill:#701034;}.cls-4{fill:#51aae0;}.cls-5{fill:none;}</style>
    <style
       id="style1399-7">.cls-1{fill:#e3e3e3;}</style>
    <style
       id="style1399-2">.cls-1{fill:#e3e3e3;}</style>
    <style
       id="style1399-8">.cls-1{fill:#e3e3e3;}</style>
    <style
       id="style1399-9">.cls-1{fill:#e3e3e3;}</style>
  </defs>
  <sodipodi:namedview
     id="base"
     pagecolor="#ffffff"
     bordercolor="#666666"
     borderopacity="1.0"
     inkscape:pageopacity="0.0"
     inkscape:pageshadow="2"
     inkscape:zoom="22.627416"
     inkscape:cx="16.418136"
     inkscape:cy="15.180699"
     inkscape:document-units="mm"
     inkscape:current-layer="layer1"
     showgrid="false"
     units="px"
     inkscape:window-width="3440"
     inkscape:window-height="1369"
     inkscape:window-x="1912"
     inkscape:window-y="-8"
     inkscape:window-maximized="1"
     inkscape:pagecheckerboard="0"
     inkscape:snap-bbox="true"
     inkscape:bbox-paths="true"
     inkscape:bbox-nodes="true"
     inkscape:snap-bbox-edge-midpoints="true"
     inkscape:snap-bbox-midpoints="true"
     inkscape:snap-nodes="false" />
  <metadata
     id="metadata5">
    <rdf:RDF>
      <cc:Work
         rdf:about="">
        <dc:format>image/svg+xml</dc:format>
        <dc:type
           rdf:resource="http://purl.org/dc/dcmitype/StillImage" />
      </cc:Work>
    </rdf:RDF>
  </metadata>
  <g
     inkscape:label="Layer 1"
     inkscape:groupmode="layer"
     id="layer1"
     transform="translate(0,-288.53334)">
    <path
       id="path1367"
       style="fill:#b1b1b1;fill-opacity:1;stroke-width:0.0600416"
       d="M 7.1171875,17.728516 C 6.7746838,17.7371 6.4282166,17.870608 6.1445312,18.154297 L 0.453125,23.845703 c -0.56275275,0.562772 -0.56275464,1.474377 0,2.037109 l 5.6914062,5.691407 c 0.9078501,0.907842 2.4609368,0.266214 2.4609376,-1.017578 -1.69e-5,-2.009593 0,-1.589622 0,-2.53125 0.047468,0.0042 0.09593,0.0059 0.1445312,0.0059 h 12.460938 l -2.490235,-2.490234 c -0.904415,0.321184 -1.681487,0.921875 -2.6875,0.921875 -4.721393,0 -8.5839842,-3.873397 -8.5839842,-8.591797 0,-0.0367 0.00149,-0.07278 0.00195,-0.109375 -0.1091721,-0.0229 -0.2216014,-0.03602 -0.3339844,-0.0332 z M 24.615234,18.03125 c -0.05939,0.930916 -0.606995,1.678271 -0.912109,2.535156 l 3.033203,3.033203 a 2.1661822,2.1661822 0 0 1 0.01563,0.0078 c 1.098201,1.110198 1.10825,2.978928 -0.0078,4.095703 l -0.324219,0.328125 h 0.01758 c 0.882937,0 1.59375,-0.710813 1.59375,-1.59375 V 19.625 c 0,-0.882937 -0.710813,-1.59375 -1.59375,-1.59375 z"
       transform="matrix(0.26458333,0,0,0.26458333,0,288.53334)" />
    <path
       style="fill:#b1b1b1;fill-opacity:1;stroke-width:0.0600416"
       d="m 24.914062,0 c -0.753513,-0.01887157 -1.48828,0.56075229 -1.488281,1.4433594 1.7e-5,2.0049406 0,1.5841094 0,2.5253906 -6.028696,0.051536 -12.044629,0 -17.988281,0 -0.8829375,0 -1.59375,0.7108125 -1.59375,1.59375 v 6.90625 c 0,0.882937 0.7108125,1.59375 1.59375,1.59375 H 8.375 c 0.8829375,0 1.59375,-0.710813 1.59375,-1.59375 v -2.375 h 13.457031 c -10e-6,0.682159 0,1.078889 0,2.732422 7.5e-5,1.283905 1.553145,1.927336 2.460938,1.019531 l 5.691406,-5.6914061 c 0.562753,-0.5627717 0.562755,-1.4743755 0,-2.0371094 L 25.886719,0.42578125 C 25.603016,0.14208046 25.256569,0.00857799 24.914062,0 Z"
       transform="matrix(0.26458333,0,0,0.26458333,0,288.53334)"
       id="path1009" />
    <path
       id="path993"
       d="m 6.6708917,295.18147 -0.8151009,-0.8151 c -0.03679,-0.0368 -0.086661,-0.0573 -0.1389838,-0.0573 H 5.5835458 c 0.2256447,-0.28859 0.3597236,-0.65159 0.3597236,-1.04646 0,-0.93938 -0.7611424,-1.70052 -1.7005113,-1.70052 -0.9393688,0 -1.700511,0.76114 -1.700511,1.70052 0,0.93937 0.7611422,1.70051 1.700511,1.70051 0.3948783,0 0.7578722,-0.13408 1.0464684,-0.35973 v 0.13326 c 0,0.0524 0.020439,0.10223 0.057229,0.13899 l 0.8151006,0.81511 c 0.07685,0.0768 0.2011182,0.0768 0.2771508,0 l 0.2313673,-0.23138 c 0.07685,-0.0769 0.07685,-0.20111 8.208e-4,-0.27797 z m -2.4281336,-0.87233 c -0.5780101,0 -1.0464683,-0.46764 -1.0464683,-1.04647 0,-0.57801 0.4676405,-1.04647 1.0464683,-1.04647 0.5780102,0 1.0464684,0.46764 1.0464684,1.04647 0,0.57801 -0.4676405,1.04647 -1.0464684,1.04647 z"
       inkscape:connector-curvature="0"
       style="fill:#b1b1b1;fill-opacity:1;stroke-width:0.00817551" />
  </g>
  <style
     id="style815"
     type="text/css">
	.st0{fill:#00005B;}
	.st1{fill:#9999FF;}
</style>
  <style
     id="style815-2"
     type="text/css">
	.st0{fill:#00005B;}
	.st1{fill:#9999FF;}
</style>
</svg>
