<?xml version="1.0" encoding="UTF-8" standalone="no"?>
<svg
   id="Calque_1"
   data-name="Calque 1"
   viewBox="0 0 32 32"
   version="1.1"
   sodipodi:docname="tail_illu.svg"
   inkscape:version="1.1 (c68e22c387, 2021-05-23)"
   inkscape:export-filename="D:\DEV_SRC\RxOT\DuAEF\DuAEF_Duik\icons\w128/w128_tail.png"
   inkscape:export-xdpi="384"
   inkscape:export-ydpi="384"
   xmlns:inkscape="http://www.inkscape.org/namespaces/inkscape"
   xmlns:sodipodi="http://sodipodi.sourceforge.net/DTD/sodipodi-0.dtd"
   xmlns="http://www.w3.org/2000/svg"
   xmlns:svg="http://www.w3.org/2000/svg"
   xmlns:rdf="http://www.w3.org/1999/02/22-rdf-syntax-ns#"
   xmlns:cc="http://creativecommons.org/ns#"
   xmlns:dc="http://purl.org/dc/elements/1.1/">
  <metadata
     id="metadata31">
    <rdf:RDF>
      <cc:Work
         rdf:about="">
        <dc:format>image/svg+xml</dc:format>
        <dc:type
           rdf:resource="http://purl.org/dc/dcmitype/StillImage" />
        <dc:title>body_l</dc:title>
      </cc:Work>
    </rdf:RDF>
  </metadata>
  <sodipodi:namedview
     pagecolor="#ffffff"
     bordercolor="#666666"
     borderopacity="1"
     objecttolerance="10"
     gridtolerance="10"
     guidetolerance="10"
     inkscape:pageopacity="0"
     inkscape:pageshadow="2"
     inkscape:window-width="1920"
     inkscape:window-height="1027"
     id="namedview29"
     showgrid="false"
     inkscape:snap-bbox="true"
     inkscape:bbox-paths="true"
     inkscape:bbox-nodes="true"
     inkscape:snap-bbox-edge-midpoints="true"
     inkscape:snap-bbox-midpoints="true"
     inkscape:snap-nodes="false"
     inkscape:zoom="10.429825"
     inkscape:cx="13.950378"
     inkscape:cy="19.415474"
     inkscape:window-x="-8"
     inkscape:window-y="-8"
     inkscape:window-maximized="1"
     inkscape:current-layer="Calque_1"
     inkscape:document-rotation="0"
     inkscape:pagecheckerboard="1" />
  <defs
     id="defs4">
    <style
       id="style2">.cls-1{fill:#e3e3e3;}</style>
    <style
       id="style857">.cls-1{fill:#e3e3e3;}</style>
  </defs>
  <title
     id="title6">body_l</title>
  <path
     id="path871"
     d="m 10.4086,22.670761 c -0.02903,0.721285 0.04615,1.455005 0.228132,2.153559 0.138448,0.531439 0.395688,1.026949 0.647892,1.514791 0.296595,0.573708 1.521473,1.253591 1.012903,1.65167 -1.166985,0.913442 -2.4862231,-1.827245 -3.1208351,-3.166461 -0.268555,-0.566729 -0.3913055,-1.273186 -0.2007554,-1.870677 0.2677852,-0.839668 0.9604449,-2.367629 1.7520475,-1.980178 0.51708,0.253086 -0.29623,1.122067 -0.319384,1.697296 z"
     class="cls-1"
     inkscape:connector-curvature="0"
     style="fill:#ec7818;fill-opacity:1;stroke-width:0.912527"
     sodipodi:nodetypes="aaaaaaaa" />
  <path
     id="path873"
     d="m 11.996393,22.515632 c 0.0081,0.692578 0.112168,1.392279 0.319384,2.053181 0.157913,0.503653 0.430324,0.96601 0.693518,1.423538 0.310452,0.539677 1.512738,1.145812 1.040279,1.551292 -1.078195,0.925343 -2.472482,-1.628826 -3.139085,-2.883578 -0.288609,-0.543251 -0.433139,-1.230901 -0.273757,-1.825049 0.218712,-0.815325 0.801841,-2.310525 1.578668,-1.98018 0.513857,0.218518 -0.225485,1.102443 -0.219007,1.660796 z"
     class="cls-1"
     inkscape:connector-curvature="0"
     style="fill:#ec7818;fill-opacity:1;stroke-width:0.912527"
     sodipodi:nodetypes="aaaaaaaa" />
  <path
     id="path875"
     d="m 13.739315,22.2875 c 0.05152,0.660825 0.183978,1.324203 0.419762,1.943678 0.180243,0.473554 0.469248,0.90021 0.748271,1.323161 0.328645,0.498172 1.516846,1.010656 1.085904,1.423539 -0.991852,0.950284 -2.455432,-1.461932 -3.166461,-2.637197 -0.299556,-0.495136 -0.479846,-1.130104 -0.36501,-1.697296 0.157741,-0.779107 0.617856,-2.213558 1.368787,-1.952803 0.503673,0.174897 -0.132695,1.065357 -0.09125,1.596918 z"
     class="cls-1"
     inkscape:connector-curvature="0"
     style="fill:#ec7818;fill-opacity:1;stroke-width:0.912527"
     sodipodi:nodetypes="aaaaaaaa" />
  <path
     id="path877"
     d="m 15.482238,21.90424 c 0.0941,0.628127 0.276643,1.250571 0.547515,1.82505 0.207599,0.440286 0.514736,0.828305 0.812147,1.213657 0.347566,0.450339 1.510706,0.853468 1.13153,1.277535 -0.870184,0.973208 -2.439065,-1.195249 -3.202961,-2.253936 -0.327145,-0.453391 -0.552017,-1.051146 -0.483638,-1.606044 0.09442,-0.766257 0.441358,-2.192169 1.186282,-1.989304 0.493066,0.134278 -0.06659,1.027659 0.0091,1.533042 z"
     class="cls-1"
     inkscape:connector-curvature="0"
     style="fill:#ec7818;fill-opacity:1;stroke-width:0.912527"
     sodipodi:nodetypes="aaaaaaaa" />
  <path
     id="path879"
     d="m 17.20691,21.393226 c 0.153299,0.588725 0.377405,1.168392 0.693519,1.688171 0.244469,0.401977 0.588956,0.735232 0.912524,1.076779 0.365515,0.385825 1.473933,0.666988 1.158907,1.09503 -0.736215,1.000334 -2.426889,-0.893658 -3.248588,-1.82505 -0.352013,-0.399005 -0.613299,-0.946315 -0.602267,-1.47829 0.01518,-0.732147 0.188925,-2.111 0.912525,-1.998429 0.478305,0.07441 0.0514,0.973351 0.17338,1.441789 z"
     class="cls-1"
     inkscape:connector-curvature="0"
     style="fill:#ec7818;fill-opacity:1;stroke-width:0.912527"
     sodipodi:nodetypes="aaaaaaaa" />
  <path
     id="path881"
     d="m 18.812953,20.690582 c 0.213997,0.539364 0.500852,1.057283 0.857774,1.514791 0.271292,0.347748 0.618644,0.630986 0.958151,0.912525 0.40093,0.332475 1.521019,0.457032 1.268409,0.912525 -0.575579,1.037849 -2.401987,-0.568008 -3.294214,-1.350537 -0.382071,-0.335096 -0.703669,-0.817809 -0.757396,-1.323161 -0.07424,-0.698307 -0.06307,-2.031385 0.638767,-2.007554 0.460085,0.01562 0.158736,0.91351 0.328509,1.341411 z"
     class="cls-1"
     inkscape:connector-curvature="0"
     style="fill:#ec7818;fill-opacity:1;stroke-width:0.912527"
     sodipodi:nodetypes="aaaaaaaa" />
  <path
     id="path883"
     d="m 20.209116,19.896685 c 0.2848,0.471798 0.642272,0.90612 1.049403,1.277535 0.312257,0.284864 0.683206,0.500699 1.049404,0.711769 0.424322,0.244573 1.484899,0.176486 1.323161,0.638768 -0.371865,1.062869 -2.337644,-0.154177 -3.294214,-0.748271 -0.409613,-0.254396 -0.78284,-0.65799 -0.912525,-1.122405 -0.178405,-0.638883 -0.383948,-1.884893 0.273757,-1.971053 0.435233,-0.05702 0.284169,0.837866 0.511014,1.213657 z"
     class="cls-1"
     inkscape:connector-curvature="0"
     style="fill:#ec7818;fill-opacity:1;stroke-width:0.912527"
     sodipodi:nodetypes="aaaaaaaa" />
  <path
     id="path885"
     d="m 21.368022,18.719528 c 0.364696,0.376229 0.777852,0.714902 1.231909,0.976402 0.345569,0.19902 0.733109,0.317604 1.11328,0.438012 0.441682,0.139889 1.40568,-0.131503 1.350536,0.328509 -0.127073,1.060065 -2.195128,0.352358 -3.202961,0 -0.433179,-0.151448 -0.86072,-0.452929 -1.076779,-0.857773 -0.296026,-0.554681 -0.743398,-1.657898 -0.155129,-1.879801 0.38649,-0.14579 0.451638,0.698055 0.739144,0.994651 z"
     class="cls-1"
     inkscape:connector-curvature="0"
     style="fill:#ecd618;fill-opacity:1;stroke-width:0.912527"
     sodipodi:nodetypes="aaaaaaaa" />
  <path
     id="path887"
     d="m 22.244046,17.204737 c 0.420497,0.260158 0.882567,0.463221 1.359662,0.593141 0.366578,0.09982 0.752292,0.114025 1.131531,0.136879 0.434182,0.02616 1.25113,-0.431632 1.30491,0 0.124144,0.996354 -1.920266,0.831386 -2.920079,0.739145 -0.426901,-0.03938 -0.878435,-0.222272 -1.168032,-0.538389 -0.401651,-0.438433 -1.08989,-1.338797 -0.602266,-1.679046 0.318751,-0.222415 0.563742,0.543774 0.894274,0.74827 z"
     class="cls-1"
     inkscape:connector-curvature="0"
     style="fill:#ecd618;fill-opacity:1;stroke-width:0.912527"
     sodipodi:nodetypes="aaaaaaaa" />
  <path
     id="path889"
     d="m 22.809812,15.388813 c 0.449437,0.124382 0.920737,0.187896 1.387037,0.182506 0.357042,-0.0041 0.710365,-0.08502 1.058529,-0.164255 0.399706,-0.09096 1.014749,-0.732265 1.177157,-0.355885 0.375185,0.869489 -1.534474,1.232492 -2.463817,1.414414 -0.400637,0.07842 -0.863772,0.04608 -1.213658,-0.164255 -0.478218,-0.287481 -1.326638,-0.925298 -0.976401,-1.359662 0.235159,-0.291645 0.670083,0.347211 1.031153,0.447137 z"
     class="cls-1"
     inkscape:connector-curvature="0"
     style="fill:#ecd618;fill-opacity:1;stroke-width:0.912527"
     sodipodi:nodetypes="aaaaaaaa" />
  <path
     id="path891"
     d="m 22.955816,13.454261 c 0.441341,0.0084 0.88854,-0.04676 1.314036,-0.164255 0.320328,-0.08846 0.617268,-0.249005 0.912524,-0.401511 0.33695,-0.174041 0.746158,-0.885369 0.976401,-0.584015 0.532869,0.697445 -1.106216,1.446399 -1.898051,1.825049 -0.348538,0.166668 -0.779488,0.256185 -1.149781,0.146004 -0.486038,-0.14462 -1.371894,-0.525327 -1.158907,-0.985527 0.142402,-0.307686 0.664796,0.15784 1.003778,0.164255 z"
     class="cls-1"
     inkscape:connector-curvature="0"
     style="fill:#ecd618;fill-opacity:1;stroke-width:0.912527"
     sodipodi:nodetypes="aaaaaaaa" />
  <path
     id="path893"
     d="m 22.526929,11.145574 c 0.40207,-0.08855 0.801507,-0.214 1.168031,-0.401512 0.281745,-0.144138 0.529914,-0.348089 0.775647,-0.547514 0.274075,-0.2224265 0.506582,-0.9493586 0.775646,-0.7208949 0.637291,0.5411289 -0.724506,1.5797689 -1.387038,2.0896819 -0.28509,0.219417 -0.663297,0.373828 -1.022027,0.346759 -0.48159,-0.03633 -1.376754,-0.191662 -1.28666,-0.666143 0.06104,-0.321439 0.656875,-0.03001 0.976401,-0.100377 z"
     class="cls-1"
     inkscape:connector-curvature="0"
     style="fill:#ecd618;fill-opacity:1;stroke-width:0.912527"
     sodipodi:nodetypes="aaaaaaaa" />
  <path
     id="path895"
     d="m 21.504901,8.6817565 c 0.353065,-0.1574694 0.688818,-0.3635712 0.985527,-0.6113916 0.226452,-0.1891393 0.411366,-0.4246125 0.593141,-0.6570178 0.201144,-0.2571694 0.258399,-0.9638269 0.547515,-0.812147 0.679766,0.3566279 -0.347615,1.5551184 -0.839523,2.1444331 -0.215293,0.257926 -0.525565,0.4791151 -0.857773,0.5292644 -0.444261,0.067064 -1.298036,0.1116076 -1.30491,-0.3376341 -0.0047,-0.3041394 0.598226,-0.1316073 0.876023,-0.255507 z"
     class="cls-1"
     inkscape:connector-curvature="0"
     style="fill:#ecd618;fill-opacity:1;stroke-width:0.912527"
     sodipodi:nodetypes="aaaaaaaa" />
  <path
     id="path897"
     d="m 20.126989,6.9388343 c 0.266814,-0.2347997 0.514085,-0.4985301 0.711769,-0.7938966 0.152097,-0.2272514 0.253128,-0.4857334 0.355884,-0.739145 0.112052,-0.2763304 -0.0094,-0.9078666 0.282883,-0.8486481 0.687764,0.1393638 0.111845,1.4536634 -0.164254,2.098807 -0.123738,0.2891289 -0.344913,0.5690931 -0.629642,0.702644 -0.372027,0.1744977 -1.102559,0.4356546 -1.231908,0.045626 -0.08605,-0.2594716 0.470047,-0.2847915 0.675268,-0.4653873 z"
     class="cls-1"
     inkscape:connector-curvature="0"
     style="fill:#78d6ec;fill-opacity:1;stroke-width:0.912527"
     sodipodi:nodetypes="aaaaaaaa" />
  <path
     id="path899"
     d="m 18.457069,5.8255541 c 0.180233,-0.2806676 0.317148,-0.59234 0.410635,-0.9125248 0.07065,-0.2419765 0.09121,-0.4968552 0.109504,-0.7482703 0.01965,-0.2700015 -0.269374,-0.7852223 0,-0.812147 0.642253,-0.064195 0.456203,1.2567333 0.38326,1.8980515 -0.03246,0.2853918 -0.144237,0.5905869 -0.355885,0.7847713 -0.275755,0.2530025 -0.848501,0.683877 -1.058529,0.3741351 -0.145171,-0.2140963 0.371242,-0.3663556 0.511015,-0.5840158 z"
     class="cls-1"
     inkscape:connector-curvature="0"
     style="fill:#78d6ec;fill-opacity:1;stroke-width:0.912527"
     sodipodi:nodetypes="aaaaaaaa" />
  <path
     id="path901"
     d="m 16.595518,5.1776615 c 0.08287,-0.2962038 0.132109,-0.6049839 0.136879,-0.9125247 0.0037,-0.2327603 -0.03902,-0.4647565 -0.08213,-0.6935188 -0.04249,-0.2254774 -0.387998,-0.5850028 -0.173379,-0.6661431 0.548415,-0.2073375 0.704818,0.9900484 0.793896,1.5695426 0.03981,0.2589901 0.0099,0.5527068 -0.127753,0.775646 -0.179679,0.2909224 -0.562382,0.8146063 -0.830397,0.6022663 -0.191285,-0.1515484 0.21713,-0.4402505 0.282882,-0.6752683 z"
     class="cls-1"
     inkscape:connector-curvature="0"
     style="fill:#78d6ec;fill-opacity:1;stroke-width:0.912527"
     sodipodi:nodetypes="aaaaaaaa" />
  <path
     id="path903"
     d="M 14.706592,5.0225323 C 14.72491,4.7487792 14.70537,4.4703471 14.651842,4.20126 14.611099,3.9965441 14.530195,3.8012783 14.451086,3.6081189 14.369105,3.4079494 13.985008,3.1391193 14.168202,3.0241031 c 0.443764,-0.2786123 0.788336,0.7428459 0.976402,1.2319084 0.08533,0.2219021 0.123239,0.4870513 0.04562,0.7117693 -0.09986,0.289144 -0.337919,0.8214723 -0.611391,0.6843936 -0.191453,-0.095966 0.113457,-0.4159626 0.127753,-0.6296421 z"
     class="cls-1"
     inkscape:connector-curvature="0"
     style="fill:#78d6ec;fill-opacity:1;stroke-width:0.912527"
     sodipodi:nodetypes="aaaaaaaa" />
  <path
     id="path905"
     d="M 12.96367,5.1776615 C 12.93639,4.9285803 12.90727,4.6758093 12.826791,4.4385165 12.766491,4.2607364 12.668249,4.0973749 12.571284,3.9366279 12.473204,3.7740344 12.101064,3.5976277 12.242775,3.4712402 c 0.340843,-0.3039866 0.789219,0.5196095 1.022028,0.9125247 0.109826,0.1853556 0.181598,0.4171533 0.146004,0.6296422 -0.04448,0.2655253 -0.168874,0.7542203 -0.428887,0.6843935 -0.167549,-0.044996 6.38e-4,-0.3476841 -0.01825,-0.5201391 z"
     class="cls-1"
     inkscape:connector-curvature="0"
     style="fill:#78d6ec;fill-opacity:1;stroke-width:0.912527"
     sodipodi:nodetypes="aaaaaaaa" />
  <path
     id="path907"
     d="M 11.257248,5.5517967 C 11.209887,5.3360561 11.107547,5.1342923 11.001741,4.9404051 10.922121,4.7945016 10.8201,4.6615927 10.718859,4.5297689 10.618984,4.399723 10.287065,4.2750113 10.399475,4.1556338 c 0.276922,-0.2940862 0.724937,0.4068416 0.967276,0.7300198 0.113199,0.1509592 0.207002,0.3406813 0.200756,0.5292643 -0.0077,0.2339875 -0.06239,0.6844103 -0.292008,0.6387674 -0.164194,-0.032638 0.01765,-0.3383756 -0.01825,-0.5018886 z"
     class="cls-1"
     inkscape:connector-curvature="0"
     style="fill:#78d6ec;fill-opacity:1;stroke-width:0.912527"
     sodipodi:nodetypes="aaaaaaaa" />
  <path
     id="path909"
     d="M 9.7424572,6.0901862 C 9.6742301,5.915216 9.6035993,5.7391326 9.5052008,5.5791724 9.4280411,5.4537387 9.3310106,5.3409192 9.2314434,5.232413 9.1383294,5.1309394 8.8468593,5.0590887 8.9303102,4.9495303 9.1462075,4.6660902 9.6049749,5.2408922 9.8428349,5.5061704 9.9527514,5.6287569 10.041077,5.7890712 10.052716,5.9533075 10.066659,6.1500592 10.076578,6.5179322 9.8793359,6.5190729 9.729272,6.5199407 9.7969754,6.2299994 9.7424572,6.0901862 Z"
     class="cls-1"
     inkscape:connector-curvature="0"
     style="fill:#78d6ec;fill-opacity:1;stroke-width:0.912527"
     sodipodi:nodetypes="aaaaaaaa" />
  <path
     id="path911"
     d="M 8.5287993,6.6012001 C 8.4652037,6.4485093 8.3651499,6.3124402 8.2641672,6.1814387 8.1879606,6.0825787 8.0979887,5.9948662 8.0086603,5.9076813 7.9300238,5.8309318 7.6982932,5.7780065 7.7622786,5.6886754 c 0.1649907,-0.230347 0.5382579,0.2199464 0.739145,0.4197613 0.099507,0.098976 0.187715,0.2264217 0.2098807,0.36501 0.026003,0.1625819 0.06426,0.4818141 -0.1003777,0.483638 -0.1217386,0.00135 -0.035318,-0.2434971 -0.082127,-0.3558846 z"
     class="cls-1"
     inkscape:connector-curvature="0"
     style="fill:#78d6ec;fill-opacity:1;stroke-width:0.912527"
     sodipodi:nodetypes="aaaaaaaa" />
  <path
     id="path913"
     d="M 7.7166523,7.002711 C 7.6448669,6.8903704 7.5740177,6.7764951 7.4885211,6.6742021 7.422313,6.5949868 7.3443177,6.526352 7.2695151,6.4551961 7.2071018,6.3958256 7.0282068,6.3521896 7.077885,6.2818164 7.2073869,6.0983663 7.5038775,6.4512467 7.6710261,6.6012001 c 0.087924,0.078878 0.1657195,0.1792034 0.2007554,0.2920079 0.036991,0.1190995 0.1203548,0.341459 0,0.3741352 C 7.7731039,7.294134 7.7717092,7.0888723 7.7166523,7.002711 Z"
     class="cls-1"
     inkscape:connector-curvature="0"
     style="fill:#78d6ec;fill-opacity:1;stroke-width:0.912527"
     sodipodi:nodetypes="aaaaaaaa" />
</svg>
