<?xml version="1.0" encoding="UTF-8" standalone="no"?>
<!-- Created with Inkscape (http://www.inkscape.org/) -->

<svg
   width="32"
   height="32"
   viewBox="0 0 8.4666666 8.4666666"
   version="1.1"
   id="svg8"
   inkscape:version="1.1 (c68e22c387, 2021-05-23)"
   sodipodi:docname="texture.svg"
   xmlns:inkscape="http://www.inkscape.org/namespaces/inkscape"
   xmlns:sodipodi="http://sodipodi.sourceforge.net/DTD/sodipodi-0.dtd"
   xmlns="http://www.w3.org/2000/svg"
   xmlns:svg="http://www.w3.org/2000/svg"
   xmlns:rdf="http://www.w3.org/1999/02/22-rdf-syntax-ns#"
   xmlns:cc="http://creativecommons.org/ns#"
   xmlns:dc="http://purl.org/dc/elements/1.1/">
  <defs
     id="defs2">
    <style
       id="style1399">.cls-1{fill:#e3e3e3;}</style>
    <style
       id="style1399-4">.cls-1{fill:#e3e3e3;}</style>
    <style
       id="style1399-8">.cls-1{fill:#e3e3e3;}</style>
    <style
       id="style1399-4-5">.cls-1{fill:#e3e3e3;}</style>
    <style
       id="style1399-9">.cls-1{fill:#e3e3e3;}</style>
    <style
       id="style1399-4-6">.cls-1{fill:#e3e3e3;}</style>
    <style
       id="style1399-8-4">.cls-1{fill:#e3e3e3;}</style>
    <style
       id="style1399-4-5-3">.cls-1{fill:#e3e3e3;}</style>
    <style
       id="style1399-88">.cls-1{fill:#e3e3e3;}</style>
    <style
       id="style1399-3">.cls-1{fill:#e3e3e3;}</style>
    <style
       id="style1399-94">.cls-1{fill:#e3e3e3;}</style>
    <style
       id="style1399-5">.cls-1{fill:#e3e3e3;}</style>
    <style
       id="style1399-46">.cls-1{fill:#e3e3e3;}</style>
    <style
       id="style1399-4-2">.cls-1{fill:#e3e3e3;}</style>
    <style
       id="style1399-8-5">.cls-1{fill:#e3e3e3;}</style>
    <style
       id="style1399-4-5-8">.cls-1{fill:#e3e3e3;}</style>
    <style
       id="style1399-9-6">.cls-1{fill:#e3e3e3;}</style>
    <style
       id="style1399-4-6-2">.cls-1{fill:#e3e3e3;}</style>
    <style
       id="style1399-8-4-8">.cls-1{fill:#e3e3e3;}</style>
    <style
       id="style1399-4-5-3-4">.cls-1{fill:#e3e3e3;}</style>
    <style
       id="style1399-88-7">.cls-1{fill:#e3e3e3;}</style>
    <style
       id="style1399-3-2">.cls-1{fill:#e3e3e3;}</style>
    <style
       id="style1399-94-4">.cls-1{fill:#e3e3e3;}</style>
    <style
       id="style1399-5-0">.cls-1{fill:#e3e3e3;}</style>
  </defs>
  <sodipodi:namedview
     id="base"
     pagecolor="#ffffff"
     bordercolor="#666666"
     borderopacity="1.0"
     inkscape:pageopacity="0.0"
     inkscape:pageshadow="2"
     inkscape:zoom="16.000001"
     inkscape:cx="-0.21874999"
     inkscape:cy="18.218749"
     inkscape:document-units="mm"
     inkscape:current-layer="svg8"
     showgrid="false"
     units="px"
     inkscape:window-width="1920"
     inkscape:window-height="1027"
     inkscape:window-x="-8"
     inkscape:window-y="-8"
     inkscape:window-maximized="1"
     inkscape:pagecheckerboard="1">
    <sodipodi:guide
       position="8.4666666,0"
       orientation="-32,0"
       id="guide854"
       inkscape:locked="false" />
    <sodipodi:guide
       position="8.5622298,8.4657622"
       orientation="0,-32"
       id="guide856"
       inkscape:locked="false" />
    <sodipodi:guide
       position="0,8.4666814"
       orientation="32,0"
       id="guide858"
       inkscape:locked="false" />
  </sodipodi:namedview>
  <metadata
     id="metadata5">
    <rdf:RDF>
      <cc:Work
         rdf:about="">
        <dc:format>image/svg+xml</dc:format>
        <dc:type
           rdf:resource="http://purl.org/dc/dcmitype/StillImage" />
      </cc:Work>
    </rdf:RDF>
  </metadata>
  <path
     id="rect5880"
     style="color:#000000;fill:#b1b1b1;stroke-width:1.42263;stroke-linecap:round;stroke-linejoin:round;stroke-dashoffset:10.3937;-inkscape-stroke:none;fill-opacity:1"
     d="M 7.9023438 0.00390625 L 7.7714844 0.044921875 L 5.1816406 0.044921875 C 2.3775434 0.044921875 0.087890625 2.3345736 0.087890625 5.1386719 L 0.087890625 7.6230469 L 0 7.9042969 L 0.087890625 7.9042969 L 0.087890625 12.113281 L 0 12.113281 L 0 20.013672 L 0.087890625 20.013672 L 0.087890625 24.044922 L 0 24.044922 L 0.087890625 24.326172 L 0.087890625 26.921875 C 0.087890625 29.725973 2.3775434 32.015625 5.1816406 32.015625 L 26.966797 32.015625 C 29.770895 32.015625 32.058594 29.725973 32.058594 26.921875 L 32.058594 5.1386719 C 32.058594 2.3345736 29.770895 0.044921875 26.966797 0.044921875 L 24.228516 0.044921875 L 24.097656 0.00390625 L 24.097656 0.044921875 L 19.978516 0.044921875 L 19.978516 0.00390625 L 12.076172 0.00390625 L 12.076172 0.044921875 L 7.9023438 0.044921875 L 7.9023438 0.00390625 z M 7.9023438 2.1621094 L 12.076172 2.1621094 L 12.076172 7.9042969 L 19.978516 7.9042969 L 19.978516 2.1621094 L 24.097656 2.1621094 L 24.097656 7.9042969 L 29.941406 7.9042969 L 29.941406 12.113281 L 24.097656 12.113281 L 24.097656 20.013672 L 29.941406 20.013672 L 29.941406 24.044922 L 24.097656 24.044922 L 24.097656 29.896484 L 19.978516 29.896484 L 19.978516 24.044922 L 12.076172 24.044922 L 12.076172 29.896484 L 7.9023438 29.896484 L 7.9023438 24.044922 L 2.2070312 24.044922 L 2.2070312 20.013672 L 7.9023438 20.013672 L 7.9023438 12.113281 L 2.2070312 12.113281 L 2.2070312 7.9042969 L 7.9023438 7.9042969 L 7.9023438 2.1621094 z M 12.076172 12.113281 L 12.076172 20.013672 L 19.978516 20.013672 L 19.978516 12.113281 L 12.076172 12.113281 z "
     transform="scale(0.26458333)" />
</svg>
