<?xml version="1.0" encoding="UTF-8" standalone="no"?>
<svg
   id="Calque_1"
   data-name="Calque 1"
   viewBox="0 0 32 32"
   version="1.1"
   sodipodi:docname="torso.svg"
   inkscape:version="1.1.1 (3bf5ae0d25, 2021-09-20)"
   xmlns:inkscape="http://www.inkscape.org/namespaces/inkscape"
   xmlns:sodipodi="http://sodipodi.sourceforge.net/DTD/sodipodi-0.dtd"
   xmlns="http://www.w3.org/2000/svg"
   xmlns:svg="http://www.w3.org/2000/svg"
   xmlns:rdf="http://www.w3.org/1999/02/22-rdf-syntax-ns#"
   xmlns:cc="http://creativecommons.org/ns#"
   xmlns:dc="http://purl.org/dc/elements/1.1/">
  <metadata
     id="metadata31">
    <rdf:RDF>
      <cc:Work
         rdf:about="">
        <dc:format>image/svg+xml</dc:format>
        <dc:type
           rdf:resource="http://purl.org/dc/dcmitype/StillImage" />
        <dc:title>body_l</dc:title>
      </cc:Work>
    </rdf:RDF>
  </metadata>
  <sodipodi:namedview
     pagecolor="#ffffff"
     bordercolor="#666666"
     borderopacity="1"
     objecttolerance="10"
     gridtolerance="10"
     guidetolerance="10"
     inkscape:pageopacity="0"
     inkscape:pageshadow="2"
     inkscape:window-width="3440"
     inkscape:window-height="1369"
     id="namedview29"
     showgrid="false"
     inkscape:snap-bbox="true"
     inkscape:bbox-paths="true"
     inkscape:bbox-nodes="true"
     inkscape:snap-bbox-edge-midpoints="true"
     inkscape:snap-bbox-midpoints="true"
     inkscape:snap-nodes="false"
     inkscape:zoom="22.627417"
     inkscape:cx="34.007417"
     inkscape:cy="24.770834"
     inkscape:window-x="1912"
     inkscape:window-y="-8"
     inkscape:window-maximized="1"
     inkscape:current-layer="Calque_1"
     inkscape:pagecheckerboard="0" />
  <defs
     id="defs4">
    <style
       id="style2">.cls-1{fill:#e3e3e3;}</style>
  </defs>
  <title
     id="title6">body_l</title>
  <path
     id="path8457"
     style="fill:#b1b1b1;fill-opacity:1;stroke:none;stroke-width:1.06519px;stroke-linecap:butt;stroke-linejoin:miter;stroke-opacity:1"
     d="m 8.5585938,2.0633788 c -5.0127046,0 -8.52539068,6.2054587 -8.52539068,14.8359372 0,8.630479 1.31342658,12.326172 6.24414068,12.326172 7.1021342,0 8.2892782,-7.559355 9.7265622,-7.59375 1.437897,0.02777 2.559036,7.59375 9.730469,7.59375 4.930714,0 6.244141,-3.695693 6.244141,-12.326172 0,-8.6304785 -3.51464,-14.8359372 -8.527344,-14.8359372 -3.444485,0 -2.576095,1.2290279 -5.396484,1.5273437 -0.763184,0.080723 -1.06146,0.8317684 -2.070313,0.84375 C 14.975879,4.4236545 14.812129,3.6839271 13.955078,3.5907225 11.135387,3.2840816 12.003079,2.0633788 8.5585938,2.0633788 Z m 0.1933593,1.4472656 a 1.051455,1.1897092 0 0 1 0.2050781,0.021484 1.051455,1.1897092 0 0 1 0.6699219,0.5019531 c 0.8322989,1.3990193 1.6998679,1.7006625 3.3535159,1.703125 A 1.051455,1.1897092 0 0 1 14.03125,6.92666 1.051455,1.1897092 0 0 1 12.978516,8.1161132 C 10.983621,8.1131426 9.0968304,7.4048146 7.8828125,5.36416 A 1.051455,1.1897092 0 0 1 8.1679688,3.7118163 1.051455,1.1897092 0 0 1 8.7519531,3.5106444 Z m 14.4179689,0.00195 A 1.051455,1.1897092 0 0 1 23.841797,3.7118163 1.051455,1.1897092 0 0 1 24.126953,5.36416 C 22.912936,7.4048148 21.026145,8.1131332 19.03125,8.1161132 A 1.051455,1.1897092 0 0 1 17.978516,6.92666 1.051455,1.1897092 0 0 1 19.029297,5.7372069 c 1.653648,-0.00246 2.521217,-0.304106 3.353515,-1.703125 a 1.051455,1.1897092 0 0 1 0.78711,-0.5214844 z m 3.501953,2.0449219 a 1.051455,1.1897092 0 0 1 0.535156,0.1132812 1.051455,1.1897092 0 0 1 0.496094,1.5859376 c -0.850795,2.0189643 -1.955393,3.5843678 -3.494141,4.5312498 -1.538746,0.946883 -3.417069,1.239706 -5.734375,1.050781 A 1.051455,1.1897092 0 0 1 17.501953,11.565331 1.051455,1.1897092 0 0 1 18.625,10.465722 c 2.081419,0.169695 3.512743,-0.110785 4.580078,-0.7675776 1.067336,-0.6567954 1.86612,-1.7242473 2.59961,-3.4648438 a 1.051455,1.1897092 0 0 1 0.597656,-0.609375 1.051455,1.1897092 0 0 1 0.269531,-0.066406 z m -21.3320312,0.00195 a 1.051455,1.1897092 0 0 1 0.2675781,0.064453 1.051455,1.1897092 0 0 1 0.5976562,0.609375 C 6.9385678,7.9738971 7.7373516,9.0413491 8.8046875,9.6981444 9.8720234,10.35494 11.303347,10.635413 13.384766,10.465722 a 1.051455,1.1897092 0 0 1 1.125,1.099609 1.051455,1.1897092 0 0 1 -0.97461,1.273438 C 11.217851,13.027694 9.3395274,12.73487 7.8007812,11.787988 6.2620351,10.841105 5.157435,9.2757026 4.3066406,7.2567382 A 1.051455,1.1897092 0 0 1 4.8046875,5.6708006 1.051455,1.1897092 0 0 1 5.3398438,5.5594725 Z M 3.2226562,10.649316 a 1.051455,1.1897092 0 0 1 0.2714844,0.03516 1.051455,1.1897092 0 0 1 0.6464844,0.542969 c 1.357454,2.573055 3.8617928,4.704597 8.650391,3.972656 a 1.051455,1.1897092 0 0 1 1.183593,1.017578 1.051455,1.1897092 0 0 1 -0.902343,1.339844 C 7.6083202,18.392687 4.0532276,15.706973 2.3339844,12.448144 a 1.051455,1.1897092 0 0 1 0.3652344,-1.630859 1.051455,1.1897092 0 0 1 0.5234374,-0.167969 z m 25.5664058,0 a 1.051455,1.1897092 0 0 1 0.523438,0.167969 1.051455,1.1897092 0 0 1 0.363281,1.630859 c -1.719243,3.258829 -5.274336,5.944543 -10.738281,5.109375 a 1.051455,1.1897092 0 0 1 -0.900391,-1.339844 1.051455,1.1897092 0 0 1 1.181641,-1.017578 c 4.788596,0.731941 7.294891,-1.399601 8.652344,-3.972656 a 1.051455,1.1897092 0 0 1 0.644531,-0.542969 1.051455,1.1897092 0 0 1 0.273437,-0.03516 z M 2.4140625,16.434472 a 1.051455,1.1897092 0 0 1 0.7304687,0.382813 c 1.9713376,2.419926 4.2366901,3.610134 8.4785158,2.888672 a 1.051455,1.1897092 0 0 1 1.197265,1 1.051455,1.1897092 0 0 1 -0.884765,1.353515 C 7.1995105,22.864992 3.930555,21.29433 1.5976562,18.430566 a 1.051455,1.1897092 0 0 1 0.060547,-1.681641 1.051455,1.1897092 0 0 1 0.7558594,-0.314453 z m 27.1835935,0 a 1.051455,1.1897092 0 0 1 0.753906,0.314453 1.051455,1.1897092 0 0 1 0.06055,1.681641 c -2.332898,2.863764 -5.601854,4.434426 -10.33789,3.628906 a 1.051455,1.1897092 0 0 1 -0.882813,-1.353515 1.051455,1.1897092 0 0 1 1.195313,-1 c 4.241824,0.721462 6.509131,-0.468746 8.480469,-2.888672 a 1.051455,1.1897092 0 0 1 0.730468,-0.382813 z M 3.1230469,22.569238 a 1.051455,1.1897092 0 0 1 0.5683593,0.25 c 1.2435674,1.10363 2.9555326,1.261627 4.40625,1.058593 a 1.051455,1.1897092 0 0 1 1.1738282,1.033204 1.051455,1.1897092 0 0 1 -0.9140625,1.326172 C 6.5869082,26.484996 4.2732563,26.357646 2.3945312,24.690331 a 1.051455,1.1897092 0 0 1 -0.1796874,-1.669921 1.051455,1.1897092 0 0 1 0.7011718,-0.447266 1.051455,1.1897092 0 0 1 0.2070313,-0.0039 z m 25.7636721,0 a 1.051455,1.1897092 0 0 1 0.207031,0.0039 1.051455,1.1897092 0 0 1 0.701172,0.447266 1.051455,1.1897092 0 0 1 -0.177734,1.669921 c -1.878725,1.667314 -4.192378,1.794665 -5.962891,1.546876 a 1.051455,1.1897092 0 0 1 -0.914063,-1.326172 1.051455,1.1897092 0 0 1 1.171875,-1.033204 c 1.450718,0.203034 3.162684,0.04504 4.40625,-1.058593 a 1.051455,1.1897092 0 0 1 0.56836,-0.25 z" />
</svg>
