<?xml version="1.0" encoding="UTF-8" standalone="no"?>
<!-- Created with Inkscape (http://www.inkscape.org/) -->

<svg
   width="32"
   height="32"
   viewBox="0 0 8.4666666 8.4666666"
   version="1.1"
   id="svg8"
   inkscape:version="1.2.2 (732a01da63, 2022-12-09)"
   sodipodi:docname="tyrannosaurus.svg"
   inkscape:export-filename="..\oco\tyrannosaurus.png"
   inkscape:export-xdpi="48"
   inkscape:export-ydpi="48"
   xml:space="preserve"
   xmlns:inkscape="http://www.inkscape.org/namespaces/inkscape"
   xmlns:sodipodi="http://sodipodi.sourceforge.net/DTD/sodipodi-0.dtd"
   xmlns="http://www.w3.org/2000/svg"
   xmlns:svg="http://www.w3.org/2000/svg"
   xmlns:rdf="http://www.w3.org/1999/02/22-rdf-syntax-ns#"
   xmlns:cc="http://creativecommons.org/ns#"
   xmlns:dc="http://purl.org/dc/elements/1.1/"><defs
     id="defs2"><inkscape:path-effect
       effect="taper_stroke"
       id="path-effect879"
       is_visible="true"
       stroke_width="1.77"
       attach_start="1e-07"
       end_offset="1.0001633"
       smoothing="0.5"
       jointype="extrapolated"
       miter_limit="100" /><inkscape:path-effect
       effect="mirror_symmetry"
       start_point="4.2333333,0"
       end_point="4.2333333,8.4666667"
       center_point="4.2333333,4.2333333"
       id="path-effect897"
       is_visible="true"
       mode="vertical"
       discard_orig_path="false"
       fuse_paths="false"
       oposite_fuse="false" /><inkscape:path-effect
       effect="mirror_symmetry"
       start_point="4.2328811,1.6730093"
       end_point="4.2328811,6.1768975"
       center_point="4.2328811,3.9249534"
       id="path-effect862"
       is_visible="true"
       mode="free"
       discard_orig_path="false"
       fuse_paths="false"
       oposite_fuse="false" /><inkscape:path-effect
       effect="mirror_symmetry"
       start_point="4.2333333,0"
       end_point="4.2333333,8.4666667"
       center_point="4.2333333,4.2333333"
       id="path-effect858"
       is_visible="true"
       mode="vertical"
       discard_orig_path="false"
       fuse_paths="false"
       oposite_fuse="false" /><inkscape:path-effect
       effect="mirror_symmetry"
       start_point="4.2333333,0"
       end_point="4.2333333,8.4666667"
       center_point="4.2333333,4.2333333"
       id="path-effect854"
       is_visible="true"
       mode="vertical"
       discard_orig_path="false"
       fuse_paths="false"
       oposite_fuse="false" /><style
       id="style1399">.cls-1{fill:#e3e3e3;}</style><style
       id="style1399-4">.cls-1{fill:#e3e3e3;}</style><style
       id="style1399-8">.cls-1{fill:#e3e3e3;}</style><style
       id="style1399-4-5">.cls-1{fill:#e3e3e3;}</style><inkscape:path-effect
       oposite_fuse="false"
       fuse_paths="false"
       discard_orig_path="false"
       mode="vertical"
       is_visible="true"
       id="path-effect897-3"
       center_point="4.2333333,4.2333333"
       end_point="4.2333333,8.4666667"
       start_point="4.2333333,0"
       effect="mirror_symmetry" /><inkscape:path-effect
       oposite_fuse="false"
       fuse_paths="false"
       discard_orig_path="false"
       mode="free"
       is_visible="true"
       id="path-effect862-8"
       center_point="4.2328811,3.9249534"
       end_point="4.2328811,6.1768975"
       start_point="4.2328811,1.6730093"
       effect="mirror_symmetry" /><inkscape:path-effect
       oposite_fuse="false"
       fuse_paths="false"
       discard_orig_path="false"
       mode="vertical"
       is_visible="true"
       id="path-effect858-5"
       center_point="4.2333333,4.2333333"
       end_point="4.2333333,8.4666667"
       start_point="4.2333333,0"
       effect="mirror_symmetry" /><inkscape:path-effect
       oposite_fuse="false"
       fuse_paths="false"
       discard_orig_path="false"
       mode="vertical"
       is_visible="true"
       id="path-effect854-6"
       center_point="4.2333333,4.2333333"
       end_point="4.2333333,8.4666667"
       start_point="4.2333333,0"
       effect="mirror_symmetry" /><style
       id="style1399-1">.cls-1{fill:#e3e3e3;}</style><style
       id="style1399-4-1">.cls-1{fill:#e3e3e3;}</style><style
       id="style1399-8-5">.cls-1{fill:#e3e3e3;}</style><style
       id="style1399-4-5-9">.cls-1{fill:#e3e3e3;}</style></defs><sodipodi:namedview
     id="base"
     pagecolor="#ffffff"
     bordercolor="#666666"
     borderopacity="1.0"
     inkscape:pageopacity="0.0"
     inkscape:pageshadow="2"
     inkscape:zoom="8"
     inkscape:cx="23.75"
     inkscape:cy="7.8125"
     inkscape:document-units="mm"
     inkscape:current-layer="svg8"
     showgrid="false"
     units="px"
     inkscape:window-width="1706"
     inkscape:window-height="1080"
     inkscape:window-x="2628"
     inkscape:window-y="124"
     inkscape:window-maximized="0"
     inkscape:pagecheckerboard="0"
     inkscape:showpageshadow="0"
     inkscape:deskcolor="#d1d1d1"><sodipodi:guide
       position="8.4666666,0"
       orientation="-32,0"
       id="guide854"
       inkscape:locked="false" /><sodipodi:guide
       position="0,8.4666814"
       orientation="0,-32"
       id="guide856"
       inkscape:locked="false" /><sodipodi:guide
       position="0,8.4666814"
       orientation="32,0"
       id="guide858"
       inkscape:locked="false" /></sodipodi:namedview><metadata
     id="metadata5"><rdf:RDF><cc:Work
         rdf:about=""><dc:format>image/svg+xml</dc:format><dc:type
           rdf:resource="http://purl.org/dc/dcmitype/StillImage" /></cc:Work></rdf:RDF></metadata><path
     id="path1103"
     style="fill:#b1b1b1;fill-opacity:1;stroke-width:0.0137426"
     d="M 2.1776449 0.39842529 C 2.0711398 0.4005498 1.9568969 0.41927987 1.8582845 0.45165202 C 1.541673 0.55558821 1.2581595 0.86698884 1.0490316 1.3404867 L 0.98288574 1.4893148 L 0.90537109 1.5125692 C 0.70048926 1.5739408 0.46178097 1.8169445 0.31109212 2.118217 C 0.1895955 2.3611253 0.059717782 2.7959052 0.00051676432 3.1558797 C -0.034060766 4.268529 -0.035370772 4.916507 0.5286499 5.5572835 C 1.0926706 6.1980603 1.3383985 6.4104316 1.6753499 6.6502401 C 1.8209711 6.7538786 2.1061537 6.8992371 2.2727295 6.955131 C 2.7212004 7.1056142 3.2123168 7.1260075 3.6886637 7.0140422 C 3.7785514 6.9929141 3.857168 6.9850897 3.9770182 6.9851034 C 4.1774904 6.9851364 4.2886032 7.0103192 4.7469971 7.1597697 C 5.3420655 7.3537803 5.6963682 7.4212802 6.1210734 7.4212524 C 6.3982091 7.4212359 6.5071506 7.4010097 6.6734945 7.3194499 C 6.8673222 7.2244143 7.014513 7.0590998 7.1018921 6.8378255 C 7.1713435 6.6619498 7.1894389 6.6846555 6.9422119 6.6404215 C 6.5163052 6.5642191 6.0577155 6.4450498 5.6347982 6.3003906 C 4.8796739 6.0421003 4.2966148 5.736008 3.8307739 5.3536784 C 3.7375023 5.2771283 3.6332765 5.2004449 3.5992635 5.1831462 C 3.4603587 5.1124962 3.2189993 5.0601033 2.8365194 5.0177816 C 2.2999915 4.9584147 2.0462538 4.9156037 1.857251 4.852417 C 1.7401281 4.8132607 1.6092802 4.7437401 1.5425415 4.6849854 C 1.498747 4.6464306 1.414384 4.5346534 1.414384 4.5154867 C 1.414384 4.5097407 1.4681373 4.5015231 1.5342733 4.4968831 C 2.09726 4.457389 2.3802565 4.3736792 2.9713949 4.0726196 C 3.289847 3.9104356 3.3643965 3.8837464 3.525883 3.8741821 C 3.7479935 3.8610272 3.9308511 3.8996341 4.4519246 4.069519 C 4.9892707 4.2447094 5.2598468 4.3012047 5.674589 4.3237671 C 6.5313963 4.3703779 7.3857384 4.1020368 8.0248332 3.5858276 C 8.4083327 3.2696838 8.5649692 2.9834718 8.3199056 2.4070882 C 8.074842 1.8307047 7.5792234 1.5299839 6.5949463 1.4314372 C 6.322337 1.4041422 6.0890739 1.3917565 5.4684001 1.3714925 C 4.6672623 1.3453361 3.9461356 1.0223711 3.6540405 0.97720133 C 3.6275858 0.97311426 3.5878318 0.96682467 3.5651571 0.9632487 L 3.5238159 0.95704753 L 3.5661906 0.99528809 C 3.7496314 1.161066 4.211004 1.562108 4.3330688 1.6619141 C 4.4766955 1.7793497 4.4811425 1.7839987 4.4297038 1.7745687 C 4.2514553 1.7418991 3.9424784 1.6049017 3.7181193 1.4583089 C 3.6413223 1.4081309 3.5351488 1.416122 3.4070272 1.2934611 C 2.959839 0.86533285 2.6094418 0.44728024 2.3156209 0.40617676 C 2.2727526 0.40017976 2.2260561 0.39745961 2.1776449 0.39842529 z M 2.065507 1.2412679 C 2.1053095 1.2402914 2.1451441 1.2445454 2.1833293 1.2552205 C 2.3593236 1.3044227 3.165373 2.0812194 3.1517456 2.1884969 C 3.1442657 2.2473821 3.0405417 2.3950154 2.9574422 2.4649658 C 2.8734428 2.5356735 2.7531873 2.5915141 2.6494507 2.6075928 C 2.52112 2.6274858 2.4840857 2.6261248 2.4696167 2.6008748 C 2.415284 2.5060541 2.3858325 2.1400909 2.4086385 1.839681 L 2.4246582 1.6324585 L 2.36368 1.6758667 C 2.2771388 1.7378359 2.1203984 1.9069288 2.0624064 2.0009115 C 2.0352184 2.044973 1.9956307 2.134535 1.9740397 2.1998657 L 1.9347656 2.3187215 L 1.8887736 2.2324219 C 1.8220385 2.1075678 1.7677929 1.8838328 1.7476969 1.6484782 C 1.7305202 1.4473785 1.7309249 1.441791 1.7719849 1.3807943 C 1.8286936 1.2965519 1.9460998 1.2441976 2.065507 1.2412679 z M 6.6192342 2.2794474 C 6.6290904 2.2790532 6.640113 2.2792233 6.6523071 2.2794474 C 6.6662433 2.2797036 6.6818383 2.2801615 6.6993327 2.2809977 C 6.8785484 2.2895705 6.9654104 2.3211342 7.0781209 2.4189738 C 7.1745536 2.5026826 7.2264917 2.5825894 7.2233317 2.6789062 C 7.220168 2.775223 7.056629 2.8455211 6.8848511 2.7972453 C 6.7563298 2.7611258 6.6975978 2.733107 6.619751 2.670638 C 6.5031586 2.577079 6.4639466 2.4719346 6.5065796 2.3688477 C 6.5340526 2.3024129 6.5502408 2.2822067 6.6192342 2.2794474 z M 7.7049561 4.1351481 C 7.7049561 4.1351481 7.5431925 4.2626651 7.3845622 4.3382365 L 7.1406494 4.4539917 C 7.1552501 4.7429427 7.1403937 4.9244341 7.2414185 5.2095011 C 7.2870578 5.2095011 7.3828664 5.111838 7.4367554 5.0105469 C 7.5477424 4.7249965 7.6281614 4.4351137 7.7049561 4.1351481 z M 4.8343302 4.4302205 C 4.8389863 4.5896122 4.8434002 4.7479574 4.9738566 4.7857544 C 5.0108106 4.7857544 5.1175915 4.6657915 5.1671265 4.5681966 L 5.1970988 4.5087687 C 5.0768223 4.4910097 4.9657691 4.4684295 4.8343302 4.4302205 z M 6.9515137 4.4984334 C 6.9305974 4.4992358 6.8493722 4.5116506 6.7551432 4.5289225 C 6.6474535 4.5486625 6.4904235 4.5704516 6.4058105 4.5769816 L 6.2518148 4.5888672 C 6.2590806 4.98479 6.256141 5.4082276 6.3732544 5.7727743 C 6.3732544 5.8116269 6.4779571 5.7548709 6.5546387 5.6652873 C 6.753854 5.3224 6.8932575 4.9100324 6.9566813 4.4989502 C 6.9562912 4.4985631 6.9545017 4.4983188 6.9515137 4.4984334 z M 5.5164591 4.5495931 C 5.5025393 4.5643497 5.5295401 5.3651548 5.5453979 5.4079386 C 5.769187 5.3958116 5.8536442 5.2595736 5.92677 4.9650716 C 6.0342681 4.6242446 6.0364171 4.5788562 6.0352905 4.5728475 L 6.0347738 4.5723307 C 6.0347738 4.5723307 5.6930977 4.6024149 5.5164591 4.5495931 z M 5.214152 5.1170003 C 5.207503 5.1170003 5.1679009 5.1649977 5.1263021 5.2239705 C 5.0847027 5.2829433 4.9775025 5.4223552 4.8880737 5.5335124 C 4.7986445 5.6446667 4.7281241 5.7378149 4.7314941 5.7407349 C 4.9134971 5.8253319 5.0299543 5.8609797 5.1583415 5.9169515 C 5.1641305 5.9178673 5.2007494 5.7848551 5.2399902 5.6213623 C 5.3150702 5.3085499 5.3185542 5.2195391 5.2575602 5.1521403 C 5.2401462 5.1329003 5.220802 5.1170003 5.214152 5.1170003 z M 4.4782796 5.1728109 C 4.4484258 5.1752995 4.2073106 5.3879635 4.2178304 5.4032878 C 4.2231396 5.4110184 4.2748331 5.4499025 4.3325521 5.4895874 L 4.4374552 5.5619344 L 4.4746623 5.4792521 C 4.5298231 5.3571946 4.5458563 5.2598076 4.5180705 5.2146688 C 4.5048125 5.1931258 4.487393 5.1743109 4.4793132 5.1728109 C 4.4789473 5.1727429 4.4787535 5.1727714 4.4782796 5.1728109 z M 6.0172038 5.5702026 C 6.0125153 5.5700677 6.0080638 5.5709398 6.0032511 5.5727865 C 5.9710191 5.585155 5.7887118 5.8840935 5.7298828 6.0213379 L 5.6931925 6.1076375 L 5.762439 6.1246908 C 5.8547182 6.1475624 5.9071126 6.1542921 5.9913656 6.1810181 C 5.9974856 6.1820781 6.0258792 6.0902989 6.053894 5.9768962 C 6.089239 5.8338265 6.1010814 5.7487028 6.0926514 5.698877 C 6.0792639 5.6196409 6.0500232 5.5711472 6.0172038 5.5702026 z M 6.7639282 5.9024821 C 6.7571406 5.9026477 6.7494759 5.9089252 6.73809 5.9205688 C 6.7108204 5.9484551 6.4791461 6.3716085 6.4879761 6.3773885 C 6.4905371 6.3790655 6.5348793 6.3893523 6.5861613 6.4001261 C 6.7455069 6.4335671 6.7475245 6.4318104 6.7944173 6.2678345 C 6.8387143 6.1130057 6.8370644 5.9889377 6.7897664 5.9252197 C 6.7782969 5.9097683 6.7716209 5.9022944 6.7639282 5.9024821 z " /></svg>
