<?xml version="1.0" encoding="UTF-8" standalone="no"?>
<!-- Created with Inkscape (http://www.inkscape.org/) -->

<svg
   width="32"
   height="32"
   viewBox="0 0 8.4666666 8.4666666"
   version="1.1"
   id="svg8"
   inkscape:version="1.1.1 (3bf5ae0d25, 2021-09-20)"
   sodipodi:docname="update_thumbnail.svg"
   xmlns:inkscape="http://www.inkscape.org/namespaces/inkscape"
   xmlns:sodipodi="http://sodipodi.sourceforge.net/DTD/sodipodi-0.dtd"
   xmlns="http://www.w3.org/2000/svg"
   xmlns:svg="http://www.w3.org/2000/svg"
   xmlns:rdf="http://www.w3.org/1999/02/22-rdf-syntax-ns#"
   xmlns:cc="http://creativecommons.org/ns#"
   xmlns:dc="http://purl.org/dc/elements/1.1/">
  <defs
     id="defs2" />
  <sodipodi:namedview
     id="base"
     pagecolor="#ffffff"
     bordercolor="#666666"
     borderopacity="1.0"
     inkscape:pageopacity="0.0"
     inkscape:pageshadow="2"
     inkscape:zoom="16.000001"
     inkscape:cx="30.093749"
     inkscape:cy="9.1562496"
     inkscape:document-units="mm"
     inkscape:current-layer="svg8"
     showgrid="false"
     units="px"
     inkscape:window-width="3440"
     inkscape:window-height="1369"
     inkscape:window-x="1912"
     inkscape:window-y="-8"
     inkscape:window-maximized="1"
     inkscape:pagecheckerboard="0">
    <sodipodi:guide
       position="8.4666666,0"
       orientation="-32,0"
       id="guide854"
       inkscape:locked="false" />
    <sodipodi:guide
       position="8.4666666,8.4666666"
       orientation="0,-32"
       id="guide856"
       inkscape:locked="false" />
    <sodipodi:guide
       position="0,8.4666814"
       orientation="32,0"
       id="guide858"
       inkscape:locked="false" />
  </sodipodi:namedview>
  <metadata
     id="metadata5">
    <rdf:RDF>
      <cc:Work
         rdf:about="">
        <dc:format>image/svg+xml</dc:format>
        <dc:type
           rdf:resource="http://purl.org/dc/dcmitype/StillImage" />
      </cc:Work>
    </rdf:RDF>
  </metadata>
  <path
     id="path815"
     style="fill:#b1b1b1;fill-opacity:1;stroke-width:0.0624049"
     d="M 2.9863281 0 C 1.331973 0 -0.0078125 1.3417386 -0.0078125 2.9960938 L -0.0078125 29.03125 C -0.0078125 30.685606 1.331973 32.027344 2.9863281 32.027344 L 29.009766 32.027344 C 30.66412 32.027344 32.005859 30.685606 32.005859 29.03125 L 32.005859 2.9960938 C 32.005859 1.3417386 30.66412 0 29.009766 0 L 2.9863281 0 z M 22.771484 1.9082031 C 26.256626 1.9082031 29.157052 4.4065918 29.779297 7.7109375 C 29.819222 7.9228609 29.655071 8.1191406 29.439453 8.1191406 L 27.791016 8.1191406 C 27.632041 8.1191406 27.495847 8.0096848 27.457031 7.8554688 C 26.926067 5.7367854 25.002961 4.2106719 22.775391 4.2089844 C 21.537632 4.2078879 20.371699 4.667942 19.472656 5.5097656 L 20.671875 6.7109375 C 21.106674 7.1457869 20.798506 7.8886719 20.183594 7.8886719 L 16.328125 7.8886719 C 15.946956 7.8886719 15.638672 7.5804143 15.638672 7.1992188 L 15.638672 3.34375 C 15.638672 2.7288011 16.381611 2.4206703 16.816406 2.8554688 L 17.84375 3.8828125 C 19.124189 2.6591712 20.860547 1.9082031 22.771484 1.9082031 z M 16.101562 9.9589844 L 17.75 9.9589844 C 17.908974 9.9589844 18.045169 10.06844 18.083984 10.222656 C 18.615213 12.342302 20.539207 13.869406 22.765625 13.871094 C 24.003413 13.872207 25.171265 13.410217 26.070312 12.568359 L 24.869141 11.367188 C 24.434342 10.932372 24.74251 10.189453 25.357422 10.189453 L 29.212891 10.189453 C 29.594105 10.189453 29.902344 10.499668 29.902344 10.880859 L 29.902344 14.734375 C 29.902344 15.349309 29.159408 15.657471 28.724609 15.222656 L 27.697266 14.195312 C 26.416827 15.418954 24.682421 16.171875 22.771484 16.171875 C 19.286339 16.171875 16.383993 13.671464 15.761719 10.367188 C 15.721794 10.155264 15.885944 9.9589844 16.101562 9.9589844 z M 6.9804688 13.683594 C 8.9105295 13.683594 10.474609 15.247675 10.474609 17.177734 C 10.474609 19.107795 8.9105295 20.671875 6.9804688 20.671875 C 5.0504095 20.671875 3.4863281 19.107795 3.4863281 17.177734 C 3.4863281 15.247675 5.0504095 13.683594 6.9804688 13.683594 z M 21.957031 17.488281 C 22.148685 17.488281 22.342066 17.560816 22.488281 17.707031 L 27.949219 23.167969 L 27.949219 30.158203 L 3.9863281 30.158203 L 3.9863281 27.162109 L 8.4472656 22.699219 C 8.7397572 22.406789 9.2153829 22.406789 9.5078125 22.699219 L 12.972656 26.164062 L 21.427734 17.707031 C 21.57398 17.560816 21.765378 17.488281 21.957031 17.488281 z "
     transform="scale(0.26458333)" />
</svg>
