<?xml version="1.0" encoding="UTF-8" standalone="no"?>
<!-- Created with Inkscape (http://www.inkscape.org/) -->

<svg
   width="32"
   height="32"
   viewBox="0 0 8.4666666 8.4666666"
   version="1.1"
   id="svg8"
   inkscape:version="1.1.1 (3bf5ae0d25, 2021-09-20)"
   sodipodi:docname="update_anim.svg"
   inkscape:export-filename="D:\RxLab\src\RxOT\DuAEF\DuAEF_Duik\inc\icons\w16\w16_update_anim.png"
   inkscape:export-xdpi="48"
   inkscape:export-ydpi="48"
   xmlns:inkscape="http://www.inkscape.org/namespaces/inkscape"
   xmlns:sodipodi="http://sodipodi.sourceforge.net/DTD/sodipodi-0.dtd"
   xmlns="http://www.w3.org/2000/svg"
   xmlns:svg="http://www.w3.org/2000/svg"
   xmlns:rdf="http://www.w3.org/1999/02/22-rdf-syntax-ns#"
   xmlns:cc="http://creativecommons.org/ns#"
   xmlns:dc="http://purl.org/dc/elements/1.1/">
  <defs
     id="defs2" />
  <sodipodi:namedview
     id="base"
     pagecolor="#ffffff"
     bordercolor="#666666"
     borderopacity="1.0"
     inkscape:pageopacity="0.0"
     inkscape:pageshadow="2"
     inkscape:zoom="16.000001"
     inkscape:cx="24.031249"
     inkscape:cy="20.031249"
     inkscape:document-units="mm"
     inkscape:current-layer="svg8"
     showgrid="false"
     units="px"
     inkscape:window-width="3440"
     inkscape:window-height="1369"
     inkscape:window-x="1912"
     inkscape:window-y="-8"
     inkscape:window-maximized="1"
     inkscape:pagecheckerboard="0" />
  <metadata
     id="metadata5">
    <rdf:RDF>
      <cc:Work
         rdf:about="">
        <dc:format>image/svg+xml</dc:format>
        <dc:type
           rdf:resource="http://purl.org/dc/dcmitype/StillImage" />
      </cc:Work>
    </rdf:RDF>
  </metadata>
  <path
     style="color:#000000;font-style:normal;font-variant:normal;font-weight:normal;font-stretch:normal;font-size:medium;line-height:normal;font-family:sans-serif;font-variant-ligatures:normal;font-variant-position:normal;font-variant-caps:normal;font-variant-numeric:normal;font-variant-alternates:normal;font-feature-settings:normal;text-indent:0;text-align:start;text-decoration:none;text-decoration-line:none;text-decoration-style:solid;text-decoration-color:#000000;letter-spacing:normal;word-spacing:normal;text-transform:none;writing-mode:lr-tb;direction:ltr;text-orientation:mixed;dominant-baseline:auto;baseline-shift:baseline;text-anchor:start;white-space:normal;shape-padding:0;clip-rule:nonzero;display:inline;overflow:visible;visibility:visible;opacity:1;isolation:auto;mix-blend-mode:normal;color-interpolation:sRGB;color-interpolation-filters:linearRGB;solid-color:#000000;solid-opacity:1;vector-effect:none;fill:#b1b1b1;fill-opacity:1;fill-rule:nonzero;stroke:none;stroke-width:1.08945;stroke-linecap:butt;stroke-linejoin:miter;stroke-miterlimit:4;stroke-dasharray:none;stroke-dashoffset:2.75;stroke-opacity:1;color-rendering:auto;image-rendering:auto;shape-rendering:auto;text-rendering:auto;enable-background:accumulate"
     d="m 0.41692503,1.3492882 c 0.1338689,0.161581 0.3225624,0.4049862 0.483658,0.7370026 C 1.2227741,2.7503237 1.5003692,3.7012096 1.7128214,4.6570993 2.1377256,6.5688792 2.3141951,8.4666667 2.314195,8.4666667 l 1.0778663,-2.659e-4 c 0,0 0.2067171,-0.9037903 0.723184,-2.0220701 C 4.2655513,6.118881 4.4446085,5.7907066 4.6454779,5.4759912 4.5780989,5.4208922 4.5136106,5.3625491 4.4520145,5.3009532 4.2378497,5.0867885 4.0645956,4.8343607 3.9335537,4.5613914 3.6065069,5.0275618 3.3422059,5.521706 3.1269453,5.9877986 3.0755533,6.0990759 3.1012253,6.0902035 3.0552923,6.1986633 2.9550822,5.4878147 2.9754333,5.3140466 2.7768691,4.4206445 2.5545459,3.420341 2.2708788,2.4134219 1.8812062,1.6103099 1.6863698,1.2087539 1.4660658,0.85580041 1.1825891,0.57543541 1.0408508,0.43525291 0.89801823,0.33570901 0.69111423,0.22360741 c -0.3952233,-0.2141339 -0.67246,0.038206 -0.683082,0.3238159 -0.010622,0.2856104 0.2453705,0.60449169 0.4088928,0.80186489 z"
     id="path915"
     inkscape:connector-curvature="0"
     sodipodi:nodetypes="sssccscccscssssss" />
  <path
     id="path815"
     style="fill:#b1b1b1;fill-opacity:1;stroke-width:0.0165113"
     d="m 6.3640533,1.5280198 c 0.9221104,0 1.6895148,0.6610321 1.8541505,1.5353068 0.010565,0.056071 -0.032868,0.1080038 -0.089917,0.1080038 h -0.436149 c -0.042062,0 -0.078097,-0.02896 -0.088367,-0.069763 C 7.4632867,2.5409989 6.9544649,2.1372147 6.365087,2.1367682 6.0375966,2.1364772 5.7291102,2.2582008 5.4912384,2.4809332 l 0.3172933,0.3178101 c 0.1150406,0.1150539 0.033505,0.3116089 -0.129191,0.3116089 H 4.6592479 c -0.100851,0 -0.1824178,-0.08156 -0.1824178,-0.1824178 V 1.9078416 c 0,-0.1627052 0.1965693,-0.2442315 0.3116088,-0.129191 L 5.060257,2.0504686 C 5.3990398,1.7267135 5.8584512,1.5280198 6.3640533,1.5280198 Z M 4.5993031,3.6581224 h 0.4361492 c 0.042062,0 0.078097,0.02896 0.088367,0.069763 0.1405539,0.5608231 0.6496107,0.9648693 1.2386838,0.965316 0.327498,2.91e-4 0.6364922,-0.1219404 0.8743651,-0.344682 L 6.9190583,4.0307096 C 6.8040178,3.9156645 6.8855539,3.7191005 7.0482494,3.7191005 h 1.0200928 c 0.1008628,0 0.1824177,0.082078 0.1824177,0.1829345 v 1.0195761 c 0,0.1627013 -0.1965684,0.2442358 -0.311609,0.129191 L 7.6673331,4.778984 C 7.3285503,5.1027393 6.8696553,5.3019497 6.3640533,5.3019497 c -0.9221113,0 -1.6900237,-0.6615671 -1.854667,-1.5358235 -0.010565,-0.056071 0.032868,-0.1080038 0.089917,-0.1080038 z"
     sodipodi:nodetypes="scssccccssssccsssccccssssccscs" />
</svg>
