<?xml version="1.0" encoding="UTF-8" standalone="no"?>
<svg
   width="32"
   height="32"
   viewBox="0 0 8.4666666 8.4666666"
   version="1.1"
   id="svg8"
   inkscape:version="1.2.2 (732a01da63, 2022-12-09)"
   sodipodi:docname="whale.svg"
   inkscape:export-filename="..\oco\whale.png"
   inkscape:export-xdpi="48"
   inkscape:export-ydpi="48"
   xmlns:inkscape="http://www.inkscape.org/namespaces/inkscape"
   xmlns:sodipodi="http://sodipodi.sourceforge.net/DTD/sodipodi-0.dtd"
   xmlns="http://www.w3.org/2000/svg"
   xmlns:svg="http://www.w3.org/2000/svg"
   xmlns:rdf="http://www.w3.org/1999/02/22-rdf-syntax-ns#"
   xmlns:cc="http://creativecommons.org/ns#"
   xmlns:dc="http://purl.org/dc/elements/1.1/">
  <defs
     id="defs2">
    <inkscape:path-effect
       effect="mirror_symmetry"
       start_point="4.2333333,0"
       end_point="4.2333333,8.4666667"
       center_point="4.2333333,4.2333333"
       id="path-effect897"
       is_visible="true"
       mode="vertical"
       discard_orig_path="false"
       fuse_paths="false"
       oposite_fuse="false" />
    <inkscape:path-effect
       effect="mirror_symmetry"
       start_point="4.2328811,1.6730093"
       end_point="4.2328811,6.1768975"
       center_point="4.2328811,3.9249534"
       id="path-effect862"
       is_visible="true"
       mode="free"
       discard_orig_path="false"
       fuse_paths="false"
       oposite_fuse="false" />
    <inkscape:path-effect
       effect="mirror_symmetry"
       start_point="4.2333333,0"
       end_point="4.2333333,8.4666667"
       center_point="4.2333333,4.2333333"
       id="path-effect858"
       is_visible="true"
       mode="vertical"
       discard_orig_path="false"
       fuse_paths="false"
       oposite_fuse="false" />
    <inkscape:path-effect
       effect="mirror_symmetry"
       start_point="4.2333333,0"
       end_point="4.2333333,8.4666667"
       center_point="4.2333333,4.2333333"
       id="path-effect854"
       is_visible="true"
       mode="vertical"
       discard_orig_path="false"
       fuse_paths="false"
       oposite_fuse="false" />
    <style
       id="style1399">.cls-1{fill:#e3e3e3;}</style>
    <style
       id="style1399-4">.cls-1{fill:#e3e3e3;}</style>
    <style
       id="style1399-8">.cls-1{fill:#e3e3e3;}</style>
    <style
       id="style1399-4-5">.cls-1{fill:#e3e3e3;}</style>
  </defs>
  <sodipodi:namedview
     id="base"
     pagecolor="#ffffff"
     bordercolor="#666666"
     borderopacity="1.0"
     inkscape:pageopacity="0.0"
     inkscape:pageshadow="2"
     inkscape:zoom="16.000001"
     inkscape:cx="14.374999"
     inkscape:cy="21.656249"
     inkscape:document-units="mm"
     inkscape:current-layer="svg8"
     showgrid="false"
     units="px"
     inkscape:window-width="1788"
     inkscape:window-height="1080"
     inkscape:window-x="2768"
     inkscape:window-y="142"
     inkscape:window-maximized="0"
     inkscape:document-rotation="0"
     inkscape:snap-nodes="false"
     inkscape:snap-bbox="true"
     inkscape:bbox-paths="true"
     inkscape:snap-bbox-edge-midpoints="true"
     inkscape:bbox-nodes="true"
     inkscape:snap-bbox-midpoints="true"
     inkscape:pagecheckerboard="0"
     inkscape:showpageshadow="0"
     inkscape:deskcolor="#d1d1d1" />
  <metadata
     id="metadata5">
    <rdf:RDF>
      <cc:Work
         rdf:about="">
        <dc:format>image/svg+xml</dc:format>
        <dc:type
           rdf:resource="http://purl.org/dc/dcmitype/StillImage" />
      </cc:Work>
    </rdf:RDF>
  </metadata>
  <path
     id="path378"
     style="fill:#b1b1b1;fill-opacity:1;stroke-width:0.330956;stroke-linecap:round;stroke-linejoin:round"
     d="M 0,1.539441 C 1.0549945e-4,2.0738058 0.619889,2.5107298 1.4035319,2.5455811 1.3879556,2.68103 1.380383,2.8172668 1.3802775,2.9538249 1.3807187,4.6505013 2.5660061,6.1166622 4.2250651,6.4719564 V 7.4703451 C 4.6229068,7.2349509 4.9459668,6.9160776 5.1753947,6.5458537 c 0.010057,-0.016234 0.020276,-0.032665 0.029972,-0.049093 0.00454,-0.00769 0.00846,-0.015524 0.012919,-0.023254 0.00929,-0.0161 0.01897,-0.031783 0.027905,-0.048059 0.00455,-0.00829 0.00898,-0.016985 0.013436,-0.025321 0.00202,-0.00376 0.0042,-0.00709 0.0062,-0.010852 0.010975,-0.020751 0.021632,-0.042026 0.032039,-0.063045 0.00177,-0.00359 0.0034,-0.00778 0.00517,-0.011369 0.010591,-0.021638 0.021024,-0.043205 0.031006,-0.065112 0.0014,-0.00308 0.00274,-0.0057 0.00413,-0.00878 0.00927,-0.020554 0.018141,-0.041232 0.026872,-0.062012 7.546e-4,-0.00179 0.00132,-0.00336 0.00207,-0.00517 0.00112,-0.00268 0.00251,-0.00559 0.00362,-0.00827 5.2e-4,-0.00126 0.00103,-0.00236 0.00155,-0.00362 0.00473,-0.011477 0.00939,-0.02308 0.013953,-0.034623 0.00114,-0.00287 0.0025,-0.00591 0.00362,-0.00878 0.0068,-0.017369 0.012698,-0.034681 0.01912,-0.052193 0.00192,-0.00523 0.00483,-0.010262 0.00672,-0.015503 0.004,-0.011133 0.00752,-0.022403 0.011369,-0.03359 6.088e-4,-0.00177 9.413e-4,-0.00339 0.00155,-0.00517 0.00333,-0.00977 0.0066,-0.020163 0.00982,-0.029972 0.00106,-0.00323 0.00205,-0.00606 0.0031,-0.0093 0.00376,-0.01164 0.00829,-0.023443 0.011886,-0.03514 4.366e-4,-0.00141 6e-4,-0.00323 0.00103,-0.00465 0.00131,-0.0043 0.00233,-0.00861 0.00362,-0.012919 0.00266,-0.00884 0.00519,-0.01749 0.00775,-0.026355 0.00355,-0.012294 0.00697,-0.024338 0.010335,-0.03669 2.399e-4,-8.799e-4 2.779e-4,-0.0017 5.168e-4,-0.00258 0.00117,-0.00432 0.00298,-0.00807 0.00413,-0.012402 0.00238,-0.00895 0.00444,-0.018414 0.00672,-0.027388 0.00149,-0.00586 0.00268,-0.011698 0.00413,-0.01757 0.00415,-0.016834 0.00807,-0.03423 0.011885,-0.05116 8.92e-4,-0.00396 0.00171,-0.0074 0.00258,-0.011369 0.00295,-0.01343 0.00656,-0.026821 0.0093,-0.040308 0.00272,-0.013368 0.00473,-0.026887 0.00723,-0.040308 0.00262,-0.014093 0.00536,-0.028739 0.00775,-0.042891 0.0022,-0.013041 0.0042,-0.026186 0.0062,-0.039274 0.00226,-0.01473 0.00472,-0.029138 0.00672,-0.043925 0.0017,-0.012604 0.00313,-0.025597 0.00465,-0.038241 4.693e-4,-0.00393 5.831e-4,-0.00796 0.00103,-0.011885 0.00244,-0.021206 0.00532,-0.042251 0.00723,-0.063562 2.247e-4,-0.00251 2.992e-4,-0.00472 5.168e-4,-0.00723 0.00137,-0.015813 0.00254,-0.031675 0.00362,-0.047542 8.007e-4,-0.011798 9.095e-4,-0.02383 0.00155,-0.035657 7.475e-4,-0.013912 0.00155,-0.027909 0.00207,-0.041858 9.39e-5,-0.00252 4.302e-4,-0.00471 5.167e-4,-0.00723 0.00379,-0.10545 0.092494,-0.1878476 0.1979208,-0.1834513 0.1050557,0.00407 0.18706,0.09235 0.1829345,0.1974039 C 5.9308765,5.710931 5.8256841,6.118378 5.6430664,6.4890096 7.0219133,6.2294359 8.123952,5.1918583 8.4666667,3.8312907 H 3.7108846 c -0.9153157,0 -1.7037074,-0.5225558 -2.085144,-1.2867431 C 2.3998286,2.5031425 3.0084973,2.0691848 3.0086019,1.539441 3.0081999,1.7752719 2.3352265,1.9145593 1.5048177,1.9146119 0.67420218,1.9146541 0,1.7836346 0,1.539441 Z m 6.5101969,2.6566853 c 0.105503,9.47e-5 0.190884,0.086216 0.1906861,0.1917196 -9.47e-5,0.105296 -0.08539,0.1905913 -0.1906861,0.190686 C 6.4046941,4.5787297 6.3190889,4.4933488 6.3189941,4.3878459 6.3187957,4.282136 6.404487,4.1959279 6.5101969,4.1961263 Z" />
</svg>
