<?xml version="1.0" encoding="UTF-8" standalone="no"?>
<svg
   width="32"
   height="32"
   viewBox="0 0 8.4666666 8.4666666"
   version="1.1"
   id="svg8"
   inkscape:version="1.1.1 (3bf5ae0d25, 2021-09-20)"
   sodipodi:docname="wiggle.svg"
   inkscape:export-filename="D:\DEV_SRC\RxOT\DuAEF_Duik\icons/w16/w16_animation.png"
   inkscape:export-xdpi="48.000004"
   inkscape:export-ydpi="48.000004"
   xmlns:inkscape="http://www.inkscape.org/namespaces/inkscape"
   xmlns:sodipodi="http://sodipodi.sourceforge.net/DTD/sodipodi-0.dtd"
   xmlns="http://www.w3.org/2000/svg"
   xmlns:svg="http://www.w3.org/2000/svg"
   xmlns:rdf="http://www.w3.org/1999/02/22-rdf-syntax-ns#"
   xmlns:cc="http://creativecommons.org/ns#"
   xmlns:dc="http://purl.org/dc/elements/1.1/">
  <defs
     id="defs2" />
  <sodipodi:namedview
     id="base"
     pagecolor="#ffffff"
     bordercolor="#666666"
     borderopacity="1.0"
     inkscape:pageopacity="0.0"
     inkscape:pageshadow="2"
     inkscape:zoom="22.627418"
     inkscape:cx="30.648658"
     inkscape:cy="18.009125"
     inkscape:document-units="mm"
     inkscape:current-layer="svg8"
     showgrid="false"
     units="px"
     inkscape:window-width="3378"
     inkscape:window-height="1417"
     inkscape:window-x="1974"
     inkscape:window-y="-8"
     inkscape:window-maximized="1"
     inkscape:document-rotation="0"
     inkscape:snap-bbox="true"
     inkscape:bbox-paths="true"
     inkscape:bbox-nodes="true"
     inkscape:snap-bbox-edge-midpoints="true"
     inkscape:snap-bbox-midpoints="true"
     inkscape:snap-nodes="false"
     inkscape:pagecheckerboard="0">
    <sodipodi:guide
       position="8.4666666,0"
       orientation="-32,0"
       id="guide854"
       inkscape:locked="false" />
    <sodipodi:guide
       position="8.4666666,8.4666666"
       orientation="0,-32"
       id="guide856"
       inkscape:locked="false" />
    <sodipodi:guide
       position="0,8.4666814"
       orientation="32,0"
       id="guide858"
       inkscape:locked="false" />
  </sodipodi:namedview>
  <metadata
     id="metadata5">
    <rdf:RDF>
      <cc:Work
         rdf:about="">
        <dc:format>image/svg+xml</dc:format>
        <dc:type
           rdf:resource="http://purl.org/dc/dcmitype/StillImage" />
      </cc:Work>
    </rdf:RDF>
  </metadata>
  <path
     style="color:#000000;fill:#b1b1b1;stroke-linecap:round;-inkscape-stroke:none"
     d="M 6.2949219,0.85742188 C 5.9367001,0.87179905 5.5994597,1.0234188 5.3710937,1.2558594 5.1427278,1.4882999 5.0113666,1.7754775 4.9199219,2.0742188 4.7370325,2.6717012 4.7042582,3.3570095 4.6640625,4.0253906 4.6238668,4.6937718 4.5773236,5.344679 4.4511719,5.7695312 4.388096,5.9819574 4.3079372,6.12903 4.234375,6.2089844 c -0.073562,0.079954 -0.1274252,0.1126646 -0.2617187,0.125 -0.059211,0.00544 -0.054846,0.00157 -0.082031,-0.017578 C 3.8634397,6.2972609 3.8095626,6.2402984 3.7519531,6.1328125 3.6367342,5.9178406 3.5264599,5.5281931 3.4199219,5.109375 3.3133838,4.6905569 3.2068108,4.2427408 3.0039063,3.8417969 2.8010017,3.440853 2.404608,3.0328895 1.859375,3.0195313 1.2674778,3.0050298 0.79680958,3.3842382 0.51367187,3.8222656 0.23053417,4.260293 0.07223075,4.7853876 0.00585938,5.3027344 A 0.50006503,0.50006503 0 0 0 0.43945313,5.8632812 0.50006503,0.50006503 0 0 0 0.99804688,5.4316406 C 1.0486849,5.0369311 1.1839204,4.6276062 1.3535156,4.3652344 1.5231108,4.1028626 1.666379,4.0153771 1.8359375,4.0195312 c 0.1146587,0.00281 0.1548556,0.031398 0.2773438,0.2734375 0.1224881,0.2420393 0.2309638,0.644107 0.3378906,1.0644532 0.1069267,0.4203461 0.2090795,0.8583079 0.4179687,1.2480468 0.1044446,0.1948695 0.2410508,0.3854443 0.4453125,0.5292969 0.2042618,0.1438527 0.4805498,0.2200624 0.75,0.1953125 C 4.42287,7.2971563 4.7496925,7.126934 4.9707031,6.8867187 5.1917138,6.6465035 5.3201263,6.3559362 5.4101562,6.0527344 5.5902162,5.4463307 5.6219376,4.7539211 5.6621094,4.0859375 5.7022811,3.4179539 5.7519546,2.7755459 5.8769531,2.3671875 5.9394524,2.1630083 6.0184735,2.025699 6.0859375,1.9570312 c 0.067464,-0.068668 0.1118821,-0.096098 0.2480469,-0.1015625 0.1829454,-0.00734 0.2786584,0.034605 0.3925781,0.1328125 0.1139197,0.098208 0.2351711,0.2759842 0.3378906,0.5292969 0.205439,0.5066254 0.3240555,1.2811165 0.3945313,2.0605469 A 0.50006503,0.50006503 0 0 0 8.0019531,5.03125 0.50006503,0.50006503 0 0 0 8.4550781,4.4882812 C 8.3816113,3.6757714 8.274233,2.8381199 7.9921875,2.1425781 7.8511648,1.7948072 7.6621117,1.4746145 7.3789062,1.2304687 7.0957008,0.98632297 6.707483,0.84086379 6.2949219,0.85742188 Z"
     id="path981" />
</svg>
