<?xml version="1.0" encoding="UTF-8" standalone="no"?>
<!-- Created with Inkscape (http://www.inkscape.org/) -->

<svg
   width="32"
   height="32"
   viewBox="0 0 8.4666666 8.4666666"
   version="1.1"
   id="svg8"
   inkscape:version="1.1.1 (3bf5ae0d25, 2021-09-20)"
   sodipodi:docname="cmd.svg"
   inkscape:export-filename="D:\RxLab\src\RxOT\DuAEF\DuAEF_Duik\inc\icons\w12\w12_cmd.png"
   inkscape:export-xdpi="36"
   inkscape:export-ydpi="36"
   xmlns:inkscape="http://www.inkscape.org/namespaces/inkscape"
   xmlns:sodipodi="http://sodipodi.sourceforge.net/DTD/sodipodi-0.dtd"
   xmlns="http://www.w3.org/2000/svg"
   xmlns:svg="http://www.w3.org/2000/svg"
   xmlns:rdf="http://www.w3.org/1999/02/22-rdf-syntax-ns#"
   xmlns:cc="http://creativecommons.org/ns#"
   xmlns:dc="http://purl.org/dc/elements/1.1/">
  <defs
     id="defs2">
    <style
       id="style1399">.cls-1{fill:#e3e3e3;}</style>
  </defs>
  <sodipodi:namedview
     id="base"
     pagecolor="#ffffff"
     bordercolor="#666666"
     borderopacity="1.0"
     inkscape:pageopacity="0.0"
     inkscape:pageshadow="2"
     inkscape:zoom="19.693946"
     inkscape:cx="17.213412"
     inkscape:cy="16.350202"
     inkscape:document-units="mm"
     inkscape:current-layer="svg8"
     showgrid="false"
     units="px"
     inkscape:window-width="1843"
     inkscape:window-height="1146"
     inkscape:window-x="2473"
     inkscape:window-y="207"
     inkscape:window-maximized="0"
     inkscape:pagecheckerboard="0" />
  <metadata
     id="metadata5">
    <rdf:RDF>
      <cc:Work
         rdf:about="">
        <dc:format>image/svg+xml</dc:format>
        <dc:type
           rdf:resource="http://purl.org/dc/dcmitype/StillImage" />
      </cc:Work>
    </rdf:RDF>
  </metadata>
  <path
     style="fill:#232323;fill-opacity:1;stroke-width:0.0217417"
     d="m 0.89225347,2.0369259 c 0.0493537,-0.0014 0.0989963,0.016398 0.13751633,0.052506 L 3.3425441,4.258856 c 0.081854,0.075435 0.081854,0.2054317 0,0.280867 L 1.0297698,6.7083137 c -0.0786447,0.072215 -0.20030836,0.068643 -0.27253232,-0.01 L 0.05882128,5.9540583 C -0.01660567,5.8754129 -0.00969766,5.7495818 0.0721562,5.6773576 L 1.5256619,4.3988729 0.0721562,3.1178877 C -0.00970573,3.0456635 -0.01500898,2.920666 0.05882128,2.8420215 l 0.6984162,-0.745088 c 0.0369135,-0.038517 0.0856634,-0.058605 0.13501599,-0.060008 z M 8.2631279,5.4139937 c 0.1066995,-9.072e-4 0.1924311,0.086656 0.193356,0.193356 l 8.374e-4,1.0192875 c 9.07e-4,0.1067012 -0.086657,0.1924311 -0.193356,0.193356 l -4.3205127,0.00167 C 3.8363048,6.8210398 3.7494796,6.7362924 3.7500966,6.629145 V 5.6090239 C 3.7491894,5.5023231 3.8359203,5.4174259 3.942619,5.4165015 Z"
     id="path1026"
     sodipodi:nodetypes="scccccccccccsccccccccc" />
</svg>
