<?xml version="1.0" encoding="UTF-8" standalone="no"?>
<svg
   width="32"
   height="32"
   viewBox="0 0 8.4666666 8.4666666"
   version="1.1"
   id="svg8"
   inkscape:version="1.1 (c68e22c387, 2021-05-23)"
   sodipodi:docname="copy_expression.svg"
   inkscape:export-filename="C:\DEV_SRC\RxOT\DuAEF_Duik\icons\w12\w12_copy_expression.png"
   inkscape:export-xdpi="36"
   inkscape:export-ydpi="36"
   xmlns:inkscape="http://www.inkscape.org/namespaces/inkscape"
   xmlns:sodipodi="http://sodipodi.sourceforge.net/DTD/sodipodi-0.dtd"
   xmlns="http://www.w3.org/2000/svg"
   xmlns:svg="http://www.w3.org/2000/svg"
   xmlns:rdf="http://www.w3.org/1999/02/22-rdf-syntax-ns#"
   xmlns:cc="http://creativecommons.org/ns#"
   xmlns:dc="http://purl.org/dc/elements/1.1/">
  <defs
     id="defs2" />
  <sodipodi:namedview
     id="base"
     pagecolor="#ffffff"
     bordercolor="#666666"
     borderopacity="1.0"
     inkscape:pageopacity="0.0"
     inkscape:pageshadow="2"
     inkscape:zoom="15.999999"
     inkscape:cx="12.500001"
     inkscape:cy="7.8750005"
     inkscape:document-units="mm"
     inkscape:current-layer="layer1"
     showgrid="false"
     units="px"
     inkscape:window-width="1920"
     inkscape:window-height="1137"
     inkscape:window-x="-8"
     inkscape:window-y="-8"
     inkscape:window-maximized="1"
     inkscape:snap-bbox="true"
     inkscape:bbox-paths="true"
     inkscape:bbox-nodes="true"
     inkscape:snap-bbox-edge-midpoints="true"
     inkscape:snap-bbox-midpoints="true"
     inkscape:snap-nodes="false"
     inkscape:document-rotation="0"
     inkscape:pagecheckerboard="1">
    <sodipodi:guide
       position="8.4666666,0"
       orientation="-32,0"
       id="guide854"
       inkscape:locked="false" />
    <sodipodi:guide
       position="8.4666666,8.4666666"
       orientation="0,-32"
       id="guide856"
       inkscape:locked="false" />
    <sodipodi:guide
       position="0,8.4666814"
       orientation="32,0"
       id="guide858"
       inkscape:locked="false" />
  </sodipodi:namedview>
  <metadata
     id="metadata5">
    <rdf:RDF>
      <cc:Work
         rdf:about="">
        <dc:format>image/svg+xml</dc:format>
        <dc:type
           rdf:resource="http://purl.org/dc/dcmitype/StillImage" />
      </cc:Work>
    </rdf:RDF>
  </metadata>
  <g
     inkscape:label="Layer 1"
     inkscape:groupmode="layer"
     id="layer1"
     transform="translate(0,-288.53334)">
    <path
       id="path819"
       style="fill:#232323;fill-opacity:1;stroke-width:0.062459"
       d="M 11.005859,0 C 10.177967,0 9.5078125,0.67014136 9.5078125,1.4980469 V 24.484375 c 0,0.827906 0.6701545,1.498047 1.4980465,1.498047 h 16.990235 c 0.827893,0 1.498047,-0.670141 1.498047,-1.498047 V 7.9941406 H 22.998047 C 22.173589,7.9941406 21.5,7.3205221 21.5,6.4960938 V 0 Z m 12.492188,0 v 5.9960938 h 5.996094 V 5.6171875 A 1.4990132,1.4990132 0 0 0 29.054688,4.5585938 L 24.9375,0.43945312 A 1.4990132,1.4990132 0 0 0 23.876953,0 Z M 3.0117188,5.9960938 c -0.8278936,0 -1.4980469,0.6701413 -1.4980469,1.4980468 V 30.480469 c 0,0.827867 0.6701533,1.498047 1.4980469,1.498047 H 20 c 0.827892,0 1.5,-0.67018 1.5,-1.498047 V 27.982422 H 11.005859 c -1.9286676,0 -3.4980465,-1.569354 -3.4980465,-3.498047 V 5.9960938 Z M 13.023438,7.8632812 c 0.442783,-0.033328 0.890108,0.1669772 1.251953,0.3574219 l 8.722656,4.6855469 c 1.44738,0.761779 2.246094,1.561424 2.246094,2.818359 0,1.218847 -0.685421,1.980403 -2.285157,2.81836 l -8.683593,4.685547 c -0.72369,0.380889 -1.790962,0.798942 -2.476563,-0.648438 -0.72369,-1.485469 0.305607,-1.980439 1.029297,-2.361328 l 8.607422,-4.455078 -8.646485,-4.457031 c -0.761778,-0.38089 -1.713924,-0.876833 -0.990234,-2.400391 0.342801,-0.7427344 0.781826,-1.0096409 1.22461,-1.0429688 z"
       transform="matrix(0.26458333,0,0,0.26458333,0,288.53334)" />
  </g>
</svg>
