<?xml version="1.0" encoding="UTF-8" standalone="no"?>
<!-- Created with Inkscape (http://www.inkscape.org/) -->

<svg
   width="32"
   height="32"
   viewBox="0 0 8.4666666 8.4666666"
   version="1.1"
   id="svg8"
   inkscape:version="1.1.1 (3bf5ae0d25, 2021-09-20)"
   sodipodi:docname="dock-tab-script_sl.svg"
   inkscape:export-filename="D:\RxLab\src\RxOT\DuAEF\DuAEF_Duik\inc\icons\w12\w12_dock.png"
   inkscape:export-xdpi="36"
   inkscape:export-ydpi="36"
   xmlns:inkscape="http://www.inkscape.org/namespaces/inkscape"
   xmlns:sodipodi="http://sodipodi.sourceforge.net/DTD/sodipodi-0.dtd"
   xmlns="http://www.w3.org/2000/svg"
   xmlns:svg="http://www.w3.org/2000/svg"
   xmlns:rdf="http://www.w3.org/1999/02/22-rdf-syntax-ns#"
   xmlns:cc="http://creativecommons.org/ns#"
   xmlns:dc="http://purl.org/dc/elements/1.1/">
  <defs
     id="defs2">
    <style
       id="style1399">.cls-1{fill:#e3e3e3;}</style>
  </defs>
  <sodipodi:namedview
     id="base"
     pagecolor="#ffffff"
     bordercolor="#666666"
     borderopacity="1.0"
     inkscape:pageopacity="0.0"
     inkscape:pageshadow="2"
     inkscape:zoom="15.999999"
     inkscape:cx="21.281251"
     inkscape:cy="13.531251"
     inkscape:document-units="mm"
     inkscape:current-layer="layer1"
     showgrid="false"
     units="px"
     inkscape:window-width="3440"
     inkscape:window-height="1369"
     inkscape:window-x="1912"
     inkscape:window-y="-8"
     inkscape:window-maximized="1"
     inkscape:snap-bbox="true"
     inkscape:bbox-paths="true"
     inkscape:snap-bbox-edge-midpoints="true"
     inkscape:bbox-nodes="true"
     inkscape:snap-bbox-midpoints="true"
     inkscape:snap-nodes="false"
     inkscape:pagecheckerboard="0">
    <sodipodi:guide
       position="8.4666666,0"
       orientation="-32,0"
       id="guide854"
       inkscape:locked="false" />
    <sodipodi:guide
       position="8.4666666,8.4666666"
       orientation="0,-32"
       id="guide856"
       inkscape:locked="false" />
    <sodipodi:guide
       position="0,8.4666814"
       orientation="32,0"
       id="guide858"
       inkscape:locked="false" />
  </sodipodi:namedview>
  <metadata
     id="metadata5">
    <rdf:RDF>
      <cc:Work
         rdf:about="">
        <dc:format>image/svg+xml</dc:format>
        <dc:type
           rdf:resource="http://purl.org/dc/dcmitype/StillImage" />
      </cc:Work>
    </rdf:RDF>
  </metadata>
  <g
     inkscape:label="Layer 1"
     inkscape:groupmode="layer"
     id="layer1"
     transform="translate(0,-288.53334)">
    <path
       id="rect937"
       style="fill:#b1b1b1;fill-opacity:1;stroke:none;stroke-width:3.90198;stroke-linecap:round;stroke-linejoin:round"
       d="M 6.8945312,0 C 5.3275827,0 4.0664063,1.2611763 4.0664062,2.828125 v 3.09375 H 2.828125 C 1.2611763,5.921875 0,7.1830513 0,8.75 v 20.505859 c 0,1.566949 1.2611763,2.830078 2.828125,2.830079 h 26.339844 c 1.566948,0 2.828125,-1.26313 2.828125,-2.830079 V 8.75 c 0,-1.5669487 -1.261177,-2.828125 -2.828125,-2.828125 H 22.007812 V 2.828125 C 22.007812,1.2611763 20.746634,0 19.179688,0 Z m 0.3125,12.246094 v 0.002 c 0.1417354,-0.0042 0.2819552,0.04683 0.3925782,0.150391 l 6.6445316,6.230468 c 0.235056,0.216643 0.235056,0.590452 0,0.806641 L 7.5996094,25.664062 C 7.3737558,25.869291 7.0238229,25.858828 6.8164062,25.632812 L 4.8125,23.496094 C 4.5958915,23.270229 4.6145417,22.908668 4.8496094,22.701172 L 9.0253906,19.029297 4.8496094,15.351562 C 4.614519,15.14418 4.6004761,14.782656 4.8125,14.556641 l 2.0039062,-2.138672 c 0.1060067,-0.110362 0.248889,-0.169003 0.390625,-0.171875 z m 21.1660158,9.699218 c 0.306422,-0.0026 0.552032,0.248168 0.554687,0.554688 l 0.002,2.925781 c 0.0027,0.306255 -0.24827,0.55208 -0.554688,0.554688 l -12.40625,0.0078 c -0.307718,-0.0018 -0.556457,-0.245081 -0.554688,-0.552734 l -0.002,-2.929688 c -0.0027,-0.306217 0.248266,-0.552079 0.554688,-0.554687 z"
       transform="matrix(0.26458333,0,0,0.26458333,0,288.53334)"
       sodipodi:nodetypes="sscssscsssscsssccccccccccccccccccccccc" />
  </g>
</svg>
