<?xml version="1.0" encoding="UTF-8" standalone="no"?>
<svg
   id="Calque_1"
   data-name="Calque 1"
   viewBox="0 0 32 32"
   version="1.1"
   sodipodi:docname="extract_locator.svg"
   inkscape:version="1.1 (c68e22c387, 2021-05-23)"
   inkscape:export-filename="D:\DEV_SRC\RxOT\DuAEF\DuAEF_Duik\icons\w12\w12_extract_locator.png"
   inkscape:export-xdpi="36"
   inkscape:export-ydpi="36"
   xmlns:inkscape="http://www.inkscape.org/namespaces/inkscape"
   xmlns:sodipodi="http://sodipodi.sourceforge.net/DTD/sodipodi-0.dtd"
   xmlns="http://www.w3.org/2000/svg"
   xmlns:svg="http://www.w3.org/2000/svg"
   xmlns:rdf="http://www.w3.org/1999/02/22-rdf-syntax-ns#"
   xmlns:cc="http://creativecommons.org/ns#"
   xmlns:dc="http://purl.org/dc/elements/1.1/">
  <sodipodi:namedview
     id="namedview25"
     pagecolor="#ffffff"
     bordercolor="#111111"
     borderopacity="1"
     inkscape:pageshadow="0"
     inkscape:pageopacity="0"
     inkscape:pagecheckerboard="1"
     showgrid="false"
     inkscape:zoom="9.3028735"
     inkscape:cx="-13.382962"
     inkscape:cy="27.572126"
     inkscape:window-width="1920"
     inkscape:window-height="1027"
     inkscape:window-x="-8"
     inkscape:window-y="-8"
     inkscape:window-maximized="1"
     inkscape:current-layer="Calque_1"
     inkscape:snap-bbox="true"
     inkscape:bbox-paths="true"
     inkscape:bbox-nodes="true"
     inkscape:snap-bbox-edge-midpoints="true"
     inkscape:snap-bbox-midpoints="true"
     inkscape:snap-global="false" />
  <defs
     id="defs4">
    <style
       id="style2">.cls-1,.cls-2{fill:none;stroke:#e3e3e3;stroke-miterlimit:10;}.cls-1{stroke-width:3px;}.cls-2{stroke-width:2px;}</style>
    <style
       id="style1399">.cls-1{fill:#e3e3e3;}</style>
    <style
       id="style1399-1">.cls-1{fill:#e3e3e3;}</style>
    <style
       id="style1399-5">.cls-1{fill:#e3e3e3;}</style>
    <style
       id="style1399-8">.cls-1{fill:#e3e3e3;}</style>
  </defs>
  <title
     id="title6">measure_l</title>
  <metadata
     id="metadata1695">
    <rdf:RDF>
      <cc:Work
         rdf:about="">
        <dc:title>measure_l</dc:title>
      </cc:Work>
    </rdf:RDF>
  </metadata>
  <path
     id="path3259"
     style="color:#000000;fill:#232323;stroke-width:0.178799;stroke-linecap:round;-inkscape-stroke:none"
     d="m 14.025919,13.339673 v 4.679728 c 0.452456,-0.145199 0.932723,-0.22448 1.430489,-0.22448 0.452277,0 0.889836,0.06596 1.305652,0.186685 v -4.641933 z m 1.430489,6.355315 c -1.567659,0 -2.847235,1.28072 -2.847235,2.84838 0,1.56766 1.279576,2.848381 2.847235,2.848381 1.56766,0 2.848382,-1.280721 2.848382,-2.848381 0,-1.56766 -1.280722,-2.84838 -2.848382,-2.84838 z m -9.3273875,1.545019 v 2.732705 h 4.8034215 c -0.144807,-0.45207 -0.223335,-0.932247 -0.223335,-1.429344 0,-0.451348 0.06641,-0.888237 0.186685,-1.303361 z m 13.8891505,0 c 0.120329,0.415187 0.186684,0.851852 0.186684,1.303361 0,0.497343 -0.07957,0.977157 -0.22448,1.429344 h 4.678584 v -2.732705 z m -5.992252,5.827327 v 4.805713 H 16.76206 V 27.10513 c -0.415816,0.120723 -0.853375,0.186685 -1.305652,0.186685 -0.497766,0 -0.978033,-0.07928 -1.430489,-0.224481 z" />
  <path
     style="fill:#232323;fill-opacity:1;stroke:none;stroke-width:6.87432;stroke-miterlimit:4;stroke-dasharray:none;stroke-opacity:1"
     d="m 18.210082,0.02800957 c -0.306564,-0.036 -0.632734,0.05825 -0.889802,0.315513 L 13.023354,4.6404546 c -0.424914,0.424733 -0.427176,1.111857 -0.0023,1.536715 l 4.299196,4.2992074 c 0.685429,0.685373 1.858991,0.197492 1.85905,-0.7717954 v -2.67392 c 1.940503,0.06375 3.753798,0.848042 5.132251,2.229037 2.481137,2.4848534 2.922876,6.3327534 1.15311,9.2861874 -0.12873,0.21549 -0.09779,0.487931 0.07945,0.665074 l 1.838622,1.838626 c 0.240416,0.240238 0.641282,0.20349 0.833107,-0.077 2.989673,-4.376897 2.538729,-10.397362 -1.346077,-14.2822104 -2.130079,-2.130117 -4.899197,-3.225799 -7.690432,-3.289096 v -2.290336 c -3e-6,-0.60585103 -0.458309,-1.02301003 -0.969247,-1.08273303 z"
     id="path4811"
     inkscape:connector-curvature="0"
     sodipodi:nodetypes="sccccccccccccccs" />
</svg>
