<?xml version="1.0" encoding="UTF-8" standalone="no"?>
<!-- Created with Inkscape (http://www.inkscape.org/) -->

<svg
   width="32"
   height="32"
   viewBox="0 0 8.4666666 8.4666666"
   version="1.1"
   id="svg8"
   inkscape:version="1.1 (c68e22c387, 2021-05-23)"
   sodipodi:docname="fin.svg"
   inkscape:export-filename="D:\DEV_SRC\RxOT\DuAEF\DuAEF_Duik\icons\w16\w16_fin.png"
   inkscape:export-xdpi="48"
   inkscape:export-ydpi="48"
   xmlns:inkscape="http://www.inkscape.org/namespaces/inkscape"
   xmlns:sodipodi="http://sodipodi.sourceforge.net/DTD/sodipodi-0.dtd"
   xmlns="http://www.w3.org/2000/svg"
   xmlns:svg="http://www.w3.org/2000/svg"
   xmlns:rdf="http://www.w3.org/1999/02/22-rdf-syntax-ns#"
   xmlns:cc="http://creativecommons.org/ns#"
   xmlns:dc="http://purl.org/dc/elements/1.1/">
  <defs
     id="defs2">
    <style
       id="style1399">.cls-1{fill:#e3e3e3;}</style>
    <style
       id="style1399-4">.cls-1{fill:#e3e3e3;}</style>
    <style
       id="style1399-8">.cls-1{fill:#e3e3e3;}</style>
    <style
       id="style1399-4-5">.cls-1{fill:#e3e3e3;}</style>
    <style
       id="style1399-0">.cls-1{fill:#e3e3e3;}</style>
    <style
       id="style854">.cls-1{fill:#e3e3e3;}</style>
    <style
       id="style1399-84">.cls-1{fill:#e3e3e3;}</style>
    <style
       id="style1399-4-8">.cls-1{fill:#e3e3e3;}</style>
    <style
       id="style1399-8-10">.cls-1{fill:#e3e3e3;}</style>
    <style
       id="style1399-4-5-3">.cls-1{fill:#e3e3e3;}</style>
    <style
       id="style1399-0-0">.cls-1{fill:#e3e3e3;}</style>
    <style
       id="style1399-5">.cls-1{fill:#e3e3e3;}</style>
    <style
       id="style1399-4-6">.cls-1{fill:#e3e3e3;}</style>
    <style
       id="style1399-8-1">.cls-1{fill:#e3e3e3;}</style>
    <style
       id="style1399-4-5-1">.cls-1{fill:#e3e3e3;}</style>
    <style
       id="style1399-0-5">.cls-1{fill:#e3e3e3;}</style>
    <style
       id="style1257">.cls-1{fill:#e3e3e3;}</style>
  </defs>
  <sodipodi:namedview
     id="base"
     pagecolor="#ffffff"
     bordercolor="#666666"
     borderopacity="1.0"
     inkscape:pageopacity="0.0"
     inkscape:pageshadow="2"
     inkscape:zoom="18.965678"
     inkscape:cx="8.4099287"
     inkscape:cy="20.326191"
     inkscape:document-units="mm"
     inkscape:current-layer="svg8"
     showgrid="false"
     units="px"
     inkscape:window-width="1920"
     inkscape:window-height="1027"
     inkscape:window-x="-8"
     inkscape:window-y="-8"
     inkscape:window-maximized="1"
     inkscape:snap-bbox="true"
     inkscape:bbox-paths="true"
     inkscape:bbox-nodes="true"
     inkscape:snap-bbox-edge-midpoints="true"
     inkscape:snap-bbox-midpoints="true"
     inkscape:snap-nodes="true"
     inkscape:snap-others="true"
     inkscape:snap-object-midpoints="true"
     inkscape:snap-page="true"
     inkscape:pagecheckerboard="1"
     inkscape:snap-global="false">
    <sodipodi:guide
       position="8.4666666,0"
       orientation="-32,0"
       id="guide854"
       inkscape:locked="false" />
    <sodipodi:guide
       position="6.7220706,8.4666666"
       orientation="0,-32"
       id="guide856"
       inkscape:locked="false" />
    <sodipodi:guide
       position="0,8.4666814"
       orientation="32,0"
       id="guide858"
       inkscape:locked="false" />
  </sodipodi:namedview>
  <metadata
     id="metadata5">
    <rdf:RDF>
      <cc:Work
         rdf:about="">
        <dc:format>image/svg+xml</dc:format>
        <dc:type
           rdf:resource="http://purl.org/dc/dcmitype/StillImage" />
      </cc:Work>
    </rdf:RDF>
  </metadata>
  <path
     style="fill:#232323;fill-opacity:1;stroke:none;stroke-width:0.31305px;stroke-linecap:butt;stroke-linejoin:miter;stroke-opacity:1"
     d="m 6.952187,1.2777824 c 0,0 -0.3091362,0.9956195 -0.095688,1.7448272 C 7.154313,4.0679429 7.6317718,5.1128363 8.2526753,4.7226933 8.8457866,4.3500134 7.7235811,3.6030971 7.3681618,2.8164725 7.0454261,2.1021843 6.952187,1.2777824 6.952187,1.2777824 Z"
     id="path1264"
     sodipodi:nodetypes="csasc" />
  <path
     style="fill:#232323;fill-opacity:1;stroke:none;stroke-width:0.31305px;stroke-linecap:butt;stroke-linejoin:miter;stroke-opacity:1"
     d="m 0.02783833,2.6917212 c 0,0 0.93422587,-0.887309 2.87215707,-1.3920237 1.1455768,-0.298354 3.5322,0.079224 3.5369676,0.3195505 C 6.448925,2.2222705 5.557221,1.660816 4.0366088,1.581835 1.7106519,1.4610247 0.02783833,2.691721 0.02783833,2.6917212 Z"
     id="path1696"
     sodipodi:nodetypes="csssc" />
  <path
     style="fill:#232323;fill-opacity:1;stroke:none;stroke-width:0.31305px;stroke-linecap:butt;stroke-linejoin:miter;stroke-opacity:1"
     d="m -0.02415596,4.0262595 c 0,0 1.05111116,-0.920196 2.91199536,-1.660077 1.1000317,-0.437369 3.5150023,-0.3570341 3.5493746,-0.1191308 0.086247,0.5969428 -1.0261521,0.0597 -2.5351298,0.263382 -2.2198663,0.2996381 -3.92624016,1.5158258 -3.92624016,1.5158258 z"
     id="path3399"
     sodipodi:nodetypes="csssc" />
  <path
     style="fill:#232323;fill-opacity:1;stroke:none;stroke-width:0.31305px;stroke-linecap:butt;stroke-linejoin:miter;stroke-opacity:1"
     d="m 0.82500774,5.4834686 c 0,0 0.51115046,-0.8750168 2.21425376,-1.9284651 C 4.0460233,2.9322743 6.4379208,2.5896906 6.5133061,2.8179371 6.7024613,3.3906497 5.5133427,3.0558991 4.0631127,3.5199386 1.9296703,4.2025901 0.82500774,5.4834686 0.82500774,5.4834686 Z"
     id="path3652"
     sodipodi:nodetypes="csssc" />
  <path
     style="fill:#232323;fill-opacity:1;stroke:none;stroke-width:0.31305px;stroke-linecap:butt;stroke-linejoin:miter;stroke-opacity:1"
     d="m 1.9254998,6.4850897 c 0,0 0.3658383,-1.1542132 2.0722002,-2.2023752 C 4.7218706,3.8378802 6.5667789,3.1909322 6.6795089,3.4032324 6.962369,3.9359325 5.8856008,3.79445 4.5108324,4.4142825 2.4687904,5.334964 1.9254998,6.4850897 1.9254998,6.4850897 Z"
     id="path3654"
     sodipodi:nodetypes="csssc" />
  <path
     style="fill:#232323;fill-opacity:1;stroke:none;stroke-width:0.31305px;stroke-linecap:butt;stroke-linejoin:miter;stroke-opacity:1"
     d="m 3.030751,7.1481109 c 0,0 0.3893511,-1.2065781 1.5704226,-2.1063614 C 5.3293698,4.486983 6.7229869,3.7761213 6.868139,3.9677206 7.232352,4.4484785 6.3761836,4.4814502 5.26687,5.0742749 3.6232089,5.9526588 3.030751,7.1481109 3.030751,7.1481109 Z"
     id="path3656"
     sodipodi:nodetypes="csssc" />
  <path
     style="fill:#232323;fill-opacity:1;stroke:none;stroke-width:0.31305px;stroke-linecap:butt;stroke-linejoin:miter;stroke-opacity:1"
     d="m 4.3920894,7.6411952 c 0,0 0.00388,-1.1118488 1.0672479,-2.1676808 C 5.8604765,5.0752165 6.9833256,4.3009132 7.1629205,4.4606789 7.613557,4.8615606 6.8280073,5.0109931 6.1761237,5.4787753 4.5249754,6.663615 4.3920894,7.6411952 4.3920894,7.6411952 Z"
     id="path3658"
     sodipodi:nodetypes="csssc" />
  <path
     style="fill:#232323;fill-opacity:1;stroke:none;stroke-width:0.31305px;stroke-linecap:butt;stroke-linejoin:miter;stroke-opacity:1"
     d="m 6.3063102,7.3732927 c 0,0 0.056349,-0.9504569 0.3572051,-1.5161341 C 7.0644886,5.1032383 7.3474923,4.8645212 7.563811,4.9693334 8.1065947,5.2323265 7.5505008,5.3508941 7.0452768,5.895319 6.4259394,6.5627118 6.3063102,7.3732927 6.3063102,7.3732927 Z"
     id="path3660"
     sodipodi:nodetypes="csssc" />
  <path
     style="fill:#232323;fill-opacity:1;stroke:none;stroke-width:0.31305px;stroke-linecap:butt;stroke-linejoin:miter;stroke-opacity:1"
     d="m 8.1588613,7.2252427 c 0,0 -0.3554235,-0.464258 -0.3989698,-1.2922125 -0.015416,-0.2930957 0.1216568,-0.7484023 0.3620056,-0.7449384 0.6030788,0.00869 0.056607,0.5026126 -0.023935,0.8339496 -0.1914341,0.7875422 0.060898,1.2032013 0.060899,1.2032013 z"
     id="path3662"
     sodipodi:nodetypes="csssc" />
</svg>
