<?xml version="1.0" encoding="UTF-8" standalone="no"?>
<!-- Created with Inkscape (http://www.inkscape.org/) -->

<svg
   width="32"
   height="32"
   viewBox="0 0 8.4666666 8.4666666"
   version="1.1"
   id="svg8"
   inkscape:version="1.1.1 (3bf5ae0d25, 2021-09-20)"
   sodipodi:docname="footage.svg"
   inkscape:export-filename="D:\RxLab\src\RxOT\DuAEF\Duik\inc\icons\w16\w16_footage.png"
   inkscape:export-xdpi="48"
   inkscape:export-ydpi="48"
   xmlns:inkscape="http://www.inkscape.org/namespaces/inkscape"
   xmlns:sodipodi="http://sodipodi.sourceforge.net/DTD/sodipodi-0.dtd"
   xmlns="http://www.w3.org/2000/svg"
   xmlns:svg="http://www.w3.org/2000/svg"
   xmlns:rdf="http://www.w3.org/1999/02/22-rdf-syntax-ns#"
   xmlns:cc="http://creativecommons.org/ns#"
   xmlns:dc="http://purl.org/dc/elements/1.1/">
  <defs
     id="defs2">
    <style
       id="style1399">.cls-1{fill:#e3e3e3;}</style>
  </defs>
  <sodipodi:namedview
     id="base"
     pagecolor="#ffffff"
     bordercolor="#666666"
     borderopacity="1.0"
     inkscape:pageopacity="0.0"
     inkscape:pageshadow="2"
     inkscape:zoom="16"
     inkscape:cx="4.15625"
     inkscape:cy="14.59375"
     inkscape:document-units="mm"
     inkscape:current-layer="svg8"
     showgrid="false"
     units="px"
     inkscape:window-width="3440"
     inkscape:window-height="1369"
     inkscape:window-x="1912"
     inkscape:window-y="-8"
     inkscape:window-maximized="1"
     inkscape:pagecheckerboard="0">
    <sodipodi:guide
       position="8.4666666,0"
       orientation="-32,0"
       id="guide854"
       inkscape:locked="false" />
    <sodipodi:guide
       position="8.4666666,8.4666666"
       orientation="0,-32"
       id="guide856"
       inkscape:locked="false" />
    <sodipodi:guide
       position="0,8.4666814"
       orientation="32,0"
       id="guide858"
       inkscape:locked="false" />
  </sodipodi:namedview>
  <metadata
     id="metadata5">
    <rdf:RDF>
      <cc:Work
         rdf:about="">
        <dc:format>image/svg+xml</dc:format>
        <dc:type
           rdf:resource="http://purl.org/dc/dcmitype/StillImage" />
      </cc:Work>
    </rdf:RDF>
  </metadata>
  <path
     id="path1222"
     d="M 8.0750994,0.87643229 H 7.9434428 V 1.2055733 c 0,0.1086166 -0.088868,0.1974847 -0.1974844,0.1974847 H 7.0876766 C 6.97906,1.403058 6.8901919,1.31419 6.8901919,1.2055733 V 0.87643229 H 1.6239363 V 1.2055733 c 0,0.1086166 -0.088868,0.1974847 -0.1974845,0.1974847 H 0.76816983 c -0.10861658,0 -0.19748465,-0.088868 -0.19748465,-0.1974847 V 0.87643229 H 0.43902881 c -0.21887867,0 -0.39496907,0.17609041 -0.39496907,0.39496911 v 5.529568 c 0,0.2188789 0.1760904,0.3949691 0.39496907,0.3949691 H 0.57068518 V 6.866798 c 0,-0.1086164 0.088868,-0.1974844 0.19748465,-0.1974844 H 1.4264518 c 0.1086164,0 0.1974845,0.088868 0.1974845,0.1974844 V 7.1959385 H 6.8901919 V 6.866798 c 0,-0.1086164 0.088868,-0.1974844 0.1974847,-0.1974844 h 0.6582818 c 0.1086163,0 0.1974844,0.088868 0.1974844,0.1974844 v 0.3291405 h 0.1316566 c 0.2188782,0 0.3949693,-0.1760902 0.3949693,-0.3949691 v -5.529568 c 0,-0.2188787 -0.1760911,-0.39496911 -0.3949693,-0.39496911 z M 1.6239363,5.9452032 c 0,0.1086164 -0.088868,0.1974844 -0.1974845,0.1974844 H 0.76816983 c -0.10861658,0 -0.19748465,-0.088868 -0.19748465,-0.1974844 v -0.658282 c 0,-0.1086164 0.088868,-0.1974844 0.19748465,-0.1974844 H 1.4264518 c 0.1086164,0 0.1974845,0.088868 0.1974845,0.1974844 z m 0,-1.5798767 c 0,0.1086165 -0.088868,0.1974846 -0.1974845,0.1974846 H 0.76816983 c -0.10861658,0 -0.19748465,-0.088868 -0.19748465,-0.1974846 V 3.7070446 c 0,-0.1086165 0.088868,-0.1974846 0.19748465,-0.1974846 H 1.4264518 c 0.1086164,0 0.1974845,0.088868 0.1974845,0.1974846 z m 0,-1.5798767 c 0,0.1086167 -0.088868,0.1974847 -0.1974845,0.1974847 H 0.76816983 c -0.10861658,0 -0.19748465,-0.088868 -0.19748465,-0.1974847 V 2.1271681 c 0,-0.1086166 0.088868,-0.1974847 0.19748465,-0.1974847 H 1.4264518 c 0.1086164,0 0.1974845,0.088868 0.1974845,0.1974847 z m 4.4763172,3.4230659 c 0,0.1086166 -0.088868,0.1974847 -0.1974846,0.1974847 H 2.6113594 c -0.1086165,0 -0.1974847,-0.088868 -0.1974847,-0.1974847 V 4.6286394 c 0,-0.1086166 0.088868,-0.1974846 0.1974847,-0.1974846 h 3.2914095 c 0.1086166,0 0.1974846,0.088868 0.1974846,0.1974846 z m 0,-2.7647838 c 0,0.1086163 -0.088868,0.1974845 -0.1974846,0.1974845 H 2.6113594 c -0.1086165,0 -0.1974847,-0.088868 -0.1974847,-0.1974845 V 1.8638551 c 0,-0.1086163 0.088868,-0.1974844 0.1974847,-0.1974844 h 3.2914095 c 0.1086166,0 0.1974846,0.088868 0.1974846,0.1974844 z m 1.8431893,2.5014713 c 0,0.1086164 -0.088868,0.1974844 -0.1974844,0.1974844 H 7.0876766 c -0.1086166,0 -0.1974847,-0.088868 -0.1974847,-0.1974844 v -0.658282 c 0,-0.1086164 0.088868,-0.1974844 0.1974847,-0.1974844 h 0.6582818 c 0.1086163,0 0.1974844,0.088868 0.1974844,0.1974844 z m 0,-1.5798767 c 0,0.1086165 -0.088868,0.1974846 -0.1974844,0.1974846 H 7.0876766 c -0.1086166,0 -0.1974847,-0.088868 -0.1974847,-0.1974846 V 3.7070446 c 0,-0.1086165 0.088868,-0.1974846 0.1974847,-0.1974846 h 0.6582818 c 0.1086163,0 0.1974844,0.088868 0.1974844,0.1974846 z m 0,-1.5798767 c 0,0.1086167 -0.088868,0.1974847 -0.1974844,0.1974847 H 7.0876766 c -0.1086166,0 -0.1974847,-0.088868 -0.1974847,-0.1974847 V 2.1271681 c 0,-0.1086166 0.088868,-0.1974847 0.1974847,-0.1974847 h 0.6582818 c 0.1086163,0 0.1974844,0.088868 0.1974844,0.1974847 z"
     inkscape:connector-curvature="0"
     style="stroke-width:0.01645705;fill:#b1b1b1;fill-opacity:1" />
</svg>
