<?xml version="1.0" encoding="UTF-8" standalone="no"?>
<svg
   id="Calque_1"
   data-name="Calque 1"
   viewBox="0 0 32 32"
   version="1.1"
   sodipodi:docname="human_spine.svg"
   inkscape:version="1.1 (c68e22c387, 2021-05-23)"
   inkscape:export-filename="D:\DEV_SRC\RxOT\DuAEF\DuAEF_Duik\icons\w128\w128_human_spine.png"
   inkscape:export-xdpi="384"
   inkscape:export-ydpi="384"
   xmlns:inkscape="http://www.inkscape.org/namespaces/inkscape"
   xmlns:sodipodi="http://sodipodi.sourceforge.net/DTD/sodipodi-0.dtd"
   xmlns="http://www.w3.org/2000/svg"
   xmlns:svg="http://www.w3.org/2000/svg"
   xmlns:rdf="http://www.w3.org/1999/02/22-rdf-syntax-ns#"
   xmlns:cc="http://creativecommons.org/ns#"
   xmlns:dc="http://purl.org/dc/elements/1.1/">
  <metadata
     id="metadata31">
    <rdf:RDF>
      <cc:Work
         rdf:about="">
        <dc:format>image/svg+xml</dc:format>
        <dc:type
           rdf:resource="http://purl.org/dc/dcmitype/StillImage" />
        <dc:title>body_l</dc:title>
      </cc:Work>
    </rdf:RDF>
  </metadata>
  <sodipodi:namedview
     pagecolor="#ffffff"
     bordercolor="#666666"
     borderopacity="1"
     objecttolerance="10"
     gridtolerance="10"
     guidetolerance="10"
     inkscape:pageopacity="0"
     inkscape:pageshadow="2"
     inkscape:window-width="1920"
     inkscape:window-height="1027"
     id="namedview29"
     showgrid="false"
     inkscape:snap-bbox="true"
     inkscape:bbox-paths="true"
     inkscape:bbox-nodes="true"
     inkscape:snap-bbox-edge-midpoints="true"
     inkscape:snap-bbox-midpoints="true"
     inkscape:snap-nodes="false"
     inkscape:zoom="20.85965"
     inkscape:cx="10.043313"
     inkscape:cy="16.946593"
     inkscape:window-x="-8"
     inkscape:window-y="-8"
     inkscape:window-maximized="1"
     inkscape:current-layer="Calque_1"
     inkscape:pagecheckerboard="1" />
  <defs
     id="defs4">
    <style
       id="style2">.cls-1{fill:#e3e3e3;}</style>
    <style
       id="style1399">.cls-1{fill:#e3e3e3;}</style>
    <style
       id="style1399-4">.cls-1{fill:#e3e3e3;}</style>
    <style
       id="style1399-8">.cls-1{fill:#e3e3e3;}</style>
    <style
       id="style1399-4-5">.cls-1{fill:#e3e3e3;}</style>
    <style
       id="style1399-0">.cls-1{fill:#e3e3e3;}</style>
    <style
       id="style854">.cls-1{fill:#e3e3e3;}</style>
    <style
       id="style1399-84">.cls-1{fill:#e3e3e3;}</style>
    <style
       id="style1399-4-8">.cls-1{fill:#e3e3e3;}</style>
    <style
       id="style1399-8-10">.cls-1{fill:#e3e3e3;}</style>
    <style
       id="style1399-4-5-3">.cls-1{fill:#e3e3e3;}</style>
    <style
       id="style1399-0-0">.cls-1{fill:#e3e3e3;}</style>
    <style
       id="style1399-5">.cls-1{fill:#e3e3e3;}</style>
    <style
       id="style1399-4-6">.cls-1{fill:#e3e3e3;}</style>
    <style
       id="style1399-8-1">.cls-1{fill:#e3e3e3;}</style>
    <style
       id="style1399-4-5-1">.cls-1{fill:#e3e3e3;}</style>
    <style
       id="style1399-0-5">.cls-1{fill:#e3e3e3;}</style>
    <style
       id="style1257">.cls-1{fill:#e3e3e3;}</style>
    <style
       id="style836">.cls-1{fill:#e3e3e3;}</style>
    <style
       id="style891">.cls-1{fill:#e3e3e3;}</style>
    <inkscape:path-effect
       oposite_fuse="false"
       fuse_paths="false"
       discard_orig_path="false"
       mode="free"
       is_visible="true"
       id="path-effect860"
       center_point="4.2644223,4.1242769"
       end_point="4.2644223,6.6226791"
       start_point="4.2644223,1.6258747"
       effect="mirror_symmetry" />
    <style
       id="style1399-9">.cls-1{fill:#e3e3e3;}</style>
    <style
       id="style1399-4-63">.cls-1{fill:#e3e3e3;}</style>
    <style
       id="style1399-8-8">.cls-1{fill:#e3e3e3;}</style>
    <style
       id="style1399-4-5-5">.cls-1{fill:#e3e3e3;}</style>
    <style
       id="style1399-0-6">.cls-1{fill:#e3e3e3;}</style>
    <style
       id="style854-1">.cls-1{fill:#e3e3e3;}</style>
    <style
       id="style1399-84-1">.cls-1{fill:#e3e3e3;}</style>
    <style
       id="style1399-4-8-5">.cls-1{fill:#e3e3e3;}</style>
    <style
       id="style1399-8-10-9">.cls-1{fill:#e3e3e3;}</style>
    <style
       id="style1399-4-5-3-8">.cls-1{fill:#e3e3e3;}</style>
    <style
       id="style1399-0-0-4">.cls-1{fill:#e3e3e3;}</style>
    <style
       id="style1399-5-8">.cls-1{fill:#e3e3e3;}</style>
    <style
       id="style1399-4-6-1">.cls-1{fill:#e3e3e3;}</style>
    <style
       id="style1399-8-1-0">.cls-1{fill:#e3e3e3;}</style>
    <style
       id="style1399-4-5-1-3">.cls-1{fill:#e3e3e3;}</style>
    <style
       id="style1399-0-5-0">.cls-1{fill:#e3e3e3;}</style>
    <style
       id="style1257-4">.cls-1{fill:#e3e3e3;}</style>
    <style
       id="style836-4">.cls-1{fill:#e3e3e3;}</style>
    <style
       id="style891-4">.cls-1{fill:#e3e3e3;}</style>
  </defs>
  <title
     id="title6">body_l</title>
  <path
     class="cls-1"
     d="M 18.064198,22.001453 H 17.80547 v -0.355751 c 0.0072,-0.02922 0.0072,-0.05972 0,-0.08894 -0.04754,-0.13557 -0.204699,-0.196902 -0.331496,-0.129364 -0.376747,0.142227 -0.777996,0.208185 -1.180447,0.194046 -0.402409,0.0135 -0.803534,-0.05244 -1.180447,-0.194046 -0.07297,-0.04029 -0.161507,-0.04029 -0.234472,0 -0.06747,0.04578 -0.10942,0.120683 -0.113193,0.202132 v 0.363835 h -0.258729 c -0.241129,0 -0.436603,0.195475 -0.436603,0.436604 v 0.218301 c 0,0.241131 0.195474,0.436605 0.436603,0.436605 h 0.282984 v 0.177876 c 0.0013,0.14149 0.08279,0.269981 0.210216,0.331495 0.42329,0.147935 0.869589,0.219125 1.317898,0.210216 0.448501,0.01179 0.895315,-0.05948 1.317896,-0.210216 0.127425,-0.06151 0.208907,-0.190005 0.210216,-0.331495 v -0.177876 h 0.258728 c 0.24113,0 0.436603,-0.195474 0.436603,-0.436605 v -0.169789 c 0.02678,-0.273783 -0.203245,-0.503808 -0.477029,-0.47703 z"
     id="path22"
     inkscape:connector-curvature="0"
     style="fill:#ec7818;stroke-width:0.808525;fill-opacity:1"
     sodipodi:nodetypes="ccccccccccsssscccccccsscc" />
  <path
     sodipodi:nodetypes="ccccccccccsssscccccccsscc"
     style="fill:#ec7818;stroke-width:0.808525;fill-opacity:1"
     inkscape:connector-curvature="0"
     id="path838"
     d="M 18.064198,19.169908 H 17.80547 v -0.355751 c 0.0072,-0.02922 0.0072,-0.05972 0,-0.08894 -0.04754,-0.135568 -0.204699,-0.1969 -0.331496,-0.129363 -0.376747,0.142226 -0.777996,0.208187 -1.180447,0.194047 -0.402409,0.0135 -0.803534,-0.05245 -1.180447,-0.194047 -0.07297,-0.04028 -0.161507,-0.04028 -0.234472,0 -0.06747,0.04578 -0.10942,0.120682 -0.113193,0.202132 v 0.363836 h -0.258729 c -0.241129,0 -0.436603,0.195474 -0.436603,0.436604 v 0.218303 c 0,0.241129 0.195474,0.436603 0.436603,0.436603 h 0.282984 v 0.177875 c 0.0013,0.14149 0.08279,0.269982 0.210216,0.331495 0.42329,0.147936 0.869589,0.219124 1.317898,0.210218 0.448501,0.01179 0.895315,-0.05948 1.317896,-0.210218 0.127425,-0.06151 0.208907,-0.190005 0.210216,-0.331495 v -0.177875 h 0.258728 c 0.24113,0 0.436603,-0.195474 0.436603,-0.436603 v -0.169792 c 0.02678,-0.273782 -0.203245,-0.503808 -0.477029,-0.47703 z"
     class="cls-1" />
  <g
     style="fill:#78d6ec;fill-opacity:1"
     transform="matrix(0.3833775,0,0,0.3833775,14.198555,0.49431088)"
     id="g909">
    <path
       style="fill:#78d6ec;fill-opacity:1"
       inkscape:connector-curvature="0"
       class="cls-1"
       d="m 28,23.35 -0.17,-0.73 a 14,14 0 0 1 -3.57,1.11 13.4,13.4 0 0 1 -2.33,0.2 H 21.6 A 13,13 0 0 1 17,23 l 0.48,1.46 0.05,0.15 a 0.49,0.49 0 0 0 0.31,0.32 l 2,0.68 a 0.55,0.55 0 0 1 0.38,0.59 0.54,0.54 0 0 1 -0.54,0.48 h -0.17 l -2,-0.7 a 1.57,1.57 0 0 1 -1,-1 l -1.85,-5.61 a 1.39,1.39 0 0 0 -0.5,-0.63 1.48,1.48 0 0 0 -0.82,-0.26 1.65,1.65 0 0 0 -0.32,0 1.45,1.45 0 0 0 -0.91,0.68 1.42,1.42 0 0 0 -0.16,1 l 1.87,5.64 a 4.51,4.51 0 0 0 4.24,3 h 7.7 v 0 a 2,2 0 0 0 1.47,-0.63 2,2 0 0 0 0.15,-2.43 v 0 a 0.72,0.72 0 0 1 0.14,-1 1.43,1.43 0 0 0 0.48,-1.39 z"
       id="path897" />
    <path
       style="fill:#78d6ec;fill-opacity:1"
       inkscape:connector-curvature="0"
       class="cls-1"
       d="m 12.47,17 a 2.54,2.54 0 0 1 0.61,-0.07 3.14,3.14 0 0 1 1.83,0.61 2.77,2.77 0 0 1 0.86,0.94 v 0 A 2.58,2.58 0 0 1 16,19 l 0.69,2.11 a 11.22,11.22 0 0 0 5.23,1.32 11.65,11.65 0 0 0 5.61,-1.48 l -0.1,-0.4 a 1.43,1.43 0 0 0 -1.21,-1.1 h -0.25 a 0.36,0.36 0 0 1 -0.3,-0.27 c 0,-0.11 0.64,-2.49 1,-3.77 A 1.29,1.29 0 0 0 26.25,14 L 26.1,13.88 25.75,13.56 c 0,-0.12 0,-0.24 0,-0.35 0,-6.34 -3.69,-8.92 -10,-8.92 H 14.56 C 8.2,4.65 4,10 4,17.21 c 0,4 2.62,4.76 7,4.91 l -0.56,-1.87 a 2.7,2.7 0 0 1 0.33,-2 2.53,2.53 0 0 1 1.7,-1.25 z M 21,12.78 c 1.95,0 3.07,1.59 3.07,3.54 0,1.95 -1.17,3.53 -3.07,3.53 a 3.54,3.54 0 1 1 0,-7.07 z"
       id="path899" />
  </g>
  <path
     id="path871"
     d="m 12.347512,23.47682 c -0.65766,0.01228 -1.274575,0.195412 -1.676092,0.513135 -0.803036,0.635445 -0.45966,1.624755 0.09112,2.003992 0.76554,0.527105 1.315571,0.602706 1.646962,1.194328 0.383399,0.684469 -0.233466,1.618705 0.18225,2.346082 0.31903,0.558207 0.918456,1.066115 1.557332,1.138309 0.778649,0.08799 1.503326,-0.928423 2.157859,-0.928423 0.654531,0 1.378462,1.016413 2.15711,0.928423 0.638877,-0.07219 1.238302,-0.580102 1.557332,-1.138309 0.415717,-0.727377 -0.201149,-1.661613 0.18225,-2.346082 0.331392,-0.591622 0.88217,-0.667223 1.64771,-1.194328 0.550783,-0.379237 0.893414,-1.368547 0.09038,-2.003992 -0.803034,-0.635445 -2.467601,-0.733684 -3.595682,0 -1.051889,0.68413 -0.628549,1.166692 -2.039097,1.166692 -1.41055,0 -0.987209,-0.482562 -2.039098,-1.166692 -0.564043,-0.366842 -1.262679,-0.525415 -1.92034,-0.513135 z m 2.001752,2.896563 c 0.918425,-0.08516 2.123096,1.461864 1.468448,2.051049 -0.698291,0.628462 -2.576437,-1.676282 -1.64771,-2.011462 0.05805,-0.02095 0.118033,-0.03391 0.179262,-0.03959 z m 3.914618,0 c 0.06123,0.0057 0.121216,0.01864 0.179262,0.03959 0.928727,0.33518 -0.949419,2.639924 -1.647711,2.011461 -0.654647,-0.589184 0.550024,-2.136204 1.468449,-2.051048 z m -3.828722,2.388658 c 0.06991,-0.0032 0.139566,-0.0027 0.207644,0.0023 0.326772,0.02382 0.615685,0.143762 0.707335,0.379436 0.244402,0.628462 -1.941042,0.851567 -1.916602,0.209138 0.01337,-0.351327 0.512267,-0.568513 1.001623,-0.590815 z m 3.535929,0.0023 c 0.544619,-0.03969 1.193992,0.187056 1.209267,0.588574 0.02444,0.642429 -2.161751,0.419325 -1.917349,-0.209138 0.09165,-0.235674 0.38131,-0.355623 0.708082,-0.379436 z"
     style="fill:#ec1818;stroke-width:0.698292;fill-opacity:1"
     inkscape:connector-curvature="0" />
  <path
     class="cls-1"
     d="M 18.064198,16.27269 H 17.80547 v -0.355751 c 0.0072,-0.02922 0.0072,-0.05972 0,-0.08894 -0.04754,-0.13557 -0.204699,-0.196902 -0.331496,-0.129364 -0.376747,0.142227 -0.777996,0.208185 -1.180447,0.194046 -0.402409,0.0135 -0.803534,-0.05244 -1.180447,-0.194046 -0.07297,-0.04029 -0.161507,-0.04029 -0.234472,0 -0.06747,0.04578 -0.10942,0.120683 -0.113193,0.202132 v 0.363835 h -0.258729 c -0.241129,0 -0.436603,0.195475 -0.436603,0.436604 v 0.218301 c 0,0.241131 0.195474,0.436605 0.436603,0.436605 h 0.282984 v 0.177876 c 0.0013,0.14149 0.08279,0.269981 0.210216,0.331495 0.42329,0.147935 0.869589,0.219125 1.317898,0.210216 0.448501,0.01179 0.895315,-0.05948 1.317896,-0.210216 0.127425,-0.06151 0.208907,-0.190005 0.210216,-0.331495 v -0.177876 h 0.258728 c 0.24113,0 0.436603,-0.195474 0.436603,-0.436605 v -0.169789 c 0.02678,-0.273783 -0.203245,-0.503808 -0.477029,-0.47703 z"
     id="path868"
     inkscape:connector-curvature="0"
     style="fill:#ec7818;stroke-width:0.808525;fill-opacity:1"
     sodipodi:nodetypes="ccccccccccsssscccccccsscc" />
  <path
     sodipodi:nodetypes="ccccccccccsssscccccccsscc"
     style="fill:#ecd618;stroke-width:0.808525;fill-opacity:1"
     inkscape:connector-curvature="0"
     id="path870"
     d="M 18.064198,13.441145 H 17.80547 v -0.355751 c 0.0072,-0.02922 0.0072,-0.05972 0,-0.08894 -0.04754,-0.135568 -0.204699,-0.1969 -0.331496,-0.129363 -0.376747,0.142226 -0.777996,0.208187 -1.180447,0.194047 -0.402409,0.0135 -0.803534,-0.05245 -1.180447,-0.194047 -0.07297,-0.04028 -0.161507,-0.04028 -0.234472,0 -0.06747,0.04578 -0.10942,0.120682 -0.113193,0.202132 v 0.363836 h -0.258729 c -0.241129,0 -0.436603,0.195474 -0.436603,0.436604 v 0.218303 c 0,0.241129 0.195474,0.436603 0.436603,0.436603 h 0.282984 v 0.177875 c 0.0013,0.14149 0.08279,0.269982 0.210216,0.331495 0.42329,0.147936 0.869589,0.219124 1.317898,0.210218 0.448501,0.01179 0.895315,-0.05948 1.317896,-0.210218 0.127425,-0.06151 0.208907,-0.190005 0.210216,-0.331495 v -0.177875 h 0.258728 c 0.24113,0 0.436603,-0.195474 0.436603,-0.436603 v -0.169792 c 0.02678,-0.273782 -0.203245,-0.503808 -0.477029,-0.47703 z"
     class="cls-1" />
  <path
     class="cls-1"
     d="M 18.064198,10.472017 H 17.80547 v -0.355751 c 0.0072,-0.02922 0.0072,-0.05972 0,-0.08894 -0.04754,-0.1355696 -0.204699,-0.1969016 -0.331496,-0.1293636 -0.376747,0.1422266 -0.777996,0.2081846 -1.180447,0.1940456 -0.402409,0.0135 -0.803534,-0.05244 -1.180447,-0.1940456 -0.07297,-0.04029 -0.161507,-0.04029 -0.234472,0 -0.06747,0.04578 -0.10942,0.1206826 -0.113193,0.2021316 v 0.363835 h -0.258729 c -0.241129,0 -0.436603,0.195475 -0.436603,0.436604 v 0.218301 c 0,0.241131 0.195474,0.436605 0.436603,0.436605 h 0.282984 v 0.177876 c 0.0013,0.14149 0.08279,0.269981 0.210216,0.331495 0.42329,0.147935 0.869589,0.219125 1.317898,0.210216 0.448501,0.01179 0.895315,-0.05948 1.317896,-0.210216 0.127425,-0.06151 0.208907,-0.190005 0.210216,-0.331495 v -0.177876 h 0.258728 c 0.24113,0 0.436603,-0.195474 0.436603,-0.436605 v -0.169789 c 0.02678,-0.273783 -0.203245,-0.503808 -0.477029,-0.47703 z"
     id="path872"
     inkscape:connector-curvature="0"
     style="fill:#ecd618;stroke-width:0.808525;fill-opacity:1"
     sodipodi:nodetypes="ccccccccccsssscccccccsscc" />
</svg>
