<?xml version="1.0" encoding="UTF-8" standalone="no"?>
<svg
   width="32"
   height="32"
   viewBox="0 0 8.4666666 8.4666666"
   version="1.1"
   id="svg8"
   inkscape:version="1.1 (c68e22c387, 2021-05-23)"
   sodipodi:docname="human_leg.svg"
   inkscape:export-filename="D:\DEV_SRC\RxOT\DuAEF\DuAEF_Duik\icons\w128\w128_human_leg.png"
   inkscape:export-xdpi="384"
   inkscape:export-ydpi="384"
   xmlns:inkscape="http://www.inkscape.org/namespaces/inkscape"
   xmlns:sodipodi="http://sodipodi.sourceforge.net/DTD/sodipodi-0.dtd"
   xmlns="http://www.w3.org/2000/svg"
   xmlns:svg="http://www.w3.org/2000/svg"
   xmlns:rdf="http://www.w3.org/1999/02/22-rdf-syntax-ns#"
   xmlns:cc="http://creativecommons.org/ns#"
   xmlns:dc="http://purl.org/dc/elements/1.1/">
  <defs
     id="defs2">
    <style
       id="style1399">.cls-1{fill:#e3e3e3;}</style>
    <style
       id="style1399-4">.cls-1{fill:#e3e3e3;}</style>
    <style
       id="style1399-8">.cls-1{fill:#e3e3e3;}</style>
    <style
       id="style1399-4-5">.cls-1{fill:#e3e3e3;}</style>
    <style
       id="style1399-0">.cls-1{fill:#e3e3e3;}</style>
    <style
       id="style854">.cls-1{fill:#e3e3e3;}</style>
    <style
       id="style1399-84">.cls-1{fill:#e3e3e3;}</style>
    <style
       id="style1399-4-8">.cls-1{fill:#e3e3e3;}</style>
    <style
       id="style1399-8-10">.cls-1{fill:#e3e3e3;}</style>
    <style
       id="style1399-4-5-3">.cls-1{fill:#e3e3e3;}</style>
    <style
       id="style1399-0-0">.cls-1{fill:#e3e3e3;}</style>
    <style
       id="style1399-5">.cls-1{fill:#e3e3e3;}</style>
    <style
       id="style1399-4-6">.cls-1{fill:#e3e3e3;}</style>
    <style
       id="style1399-8-1">.cls-1{fill:#e3e3e3;}</style>
    <style
       id="style1399-4-5-1">.cls-1{fill:#e3e3e3;}</style>
    <style
       id="style1399-0-5">.cls-1{fill:#e3e3e3;}</style>
    <style
       id="style1257">.cls-1{fill:#e3e3e3;}</style>
    <style
       id="style836">.cls-1{fill:#e3e3e3;}</style>
    <style
       id="style891">.cls-1{fill:#e3e3e3;}</style>
    <style
       id="style949">.cls-1{fill:#e3e3e3;}</style>
  </defs>
  <sodipodi:namedview
     id="base"
     pagecolor="#ffffff"
     bordercolor="#666666"
     borderopacity="1.0"
     inkscape:pageopacity="0.0"
     inkscape:pageshadow="2"
     inkscape:zoom="11.313708"
     inkscape:cx="-6.7617089"
     inkscape:cy="8.7062526"
     inkscape:document-units="mm"
     inkscape:current-layer="svg8"
     showgrid="false"
     units="px"
     inkscape:window-width="1920"
     inkscape:window-height="1027"
     inkscape:window-x="-8"
     inkscape:window-y="-8"
     inkscape:window-maximized="1"
     inkscape:snap-bbox="true"
     inkscape:bbox-paths="true"
     inkscape:bbox-nodes="true"
     inkscape:snap-bbox-edge-midpoints="true"
     inkscape:snap-bbox-midpoints="true"
     inkscape:snap-nodes="true"
     inkscape:snap-others="true"
     inkscape:snap-object-midpoints="true"
     inkscape:snap-page="true"
     inkscape:document-rotation="0"
     inkscape:pagecheckerboard="1">
    <sodipodi:guide
       position="8.4666666,8.4666666"
       orientation="0,-32"
       id="guide856"
       inkscape:locked="false" />
    <sodipodi:guide
       position="0,8.4666814"
       orientation="32,0"
       id="guide858"
       inkscape:locked="false" />
  </sodipodi:namedview>
  <metadata
     id="metadata5">
    <rdf:RDF>
      <cc:Work
         rdf:about="">
        <dc:format>image/svg+xml</dc:format>
        <dc:type
           rdf:resource="http://purl.org/dc/dcmitype/StillImage" />
      </cc:Work>
    </rdf:RDF>
  </metadata>
  <path
     style="fill:#7878ec;fill-opacity:1;stroke:none;stroke-width:0.186222px;stroke-linecap:butt;stroke-linejoin:miter;stroke-opacity:1"
     d="m 5.79124,6.7924037 c 0.1498713,0.1416424 0.3325223,0.2686373 0.6203856,0.3268569 0.4397419,0.088936 0.7431585,-0.1247526 0.8107174,0.08312 0.06756,0.2078731 -0.4051794,0.32766 -0.7689569,0.32766 -0.3637773,0 -0.5745539,-0.1519954 -0.8858062,-0.2593975 -0.039464,-0.013618 -0.072433,-0.020292 -0.1096215,-0.03132 z"
     id="path853" />
  <path
     style="fill:#78d6ec;fill-opacity:1;stroke:none;stroke-width:0.186222px;stroke-linecap:butt;stroke-linejoin:miter;stroke-opacity:1"
     d="m 5.3081825,6.3776087 c 0.080781,0.00682 0.1614567,0.073357 0.2328955,0.1525868 0.023517,0.026081 0.048482,0.053143 0.072278,0.079907 L 5.1648312,7.1698552 C 4.9583441,7.1351579 4.7855541,7.1305454 4.6343915,7.1220714 4.394512,7.1086237 4.2749078,7.3935075 3.8517821,7.3132063 3.3483473,7.217664 3.3801189,6.5880625 3.8039983,6.5048982 c 0.2529765,-0.049634 0.46369,0.2352606 0.8022851,0.2357063 0.2867211,3.701e-4 0.4332895,-0.1716202 0.5581463,-0.3011581 0.046821,-0.048576 0.095284,-0.065926 0.1437528,-0.061838 z"
     id="path851" />
  <path
     style="fill:#ecd618;fill-opacity:1;stroke:none;stroke-width:0.186222px;stroke-linecap:butt;stroke-linejoin:miter;stroke-opacity:1"
     d="M 6.8774167,1.9883305 C 6.8813872,2.1962223 6.8625634,2.4567054 6.7641813,2.6564999 6.5405671,3.1106159 6.1318524,3.4840611 5.6627459,4.3482051 5.1936392,5.2123485 5.1996967,5.5667134 5.1600128,5.7941653 5.1203285,6.0216169 5.0317319,6.1542232 4.9283217,6.2338558 4.6098636,6.47909 4.2142563,6.3936209 4.1196121,6.0937171 4.0389727,5.8381921 4.1654306,5.5253381 4.2991023,5.2886212 4.4742435,4.9784662 4.5367552,4.7792023 4.8901752,4.029379 5.194683,3.3833287 5.6322321,2.8342573 5.8723519,2.4613494 5.9192889,2.4010823 6.01076,2.3661522 6.0907918,2.3593573 6.3722568,2.33546 6.4739338,2.3332479 6.6758416,2.2031566 6.764552,2.1459996 6.8296397,2.0714128 6.8774167,1.9883305 Z"
     id="path849" />
  <path
     style="fill:#ec7818;fill-opacity:1;stroke:none;stroke-width:0.186222px;stroke-linecap:butt;stroke-linejoin:miter;stroke-opacity:1"
     d="M 7.0500806,1.0266325 C 7.2063542,1.0456285 7.3311892,1.2347427 7.2773546,1.6116822 7.2349556,1.9085534 7.1467732,2.0146351 7.0553007,1.9831105 7.0278767,1.9736605 6.9955867,1.8985005 6.9665597,1.796794 6.9832177,1.73106 6.993122,1.6640069 6.9954706,1.5980297 7.0007799,1.4488796 6.9738915,1.2938316 6.9011078,1.1579374 c 0.012528,-0.071657 0.037259,-0.1218398 0.08071,-0.1296987 0.023194,-0.00419 0.045938,-0.00432 0.068262,-0.00161 z"
     id="path847" />
  <path
     style="fill:#ec7818;fill-opacity:1;stroke:none;stroke-width:0.186222px;stroke-linecap:butt;stroke-linejoin:miter;stroke-opacity:1"
     d="M 6.138174,1.003343 C 6.3194511,0.99097799 6.4731197,1.0507465 6.5826833,1.1470957 6.8119494,1.3487103 6.7993217,1.8393747 6.5469459,2.001983 6.382358,2.1080287 6.2770333,2.1105488 6.078344,2.1204385 5.8796547,2.1303285 5.1762458,2.5182495 4.4536968,3.1210865 3.7311477,3.7239232 3.4430588,4.0503426 3.2908252,4.2839581 3.1385915,4.5175733 2.7814587,4.6474545 2.4764937,4.4385525 2.2589725,4.2895493 2.241992,3.9225683 2.241992,3.9225683 c 0,0 -0.4067129,-0.015275 -0.3184245,-0.3746407 C 1.9744309,3.3408957 2.2558699,3.2069929 2.5114281,3.5154026 2.6183791,3.6444721 3.1934571,3.1180392 3.9031797,2.5408552 4.6129026,1.9636709 5.087457,1.6772441 5.5278271,1.2924547 5.7480121,1.10006 5.956897,1.0157079 6.138174,1.003343 Z"
     id="path980" />
</svg>
