<?xml version="1.0" encoding="UTF-8" standalone="no"?>
<svg
   width="32"
   height="32"
   viewBox="0 0 8.4666666 8.4666666"
   version="1.1"
   id="svg8"
   inkscape:version="1.1.1 (3bf5ae0d25, 2021-09-20)"
   sodipodi:docname="separate_control.svg"
   inkscape:export-filename="D:\RxLab\src\RxOT\DuAEF\DuAEF_Duik\inc\icons\w16\w16_individual_control.png"
   inkscape:export-xdpi="48.000004"
   inkscape:export-ydpi="48.000004"
   xmlns:inkscape="http://www.inkscape.org/namespaces/inkscape"
   xmlns:sodipodi="http://sodipodi.sourceforge.net/DTD/sodipodi-0.dtd"
   xmlns="http://www.w3.org/2000/svg"
   xmlns:svg="http://www.w3.org/2000/svg"
   xmlns:rdf="http://www.w3.org/1999/02/22-rdf-syntax-ns#"
   xmlns:cc="http://creativecommons.org/ns#"
   xmlns:dc="http://purl.org/dc/elements/1.1/">
  <defs
     id="defs2" />
  <sodipodi:namedview
     id="base"
     pagecolor="#ffffff"
     bordercolor="#666666"
     borderopacity="1.0"
     inkscape:pageopacity="0.0"
     inkscape:pageshadow="2"
     inkscape:zoom="11.313708"
     inkscape:cx="73.671692"
     inkscape:cy="12.06501"
     inkscape:document-units="mm"
     inkscape:current-layer="svg8"
     showgrid="false"
     units="px"
     inkscape:window-width="3378"
     inkscape:window-height="1417"
     inkscape:window-x="1974"
     inkscape:window-y="-8"
     inkscape:window-maximized="1"
     inkscape:document-rotation="0"
     inkscape:pagecheckerboard="1">
    <sodipodi:guide
       position="8.4666666,0"
       orientation="-32,0"
       id="guide854"
       inkscape:locked="false" />
    <sodipodi:guide
       position="8.4666666,8.4666666"
       orientation="0,-32"
       id="guide856"
       inkscape:locked="false" />
    <sodipodi:guide
       position="0,8.4666814"
       orientation="32,0"
       id="guide858"
       inkscape:locked="false" />
  </sodipodi:namedview>
  <metadata
     id="metadata5">
    <rdf:RDF>
      <cc:Work
         rdf:about="">
        <dc:format>image/svg+xml</dc:format>
        <dc:type
           rdf:resource="http://purl.org/dc/dcmitype/StillImage" />
      </cc:Work>
    </rdf:RDF>
  </metadata>
  <path
     id="rect935"
     style="fill:#232323;fill-opacity:1;stroke-width:0.836001;stroke-linecap:round"
     d="m 3.1768637,0 c 0.2839971,0 0.5126302,0.22863309 0.5126302,0.5126302 0,0.38703235 0,1.1811292 0,2.1497396 C 3.6894939,2.9463669 3.4608608,3.175 3.1768637,3.175 H 1.0271241 C 0.74312694,3.175 0.51449387,2.9463669 0.51449387,2.6623698 V 0.5126302 C 0.51449387,0.22863309 0.74312694,0 1.0271241,0 Z"
     sodipodi:nodetypes="sccssssss" />
  <rect
     style="fill:#232323;stroke:none;stroke-width:1.00012;stroke-linecap:round"
     id="rect1289"
     width="4.5252066"
     height="1.0289879"
     x="2.8647954"
     y="1.0406808" />
  <path
     id="path1686"
     style="fill:#232323;fill-opacity:1;stroke-width:0.836001;stroke-linecap:round"
     d="m 3.1768637,5.2852552 c 0.2839971,0 0.5126302,0.2286331 0.5126302,0.5126302 0,0.3870324 0,1.1811292 0,2.1497396 0,0.2839971 -0.2286331,0.5126302 -0.5126302,0.5126302 H 1.0271241 c -0.28399716,0 -0.51263023,-0.2286331 -0.51263023,-0.5126302 V 5.7978854 c 0,-0.2839971 0.22863307,-0.5126302 0.51263023,-0.5126302 z"
     sodipodi:nodetypes="sccssssss" />
  <rect
     style="fill:#232323;stroke:none;stroke-width:1.00012;stroke-linecap:round"
     id="rect1688"
     width="4.5252066"
     height="1.0289879"
     x="2.8647954"
     y="6.3259358" />
  <path
     id="rect935-2"
     style="fill:#232323;fill-opacity:1;stroke-width:0.836001;stroke-linecap:round"
     d="m 6.3318949,0.51538399 c 0,-0.2839971 0.228633,-0.5126302 0.51263,-0.5126302 h 0.582872 c 0.283997,0 0.51263,0.2286331 0.51263,0.5126302 V 2.6651236 c 0,0.2839971 -0.228633,0.5126302 -0.51263,0.5126302 h -0.582872 c -0.283997,0 -0.51263,-0.2286331 -0.51263,-0.5126302 0,-0.6685309 0,-1.4331597 0,-2.14973961 z"
     sodipodi:nodetypes="csssssscc" />
  <path
     id="path1874"
     style="fill:#232323;fill-opacity:1;stroke-width:0.836001;stroke-linecap:round"
     d="m 6.3318949,5.8123323 c 0,-0.2839971 0.228633,-0.5126302 0.51263,-0.5126302 h 0.582872 c 0.283997,0 0.51263,0.2286331 0.51263,0.5126302 v 2.1497396 c 0,0.2839971 -0.228633,0.5126302 -0.51263,0.5126302 h -0.582872 c -0.283997,0 -0.51263,-0.2286331 -0.51263,-0.5126302 0,-0.6685309 0,-1.4331597 0,-2.1497396 z"
     sodipodi:nodetypes="csssssscc" />
</svg>
