<?xml version="1.0" encoding="UTF-8" standalone="no"?>
<!-- Created with Inkscape (http://www.inkscape.org/) -->

<svg
   width="32"
   height="32"
   viewBox="0 0 8.4666666 8.4666666"
   version="1.1"
   id="svg8"
   inkscape:version="1.1.1 (3bf5ae0d25, 2021-09-20)"
   sodipodi:docname="kleaner.svg"
   inkscape:export-filename="D:\RxLab\src\RxOT\DuAEF\DuAEF_Duik\inc\icons\w16\w16_kleaner.png"
   inkscape:export-xdpi="48.000004"
   inkscape:export-ydpi="48.000004"
   xmlns:inkscape="http://www.inkscape.org/namespaces/inkscape"
   xmlns:sodipodi="http://sodipodi.sourceforge.net/DTD/sodipodi-0.dtd"
   xmlns="http://www.w3.org/2000/svg"
   xmlns:svg="http://www.w3.org/2000/svg"
   xmlns:rdf="http://www.w3.org/1999/02/22-rdf-syntax-ns#"
   xmlns:cc="http://creativecommons.org/ns#"
   xmlns:dc="http://purl.org/dc/elements/1.1/">
  <defs
     id="defs2">
    <style
       id="style828">.cls-1{fill:#e3e3e3;}</style>
  </defs>
  <sodipodi:namedview
     id="base"
     pagecolor="#ffffff"
     bordercolor="#666666"
     borderopacity="1.0"
     inkscape:pageopacity="0.0"
     inkscape:pageshadow="2"
     inkscape:zoom="2.828427"
     inkscape:cx="-108.71767"
     inkscape:cy="73.715885"
     inkscape:document-units="mm"
     inkscape:current-layer="svg8"
     showgrid="false"
     units="px"
     inkscape:window-width="1858"
     inkscape:window-height="1057"
     inkscape:window-x="54"
     inkscape:window-y="150"
     inkscape:window-maximized="1"
     inkscape:pagecheckerboard="0"
     inkscape:snap-nodes="false"
     inkscape:snap-bbox="true"
     inkscape:bbox-paths="true"
     inkscape:bbox-nodes="true"
     inkscape:snap-bbox-edge-midpoints="true"
     inkscape:snap-bbox-midpoints="true">
    <sodipodi:guide
       position="8.4666666,0"
       orientation="-32,0"
       id="guide854"
       inkscape:locked="false" />
    <sodipodi:guide
       position="8.4666666,8.4666666"
       orientation="0,-32"
       id="guide856"
       inkscape:locked="false" />
    <sodipodi:guide
       position="0,8.4666814"
       orientation="32,0"
       id="guide858"
       inkscape:locked="false" />
  </sodipodi:namedview>
  <metadata
     id="metadata5">
    <rdf:RDF>
      <cc:Work
         rdf:about="">
        <dc:format>image/svg+xml</dc:format>
        <dc:type
           rdf:resource="http://purl.org/dc/dcmitype/StillImage" />
      </cc:Work>
    </rdf:RDF>
  </metadata>
  <path
     id="path838"
     style="stroke-width:0.316637;fill:#232323;fill-opacity:1"
     class="cls-1"
     d="M 8.1003294,0.00111138 A 0.24697694,0.24697694 0 0 0 7.8999583,0.07469765 v 6.3331e-4 L 4.5907294,4.0172097 5.2240036,4.6504839 8.2796751,0.3851605 A 0.25014331,0.25014331 0 0 0 8.2481291,0.06852343 0.24697694,0.24697694 0 0 0 8.1003235,0.00111114 Z M 3.9203492,4.1662508 A 0.60477686,0.60477686 0 0 0 3.5870145,4.2639645 L 3.0075439,4.6504839 4.9073664,6.2336694 5.2240036,5.7463332 A 0.60477686,0.60477686 0 0 0 5.1009357,4.9355839 L 4.299448,4.3023097 A 0.60477686,0.60477686 0 0 0 3.9203492,4.1662508 Z M 2.6909069,4.967121 c 0,0 -0.6332743,0.9499113 -2.5330969,0.6332742 A 4.2366044,4.2366044 0 0 0 0.2530489,6.3542447 L 1.4243584,6.2336694 0.39528783,6.5725662 A 3.1283745,3.1283745 0 0 0 1.0607204,7.6678143 L 1.7409956,7.5002182 1.3451991,7.9021884 A 2.7199127,2.7199127 0 0 0 1.760167,8.1650293 L 3.3433524,7.1835803 2.2951104,8.37097 A 3.0618807,3.0618807 0 0 0 2.7008017,8.4501343 4.7273919,4.7273919 0 0 0 4.6006242,6.5503117 19.384523,19.384523 0 0 1 2.6909069,4.967121 Z" />
</svg>
