<?xml version="1.0" encoding="UTF-8" standalone="no"?>
<svg
   width="32"
   height="32"
   viewBox="0 0 8.4666666 8.4666666"
   version="1.1"
   id="svg8"
   inkscape:version="1.1.1 (3bf5ae0d25, 2021-09-20)"
   sodipodi:docname="language_small.svg"
   inkscape:export-filename="D:\RxLab\src\RxOT\After-Effects\Duik\DuAEF\DuESF\inc\scriptui\icons\w12_language.png"
   inkscape:export-xdpi="36.000004"
   inkscape:export-ydpi="36.000004"
   xmlns:inkscape="http://www.inkscape.org/namespaces/inkscape"
   xmlns:sodipodi="http://sodipodi.sourceforge.net/DTD/sodipodi-0.dtd"
   xmlns="http://www.w3.org/2000/svg"
   xmlns:svg="http://www.w3.org/2000/svg"
   xmlns:rdf="http://www.w3.org/1999/02/22-rdf-syntax-ns#"
   xmlns:cc="http://creativecommons.org/ns#"
   xmlns:dc="http://purl.org/dc/elements/1.1/">
  <defs
     id="defs2">
    <style
       id="style1399">.cls-1{fill:#e3e3e3;}</style>
    <style
       id="style1399-9">.cls-1{fill:#e3e3e3;}</style>
    <style
       id="style1399-5">.cls-1{fill:#e3e3e3;}</style>
  </defs>
  <sodipodi:namedview
     id="base"
     pagecolor="#ffffff"
     bordercolor="#666666"
     borderopacity="1.0"
     inkscape:pageopacity="0.0"
     inkscape:pageshadow="2"
     inkscape:zoom="16"
     inkscape:cx="19.71875"
     inkscape:cy="16.65625"
     inkscape:document-units="mm"
     inkscape:current-layer="svg8"
     showgrid="false"
     units="px"
     inkscape:window-width="3440"
     inkscape:window-height="1369"
     inkscape:window-x="-8"
     inkscape:window-y="-8"
     inkscape:window-maximized="1"
     inkscape:document-rotation="0"
     inkscape:pagecheckerboard="0">
    <sodipodi:guide
       position="8.4666666,0"
       orientation="-32,0"
       id="guide854"
       inkscape:locked="false" />
    <sodipodi:guide
       position="8.4666666,8.4657622"
       orientation="0,-32"
       id="guide856"
       inkscape:locked="false" />
    <sodipodi:guide
       position="0,8.4666814"
       orientation="32,0"
       id="guide858"
       inkscape:locked="false" />
  </sodipodi:namedview>
  <metadata
     id="metadata5">
    <rdf:RDF>
      <cc:Work
         rdf:about="">
        <dc:format>image/svg+xml</dc:format>
        <dc:type
           rdf:resource="http://purl.org/dc/dcmitype/StillImage" />
      </cc:Work>
    </rdf:RDF>
  </metadata>
  <path
     id="path1112"
     style="fill:#b1b1b1;fill-opacity:1;stroke-width:0.0222148"
     d="m 2.3112253,9.0440001e-4 h 0.7283114 c 0.1141738,0 0.2169809,0.07395756 0.2550409,0.18142057999 L 4.5820507,3.9684955 c 0.058207,0.174629 -0.070089,0.3558299 -0.2559169,0.3558299 H 3.8134233 C 3.6944323,4.3242437 3.5903442,4.2456264 3.5566296,4.1315111 L 3.3454105,3.4180986 H 1.99834 L 1.7941325,4.1297583 C 1.7605516,4.2439387 1.6551123,4.3243254 1.5364623,4.3243254 H 1.0237517 c -0.18358599,0 -0.31325045,-0.1812009 -0.25504065,-0.3558299 L 2.0561843,0.18232498 C 2.0942425,0.07262145 2.194814,9.0440001e-4 2.3112253,9.0440001e-4 Z M 2.6696842,0.98863911 c 0,0 -0.096045,0.47231159 -0.1744092,0.74321119 L 2.2463692,2.571469 h 0.852765 L 2.8554871,1.7318503 C 2.7771272,1.4609507 2.6810777,0.98863911 2.6810777,0.98863911 Z m 2.714549,3.18227159 h 0.3575826 c 0.1477717,0 0.2690636,0.1204239 0.2690636,0.2681868 v 0.3584593 h 1.4329604 c 0.1477719,0 0.2681898,0.1204227 0.2681869,0.2681869 V 5.4242034 C 7.7120243,5.5719666 7.5916121,5.6932666 7.4438398,5.6932666 H 7.1887989 C 7.0343281,6.2216323 6.7027717,6.7539528 6.2326156,7.2576912 6.420679,7.4009774 6.6148227,7.5377122 6.8163171,7.6608484 6.9394464,7.7369673 6.9799977,7.8960756 6.9083423,8.0236895 L 6.7313034,8.3348219 C 6.6551873,8.4669123 6.4877967,8.5095887 6.3579453,8.4312284 6.0758507,8.2565996 5.8096865,8.0708382 5.5656538,7.8738202 5.3216191,8.0685995 5.0568178,8.2565996 4.7724858,8.4312284 4.642641,8.5095887 4.4752489,8.4669141 4.3991275,8.3348219 L 4.2220891,8.0236895 C 4.1504505,7.8983154 4.1905003,7.7369685 4.3158666,7.6608484 4.5240804,7.5332334 4.7190988,7.3987377 4.9004448,7.2576912 4.7235765,7.069629 4.5663723,6.8775331 4.4298028,6.6827542 4.3402543,6.5551407 4.3809794,6.3781147 4.5130635,6.2997549 L 4.6585503,6.2121126 4.8215664,6.1157058 C 4.9424556,6.044062 5.0994266,6.0777727 5.1800255,6.1919558 5.2919603,6.3486736 5.4222725,6.5054884 5.5700357,6.6599686 5.8722788,6.3420522 6.1025718,6.0134204 6.24138,5.6932666 H 3.6822092 c -0.1477717,0 -0.2681868,-0.1212995 -0.2681868,-0.2690632 V 5.0657437 c 0,-0.1477631 0.1204173,-0.2681869 0.2681868,-0.2681869 H 5.1151694 V 4.4390975 c 0,-0.1477631 0.1212941,-0.2681868 0.2690638,-0.2681868 z"
     sodipodi:nodetypes="ssccscccccssccscccccccssscsccscccccccccccccccccccsssscss" />
</svg>
