<?xml version="1.0" encoding="UTF-8" standalone="no"?>
<svg
   xmlns:dc="http://purl.org/dc/elements/1.1/"
   xmlns:cc="http://creativecommons.org/ns#"
   xmlns:rdf="http://www.w3.org/1999/02/22-rdf-syntax-ns#"
   xmlns:svg="http://www.w3.org/2000/svg"
   xmlns="http://www.w3.org/2000/svg"
   xmlns:sodipodi="http://sodipodi.sourceforge.net/DTD/sodipodi-0.dtd"
   xmlns:inkscape="http://www.inkscape.org/namespaces/inkscape"
   width="32"
   height="32"
   viewBox="0 0 8.4666666 8.4666666"
   version="1.1"
   id="svg8"
   inkscape:version="1.0.2-2 (e86c870879, 2021-01-15)"
   sodipodi:docname="language.svg"
   inkscape:export-filename="D:\DEV_SRC\RxOT\DuAEF\src\DuESF\icons\w16\w16_language.png"
   inkscape:export-xdpi="48"
   inkscape:export-ydpi="48">
  <defs
     id="defs2">
    <style
       id="style1399">.cls-1{fill:#e3e3e3;}</style>
    <style
       id="style1399-9">.cls-1{fill:#e3e3e3;}</style>
    <style
       id="style1399-5">.cls-1{fill:#e3e3e3;}</style>
  </defs>
  <sodipodi:namedview
     id="base"
     pagecolor="#ffffff"
     bordercolor="#666666"
     borderopacity="1.0"
     inkscape:pageopacity="0.0"
     inkscape:pageshadow="2"
     inkscape:zoom="16"
     inkscape:cx="19.716875"
     inkscape:cy="16.638785"
     inkscape:document-units="mm"
     inkscape:current-layer="svg8"
     showgrid="false"
     units="px"
     inkscape:window-width="3440"
     inkscape:window-height="1417"
     inkscape:window-x="1915"
     inkscape:window-y="-8"
     inkscape:window-maximized="1"
     inkscape:document-rotation="0">
    <sodipodi:guide
       position="8.4666666,0"
       orientation="-32,0"
       id="guide854"
       inkscape:locked="false" />
    <sodipodi:guide
       position="8.4666666,8.4657622"
       orientation="0,-32"
       id="guide856"
       inkscape:locked="false" />
    <sodipodi:guide
       position="0,8.4666814"
       orientation="32,0"
       id="guide858"
       inkscape:locked="false" />
  </sodipodi:namedview>
  <metadata
     id="metadata5">
    <rdf:RDF>
      <cc:Work
         rdf:about="">
        <dc:format>image/svg+xml</dc:format>
        <dc:type
           rdf:resource="http://purl.org/dc/dcmitype/StillImage" />
        <dc:title />
      </cc:Work>
    </rdf:RDF>
  </metadata>
  <path
     id="path1084"
     d="M 2.0078354,3.9527571 C 1.9616327,3.7930278 1.9048695,3.5144917 1.9048695,3.5144917 h -0.0066 c 0,0 -0.056763,0.2785361 -0.1029659,0.4382654 L 1.6487734,4.4477855 H 2.1517225 Z M 8.1316675,2.1020106 H 4.4354551 v 4.2242432 h 3.6962124 c 0.1755702,0 0.3168182,-0.1412485 0.3168182,-0.3168184 V 2.4188287 c 0,-0.1755701 -0.141248,-0.3168181 -0.3168182,-0.3168181 z m -0.3168181,1.584091 c 0,0.087125 -0.071284,0.1584092 -0.1584092,0.1584092 H 7.5059515 C 7.4148665,4.1560486 7.219495,4.4702269 6.942279,4.7672439 c 0.1108865,0.084485 0.2257334,0.1650094 0.3445401,0.2376137 0.072604,0.044882 0.096366,0.1386078 0.054123,0.2138523 L 7.2366562,5.4022003 C 7.1917735,5.4800847 7.0927677,5.5051662 7.0162034,5.4589635 6.8498738,5.3559976 6.692785,5.2464313 6.5488965,5.1302647 6.4050083,5.2451112 6.2492393,5.3559976 6.0815897,5.4589635 6.0050254,5.5051662 5.9060195,5.480086 5.8611372,5.4022003 L 5.756851,5.2187099 C 5.7146088,5.1447855 5.7383708,5.0497399 5.8122941,5.0048576 5.9350616,4.9296131 6.0499077,4.8504086 6.1568342,4.7672439 6.0525482,4.6563575 5.9601431,4.5428309 5.8796182,4.4279842 5.8268148,4.35274 5.8505762,4.248454 5.9284611,4.2022513 l 0.085805,-0.051483 0.096365,-0.056763 C 6.1819154,4.0517627 6.274321,4.0715627 6.3218436,4.1388877 6.3878471,4.2312931 6.4644119,4.3236982 6.551537,4.4147835 6.7297468,4.2273328 6.8657147,4.0332816 6.9475596,3.8445108 H 5.4387127 c -0.087125,0 -0.1584092,-0.071284 -0.1584092,-0.1584092 V 3.4748895 c 0,-0.087125 0.071284,-0.1584092 0.1584092,-0.1584092 H 6.2835614 V 3.1052682 c 0,-0.087125 0.071284,-0.158409 0.1584092,-0.158409 h 0.2112121 c 0.087125,0 0.158409,0.071284 0.158409,0.158409 v 0.2112121 h 0.8448485 c 0.087125,0 0.1584092,0.071284 0.1584092,0.1584092 z M 0,2.4188287 V 6.0094354 C 0,6.1850053 0.14124801,6.3262538 0.31681816,6.3262538 H 4.0130309 V 2.1020106 H 0.31681816 C 0.14124801,2.1020106 0,2.2432586 0,2.4188287 Z M 0.77752478,5.2715128 1.5365683,3.0392644 c 0.022442,-0.064684 0.081845,-0.1069262 0.1504886,-0.1069262 h 0.4290247 c 0.067324,0 0.1280473,0.043563 0.1504886,0.1069262 L 3.025614,5.2715128 C 3.059936,5.3744786 2.984692,5.4814048 2.8751253,5.4814048 H 2.5728279 A 0.15840911,0.15840911 0 0 1 2.4210192,5.3678784 L 2.2969321,4.946774 H 1.5022464 L 1.3821196,5.3665583 C 1.3623169,5.433882 1.3002747,5.4814048 1.2303108,5.4814048 H 0.92801343 c -0.10824623,0 -0.18481079,-0.1069262 -0.15048865,-0.209892 z"
     inkscape:connector-curvature="0"
     style="stroke-width:0.01320076;fill:#b1b1b1;fill-opacity:1" />
</svg>
