<?xml version="1.0" encoding="UTF-8" standalone="no"?>
<svg
   xmlns:dc="http://purl.org/dc/elements/1.1/"
   xmlns:cc="http://creativecommons.org/ns#"
   xmlns:rdf="http://www.w3.org/1999/02/22-rdf-syntax-ns#"
   xmlns:svg="http://www.w3.org/2000/svg"
   xmlns="http://www.w3.org/2000/svg"
   xmlns:sodipodi="http://sodipodi.sourceforge.net/DTD/sodipodi-0.dtd"
   xmlns:inkscape="http://www.inkscape.org/namespaces/inkscape"
   width="32"
   height="32"
   viewBox="0 0 8.4666666 8.4666666"
   version="1.1"
   id="svg8"
   inkscape:version="1.0.2-2 (e86c870879, 2021-01-15)"
   sodipodi:docname="language_file.svg"
   inkscape:export-filename="D:\DEV_SRC\RxOT\DuAEF_Dugr\DuAEF\DuESF\icons\w16\w16_language_file.png"
   inkscape:export-xdpi="48"
   inkscape:export-ydpi="48">
  <defs
     id="defs2">
    <style
       id="style1399">.cls-1{fill:#e3e3e3;}</style>
    <style
       id="style1399-9">.cls-1{fill:#e3e3e3;}</style>
    <style
       id="style1399-5">.cls-1{fill:#e3e3e3;}</style>
  </defs>
  <sodipodi:namedview
     id="base"
     pagecolor="#ffffff"
     bordercolor="#666666"
     borderopacity="1.0"
     inkscape:pageopacity="0.0"
     inkscape:pageshadow="2"
     inkscape:zoom="16"
     inkscape:cx="19.716875"
     inkscape:cy="16.638785"
     inkscape:document-units="mm"
     inkscape:current-layer="svg8"
     showgrid="false"
     units="px"
     inkscape:window-width="3440"
     inkscape:window-height="1417"
     inkscape:window-x="1915"
     inkscape:window-y="-8"
     inkscape:window-maximized="1"
     inkscape:document-rotation="0">
    <sodipodi:guide
       position="8.4666666,0"
       orientation="-32,0"
       id="guide854"
       inkscape:locked="false" />
    <sodipodi:guide
       position="8.4666666,8.4657622"
       orientation="0,-32"
       id="guide856"
       inkscape:locked="false" />
    <sodipodi:guide
       position="0,8.4666814"
       orientation="32,0"
       id="guide858"
       inkscape:locked="false" />
  </sodipodi:namedview>
  <metadata
     id="metadata5">
    <rdf:RDF>
      <cc:Work
         rdf:about="">
        <dc:format>image/svg+xml</dc:format>
        <dc:type
           rdf:resource="http://purl.org/dc/dcmitype/StillImage" />
        <dc:title />
      </cc:Work>
    </rdf:RDF>
  </metadata>
  <path
     id="path1112"
     style="fill:#b1b1b1;fill-opacity:1;stroke-width:0.0166196"
     d="m 1.4412557,0.00103353 c -0.2210399,0 -0.3989421,0.17790205 -0.3989421,0.39894206 V 8.1111327 c 0,0.2210401 0.1779022,0.3989419 0.3989421,0.3989419 h 5.5841551 c 0.2210398,0 0.3989422,-0.1779018 0.3989422,-0.3989419 V 2.6597858 H 5.1640258 c -0.219378,0 -0.3989419,-0.1790451 -0.3989419,-0.3984252 V 0.00103353 Z m 3.8555785,0 V 2.1280355 H 7.424353 V 2.0267496 c 0,-0.1047 -0.041484,-0.205803 -0.116272,-0.280603 L 5.6807901,0.1173055 C 5.6060019,0.0424655 5.5044853,0.00103353 5.3981201,0.00103353 Z M 2.7725097,1.3280843 h 0.5448729 c 0.085417,0 0.1623303,0.05533 0.1908042,0.1357265 L 4.4713863,4.2963652 C 4.5149325,4.4270107 4.4189507,4.5625728 4.2799267,4.5625728 H 3.8963517 C 3.8073308,4.5625117 3.7294592,4.5036956 3.7042362,4.4183223 L 3.5462165,3.8845958 H 2.5384302 L 2.3856561,4.417011 C 2.3605332,4.5024333 2.2816507,4.5625728 2.1928849,4.5625728 H 1.8093098 c -0.1373465,0 -0.2343526,-0.1355621 -0.190804,-0.2662076 L 2.5817054,1.4638108 C 2.610178,1.3817381 2.6854187,1.3280843 2.7725097,1.3280843 Z M 3.0406842,2.06704 c 0,0 -0.071854,0.3533513 -0.1304811,0.5560199 L 2.7239888,3.2512053 H 3.3619694 L 3.1796892,2.6230599 C 3.1210657,2.4203913 3.049208,2.06704 3.049208,2.06704 Z m 2.0308403,2.3807584 h 0.2675189 c 0.1105527,0 0.201295,0.090093 0.201295,0.2006391 v 0.2681748 h 1.0720432 c 0.1105528,0 0.2006413,0.090092 0.2006391,0.2006391 v 0.2681751 c -1.8e-6,0.1105463 -0.090086,0.2012947 -0.2006391,0.2012947 H 6.4215774 C 6.3060129,5.9820084 6.057965,6.3802542 5.7062263,6.7571169 c 0.1406962,0.107197 0.2859413,0.2094926 0.4366856,0.3016147 0.092117,0.056947 0.1224547,0.175981 0.068847,0.271453 L 6.0793105,7.5629526 C 6.0223656,7.6617736 5.8971354,7.6937012 5.7999894,7.6350774 5.5889455,7.504432 5.3898196,7.365458 5.207251,7.2180626 5.0246809,7.3637832 4.8265746,7.504432 4.6138568,7.6350774 4.5167158,7.6937012 4.3914845,7.661775 4.3345356,7.5629526 L 4.2020876,7.3301846 C 4.1484925,7.2363882 4.178455,7.1156795 4.2722455,7.0587316 4.4280169,6.9632588 4.5739163,6.8626383 4.709587,6.7571169 4.5772662,6.6164216 4.4596568,6.4727086 4.3574848,6.3269883 4.2904907,6.2315166 4.3209585,6.0990778 4.4197748,6.0404544 l 0.1088433,-0.065568 0.1219575,-0.072125 c 0.090441,-0.053599 0.207876,-0.028379 0.2681746,0.057045 0.083742,0.1172456 0.1812327,0.2345637 0.291779,0.3501353 C 5.4366469,6.0720983 5.6089364,5.8262384 5.7127832,5.5867212 H 3.7981863 c -0.1105527,0 -0.2006391,-0.090748 -0.2006391,-0.2012947 V 5.1172514 c 0,-0.1105463 0.090088,-0.2006391 0.2006391,-0.2006391 h 1.072043 V 4.6484375 c 0,-0.1105463 0.090744,-0.2006391 0.2012952,-0.2006391 z"
     sodipodi:nodetypes="sssssscsscscccsccscssccscccccssccscccccccssscsccscccccccccccccccccccsssscss" />
</svg>
