<?xml version="1.0" encoding="UTF-8" standalone="no"?>
<svg
   xmlns:dc="http://purl.org/dc/elements/1.1/"
   xmlns:cc="http://creativecommons.org/ns#"
   xmlns:rdf="http://www.w3.org/1999/02/22-rdf-syntax-ns#"
   xmlns:svg="http://www.w3.org/2000/svg"
   xmlns="http://www.w3.org/2000/svg"
   xmlns:sodipodi="http://sodipodi.sourceforge.net/DTD/sodipodi-0.dtd"
   xmlns:inkscape="http://www.inkscape.org/namespaces/inkscape"
   width="32"
   height="32"
   viewBox="0 0 8.4666666 8.4666666"
   version="1.1"
   id="svg8"
   inkscape:version="1.0.2-2 (e86c870879, 2021-01-15)"
   sodipodi:docname="measure.svg"
   inkscape:export-filename="D:\DEV_SRC\RxOT\DuAEF_Duik\icons\w12\w12_measure.png"
   inkscape:export-xdpi="36"
   inkscape:export-ydpi="36">
  <defs
     id="defs2">
    <style
       id="style1399">.cls-1{fill:#e3e3e3;}</style>
    <style
       id="style1399-4">.cls-1{fill:#e3e3e3;}</style>
    <style
       id="style1399-8">.cls-1{fill:#e3e3e3;}</style>
    <style
       id="style1399-4-5">.cls-1{fill:#e3e3e3;}</style>
    <style
       id="style1399-9">.cls-1{fill:#e3e3e3;}</style>
    <style
       id="style1399-4-6">.cls-1{fill:#e3e3e3;}</style>
    <style
       id="style1399-8-4">.cls-1{fill:#e3e3e3;}</style>
    <style
       id="style1399-4-5-3">.cls-1{fill:#e3e3e3;}</style>
    <style
       id="style1399-88">.cls-1{fill:#e3e3e3;}</style>
  </defs>
  <sodipodi:namedview
     id="base"
     pagecolor="#ffffff"
     bordercolor="#666666"
     borderopacity="1.0"
     inkscape:pageopacity="0.0"
     inkscape:pageshadow="2"
     inkscape:zoom="8.0000004"
     inkscape:cx="13.920042"
     inkscape:cy="15.584634"
     inkscape:document-units="mm"
     inkscape:current-layer="svg8"
     showgrid="false"
     units="px"
     inkscape:window-width="3378"
     inkscape:window-height="1417"
     inkscape:window-x="973"
     inkscape:window-y="-8"
     inkscape:window-maximized="1"
     inkscape:document-rotation="0"
     inkscape:snap-bbox="true"
     inkscape:bbox-paths="true"
     inkscape:bbox-nodes="true"
     inkscape:snap-bbox-edge-midpoints="true"
     inkscape:snap-bbox-midpoints="true"
     inkscape:snap-nodes="false">
    <sodipodi:guide
       position="8.4666666,0"
       orientation="-32,0"
       id="guide854"
       inkscape:locked="false" />
    <sodipodi:guide
       position="8.5622298,8.4657622"
       orientation="0,-32"
       id="guide856"
       inkscape:locked="false" />
    <sodipodi:guide
       position="0,8.4666814"
       orientation="32,0"
       id="guide858"
       inkscape:locked="false" />
  </sodipodi:namedview>
  <metadata
     id="metadata5">
    <rdf:RDF>
      <cc:Work
         rdf:about="">
        <dc:format>image/svg+xml</dc:format>
        <dc:type
           rdf:resource="http://purl.org/dc/dcmitype/StillImage" />
        <dc:title></dc:title>
      </cc:Work>
    </rdf:RDF>
  </metadata>
  <path
     d="M 8.4758779,3.2190334 7.4146544,1.4125536 C 7.2973335,1.2125743 7.03736,1.1445814 6.8347146,1.2592362 L 5.9148099,1.7805155 6.7107272,3.1363753 c 0.02933,0.050661 0.011999,0.1133216 -0.038663,0.1426519 L 6.4880837,3.3830165 c -0.050662,0.02933 -0.1159884,0.011999 -0.1453184,-0.038663 L 5.5468479,1.9898273 4.8109238,2.4071174 5.1828852,3.0390521 c 0.02933,0.050661 0.011999,0.1133215 -0.038663,0.1426519 L 4.9602417,3.2856932 c -0.050662,0.02933 -0.1159881,0.011999 -0.1453183,-0.038663 L 4.4429619,2.6164291 3.707038,3.0337193 4.5042888,4.3895791 c 0.02933,0.049329 0.011999,0.1133215 -0.038663,0.1426518 l -0.183981,0.1039893 c -0.050662,0.02933 -0.1159881,0.011999 -0.1453183,-0.038663 L 3.3404093,3.2416977 2.6044853,3.6589879 2.976447,4.2909225 c 0.02933,0.050662 0.011999,0.1133218 -0.038663,0.142652 L 2.7538032,4.5375637 c -0.050661,0.02933 -0.1159879,0.011999 -0.1453183,-0.038663 L 2.2365234,3.8656333 1.5005995,4.2829234 2.2965173,5.6387832 c 0.02933,0.049329 0.011999,0.1133217 -0.038663,0.1426519 L 2.0738735,5.8854243 c -0.050661,0.02933 -0.115988,0.011999 -0.1453183,-0.038663 L 1.1326376,4.4949014 0.21273263,5.0161809 C 0.01008695,5.1321689 -0.06057234,5.3868092 0.05674893,5.5867886 L 1.1179724,7.3946014 C 1.2352936,7.5945809 1.4952667,7.662574 1.6979124,7.547919 L 8.3212276,3.7896411 C 8.5238729,3.6749862 8.5931993,3.4190127 8.4758779,3.2190334 Z"
     id="path842"
     style="stroke-width:0.0133319;fill:#232323;fill-opacity:1" />
</svg>
