<?xml version="1.0" encoding="UTF-8" standalone="no"?>
<svg
   xmlns:dc="http://purl.org/dc/elements/1.1/"
   xmlns:cc="http://creativecommons.org/ns#"
   xmlns:rdf="http://www.w3.org/1999/02/22-rdf-syntax-ns#"
   xmlns:svg="http://www.w3.org/2000/svg"
   xmlns="http://www.w3.org/2000/svg"
   xmlns:sodipodi="http://sodipodi.sourceforge.net/DTD/sodipodi-0.dtd"
   xmlns:inkscape="http://www.inkscape.org/namespaces/inkscape"
   width="32"
   height="32"
   viewBox="0 0 8.4666666 8.4666666"
   version="1.1"
   id="svg8"
   inkscape:version="1.0.2-2 (e86c870879, 2021-01-15)"
   sodipodi:docname="list.svg"
   inkscape:export-filename="D:\DEV_SRC\RxOT\DuAEF_Dugr\DuAEF\DuESF\icons\w12\w12_menu.png"
   inkscape:export-xdpi="36"
   inkscape:export-ydpi="36">
  <defs
     id="defs2" />
  <sodipodi:namedview
     id="base"
     pagecolor="#ffffff"
     bordercolor="#666666"
     borderopacity="1.0"
     inkscape:pageopacity="0.0"
     inkscape:pageshadow="2"
     inkscape:zoom="15.999999"
     inkscape:cx="12.307958"
     inkscape:cy="13.994987"
     inkscape:document-units="mm"
     inkscape:current-layer="svg8"
     showgrid="false"
     units="px"
     inkscape:window-width="3440"
     inkscape:window-height="1417"
     inkscape:window-x="1915"
     inkscape:window-y="-8"
     inkscape:window-maximized="1"
     inkscape:document-rotation="0">
    <sodipodi:guide
       position="8.4666666,0"
       orientation="-32,0"
       id="guide854"
       inkscape:locked="false" />
    <sodipodi:guide
       position="8.4666666,8.4666666"
       orientation="0,-32"
       id="guide856"
       inkscape:locked="false" />
    <sodipodi:guide
       position="0,8.4666814"
       orientation="32,0"
       id="guide858"
       inkscape:locked="false" />
  </sodipodi:namedview>
  <metadata
     id="metadata5">
    <rdf:RDF>
      <cc:Work
         rdf:about="">
        <dc:format>image/svg+xml</dc:format>
        <dc:type
           rdf:resource="http://purl.org/dc/dcmitype/StillImage" />
        <dc:title />
      </cc:Work>
    </rdf:RDF>
  </metadata>
  <path
     id="path826"
     d="M 8.4666667,1.8526168 V 1.2581683 c 0,-0.1710507 -0.1386829,-0.30973425 -0.3097343,-0.30973425 H 0.33232024 c -0.1710508,0 -0.3097342,0.13868295 -0.3097342,0.30973425 v 0.5944485 c 0,0.1710507 0.1386828,0.3097343 0.3097342,0.3097343 H 8.1569324 c 0.1710502,0 0.3097343,-0.1386829 0.3097343,-0.3097343 z m 0,2.4778759 v -0.594448 c 0,-0.1710512 -0.1386829,-0.3097349 -0.3097343,-0.3097349 H 0.33232024 c -0.1710508,0 -0.3097342,0.1386829 -0.3097342,0.3097349 v 0.594448 c 0,0.1710509 0.1386828,0.3097348 0.3097342,0.3097348 H 8.1569324 c 0.1710502,0 0.3097343,-0.1386829 0.3097343,-0.3097348 z m 0,2.477876 V 6.2139205 c 0,-0.1710508 -0.1386829,-0.3097342 -0.3097343,-0.3097342 H 0.33232024 c -0.1710508,0 -0.3097342,0.1386829 -0.3097342,0.3097342 v 0.5944482 c 0,0.1710511 0.1386828,0.3097352 0.3097342,0.3097352 H 8.1569324 c 0.1710502,0 0.3097343,-0.1386829 0.3097343,-0.3097352 z"
     inkscape:connector-curvature="0"
     style="fill:#646464;fill-opacity:1;stroke-width:0.0258112"
     sodipodi:nodetypes="sssssssssssssssssssssssssss" />
</svg>
