<?xml version="1.0" encoding="UTF-8" standalone="no"?>
<svg
   id="Calque_1"
   data-name="Calque 1"
   viewBox="0 0 32 32"
   version="1.1"
   sodipodi:docname="mouth_sl.svg"
   inkscape:version="1.1 (c68e22c387, 2021-05-23)"
   inkscape:export-filename="D:\DEV_SRC\RxOT\DuAEF\DuAEF_Duik\icons/w16\w16_mouth.png"
   inkscape:export-xdpi="48"
   inkscape:export-ydpi="48"
   xmlns:inkscape="http://www.inkscape.org/namespaces/inkscape"
   xmlns:sodipodi="http://sodipodi.sourceforge.net/DTD/sodipodi-0.dtd"
   xmlns="http://www.w3.org/2000/svg"
   xmlns:svg="http://www.w3.org/2000/svg"
   xmlns:rdf="http://www.w3.org/1999/02/22-rdf-syntax-ns#"
   xmlns:cc="http://creativecommons.org/ns#"
   xmlns:dc="http://purl.org/dc/elements/1.1/">
  <metadata
     id="metadata31">
    <rdf:RDF>
      <cc:Work
         rdf:about="">
        <dc:format>image/svg+xml</dc:format>
        <dc:type
           rdf:resource="http://purl.org/dc/dcmitype/StillImage" />
        <dc:title>body_l</dc:title>
      </cc:Work>
    </rdf:RDF>
  </metadata>
  <sodipodi:namedview
     pagecolor="#ffffff"
     bordercolor="#666666"
     borderopacity="1"
     objecttolerance="10"
     gridtolerance="10"
     guidetolerance="10"
     inkscape:pageopacity="0"
     inkscape:pageshadow="2"
     inkscape:window-width="1920"
     inkscape:window-height="1027"
     id="namedview29"
     showgrid="false"
     inkscape:snap-bbox="true"
     inkscape:bbox-paths="true"
     inkscape:bbox-nodes="true"
     inkscape:snap-bbox-edge-midpoints="true"
     inkscape:snap-bbox-midpoints="true"
     inkscape:snap-nodes="false"
     inkscape:zoom="14.75"
     inkscape:cx="-0.16949153"
     inkscape:cy="11.152542"
     inkscape:window-x="-8"
     inkscape:window-y="-8"
     inkscape:window-maximized="1"
     inkscape:current-layer="Calque_1"
     inkscape:pagecheckerboard="1" />
  <defs
     id="defs4">
    <style
       id="style2">.cls-1{fill:#e3e3e3;}</style>
    <style
       id="style857">.cls-1{fill:#e3e3e3;}</style>
    <style
       id="style990">.cls-1{fill:#e3e3e3;}</style>
  </defs>
  <title
     id="title6">body_l</title>
  <g
     transform="matrix(0.39312594,0,0,0.39312594,-4.6028026,-80.283387)"
     id="layer1"
     inkscape:label="Calque 1"
     style="fill:#b1b1b1;fill-opacity:1">
    <path
       sodipodi:nodetypes="sccccczzsccscsczs"
       inkscape:connector-curvature="0"
       id="path5790"
       d="m 76.779972,244.63431 c -1.566436,-0.35015 -2.094268,-0.49563 -3.725228,-0.6909 -5.19445,-0.62189 -6.05622,-0.53166 -11.93044,1.24908 -4.01483,1.21708 -6.25741,1.5144 -10.53446,1.39665 -3.9623,-0.10908 -6.01582,-0.43875 -8.80624,-1.41376 -5.5001,-1.92178 -6.12593,-1.99608 -11.24838,-1.33545 -1.98567,0.25609 -2.976698,0.44636 -4.163589,0.8123 -1.186891,0.36594 -12.902106,5.41622 -14.225569,1.10483 -1.323463,-4.31138 0.124738,-3.52762 10.234328,-11.39501 5.18583,-4.03566 9.87358,-7.59766 10.41723,-7.91556 5.45009,-3.18691 11.63384,-2.28641 17.92314,2.61004 0.66886,0.52073 1.3035,0.87148 1.57684,0.87148 0.27522,0 0.95451,-0.37869 1.70511,-0.95056 6.29347,-4.79488 11.79998,-5.25437 17.71432,-1.47818 1.16016,0.74074 18.44538,12.94577 19.51405,13.7788 1.30357,1.01614 2.688961,2.59964 1.03605,5.16808 -1.652911,2.56844 -12.57092,-1.15996 -15.487162,-1.81184 z"
       style="fill:#b1b1b1;fill-opacity:1;stroke-width:0.179719" />
    <path
       inkscape:connector-curvature="0"
       id="path5802"
       d="m 32.195312,253.23047 a 2.5327533,2.5327533 0 0 0 -0.601562,5.01172 c 15.703251,3.49797 23.003897,4.07003 39.884766,0.16797 a 2.5328185,2.5328185 0 1 0 -1.140625,-4.93555 c -16.498072,3.81358 -22.117589,3.28248 -37.642579,-0.17578 a 2.5327533,2.5327533 0 0 0 -0.5,-0.0684 z"
       style="color:#000000;font-style:normal;font-variant:normal;font-weight:normal;font-stretch:normal;font-size:medium;line-height:normal;font-family:sans-serif;font-variant-ligatures:normal;font-variant-position:normal;font-variant-caps:normal;font-variant-numeric:normal;font-variant-alternates:normal;font-feature-settings:normal;text-indent:0;text-align:start;text-decoration:none;text-decoration-line:none;text-decoration-style:solid;text-decoration-color:#000000;letter-spacing:normal;word-spacing:normal;text-transform:none;writing-mode:lr-tb;direction:ltr;text-orientation:mixed;dominant-baseline:auto;baseline-shift:baseline;text-anchor:start;white-space:normal;shape-padding:0;clip-rule:nonzero;display:inline;overflow:visible;visibility:visible;opacity:1;isolation:auto;mix-blend-mode:normal;color-interpolation:sRGB;color-interpolation-filters:linearRGB;solid-color:#000000;solid-opacity:1;vector-effect:none;fill:#b1b1b1;fill-opacity:1;fill-rule:nonzero;stroke:none;stroke-width:5.065;stroke-linecap:round;stroke-linejoin:miter;stroke-miterlimit:4;stroke-dasharray:none;stroke-dashoffset:0;stroke-opacity:1;color-rendering:auto;image-rendering:auto;shape-rendering:auto;text-rendering:auto;enable-background:accumulate" />
  </g>
</svg>
