<?xml version="1.0" encoding="UTF-8" standalone="no"?>
<svg
   id="Calque_1"
   data-name="Calque 1"
   viewBox="0 0 32 32"
   version="1.1"
   sodipodi:docname="move_anchor_point.svg"
   inkscape:version="1.1 (c68e22c387, 2021-05-23)"
   inkscape:export-filename="D:\DEV_SRC\RxOT\DuAEF\DuAEF_Duik\icons\w12\w12_move_anchor_point.png"
   inkscape:export-xdpi="36"
   inkscape:export-ydpi="36"
   xmlns:inkscape="http://www.inkscape.org/namespaces/inkscape"
   xmlns:sodipodi="http://sodipodi.sourceforge.net/DTD/sodipodi-0.dtd"
   xmlns="http://www.w3.org/2000/svg"
   xmlns:svg="http://www.w3.org/2000/svg"
   xmlns:rdf="http://www.w3.org/1999/02/22-rdf-syntax-ns#"
   xmlns:cc="http://creativecommons.org/ns#"
   xmlns:dc="http://purl.org/dc/elements/1.1/">
  <sodipodi:namedview
     id="namedview25"
     pagecolor="#ffffff"
     bordercolor="#111111"
     borderopacity="1"
     inkscape:pageshadow="0"
     inkscape:pageopacity="0"
     inkscape:pagecheckerboard="1"
     showgrid="false"
     inkscape:zoom="13.15625"
     inkscape:cx="3.7624703"
     inkscape:cy="18.432304"
     inkscape:window-width="1920"
     inkscape:window-height="1027"
     inkscape:window-x="-8"
     inkscape:window-y="-8"
     inkscape:window-maximized="1"
     inkscape:current-layer="Calque_1"
     inkscape:snap-bbox="true"
     inkscape:bbox-paths="true"
     inkscape:bbox-nodes="true"
     inkscape:snap-bbox-edge-midpoints="true"
     inkscape:snap-bbox-midpoints="true" />
  <defs
     id="defs4">
    <style
       id="style2">.cls-1,.cls-2{fill:none;stroke:#e3e3e3;stroke-miterlimit:10;}.cls-1{stroke-width:3px;}.cls-2{stroke-width:2px;}</style>
    <style
       id="style1399">.cls-1{fill:#e3e3e3;}</style>
    <style
       id="style1399-4">.cls-1{fill:#e3e3e3;}</style>
    <style
       id="style1399-5">.cls-1{fill:#e3e3e3;}</style>
    <style
       id="style1399-7">.cls-1{fill:#e3e3e3;}</style>
    <style
       id="style1399-3">.cls-1{fill:#e3e3e3;}</style>
    <style
       id="style1399-1">.cls-1{fill:#e3e3e3;}</style>
    <style
       id="style1399-5-8">.cls-1{fill:#e3e3e3;}</style>
    <style
       id="style1399-8">.cls-1{fill:#e3e3e3;}</style>
    <style
       id="style1399-7-8">.cls-1{fill:#e3e3e3;}</style>
    <style
       id="style1399-1-5">.cls-1{fill:#e3e3e3;}</style>
    <style
       id="style1399-5-6">.cls-1{fill:#e3e3e3;}</style>
    <style
       id="style1399-8-9">.cls-1{fill:#e3e3e3;}</style>
    <style
       id="style1399-2">.cls-1{fill:#e3e3e3;}</style>
    <style
       id="style1399-1-1">.cls-1{fill:#e3e3e3;}</style>
    <style
       id="style1399-5-5">.cls-1{fill:#e3e3e3;}</style>
    <style
       id="style1399-8-99">.cls-1{fill:#e3e3e3;}</style>
    <style
       id="style857">.cls-1{fill:#e52120;}.cls-1,.cls-2,.cls-3,.cls-4,.cls-5{stroke:#000;stroke-miterlimit:10;stroke-width:1.2px;}.cls-2{fill:#6dbc88;}.cls-3{fill:#701034;}.cls-4{fill:#51aae0;}.cls-5{fill:none;}</style>
  </defs>
  <title
     id="title6">measure_l</title>
  <metadata
     id="metadata1695">
    <rdf:RDF>
      <cc:Work
         rdf:about="">
        <dc:title>measure_l</dc:title>
      </cc:Work>
    </rdf:RDF>
  </metadata>
  <path
     id="path3259"
     style="color:#000000;fill:#232323;fill-opacity:1;stroke-linecap:round;-inkscape-stroke:none"
     d="m 1.1852221,0.078125 c -0.61066397,3e-7 -1.10741985,0.49480295 -1.10742185,1.1054688 V 11.244141 c 0,0.985118 1.19207485,1.477848 1.88867185,0.78125 L 12.027019,1.9648438 C 12.723616,1.2682457 12.230926,0.078086 11.245769,0.078125 Z m 19.7089849,0.0097656 c -0.985118,-6e-7 -1.477848,1.19207348 -0.78125,1.88867188 l 10.0625,10.0605465 c 0.696598,0.696598 1.886756,0.201954 1.886718,-0.783203 V 1.1953125 c 0,-0.6106646 -0.494803,-1.10741998 -1.105468,-1.10742188 z M 14.997722,8.8671875 V 15.007812 H 8.8590502 v 2.125 h 6.1386718 v 6.140626 h 2.126953 v -6.140626 h 6.138672 v -2.125 H 17.124675 V 8.8671875 Z M 1.2809252,19.791016 c -0.078784,-0.0077 -0.1584746,-0.0072 -0.2363281,0.002 -0.51902197,0.06105 -0.98439897,0.485838 -0.98437497,1.101562 v 10.058594 c 1e-6,0.610665 0.49675687,1.10742 1.10742187,1.107422 h 10.058594 c 0.98512,10e-7 1.477848,-1.192073 0.78125,-1.888672 L 1.948894,20.111328 C 1.752976,19.91541 1.5172777,19.814178 1.2809252,19.791016 Z m 29.5449218,0.0039 c -0.236901,0.02316 -0.47205,0.124397 -0.667969,0.320312 L 20.097331,30.175781 c -0.696597,0.696598 -0.203905,1.886759 0.78125,1.886719 h 10.0625 c 0.610663,0 1.105465,-0.494804 1.105469,-1.105469 V 20.896484 c 0,-0.615699 -0.46536,-1.038548 -0.984375,-1.099609 -0.07785,-0.0092 -0.157361,-0.0097 -0.236328,-0.002 z"
     inkscape:export-filename="D:\DEV_SRC\RxOT\DuAEF\DuAEF_Duik\icons\w12\path3259.png"
     inkscape:export-xdpi="36"
     inkscape:export-ydpi="36" />
  <style
     type="text/css"
     id="style815">
	.st0{fill:#00005B;}
	.st1{fill:#9999FF;}
</style>
</svg>
