<?xml version="1.0" encoding="UTF-8" standalone="no"?>
<svg
   width="32"
   height="32"
   viewBox="0 0 8.4666666 8.4666666"
   version="1.1"
   id="svg8"
   inkscape:version="1.1.1 (3bf5ae0d25, 2021-09-20)"
   sodipodi:docname="new_cel.svg"
   inkscape:export-filename="D:\RxLab\src\RxOT\DuAEF\DuAEF_Duik\inc\icons\w16\w16_new_cel.png"
   inkscape:export-xdpi="48"
   inkscape:export-ydpi="48"
   xmlns:inkscape="http://www.inkscape.org/namespaces/inkscape"
   xmlns:sodipodi="http://sodipodi.sourceforge.net/DTD/sodipodi-0.dtd"
   xmlns="http://www.w3.org/2000/svg"
   xmlns:svg="http://www.w3.org/2000/svg"
   xmlns:rdf="http://www.w3.org/1999/02/22-rdf-syntax-ns#"
   xmlns:cc="http://creativecommons.org/ns#"
   xmlns:dc="http://purl.org/dc/elements/1.1/">
  <defs
     id="defs2" />
  <sodipodi:namedview
     id="base"
     pagecolor="#ffffff"
     bordercolor="#666666"
     borderopacity="1.0"
     inkscape:pageopacity="0.0"
     inkscape:pageshadow="2"
     inkscape:zoom="16"
     inkscape:cx="28.03125"
     inkscape:cy="18.21875"
     inkscape:document-units="mm"
     inkscape:current-layer="svg8"
     showgrid="false"
     units="px"
     inkscape:window-width="3440"
     inkscape:window-height="1369"
     inkscape:window-x="1912"
     inkscape:window-y="-8"
     inkscape:window-maximized="1"
     inkscape:document-rotation="0"
     inkscape:snap-bbox="true"
     inkscape:snap-nodes="false"
     inkscape:bbox-paths="true"
     inkscape:bbox-nodes="true"
     inkscape:snap-bbox-edge-midpoints="true"
     inkscape:snap-bbox-midpoints="true"
     inkscape:pagecheckerboard="0">
    <sodipodi:guide
       position="8.4666666,0"
       orientation="-32,0"
       id="guide854"
       inkscape:locked="false" />
    <sodipodi:guide
       position="8.4666666,8.4666666"
       orientation="0,-32"
       id="guide856"
       inkscape:locked="false" />
    <sodipodi:guide
       position="0,8.4666814"
       orientation="32,0"
       id="guide858"
       inkscape:locked="false" />
  </sodipodi:namedview>
  <metadata
     id="metadata5">
    <rdf:RDF>
      <cc:Work
         rdf:about="">
        <dc:format>image/svg+xml</dc:format>
        <dc:type
           rdf:resource="http://purl.org/dc/dcmitype/StillImage" />
      </cc:Work>
    </rdf:RDF>
  </metadata>
  <path
     id="path885"
     style="fill:#232323;fill-opacity:1;stroke-width:0.0623913"
     d="M 12.046875 9.6679688 L 0.78515625 14.777344 C -0.24742149 15.245903 -0.24742149 16.806831 0.78515625 17.275391 L 15.318359 23.867188 C 15.74262 24.059981 16.222223 24.059981 16.646484 23.867188 L 31.179688 17.275391 C 32.212266 16.806831 32.212266 15.245903 31.179688 14.777344 L 24.832031 11.896484 L 24.832031 14.882812 C 24.832031 16.400687 23.573741 17.679688 22.042969 17.679688 L 20.898438 17.679688 C 19.367665 17.679688 18.107422 16.400688 18.107422 14.882812 L 18.107422 11.404297 L 14.623047 11.404297 C 13.468168 11.404297 12.468634 10.677435 12.046875 9.6679688 z "
     transform="scale(0.26458333)" />
  <path
     style="fill:#232323;fill-opacity:1;stroke-width:0.0165077"
     d="M 8.2497808,6.0375111 7.294479,5.6045139 4.6225401,6.815685 C 4.4977418,6.872306 4.3651848,6.90103 4.228666,6.90103 4.0921473,6.90103 3.9597553,6.872306 3.834792,6.815685 L 1.1630181,5.6045139 0.20755149,6.0375111 c -0.27320286,0.123808 -0.27320286,0.5365009 0,0.6603084 L 4.0528589,8.4408698 c 0.1122523,0.050843 0.2391969,0.050843 0.3514493,0 L 8.2497808,6.6978195 c 0.2732024,-0.1238075 0.2732024,-0.5365004 0,-0.6603084 z"
     id="path835" />
  <path
     id="path918"
     d="M 7.4908869,1.6743918 H 6.132898 V 0.31640139 c 0,-0.16663308 -0.1351386,-0.30177122 -0.3017752,-0.30177122 H 5.5293476 c -0.1666365,0 -0.3017751,0.13513814 -0.3017751,0.30177122 V 1.6743918 H 3.8695837 c -0.1666366,0 -0.3017752,0.1351381 -0.3017752,0.3017811 v 0.3017762 c 0,0.1666281 0.1351386,0.3017713 0.3017752,0.3017713 h 1.3579888 v 1.3579853 c 0,0.1666431 0.1351386,0.3017812 0.3017751,0.3017812 h 0.3017752 c 0.1666366,0 0.3017752,-0.1351381 0.3017752,-0.3017812 V 2.5797203 h 1.3579889 c 0.1666361,0 0.3017752,-0.1351431 0.3017752,-0.3017712 V 1.9761729 c 0,-0.166643 -0.1351391,-0.3017811 -0.3017752,-0.3017811 z"
     inkscape:connector-curvature="0"
     style="fill:#232323;fill-opacity:1;stroke-width:0.00943047" />
</svg>
