<?xml version="1.0" encoding="UTF-8" standalone="no"?>
<!-- Created with Inkscape (http://www.inkscape.org/) -->

<svg
   width="32"
   height="32"
   viewBox="0 0 8.4666666 8.4666666"
   version="1.1"
   id="svg8"
   inkscape:version="1.1 (c68e22c387, 2021-05-23)"
   sodipodi:docname="nla.svg"
   inkscape:export-filename="C:\DEV_SRC\RxOT\DuAEF_Duik\icons\w16\16w_nla.png"
   inkscape:export-xdpi="48.000004"
   inkscape:export-ydpi="48.000004"
   xmlns:inkscape="http://www.inkscape.org/namespaces/inkscape"
   xmlns:sodipodi="http://sodipodi.sourceforge.net/DTD/sodipodi-0.dtd"
   xmlns="http://www.w3.org/2000/svg"
   xmlns:svg="http://www.w3.org/2000/svg"
   xmlns:rdf="http://www.w3.org/1999/02/22-rdf-syntax-ns#"
   xmlns:cc="http://creativecommons.org/ns#"
   xmlns:dc="http://purl.org/dc/elements/1.1/">
  <defs
     id="defs2">
    <style
       id="style1399">.cls-1{fill:#e3e3e3;}</style>
    <style
       id="style1399-4">.cls-1{fill:#e3e3e3;}</style>
    <style
       id="style1399-8">.cls-1{fill:#e3e3e3;}</style>
    <style
       id="style1399-4-5">.cls-1{fill:#e3e3e3;}</style>
    <style
       id="style1399-9">.cls-1{fill:#e3e3e3;}</style>
    <style
       id="style1399-4-6">.cls-1{fill:#e3e3e3;}</style>
    <style
       id="style1399-8-4">.cls-1{fill:#e3e3e3;}</style>
    <style
       id="style1399-4-5-3">.cls-1{fill:#e3e3e3;}</style>
    <style
       id="style1399-88">.cls-1{fill:#e3e3e3;}</style>
    <style
       id="style1399-3">.cls-1{fill:#e3e3e3;}</style>
    <style
       id="style1399-94">.cls-1{fill:#e3e3e3;}</style>
    <style
       id="style1399-5">.cls-1{fill:#e3e3e3;}</style>
    <style
       id="style1399-46">.cls-1{fill:#e3e3e3;}</style>
    <style
       id="style1399-4-2">.cls-1{fill:#e3e3e3;}</style>
    <style
       id="style1399-8-5">.cls-1{fill:#e3e3e3;}</style>
    <style
       id="style1399-4-5-8">.cls-1{fill:#e3e3e3;}</style>
    <style
       id="style1399-9-6">.cls-1{fill:#e3e3e3;}</style>
    <style
       id="style1399-4-6-2">.cls-1{fill:#e3e3e3;}</style>
    <style
       id="style1399-8-4-8">.cls-1{fill:#e3e3e3;}</style>
    <style
       id="style1399-4-5-3-4">.cls-1{fill:#e3e3e3;}</style>
    <style
       id="style1399-88-7">.cls-1{fill:#e3e3e3;}</style>
    <style
       id="style1399-3-2">.cls-1{fill:#e3e3e3;}</style>
    <style
       id="style1399-94-4">.cls-1{fill:#e3e3e3;}</style>
    <style
       id="style1399-5-0">.cls-1{fill:#e3e3e3;}</style>
  </defs>
  <sodipodi:namedview
     id="base"
     pagecolor="#ffffff"
     bordercolor="#666666"
     borderopacity="1.0"
     inkscape:pageopacity="0.0"
     inkscape:pageshadow="2"
     inkscape:zoom="8"
     inkscape:cx="19.25"
     inkscape:cy="11.75"
     inkscape:document-units="mm"
     inkscape:current-layer="svg8"
     showgrid="false"
     units="px"
     inkscape:window-width="1920"
     inkscape:window-height="1137"
     inkscape:window-x="-8"
     inkscape:window-y="-8"
     inkscape:window-maximized="1"
     inkscape:snap-bbox="true"
     inkscape:bbox-paths="true"
     inkscape:bbox-nodes="true"
     inkscape:snap-bbox-edge-midpoints="true"
     inkscape:snap-bbox-midpoints="true"
     inkscape:snap-nodes="false"
     inkscape:pagecheckerboard="1">
    <sodipodi:guide
       position="8.4553541,3.980707"
       orientation="-32,0"
       id="guide854"
       inkscape:locked="false" />
    <sodipodi:guide
       position="8.4666666,8.4666662"
       orientation="0,-32"
       id="guide856"
       inkscape:locked="false" />
    <sodipodi:guide
       position="0,8.4666814"
       orientation="32,0"
       id="guide858"
       inkscape:locked="false" />
  </sodipodi:namedview>
  <metadata
     id="metadata5">
    <rdf:RDF>
      <cc:Work
         rdf:about="">
        <dc:format>image/svg+xml</dc:format>
        <dc:type
           rdf:resource="http://purl.org/dc/dcmitype/StillImage" />
      </cc:Work>
    </rdf:RDF>
  </metadata>
  <path
     id="rect3820"
     style="fill:#232323;fill-opacity:1;stroke:none;stroke-width:0.999999"
     d="m 14.925781,0.00360845 c -0.555038,0 -1.001953,0.44691442 -1.001953,1.00195315 V 30.991623 c 0,0.555038 0.446915,1 1.001953,1 h 2.3125 c 0.555039,0 1.001953,-0.444962 1.001953,-1 V 1.0055616 c 0,-0.55503873 -0.446914,-1.00195315 -1.001953,-1.00195315 z M 10.660156,6.0625 c -0.8681368,0 -1.566406,0.6982688 -1.566406,1.5664062 v 2.7246098 c 0,0.868137 0.6982692,1.566406 1.566406,1.566406 h 1.40625 V 6.0625 Z m 9.4375,0 v 5.857422 h 10.292969 c 0.868138,0 1.566406,-0.698269 1.566406,-1.566406 V 7.6289062 C 31.957031,6.7607688 31.258763,6.0625 30.390625,6.0625 Z M 1.5664062,14.128906 C 0.69826874,14.128906 0,14.827177 0,15.695312 v 2.72461 c 0,0.868138 0.69826874,1.566406 1.5664062,1.566406 H 12.066406 v -5.857422 z m 18.5312498,0 v 5.857422 h 1.199219 c 0.868138,0 1.566406,-0.698268 1.566406,-1.566406 v -2.72461 c 0,-0.868135 -0.698268,-1.566406 -1.566406,-1.566406 z m -12.1074216,7.91211 c -0.8681377,0 -1.5683594,0.698268 -1.5683594,1.566406 v 2.724609 c 0,0.868138 0.7002217,1.566406 1.5683594,1.566407 h 4.0761716 v -5.857422 z m 12.1074216,0 v 5.857422 h 7.621094 c 0.868138,0 1.566406,-0.698269 1.566406,-1.566407 v -2.724609 c 0,-0.868138 -0.698268,-1.566406 -1.566406,-1.566406 z"
     transform="scale(0.26458333)"
     sodipodi:nodetypes="sssssssssssssccsccsssscssssccsccsssscssssccsccssssc" />
</svg>
