<?xml version="1.0" encoding="UTF-8" standalone="no"?>
<svg
   width="32"
   height="32"
   viewBox="0 0 8.4666666 8.4666666"
   version="1.1"
   id="svg8"
   inkscape:version="1.1.1 (3bf5ae0d25, 2021-09-20)"
   sodipodi:docname="null_path.svg"
   inkscape:export-filename="D:\RxLab\src\RxOT\DuAEF\DuAEF_Duik\inc\icons\w16\w16_null_path.png"
   inkscape:export-xdpi="48.000004"
   inkscape:export-ydpi="48.000004"
   xmlns:inkscape="http://www.inkscape.org/namespaces/inkscape"
   xmlns:sodipodi="http://sodipodi.sourceforge.net/DTD/sodipodi-0.dtd"
   xmlns="http://www.w3.org/2000/svg"
   xmlns:svg="http://www.w3.org/2000/svg"
   xmlns:rdf="http://www.w3.org/1999/02/22-rdf-syntax-ns#"
   xmlns:cc="http://creativecommons.org/ns#"
   xmlns:dc="http://purl.org/dc/elements/1.1/">
  <defs
     id="defs2">
    <marker
       style="overflow:visible"
       id="Arrow1Lstart"
       refX="0.0"
       refY="0.0"
       orient="auto"
       inkscape:stockid="Arrow1Lstart"
       inkscape:isstock="true">
      <path
         transform="scale(0.8) translate(12.5,0)"
         style="fill-rule:evenodd;stroke:#000000;stroke-width:1.0pt"
         d="M 0.0,0.0 L 5.0,-5.0 L -12.5,0.0 L 5.0,5.0 L 0.0,0.0 z "
         id="path850" />
    </marker>
  </defs>
  <sodipodi:namedview
     id="base"
     pagecolor="#ffffff"
     bordercolor="#666666"
     borderopacity="1.0"
     inkscape:pageopacity="0.0"
     inkscape:pageshadow="2"
     inkscape:zoom="10.24"
     inkscape:cx="42.72461"
     inkscape:cy="24.267578"
     inkscape:document-units="mm"
     inkscape:current-layer="svg8"
     showgrid="false"
     units="px"
     inkscape:window-width="3440"
     inkscape:window-height="1369"
     inkscape:window-x="1912"
     inkscape:window-y="-8"
     inkscape:window-maximized="1"
     inkscape:document-rotation="0"
     inkscape:pagecheckerboard="1"
     inkscape:snap-bbox="true"
     inkscape:bbox-paths="true"
     inkscape:bbox-nodes="true"
     inkscape:snap-bbox-edge-midpoints="true"
     inkscape:snap-bbox-midpoints="true"
     inkscape:snap-nodes="false" />
  <metadata
     id="metadata5">
    <rdf:RDF>
      <cc:Work
         rdf:about="">
        <dc:format>image/svg+xml</dc:format>
        <dc:type
           rdf:resource="http://purl.org/dc/dcmitype/StillImage" />
      </cc:Work>
    </rdf:RDF>
  </metadata>
  <path
     id="path1009"
     style="color:#000000;font-style:normal;font-variant:normal;font-weight:normal;font-stretch:normal;font-size:medium;line-height:normal;font-family:sans-serif;font-variant-ligatures:normal;font-variant-position:normal;font-variant-caps:normal;font-variant-numeric:normal;font-variant-alternates:normal;font-feature-settings:normal;text-indent:0;text-align:start;text-decoration:none;text-decoration-line:none;text-decoration-style:solid;text-decoration-color:#000000;letter-spacing:normal;word-spacing:normal;text-transform:none;writing-mode:lr-tb;direction:ltr;text-orientation:mixed;dominant-baseline:auto;baseline-shift:baseline;text-anchor:start;white-space:normal;shape-padding:0;clip-rule:nonzero;display:inline;overflow:visible;visibility:visible;opacity:1;isolation:auto;mix-blend-mode:normal;color-interpolation:sRGB;color-interpolation-filters:linearRGB;solid-color:#000000;solid-opacity:1;vector-effect:none;fill:#b1b1b1;fill-opacity:1;fill-rule:nonzero;stroke:none;stroke-width:1.45899;stroke-linecap:round;stroke-linejoin:miter;stroke-miterlimit:4;stroke-dasharray:none;stroke-dashoffset:0;stroke-opacity:1;color-rendering:auto;image-rendering:auto;shape-rendering:auto;text-rendering:auto;enable-background:accumulate"
     d="M 7.1251466,0.9963216 C 6.9682825,1.1185926 6.7936398,1.2282228 6.5939127,1.2283488 6.3984227,1.2282255 6.2290414,1.1176473 6.0740477,0.99993896 5.9187765,1.1183072 5.7487388,1.2282251 5.5526326,1.2283488 5.4574728,1.2282887 5.3687429,1.2021544 5.2844319,1.1622029 5.1688883,1.2661387 5.0604817,1.3756698 4.9593873,1.4898315 4.5261532,1.9790576 4.196887,2.538944 3.9067383,3.10472 4.0108372,3.0713055 4.1195884,3.0528387 4.2302327,3.0525267 a -0.62071728,0.62071728 0 0 1 0.00207,0 C 4.6540756,3.0522449 5.0498478,3.3142274 5.2591104,3.676778 5.510272,3.2022941 5.7683823,2.7789105 6.0523437,2.4582478 6.4216838,2.0411714 6.7876483,1.7821026 7.3339192,1.7027384 7.2796111,1.6063631 7.240715,1.5045804 7.2403848,1.3926798 7.240003,1.2833343 7.3269268,1.202198 7.3669921,1.1017415 7.2835468,1.0680654 7.1965052,1.0521538 7.1251466,0.9963216 Z M 3.1419271,4.6606973 C 2.8713951,5.1916374 2.5987751,5.667753 2.300118,6.0182373 1.9435226,6.4367131 1.6027002,6.6881432 1.0908895,6.7639281 c 0.076963,0.1193131 0.1358191,0.2477632 0.135909,0.390157 -5.33e-5,0.084359 -0.072946,0.145202 -0.097668,0.2247926 0.063725,0.028411 0.13063,0.040486 0.1870686,0.082166 0.1531993,-0.1135734 0.3184466,-0.222605 0.510046,-0.2227259 0.1888644,1.193e-4 0.3498831,0.1099608 0.5017782,0.2206583 0.1521922,-0.111343 0.3143645,-0.2205387 0.5038452,-0.2206583 0.0926,5.85e-5 0.1815766,0.020823 0.2656168,0.055294 0.1115634,-0.1044083 0.216441,-0.214036 0.3136759,-0.3281452 0.4057179,-0.4761212 0.7178408,-1.016915 0.9963216,-1.5642458 -0.057618,0.00979 -0.1161108,0.015026 -0.175183,0.014986 a -0.62071728,0.62071728 0 0 1 -0.00207,0 C 3.7603364,5.4148825 3.32378,5.0886254 3.1419271,4.6606973 Z" />
  <path
     id="path875"
     style="fill:#b1b1b3;fill-opacity:1;stroke:none;stroke-width:1.63615;stroke-linecap:round;stroke-miterlimit:4;stroke-dasharray:none;stroke-dashoffset:0;stroke-opacity:1"
     d="m 1.3203331,0.00155033 a 0.30292563,0.30292563 0 0 0 -0.3028239,0.302824 0.30292563,0.30292563 0 0 0 0.3028239,0.302824 0.30292563,0.30292563 0 0 0 0.3028239,-0.302824 0.30292563,0.30292563 0 0 0 -0.3028239,-0.302824 z m 1.0056233,0 a 0.30292563,0.30292563 0 0 0 -0.3028238,0.302824 0.30292563,0.30292563 0 0 0 0.3028238,0.302824 0.30292563,0.30292563 0 0 0 0.3028239,-0.302824 0.30292563,0.30292563 0 0 0 -0.3028239,-0.302824 z m 1.1456666,0 a 0.30292563,0.30292563 0 0 0 -0.3028241,0.302824 0.30292563,0.30292563 0 0 0 0.3028241,0.302824 0.30292563,0.30292563 0 0 0 0.3028238,-0.302824 0.30292563,0.30292563 0 0 0 -0.3028238,-0.302824 z m 1.0288778,0 a 0.30292563,0.30292563 0 0 0 -0.3028241,0.302824 0.30292563,0.30292563 0 0 0 0.3028241,0.302824 0.30292563,0.30292563 0 0 0 0.3033405,-0.302824 0.30292563,0.30292563 0 0 0 -0.3033405,-0.302824 z m 1.0526486,0 a 0.30292563,0.30292563 0 0 0 -0.302824,0.302824 0.30292563,0.30292563 0 0 0 0.302824,0.302824 0.30292563,0.30292563 0 0 0 0.302824,-0.302824 0.30292563,0.30292563 0 0 0 -0.302824,-0.302824 z m 1.040764,0 a 0.30292563,0.30292563 0 0 0 -0.302824,0.302824 0.30292563,0.30292563 0 0 0 0.302824,0.302824 0.30292563,0.30292563 0 0 0 0.302823,-0.302824 0.30292563,0.30292563 0 0 0 -0.302823,-0.302824 z m 1.064017,0 a 0.30292563,0.30292563 0 0 0 -0.302824,0.302824 0.30292563,0.30292563 0 0 0 0.302824,0.302824 0.30292563,0.30292563 0 0 0 0.302824,-0.302824 0.30292563,0.30292563 0 0 0 -0.302824,-0.302824 z m -7.35510627,0.502295 A 0.30292563,0.30292563 0 0 0 2.3264832e-7,0.80666933 0.30292563,0.30292563 0 0 0 0.30282413,1.1100093 0.30292563,0.30292563 0 0 0 0.60564803,0.80666933 0.30292563,0.30292563 0 0 0 0.30282413,0.50384533 Z M 8.1638434,1.0867553 a 0.30292563,0.30292563 0 0 0 -0.302824,0.30334 0.30292563,0.30292563 0 0 0 0.302824,0.302824 0.30292563,0.30292563 0 0 0 0.302823,-0.302824 0.30292563,0.30292563 0 0 0 -0.302823,-0.30334 z M 0.30282413,1.5787143 A 0.30292563,0.30292563 0 0 0 2.3264832e-7,1.8815383 0.30292563,0.30292563 0 0 0 0.30282413,2.1843623 0.30292563,0.30292563 0 0 0 0.60564803,1.8815383 0.30292563,0.30292563 0 0 0 0.30282413,1.5787143 Z m 7.86101927,0.513664 a 0.30292563,0.30292563 0 0 0 -0.302824,0.303341 0.30292563,0.30292563 0 0 0 0.302824,0.302824 0.30292563,0.30292563 0 0 0 0.302823,-0.302824 0.30292563,0.30292563 0 0 0 -0.302823,-0.303341 z m -7.86101927,0.49196 A 0.30292563,0.30292563 0 0 0 2.3264832e-7,2.8871623 0.30292563,0.30292563 0 0 0 0.30282413,3.1899853 0.30292563,0.30292563 0 0 0 0.60564803,2.8871623 0.30292563,0.30292563 0 0 0 0.30282413,2.5843383 Z m 7.86101927,0.654223 a 0.30292563,0.30292563 0 0 0 -0.302824,0.302824 0.30292563,0.30292563 0 0 0 0.302824,0.302824 0.30292563,0.30292563 0 0 0 0.302823,-0.302824 0.30292563,0.30292563 0 0 0 -0.302823,-0.302824 z m -3.9305099,0.436149 a 0.56017255,0.56017255 0 0 0 -0.5601726,0.560173 0.56017255,0.56017255 0 0 0 0.5601726,0.560173 0.56017255,0.56017255 0 0 0 0.5601727,-0.560173 0.56017255,0.56017255 0 0 0 -0.5601727,-0.560173 z m -3.93050937,0.05581 A 0.30292563,0.30292563 0 0 0 2.3264832e-7,4.0333443 0.30292563,0.30292563 0 0 0 0.30282413,4.3361683 0.30292563,0.30292563 0 0 0 0.60564803,4.0333443 0.30292563,0.30292563 0 0 0 0.30282413,3.7305203 Z m 7.86101927,0.536918 a 0.30292563,0.30292563 0 0 0 -0.302824,0.302824 0.30292563,0.30292563 0 0 0 0.302824,0.302824 0.30292563,0.30292563 0 0 0 0.302823,-0.302824 0.30292563,0.30292563 0 0 0 -0.302823,-0.302824 z m -7.86101927,0.49196 A 0.30292563,0.30292563 0 0 0 2.3264832e-7,5.0622223 0.30292563,0.30292563 0 0 0 0.30282413,5.3650453 0.30292563,0.30292563 0 0 0 0.60564803,5.0622223 0.30292563,0.30292563 0 0 0 0.30282413,4.7593983 Z m 7.86101927,0.560689 a 0.30292563,0.30292563 0 0 0 -0.302824,0.302824 0.30292563,0.30292563 0 0 0 0.302824,0.302824 0.30292563,0.30292563 0 0 0 0.302823,-0.302824 0.30292563,0.30292563 0 0 0 -0.302823,-0.302824 z M 0.30282413,5.8115303 A 0.30292563,0.30292563 0 0 0 2.3264832e-7,6.1143543 0.30292563,0.30292563 0 0 0 0.30282413,6.4176943 a 0.30292563,0.30292563 0 0 0 0.3028239,-0.30334 0.30292563,0.30292563 0 0 0 -0.3028239,-0.302824 z m 7.86101927,0.548804 a 0.30292563,0.30292563 0 0 0 -0.302824,0.30334 0.30292563,0.30292563 0 0 0 0.302824,0.302824 0.30292563,0.30292563 0 0 0 0.302823,-0.302824 0.30292563,0.30292563 0 0 0 -0.302823,-0.30334 z m -7.86101927,0.49196 A 0.30292563,0.30292563 0 0 0 2.3264832e-7,7.1551183 0.30292563,0.30292563 0 0 0 0.30282413,7.4579423 0.30292563,0.30292563 0 0 0 0.60564803,7.1551183 0.30292563,0.30292563 0 0 0 0.30282413,6.8522943 Z m 7.86101927,0.572058 a 0.30292563,0.30292563 0 0 0 -0.302824,0.303341 0.30292563,0.30292563 0 0 0 0.302824,0.302824 0.30292563,0.30292563 0 0 0 0.302823,-0.302824 0.30292563,0.30292563 0 0 0 -0.302823,-0.303341 z m -7.35510697,0.435116 a 0.30292563,0.30292563 0 0 0 -0.3028239,0.302824 0.30292563,0.30292563 0 0 0 0.3028239,0.302824 0.30292563,0.30292563 0 0 0 0.30282387,-0.302824 0.30292563,0.30292563 0 0 0 -0.30282387,-0.302824 z m 1.01750897,0 a 0.30292563,0.30292563 0 0 0 -0.3028239,0.302824 0.30292563,0.30292563 0 0 0 0.3028239,0.302824 0.30292563,0.30292563 0 0 0 0.3028238,-0.302824 0.30292563,0.30292563 0 0 0 -0.3028238,-0.302824 z m 1.0056233,0 a 0.30292563,0.30292563 0 0 0 -0.3028239,0.302824 0.30292563,0.30292563 0 0 0 0.3028239,0.302824 0.30292563,0.30292563 0 0 0 0.3028238,-0.302824 0.30292563,0.30292563 0 0 0 -0.3028238,-0.302824 z m 1.1456665,0 A 0.30292563,0.30292563 0 0 0 3.6747113,8.1622923 0.30292563,0.30292563 0 0 0 3.9775352,8.4651163 0.30292563,0.30292563 0 0 0 4.280359,8.1622923 0.30292563,0.30292563 0 0 0 3.9775352,7.8594683 Z m 1.0288777,0 a 0.30292563,0.30292563 0 0 0 -0.3028238,0.302824 0.30292563,0.30292563 0 0 0 0.3028238,0.302824 0.30292563,0.30292563 0 0 0 0.3033405,-0.302824 0.30292563,0.30292563 0 0 0 -0.3033405,-0.302824 z m 1.0526495,0 a 0.30292563,0.30292563 0 0 0 -0.302825,0.302824 0.30292563,0.30292563 0 0 0 0.302825,0.302824 0.30292563,0.30292563 0 0 0 0.302823,-0.302824 0.30292563,0.30292563 0 0 0 -0.302823,-0.302824 z m 1.040763,0 a 0.30292563,0.30292563 0 0 0 -0.302824,0.302824 0.30292563,0.30292563 0 0 0 0.302824,0.302824 0.30292563,0.30292563 0 0 0 0.302824,-0.302824 0.30292563,0.30292563 0 0 0 -0.302824,-0.302824 z" />
</svg>
