<?xml version="1.0" encoding="UTF-8" standalone="no"?>
<!-- Created with Inkscape (http://www.inkscape.org/) -->

<svg
   width="32"
   height="32"
   viewBox="0 0 8.4666666 8.4666666"
   version="1.1"
   id="svg8"
   inkscape:version="1.1.1 (3bf5ae0d25, 2021-09-20)"
   sodipodi:docname="onion_skin.svg"
   inkscape:export-filename="D:\RxLab\src\RxOT\DuAEF\DuAEF_Duik\inc\icons\w16\w16_onion_skin.png"
   inkscape:export-xdpi="48"
   inkscape:export-ydpi="48"
   xmlns:inkscape="http://www.inkscape.org/namespaces/inkscape"
   xmlns:sodipodi="http://sodipodi.sourceforge.net/DTD/sodipodi-0.dtd"
   xmlns="http://www.w3.org/2000/svg"
   xmlns:svg="http://www.w3.org/2000/svg"
   xmlns:rdf="http://www.w3.org/1999/02/22-rdf-syntax-ns#"
   xmlns:cc="http://creativecommons.org/ns#"
   xmlns:dc="http://purl.org/dc/elements/1.1/">
  <defs
     id="defs2">
    <style
       id="style1399">.cls-1{fill:#e3e3e3;}</style>
  </defs>
  <sodipodi:namedview
     id="base"
     pagecolor="#ffffff"
     bordercolor="#666666"
     borderopacity="1.0"
     inkscape:pageopacity="0.0"
     inkscape:pageshadow="2"
     inkscape:zoom="11.313709"
     inkscape:cx="-5.0823298"
     inkscape:cy="24.527765"
     inkscape:document-units="mm"
     inkscape:current-layer="svg8"
     showgrid="false"
     units="px"
     inkscape:window-width="3440"
     inkscape:window-height="1369"
     inkscape:window-x="1912"
     inkscape:window-y="-8"
     inkscape:window-maximized="1"
     inkscape:pagecheckerboard="0">
    <sodipodi:guide
       position="8.4666666,0"
       orientation="-32,0"
       id="guide854"
       inkscape:locked="false" />
    <sodipodi:guide
       position="8.4666666,8.4666666"
       orientation="0,-32"
       id="guide856"
       inkscape:locked="false" />
    <sodipodi:guide
       position="0,8.4666814"
       orientation="32,0"
       id="guide858"
       inkscape:locked="false" />
  </sodipodi:namedview>
  <metadata
     id="metadata5">
    <rdf:RDF>
      <cc:Work
         rdf:about="">
        <dc:format>image/svg+xml</dc:format>
        <dc:type
           rdf:resource="http://purl.org/dc/dcmitype/StillImage" />
      </cc:Work>
    </rdf:RDF>
  </metadata>
  <path
     inkscape:connector-curvature="0"
     id="path862"
     d="M 6.9295338,0 6.3861709,0.21094772 C 5.7439865,0.4601928 4.668442,0.66063871 3.6320516,0.97082095 2.5963134,1.2808016 1.549858,1.6957339 0.97964568,2.5816078 0.96995035,2.5957819 0.96022637,2.6100019 0.94910779,2.6292625 -0.11397716,4.4705796 0.52556802,6.8401028 2.3706072,7.9053368 4.215643,8.9705725 6.5876973,8.339812 7.6507883,6.4984819 8.2232177,5.5070134 8.0663638,4.3294652 7.7974994,3.2629358 7.5286344,2.1964052 7.1261716,1.1773634 7.0257314,0.57499081 Z M 6.2269151,1.2440107 C 6.4072547,1.9419136 6.6787067,2.7052401 6.8777369,3.494749 7.1249074,4.4752174 7.19136,5.3969928 6.8292581,6.0241719 6.5917811,6.435494 6.2696962,6.7659566 5.8981681,7.0078597 6.0790465,6.8343691 6.2391705,6.6333507 6.3707918,6.4053826 7.1203453,5.107118 5.9155278,3.6156797 5.5568063,2.386819 l -7.38e-5,-4.26e-5 C 4.1689256,2.644556 2.4131596,2.5337626 1.683577,3.6695699 c -0.00493,0.00688 -0.0096,0.01402 -0.013928,0.021507 C 1.5382392,3.9186877 1.444291,4.1574959 1.3844603,4.400491 1.4084006,3.9589707 1.5332793,3.5159842 1.7697744,3.1056273 L 1.770289,3.104736 1.776369,3.095576 C 2.1162445,2.5666333 2.9379064,2.1684112 3.9037962,1.8793349 4.6899784,1.6440422 5.5071945,1.4649894 6.2269375,1.2439061 Z M 4.6612891,3.9377931 C 4.9016955,4.7761518 5.7165923,5.791484 5.2033967,6.6803646 5.074928,6.9028789 4.9078175,7.0889757 4.7156633,7.2350438 4.774599,7.1625477 4.8288717,7.0847123 4.8771226,7.0011391 5.3596905,6.1653071 4.6005622,5.2146938 4.378183,4.4284965 l -1.418e-4,-8.18e-5 c -0.88354,0.1716945 -1.9993448,0.1087877 -2.4684597,0.840365 -0.00286,0.00461 -0.00598,0.00917 -0.00876,0.013989 -0.048473,0.083957 -0.088914,0.1702789 -0.12233,0.2579708 0.030303,-0.2399053 0.1079829,-0.4781537 0.2366958,-0.7010908 0.00294,-0.0051 0.00617,-0.00999 0.0095,-0.01474 C 2.5238482,4.0470515 3.7171545,4.1177762 4.6613123,3.9378025 Z M 3.6043462,5.7686421 A 0.69207955,0.69207955 0 0 1 3.8576695,6.7140581 0.69207955,0.69207955 0 0 1 2.9122517,6.9673821 0.69207955,0.69207955 0 0 1 2.658928,6.0219644 0.69207955,0.69207955 0 0 1 3.6043451,5.7686413 Z"
     style="color:#000000;font-style:normal;font-variant:normal;font-weight:normal;font-stretch:normal;font-size:medium;line-height:normal;font-family:sans-serif;font-variant-ligatures:normal;font-variant-position:normal;font-variant-caps:normal;font-variant-numeric:normal;font-variant-alternates:normal;font-feature-settings:normal;text-indent:0;text-align:start;text-decoration:none;text-decoration-line:none;text-decoration-style:solid;text-decoration-color:#000000;letter-spacing:normal;word-spacing:normal;text-transform:none;writing-mode:lr-tb;direction:ltr;text-orientation:mixed;dominant-baseline:auto;baseline-shift:baseline;text-anchor:start;white-space:normal;shape-padding:0;clip-rule:nonzero;display:inline;overflow:visible;visibility:visible;opacity:1;isolation:auto;mix-blend-mode:normal;color-interpolation:sRGB;color-interpolation-filters:linearRGB;solid-color:#000000;solid-opacity:1;vector-effect:none;fill:#b1b1b1;fill-opacity:1;fill-rule:nonzero;stroke:none;stroke-width:0.948516;stroke-linecap:round;stroke-linejoin:miter;stroke-miterlimit:4;stroke-dasharray:none;stroke-dashoffset:0;stroke-opacity:1;paint-order:normal;color-rendering:auto;image-rendering:auto;shape-rendering:auto;text-rendering:auto;enable-background:accumulate" />
</svg>
