<?xml version="1.0" encoding="UTF-8" standalone="no"?>
<svg
   width="32"
   height="32"
   viewBox="0 0 8.4666666 8.4666666"
   version="1.1"
   id="svg8"
   inkscape:version="1.1 (c68e22c387, 2021-05-23)"
   sodipodi:docname="options.svg"
   inkscape:export-filename="D:\DEV_SRC\RxOT\DuAEF\DuAEF_Duik\DuAEF\DuESF\icons\w12\w12_options.png"
   inkscape:export-xdpi="36"
   inkscape:export-ydpi="36"
   xmlns:inkscape="http://www.inkscape.org/namespaces/inkscape"
   xmlns:sodipodi="http://sodipodi.sourceforge.net/DTD/sodipodi-0.dtd"
   xmlns="http://www.w3.org/2000/svg"
   xmlns:svg="http://www.w3.org/2000/svg"
   xmlns:rdf="http://www.w3.org/1999/02/22-rdf-syntax-ns#"
   xmlns:cc="http://creativecommons.org/ns#"
   xmlns:dc="http://purl.org/dc/elements/1.1/">
  <defs
     id="defs2" />
  <sodipodi:namedview
     id="base"
     pagecolor="#ffffff"
     bordercolor="#666666"
     borderopacity="1.0"
     inkscape:pageopacity="0.0"
     inkscape:pageshadow="2"
     inkscape:zoom="11.313708"
     inkscape:cx="0.57452429"
     inkscape:cy="14.009554"
     inkscape:document-units="mm"
     inkscape:current-layer="layer1"
     showgrid="false"
     units="px"
     inkscape:window-width="1920"
     inkscape:window-height="1027"
     inkscape:window-x="-8"
     inkscape:window-y="-8"
     inkscape:window-maximized="1"
     inkscape:document-rotation="0"
     inkscape:pagecheckerboard="1">
    <sodipodi:guide
       position="8.4666666,0"
       orientation="-32,0"
       id="guide854"
       inkscape:locked="false" />
    <sodipodi:guide
       position="8.4666666,8.4666666"
       orientation="0,-32"
       id="guide856"
       inkscape:locked="false" />
    <sodipodi:guide
       position="0,8.4666814"
       orientation="32,0"
       id="guide858"
       inkscape:locked="false" />
  </sodipodi:namedview>
  <metadata
     id="metadata5">
    <rdf:RDF>
      <cc:Work
         rdf:about="">
        <dc:format>image/svg+xml</dc:format>
        <dc:type
           rdf:resource="http://purl.org/dc/dcmitype/StillImage" />
        <dc:title />
      </cc:Work>
    </rdf:RDF>
  </metadata>
  <g
     inkscape:label="Layer 1"
     inkscape:groupmode="layer"
     id="layer1"
     transform="translate(0,-288.53334)">
    <path
       id="path818"
       d="m 7.2639885,293.54285 -0.550691,-0.31799 c 0.055585,-0.29992 0.055585,-0.60757 0,-0.90748 l 0.550691,-0.31801 c 0.063342,-0.0362 0.091782,-0.11117 0.071098,-0.18097 -0.1434896,-0.46021 -0.3878106,-0.87646 -0.7071075,-1.2229 -0.049123,-0.053 -0.1292706,-0.0659 -0.1913202,-0.0298 l -0.5506912,0.31801 C 5.6545742,290.68463 5.3882775,290.5308 5.1000051,290.42997 v -0.63471 c 0,-0.0723 -0.050415,-0.13574 -0.121514,-0.15124 -0.4744216,-0.10602 -0.9604776,-0.10084 -1.4116306,0 -0.071098,0.0154 -0.1215139,0.0788 -0.1215139,0.15124 v 0.636 c -0.2869799,0.10213 -0.5532766,0.25596 -0.785963,0.45374 l -0.5493982,-0.318 c -0.063343,-0.0362 -0.1421973,-0.0245 -0.1913199,0.0298 -0.3192974,0.34515 -0.563618,0.7614 -0.707108,1.2229 -0.021976,0.0699 0.00776,0.14478 0.071098,0.18097 l 0.5506911,0.31801 c -0.055586,0.2999 -0.055586,0.60757 0,0.90748 l -0.5506911,0.318 c -0.063342,0.0362 -0.091782,0.11118 -0.071098,0.18098 0.14349,0.4602 0.3878106,0.87645 0.707108,1.2229 0.049123,0.053 0.1292702,0.0659 0.1913199,0.0298 l 0.550691,-0.318 c 0.2313936,0.19907 0.4976903,0.3529 0.7859628,0.45374 v 0.636 c 0,0.0723 0.050415,0.13574 0.1215141,0.15124 0.4744216,0.10602 0.9604774,0.10084 1.4116305,0 0.071098,-0.0154 0.1215139,-0.0788 0.1215139,-0.15124 v -0.636 c 0.2869798,-0.10214 0.5532765,-0.25596 0.7859628,-0.45374 l 0.550691,0.318 c 0.063343,0.0362 0.1421974,0.0245 0.1913202,-0.0298 0.3192971,-0.34515 0.5636179,-0.7614 0.7071076,-1.2229 0.019391,-0.0711 -0.00905,-0.14607 -0.072391,-0.18228 z m -2.9913125,0.26243 c -0.5700816,0 -1.0341616,-0.46409 -1.0341616,-1.03417 0,-0.57008 0.46408,-1.03416 1.0341616,-1.03416 0.5700814,0 1.0341615,0.46408 1.0341615,1.03416 0,0.57008 -0.4640801,1.03417 -1.0341615,1.03417 z"
       inkscape:connector-curvature="0"
       style="fill:#646464;fill-opacity:1;stroke-width:0.012927" />
  </g>
</svg>
