<?xml version="1.0" encoding="UTF-8" standalone="no"?>
<svg
   id="Calque_1"
   data-name="Calque 1"
   viewBox="0 0 32 32"
   version="1.1"
   sodipodi:docname="parent_across_comp.svg"
   inkscape:version="1.1 (c68e22c387, 2021-05-23)"
   inkscape:export-filename="D:\DEV_SRC\RxOT\DuAEF\DuAEF_Duik\icons\w16\w16_parent_across_comp.png"
   inkscape:export-xdpi="48"
   inkscape:export-ydpi="48"
   xmlns:inkscape="http://www.inkscape.org/namespaces/inkscape"
   xmlns:sodipodi="http://sodipodi.sourceforge.net/DTD/sodipodi-0.dtd"
   xmlns="http://www.w3.org/2000/svg"
   xmlns:svg="http://www.w3.org/2000/svg"
   xmlns:rdf="http://www.w3.org/1999/02/22-rdf-syntax-ns#"
   xmlns:cc="http://creativecommons.org/ns#"
   xmlns:dc="http://purl.org/dc/elements/1.1/">
  <sodipodi:namedview
     id="namedview17"
     pagecolor="#ffffff"
     bordercolor="#111111"
     borderopacity="1"
     inkscape:pageshadow="0"
     inkscape:pageopacity="0"
     inkscape:pagecheckerboard="1"
     showgrid="false"
     inkscape:zoom="6.578125"
     inkscape:cx="-28.047506"
     inkscape:cy="-3.4204275"
     inkscape:window-width="1920"
     inkscape:window-height="1027"
     inkscape:window-x="-8"
     inkscape:window-y="-8"
     inkscape:window-maximized="1"
     inkscape:current-layer="Calque_1" />
  <defs
     id="defs4">
    <style
       id="style2">.cls-1{fill:#e3e3e3;}</style>
  </defs>
  <title
     id="title6">parent_l</title>
  <path
     id="path1074"
     style="fill:#232323;fill-opacity:1;stroke-width:1.13351"
     d="m 10.763672,1.0690135 a 4.1713125,4.1713125 0 1 0 4.169922,4.171875 4.1713125,4.1713125 0 0 0 -4.169922,-4.171875 z m 12.570312,3.0273437 a 4.0126213,4.0126213 0 1 0 4.001954,4.046875 4.0126213,4.0126213 0 0 0 -4.001954,-4.046875 z M 7.3515625,10.899092 a 4.9534336,4.9534336 0 0 0 -4.953125,4.953125 v 7.378906 H 16 v -6.541016 a 3.7519143,3.7519143 0 0 1 2.390625,-3.492187 4.9534336,4.9534336 0 0 0 -4.238281,-2.298828 z m 12.3437495,3.082031 c -1.482859,5.7e-4 -2.684976,1.202687 -2.685546,2.685547 v 7.78125 h 12.591796 v -7.78125 c -5.69e-4,-1.48286 -1.202686,-2.684977 -2.685546,-2.685547 z M 1.5683594,24.738935 c -0.92829549,0 -1.67578127,0.747486 -1.67578128,1.675782 v 2.77539 c 0,0.928296 0.7474858,1.675781 1.67578128,1.675781 H 30.357422 c 0.928295,0 1.675781,-0.747485 1.675781,-1.675781 v -2.77539 c 0,-0.529153 -0.248148,-0.994133 -0.628906,-1.300782 a 2.6141926,2.6141926 0 0 1 -1.802735,0.730469 H 17.009766 a 2.6141926,2.6141926 0 0 1 -2.109375,-1.105469 z" />
  <metadata
     id="metadata967">
    <rdf:RDF>
      <cc:Work
         rdf:about="">
        <dc:title>parent_l</dc:title>
      </cc:Work>
    </rdf:RDF>
  </metadata>
</svg>
