<?xml version="1.0" encoding="UTF-8" standalone="no"?>
<!-- Created with Inkscape (http://www.inkscape.org/) -->

<svg
   width="32"
   height="32"
   viewBox="0 0 8.4666666 8.4666666"
   version="1.1"
   id="svg8"
   inkscape:version="1.1 (c68e22c387, 2021-05-23)"
   sodipodi:docname="path_constraint.svg"
   xmlns:inkscape="http://www.inkscape.org/namespaces/inkscape"
   xmlns:sodipodi="http://sodipodi.sourceforge.net/DTD/sodipodi-0.dtd"
   xmlns="http://www.w3.org/2000/svg"
   xmlns:svg="http://www.w3.org/2000/svg"
   xmlns:rdf="http://www.w3.org/1999/02/22-rdf-syntax-ns#"
   xmlns:cc="http://creativecommons.org/ns#"
   xmlns:dc="http://purl.org/dc/elements/1.1/">
  <defs
     id="defs2" />
  <sodipodi:namedview
     id="base"
     pagecolor="#ffffff"
     bordercolor="#666666"
     borderopacity="1.0"
     inkscape:pageopacity="0.0"
     inkscape:pageshadow="2"
     inkscape:zoom="11.313708"
     inkscape:cx="-3.9332816"
     inkscape:cy="10.120466"
     inkscape:document-units="mm"
     inkscape:current-layer="layer1"
     showgrid="false"
     units="px"
     inkscape:window-width="1920"
     inkscape:window-height="1027"
     inkscape:window-x="-8"
     inkscape:window-y="-8"
     inkscape:window-maximized="1"
     inkscape:pagecheckerboard="1"
     inkscape:snap-nodes="false"
     inkscape:snap-bbox="true"
     inkscape:bbox-paths="true"
     inkscape:snap-bbox-edge-midpoints="true"
     inkscape:snap-bbox-midpoints="true"
     inkscape:bbox-nodes="true">
    <sodipodi:guide
       position="8.4666666,0"
       orientation="-32,0"
       id="guide854"
       inkscape:locked="false" />
    <sodipodi:guide
       position="8.4666666,8.4666666"
       orientation="0,-32"
       id="guide856"
       inkscape:locked="false" />
    <sodipodi:guide
       position="0,8.4666814"
       orientation="32,0"
       id="guide858"
       inkscape:locked="false" />
  </sodipodi:namedview>
  <metadata
     id="metadata5">
    <rdf:RDF>
      <cc:Work
         rdf:about="">
        <dc:format>image/svg+xml</dc:format>
        <dc:type
           rdf:resource="http://purl.org/dc/dcmitype/StillImage" />
      </cc:Work>
    </rdf:RDF>
  </metadata>
  <g
     inkscape:label="Layer 1"
     inkscape:groupmode="layer"
     id="layer1"
     transform="translate(0,-288.53334)">
    <path
       id="path901"
       style="color:#000000;fill:#b1b1b1;stroke-width:3.77953;stroke-linecap:round;stroke-linejoin:round;-inkscape-stroke:none"
       d="M 2.9003906,5.984375 A 2.768504,2.768504 0 0 0 0.18359375,8.2890625 2.768504,2.768504 0 0 0 2.4511719,11.478516 c 0,0 1.4000973,0.238746 3.0488281,0.701172 1.6487312,0.462387 3.5497456,1.347308 3.875,1.638671 1.315436,1.178533 2.06847,3.540558 2.871094,6.517579 0.802623,2.977058 1.695512,6.635392 4.894531,9.08789 2.369368,1.816479 5.18045,2.108051 7.603516,2.369141 2.423066,0.261165 4.466797,0.228515 4.466797,0.228515 a 2.768504,2.768504 0 0 0 2.722656,-2.804687 2.768504,2.768504 0 0 0 -2.804688,-2.730469 c 0,0 -1.736478,0.02264 -3.787109,-0.199219 C 23.291165,26.066158 20.932366,25.344433 20.513672,25.023438 19.276328,24.074826 18.524099,22.199997 17.804688,19.667969 16.493284,19.40767 15.243949,18.775224 14.234375,17.765625 12.036532,15.568134 11.616324,12.234946 12.970703,9.6015625 11.123002,7.9955827 8.9195627,7.3885209 6.9980469,6.8496094 5.0409138,6.3007464 3.3808594,6.0234375 3.3808594,6.0234375 A 2.768504,2.768504 0 0 0 2.9003906,5.984375 Z"
       transform="matrix(0.26458333,0,0,0.26458333,0,288.53334)" />
    <path
       id="path4261"
       d="m 6.7293791,290.27058 c 0.5653773,0.56597 0.5576177,1.47334 0.00341,2.03064 -0.00107,5.7e-4 -0.00228,0.002 -0.00341,0.004 l -0.6359045,0.63591 c -0.5608635,0.56085 -1.4733575,0.56078 -2.034136,0 -0.5608639,-0.56078 -0.5608639,-1.47337 0,-2.03415 l 0.3511289,-0.35151 c 0.093115,-0.0932 0.2534719,-0.0312 0.258279,0.10036 0.00614,0.1677 0.036205,0.33618 0.091695,0.49888 0.018793,0.0551 0.00537,0.11604 -0.035798,0.1572 l -0.1238406,0.12385 c -0.265206,0.2652 -0.2735241,0.69702 -0.010929,0.96482 0.2651873,0.27044 0.7010655,0.27206 0.9682871,0.005 l 0.6359042,-0.63582 c 0.2667675,-0.26676 0.2656509,-0.69794 0,-0.9636 -0.035021,-0.035 -0.070299,-0.0621 -0.097855,-0.0811 a 0.15175589,0.15175589 0 0 1 -0.065739,-0.11923 c -0.00376,-0.1 0.031681,-0.20303 0.1106964,-0.28205 l 0.1992309,-0.19924 c 0.052245,-0.0522 0.1342026,-0.0587 0.194784,-0.0163 a 1.4429158,1.4429158 0 0 1 0.1941966,0.16273 z m 1.3336481,-1.33372 c -0.5607785,-0.56079 -1.4732726,-0.56087 -2.0341366,0 l -0.6359039,0.6359 c -0.00112,5.8e-4 -0.00236,0.002 -0.00341,0.004 -0.5542016,0.55728 -0.5619708,1.46466 0.00341,2.03063 a 1.4426508,1.4426508 0 0 0 0.1941871,0.16273 c 0.060581,0.0422 0.1425486,0.0357 0.1947837,-0.0164 l 0.1992311,-0.19923 c 0.079015,-0.0789 0.1144439,-0.18206 0.1106963,-0.28205 a 0.15175589,0.15175589 0 0 0 -0.065739,-0.11929 c -0.027556,-0.019 -0.062834,-0.0462 -0.097856,-0.0811 -0.2656506,-0.26565 -0.2667673,-0.69683 0,-0.9636 l 0.6359044,-0.6358 c 0.2672217,-0.26724 0.7030908,-0.26562 0.9682872,0.005 0.2625941,0.26781 0.2542858,0.69963 -0.010929,0.96484 l -0.1238403,0.12383 c -0.041164,0.0411 -0.054592,0.1021 -0.035797,0.1572 0.05549,0.16271 0.085563,0.33119 0.091695,0.4989 0.00482,0.13157 0.1651648,0.19347 0.2582793,0.10036 l 0.3511288,-0.35113 c 0.5608734,-0.56076 0.5608734,-1.47335 9.5e-6,-2.03412 z"
       inkscape:connector-curvature="0"
       style="fill:#b1b1b1;fill-opacity:1;stroke-width:0.00946284"
       inkscape:export-filename="D:\DEV_SRC\RxOT\DuAEF\DuAEF_Duik\icons\w16\w16_constraints.png"
       inkscape:export-xdpi="48"
       inkscape:export-ydpi="48" />
  </g>
</svg>
