<?xml version="1.0" encoding="UTF-8" standalone="no"?>
<svg
   width="32"
   height="32"
   viewBox="0 0 8.4666666 8.4666666"
   version="1.1"
   id="svg8"
   inkscape:version="1.1 (c68e22c387, 2021-05-23)"
   sodipodi:docname="pick-prop.svg"
   xmlns:inkscape="http://www.inkscape.org/namespaces/inkscape"
   xmlns:sodipodi="http://sodipodi.sourceforge.net/DTD/sodipodi-0.dtd"
   xmlns="http://www.w3.org/2000/svg"
   xmlns:svg="http://www.w3.org/2000/svg"
   xmlns:rdf="http://www.w3.org/1999/02/22-rdf-syntax-ns#"
   xmlns:cc="http://creativecommons.org/ns#"
   xmlns:dc="http://purl.org/dc/elements/1.1/">
  <defs
     id="defs2">
    <style
       id="style857">.cls-1{fill:#e52120;}.cls-1,.cls-2,.cls-3,.cls-4,.cls-5{stroke:#000;stroke-miterlimit:10;stroke-width:1.2px;}.cls-2{fill:#6dbc88;}.cls-3{fill:#701034;}.cls-4{fill:#51aae0;}.cls-5{fill:none;}</style>
    <style
       id="style857-2">.cls-1{fill:#e52120;}.cls-1,.cls-2,.cls-3,.cls-4,.cls-5{stroke:#000;stroke-miterlimit:10;stroke-width:1.2px;}.cls-2{fill:#6dbc88;}.cls-3{fill:#701034;}.cls-4{fill:#51aae0;}.cls-5{fill:none;}</style>
    <style
       id="style1399">.cls-1{fill:#e3e3e3;}</style>
    <style
       id="style1399-4">.cls-1{fill:#e3e3e3;}</style>
    <style
       id="style1399-8">.cls-1{fill:#e3e3e3;}</style>
    <style
       id="style1399-4-5">.cls-1{fill:#e3e3e3;}</style>
    <style
       id="style1399-9">.cls-1{fill:#e3e3e3;}</style>
    <style
       id="style1399-4-6">.cls-1{fill:#e3e3e3;}</style>
    <style
       id="style1399-8-4">.cls-1{fill:#e3e3e3;}</style>
    <style
       id="style1399-4-5-3">.cls-1{fill:#e3e3e3;}</style>
    <style
       id="style1399-88">.cls-1{fill:#e3e3e3;}</style>
    <style
       id="style1399-3">.cls-1{fill:#e3e3e3;}</style>
    <style
       id="style1399-94">.cls-1{fill:#e3e3e3;}</style>
    <style
       id="style1399-5">.cls-1{fill:#e3e3e3;}</style>
  </defs>
  <sodipodi:namedview
     id="base"
     pagecolor="#ffffff"
     bordercolor="#666666"
     borderopacity="1.0"
     inkscape:pageopacity="0.0"
     inkscape:pageshadow="2"
     inkscape:zoom="5.656854"
     inkscape:cx="-19.180272"
     inkscape:cy="1.1490486"
     inkscape:document-units="mm"
     inkscape:current-layer="svg8"
     showgrid="false"
     units="px"
     inkscape:window-width="1920"
     inkscape:window-height="1027"
     inkscape:window-x="-8"
     inkscape:window-y="-8"
     inkscape:window-maximized="1"
     inkscape:document-rotation="0"
     inkscape:pagecheckerboard="1"
     inkscape:snap-nodes="false"
     inkscape:snap-bbox="true"
     inkscape:bbox-paths="true"
     inkscape:bbox-nodes="true"
     inkscape:snap-bbox-edge-midpoints="true"
     inkscape:snap-bbox-midpoints="true">
    <sodipodi:guide
       position="8.4666666,0"
       orientation="-32,0"
       id="guide854"
       inkscape:locked="false" />
    <sodipodi:guide
       position="8.4666666,8.4666666"
       orientation="0,-32"
       id="guide856"
       inkscape:locked="false" />
    <sodipodi:guide
       position="0,8.4666814"
       orientation="32,0"
       id="guide858"
       inkscape:locked="false" />
  </sodipodi:namedview>
  <metadata
     id="metadata5">
    <rdf:RDF>
      <cc:Work
         rdf:about="">
        <dc:format>image/svg+xml</dc:format>
        <dc:type
           rdf:resource="http://purl.org/dc/dcmitype/StillImage" />
      </cc:Work>
    </rdf:RDF>
  </metadata>
  <style
     type="text/css"
     id="style815">
	.st0{fill:#00005B;}
	.st1{fill:#9999FF;}
</style>
  <path
     id="path877"
     style="fill:#232323;fill-opacity:1;stroke:none;stroke-width:1.19149px;stroke-miterlimit:10"
     d="M 10.701172 -0.0234375 C 8.6180508 -0.0071050278 6.9374357 1.6863453 6.9375 3.7695312 L 6.9375 5.7558594 C 6.9320953 6.740664 6.135196 7.5375429 5.1503906 7.5429688 L -0.01171875 7.5429688 L -0.01171875 12.705078 C -0.017260671 13.705394 0.79265287 14.519214 1.7929688 14.513672 L 3.78125 14.513672 C 5.8682666 14.519114 7.5570435 16.20986 7.5625 18.296875 L 7.5625 21.275391 C 7.5407677 23.345281 5.8571066 25.014211 3.7871094 25.019531 L 1.8027344 25.019531 C 0.79854337 25.008419 -0.017327947 25.821935 -0.01171875 26.826172 L -0.01171875 31.970703 C 1.726856 31.970038 3.4707994 31.966646 5.203125 31.964844 C 6.1627565 31.931055 6.932183 31.148276 6.9375 30.181641 L 6.9375 28.195312 C 6.9374357 26.112127 8.6180508 24.418692 10.701172 24.402344 L 13.679688 24.402344 C 15.77285 24.402337 17.466451 26.102157 17.460938 28.195312 L 17.460938 30.181641 C 17.465963 31.09781 18.158209 31.841244 19.044922 31.947266 C 20.844009 31.945181 22.608425 31.942389 24.423828 31.941406 C 24.407071 26.723263 24.408327 21.505445 24.410156 16.287109 L 21.777344 18.919922 C 20.803966 19.893296 19.4842 20.433594 18.115234 20.433594 L 17.199219 20.433594 L 15.796875 21.238281 A 2.830091 2.830091 0 0 1 12.394531 20.779297 L 11.220703 19.605469 A 2.830091 2.830091 0 0 1 10.763672 16.203125 L 11.568359 14.800781 L 11.568359 13.884766 C 11.568359 12.515877 12.107258 11.19743 13.080078 10.224609 L 17.132812 6.171875 C 16.953171 5.2489633 16.99471 4.3036157 17.451172 3.5058594 C 17.320527 1.5357101 15.684054 -0.023443653 13.679688 -0.0234375 L 10.701172 -0.0234375 z M 28.478516 0 C 27.577196 0 26.675551 0.3434298 25.988281 1.03125 L 23.160156 3.859375 L 22.679688 3.3789062 C 22.333392 3.0326116 21.77634 3.0373802 21.435547 3.3789062 L 19.931641 4.8828125 C 19.587915 5.2265379 19.587915 5.7832263 19.931641 6.1269531 L 25.873047 12.068359 C 26.219342 12.414655 26.776397 12.409885 27.117188 12.068359 L 28.621094 10.564453 C 28.964819 10.220728 28.964819 9.6640394 28.621094 9.3203125 L 28.140625 8.8398438 L 30.96875 6.0117188 C 32.344756 4.636812 32.34434 2.4065237 30.96875 1.03125 C 30.28148 0.3434298 29.379835 0 28.478516 0 z M 19.724609 7.5800781 L 15.080078 12.224609 C 14.639874 12.664814 14.392578 13.261875 14.392578 13.884766 L 14.392578 15.554688 L 13.21875 17.607422 L 14.392578 18.783203 L 16.445312 17.607422 L 18.115234 17.607422 C 18.737757 17.607422 19.335186 17.362078 19.775391 16.921875 L 24.419922 12.275391 L 19.724609 7.5800781 z "
     transform="scale(0.26458333)"
     inkscape:export-filename="D:\DEV_SRC\RxOT\DuAEF\DuAEF_Duik\icons\w16\w16_pick_prop.png"
     inkscape:export-xdpi="48"
     inkscape:export-ydpi="48" />
  <style
     type="text/css"
     id="style815-2">
	.st0{fill:#00005B;}
	.st1{fill:#9999FF;}
</style>
</svg>
