<?xml version="1.0" encoding="UTF-8" standalone="no"?>
<!-- Created with Inkscape (http://www.inkscape.org/) -->

<svg
   width="32"
   height="32"
   viewBox="0 0 8.4666666 8.4666666"
   version="1.1"
   id="svg8"
   inkscape:version="1.1 (c68e22c387, 2021-05-23)"
   sodipodi:docname="pick_texture.svg"
   inkscape:export-filename="D:\DEV_SRC\RxOT\DuAEF\DuAEF_Duik\icons\w16\w16_pick_texture.png"
   inkscape:export-xdpi="48"
   inkscape:export-ydpi="48"
   xmlns:inkscape="http://www.inkscape.org/namespaces/inkscape"
   xmlns:sodipodi="http://sodipodi.sourceforge.net/DTD/sodipodi-0.dtd"
   xmlns="http://www.w3.org/2000/svg"
   xmlns:svg="http://www.w3.org/2000/svg"
   xmlns:rdf="http://www.w3.org/1999/02/22-rdf-syntax-ns#"
   xmlns:cc="http://creativecommons.org/ns#"
   xmlns:dc="http://purl.org/dc/elements/1.1/">
  <defs
     id="defs2">
    <style
       id="style1399">.cls-1{fill:#e3e3e3;}</style>
    <style
       id="style1399-4">.cls-1{fill:#e3e3e3;}</style>
    <style
       id="style1399-8">.cls-1{fill:#e3e3e3;}</style>
    <style
       id="style1399-4-5">.cls-1{fill:#e3e3e3;}</style>
    <style
       id="style1399-9">.cls-1{fill:#e3e3e3;}</style>
    <style
       id="style1399-4-6">.cls-1{fill:#e3e3e3;}</style>
    <style
       id="style1399-8-4">.cls-1{fill:#e3e3e3;}</style>
    <style
       id="style1399-4-5-3">.cls-1{fill:#e3e3e3;}</style>
    <style
       id="style1399-88">.cls-1{fill:#e3e3e3;}</style>
    <style
       id="style1399-3">.cls-1{fill:#e3e3e3;}</style>
    <style
       id="style1399-94">.cls-1{fill:#e3e3e3;}</style>
    <style
       id="style1399-5">.cls-1{fill:#e3e3e3;}</style>
    <style
       id="style1399-46">.cls-1{fill:#e3e3e3;}</style>
    <style
       id="style1399-4-2">.cls-1{fill:#e3e3e3;}</style>
    <style
       id="style1399-8-5">.cls-1{fill:#e3e3e3;}</style>
    <style
       id="style1399-4-5-8">.cls-1{fill:#e3e3e3;}</style>
    <style
       id="style1399-9-6">.cls-1{fill:#e3e3e3;}</style>
    <style
       id="style1399-4-6-2">.cls-1{fill:#e3e3e3;}</style>
    <style
       id="style1399-8-4-8">.cls-1{fill:#e3e3e3;}</style>
    <style
       id="style1399-4-5-3-4">.cls-1{fill:#e3e3e3;}</style>
    <style
       id="style1399-88-7">.cls-1{fill:#e3e3e3;}</style>
    <style
       id="style1399-3-2">.cls-1{fill:#e3e3e3;}</style>
    <style
       id="style1399-94-4">.cls-1{fill:#e3e3e3;}</style>
    <style
       id="style1399-5-0">.cls-1{fill:#e3e3e3;}</style>
    <style
       id="style857">.cls-1{fill:#e52120;}.cls-1,.cls-2,.cls-3,.cls-4,.cls-5{stroke:#000;stroke-miterlimit:10;stroke-width:1.2px;}.cls-2{fill:#6dbc88;}.cls-3{fill:#701034;}.cls-4{fill:#51aae0;}.cls-5{fill:none;}</style>
    <style
       id="style857-2">.cls-1{fill:#e52120;}.cls-1,.cls-2,.cls-3,.cls-4,.cls-5{stroke:#000;stroke-miterlimit:10;stroke-width:1.2px;}.cls-2{fill:#6dbc88;}.cls-3{fill:#701034;}.cls-4{fill:#51aae0;}.cls-5{fill:none;}</style>
    <style
       id="style1399-882">.cls-1{fill:#e3e3e3;}</style>
    <style
       id="style1399-4-9">.cls-1{fill:#e3e3e3;}</style>
    <style
       id="style1399-8-55">.cls-1{fill:#e3e3e3;}</style>
    <style
       id="style1399-4-5-6">.cls-1{fill:#e3e3e3;}</style>
    <style
       id="style1399-9-9">.cls-1{fill:#e3e3e3;}</style>
    <style
       id="style1399-4-6-1">.cls-1{fill:#e3e3e3;}</style>
    <style
       id="style1399-8-4-1">.cls-1{fill:#e3e3e3;}</style>
    <style
       id="style1399-4-5-3-9">.cls-1{fill:#e3e3e3;}</style>
    <style
       id="style1399-88-3">.cls-1{fill:#e3e3e3;}</style>
    <style
       id="style1399-3-5">.cls-1{fill:#e3e3e3;}</style>
    <style
       id="style1399-94-0">.cls-1{fill:#e3e3e3;}</style>
    <style
       id="style1399-5-2">.cls-1{fill:#e3e3e3;}</style>
  </defs>
  <sodipodi:namedview
     id="base"
     pagecolor="#ffffff"
     bordercolor="#666666"
     borderopacity="1.0"
     inkscape:pageopacity="0.0"
     inkscape:pageshadow="2"
     inkscape:zoom="8.0000005"
     inkscape:cx="-9.8124994"
     inkscape:cy="7.4374995"
     inkscape:document-units="mm"
     inkscape:current-layer="svg8"
     showgrid="false"
     units="px"
     inkscape:window-width="1920"
     inkscape:window-height="1027"
     inkscape:window-x="-8"
     inkscape:window-y="-8"
     inkscape:window-maximized="1"
     inkscape:pagecheckerboard="1"
     inkscape:snap-bbox="true"
     inkscape:bbox-paths="true"
     inkscape:snap-bbox-edge-midpoints="true"
     inkscape:bbox-nodes="true"
     inkscape:snap-bbox-midpoints="true"
     inkscape:object-paths="true"
     inkscape:snap-nodes="false">
    <sodipodi:guide
       position="8.4666666,0"
       orientation="-32,0"
       id="guide854"
       inkscape:locked="false" />
    <sodipodi:guide
       position="8.5622298,8.4657622"
       orientation="0,-32"
       id="guide856"
       inkscape:locked="false" />
    <sodipodi:guide
       position="0,8.4666814"
       orientation="32,0"
       id="guide858"
       inkscape:locked="false" />
  </sodipodi:namedview>
  <metadata
     id="metadata5">
    <rdf:RDF>
      <cc:Work
         rdf:about="">
        <dc:format>image/svg+xml</dc:format>
        <dc:type
           rdf:resource="http://purl.org/dc/dcmitype/StillImage" />
      </cc:Work>
    </rdf:RDF>
  </metadata>
  <path
     id="rect5880"
     style="color:#000000;fill:#232323;stroke-width:1.42263;stroke-linecap:round;stroke-linejoin:round;stroke-dashoffset:10.3937;-inkscape-stroke:none;fill-opacity:1"
     d="M 7.9023438 0.00390625 L 7.7714844 0.044921875 L 5.1816406 0.044921875 C 2.3775436 0.044921875 0.087890625 2.3345736 0.087890625 5.1386719 L 0.087890625 7.6230469 L 0 7.9042969 L 0.087890625 7.9042969 L 0.087890625 12.113281 L 0 12.113281 L 0 20.013672 L 0.087890625 20.013672 L 0.087890625 24.044922 L 0 24.044922 L 0.087890625 24.326172 L 0.087890625 26.921875 C 0.087890625 29.725973 2.3775436 32.015625 5.1816406 32.015625 L 26.966797 32.015625 C 29.770895 32.015625 32.058594 29.725973 32.058594 26.921875 L 32.058594 9.0292969 L 31.580078 9.5078125 C 31.720918 10.633872 31.521301 11.773583 30.671875 12.623047 A 2.8996431 2.8996431 0 0 1 30.664062 12.623047 L 29.166016 14.113281 L 29.158203 14.121094 C 28.266461 15.009694 27.047264 15.154194 25.859375 14.941406 L 24.097656 16.705078 L 24.097656 20.013672 L 29.941406 20.013672 L 29.941406 24.044922 L 24.097656 24.044922 L 24.097656 29.896484 L 19.978516 29.896484 L 19.978516 24.044922 L 12.076172 24.044922 L 12.076172 29.896484 L 7.9023438 29.896484 L 7.9023438 24.044922 L 2.2070312 24.044922 L 2.2070312 20.013672 L 7.9023438 20.013672 L 7.9023438 12.113281 L 2.2070312 12.113281 L 2.2070312 7.9042969 L 7.9023438 7.9042969 L 7.9023438 2.1621094 L 12.076172 2.1621094 L 12.076172 7.9042969 L 15.296875 7.9042969 L 17.058594 6.1425781 C 16.846212 4.9540807 16.986055 3.7268738 17.878906 2.8339844 L 19.384766 1.3359375 C 20.221485 0.49741769 21.358212 0.29227352 22.484375 0.42773438 L 22.867188 0.044921875 L 19.978516 0.044921875 L 19.978516 0.00390625 L 12.076172 0.00390625 L 12.076172 0.044921875 L 7.9023438 0.044921875 L 7.9023438 0.00390625 z M 28.478516 0.00390625 C 27.577197 0.00390625 26.675551 0.34733605 25.988281 1.0351562 L 23.160156 3.8632812 L 22.679688 3.3828125 C 22.333407 3.0365178 21.776339 3.0412865 21.435547 3.3828125 L 19.931641 4.8867188 C 19.58793 5.2304441 19.58793 5.7871325 19.931641 6.1308594 L 25.873047 12.072266 C 26.219327 12.418561 26.776399 12.413791 27.117188 12.072266 L 28.621094 10.568359 C 28.964804 10.224634 28.964804 9.6679456 28.621094 9.3242188 L 28.140625 8.84375 L 30.96875 6.015625 C 32.344759 4.6407183 32.344343 2.4104299 30.96875 1.0351562 C 30.281481 0.34733605 29.379835 0.0039068925 28.478516 0.00390625 z M 19.724609 7.5839844 L 15.080078 12.228516 C 14.639873 12.668721 14.392578 13.265781 14.392578 13.888672 L 14.392578 15.558594 L 13.21875 17.611328 L 14.392578 18.787109 L 16.445312 17.611328 L 18.115234 17.611328 C 18.737757 17.611328 19.335185 17.365984 19.775391 16.925781 L 24.419922 12.279297 L 19.724609 7.5839844 z "
     transform="scale(0.26458333)" />
  <style
     type="text/css"
     id="style815">
	.st0{fill:#00005B;}
	.st1{fill:#9999FF;}
</style>
  <style
     type="text/css"
     id="style815-2">
	.st0{fill:#00005B;}
	.st1{fill:#9999FF;}
</style>
</svg>
