<?xml version="1.0" encoding="UTF-8" standalone="no"?>
<svg
   xmlns:dc="http://purl.org/dc/elements/1.1/"
   xmlns:cc="http://creativecommons.org/ns#"
   xmlns:rdf="http://www.w3.org/1999/02/22-rdf-syntax-ns#"
   xmlns:svg="http://www.w3.org/2000/svg"
   xmlns="http://www.w3.org/2000/svg"
   xmlns:sodipodi="http://sodipodi.sourceforge.net/DTD/sodipodi-0.dtd"
   xmlns:inkscape="http://www.inkscape.org/namespaces/inkscape"
   width="32"
   height="32"
   viewBox="0 0 8.4666666 8.4666666"
   version="1.1"
   id="svg8"
   inkscape:version="1.0.2-2 (e86c870879, 2021-01-15)"
   sodipodi:docname="prop.svg">
  <defs
     id="defs2">
    <style
       id="style857">.cls-1{fill:#e52120;}.cls-1,.cls-2,.cls-3,.cls-4,.cls-5{stroke:#000;stroke-miterlimit:10;stroke-width:1.2px;}.cls-2{fill:#6dbc88;}.cls-3{fill:#701034;}.cls-4{fill:#51aae0;}.cls-5{fill:none;}</style>
    <style
       id="style857-2">.cls-1{fill:#e52120;}.cls-1,.cls-2,.cls-3,.cls-4,.cls-5{stroke:#000;stroke-miterlimit:10;stroke-width:1.2px;}.cls-2{fill:#6dbc88;}.cls-3{fill:#701034;}.cls-4{fill:#51aae0;}.cls-5{fill:none;}</style>
  </defs>
  <sodipodi:namedview
     id="base"
     pagecolor="#ffffff"
     bordercolor="#666666"
     borderopacity="1.0"
     inkscape:pageopacity="0.0"
     inkscape:pageshadow="2"
     inkscape:zoom="11.313708"
     inkscape:cx="1.7212712"
     inkscape:cy="15.502227"
     inkscape:document-units="mm"
     inkscape:current-layer="svg8"
     showgrid="false"
     units="px"
     inkscape:window-width="3378"
     inkscape:window-height="1417"
     inkscape:window-x="973"
     inkscape:window-y="-8"
     inkscape:window-maximized="1"
     inkscape:document-rotation="0">
    <sodipodi:guide
       position="8.4666666,0"
       orientation="-32,0"
       id="guide854"
       inkscape:locked="false" />
    <sodipodi:guide
       position="8.4666666,8.4666666"
       orientation="0,-32"
       id="guide856"
       inkscape:locked="false" />
    <sodipodi:guide
       position="0,8.4666814"
       orientation="32,0"
       id="guide858"
       inkscape:locked="false" />
  </sodipodi:namedview>
  <metadata
     id="metadata5">
    <rdf:RDF>
      <cc:Work
         rdf:about="">
        <dc:format>image/svg+xml</dc:format>
        <dc:type
           rdf:resource="http://purl.org/dc/dcmitype/StillImage" />
        <dc:title></dc:title>
      </cc:Work>
    </rdf:RDF>
  </metadata>
  <style
     type="text/css"
     id="style815">
	.st0{fill:#00005B;}
	.st1{fill:#9999FF;}
</style>
  <path
     style="fill:#b1b1b1;fill-opacity:1;stroke:none;stroke-width:0.31524807px;stroke-miterlimit:10"
     d="m 7.3904426,-0.00600528 c -0.4599979,1.7599e-4 -0.9215298,8.531e-4 -1.3798743,0.00133446 C 5.7566658,0.00427067 5.5529068,0.21131972 5.5515,0.46707536 V 0.99286881 C 5.551517,1.5440452 5.1071214,1.992088 4.5559623,1.9964136 H 3.7679393 C 3.214123,1.9964154 2.7656044,1.5466831 2.7670635,0.99286881 V 0.46707536 C 2.7657335,0.22467224 2.5826396,0.02805164 2.3480301,0 1.8720215,5.5161e-4 1.4051102,0.00106757 0.92478472,0.00132995 0.93169527,2.1531548 0.9281212,4.3051391 0.9281212,6.456979 h 1.3611909 c 0.2626126,-0.00146 0.4763044,0.210468 0.4777514,0.4730805 v 0.5251263 c -0.00146,0.5538144 0.4470595,1.0035466 1.0008758,1.0035449 h 0.788023 C 5.1071214,8.4544094 5.551517,8.0063666 5.5515,7.4551903 V 6.930064 C 5.5529332,6.6695011 5.7640177,6.4584191 6.0245808,6.4569835 H 7.3904426 V 5.0911216 C 7.3919089,4.8264547 7.177358,4.6112365 6.9126911,4.6127028 H 6.3868978 C 5.834708,4.6112591 5.3874655,4.1640168 5.3860218,3.6118273 V 2.8238042 C 5.3917677,2.2761458 5.8372091,1.8343447 6.3848959,1.8329371 h 0.5251263 c 0.2656922,0.00294 0.4819045,-0.212047 0.4804204,-0.4777513 z"
     id="path877"
     inkscape:connector-curvature="0" />
  <style
     type="text/css"
     id="style815-2">
	.st0{fill:#00005B;}
	.st1{fill:#9999FF;}
</style>
</svg>
