<?xml version="1.0" encoding="UTF-8" standalone="no"?>
<svg
   xmlns:dc="http://purl.org/dc/elements/1.1/"
   xmlns:cc="http://creativecommons.org/ns#"
   xmlns:rdf="http://www.w3.org/1999/02/22-rdf-syntax-ns#"
   xmlns:svg="http://www.w3.org/2000/svg"
   xmlns="http://www.w3.org/2000/svg"
   xmlns:sodipodi="http://sodipodi.sourceforge.net/DTD/sodipodi-0.dtd"
   xmlns:inkscape="http://www.inkscape.org/namespaces/inkscape"
   width="32"
   height="32"
   viewBox="0 0 8.4666666 8.4666666"
   version="1.1"
   id="svg8"
   inkscape:version="1.0.2-2 (e86c870879, 2021-01-15)"
   sodipodi:docname="reset.svg"
   inkscape:export-filename="D:\DEV_SRC\RxOT\DuAEF\src\DuESF\icons\w12\w12_reset.png"
   inkscape:export-xdpi="36"
   inkscape:export-ydpi="36">
  <defs
     id="defs2" />
  <sodipodi:namedview
     id="base"
     pagecolor="#ffffff"
     bordercolor="#666666"
     borderopacity="1.0"
     inkscape:pageopacity="0.0"
     inkscape:pageshadow="2"
     inkscape:zoom="2"
     inkscape:cx="-1.5437696"
     inkscape:cy="81.110236"
     inkscape:document-units="mm"
     inkscape:current-layer="svg8"
     showgrid="false"
     units="px"
     inkscape:window-width="3440"
     inkscape:window-height="1417"
     inkscape:window-x="1915"
     inkscape:window-y="-8"
     inkscape:window-maximized="1"
     inkscape:document-rotation="0">
    <sodipodi:guide
       position="8.4666666,0"
       orientation="-32,0"
       id="guide854"
       inkscape:locked="false" />
    <sodipodi:guide
       position="8.4666666,8.4666666"
       orientation="0,-32"
       id="guide856"
       inkscape:locked="false" />
    <sodipodi:guide
       position="0,8.4666814"
       orientation="32,0"
       id="guide858"
       inkscape:locked="false" />
  </sodipodi:namedview>
  <metadata
     id="metadata5">
    <rdf:RDF>
      <cc:Work
         rdf:about="">
        <dc:format>image/svg+xml</dc:format>
        <dc:type
           rdf:resource="http://purl.org/dc/dcmitype/StillImage" />
        <dc:title />
      </cc:Work>
    </rdf:RDF>
  </metadata>
  <path
     style="fill:#b1b1b1;fill-opacity:1;stroke-width:0.06454174"
     d="M 15.986328 0 C 11.709211 0.0077798899 7.8241056 1.6936656 4.9570312 4.4335938 L 2.6523438 2.1289062 C 1.676472 1.1530352 0.0078125 1.8426372 0.0078125 3.2226562 L 0.0078125 11.875 C 0.0078125 12.730501 0.70113931 13.423828 1.5566406 13.423828 L 10.210938 13.423828 C 11.590968 13.423828 12.280494 11.757121 11.304688 10.78125 L 8.6113281 8.0859375 C 10.603345 6.2207452 13.179527 5.1876842 15.917969 5.1640625 C 21.881499 5.1125855 26.908991 9.9381299 26.857422 16.099609 C 26.848322 17.189319 26.674605 18.245491 26.361328 19.244141 L 27.439453 19.244141 C 28.955143 19.244141 30.304121 20.009767 31.158203 21.15625 C 31.708557 19.53816 32.021471 17.810089 32.021484 16.005859 C 32.021562 7.1759719 24.816224 -0.01581264 15.986328 0 z M 4.5214844 22 C 3.4671301 22 2.6132813 22.855809 2.6132812 23.910156 L 2.6132812 25.820312 C 2.6132812 26.87466 3.4671301 27.728516 4.5214844 27.728516 L 27.435547 27.728516 C 28.489899 27.728516 29.34375 26.87466 29.34375 25.820312 L 29.34375 23.910156 C 29.34375 22.855809 28.489899 22 27.435547 22 L 4.5214844 22 z "
     transform="scale(0.26458333)"
     id="path826" />
</svg>
