<?xml version="1.0" encoding="UTF-8" standalone="no"?>
<!-- Created with Inkscape (http://www.inkscape.org/) -->

<svg
   width="32"
   height="32"
   viewBox="0 0 8.4666666 8.4666666"
   version="1.1"
   id="svg8"
   inkscape:version="1.1 (c68e22c387, 2021-05-23)"
   sodipodi:docname="script.svg"
   inkscape:export-filename="D:\RxLab\Src\RxOT\DuAEF\Duik\inc\icons\w16\w16_script.png"
   inkscape:export-xdpi="48"
   inkscape:export-ydpi="48"
   xmlns:inkscape="http://www.inkscape.org/namespaces/inkscape"
   xmlns:sodipodi="http://sodipodi.sourceforge.net/DTD/sodipodi-0.dtd"
   xmlns="http://www.w3.org/2000/svg"
   xmlns:svg="http://www.w3.org/2000/svg"
   xmlns:rdf="http://www.w3.org/1999/02/22-rdf-syntax-ns#"
   xmlns:cc="http://creativecommons.org/ns#"
   xmlns:dc="http://purl.org/dc/elements/1.1/">
  <defs
     id="defs2">
    <style
       id="style1399">.cls-1{fill:#e3e3e3;}</style>
  </defs>
  <sodipodi:namedview
     id="base"
     pagecolor="#ffffff"
     bordercolor="#666666"
     borderopacity="1.0"
     inkscape:pageopacity="0.0"
     inkscape:pageshadow="2"
     inkscape:zoom="19.693946"
     inkscape:cx="38.285877"
     inkscape:cy="19.11755"
     inkscape:document-units="mm"
     inkscape:current-layer="svg8"
     showgrid="false"
     units="px"
     inkscape:window-width="1843"
     inkscape:window-height="1041"
     inkscape:window-x="61"
     inkscape:window-y="0"
     inkscape:window-maximized="0"
     inkscape:pagecheckerboard="0" />
  <metadata
     id="metadata5">
    <rdf:RDF>
      <cc:Work
         rdf:about="">
        <dc:format>image/svg+xml</dc:format>
        <dc:type
           rdf:resource="http://purl.org/dc/dcmitype/StillImage" />
      </cc:Work>
    </rdf:RDF>
  </metadata>
  <path
     style="fill:#232323;fill-opacity:1;stroke-width:0.0623172"
     d="m 31.968404,7.5996094 c -2.1e-5,-0.3966603 -0.157052,-0.778081 -0.4375,-1.0585938 L 25.427388,0.4375 C 25.146898,0.15707259 24.765445,0 24.368794,0 H 1.5120398 C 0.68602477,0 0.01594597,0.67007917 0.01594597,1.4960938 V 30.562487 c 0,0.826014 0.6700788,1.496094 1.49609383,1.496094 H 30.47231 c 0.826014,0 1.496093,-0.67008 1.496094,-1.496094 z M 7.1838582,10.264664 c 0.1414612,-0.004 0.2837492,0.047 0.3941572,0.150496 l 6.6290056,6.218127 c 0.234614,0.216214 0.234614,0.58882 0,0.805037 L 7.5780154,23.654062 C 7.3525988,23.86105 7.0038801,23.85081 6.7968677,23.625397 L 4.7950274,21.492172 C 4.5788344,21.266754 4.5986345,20.90609 4.8332487,20.699077 l 4.166121,-3.664466 -4.166121,-3.671633 C 4.5986114,13.155965 4.5834109,12.79769 4.7950274,12.572275 l 2.0018403,-2.135614 c 0.1058032,-0.110399 0.2455322,-0.167977 0.3869905,-0.171997 z m 21.1268208,9.679544 c 0.305828,-0.0026 0.551557,0.248379 0.554208,0.554208 l 0.0024,2.92154 c 0.0026,0.305833 -0.248382,0.551557 -0.554208,0.554208 l -12.3837,0.0048 c -0.307113,-0.0018 -0.555976,-0.244708 -0.554208,-0.55182 v -2.923929 c -0.0026,-0.305832 0.245993,-0.549169 0.551819,-0.551819 z"
     transform="scale(0.26458333)"
     id="path1026"
     sodipodi:nodetypes="cccccssssccscccccccccccsccccccccc" />
</svg>
