<?xml version="1.0" encoding="UTF-8" standalone="no"?>
<!-- Created with Inkscape (http://www.inkscape.org/) -->

<svg
   width="32"
   height="32"
   viewBox="0 0 8.4666666 8.4666666"
   version="1.1"
   id="svg8"
   inkscape:version="1.1.1 (3bf5ae0d25, 2021-09-20)"
   sodipodi:docname="selected_items.svg"
   inkscape:export-filename="D:\RxLab\src\RxOT\DuAEF\Duik\inc\icons\w16\w16_items.png"
   inkscape:export-xdpi="48"
   inkscape:export-ydpi="48"
   xmlns:inkscape="http://www.inkscape.org/namespaces/inkscape"
   xmlns:sodipodi="http://sodipodi.sourceforge.net/DTD/sodipodi-0.dtd"
   xmlns="http://www.w3.org/2000/svg"
   xmlns:svg="http://www.w3.org/2000/svg"
   xmlns:rdf="http://www.w3.org/1999/02/22-rdf-syntax-ns#"
   xmlns:cc="http://creativecommons.org/ns#"
   xmlns:dc="http://purl.org/dc/elements/1.1/">
  <defs
     id="defs2" />
  <sodipodi:namedview
     id="base"
     pagecolor="#ffffff"
     bordercolor="#666666"
     borderopacity="1.0"
     inkscape:pageopacity="0.0"
     inkscape:pageshadow="2"
     inkscape:zoom="22.627417"
     inkscape:cx="15.445864"
     inkscape:cy="22.428543"
     inkscape:document-units="mm"
     inkscape:current-layer="layer1"
     showgrid="false"
     units="px"
     inkscape:window-width="3440"
     inkscape:window-height="1369"
     inkscape:window-x="1912"
     inkscape:window-y="-8"
     inkscape:window-maximized="1"
     inkscape:pagecheckerboard="0">
    <sodipodi:guide
       position="8.4666666,0"
       orientation="-32,0"
       id="guide854"
       inkscape:locked="false" />
    <sodipodi:guide
       position="8.4666666,8.4666666"
       orientation="0,-32"
       id="guide856"
       inkscape:locked="false" />
    <sodipodi:guide
       position="0,8.4666814"
       orientation="32,0"
       id="guide858"
       inkscape:locked="false" />
  </sodipodi:namedview>
  <metadata
     id="metadata5">
    <rdf:RDF>
      <cc:Work
         rdf:about="">
        <dc:format>image/svg+xml</dc:format>
        <dc:type
           rdf:resource="http://purl.org/dc/dcmitype/StillImage" />
      </cc:Work>
    </rdf:RDF>
  </metadata>
  <g
     inkscape:label="Layer 1"
     inkscape:groupmode="layer"
     id="layer1"
     transform="translate(0,-288.53334)">
    <path
       style="fill:#b1b1b1;fill-opacity:1;stroke-width:0.0117693"
       d="m 4.2229262,292.31605 c -0.1565315,0 -0.2821533,0.12613 -0.2821533,0.28267 v 4.12844 c 0,0.15653 0.1256218,0.28215 0.2821533,0.28215 h 3.9547974 c 0.1565315,0 0.2821533,-0.12562 0.2821533,-0.28215 v -2.97657 c 0,-0.0741 -0.029203,-0.14605 -0.082166,-0.19895 l -1.1523842,-1.15342 c -0.052962,-0.053 -0.124664,-0.0822 -0.199988,-0.0822 -0.9340905,-2e-5 -1.8683221,0 -2.8024129,0 z"
       id="path858" />
    <path
       id="path856"
       style="fill:#b1b1b1;fill-opacity:1;stroke-width:0.0117693"
       d="m 2.375433,290.43297 c -0.1565316,0 -0.2826701,0.12613 -0.2826701,0.28267 v 4.12843 c 0,0.15654 0.1261385,0.28267 0.2826701,0.28267 h 1.2205972 v -2.52853 c 0,-0.35922 0.3017197,-0.66146 0.6609416,-0.66146 h 2.3548951 v -0.0693 c 0,-0.0741 -0.029205,-0.14599 -0.082166,-0.19895 l -1.1523845,-1.1529 c -0.052963,-0.0529 -0.1246646,-0.0827 -0.1999877,-0.0827 z m 0.280603,0.56327 h 2.4050212 l 0.3772379,0.37724 H 4.2569718 c -0.6751857,0 -1.2242146,0.55008 -1.2242146,1.22473 v 1.96525 H 2.656036 Z" />
    <path
       id="path1495"
       style="fill:#b1b1b1;fill-opacity:1;stroke-width:0.0117693"
       d="m 0.29232605,288.53334 c -0.1565316,0 -0.28267009,0.12613 -0.28267009,0.28267 v 4.12843 c 0,0.15654 0.12613849,0.28267 0.28267009,0.28267 H 1.5129232 v -2.52853 c 0,-0.35922 0.3017198,-0.66146 0.6609416,-0.66146 h 2.3548951 v -0.0692 c 0,-0.0741 -0.029205,-0.146 -0.082165,-0.19896 l -1.1523845,-1.1529 c -0.052963,-0.0529 -0.1246645,-0.0827 -0.1999877,-0.0827 z m 0.28060303,0.56327 H 2.9779503 l 0.3772378,0.37724 H 2.1738648 c -0.6751857,0 -1.22421454,0.55009 -1.22421454,1.22473 v 1.96526 H 0.57292908 Z" />
  </g>
</svg>
