<?xml version="1.0" encoding="UTF-8" standalone="no"?>
<svg
   xmlns:dc="http://purl.org/dc/elements/1.1/"
   xmlns:cc="http://creativecommons.org/ns#"
   xmlns:rdf="http://www.w3.org/1999/02/22-rdf-syntax-ns#"
   xmlns:svg="http://www.w3.org/2000/svg"
   xmlns="http://www.w3.org/2000/svg"
   xmlns:sodipodi="http://sodipodi.sourceforge.net/DTD/sodipodi-0.dtd"
   xmlns:inkscape="http://www.inkscape.org/namespaces/inkscape"
   width="32"
   height="32"
   viewBox="0 0 8.4666666 8.4666666"
   version="1.1"
   id="svg8"
   inkscape:version="1.0.2-2 (e86c870879, 2021-01-15)"
   sodipodi:docname="settings_file.svg"
   inkscape:export-filename="D:\DEV_SRC\RxOT\DuAEF\src\DuESF\icons\w16\w16_settings_file.png"
   inkscape:export-xdpi="48"
   inkscape:export-ydpi="48">
  <defs
     id="defs2" />
  <sodipodi:namedview
     id="base"
     pagecolor="#ffffff"
     bordercolor="#666666"
     borderopacity="1.0"
     inkscape:pageopacity="0.0"
     inkscape:pageshadow="2"
     inkscape:zoom="8"
     inkscape:cx="-4.1322298"
     inkscape:cy="14.120692"
     inkscape:document-units="mm"
     inkscape:current-layer="layer1"
     showgrid="false"
     units="px"
     inkscape:window-width="1858"
     inkscape:window-height="1057"
     inkscape:window-x="-5"
     inkscape:window-y="-1"
     inkscape:window-maximized="1"
     inkscape:document-rotation="0">
    <sodipodi:guide
       position="8.4666666,0"
       orientation="-32,0"
       id="guide854"
       inkscape:locked="false" />
    <sodipodi:guide
       position="8.4666666,8.4666666"
       orientation="0,-32"
       id="guide856"
       inkscape:locked="false" />
    <sodipodi:guide
       position="0,8.4666814"
       orientation="32,0"
       id="guide858"
       inkscape:locked="false" />
  </sodipodi:namedview>
  <metadata
     id="metadata5">
    <rdf:RDF>
      <cc:Work
         rdf:about="">
        <dc:format>image/svg+xml</dc:format>
        <dc:type
           rdf:resource="http://purl.org/dc/dcmitype/StillImage" />
        <dc:title />
      </cc:Work>
    </rdf:RDF>
  </metadata>
  <g
     inkscape:label="Layer 1"
     inkscape:groupmode="layer"
     id="layer1"
     transform="translate(0,-288.53334)">
    <path
       id="path1112"
       style="fill:#b1b1b1;fill-opacity:1;stroke-width:0.0628141"
       d="M 5.3066406,0 C 4.4712142,0 3.7988281,0.67238573 3.7988281,1.5078125 V 30.652344 c 0,0.835427 0.6723861,1.507812 1.5078125,1.507812 H 26.412109 c 0.835426,0 1.507813,-0.672385 1.507813,-1.507812 V 10.050781 h -8.542969 c -0.829145,0 -1.507812,-0.6786595 -1.507812,-1.5078122 V 0 Z M 19.880859,0 v 8.0410156 h 8.039063 V 7.65625 c 0,-0.3957165 -0.15679,-0.7778382 -0.439453,-1.0605469 L 21.332031,0.43945312 C 21.049368,0.15659328 20.665682,0 20.263672,0 Z m -8.445312,9.6328125 c 1.296278,0.011611 2.587056,0.5114425 3.576172,1.5019535 1.411777,1.411729 1.800537,3.457872 1.21289,5.242187 l 7.59961,7.599609 c 0.890018,0.890004 0.890018,2.332616 0,3.222657 -0.890019,0.890003 -2.332638,0.890003 -3.222657,0 l -7.59375,-7.591797 C 11.22279,20.202546 9.1808018,19.809585 7.7597656,18.388672 6.4395177,17.06837 5.990256,15.206044 6.4101562,13.517578 6.4899459,13.19594 6.8926069,13.087822 7.1269531,13.322266 l 2.6484375,2.648437 2.4160154,-0.402344 0.404297,-2.417968 -2.6484374,-2.648438 C 9.7114911,10.266111 9.8247058,9.8637071 10.148438,9.7832031 10.570297,9.6786708 11.003454,9.628942 11.435547,9.6328125 Z"
       transform="matrix(0.26458333,0,0,0.26458333,0,288.53334)" />
  </g>
</svg>
