<?xml version="1.0" encoding="UTF-8" standalone="no"?>
<!-- Created with Inkscape (http://www.inkscape.org/) -->

<svg
   width="32"
   height="32"
   viewBox="0 0 8.4666666 8.4666666"
   version="1.1"
   id="svg8"
   inkscape:version="1.1.1 (3bf5ae0d25, 2021-09-20)"
   sodipodi:docname="snap_fk.svg"
   inkscape:export-filename="D:\RxLab\src\RxOT\DuAEF\Duik\inc\icons\w16\w16_snap_fk.png"
   inkscape:export-xdpi="48"
   inkscape:export-ydpi="48"
   xmlns:inkscape="http://www.inkscape.org/namespaces/inkscape"
   xmlns:sodipodi="http://sodipodi.sourceforge.net/DTD/sodipodi-0.dtd"
   xmlns="http://www.w3.org/2000/svg"
   xmlns:svg="http://www.w3.org/2000/svg"
   xmlns:rdf="http://www.w3.org/1999/02/22-rdf-syntax-ns#"
   xmlns:cc="http://creativecommons.org/ns#"
   xmlns:dc="http://purl.org/dc/elements/1.1/">
  <defs
     id="defs2">
    <style
       id="style1399">.cls-1{fill:#e3e3e3;}</style>
    <style
       id="style1399-4">.cls-1{fill:#e3e3e3;}</style>
    <style
       id="style1399-8">.cls-1{fill:#e3e3e3;}</style>
    <style
       id="style1399-4-5">.cls-1{fill:#e3e3e3;}</style>
    <style
       id="style1399-0">.cls-1{fill:#e3e3e3;}</style>
    <style
       id="style1399-6">.cls-1{fill:#e3e3e3;}</style>
    <style
       id="style1399-4-4">.cls-1{fill:#e3e3e3;}</style>
    <style
       id="style1399-8-8">.cls-1{fill:#e3e3e3;}</style>
    <style
       id="style1399-4-5-0">.cls-1{fill:#e3e3e3;}</style>
    <style
       id="style1399-0-2">.cls-1{fill:#e3e3e3;}</style>
  </defs>
  <sodipodi:namedview
     id="base"
     pagecolor="#ffffff"
     bordercolor="#666666"
     borderopacity="1.0"
     inkscape:pageopacity="0.0"
     inkscape:pageshadow="2"
     inkscape:zoom="15.999999"
     inkscape:cx="7.7812503"
     inkscape:cy="17.718751"
     inkscape:document-units="mm"
     inkscape:current-layer="svg8"
     showgrid="false"
     units="px"
     inkscape:window-width="3440"
     inkscape:window-height="1369"
     inkscape:window-x="1912"
     inkscape:window-y="-8"
     inkscape:window-maximized="1"
     inkscape:snap-bbox="true"
     inkscape:bbox-paths="true"
     inkscape:bbox-nodes="true"
     inkscape:snap-bbox-edge-midpoints="true"
     inkscape:snap-bbox-midpoints="true"
     inkscape:snap-nodes="false"
     inkscape:snap-others="true"
     inkscape:snap-object-midpoints="true"
     inkscape:snap-page="true"
     inkscape:pagecheckerboard="1">
    <sodipodi:guide
       position="8.4666666,0"
       orientation="-32,0"
       id="guide854"
       inkscape:locked="false" />
    <sodipodi:guide
       position="9.9384114,8.4666666"
       orientation="0,-32"
       id="guide856"
       inkscape:locked="false" />
    <sodipodi:guide
       position="0,8.4666814"
       orientation="32,0"
       id="guide858"
       inkscape:locked="false" />
  </sodipodi:namedview>
  <metadata
     id="metadata5">
    <rdf:RDF>
      <cc:Work
         rdf:about="">
        <dc:format>image/svg+xml</dc:format>
        <dc:type
           rdf:resource="http://purl.org/dc/dcmitype/StillImage" />
      </cc:Work>
    </rdf:RDF>
  </metadata>
  <path
     id="path11"
     d="M 3.6968817,2.4413224 4.7314354,1.4067688 a 0.11545316,0.11545316 0 0 1 0.1632756,0 l 0.5442516,0.544251 a 0.34635947,0.34635947 0 0 1 0,0.4898263 L 4.7314354,3.1483726 a 0.34635947,0.34635947 0 0 1 -0.4898258,0 L 3.697358,2.6041218 A 0.11439484,0.11439484 0 0 1 3.6968817,2.4413224 Z M 1.4115018,4.8899773 1.956434,5.4349094 a 0.34635947,0.34635947 0 0 0 0.4898257,0 L 3.153787,4.7273821 a 0.34635947,0.34635947 0 0 0 0,-0.4898263 L 2.6095354,3.6933048 a 0.11545316,0.11545316 0 0 0 -0.1632751,0 L 1.4121824,4.7273821 A 0.11439484,0.11439484 0 0 0 1.4115281,4.8899773 Z M 2.2278789,3.4749241 a 0.11545316,0.11545316 0 0 0 0,-0.1632758 L 1.8741159,2.9578847 C 1.0026331,2.0864026 2.0924968,0.9992605 2.9626185,1.8693823 l 0.3537636,0.3537635 a 0.11545316,0.11545316 0 0 0 0.163275,0 L 4.5130545,1.1897485 A 0.11545316,0.11545316 0 0 0 4.5124002,1.0257922 C 4.3661324,0.88088559 4.2341511,0.75570777 4.1497925,0.66318469 3.1252391,-0.36136818 1.5457533,-0.08808577 0.72543031,0.73223657 -0.094892,1.5525595 -0.35626887,3.1201396 0.66896409,4.1453736 c 0.0911613,0.082999 0.22586557,0.2231421 0.36192761,0.361927 a 0.11545316,0.11545316 0 0 0 0.1639556,6.544e-4 z"
     inkscape:connector-curvature="0"
     style="fill:#b1b1b1;fill-opacity:1;stroke-width:0.00962112" />
  <path
     style="opacity:1;fill:#b1b1b1;fill-opacity:1;stroke:none;stroke-width:1.19614;stroke-linecap:butt;stroke-linejoin:miter;stroke-miterlimit:4;stroke-dasharray:none;stroke-dashoffset:0;stroke-opacity:1"
     d="M 7.7346087,8.3999045 C 7.8374233,8.3624685 7.9363613,8.309007 8.0279987,8.2392381 8.516731,7.8671372 8.6114955,7.1690313 8.2393945,6.6802989 7.8672934,6.1915667 7.1693242,6.0971348 6.6805917,6.4692359 6.5827344,6.5442993 6.4979896,6.6351133 6.4299323,6.7379669 L 3.6807541,6.4027896 C 3.4162391,6.3669513 3.174606,6.5508867 3.1387678,6.8154013 l -0.00132,0.00909 c -0.017926,0.1322615 0.018706,0.2587646 0.093314,0.3567587 0.074609,0.097994 0.1870279,0.1673131 0.3192857,0.1852321 l 2.7494553,0.335845 C 6.33774,7.819581 6.3951775,7.9296394 6.4695269,8.0280386 6.7718594,8.4251335 7.2890763,8.5621241 7.7346066,8.3999047 Z M 5.6835455,7.3832459 c -0.048782,0.02238 -0.1031875,0.029498 -0.1560846,0.020421 L 4.9997236,7.3349622 c -0.032725,-0.00362 -0.064495,-0.01327 -0.0937,-0.028471 C 4.6397552,7.1673944 4.7716617,6.7626043 5.0687614,6.8070887 l 0.5278736,0.069038 c 0.2714259,0.024948 0.3345399,0.3932151 0.086911,0.5071192 z M 7.656973,5.9649149 7.4540601,4.5267763 C 7.5574235,4.4594961 7.6488642,4.3755409 7.7246641,4.2782528 8.1004364,3.7923376 8.0108451,3.0936735 7.5249299,2.717901 7.039015,2.342129 6.3406834,2.4315833 5.9649112,2.917499 5.5891388,3.4034139 5.6782607,4.1018815 6.1641759,4.477654 6.2620091,4.552749 6.3718024,4.6110975 6.4887657,4.6502153 L 6.6931355,6.0947548 C 6.9948821,5.9368517 7.3366585,5.8957422 7.656973,5.9649149 Z M 4.3293937,7.1991178 c -0.048782,0.02238 -0.1031877,0.029498 -0.1560853,0.020421 L 3.6454346,7.1505013 C 3.612888,7.1464619 3.5813684,7.1364453 3.5524606,7.120956 3.2861903,6.9818593 3.4180981,6.5770667 3.7151987,6.621553 l 0.5268148,0.070249 c 0.2720557,0.024231 0.3356524,0.3934639 0.08738,0.5073158 z M 7.1605464,5.7193138 C 7.0169877,5.7574778 6.8435104,5.6783129 6.8228014,5.4918829 L 6.7559616,4.964486 C 6.6936682,4.6000152 7.2512257,4.5275883 7.2838114,4.8959056 l 0.068247,0.527986 c 0.00444,0.032587 0.0029,0.065585 -0.00472,0.097575 -0.025006,0.1097333 -0.1006564,0.1749487 -0.186792,0.1978472 z"
     id="path828-1"
     sodipodi:nodetypes="ssscccccscccsccccccccccsscccccccccccscccccs" />
</svg>
