<?xml version="1.0" encoding="UTF-8" standalone="no"?>
<!-- Created with Inkscape (http://www.inkscape.org/) -->

<svg
   width="32"
   height="32"
   viewBox="0 0 8.4666666 8.4666666"
   version="1.1"
   id="svg8"
   inkscape:version="1.1.1 (3bf5ae0d25, 2021-09-20)"
   sodipodi:docname="sort.svg"
   inkscape:export-filename="D:\RxLab\src\RxOT\DuAEF\DuAEF_Duik\DuAEF\DuESF\inc\scriptui\icons\w12_sort.png"
   inkscape:export-xdpi="36"
   inkscape:export-ydpi="36"
   xmlns:inkscape="http://www.inkscape.org/namespaces/inkscape"
   xmlns:sodipodi="http://sodipodi.sourceforge.net/DTD/sodipodi-0.dtd"
   xmlns="http://www.w3.org/2000/svg"
   xmlns:svg="http://www.w3.org/2000/svg"
   xmlns:rdf="http://www.w3.org/1999/02/22-rdf-syntax-ns#"
   xmlns:cc="http://creativecommons.org/ns#"
   xmlns:dc="http://purl.org/dc/elements/1.1/">
  <defs
     id="defs2" />
  <sodipodi:namedview
     id="base"
     pagecolor="#ffffff"
     bordercolor="#666666"
     borderopacity="1.0"
     inkscape:pageopacity="0.0"
     inkscape:pageshadow="2"
     inkscape:zoom="16"
     inkscape:cx="45.34375"
     inkscape:cy="24.03125"
     inkscape:document-units="mm"
     inkscape:current-layer="svg8"
     showgrid="false"
     units="px"
     inkscape:window-width="3440"
     inkscape:window-height="1369"
     inkscape:window-x="1912"
     inkscape:window-y="-8"
     inkscape:window-maximized="1"
     inkscape:snap-global="true"
     inkscape:snap-bbox="true"
     inkscape:snap-nodes="false"
     inkscape:bbox-paths="true"
     inkscape:bbox-nodes="true"
     inkscape:snap-bbox-edge-midpoints="true"
     inkscape:snap-bbox-midpoints="true"
     inkscape:pagecheckerboard="0">
    <sodipodi:guide
       position="8.4666666,0"
       orientation="-32,0"
       id="guide854"
       inkscape:locked="false" />
    <sodipodi:guide
       position="8.4666666,8.4666666"
       orientation="0,-32"
       id="guide856"
       inkscape:locked="false" />
    <sodipodi:guide
       position="0,8.4666814"
       orientation="32,0"
       id="guide858"
       inkscape:locked="false" />
  </sodipodi:namedview>
  <metadata
     id="metadata5">
    <rdf:RDF>
      <cc:Work
         rdf:about="">
        <dc:format>image/svg+xml</dc:format>
        <dc:type
           rdf:resource="http://purl.org/dc/dcmitype/StillImage" />
      </cc:Work>
    </rdf:RDF>
  </metadata>
  <path
     id="path1212"
     style="fill:#b1b1b1;fill-opacity:1;stroke-width:0.0624998"
     d="M 6.0019531 1.7851562 C 5.7461339 1.7851562 5.4901572 1.8830182 5.2949219 2.078125 L 0.29492188 8.078125 C -0.33508001 8.7074984 0.11312253 9.7851563 1 9.7851562 L 4 9.7851562 L 4 21.785156 L 1 21.785156 C 0.11312253 21.785156 -0.33508001 22.862814 0.29492188 23.492188 L 5.2949219 29.492188 C 5.6853924 29.882401 6.3185138 29.882401 6.7089844 29.492188 L 11.708984 23.492188 C 12.335233 22.864064 11.888748 21.785156 11 21.785156 L 8 21.785156 L 8 9.7851562 L 11 9.7851562 C 11.888748 9.7851562 12.335233 8.7062481 11.708984 8.078125 L 6.7089844 2.078125 C 6.5137491 1.8830178 6.2577723 1.7851563 6.0019531 1.7851562 z M 15 1.7851562 A 0.99999848 0.99999848 0 0 0 14 2.7851562 L 14 4.7851562 A 0.99999848 0.99999848 0 0 0 15 5.7851562 L 23 5.7851562 A 0.99999848 0.99999848 0 0 0 24 4.7851562 L 24 2.7851562 A 0.99999848 0.99999848 0 0 0 23 1.7851562 L 15 1.7851562 z M 15 9.7851562 A 0.99999848 0.99999848 0 0 0 14 10.785156 L 14 12.785156 A 0.99999848 0.99999848 0 0 0 15 13.785156 L 19 13.785156 A 0.99999848 0.99999848 0 0 0 20 12.785156 L 20 10.785156 A 0.99999848 0.99999848 0 0 0 19 9.7851562 L 15 9.7851562 z M 15 17.785156 A 0.99999848 0.99999848 0 0 0 14 18.785156 L 14 20.785156 A 0.99999848 0.99999848 0 0 0 15 21.785156 L 31 21.785156 A 0.99999848 0.99999848 0 0 0 32 20.785156 L 32 18.785156 A 0.99999848 0.99999848 0 0 0 31 17.785156 L 15 17.785156 z M 15 25.785156 A 0.99999848 0.99999848 0 0 0 14 26.785156 L 14 28.785156 A 0.99999848 0.99999848 0 0 0 15 29.785156 L 27 29.785156 A 0.99999848 0.99999848 0 0 0 28 28.785156 L 28 26.785156 A 0.99999848 0.99999848 0 0 0 27 25.785156 L 15 25.785156 z "
     transform="scale(0.26458333)" />
</svg>
