<?xml version="1.0" encoding="UTF-8" standalone="no"?>
<!-- Created with Inkscape (http://www.inkscape.org/) -->

<svg
   width="32"
   height="32"
   viewBox="0 0 8.4666666 8.4666666"
   version="1.1"
   id="svg8"
   inkscape:version="1.1.1 (3bf5ae0d25, 2021-09-20)"
   sodipodi:docname="sort_up.svg"
   inkscape:export-filename="D:\RxLab\src\RxOT\DuAEF\DuAEF_Duik\DuAEF\DuESF\inc\scriptui\icons\w12_sort_up.png"
   inkscape:export-xdpi="36"
   inkscape:export-ydpi="36"
   xmlns:inkscape="http://www.inkscape.org/namespaces/inkscape"
   xmlns:sodipodi="http://sodipodi.sourceforge.net/DTD/sodipodi-0.dtd"
   xmlns="http://www.w3.org/2000/svg"
   xmlns:svg="http://www.w3.org/2000/svg"
   xmlns:rdf="http://www.w3.org/1999/02/22-rdf-syntax-ns#"
   xmlns:cc="http://creativecommons.org/ns#"
   xmlns:dc="http://purl.org/dc/elements/1.1/">
  <defs
     id="defs2" />
  <sodipodi:namedview
     id="base"
     pagecolor="#ffffff"
     bordercolor="#666666"
     borderopacity="1.0"
     inkscape:pageopacity="0.0"
     inkscape:pageshadow="2"
     inkscape:zoom="16"
     inkscape:cx="45.34375"
     inkscape:cy="24.03125"
     inkscape:document-units="mm"
     inkscape:current-layer="svg8"
     showgrid="false"
     units="px"
     inkscape:window-width="3440"
     inkscape:window-height="1369"
     inkscape:window-x="1912"
     inkscape:window-y="-8"
     inkscape:window-maximized="1"
     inkscape:snap-global="true"
     inkscape:snap-bbox="true"
     inkscape:snap-nodes="false"
     inkscape:bbox-paths="true"
     inkscape:bbox-nodes="true"
     inkscape:snap-bbox-edge-midpoints="true"
     inkscape:snap-bbox-midpoints="true"
     inkscape:pagecheckerboard="0">
    <sodipodi:guide
       position="8.4666666,0"
       orientation="-32,0"
       id="guide854"
       inkscape:locked="false" />
    <sodipodi:guide
       position="8.4666666,8.4666666"
       orientation="0,-32"
       id="guide856"
       inkscape:locked="false" />
    <sodipodi:guide
       position="0,8.4666814"
       orientation="32,0"
       id="guide858"
       inkscape:locked="false" />
  </sodipodi:namedview>
  <metadata
     id="metadata5">
    <rdf:RDF>
      <cc:Work
         rdf:about="">
        <dc:format>image/svg+xml</dc:format>
        <dc:type
           rdf:resource="http://purl.org/dc/dcmitype/StillImage" />
      </cc:Work>
    </rdf:RDF>
  </metadata>
  <path
     d="M 5.0270887,1.5307046 H 3.9687567 A 0.26458293,-0.26458293 0 0 1 3.7041737,1.2661219 V 0.73695576 a 0.26458293,-0.26458293 0 0 1 0.264583,-0.2645827 h 1.058332 a 0.26458293,-0.26458293 0 0 1 0.264583,0.2645827 V 1.2661219 a 0.26458293,-0.26458293 0 0 1 -0.264583,0.2645827 z m -2.116664,1.0583318 h -0.793748 v 5.0270757 a 0.26458293,-0.26458293 0 0 1 -0.264584,0.264583 H 1.3229277 A 0.26458293,-0.26458293 0 0 1 1.0583437,7.6161121 V 2.5890364 H 0.26459564 c -0.234653,0 -0.353384,-0.2850881 -0.186696,-0.4516098 L 1.4008137,0.54992916 a 0.26458293,-0.26458293 0 0 1 0.374054,0 l 1.322915,1.58749744 c 0.165695,0.1661909 0.04779,0.4516098 -0.187358,0.4516098 z m 4.233327,3.1749952 H 3.9687567 A 0.26458293,-0.26458293 0 0 1 3.7041737,5.4994487 V 4.9702828 a 0.26458293,-0.26458293 0 0 1 0.264583,-0.2645829 h 3.174995 a 0.26458293,-0.26458293 0 0 1 0.264583,0.2645829 V 5.4994487 A 0.26458293,-0.26458293 0 0 1 7.1437517,5.7640316 Z M 6.0854197,3.6473681 H 3.9687567 A 0.26458293,-0.26458293 0 0 1 3.7041737,3.3827852 V 2.8536193 a 0.26458293,-0.26458293 0 0 1 0.264583,-0.2645829 h 2.116663 a 0.26458293,-0.26458293 0 0 1 0.264583,0.2645829 v 0.5291659 a 0.26458293,-0.26458293 0 0 1 -0.264583,0.2645829 z m 2.116663,4.233327 H 3.9687567 A 0.26458293,-0.26458293 0 0 1 3.7041737,7.6161121 V 7.0869462 a 0.26458293,-0.26458293 0 0 1 0.264583,-0.2645828 h 4.233326 a 0.26458293,-0.26458293 0 0 1 0.264584,0.2645828 v 0.5291659 a 0.26458293,-0.26458293 0 0 1 -0.264584,0.264583 z"
     id="path11"
     style="fill:#b1b1b1;fill-opacity:1;stroke-width:0.0165364" />
</svg>
