<?xml version="1.0" encoding="UTF-8" standalone="no"?>
<!-- Created with Inkscape (http://www.inkscape.org/) -->

<svg
   width="32"
   height="32"
   viewBox="0 0 8.4666666 8.4666666"
   version="1.1"
   id="svg8"
   inkscape:version="1.1.1 (3bf5ae0d25, 2021-09-20)"
   sodipodi:docname="swink.svg"
   xmlns:inkscape="http://www.inkscape.org/namespaces/inkscape"
   xmlns:sodipodi="http://sodipodi.sourceforge.net/DTD/sodipodi-0.dtd"
   xmlns="http://www.w3.org/2000/svg"
   xmlns:svg="http://www.w3.org/2000/svg"
   xmlns:rdf="http://www.w3.org/1999/02/22-rdf-syntax-ns#"
   xmlns:cc="http://creativecommons.org/ns#"
   xmlns:dc="http://purl.org/dc/elements/1.1/">
  <defs
     id="defs2">
    <style
       id="style1399">.cls-1{fill:#e3e3e3;}</style>
    <style
       id="style1399-4">.cls-1{fill:#e3e3e3;}</style>
    <style
       id="style1399-8">.cls-1{fill:#e3e3e3;}</style>
    <style
       id="style1399-4-5">.cls-1{fill:#e3e3e3;}</style>
    <style
       id="style1399-0">.cls-1{fill:#e3e3e3;}</style>
    <style
       id="style854">.cls-1{fill:#e3e3e3;}</style>
    <style
       id="style1399-84">.cls-1{fill:#e3e3e3;}</style>
    <style
       id="style1399-4-8">.cls-1{fill:#e3e3e3;}</style>
    <style
       id="style1399-8-10">.cls-1{fill:#e3e3e3;}</style>
    <style
       id="style1399-4-5-3">.cls-1{fill:#e3e3e3;}</style>
    <style
       id="style1399-0-0">.cls-1{fill:#e3e3e3;}</style>
    <style
       id="style1399-5">.cls-1{fill:#e3e3e3;}</style>
    <style
       id="style1399-4-6">.cls-1{fill:#e3e3e3;}</style>
    <style
       id="style1399-8-1">.cls-1{fill:#e3e3e3;}</style>
    <style
       id="style1399-4-5-1">.cls-1{fill:#e3e3e3;}</style>
    <style
       id="style1399-0-5">.cls-1{fill:#e3e3e3;}</style>
  </defs>
  <sodipodi:namedview
     id="base"
     pagecolor="#ffffff"
     bordercolor="#666666"
     borderopacity="1.0"
     inkscape:pageopacity="0.0"
     inkscape:pageshadow="2"
     inkscape:zoom="5.656854"
     inkscape:cx="35.443729"
     inkscape:cy="-8.3968934"
     inkscape:document-units="mm"
     inkscape:current-layer="svg8"
     showgrid="false"
     units="px"
     inkscape:window-width="3378"
     inkscape:window-height="1417"
     inkscape:window-x="1974"
     inkscape:window-y="-8"
     inkscape:window-maximized="1"
     inkscape:snap-bbox="true"
     inkscape:bbox-paths="true"
     inkscape:bbox-nodes="true"
     inkscape:snap-bbox-edge-midpoints="true"
     inkscape:snap-bbox-midpoints="true"
     inkscape:snap-nodes="true"
     inkscape:snap-others="true"
     inkscape:snap-object-midpoints="true"
     inkscape:snap-page="true"
     inkscape:pagecheckerboard="0">
    <sodipodi:guide
       position="8.4666666,0"
       orientation="-32,0"
       id="guide854"
       inkscape:locked="false" />
    <sodipodi:guide
       position="9.9384114,8.4666666"
       orientation="0,-32"
       id="guide856"
       inkscape:locked="false" />
    <sodipodi:guide
       position="0,8.4666814"
       orientation="32,0"
       id="guide858"
       inkscape:locked="false" />
  </sodipodi:namedview>
  <metadata
     id="metadata5">
    <rdf:RDF>
      <cc:Work
         rdf:about="">
        <dc:format>image/svg+xml</dc:format>
        <dc:type
           rdf:resource="http://purl.org/dc/dcmitype/StillImage" />
      </cc:Work>
    </rdf:RDF>
  </metadata>
  <path
     id="path1095"
     style="color:#000000;font-style:normal;font-variant:normal;font-weight:normal;font-stretch:normal;font-size:medium;line-height:normal;font-family:sans-serif;font-variant-ligatures:normal;font-variant-position:normal;font-variant-caps:normal;font-variant-numeric:normal;font-variant-alternates:normal;font-feature-settings:normal;text-indent:0;text-align:start;text-decoration:none;text-decoration-line:none;text-decoration-style:solid;text-decoration-color:#000000;letter-spacing:normal;word-spacing:normal;text-transform:none;writing-mode:lr-tb;direction:ltr;text-orientation:mixed;dominant-baseline:auto;baseline-shift:baseline;text-anchor:start;white-space:normal;shape-padding:0;clip-rule:nonzero;display:inline;overflow:visible;visibility:visible;opacity:1;isolation:auto;mix-blend-mode:normal;color-interpolation:sRGB;color-interpolation-filters:linearRGB;solid-color:#000000;solid-opacity:1;vector-effect:none;fill:#232323;fill-opacity:1;fill-rule:nonzero;stroke:none;stroke-width:0.576001;stroke-linecap:round;stroke-linejoin:miter;stroke-miterlimit:4;stroke-dasharray:0.576001, 1.152;stroke-dashoffset:4.13568;stroke-opacity:1;color-rendering:auto;image-rendering:auto;shape-rendering:auto;text-rendering:auto;enable-background:accumulate"
     d="M 3.8855993,0 C 4.1077705,0.00245954 4.3286616,0.11952878 4.4431881,0.34984944 L 7.2843582,6.0998861 A -1.1832909,1.1832909 0 0 1 8.466715,7.2832763 -1.1832909,1.1832909 0 0 1 7.2833247,8.4666666 -1.1832909,1.1832909 0 0 1 6.0999344,7.2832763 -1.1832909,1.1832909 0 0 1 6.2136226,6.7778809 L 3.8602779,2.0179646 C 3.8176715,1.9441682 3.7525031,1.827596 3.6814773,1.6893025 A -0.37041666,0.37041666 0 0 1 3.2902868,1.7208252 -0.37041666,0.37041666 0 0 1 3.134224,1.2205973 L 3.3311113,0.84490966 C 3.2735493,0.63508439 3.2566043,0.44951702 3.3202591,0.33744709 3.4398563,0.10971828 3.6634282,-0.00245954 3.8855993,0 Z M 2.8086624,2.3362915 A -0.37041666,0.37041666 0 0 1 2.9466386,2.3771159 -0.37041666,0.37041666 0 0 1 3.1027012,2.876827 L 2.759053,3.5331177 A -0.37041666,0.37041666 0 0 1 2.2593419,3.6912475 -0.37041666,0.37041666 0 0 1 2.1027625,3.1915364 L 2.4464108,2.5352457 a -0.37041666,0.37041666 0 0 1 0.219108,-0.1834513 -0.37041666,0.37041666 0 0 1 0.1431436,-0.015503 z m -1.030428,1.9704224 a -0.37041666,0.37041666 0 0 1 0.1390097,0.040824 -0.37041666,0.37041666 0 0 1 0.1565796,0.5002279 L 1.7296585,5.5040566 A -0.37041666,0.37041666 0 0 1 1.2299476,5.6601195 -0.37041666,0.37041666 0 0 1 1.073368,5.1604084 L 1.417533,4.5041179 A -0.37041666,0.37041666 0 0 1 1.6340571,4.3222169 -0.37041666,0.37041666 0 0 1 1.7782344,4.3067139 Z M 0.74677302,6.2755859 A -0.37041666,0.37041666 0 0 1 0.88629912,6.3164103 -0.37041666,0.37041666 0 0 1 1.042362,6.8166381 L 0.69871382,7.4724121 A -0.37041666,0.37041666 0 0 1 0.19848592,7.6289915 -0.37041666,0.37041666 0 0 1 0.04242302,7.1287636 l 0.3436483,-0.6562904 a -0.37041666,0.37041666 0 0 1 0.2170411,-0.1813843 -0.37041666,0.37041666 0 0 1 0.1436606,-0.015503 z M 1.8278438,7.5364908 c 0.025613,10e-4 0.052327,0.00546 0.079582,0.013953 0.1760884,0.051024 0.3553547,0.094412 0.5358847,0.1302248 C 2.8328474,7.7464321 2.7163717,8.3331597 2.3311723,8.2454913 2.1350991,8.2065946 1.939925,8.1587006 1.7472287,8.1028645 1.7006765,8.0905955 1.6576984,8.0671783 1.6226882,8.0341347 1.4230532,7.8436273 1.580253,7.5267782 1.8278438,7.5364908 Z M 5.6637853,7.599536 A -1.6510126,1.6510126 0 0 0 5.8741084,8.1416217 C 5.6857457,8.1915167 5.4940932,8.2339147 5.2994665,8.2687458 5.2036075,8.2873948 5.1047144,8.2563828 5.0369501,8.1860638 4.8768576,8.0190696 4.969007,7.7406954 5.1971471,7.7023721 5.3527681,7.6745221 5.5084426,7.6394407 5.6637853,7.599536 Z M 3.5409174,7.8170938 c 0.1856803,0.00841 0.3716078,0.010687 0.5539713,0.00413 0.4077732,-0.040261 0.4291944,0.5873967 0.019637,0.5746419 -0.2013677,0.00723 -0.4015983,0.00638 -0.5994466,-0.00258 C 3.4373111,8.3902557 3.3640098,8.3555727 3.3119909,8.2976847 3.139809,8.1069399 3.2843245,7.803308 3.5409174,7.8170938 Z" />
</svg>
