<?xml version="1.0" encoding="UTF-8" standalone="no"?>
<svg
   id="Calque_1"
   data-name="Calque 1"
   viewBox="0 0 32 32"
   version="1.1"
   sodipodi:docname="tail_ctrl.svg"
   inkscape:version="1.1 (c68e22c387, 2021-05-23)"
   inkscape:export-filename="D:\DEV_SRC\RxOT\DuAEF\DuAEF_Duik\icons/w16\w16_tail_ctrl.png"
   inkscape:export-xdpi="48"
   inkscape:export-ydpi="48"
   xmlns:inkscape="http://www.inkscape.org/namespaces/inkscape"
   xmlns:sodipodi="http://sodipodi.sourceforge.net/DTD/sodipodi-0.dtd"
   xmlns="http://www.w3.org/2000/svg"
   xmlns:svg="http://www.w3.org/2000/svg"
   xmlns:rdf="http://www.w3.org/1999/02/22-rdf-syntax-ns#"
   xmlns:cc="http://creativecommons.org/ns#"
   xmlns:dc="http://purl.org/dc/elements/1.1/">
  <metadata
     id="metadata31">
    <rdf:RDF>
      <cc:Work
         rdf:about="">
        <dc:format>image/svg+xml</dc:format>
        <dc:type
           rdf:resource="http://purl.org/dc/dcmitype/StillImage" />
        <dc:title>body_l</dc:title>
      </cc:Work>
    </rdf:RDF>
  </metadata>
  <sodipodi:namedview
     pagecolor="#ffffff"
     bordercolor="#666666"
     borderopacity="1"
     objecttolerance="10"
     gridtolerance="10"
     guidetolerance="10"
     inkscape:pageopacity="0"
     inkscape:pageshadow="2"
     inkscape:window-width="1920"
     inkscape:window-height="1027"
     id="namedview29"
     showgrid="false"
     inkscape:snap-bbox="true"
     inkscape:bbox-paths="true"
     inkscape:bbox-nodes="true"
     inkscape:snap-bbox-edge-midpoints="true"
     inkscape:snap-bbox-midpoints="true"
     inkscape:snap-nodes="false"
     inkscape:zoom="7.375"
     inkscape:cx="-1.9661017"
     inkscape:cy="23.525424"
     inkscape:window-x="-8"
     inkscape:window-y="-8"
     inkscape:window-maximized="1"
     inkscape:current-layer="Calque_1"
     inkscape:pagecheckerboard="1" />
  <defs
     id="defs4">
    <style
       id="style2">.cls-1{fill:#e3e3e3;}</style>
    <style
       id="style1399">.cls-1{fill:#e3e3e3;}</style>
    <style
       id="style1399-4">.cls-1{fill:#e3e3e3;}</style>
    <style
       id="style1399-8">.cls-1{fill:#e3e3e3;}</style>
    <style
       id="style1399-4-5">.cls-1{fill:#e3e3e3;}</style>
    <style
       id="style1399-0">.cls-1{fill:#e3e3e3;}</style>
    <style
       id="style854">.cls-1{fill:#e3e3e3;}</style>
    <style
       id="style1399-84">.cls-1{fill:#e3e3e3;}</style>
    <style
       id="style1399-4-8">.cls-1{fill:#e3e3e3;}</style>
    <style
       id="style1399-8-10">.cls-1{fill:#e3e3e3;}</style>
    <style
       id="style1399-4-5-3">.cls-1{fill:#e3e3e3;}</style>
    <style
       id="style1399-0-0">.cls-1{fill:#e3e3e3;}</style>
    <style
       id="style1399-5">.cls-1{fill:#e3e3e3;}</style>
    <style
       id="style1399-4-6">.cls-1{fill:#e3e3e3;}</style>
    <style
       id="style1399-8-1">.cls-1{fill:#e3e3e3;}</style>
    <style
       id="style1399-4-5-1">.cls-1{fill:#e3e3e3;}</style>
    <style
       id="style1399-0-5">.cls-1{fill:#e3e3e3;}</style>
    <style
       id="style1257">.cls-1{fill:#e3e3e3;}</style>
    <style
       id="style836">.cls-1{fill:#e3e3e3;}</style>
    <style
       id="style891">.cls-1{fill:#e3e3e3;}</style>
    <inkscape:path-effect
       oposite_fuse="false"
       fuse_paths="false"
       discard_orig_path="false"
       mode="free"
       is_visible="true"
       id="path-effect860"
       center_point="4.2644223,4.1242769"
       end_point="4.2644223,6.6226791"
       start_point="4.2644223,1.6258747"
       effect="mirror_symmetry" />
    <style
       id="style1399-9">.cls-1{fill:#e3e3e3;}</style>
    <style
       id="style1399-4-63">.cls-1{fill:#e3e3e3;}</style>
    <style
       id="style1399-8-8">.cls-1{fill:#e3e3e3;}</style>
    <style
       id="style1399-4-5-5">.cls-1{fill:#e3e3e3;}</style>
    <style
       id="style1399-0-6">.cls-1{fill:#e3e3e3;}</style>
    <style
       id="style854-1">.cls-1{fill:#e3e3e3;}</style>
    <style
       id="style1399-84-1">.cls-1{fill:#e3e3e3;}</style>
    <style
       id="style1399-4-8-5">.cls-1{fill:#e3e3e3;}</style>
    <style
       id="style1399-8-10-9">.cls-1{fill:#e3e3e3;}</style>
    <style
       id="style1399-4-5-3-8">.cls-1{fill:#e3e3e3;}</style>
    <style
       id="style1399-0-0-4">.cls-1{fill:#e3e3e3;}</style>
    <style
       id="style1399-5-8">.cls-1{fill:#e3e3e3;}</style>
    <style
       id="style1399-4-6-1">.cls-1{fill:#e3e3e3;}</style>
    <style
       id="style1399-8-1-0">.cls-1{fill:#e3e3e3;}</style>
    <style
       id="style1399-4-5-1-3">.cls-1{fill:#e3e3e3;}</style>
    <style
       id="style1399-0-5-0">.cls-1{fill:#e3e3e3;}</style>
    <style
       id="style1257-4">.cls-1{fill:#e3e3e3;}</style>
    <style
       id="style836-4">.cls-1{fill:#e3e3e3;}</style>
    <style
       id="style891-4">.cls-1{fill:#e3e3e3;}</style>
  </defs>
  <title
     id="title6">body_l</title>
  <path
     style="fill:#b1b1b3;fill-opacity:1;stroke-width:1.23680532"
     d="m 29.962891,0.03304717 c 0,0 -9.745495,0.54829062 -13.347401,3.39459203 C 13.13168,6.18062 10.457281,8.8021829 10.436576,15.228638 v 3.13086 c -0.0027,1.469594 -0.130987,2.645575 -0.6710417,3.641654 -0.5403233,0.996575 -1.5120393,1.88488 -3.4032832,2.732241 -0.5058773,0.226656 -1.1482591,0.486258 -1.7407025,0.859335 -0.5924432,0.373075 -1.1677408,0.885202 -1.406183,1.644552 -0.219049,0.697592 -0.1856891,1.472265 0.034053,2.1894 0.2197421,0.717135 0.6341886,1.396079 1.3040245,1.794786 1.6581237,0.986966 3.6962915,0.711346 5.5385989,0.504784 1.913985,-0.214598 3.866487,-0.757538 5.495071,-1.785693 2.708639,-1.710014 5.435784,-3.994219 6.611565,-6.973887 1.321273,-3.348377 -0.824501,-7.277667 -0.0761,-10.798647 0.477981,-2.2487539 1.61682,-4.3402393 2.849554,-6.280789 1.374975,-2.1644655 4.990763,-5.85418683 4.990763,-5.85418683 z M 26.724774,1.6359056 c 0,0 -1.733702,2.0498356 -2.595114,3.0793206 -1.272616,1.520919 -3.114147,2.9358337 -3.801728,4.5761949 -0.487695,1.2620379 -0.0021,4.0582999 -0.0021,4.0582999 0,0 -1.304626,-1.734043 -1.524367,-2.762289 C 18.632848,9.7981734 18.685309,8.9172567 19.003829,8.1756884 19.451636,7.1331158 21.269346,5.633742 21.269346,5.633742 19.954484,6.0221396 19.05643,6.4235228 18.174541,7.1621148 17.578181,7.6615739 17.080054,8.3190885 16.790393,9.0410319 16.375508,10.075081 16.36373,12.356178 16.36373,12.356178 c 0.139304,-1.020386 -1.005038,-1.998446 -0.979521,-3.0727699 0.02094,-0.8815242 0.364003,-1.7966251 0.92143,-2.4798499 1.043427,-1.278899 4.202526,-2.6200676 4.202526,-2.6200675 0,0 -1.761154,0.2868036 -3.353207,0.785219 1.287683,-0.8700516 2.756842,-1.5176789 4.232166,-2.0452627 1.723368,-0.616286 5.33765,-1.2875414 5.33765,-1.2875414 z"
     id="path8"
     inkscape:connector-curvature="0"
     sodipodi:nodetypes="caccsscsssaaaaaccacccscssccsccac" />
</svg>
