<?xml version="1.0" encoding="UTF-8" standalone="no"?>
<!-- Created with Inkscape (http://www.inkscape.org/) -->

<svg
   width="32"
   height="32"
   viewBox="0 0 8.4666666 8.4666666"
   version="1.1"
   id="svg8"
   inkscape:version="1.1.1 (3bf5ae0d25, 2021-09-20)"
   sodipodi:docname="vr.svg"
   inkscape:export-filename="D:\RxLab\src\RxOT\DuAEF\DuAEF_Duik\inc\icons\w16\w16_vr.png"
   inkscape:export-xdpi="48"
   inkscape:export-ydpi="48"
   xmlns:inkscape="http://www.inkscape.org/namespaces/inkscape"
   xmlns:sodipodi="http://sodipodi.sourceforge.net/DTD/sodipodi-0.dtd"
   xmlns="http://www.w3.org/2000/svg"
   xmlns:svg="http://www.w3.org/2000/svg"
   xmlns:rdf="http://www.w3.org/1999/02/22-rdf-syntax-ns#"
   xmlns:cc="http://creativecommons.org/ns#"
   xmlns:dc="http://purl.org/dc/elements/1.1/">
  <defs
     id="defs2">
    <style
       id="style1399">.cls-1{fill:#e3e3e3;}</style>
  </defs>
  <sodipodi:namedview
     id="base"
     pagecolor="#ffffff"
     bordercolor="#666666"
     borderopacity="1.0"
     inkscape:pageopacity="0.0"
     inkscape:pageshadow="2"
     inkscape:zoom="8.0000004"
     inkscape:cx="-1.8124999"
     inkscape:cy="10.687499"
     inkscape:document-units="mm"
     inkscape:current-layer="svg8"
     showgrid="false"
     units="px"
     inkscape:window-width="3440"
     inkscape:window-height="1369"
     inkscape:window-x="1912"
     inkscape:window-y="-8"
     inkscape:window-maximized="1"
     inkscape:snap-bbox="true"
     inkscape:bbox-nodes="true"
     inkscape:bbox-paths="true"
     inkscape:snap-bbox-edge-midpoints="true"
     inkscape:snap-bbox-midpoints="true"
     inkscape:snap-nodes="false"
     inkscape:pagecheckerboard="0" />
  <metadata
     id="metadata5">
    <rdf:RDF>
      <cc:Work
         rdf:about="">
        <dc:format>image/svg+xml</dc:format>
        <dc:type
           rdf:resource="http://purl.org/dc/dcmitype/StillImage" />
      </cc:Work>
    </rdf:RDF>
  </metadata>
  <path
     d="M 8.0433336,1.6933335 H 0.42333305 C 0.18957373,1.6933335 0,1.8829072 0,2.1166665 v 4.2333337 c 0,0.2337593 0.18957373,0.423333 0.42333305,0.423333 H 2.5429103 c 0.3332428,0 0.635397,-0.1953945 0.7720542,-0.4992683 L 3.6819418,5.4586192 C 3.78632,5.2265796 3.9998387,5.0800004 4.2333337,5.0800004 c 0.2334943,0 0.447013,0.1465792 0.5513912,0.3786188 l 0.3669772,0.8154457 c 0.1366573,0.3038738 0.438944,0.4992683 0.7720543,0.4992683 h 2.1195772 c 0.2337593,0 0.4233331,-0.1895737 0.4233331,-0.423333 V 2.1166665 c 0,-0.2337593 -0.1895738,-0.423333 -0.4233331,-0.423333 z M 2.1166665,4.8683333 c -0.4676511,0 -0.8466667,-0.3790157 -0.8466667,-0.8466661 0,-0.4676511 0.3790156,-0.8466668 0.8466667,-0.8466668 0.4676511,0 0.8466667,0.3790157 0.8466667,0.8466668 0,0.4676504 -0.3790156,0.8466661 -0.8466667,0.8466661 z m 4.2333337,0 c -0.4676512,0 -0.8466668,-0.3790157 -0.8466668,-0.8466661 0,-0.4676511 0.3790156,-0.8466668 0.8466668,-0.8466668 0.4676511,0 0.8466667,0.3790157 0.8466667,0.8466668 0,0.4676504 -0.3790156,0.8466661 -0.8466667,0.8466661 z"
     id="path826"
     style="stroke-width:0.0132291;fill:#b1b1b1;fill-opacity:1" />
</svg>
