<?xml version="1.0" encoding="UTF-8" standalone="no"?>
<!-- Created with Inkscape (http://www.inkscape.org/) -->

<svg
   width="32"
   height="32"
   viewBox="0 0 8.4666666 8.4666666"
   version="1.1"
   id="svg8"
   inkscape:version="1.1.1 (3bf5ae0d25, 2021-09-20)"
   sodipodi:docname="danger.svg"
   inkscape:export-filename="D:\RxLab\src\RxOT\DuAEF\DuSan\inc\api\icons\w12_warning.png"
   inkscape:export-xdpi="36"
   inkscape:export-ydpi="36"
   xmlns:inkscape="http://www.inkscape.org/namespaces/inkscape"
   xmlns:sodipodi="http://sodipodi.sourceforge.net/DTD/sodipodi-0.dtd"
   xmlns="http://www.w3.org/2000/svg"
   xmlns:svg="http://www.w3.org/2000/svg"
   xmlns:rdf="http://www.w3.org/1999/02/22-rdf-syntax-ns#"
   xmlns:cc="http://creativecommons.org/ns#"
   xmlns:dc="http://purl.org/dc/elements/1.1/">
  <defs
     id="defs2" />
  <sodipodi:namedview
     id="base"
     pagecolor="#ffffff"
     bordercolor="#666666"
     borderopacity="1.0"
     inkscape:pageopacity="0.0"
     inkscape:pageshadow="2"
     inkscape:zoom="16"
     inkscape:cx="16.90625"
     inkscape:cy="15.21875"
     inkscape:document-units="mm"
     inkscape:current-layer="layer1"
     showgrid="false"
     units="px"
     inkscape:window-width="3440"
     inkscape:window-height="1369"
     inkscape:window-x="1912"
     inkscape:window-y="-8"
     inkscape:window-maximized="1"
     inkscape:snap-bbox="true"
     inkscape:bbox-paths="true"
     inkscape:bbox-nodes="true"
     inkscape:snap-bbox-edge-midpoints="true"
     inkscape:snap-bbox-midpoints="true"
     inkscape:snap-nodes="false"
     inkscape:pagecheckerboard="0">
    <sodipodi:guide
       position="8.4666666,0"
       orientation="-32,0"
       id="guide854"
       inkscape:locked="false" />
    <sodipodi:guide
       position="8.4666666,8.4666666"
       orientation="0,-32"
       id="guide856"
       inkscape:locked="false" />
    <sodipodi:guide
       position="0,8.4666814"
       orientation="32,0"
       id="guide858"
       inkscape:locked="false" />
  </sodipodi:namedview>
  <metadata
     id="metadata5">
    <rdf:RDF>
      <cc:Work
         rdf:about="">
        <dc:format>image/svg+xml</dc:format>
        <dc:type
           rdf:resource="http://purl.org/dc/dcmitype/StillImage" />
      </cc:Work>
    </rdf:RDF>
  </metadata>
  <g
     inkscape:label="Layer 1"
     inkscape:groupmode="layer"
     id="layer1"
     transform="translate(0,-288.53334)">
    <path
       id="path857"
       style="fill:#ec8e0b;fill-opacity:1;stroke:none;stroke-width:2.43932;stroke-linecap:round"
       d="M 8,2.1425781 0.00195313,15.998047 8,29.853516 H 24 L 31.998047,15.998047 24,2.1425781 Z m 6.775391,4.7910157 h 2.425781 v 0.00195 c 0.443287,0.00272 0.799359,0.3446901 0.810547,0.7851562 h 0.002 v 0.019531 0.00391 10.9179684 0.0078 c 0,0.452561 -0.365283,0.808594 -0.806641,0.808594 -0.0019,0 -0.0039,-0.002 -0.0059,-0.002 v 0.002 h -2.351563 c -0.452932,0 -0.818359,-0.355996 -0.818359,-0.808594 v -0.0078 -10.8886715 c -3.86e-4,-0.011339 -0.0039,-0.017958 -0.0039,-0.029297 0,-0.4309417 0.33524,-0.7710997 0.748047,-0.8027344 z m 1.259765,14.3281252 c 1.081405,0 1.978516,0.896681 1.978516,2.005859 3.86e-4,1.108422 -0.897111,1.980469 -1.978516,1.980469 -1.108796,0 -2.005859,-0.872047 -2.005859,-1.980469 0,-1.1088 0.896677,-2.005859 2.005859,-2.005859 z"
       transform="matrix(0.26458333,0,0,0.26458333,0,288.53334)" />
  </g>
</svg>
