<?xml version="1.0" encoding="UTF-8" standalone="no"?>
<!-- Created with Inkscape (http://www.inkscape.org/) -->

<svg
   width="32"
   height="32"
   viewBox="0 0 8.4666666 8.4666666"
   version="1.1"
   id="svg8"
   inkscape:version="1.1.1 (3bf5ae0d25, 2021-09-20)"
   sodipodi:docname="information_bl.svg"
   inkscape:export-filename="D:\RxLab\src\RxOT\DuAEF\DuSan\inc\icons\w12_information.png"
   inkscape:export-xdpi="36"
   inkscape:export-ydpi="36"
   xmlns:inkscape="http://www.inkscape.org/namespaces/inkscape"
   xmlns:sodipodi="http://sodipodi.sourceforge.net/DTD/sodipodi-0.dtd"
   xmlns="http://www.w3.org/2000/svg"
   xmlns:svg="http://www.w3.org/2000/svg"
   xmlns:rdf="http://www.w3.org/1999/02/22-rdf-syntax-ns#"
   xmlns:cc="http://creativecommons.org/ns#"
   xmlns:dc="http://purl.org/dc/elements/1.1/">
  <defs
     id="defs2" />
  <sodipodi:namedview
     id="base"
     pagecolor="#ffffff"
     bordercolor="#666666"
     borderopacity="1.0"
     inkscape:pageopacity="0.0"
     inkscape:pageshadow="2"
     inkscape:zoom="16"
     inkscape:cx="27.84375"
     inkscape:cy="15.09375"
     inkscape:document-units="mm"
     inkscape:current-layer="layer1"
     showgrid="false"
     units="px"
     inkscape:window-width="3440"
     inkscape:window-height="1369"
     inkscape:window-x="1912"
     inkscape:window-y="-8"
     inkscape:window-maximized="1"
     inkscape:pagecheckerboard="0">
    <sodipodi:guide
       position="8.4666666,0"
       orientation="-32,0"
       id="guide854"
       inkscape:locked="false" />
    <sodipodi:guide
       position="8.4666666,8.4666666"
       orientation="0,-32"
       id="guide856"
       inkscape:locked="false" />
    <sodipodi:guide
       position="0,8.4666814"
       orientation="32,0"
       id="guide858"
       inkscape:locked="false" />
  </sodipodi:namedview>
  <metadata
     id="metadata5">
    <rdf:RDF>
      <cc:Work
         rdf:about="">
        <dc:format>image/svg+xml</dc:format>
        <dc:type
           rdf:resource="http://purl.org/dc/dcmitype/StillImage" />
      </cc:Work>
    </rdf:RDF>
  </metadata>
  <g
     inkscape:label="Layer 1"
     inkscape:groupmode="layer"
     id="layer1"
     transform="translate(0,-288.53334)">
    <path
       id="path1012"
       style="fill:#83d3f6;fill-opacity:1;stroke-width:0.064221"
       d="M 16.072266,0.0625 C 7.2767505,0.0625 0.14648438,7.1953994 0.14648438,15.988281 0.14648437,24.786417 7.2767505,31.916016 16.072266,31.916016 24.86778,31.916016 32,24.786417 32,15.988281 32,7.1953994 24.86778,0.0625 16.072266,0.0625 Z M 16,4.015625 c 1.64081,0 2.818359,1.1052838 2.818359,2.7460938 0,1.6408099 -1.177549,2.78125 -2.818359,2.78125 -1.64081,0 -2.818359,-1.1404401 -2.818359,-2.78125 0,-1.64081 1.177549,-2.7460938 2.818359,-2.7460938 z m 0,7.455078 c 1.60514,0 2.390625,0.641669 2.390625,1.925781 v 12.66211 c 0,1.284112 -0.785485,1.925781 -2.390625,1.925781 -1.60514,0 -2.390625,-0.641669 -2.390625,-1.925781 v -12.66211 c 0,-1.284112 0.785485,-1.925781 2.390625,-1.925781 z"
       transform="matrix(0.26458333,0,0,0.26458333,0,288.53334)" />
  </g>
</svg>
