<?xml version="1.0" encoding="UTF-8" standalone="no"?>
<svg
   width="32"
   height="32"
   viewBox="0 0 8.4666666 8.4666666"
   version="1.1"
   id="svg8"
   inkscape:version="1.1 (c68e22c387, 2021-05-23)"
   sodipodi:docname="adjustment.svg"
   inkscape:export-filename="D:\DEV_SRC\RxOT\DuAEF\DuAEF_Duik\icons\w16\w16_adjustment.png"
   inkscape:export-xdpi="48.000004"
   inkscape:export-ydpi="48.000004"
   xmlns:inkscape="http://www.inkscape.org/namespaces/inkscape"
   xmlns:sodipodi="http://sodipodi.sourceforge.net/DTD/sodipodi-0.dtd"
   xmlns="http://www.w3.org/2000/svg"
   xmlns:svg="http://www.w3.org/2000/svg"
   xmlns:rdf="http://www.w3.org/1999/02/22-rdf-syntax-ns#"
   xmlns:cc="http://creativecommons.org/ns#"
   xmlns:dc="http://purl.org/dc/elements/1.1/">
  <defs
     id="defs2">
    <marker
       style="overflow:visible"
       id="Arrow1Lstart"
       refX="0.0"
       refY="0.0"
       orient="auto"
       inkscape:stockid="Arrow1Lstart"
       inkscape:isstock="true">
      <path
         transform="scale(0.8) translate(12.5,0)"
         style="fill-rule:evenodd;stroke:#000000;stroke-width:1.0pt"
         d="M 0.0,0.0 L 5.0,-5.0 L -12.5,0.0 L 5.0,5.0 L 0.0,0.0 z "
         id="path850" />
    </marker>
  </defs>
  <sodipodi:namedview
     id="base"
     pagecolor="#ffffff"
     bordercolor="#666666"
     borderopacity="1.0"
     inkscape:pageopacity="0.0"
     inkscape:pageshadow="2"
     inkscape:zoom="8"
     inkscape:cx="-15.1875"
     inkscape:cy="10.3125"
     inkscape:document-units="mm"
     inkscape:current-layer="layer1"
     showgrid="false"
     units="px"
     inkscape:window-width="1920"
     inkscape:window-height="1027"
     inkscape:window-x="-8"
     inkscape:window-y="-8"
     inkscape:window-maximized="1"
     inkscape:document-rotation="0"
     inkscape:pagecheckerboard="1"
     inkscape:snap-bbox="true"
     inkscape:bbox-paths="true"
     inkscape:bbox-nodes="true"
     inkscape:snap-bbox-edge-midpoints="true"
     inkscape:snap-bbox-midpoints="true"
     inkscape:snap-nodes="false">
    <sodipodi:guide
       position="8.4666666,0"
       orientation="-32,0"
       id="guide854"
       inkscape:locked="false" />
    <sodipodi:guide
       position="8.4666666,8.4666666"
       orientation="0,-32"
       id="guide856"
       inkscape:locked="false" />
    <sodipodi:guide
       position="0,8.4666814"
       orientation="32,0"
       id="guide858"
       inkscape:locked="false" />
  </sodipodi:namedview>
  <metadata
     id="metadata5">
    <rdf:RDF>
      <cc:Work
         rdf:about="">
        <dc:format>image/svg+xml</dc:format>
        <dc:type
           rdf:resource="http://purl.org/dc/dcmitype/StillImage" />
      </cc:Work>
    </rdf:RDF>
  </metadata>
  <g
     inkscape:label="Layer 1"
     inkscape:groupmode="layer"
     id="layer1"
     transform="translate(0,-288.53334)">
    <path
       id="circle1513"
       style="color:#000000;fill:#b1b1b1;stroke-width:3.80062;stroke-linecap:round;-inkscape-stroke:none"
       d="M 16.083984,0 C 7.3157654,0 0.17773437,7.1477763 0.17773438,15.916016 c 0,8.768163 7.13803102,15.906287 15.90624962,15.90625 0.03392,0 0.06769,2.13e-4 0.101563,0 a 15.799463,15.799463 0 0 0 0.01563,0 15.799463,15.799463 0 0 0 0.01953,-0.002 c 0.620672,-0.0053 1.233838,-0.0443 1.835938,-0.11914 a 15.799463,15.799463 0 0 0 0.447265,-0.0625 c 0.0085,-0.0013 0.0169,-0.0026 0.02539,-0.0039 0.4414,-0.06841 0.875899,-0.155709 1.304687,-0.259766 A 15.799463,15.799463 0 0 0 20.9375,31.064453 c 0.190106,-0.06106 0.37946,-0.125406 0.566406,-0.193359 0.0149,-0.0054 0.03004,-0.01016 0.04492,-0.01563 a 15.799463,15.799463 0 0 0 9.482422,-9.478516 c 0.0033,-0.0091 0.0065,-0.01827 0.0098,-0.02734 0.0857,-0.234627 0.167398,-0.471341 0.242187,-0.710937 0.0018,-0.0059 0.004,-0.01168 0.0059,-0.01758 a 15.799463,15.799463 0 0 0 0.253907,-0.921875 c 0.110032,-0.448353 0.202494,-0.903021 0.273437,-1.365235 5.01e-4,-0.0033 0.0015,-0.0065 0.002,-0.0098 a 15.799463,15.799463 0 0 0 0.06055,-0.460938 c 0.07306,-0.594314 0.113916,-1.198107 0.119141,-1.810547 a 15.799463,15.799463 0 0 0 0.002,-0.0293 15.799463,15.799463 0 0 0 -0.002,-0.01953 C 31.998208,15.974442 32,15.945517 32,15.916016 32,7.1477763 24.852203,0 16.083984,0 Z m 0,3.1777344 c 3.59982,0 6.842767,1.483716 9.15625,3.8730468 L 7.2226562,25.068359 C 4.8352224,22.756776 3.3535156,19.51582 3.3535156,15.916016 c 0,-7.051087 5.6794011,-12.7382816 12.7304684,-12.7382816 z"
       transform="matrix(0.26458333,0,0,0.26458333,0,288.53334)" />
  </g>
</svg>
