<?xml version="1.0" encoding="UTF-8" standalone="no"?>
<!-- Created with Inkscape (http://www.inkscape.org/) -->

<svg
   width="32"
   height="32"
   viewBox="0 0 8.4666666 8.4666666"
   version="1.1"
   id="svg8"
   inkscape:version="1.1.1 (3bf5ae0d25, 2021-09-20)"
   sodipodi:docname="case.svg"
   inkscape:export-filename="D:\RxLab\src\RxOT\DuAEF\Duik\inc\icons\w16\w16_case.png"
   inkscape:export-xdpi="48"
   inkscape:export-ydpi="48"
   xmlns:inkscape="http://www.inkscape.org/namespaces/inkscape"
   xmlns:sodipodi="http://sodipodi.sourceforge.net/DTD/sodipodi-0.dtd"
   xmlns="http://www.w3.org/2000/svg"
   xmlns:svg="http://www.w3.org/2000/svg"
   xmlns:rdf="http://www.w3.org/1999/02/22-rdf-syntax-ns#"
   xmlns:cc="http://creativecommons.org/ns#"
   xmlns:dc="http://purl.org/dc/elements/1.1/">
  <defs
     id="defs2" />
  <sodipodi:namedview
     id="base"
     pagecolor="#ffffff"
     bordercolor="#666666"
     borderopacity="1.0"
     inkscape:pageopacity="0.0"
     inkscape:pageshadow="2"
     inkscape:zoom="15.999999"
     inkscape:cx="8.3437505"
     inkscape:cy="17.781251"
     inkscape:document-units="mm"
     inkscape:current-layer="svg8"
     showgrid="false"
     units="px"
     inkscape:window-width="3440"
     inkscape:window-height="1369"
     inkscape:window-x="1912"
     inkscape:window-y="-8"
     inkscape:window-maximized="1"
     inkscape:pagecheckerboard="1"
     inkscape:snap-nodes="false"
     inkscape:snap-others="false"
     inkscape:snap-bbox="true"
     inkscape:bbox-paths="true"
     inkscape:bbox-nodes="true"
     inkscape:snap-bbox-edge-midpoints="true"
     inkscape:snap-bbox-midpoints="true">
    <sodipodi:guide
       position="8.4666666,0"
       orientation="-32,0"
       id="guide854"
       inkscape:locked="false" />
    <sodipodi:guide
       position="8.4666666,8.4666666"
       orientation="0,-32"
       id="guide856"
       inkscape:locked="false" />
    <sodipodi:guide
       position="0,8.4666814"
       orientation="32,0"
       id="guide858"
       inkscape:locked="false" />
  </sodipodi:namedview>
  <metadata
     id="metadata5">
    <rdf:RDF>
      <cc:Work
         rdf:about="">
        <dc:format>image/svg+xml</dc:format>
        <dc:type
           rdf:resource="http://purl.org/dc/dcmitype/StillImage" />
      </cc:Work>
    </rdf:RDF>
  </metadata>
  <path
     d="M 4.8718592,5.9675674 H 4.6078538 L 3.1337782,1.8816339 A 0.36087844,0.36087844 0 0 0 2.7920714,1.637026 H 2.2602268 A 0.36087844,0.36087844 0 0 0 1.9185201,1.8816339 L 0.44444436,5.9675674 H 0.18043921 A 0.18043922,0.18043922 0 0 0 0,6.1480065 V 6.5088852 A 0.18043922,0.18043922 0 0 0 0.18043921,6.6893243 H 1.623953 A 0.18043922,0.18043922 0 0 0 1.8043922,6.5088852 V 6.1480065 A 0.18043922,0.18043922 0 0 0 1.623953,5.9675674 H 1.4031405 l 0.2627647,-0.721757 h 1.7204879 l 0.2627647,0.721757 H 3.4283452 A 0.18043922,0.18043922 0 0 0 3.2479061,6.1480065 v 0.3608787 a 0.18043922,0.18043922 0 0 0 0.1804391,0.1804391 h 1.443514 A 0.18043922,0.18043922 0 0 0 5.0522983,6.5088852 V 6.1480065 A 0.18043922,0.18043922 0 0 0 4.8718592,5.9675674 Z M 1.9944172,4.3436144 2.526149,2.8832972 3.057881,4.3436144 Z"
     id="path825"
     style="fill:#b1b1b1;fill-opacity:1;stroke-width:0.0112774"
     inkscape:export-filename="D:\DEV_SRC\RxOT\DuAEF\DuAEF_Duik\icons\w16\w16_text.png"
     inkscape:export-xdpi="48"
     inkscape:export-ydpi="48" />
  <g
     aria-label="a"
     id="text1047"
     style="font-weight:bold;font-size:6.43296px;font-family:'Courier New';-inkscape-font-specification:'Courier New, Bold';fill:#b1b1b1;stroke-width:0.160824">
    <path
       d="M 7.2824748,6.5825272 V 6.4317547 q -0.2418643,0.1287848 -0.533986,0.1916067 -0.2921217,0.065963 -0.5308448,0.065963 -0.5182805,0 -0.8418132,-0.2732751 Q 5.0522982,6.1396329 5.0522982,5.806677 q 0,-0.4052011 0.4114833,-0.7507214 0.4146243,-0.3486614 1.1433581,-0.3486614 0.2921217,0 0.6753352,0.062822 V 4.6162025 q 0,-0.1444904 -0.1256438,-0.2355821 -0.1225026,-0.091092 -0.4711641,-0.091092 -0.2858395,0 -0.7412981,0.1130794 -0.169619,0.040834 -0.2638519,0.040834 -0.1287848,0 -0.2198765,-0.091092 -0.087951,-0.094233 -0.087951,-0.2387231 0,-0.081669 0.031411,-0.1413493 0.031411,-0.059681 0.087951,-0.094233 0.05654,-0.037693 0.235582,-0.087951 0.2387232,-0.065963 0.4868696,-0.1036561 0.2481464,-0.040834 0.4491764,-0.040834 0.5999489,0 0.9297637,0.2607108 0.332956,0.2575697 0.332956,0.7067461 v 1.3255415 h 0.1099383 q 0.2324409,0 0.3298148,0.091092 0.100515,0.087951 0.100515,0.2324409 0,0.1413492 -0.100515,0.2324409 -0.097374,0.087951 -0.3298148,0.087951 z m 0,-1.1527815 q -0.3863546,-0.075386 -0.7130283,-0.075386 -0.3926367,0 -0.6753352,0.1916067 -0.1759012,0.1225027 -0.1759012,0.2481464 0,0.091092 0.084809,0.1476314 0.1570547,0.1036561 0.4303298,0.1036561 0.232441,0 0.5245627,-0.091092 0.2952628,-0.091092 0.5245627,-0.2481464 z"
       id="path2496" />
  </g>
</svg>
