<?xml version="1.0" encoding="UTF-8" standalone="no"?>
<!-- Created with Inkscape (http://www.inkscape.org/) -->

<svg
   width="32"
   height="32"
   viewBox="0 0 8.4666666 8.4666666"
   version="1.1"
   id="svg8"
   inkscape:version="1.1.1 (3bf5ae0d25, 2021-09-20)"
   sodipodi:docname="chicken.svg"
   inkscape:export-filename="D:\RxLab\src\RxOT\After-Effects\Duik\inc\oco\chicken.png"
   inkscape:export-xdpi="48"
   inkscape:export-ydpi="48"
   xmlns:inkscape="http://www.inkscape.org/namespaces/inkscape"
   xmlns:sodipodi="http://sodipodi.sourceforge.net/DTD/sodipodi-0.dtd"
   xmlns="http://www.w3.org/2000/svg"
   xmlns:svg="http://www.w3.org/2000/svg"
   xmlns:rdf="http://www.w3.org/1999/02/22-rdf-syntax-ns#"
   xmlns:cc="http://creativecommons.org/ns#"
   xmlns:dc="http://purl.org/dc/elements/1.1/">
  <defs
     id="defs2">
    <inkscape:path-effect
       effect="taper_stroke"
       id="path-effect879"
       is_visible="true"
       stroke_width="1.77"
       attach_start="1e-07"
       end_offset="1.0001633"
       smoothing="0.5"
       jointype="extrapolated"
       miter_limit="100" />
    <inkscape:path-effect
       effect="mirror_symmetry"
       start_point="4.2333333,0"
       end_point="4.2333333,8.4666667"
       center_point="4.2333333,4.2333333"
       id="path-effect897"
       is_visible="true"
       mode="vertical"
       discard_orig_path="false"
       fuse_paths="false"
       oposite_fuse="false" />
    <inkscape:path-effect
       effect="mirror_symmetry"
       start_point="4.2328811,1.6730093"
       end_point="4.2328811,6.1768975"
       center_point="4.2328811,3.9249534"
       id="path-effect862"
       is_visible="true"
       mode="free"
       discard_orig_path="false"
       fuse_paths="false"
       oposite_fuse="false" />
    <inkscape:path-effect
       effect="mirror_symmetry"
       start_point="4.2333333,0"
       end_point="4.2333333,8.4666667"
       center_point="4.2333333,4.2333333"
       id="path-effect858"
       is_visible="true"
       mode="vertical"
       discard_orig_path="false"
       fuse_paths="false"
       oposite_fuse="false" />
    <inkscape:path-effect
       effect="mirror_symmetry"
       start_point="4.2333333,0"
       end_point="4.2333333,8.4666667"
       center_point="4.2333333,4.2333333"
       id="path-effect854"
       is_visible="true"
       mode="vertical"
       discard_orig_path="false"
       fuse_paths="false"
       oposite_fuse="false" />
    <style
       id="style1399">.cls-1{fill:#e3e3e3;}</style>
    <style
       id="style1399-4">.cls-1{fill:#e3e3e3;}</style>
    <style
       id="style1399-8">.cls-1{fill:#e3e3e3;}</style>
    <style
       id="style1399-4-5">.cls-1{fill:#e3e3e3;}</style>
    <inkscape:path-effect
       oposite_fuse="false"
       fuse_paths="false"
       discard_orig_path="false"
       mode="vertical"
       is_visible="true"
       id="path-effect897-3"
       center_point="4.2333333,4.2333333"
       end_point="4.2333333,8.4666667"
       start_point="4.2333333,0"
       effect="mirror_symmetry" />
    <inkscape:path-effect
       oposite_fuse="false"
       fuse_paths="false"
       discard_orig_path="false"
       mode="free"
       is_visible="true"
       id="path-effect862-8"
       center_point="4.2328811,3.9249534"
       end_point="4.2328811,6.1768975"
       start_point="4.2328811,1.6730093"
       effect="mirror_symmetry" />
    <inkscape:path-effect
       oposite_fuse="false"
       fuse_paths="false"
       discard_orig_path="false"
       mode="vertical"
       is_visible="true"
       id="path-effect858-5"
       center_point="4.2333333,4.2333333"
       end_point="4.2333333,8.4666667"
       start_point="4.2333333,0"
       effect="mirror_symmetry" />
    <inkscape:path-effect
       oposite_fuse="false"
       fuse_paths="false"
       discard_orig_path="false"
       mode="vertical"
       is_visible="true"
       id="path-effect854-6"
       center_point="4.2333333,4.2333333"
       end_point="4.2333333,8.4666667"
       start_point="4.2333333,0"
       effect="mirror_symmetry" />
    <style
       id="style1399-1">.cls-1{fill:#e3e3e3;}</style>
    <style
       id="style1399-4-1">.cls-1{fill:#e3e3e3;}</style>
    <style
       id="style1399-8-5">.cls-1{fill:#e3e3e3;}</style>
    <style
       id="style1399-4-5-9">.cls-1{fill:#e3e3e3;}</style>
  </defs>
  <sodipodi:namedview
     id="base"
     pagecolor="#ffffff"
     bordercolor="#666666"
     borderopacity="1.0"
     inkscape:pageopacity="0.0"
     inkscape:pageshadow="2"
     inkscape:zoom="16.000001"
     inkscape:cx="10.656249"
     inkscape:cy="13.249999"
     inkscape:document-units="mm"
     inkscape:current-layer="svg8"
     showgrid="false"
     units="px"
     inkscape:window-width="1706"
     inkscape:window-height="1168"
     inkscape:window-x="803"
     inkscape:window-y="66"
     inkscape:window-maximized="0"
     inkscape:pagecheckerboard="0">
    <sodipodi:guide
       position="8.4666666,0"
       orientation="-32,0"
       id="guide854"
       inkscape:locked="false" />
    <sodipodi:guide
       position="0,8.4666814"
       orientation="0,-32"
       id="guide856"
       inkscape:locked="false" />
    <sodipodi:guide
       position="0,8.4666814"
       orientation="32,0"
       id="guide858"
       inkscape:locked="false" />
  </sodipodi:namedview>
  <metadata
     id="metadata5">
    <rdf:RDF>
      <cc:Work
         rdf:about="">
        <dc:format>image/svg+xml</dc:format>
        <dc:type
           rdf:resource="http://purl.org/dc/dcmitype/StillImage" />
      </cc:Work>
    </rdf:RDF>
  </metadata>
  <path
     id="path967"
     style="fill:#b1b1b1;fill-opacity:1;stroke:none;stroke-width:1.09719px;stroke-linecap:butt;stroke-linejoin:miter;stroke-opacity:1"
     d="M 25.091797,0.0390625 C 24.499276,0.03976338 23.965985,0.39863466 23.742188,0.94726562 23.502949,0.78902221 23.222385,0.70478483 22.935547,0.70507812 22.129876,0.70533037 21.476815,1.3583921 21.476562,2.1640625 21.477224,2.5116052 21.601886,2.8475046 21.828125,3.1113281 19.179063,5.7968792 19.45258,12.944438 14.263672,13.568359 8.4307546,14.269718 5.1088025,12.334038 0,8.5625 c 0,4.777526 0.35876756,9.179148 2.7050781,11.859375 2.3463108,2.680227 5.4610671,3.860653 9.1347659,3.769531 4.46432,-0.110732 6.317711,-1.246097 7.867187,-2.785156 1.261011,-1.252533 1.363948,-3.129315 0.564453,-5.025391 -0.10569,-0.472904 0.191388,-0.942113 0.664063,-1.048828 0.472245,-0.104466 0.940133,0.192325 1.046875,0.664063 0.888004,2.22892 0.620709,4.859287 -0.96875,6.583984 -1.797258,1.950176 -4.809066,3.224405 -8.980469,3.351563 -4.1714028,0.127157 -6.1551527,-0.532547 -7.7539061,-1.212891 1.751379,1.440842 4.2182059,2.442919 7.6972651,2.845703 v 3.753906 c 2e-6,0.351791 0.282977,0.634766 0.634766,0.634766 h 0.851563 c 0.351787,0 0.634765,-0.282977 0.634765,-0.634766 v -3.58789 c 0.508348,0.02192 1.034406,0.0332 1.580078,0.0332 11.362334,0 10.345702,-12.650216 10.345704,-15.634766 -10e-7,-0.522226 0.04418,-0.968096 0.113281,-1.359375 0.213944,0.116519 0.453651,0.177606 0.697265,0.177735 0.805671,-2.54e-4 1.458733,-0.653314 1.458985,-1.4589848 6.2e-5,-0.4482856 -0.205899,-0.8717307 -0.558594,-1.1484374 0.365284,-0.037644 1.421089,-0.1054426 2.232422,0.2929687 -0.247758,-2.1899384 -1.714844,-3.0175781 -1.714844,-3.0175781 0,0 0.151086,-1.0591038 -0.509765,-2.0175782 0.409743,-0.270078 0.656318,-0.7280037 0.65625,-1.21875 8.26e-4,-0.8064331 -0.652551,-1.46068554 -1.458985,-1.46093745 -0.162198,2.51e-5 -0.323264,0.027088 -0.476562,0.0800781 C 26.252655,0.42212802 25.704889,0.03900343 25.091797,0.0390625 Z M 25.169922,4.0625 c 0.552285,0 1,0.4477152 1,1 0,0.5522848 -0.447715,1 -1,1 -0.552285,0 -1,-0.4477152 -1,-1 0,-0.5522848 0.447715,-1 1,-1 z"
     transform="scale(0.26458333)"
     sodipodi:nodetypes="cccccscssscccsscccssscsscccccccccccsssss" />
</svg>
