<?xml version="1.0" encoding="UTF-8" standalone="no"?>
<svg
   id="Calque_1"
   data-name="Calque 1"
   viewBox="0 0 32 32"
   version="1.1"
   sodipodi:docname="fish_spine.svg"
   inkscape:version="1.1 (c68e22c387, 2021-05-23)"
   inkscape:export-filename="D:\DEV_SRC\RxOT\DuAEF\DuAEF_Duik\icons\w16\w16_snake_spine.png"
   inkscape:export-xdpi="48"
   inkscape:export-ydpi="48"
   xmlns:inkscape="http://www.inkscape.org/namespaces/inkscape"
   xmlns:sodipodi="http://sodipodi.sourceforge.net/DTD/sodipodi-0.dtd"
   xmlns="http://www.w3.org/2000/svg"
   xmlns:svg="http://www.w3.org/2000/svg"
   xmlns:rdf="http://www.w3.org/1999/02/22-rdf-syntax-ns#"
   xmlns:cc="http://creativecommons.org/ns#"
   xmlns:dc="http://purl.org/dc/elements/1.1/">
  <metadata
     id="metadata31">
    <rdf:RDF>
      <cc:Work
         rdf:about="">
        <dc:format>image/svg+xml</dc:format>
        <dc:type
           rdf:resource="http://purl.org/dc/dcmitype/StillImage" />
        <dc:title>body_l</dc:title>
      </cc:Work>
    </rdf:RDF>
  </metadata>
  <sodipodi:namedview
     pagecolor="#ffffff"
     bordercolor="#666666"
     borderopacity="1"
     objecttolerance="10"
     gridtolerance="10"
     guidetolerance="10"
     inkscape:pageopacity="0"
     inkscape:pageshadow="2"
     inkscape:window-width="1920"
     inkscape:window-height="1027"
     id="namedview29"
     showgrid="false"
     inkscape:snap-bbox="true"
     inkscape:bbox-paths="true"
     inkscape:bbox-nodes="true"
     inkscape:snap-bbox-edge-midpoints="true"
     inkscape:snap-bbox-midpoints="true"
     inkscape:snap-nodes="false"
     inkscape:zoom="14.75"
     inkscape:cx="-0.10169492"
     inkscape:cy="19.220339"
     inkscape:window-x="-8"
     inkscape:window-y="-8"
     inkscape:window-maximized="1"
     inkscape:current-layer="Calque_1"
     inkscape:pagecheckerboard="1"
     inkscape:snap-global="false" />
  <defs
     id="defs4">
    <style
       id="style2">.cls-1{fill:#e3e3e3;}</style>
    <inkscape:path-effect
       effect="mirror_symmetry"
       start_point="4.2333333,0"
       end_point="4.2333333,8.4666667"
       center_point="4.2333333,4.2333333"
       id="path-effect897"
       is_visible="true"
       mode="vertical"
       discard_orig_path="false"
       fuse_paths="false"
       oposite_fuse="false" />
    <inkscape:path-effect
       effect="mirror_symmetry"
       start_point="4.2328811,1.6730093"
       end_point="4.2328811,6.1768975"
       center_point="4.2328811,3.9249534"
       id="path-effect862"
       is_visible="true"
       mode="free"
       discard_orig_path="false"
       fuse_paths="false"
       oposite_fuse="false" />
    <inkscape:path-effect
       effect="mirror_symmetry"
       start_point="4.2333333,0"
       end_point="4.2333333,8.4666667"
       center_point="4.2333333,4.2333333"
       id="path-effect858"
       is_visible="true"
       mode="vertical"
       discard_orig_path="false"
       fuse_paths="false"
       oposite_fuse="false" />
    <inkscape:path-effect
       effect="mirror_symmetry"
       start_point="4.2333333,0"
       end_point="4.2333333,8.4666667"
       center_point="4.2333333,4.2333333"
       id="path-effect854"
       is_visible="true"
       mode="vertical"
       discard_orig_path="false"
       fuse_paths="false"
       oposite_fuse="false" />
    <style
       id="style1399">.cls-1{fill:#e3e3e3;}</style>
    <style
       id="style1399-4">.cls-1{fill:#e3e3e3;}</style>
    <style
       id="style1399-8">.cls-1{fill:#e3e3e3;}</style>
    <style
       id="style1399-4-5">.cls-1{fill:#e3e3e3;}</style>
  </defs>
  <title
     id="title6">body_l</title>
  <path
     id="path852"
     style="display:inline;opacity:1;fill:#b1b1b1;fill-opacity:1;stroke:none;stroke-width:2.73584px;stroke-linecap:butt;stroke-linejoin:miter;stroke-opacity:1"
     d="M 28.652344 -0.013671875 C 27.195276 -0.0063813575 25.463464 0.07907286 24.087891 0.11523438 C 22.646814 0.15311787 21.179917 0.60328627 19.974609 1.8085938 C 18.221434 3.5617687 18.737073 4.9519159 19.855469 6.0703125 C 20.60089 6.8157326 21.593816 7.4325739 22.382812 7.9628906 L 17.888672 12.583984 A 20.390096 20.390096 0 0 1 13.568359 5.5585938 A 11.554388 11.554388 0 0 0 16.335938 14.179688 L 12.460938 18.166016 A 23.393827 23.393827 0 0 1 7.4550781 10.054688 A 13.256502 13.256502 0 0 0 10.677734 19.998047 L 6.8828125 23.900391 A 15.31344 15.31344 0 0 1 3.6679688 18.654297 A 8.6776158 8.6776158 0 0 0 5.71875 25.097656 L 2.28125 28.630859 A 11.355755 11.355755 0 0 1 0.10351562 24.962891 A 6.4349279 6.4349279 0 0 0 1.9589844 30.117188 A 6.4349279 6.4349279 0 0 0 7.4003906 31.921875 A 11.355755 11.355755 0 0 1 3.7421875 29.998047 L 7.1875 26.455078 A 8.6776158 8.6776158 0 0 0 13.507812 28.039062 A 15.31344 15.31344 0 0 1 8.34375 25.265625 L 12.099609 21.40625 A 13.256502 13.256502 0 0 0 22.486328 24.390625 A 23.393827 23.393827 0 0 1 13.898438 19.554688 L 17.761719 15.582031 A 11.554388 11.554388 0 0 0 26.669922 18.054688 A 20.390096 20.390096 0 0 1 19.330078 13.970703 L 23.853516 9.3183594 C 25.187121 11.20461 27.153166 15.184724 30.251953 12.085938 C 32.453217 9.8846734 32.107564 0.86537589 31.564453 0.32226562 C 31.291701 0.04951358 30.109411 -0.020962393 28.652344 -0.013671875 z M 27.050781 3.7285156 C 27.724277 3.7293924 28.269733 4.275722 28.269531 4.9492188 C 28.268656 5.6219529 27.723515 6.1670934 27.050781 6.1679688 C 26.377284 6.1681707 25.830955 5.6227152 25.830078 4.9492188 C 25.829877 4.2749594 26.376522 3.7283138 27.050781 3.7285156 z "
     inkscape:export-filename="D:\DEV_SRC\RxOT\DuAEF\DuAEF_Duik\icons\w16\w16_fish_spine.png"
     inkscape:export-xdpi="48"
     inkscape:export-ydpi="48" />
</svg>
