<?xml version="1.0" encoding="UTF-8" standalone="no"?>
<svg
   xmlns:dc="http://purl.org/dc/elements/1.1/"
   xmlns:cc="http://creativecommons.org/ns#"
   xmlns:rdf="http://www.w3.org/1999/02/22-rdf-syntax-ns#"
   xmlns:svg="http://www.w3.org/2000/svg"
   xmlns="http://www.w3.org/2000/svg"
   xmlns:sodipodi="http://sodipodi.sourceforge.net/DTD/sodipodi-0.dtd"
   xmlns:inkscape="http://www.inkscape.org/namespaces/inkscape"
   width="32"
   height="32"
   viewBox="0 0 8.4666666 8.4666666"
   version="1.1"
   id="svg8"
   inkscape:version="1.0.2-2 (e86c870879, 2021-01-15)"
   sodipodi:docname="oco.svg"
   inkscape:export-filename="D:\DEV_SRC\RxOT\DuAEF_Duik\icons\w16/w16_oco.png"
   inkscape:export-xdpi="48.000004"
   inkscape:export-ydpi="48.000004">
  <defs
     id="defs2">
    <style
       id="style1399">.cls-1{fill:#e3e3e3;}</style>
    <style
       id="style1399-4">.cls-1{fill:#e3e3e3;}</style>
    <style
       id="style1399-8">.cls-1{fill:#e3e3e3;}</style>
    <style
       id="style1399-4-5">.cls-1{fill:#e3e3e3;}</style>
    <style
       id="style1399-0">.cls-1{fill:#e3e3e3;}</style>
    <style
       id="style854">.cls-1{fill:#e3e3e3;}</style>
    <style
       id="style1399-84">.cls-1{fill:#e3e3e3;}</style>
    <style
       id="style1399-4-8">.cls-1{fill:#e3e3e3;}</style>
    <style
       id="style1399-8-10">.cls-1{fill:#e3e3e3;}</style>
    <style
       id="style1399-4-5-3">.cls-1{fill:#e3e3e3;}</style>
    <style
       id="style1399-0-0">.cls-1{fill:#e3e3e3;}</style>
    <style
       id="style1399-5">.cls-1{fill:#e3e3e3;}</style>
    <style
       id="style1399-4-6">.cls-1{fill:#e3e3e3;}</style>
    <style
       id="style1399-8-1">.cls-1{fill:#e3e3e3;}</style>
    <style
       id="style1399-4-5-1">.cls-1{fill:#e3e3e3;}</style>
    <style
       id="style1399-0-5">.cls-1{fill:#e3e3e3;}</style>
    <style
       id="style1257">.cls-1{fill:#e3e3e3;}</style>
    <style
       id="style1387">.cls-1{fill:#e3e3e3;}</style>
    <style
       id="style1399-59">.cls-1{fill:#e3e3e3;}</style>
    <style
       id="style1399-89">.cls-1{fill:#e3e3e3;}</style>
    <style
       id="style1399-4-64">.cls-1{fill:#e3e3e3;}</style>
    <style
       id="style1399-8-3">.cls-1{fill:#e3e3e3;}</style>
    <style
       id="style1399-4-5-33">.cls-1{fill:#e3e3e3;}</style>
    <style
       id="style1399-0-8">.cls-1{fill:#e3e3e3;}</style>
    <style
       id="style1399-7">.cls-1{fill:#e3e3e3;}</style>
    <style
       id="style1399-4-7">.cls-1{fill:#e3e3e3;}</style>
    <style
       id="style1399-8-6">.cls-1{fill:#e3e3e3;}</style>
    <style
       id="style1399-4-5-4">.cls-1{fill:#e3e3e3;}</style>
    <style
       id="style1399-0-3">.cls-1{fill:#e3e3e3;}</style>
    <style
       id="style1399-05">.cls-1{fill:#e3e3e3;}</style>
    <style
       id="style1399-4-9">.cls-1{fill:#e3e3e3;}</style>
    <style
       id="style1399-8-4">.cls-1{fill:#e3e3e3;}</style>
    <style
       id="style1399-4-5-6">.cls-1{fill:#e3e3e3;}</style>
    <style
       id="style1399-0-9">.cls-1{fill:#e3e3e3;}</style>
    <style
       id="style854-2">.cls-1{fill:#e3e3e3;}</style>
    <style
       id="style1399-84-2">.cls-1{fill:#e3e3e3;}</style>
    <style
       id="style1399-4-8-4">.cls-1{fill:#e3e3e3;}</style>
    <style
       id="style1399-8-10-7">.cls-1{fill:#e3e3e3;}</style>
    <style
       id="style1399-4-5-3-7">.cls-1{fill:#e3e3e3;}</style>
    <style
       id="style1399-0-0-5">.cls-1{fill:#e3e3e3;}</style>
    <style
       id="style1399-5-4">.cls-1{fill:#e3e3e3;}</style>
    <style
       id="style1399-4-6-8">.cls-1{fill:#e3e3e3;}</style>
    <style
       id="style1399-8-1-1">.cls-1{fill:#e3e3e3;}</style>
    <style
       id="style1399-4-5-1-2">.cls-1{fill:#e3e3e3;}</style>
    <style
       id="style1399-0-5-8">.cls-1{fill:#e3e3e3;}</style>
    <style
       id="style1257-9">.cls-1{fill:#e3e3e3;}</style>
    <style
       id="style1387-3">.cls-1{fill:#e3e3e3;}</style>
    <style
       id="style1399-59-6">.cls-1{fill:#e3e3e3;}</style>
    <style
       id="style1399-89-8">.cls-1{fill:#e3e3e3;}</style>
    <style
       id="style1399-4-64-0">.cls-1{fill:#e3e3e3;}</style>
    <style
       id="style1399-8-3-2">.cls-1{fill:#e3e3e3;}</style>
    <style
       id="style1399-4-5-33-1">.cls-1{fill:#e3e3e3;}</style>
    <style
       id="style1399-0-8-0">.cls-1{fill:#e3e3e3;}</style>
  </defs>
  <sodipodi:namedview
     id="base"
     pagecolor="#ffffff"
     bordercolor="#666666"
     borderopacity="1.0"
     inkscape:pageopacity="0.0"
     inkscape:pageshadow="2"
     inkscape:zoom="22.627416"
     inkscape:cx="12.258889"
     inkscape:cy="14.171821"
     inkscape:document-units="mm"
     inkscape:current-layer="svg8"
     showgrid="false"
     units="px"
     inkscape:window-width="3440"
     inkscape:window-height="1417"
     inkscape:window-x="1915"
     inkscape:window-y="-8"
     inkscape:window-maximized="1"
     inkscape:snap-bbox="true"
     inkscape:bbox-paths="true"
     inkscape:bbox-nodes="true"
     inkscape:snap-bbox-edge-midpoints="true"
     inkscape:snap-bbox-midpoints="true"
     inkscape:snap-nodes="true"
     inkscape:snap-others="true"
     inkscape:snap-object-midpoints="true"
     inkscape:snap-page="true"
     inkscape:document-rotation="0">
    <sodipodi:guide
       position="8.4666666,0"
       orientation="-32,0"
       id="guide854"
       inkscape:locked="false" />
    <sodipodi:guide
       position="8.4666666,8.4666666"
       orientation="0,-32"
       id="guide856"
       inkscape:locked="false" />
    <sodipodi:guide
       position="0,8.4666814"
       orientation="32,0"
       id="guide858"
       inkscape:locked="false" />
  </sodipodi:namedview>
  <metadata
     id="metadata5">
    <rdf:RDF>
      <cc:Work
         rdf:about="">
        <dc:format>image/svg+xml</dc:format>
        <dc:type
           rdf:resource="http://purl.org/dc/dcmitype/StillImage" />
        <dc:title />
      </cc:Work>
    </rdf:RDF>
  </metadata>
  <path
     id="path1638"
     style="opacity:1;fill:#b1b1b1;fill-opacity:1;stroke:none;stroke-width:0.890101;stroke-linecap:butt;stroke-linejoin:miter;stroke-miterlimit:4;stroke-dasharray:none;stroke-dashoffset:0;stroke-opacity:1"
     d="M 0.47955729,2.5726853 C 0.21388256,2.5726853 0,2.7865678 0,3.0522427 v 0.3762044 0.0062 0.3198771 C 0,4.0201999 0.21388256,4.2340824 0.47955729,4.2340824 H 3.2039388 c 0.0675,0 0.1314976,-0.013803 0.1896525,-0.038757 0.1294019,-0.037618 0.2519656,-0.1036539 0.3539834,-0.2056722 0.32322,-0.3232195 0.32322,-0.8472514 0,-1.1704711 C 3.6477432,2.7193499 3.5281735,2.6542558 3.4018595,2.6160935 3.3414139,2.5887058 3.2748437,2.5726853 3.2039388,2.5726853 Z M 3.1563966,2.9034145 A 0.50307012,0.50307012 0 0 1 3.6592081,3.4067428 0.50307012,0.50307012 0 0 1 3.1563966,3.9095546 0.50307012,0.50307012 0 0 1 2.6530681,3.4067428 0.50307012,0.50307012 0 0 1 3.1563966,2.9034145 Z" />
  <path
     style="opacity:1;fill:#b1b1b1;fill-opacity:1;stroke:none;stroke-width:1.13422191;stroke-linecap:round;stroke-linejoin:round;stroke-miterlimit:4;stroke-dasharray:1.13422188, 2.26844378000000013;stroke-dashoffset:15.63091469;stroke-opacity:1"
     d="M 4.2333336,0 A 1.1071259,1.1071259 0 0 0 3.1262683,1.1070652 1.1071259,1.1071259 0 0 0 4.2333336,2.2141307 1.1071259,1.1071259 0 0 0 5.3403984,1.1070652 1.1071259,1.1071259 0 0 0 4.2333336,0 Z m 0,0.42957759 c 0.1731715,0 0.3466593,0.0665628 0.4787579,0.19872976 0.2643333,0.26419666 0.2643333,0.69231515 0,0.95651225 -0.2641969,0.2643331 -0.6933191,0.2643331 -0.9575161,0 -0.2643333,-0.264197 -0.2643328,-0.69231542 0,-0.95651225 C 3.8866742,0.49614071 4.0601613,0.42957759 4.2333336,0.42957759 Z m 0,0.39645571 c -0.071744,0 -0.1429982,0.0275471 -0.1977263,0.082302 -0.1095115,0.1094558 -0.1095115,0.2870008 0,0.3964559 0.1094558,0.1095115 0.285997,0.1095115 0.3954526,0 0.1095115,-0.1094558 0.1095115,-0.2870005 0,-0.3964559 C 4.3763309,0.8535787 4.3050783,0.8260333 4.2333336,0.8260333 Z"
     id="path1503"
     inkscape:connector-curvature="0" />
  <path
     id="path897"
     style="opacity:1;fill:#b1b1b1;fill-opacity:1;stroke:none;stroke-width:0.890101;stroke-linecap:butt;stroke-linejoin:miter;stroke-miterlimit:4;stroke-dasharray:none;stroke-dashoffset:0;stroke-opacity:1"
     d="m 7.9871094,2.5726853 c 0.2656747,0 0.4795573,0.2138824 0.4795573,0.4795574 v 0.3762044 0.0062 0.319877 c 0,0.2656748 -0.2138826,0.4795573 -0.4795573,0.4795573 H 5.2627279 c -0.0675,0 -0.1314976,-0.013803 -0.1896525,-0.038757 C 4.9436735,4.1577073 4.8211098,4.0916712 4.719092,3.9896529 c -0.32322,-0.3232195 -0.32322,-0.8472513 0,-1.1704711 0.099832,-0.099832 0.2194012,-0.164926 0.3457151,-0.2030883 0.060446,-0.027388 0.1270159,-0.043408 0.1979208,-0.043408 z M 5.3102701,2.9034144 A 0.50307012,0.50307012 0 0 0 4.8074586,3.4067428 0.50307012,0.50307012 0 0 0 5.3102701,3.9095546 0.50307012,0.50307012 0 0 0 5.8135986,3.4067428 0.50307012,0.50307012 0 0 0 5.3102701,2.9034144 Z" />
  <path
     id="path899"
     style="opacity:1;fill:#b1b1b1;fill-opacity:1;stroke:none;stroke-width:0.890101;stroke-linecap:butt;stroke-linejoin:miter;stroke-miterlimit:4;stroke-dasharray:none;stroke-dashoffset:0;stroke-opacity:1"
     d="m 5.9353492,7.9871093 c 0,0.2656747 -0.2138824,0.4795573 -0.4795574,0.4795573 h -0.3762044 -0.0062 -0.319877 c -0.2656748,0 -0.4795573,-0.2138826 -0.4795573,-0.4795573 V 5.2627278 c 0,-0.0675 0.013803,-0.1314976 0.038757,-0.1896525 0.037617,-0.1294019 0.1036532,-0.2519656 0.2056715,-0.3539834 0.3232195,-0.32322 0.8472513,-0.32322 1.1704711,0 0.099832,0.099832 0.164926,0.2194012 0.2030883,0.3457151 0.027388,0.060446 0.043408,0.1270159 0.043408,0.1979208 z M 5.6046201,5.31027 A 0.50307012,0.50307012 0 0 0 5.1012917,4.8074585 0.50307012,0.50307012 0 0 0 4.5984799,5.31027 0.50307012,0.50307012 0 0 0 5.1012917,5.8135985 0.50307012,0.50307012 0 0 0 5.6046201,5.31027 Z" />
  <path
     id="path901"
     style="opacity:1;fill:#b1b1b1;fill-opacity:1;stroke:none;stroke-width:0.890101;stroke-linecap:butt;stroke-linejoin:miter;stroke-miterlimit:4;stroke-dasharray:none;stroke-dashoffset:0;stroke-opacity:1"
     d="m 4.1927138,7.9871093 c 0,0.2656747 -0.2138824,0.4795573 -0.4795574,0.4795573 H 3.336952 3.330752 3.010875 c -0.2656748,0 -0.4795573,-0.2138826 -0.4795573,-0.4795573 V 5.2627278 c 0,-0.0675 0.013803,-0.1314976 0.038757,-0.1896525 0.037617,-0.1294019 0.1036532,-0.2519656 0.2056715,-0.3539834 0.3232195,-0.32322 0.8472513,-0.32322 1.1704711,0 0.099832,0.099832 0.164926,0.2194012 0.2030883,0.3457151 0.027388,0.060446 0.043408,0.1270159 0.043408,0.1979208 z M 3.8619847,5.31027 A 0.50307012,0.50307012 0 0 0 3.3586563,4.8074585 0.50307012,0.50307012 0 0 0 2.8558445,5.31027 0.50307012,0.50307012 0 0 0 3.3586563,5.8135985 0.50307012,0.50307012 0 0 0 3.8619847,5.31027 Z" />
</svg>
