<?xml version="1.0" encoding="UTF-8" standalone="no"?>
<!-- Created with Inkscape (http://www.inkscape.org/) -->

<svg
   width="32"
   height="32"
   viewBox="0 0 8.4666666 8.4666666"
   version="1.1"
   id="svg8"
   inkscape:version="1.1 (c68e22c387, 2021-05-23)"
   sodipodi:docname="one_two_ik.svg"
   inkscape:export-filename="D:\DEV_SRC\RxOT\DuAEF\DuAEF_Duik\icons\w16\w16_one_two_ik.png"
   inkscape:export-xdpi="48"
   inkscape:export-ydpi="48"
   xmlns:inkscape="http://www.inkscape.org/namespaces/inkscape"
   xmlns:sodipodi="http://sodipodi.sourceforge.net/DTD/sodipodi-0.dtd"
   xmlns="http://www.w3.org/2000/svg"
   xmlns:svg="http://www.w3.org/2000/svg"
   xmlns:rdf="http://www.w3.org/1999/02/22-rdf-syntax-ns#"
   xmlns:cc="http://creativecommons.org/ns#"
   xmlns:dc="http://purl.org/dc/elements/1.1/">
  <defs
     id="defs2">
    <style
       id="style1399">.cls-1{fill:#e3e3e3;}</style>
    <style
       id="style1399-4">.cls-1{fill:#e3e3e3;}</style>
    <style
       id="style1399-8">.cls-1{fill:#e3e3e3;}</style>
    <style
       id="style1399-4-5">.cls-1{fill:#e3e3e3;}</style>
    <style
       id="style1399-0">.cls-1{fill:#e3e3e3;}</style>
  </defs>
  <sodipodi:namedview
     id="base"
     pagecolor="#ffffff"
     bordercolor="#666666"
     borderopacity="1.0"
     inkscape:pageopacity="0.0"
     inkscape:pageshadow="2"
     inkscape:zoom="15.999999"
     inkscape:cx="1.9062501"
     inkscape:cy="17.156251"
     inkscape:document-units="mm"
     inkscape:current-layer="svg8"
     showgrid="false"
     units="px"
     inkscape:window-width="1920"
     inkscape:window-height="1027"
     inkscape:window-x="-8"
     inkscape:window-y="-8"
     inkscape:window-maximized="1"
     inkscape:snap-bbox="true"
     inkscape:bbox-paths="true"
     inkscape:bbox-nodes="true"
     inkscape:snap-bbox-edge-midpoints="true"
     inkscape:snap-bbox-midpoints="true"
     inkscape:snap-nodes="false"
     inkscape:snap-others="true"
     inkscape:snap-object-midpoints="true"
     inkscape:snap-page="true"
     inkscape:pagecheckerboard="1">
    <sodipodi:guide
       position="8.4666666,0"
       orientation="-32,0"
       id="guide854"
       inkscape:locked="false" />
    <sodipodi:guide
       position="9.9384114,8.4666666"
       orientation="0,-32"
       id="guide856"
       inkscape:locked="false" />
    <sodipodi:guide
       position="0,8.4666814"
       orientation="32,0"
       id="guide858"
       inkscape:locked="false" />
  </sodipodi:namedview>
  <metadata
     id="metadata5">
    <rdf:RDF>
      <cc:Work
         rdf:about="">
        <dc:format>image/svg+xml</dc:format>
        <dc:type
           rdf:resource="http://purl.org/dc/dcmitype/StillImage" />
      </cc:Work>
    </rdf:RDF>
  </metadata>
  <path
     style="opacity:1;fill:#b1b1b1;fill-opacity:1;stroke:none;stroke-width:1.39287;stroke-linecap:butt;stroke-linejoin:miter;stroke-miterlimit:4;stroke-dasharray:none;stroke-dashoffset:0;stroke-opacity:1"
     d="M 6.489816,2.2169787 C 6.3839077,2.1461428 6.2656097,2.089976 6.1370149,2.0518872 5.4511758,1.8487472 4.7301205,2.2400297 4.5269805,2.9258688 c -0.2031397,0.685839 0.1883613,1.4065374 0.8742006,1.6096774 0.1378485,0.040289 0.2814724,0.057424 0.4249259,0.050596 l 1.5766015,2.8134021 c 0.1483229,0.2731638 0.4873746,0.3736209 0.760538,0.2252987 l 0.00946,-0.00501 C 8.3092836,7.5456653 8.4029265,7.4242142 8.4436572,7.2866983 8.4843883,7.1491828 8.4721651,6.9958746 8.3980035,6.8592927 L 6.8218398,4.0451761 C 6.9056909,3.928581 6.9695711,3.7988977 7.0108583,3.6613456 7.1759094,3.1041011 6.9487527,2.5239345 6.489816,2.2169787 Z M 6.1419974,2.5953747 C 6.4669309,2.7685291 6.6368344,3.15155 6.5280978,3.5183182 6.4040434,3.9375457 5.9633722,4.1770559 5.5442084,4.0527856 5.1249806,3.928731 4.8858278,3.4882785 5.0100982,3.069115 5.1341524,2.6498872 5.5748238,2.4103774 5.9939876,2.5346477 c 0.052403,0.015507 0.1015911,0.035991 0.1480098,0.060727 z M 5.9237168,3.0045089 C 5.9044857,2.9942608 5.8838776,2.9854999 5.862167,2.9790755 5.6885102,2.9275913 5.5061396,3.026895 5.4547448,3.2005784 5.4032599,3.3742357 5.5019885,3.556744 5.6756719,3.6081389 5.8493289,3.6596232 6.0320561,3.5605383 6.0834511,3.3868547 6.1285005,3.2349051 6.0583348,3.0762459 5.9237168,3.0045089 Z M 4.2556112,3.9652407 3.0441198,5.1453431 C 2.9097951,5.094526 2.7680082,5.0663819 2.624456,5.062106 1.9094098,5.0433962 1.3146707,5.608261 1.2959607,6.3233073 c -0.01871,0.715046 0.5457978,1.3095663 1.260844,1.3282763 0.7150461,0.01871 1.3099236,-0.545579 1.3286336,-1.2606252 0.00324,-0.1435792 -0.017484,-0.2868726 -0.061207,-0.4236709 L 5.0407339,4.7814124 C 4.6847789,4.6065694 4.411008,4.3137616 4.2556112,3.9652407 Z M 3.0504639,5.712265 C 3.2572406,5.859964 3.3892845,6.1046265 3.3820668,6.3777793 3.3707434,6.81483 3.0070284,7.1597604 2.5699837,7.1482121 2.1329332,7.136889 1.7877839,6.773531 1.7993323,6.3364864 1.8106553,5.8994356 2.1742323,5.5539292 2.611277,5.5654777 2.7751709,5.5697277 2.9263978,5.6236447 3.0504639,5.712265 Z M 2.7811059,6.0901005 C 2.7297061,6.053386 2.6671581,6.0310322 2.5992578,6.0292731 2.418193,6.0244884 2.2674617,6.167219 2.2627707,6.3482864 2.2579861,6.5293516 2.4010738,6.6803017 2.5821413,6.6849926 2.7632063,6.6897772 2.913799,6.5464705 2.9184902,6.3654031 2.9214803,6.2522376 2.8667723,6.1512914 2.7811059,6.0901005 Z"
     id="path828" />
  <path
     style="color:#000000;font-style:normal;font-variant:normal;font-weight:normal;font-stretch:normal;font-size:medium;line-height:normal;font-family:sans-serif;font-variant-ligatures:normal;font-variant-position:normal;font-variant-caps:normal;font-variant-numeric:normal;font-variant-alternates:normal;font-feature-settings:normal;text-indent:0;text-align:start;text-decoration:none;text-decoration-line:none;text-decoration-style:solid;text-decoration-color:#000000;letter-spacing:normal;word-spacing:normal;text-transform:none;writing-mode:lr-tb;direction:ltr;text-orientation:mixed;dominant-baseline:auto;baseline-shift:baseline;text-anchor:start;white-space:normal;shape-padding:0;clip-rule:nonzero;display:inline;overflow:visible;visibility:visible;opacity:1;isolation:auto;mix-blend-mode:normal;color-interpolation:sRGB;color-interpolation-filters:linearRGB;solid-color:#000000;solid-opacity:1;vector-effect:none;fill:#b1b1b1;fill-opacity:1;fill-rule:nonzero;stroke:none;stroke-width:0.620141;stroke-linecap:round;stroke-linejoin:miter;stroke-miterlimit:4;stroke-dasharray:0.620141, 1.24028;stroke-dashoffset:4.58905;stroke-opacity:1;color-rendering:auto;image-rendering:auto;shape-rendering:auto;text-rendering:auto;enable-background:accumulate"
     d="M 7.498065,6.8045583 A 0.31010134,0.31010134 0 0 0 7.3903301,6.7682517 L 6.7769398,6.6783446 a 0.31010134,0.31010134 0 1 0 -0.089908,0.61339 l 0.612563,0.091257 A 0.31010134,0.31010134 0 0 0 7.498065,6.8045583 Z"
     id="path1047"
     inkscape:connector-curvature="0" />
  <path
     style="color:#000000;font-style:normal;font-variant:normal;font-weight:normal;font-stretch:normal;font-size:medium;line-height:normal;font-family:sans-serif;font-variant-ligatures:normal;font-variant-position:normal;font-variant-caps:normal;font-variant-numeric:normal;font-variant-alternates:normal;font-feature-settings:normal;text-indent:0;text-align:start;text-decoration:none;text-decoration-line:none;text-decoration-style:solid;text-decoration-color:#000000;letter-spacing:normal;word-spacing:normal;text-transform:none;writing-mode:lr-tb;direction:ltr;text-orientation:mixed;dominant-baseline:auto;baseline-shift:baseline;text-anchor:start;white-space:normal;shape-padding:0;clip-rule:nonzero;display:inline;overflow:visible;visibility:visible;opacity:1;isolation:auto;mix-blend-mode:normal;color-interpolation:sRGB;color-interpolation-filters:linearRGB;solid-color:#000000;solid-opacity:1;vector-effect:none;fill:#b1b1b1;fill-opacity:1;fill-rule:nonzero;stroke:none;stroke-width:0.620141;stroke-linecap:round;stroke-linejoin:miter;stroke-miterlimit:4;stroke-dasharray:0.620141, 1.24028;stroke-dashoffset:4.58905;stroke-opacity:1;color-rendering:auto;image-rendering:auto;shape-rendering:auto;text-rendering:auto;enable-background:accumulate"
     d="M 5.925253,6.5641983 A 0.31010134,0.31010134 0 0 0 5.8166908,6.5292414 L 5.2033006,6.4393343 a 0.31010134,0.31010134 0 1 0 -0.089907,0.6133902 l 0.61339,0.089908 A 0.31010134,0.31010134 0 0 0 5.925253,6.5641983 Z"
     id="path1045"
     inkscape:connector-curvature="0" />
  <path
     style="color:#000000;font-style:normal;font-variant:normal;font-weight:normal;font-stretch:normal;font-size:medium;line-height:normal;font-family:sans-serif;font-variant-ligatures:normal;font-variant-position:normal;font-variant-caps:normal;font-variant-numeric:normal;font-variant-alternates:normal;font-feature-settings:normal;text-indent:0;text-align:start;text-decoration:none;text-decoration-line:none;text-decoration-style:solid;text-decoration-color:#000000;letter-spacing:normal;word-spacing:normal;text-transform:none;writing-mode:lr-tb;direction:ltr;text-orientation:mixed;dominant-baseline:auto;baseline-shift:baseline;text-anchor:start;white-space:normal;shape-padding:0;clip-rule:nonzero;display:inline;overflow:visible;visibility:visible;opacity:1;isolation:auto;mix-blend-mode:normal;color-interpolation:sRGB;color-interpolation-filters:linearRGB;solid-color:#000000;solid-opacity:1;vector-effect:none;fill:#b1b1b1;fill-opacity:1;fill-rule:nonzero;stroke:none;stroke-width:0.620141;stroke-linecap:round;stroke-linejoin:miter;stroke-miterlimit:4;stroke-dasharray:0.620141, 1.24028;stroke-dashoffset:4.58905;stroke-opacity:1;color-rendering:auto;image-rendering:auto;shape-rendering:auto;text-rendering:auto;enable-background:accumulate"
     d="M 4.3309065,6.3226398 C 4.2971912,6.3043758 4.2603814,6.292523 4.2223444,6.2876828 L 3.8240795,6.2276896 C 3.4148044,6.1663002 3.3227201,6.780213 3.7319953,6.8416026 l 0.400442,0.059471 c 0.344828,0.056762 0.5055065,-0.4115315 0.1984692,-0.5784338 z"
     id="path1010"
     inkscape:connector-curvature="0"
     sodipodi:nodetypes="cccccc" />
  <path
     id="path944"
     style="opacity:1;fill:#b1b1b1;fill-opacity:1;stroke:none;stroke-width:1.39287;stroke-linecap:butt;stroke-linejoin:miter;stroke-miterlimit:4;stroke-dasharray:none;stroke-dashoffset:0;stroke-opacity:1"
     d="M 2.5343166,4.573878 2.1178142,2.9348699 C 2.2289879,2.8439547 2.3245922,2.7349932 2.4000678,2.6128091 2.7737954,2.0029167 2.5820731,1.2054251 1.9721799,0.83169872 1.3622868,0.45797246 0.56479543,0.64969362 0.19106934,1.2595866 -0.18265819,1.869479 0.00863075,2.6667205 0.61852513,3.0404475 0.74124936,3.1150394 0.87570107,3.1684796 1.0160337,3.1990125 L 1.4349794,4.8457758 C 1.7643768,4.6249325 2.1547906,4.5341956 2.5343178,4.5738825 Z M 1.9910394,2.3143708 c -0.00646,0.011859 -0.013338,0.023824 -0.020479,0.035465 C 1.8849306,2.4896456 1.7626674,2.5934843 1.623885,2.6566173 1.3925845,2.7618397 1.114442,2.7537688 0.88149342,2.6109385 0.50865768,2.3826057 0.39204995,1.8952701 0.62057341,1.5225527 0.84890838,1.1497195 1.3360578,1.0324271 1.7087748,1.2609477 2.0699592,1.4821441 2.1915586,1.9466908 1.9910368,2.3143635 Z M 1.5874636,2.0854037 C 1.664975,1.9342892 1.6138735,1.7465183 1.4666509,1.6563567 1.3122353,1.5616805 1.1098915,1.6104017 1.0152952,1.7648657 c -0.0947181,0.154391 -0.0457048,0.3563266 0.1087587,0.450924 0.096511,0.05917 0.2111759,0.062247 0.3070032,0.018651 0.057499,-0.026154 0.1081963,-0.069055 0.1436695,-0.1269787 0.00445,-0.00719 0.00892,-0.014628 0.012734,-0.022056 z" />
</svg>
