<?xml version="1.0" encoding="UTF-8" standalone="no"?>
<!-- Created with Inkscape (http://www.inkscape.org/) -->

<svg
   width="32"
   height="32"
   viewBox="0 0 8.4666666 8.4666666"
   version="1.1"
   id="svg8"
   inkscape:version="1.2.2 (732a01da63, 2022-12-09)"
   sodipodi:docname="shifts.svg"
   inkscape:export-filename="w16\w16_shifts.png"
   inkscape:export-xdpi="48"
   inkscape:export-ydpi="48"
   xmlns:inkscape="http://www.inkscape.org/namespaces/inkscape"
   xmlns:sodipodi="http://sodipodi.sourceforge.net/DTD/sodipodi-0.dtd"
   xmlns="http://www.w3.org/2000/svg"
   xmlns:svg="http://www.w3.org/2000/svg"
   xmlns:rdf="http://www.w3.org/1999/02/22-rdf-syntax-ns#"
   xmlns:cc="http://creativecommons.org/ns#"
   xmlns:dc="http://purl.org/dc/elements/1.1/">
  <defs
     id="defs2">
    <style
       id="style1399">.cls-1{fill:#e3e3e3;}</style>
    <style
       id="style1399-4">.cls-1{fill:#e3e3e3;}</style>
    <style
       id="style1399-8">.cls-1{fill:#e3e3e3;}</style>
    <style
       id="style1399-4-5">.cls-1{fill:#e3e3e3;}</style>
    <style
       id="style1399-0">.cls-1{fill:#e3e3e3;}</style>
    <style
       id="style854">.cls-1{fill:#e3e3e3;}</style>
    <style
       id="style1399-84">.cls-1{fill:#e3e3e3;}</style>
    <style
       id="style1399-4-8">.cls-1{fill:#e3e3e3;}</style>
    <style
       id="style1399-8-10">.cls-1{fill:#e3e3e3;}</style>
    <style
       id="style1399-4-5-3">.cls-1{fill:#e3e3e3;}</style>
    <style
       id="style1399-0-0">.cls-1{fill:#e3e3e3;}</style>
    <style
       id="style1399-5">.cls-1{fill:#e3e3e3;}</style>
    <style
       id="style1399-4-6">.cls-1{fill:#e3e3e3;}</style>
    <style
       id="style1399-8-1">.cls-1{fill:#e3e3e3;}</style>
    <style
       id="style1399-4-5-1">.cls-1{fill:#e3e3e3;}</style>
    <style
       id="style1399-0-5">.cls-1{fill:#e3e3e3;}</style>
  </defs>
  <sodipodi:namedview
     id="base"
     pagecolor="#ffffff"
     bordercolor="#666666"
     borderopacity="1.0"
     inkscape:pageopacity="0.0"
     inkscape:pageshadow="2"
     inkscape:zoom="15.999999"
     inkscape:cx="25.468751"
     inkscape:cy="7.3125003"
     inkscape:document-units="mm"
     inkscape:current-layer="svg8"
     showgrid="false"
     units="px"
     inkscape:window-width="3440"
     inkscape:window-height="1369"
     inkscape:window-x="1912"
     inkscape:window-y="-8"
     inkscape:window-maximized="1"
     inkscape:snap-bbox="true"
     inkscape:bbox-paths="true"
     inkscape:bbox-nodes="true"
     inkscape:snap-bbox-edge-midpoints="true"
     inkscape:snap-bbox-midpoints="true"
     inkscape:snap-nodes="true"
     inkscape:snap-others="true"
     inkscape:snap-object-midpoints="true"
     inkscape:snap-page="true"
     inkscape:pagecheckerboard="0"
     inkscape:showpageshadow="0"
     inkscape:deskcolor="#d1d1d1" />
  <metadata
     id="metadata5">
    <rdf:RDF>
      <cc:Work
         rdf:about="">
        <dc:format>image/svg+xml</dc:format>
        <dc:type
           rdf:resource="http://purl.org/dc/dcmitype/StillImage" />
      </cc:Work>
    </rdf:RDF>
  </metadata>
  <path
     id="path454"
     style="fill:#b1b1b1;fill-opacity:1;stroke-width:0.682001;stroke-linecap:round;stroke-linejoin:round;stroke-dasharray:0.682001, 0.682001"
     d="M 1.624707 0 L 1.6030029 0.001550293 A 0.26700125 0.26700125 0 0 0 1.5885335 0.0036173503 L 1.5146362 0.012402344 A 0.26700125 0.26700125 0 0 0 1.5001668 0.016019694 L 1.4262695 0.028938802 A 0.26700125 0.26700125 0 0 0 1.4138672 0.030489095 L 1.3420369 0.048575846 A 0.26700125 0.26700125 0 0 0 1.3291178 0.050126139 L 1.2572876 0.071830241 A 0.26700125 0.26700125 0 0 0 1.2443685 0.075447591 L 1.1740885 0.09921875 A 0.26700125 0.26700125 0 0 0 1.1616862 0.1028361 L 1.0950236 0.12970785 A 0.26700125 0.26700125 0 0 0 1.0826213 0.13487549 L 1.0211263 0.162264 A 0.26697455 0.26697455 0 0 0 0.88780111 0.51521403 A 0.26697455 0.26697455 0 0 0 1.2407511 0.64853923 L 1.2965617 0.62476807 L 1.352889 0.60358073 L 1.4086995 0.58342692 L 1.4681274 0.56740723 L 1.5275553 0.55293783 L 1.5885335 0.54208577 L 1.6500285 0.53485107 L 1.6644979 0.53330078 A 0.26697455 0.26697455 0 0 0 1.9109945 0.24649658 A 0.26697455 0.26697455 0 0 0 1.624707 0 z M 6.3846232 0 L 6.3613688 0.0020670573 A 0.28949396 0.28949396 0 0 0 6.3474162 0.0041341146 L 6.2657674 0.013435872 A 0.28949396 0.28949396 0 0 0 6.2518148 0.017569987 L 6.170166 0.031005859 A 0.28949396 0.28949396 0 0 0 6.1562134 0.033072917 L 6.078182 0.052709961 A 0.28949396 0.28949396 0 0 0 6.0642293 0.054777018 L 5.9861979 0.078031413 A 0.28949396 0.28949396 0 0 0 5.972762 0.082165527 L 5.8962809 0.10748698 A 0.28949396 0.28949396 0 0 0 5.8849121 0.11110433 L 5.810498 0.1405599 A 0.28949396 0.28949396 0 0 0 5.7970622 0.1462443 L 5.7324666 0.17569987 A 0.28946501 0.28946501 0 0 0 5.5877726 0.55862223 A 0.28946501 0.28946501 0 0 0 5.970695 0.70331624 L 6.0290894 0.67747803 L 6.0900675 0.65422363 L 6.152596 0.6330363 L 6.2146077 0.61546631 L 6.2792033 0.59944661 L 6.3458659 0.5880778 L 6.4120117 0.58032633 L 6.4275146 0.57825928 A 0.28946501 0.28946501 0 0 0 6.6951986 0.26768392 A 0.28946501 0.28946501 0 0 0 6.3846232 0 z M 2.659786 0.27750244 A 0.26697455 0.26697455 0 0 0 2.4355103 0.38912354 A 0.26697455 0.26697455 0 0 0 2.4985555 0.76016032 L 2.5145752 0.77256266 L 2.5616007 0.80873617 L 2.6065592 0.84852702 L 2.6494507 0.88986816 L 2.6892415 0.93327637 L 2.7290324 0.97616781 L 2.7646891 1.0231934 L 2.7972453 1.0681519 A 0.26697455 0.26697455 0 0 0 3.1667318 1.1492839 A 0.26697455 0.26697455 0 0 0 3.2478638 0.77979736 L 3.2457967 0.77824707 A 0.26700125 0.26700125 0 0 0 3.238562 0.76739502 L 3.1972209 0.70951742 A 0.26700125 0.26700125 0 0 0 3.1884359 0.69866536 L 3.1450277 0.64130452 A 0.26700125 0.26700125 0 0 0 3.1362427 0.63200277 L 3.0892171 0.57825928 A 0.26700125 0.26700125 0 0 0 3.0799154 0.56895752 L 3.0313395 0.51676432 A 0.26700125 0.26700125 0 0 0 3.0225545 0.50797933 L 2.9703613 0.45733643 A 0.26700125 0.26700125 0 0 0 2.9610596 0.44855143 L 2.905249 0.40152588 A 0.26700125 0.26700125 0 0 0 2.896464 0.39429118 L 2.8385864 0.34933268 A 0.26700125 0.26700125 0 0 0 2.8298014 0.34209798 L 2.806547 0.32607829 A 0.26697455 0.26697455 0 0 0 2.659786 0.27750244 z M 7.5080688 0.30024007 A 0.28946501 0.28946501 0 0 0 7.4512248 0.30489095 A 0.28946501 0.28946501 0 0 0 7.2636393 0.42167969 A 0.28946501 0.28946501 0 0 0 7.3318522 0.8242391 L 7.3494222 0.83767497 L 7.4005819 0.87694906 L 7.4491577 0.91984049 L 7.4961833 0.96479899 L 7.5411418 1.0118245 L 7.5819661 1.0588501 L 7.6212402 1.109493 L 7.6563802 1.1580688 A 0.28946501 0.28946501 0 0 0 7.6584473 1.1601359 L 7.6599976 1.162203 A 0.28946501 0.28946501 0 0 0 8.0568726 1.2459188 A 0.28946501 0.28946501 0 0 0 8.1447225 0.8459432 L 8.1426554 0.84387614 A 0.28949396 0.28949396 0 0 0 8.134904 0.83199056 L 8.0899455 0.76946208 A 0.28949396 0.28949396 0 0 0 8.082194 0.7575765 L 8.0331014 0.69556478 A 0.28949396 0.28949396 0 0 0 8.0232829 0.68574626 L 7.97264 0.62683512 A 0.28949396 0.28949396 0 0 0 7.9648885 0.6170166 L 7.9101115 0.56068929 A 0.28949396 0.28949396 0 0 0 7.900293 0.55087077 L 7.8439657 0.49609375 A 0.28949396 0.28949396 0 0 0 7.8341471 0.48627523 L 7.775236 0.43563232 A 0.28949396 0.28949396 0 0 0 7.7638672 0.42788086 L 7.702889 0.37878825 A 0.28949396 0.28949396 0 0 0 7.6915202 0.37103678 L 7.667749 0.3534668 A 0.28946501 0.28946501 0 0 0 7.5080688 0.30024007 z M 0.41237793 0.8893514 A 0.26697455 0.26697455 0 0 0 0.30954183 0.90588786 A 0.26697455 0.26697455 0 0 0 0.16019694 1.0464478 L 0.14934489 1.0681519 A 0.26700125 0.26700125 0 0 0 0.14572754 1.0790039 L 0.11885579 1.1472168 A 0.26700125 0.26700125 0 0 0 0.11317139 1.1601359 L 0.089916992 1.2304159 A 0.26700125 0.26700125 0 0 0 0.086299642 1.2428182 L 0.066662598 1.3130981 A 0.26700125 0.26700125 0 0 0 0.063045247 1.3255005 L 0.046508789 1.3993978 A 0.26700125 0.26700125 0 0 0 0.042891439 1.4123169 L 0.030489095 1.4862142 A 0.26700125 0.26700125 0 0 0 0.028422038 1.4986165 L 0.018086751 1.5745809 A 0.26700125 0.26700125 0 0 0 0.018086751 1.5885335 L 0.012402344 1.6515788 A 0.26697455 0.26697455 0 0 0 0.25734863 1.938383 A 0.26697455 0.26697455 0 0 0 0.54363607 1.6913696 L 0.54932048 1.6355591 L 0.55655518 1.5745809 L 0.56740723 1.5130859 L 0.58187663 1.453658 L 0.59789632 1.3942301 L 0.61753337 1.3384196 L 0.63923747 1.280542 L 0.64647217 1.2660726 A 0.26697455 0.26697455 0 0 0 0.51314697 0.91312256 A 0.26697455 0.26697455 0 0 0 0.41237793 0.8893514 z M 5.0699748 0.96479899 A 0.28946501 0.28946501 0 0 0 4.7971232 1.1348145 L 4.7873047 1.1580688 A 0.28949396 0.28949396 0 0 0 4.7811035 1.1699544 L 4.7521647 1.2443685 A 0.28949396 0.28949396 0 0 0 4.7459635 1.2578044 L 4.7206421 1.3337687 A 0.28949396 0.28949396 0 0 0 4.7170247 1.3477214 L 4.6953206 1.4236857 A 0.28949396 0.28949396 0 0 0 4.6911865 1.4376383 L 4.6736165 1.5177368 A 0.28949396 0.28949396 0 0 0 4.6699992 1.5311727 L 4.6565633 1.6066203 C 4.5967578 1.5483479 4.5151252 1.5121793 4.4250529 1.5120524 L 3.7589437 1.5120524 C 3.6588486 1.5121934 3.5691794 1.5566787 3.508313 1.6267741 A 0.26697455 0.26697455 0 0 0 3.2835205 1.4949992 A 0.26697455 0.26697455 0 0 0 3.0101522 1.7544149 L 3.0080851 1.8246948 L 3.0044678 1.8877401 L 2.9956828 1.9507853 L 2.9848307 2.0102132 L 2.9719116 2.0696411 L 2.9538249 2.129069 L 2.9362549 2.1869466 A 0.26697455 0.26697455 0 0 0 3.0855998 2.5326619 A 0.26697455 0.26697455 0 0 0 3.4313151 2.3833171 L 3.4349325 2.3760824 A 0.26700125 0.26700125 0 0 0 3.4385498 2.3631632 L 3.462321 2.2928833 A 0.26700125 0.26700125 0 0 0 3.4674886 2.280481 L 3.4871257 2.210201 A 0.26700125 0.26700125 0 0 0 3.490743 2.1977987 L 3.5072795 2.1239014 A 0.26700125 0.26700125 0 0 0 3.5088298 2.1109823 L 3.5165812 2.0727417 C 3.5771435 2.1374826 3.6632677 2.1780277 3.7589437 2.1781616 L 4.4250529 2.1781616 C 4.5490296 2.1779881 4.6568926 2.1098012 4.7139242 2.0091797 A 0.28946501 0.28946501 0 0 0 4.9040934 2.1016805 A 0.28946501 0.28946501 0 0 0 5.2146688 1.8339966 L 5.2188029 1.7735352 L 5.2265544 1.7068726 L 5.2384399 1.6407267 L 5.2539429 1.5761312 L 5.2715129 1.5115356 L 5.293217 1.4510742 L 5.3164714 1.3885457 L 5.3242228 1.3730428 A 0.28946501 0.28946501 0 0 0 5.1795288 0.99012044 A 0.28946501 0.28946501 0 0 0 5.0699748 0.96479899 z M 8.1834798 1.6210897 A 0.28946501 0.28946501 0 0 0 7.8889242 1.9022095 L 7.8868571 1.9786906 L 7.8806559 2.0469035 L 7.8729045 2.1151164 L 7.8615356 2.1797119 L 7.845516 2.2443075 L 7.827946 2.3083862 L 7.8067586 2.3709147 A 0.28946501 0.28946501 0 0 0 7.9685059 2.7460856 A 0.28946501 0.28946501 0 0 0 8.3457438 2.5838216 L 8.3478109 2.5760701 A 0.28949396 0.28949396 0 0 0 8.3534953 2.5626343 L 8.3788167 2.4861532 A 0.28949396 0.28949396 0 0 0 8.3829508 2.4727173 L 8.4041382 2.3962362 A 0.28949396 0.28949396 0 0 0 8.4082723 2.3828003 L 8.4258423 2.3027018 A 0.28949396 0.28949396 0 0 0 8.4294596 2.289266 L 8.4434123 2.2091675 A 0.28949396 0.28949396 0 0 0 8.4454793 2.1952148 L 8.4552979 2.1130493 A 0.28949396 0.28949396 0 0 0 8.4568481 2.0975464 L 8.4630493 2.0153809 A 0.28949396 0.28949396 0 0 0 8.4645996 2.001945 L 8.4666667 1.9177124 A 0.28946501 0.28946501 0 0 0 8.1834798 1.6210897 z M 0.56172282 2.4055379 A 0.26697455 0.26697455 0 0 0 0.41754557 2.462382 A 0.26697455 0.26697455 0 0 0 0.37258708 2.8370361 L 0.40876058 2.8819946 A 0.26700125 0.26700125 0 0 0 0.41599528 2.8912964 L 0.46302083 2.9450399 A 0.26700125 0.26700125 0 0 0 0.47180583 2.9558919 L 0.52244873 3.0080851 A 0.26700125 0.26700125 0 0 0 0.53123372 3.0173869 L 0.58342692 3.0659627 A 0.26700125 0.26700125 0 0 0 0.59272868 3.0747477 L 0.64647217 3.1217733 A 0.26700125 0.26700125 0 0 0 0.65732422 3.1305583 L 0.71313477 3.1739665 A 0.26700125 0.26700125 0 0 0 0.72398682 3.1827515 L 0.78186442 3.2246094 A 0.26700125 0.26700125 0 0 0 0.79219971 3.2318441 L 0.83044027 3.2550985 A 0.26697455 0.26697455 0 0 0 1.19941 3.1739665 A 0.26697455 0.26697455 0 0 0 1.118278 2.806547 L 1.0862386 2.7848429 L 1.0376628 2.7507365 L 0.9921875 2.714563 L 0.947229 2.6747721 L 0.90433757 2.633431 L 0.86247965 2.5920898 L 0.82475586 2.5471313 L 0.79219971 2.5073405 A 0.26697455 0.26697455 0 0 0 0.61391602 2.4065715 A 0.26697455 0.26697455 0 0 0 0.56172282 2.4055379 z M 5.2332723 2.6081095 A 0.28946501 0.28946501 0 0 0 5.0761759 2.6701213 A 0.28946501 0.28946501 0 0 0 5.0276001 3.076298 L 5.0663574 3.1248739 A 0.28949396 0.28949396 0 0 0 5.0741089 3.1346924 L 5.1268188 3.1936035 A 0.28949396 0.28949396 0 0 0 5.1345703 3.2049723 L 5.1893473 3.2618164 A 0.28949396 0.28949396 0 0 0 5.1991659 3.2716349 L 5.2560099 3.3243449 A 0.28949396 0.28949396 0 0 0 5.2658285 3.3341634 L 5.3242228 3.3848063 A 0.28949396 0.28949396 0 0 0 5.3361084 3.3946248 L 5.3965698 3.4416504 A 0.28949396 0.28949396 0 0 0 5.4084554 3.4509521 L 5.4725342 3.4959106 A 0.28949396 0.28949396 0 0 0 5.4844198 3.5041789 L 5.5236938 3.5295003 A 0.28946501 0.28946501 0 0 0 5.9236694 3.4416504 A 0.28946501 0.28946501 0 0 0 5.8358195 3.0432251 L 5.8027466 3.0194539 L 5.7500366 2.9822469 L 5.6993937 2.9434896 L 5.6503011 2.9005981 L 5.6032756 2.8556396 L 5.5588338 2.8106812 L 5.5174927 2.7615885 L 5.4844198 2.7186971 A 0.28946501 0.28946501 0 0 0 5.2332723 2.6081095 z M 2.5197428 2.8096476 A 0.26697455 0.26697455 0 0 0 2.3688477 2.8442708 L 2.3652303 2.8463379 L 2.3109701 2.8747599 L 2.2567098 2.8985311 L 2.2008993 2.9217855 L 2.1435384 2.9398722 L 2.0856608 2.9558919 L 2.0246826 2.9703613 L 1.9652547 2.9812134 L 1.9631877 2.9812134 A 0.26697455 0.26697455 0 0 0 1.7327108 3.2804199 A 0.26697455 0.26697455 0 0 0 2.0319173 3.5108968 L 2.039152 3.5108968 A 0.26700125 0.26700125 0 0 0 2.0515544 3.5088298 L 2.1254517 3.4943604 A 0.26700125 0.26700125 0 0 0 2.1399211 3.4928101 L 2.2117513 3.4747233 A 0.26700125 0.26700125 0 0 0 2.2246704 3.473173 L 2.2965007 3.4514689 A 0.26700125 0.26700125 0 0 0 2.3094198 3.4478516 L 2.3776326 3.4245972 A 0.26700125 0.26700125 0 0 0 2.390035 3.4209798 L 2.4587646 3.3935913 A 0.26700125 0.26700125 0 0 0 2.471167 3.3884237 L 2.5378296 3.3579346 A 0.26700125 0.26700125 0 0 0 2.5486816 3.3522502 L 2.6137939 3.319694 A 0.26700125 0.26700125 0 0 0 2.624646 3.3124593 L 2.633431 3.3072917 A 0.26697455 0.26697455 0 0 0 2.7326497 2.9434896 A 0.26697455 0.26697455 0 0 0 2.5197428 2.8096476 z M 7.3545898 3.0473592 A 0.28946501 0.28946501 0 0 0 7.1912923 3.0840495 L 7.187675 3.0861165 L 7.1287638 3.1171224 L 7.0703695 3.1424438 L 7.009908 3.1677653 L 6.9473796 3.1874023 L 6.8848511 3.2049723 L 6.8202555 3.2204753 L 6.7541097 3.2323608 A 0.28946501 0.28946501 0 0 0 6.5014119 3.5357015 C 6.4132798 3.5953809 6.3553279 3.696121 6.3551676 3.8106201 L 6.3551676 4.4767293 C 6.35525 4.535559 6.3706782 4.5905815 6.3975423 4.6384766 A 1.9171828 1.9171828 0 0 0 4.6322754 6.549471 A 1.9171828 1.9171828 0 0 0 6.549471 8.4666667 A 1.9171828 1.9171828 0 0 0 8.4666667 6.549471 A 1.9171828 1.9171828 0 0 0 6.9546143 4.6756836 C 6.9963089 4.6202135 7.0211716 4.551445 7.0212769 4.4767293 L 7.0212769 3.8106201 C 7.0212567 3.7963023 7.019952 3.7820848 7.0181763 3.7682454 L 7.0212769 3.7677287 A 0.28949396 0.28949396 0 0 0 7.0352295 3.7656616 L 7.1132609 3.7424072 A 0.28949396 0.28949396 0 0 0 7.1266968 3.7382731 L 7.2011108 3.7129517 A 0.28949396 0.28949396 0 0 0 7.2150635 3.7088175 L 7.2889608 3.6798787 A 0.28949396 0.28949396 0 0 0 7.3029134 3.6736776 L 7.3747437 3.6406047 A 0.28949396 0.28949396 0 0 0 7.3866292 3.6349202 L 7.4569092 3.5997803 A 0.28949396 0.28949396 0 0 0 7.4708618 3.5920288 L 7.4806803 3.5858276 A 0.28946501 0.28946501 0 0 0 7.5861003 3.1915365 A 0.28946501 0.28946501 0 0 0 7.4104004 3.056661 A 0.28946501 0.28946501 0 0 0 7.3545898 3.0473592 z " />
</svg>
