<?xml version="1.0" encoding="UTF-8" standalone="no"?>
<!-- Created with Inkscape (http://www.inkscape.org/) -->

<svg
   width="32"
   height="32"
   viewBox="0 0 8.4666666 8.4666666"
   version="1.1"
   id="svg8"
   inkscape:version="1.1.1 (3bf5ae0d25, 2021-09-20)"
   sodipodi:docname="snap_ik.svg"
   xmlns:inkscape="http://www.inkscape.org/namespaces/inkscape"
   xmlns:sodipodi="http://sodipodi.sourceforge.net/DTD/sodipodi-0.dtd"
   xmlns="http://www.w3.org/2000/svg"
   xmlns:svg="http://www.w3.org/2000/svg"
   xmlns:rdf="http://www.w3.org/1999/02/22-rdf-syntax-ns#"
   xmlns:cc="http://creativecommons.org/ns#"
   xmlns:dc="http://purl.org/dc/elements/1.1/">
  <defs
     id="defs2">
    <style
       id="style1399">.cls-1{fill:#e3e3e3;}</style>
    <style
       id="style1399-4">.cls-1{fill:#e3e3e3;}</style>
    <style
       id="style1399-8">.cls-1{fill:#e3e3e3;}</style>
    <style
       id="style1399-4-5">.cls-1{fill:#e3e3e3;}</style>
    <style
       id="style1399-0">.cls-1{fill:#e3e3e3;}</style>
  </defs>
  <sodipodi:namedview
     id="base"
     pagecolor="#ffffff"
     bordercolor="#666666"
     borderopacity="1.0"
     inkscape:pageopacity="0.0"
     inkscape:pageshadow="2"
     inkscape:zoom="15.999999"
     inkscape:cx="7.7812503"
     inkscape:cy="17.718751"
     inkscape:document-units="mm"
     inkscape:current-layer="svg8"
     showgrid="false"
     units="px"
     inkscape:window-width="3440"
     inkscape:window-height="1369"
     inkscape:window-x="1912"
     inkscape:window-y="-8"
     inkscape:window-maximized="1"
     inkscape:snap-bbox="true"
     inkscape:bbox-paths="true"
     inkscape:bbox-nodes="true"
     inkscape:snap-bbox-edge-midpoints="true"
     inkscape:snap-bbox-midpoints="true"
     inkscape:snap-nodes="false"
     inkscape:snap-others="true"
     inkscape:snap-object-midpoints="true"
     inkscape:snap-page="true"
     inkscape:pagecheckerboard="1">
    <sodipodi:guide
       position="8.4666666,0"
       orientation="-32,0"
       id="guide854"
       inkscape:locked="false" />
    <sodipodi:guide
       position="9.9384114,8.4666666"
       orientation="0,-32"
       id="guide856"
       inkscape:locked="false" />
    <sodipodi:guide
       position="0,8.4666814"
       orientation="32,0"
       id="guide858"
       inkscape:locked="false" />
  </sodipodi:namedview>
  <metadata
     id="metadata5">
    <rdf:RDF>
      <cc:Work
         rdf:about="">
        <dc:format>image/svg+xml</dc:format>
        <dc:type
           rdf:resource="http://purl.org/dc/dcmitype/StillImage" />
      </cc:Work>
    </rdf:RDF>
  </metadata>
  <path
     id="path828"
     style="opacity:1;fill:#b1b1b1;fill-opacity:1;stroke:none;stroke-width:1.19808;stroke-linecap:butt;stroke-linejoin:miter;stroke-miterlimit:4;stroke-dasharray:none;stroke-dashoffset:0;stroke-opacity:1"
     d="M 7.7920532,8.3766599 C 7.8682575,8.3438312 7.9419239,8.3017086 8.0116693,8.2505084 8.5076348,7.8864158 8.6147605,7.1889417 8.2506682,6.692976 7.8865758,6.1970105 7.1892327,6.0902202 6.6932668,6.4543127 6.5939513,6.5277732 6.5074922,6.6172376 6.437534,6.7190509 L 4.3596091,6.4287012 4.5096225,6.2817112 A 0.26673489,0.26673489 0 1 0 4.1363425,5.9012049 L 3.755313,6.2731423 A 0.26673489,0.26673489 0 0 0 3.705684,6.3373313 L 3.690178,6.3352513 C 3.4259009,6.2947261 3.1806927,6.4747022 3.1401706,6.7389782 l -0.00148,0.00909 c -0.020261,0.1321401 0.01421,0.2594704 0.087214,0.3589146 0.073003,0.099445 0.1843738,0.1708336 0.3165125,0.1910945 l 2.7476166,0.3844715 c 0.036237,0.1180972 0.09183,0.229324 0.1645723,0.3291672 0.2958251,0.4029722 0.811405,0.5492191 1.2604313,0.3945606 0.025906,-0.00892 0.051618,-0.018669 0.077019,-0.029614 z M 7.6799139,5.966343 7.5018796,4.522536 C 7.6065726,4.4569658 7.6996179,4.3744883 7.7772326,4.2783842 8.1620647,3.7983327 8.0845732,3.0970721 7.6045215,2.71224 7.12447,2.3274079 6.423545,2.4047687 6.0387129,2.8848203 5.7414483,3.2556374 5.7210294,3.7575786 5.9478143,4.1445213 L 5.7330588,4.354627 c -0.2182839,0.2066654 0.019078,0.5603359 0.2931426,0.4368584 0.03005,-0.013594 0.057031,-0.032819 0.080138,-0.056352 L 6.3209462,4.5266321 c 0.066962,0.041229 0.1377347,0.076316 0.2120577,0.1026256 L 6.7123851,6.0795003 C 7.0173397,5.9266466 7.360339,5.8914606 7.6799139,5.966343 Z M 5.0310732,5.7580134 a 0.26673489,0.26673489 0 0 0 0.080473,-0.056483 L 5.4920529,5.3282503 A 0.26673489,0.26673489 0 1 0 5.1187726,4.9477441 L 4.7382663,5.3210243 a 0.26673489,0.26673489 0 0 0 0.2928069,0.4369891 z" />
  <path
     id="path11"
     d="M 3.6968817,2.4413224 4.7314354,1.4067688 a 0.11545316,0.11545316 0 0 1 0.1632756,0 l 0.5442516,0.544251 a 0.34635947,0.34635947 0 0 1 0,0.4898263 L 4.7314354,3.1483726 a 0.34635947,0.34635947 0 0 1 -0.4898258,0 L 3.697358,2.6041218 A 0.11439484,0.11439484 0 0 1 3.6968817,2.4413224 Z M 1.4115018,4.8899773 1.956434,5.4349094 a 0.34635947,0.34635947 0 0 0 0.4898257,0 L 3.153787,4.7273821 a 0.34635947,0.34635947 0 0 0 0,-0.4898263 L 2.6095354,3.6933048 a 0.11545316,0.11545316 0 0 0 -0.1632751,0 L 1.4121824,4.7273821 A 0.11439484,0.11439484 0 0 0 1.4115281,4.8899773 Z M 2.2278789,3.4749241 a 0.11545316,0.11545316 0 0 0 0,-0.1632758 L 1.8741159,2.9578847 C 1.0026331,2.0864026 2.0924968,0.9992605 2.9626185,1.8693823 l 0.3537636,0.3537635 a 0.11545316,0.11545316 0 0 0 0.163275,0 L 4.5130545,1.1897485 A 0.11545316,0.11545316 0 0 0 4.5124002,1.0257922 C 4.3661324,0.88088559 4.2341511,0.75570777 4.1497925,0.66318469 3.1252391,-0.36136818 1.5457533,-0.08808577 0.72543031,0.73223657 -0.094892,1.5525595 -0.35626887,3.1201396 0.66896409,4.1453736 c 0.0911613,0.082999 0.22586557,0.2231421 0.36192761,0.361927 a 0.11545316,0.11545316 0 0 0 0.1639556,6.544e-4 z"
     inkscape:connector-curvature="0"
     style="fill:#b1b1b1;fill-opacity:1;stroke-width:0.00962112" />
</svg>
