<?xml version="1.0" encoding="UTF-8" standalone="no"?>
<svg
   xmlns:dc="http://purl.org/dc/elements/1.1/"
   xmlns:cc="http://creativecommons.org/ns#"
   xmlns:rdf="http://www.w3.org/1999/02/22-rdf-syntax-ns#"
   xmlns:svg="http://www.w3.org/2000/svg"
   xmlns="http://www.w3.org/2000/svg"
   xmlns:sodipodi="http://sodipodi.sourceforge.net/DTD/sodipodi-0.dtd"
   xmlns:inkscape="http://www.inkscape.org/namespaces/inkscape"
   id="Calque_1"
   data-name="Calque 1"
   viewBox="0 0 32 32"
   version="1.1"
   sodipodi:docname="tial.svg"
   inkscape:version="1.0.2-2 (e86c870879, 2021-01-15)"
   inkscape:export-filename="D:\DEV_SRC\RxOT\DuAEF_Duik\icons\w16/w16_tail.png"
   inkscape:export-xdpi="48"
   inkscape:export-ydpi="48">
  <metadata
     id="metadata31">
    <rdf:RDF>
      <cc:Work
         rdf:about="">
        <dc:format>image/svg+xml</dc:format>
        <dc:type
           rdf:resource="http://purl.org/dc/dcmitype/StillImage" />
        <dc:title>body_l</dc:title>
      </cc:Work>
    </rdf:RDF>
  </metadata>
  <sodipodi:namedview
     pagecolor="#ffffff"
     bordercolor="#666666"
     borderopacity="1"
     objecttolerance="10"
     gridtolerance="10"
     guidetolerance="10"
     inkscape:pageopacity="0"
     inkscape:pageshadow="2"
     inkscape:window-width="3440"
     inkscape:window-height="1417"
     id="namedview29"
     showgrid="false"
     inkscape:snap-bbox="true"
     inkscape:bbox-paths="true"
     inkscape:bbox-nodes="true"
     inkscape:snap-bbox-edge-midpoints="true"
     inkscape:snap-bbox-midpoints="true"
     inkscape:snap-nodes="false"
     inkscape:zoom="10.429825"
     inkscape:cx="13.857408"
     inkscape:cy="19.42407"
     inkscape:window-x="1915"
     inkscape:window-y="-8"
     inkscape:window-maximized="1"
     inkscape:current-layer="Calque_1"
     inkscape:document-rotation="0" />
  <defs
     id="defs4">
    <style
       id="style2">.cls-1{fill:#e3e3e3;}</style>
    <style
       id="style857">.cls-1{fill:#e3e3e3;}</style>
  </defs>
  <title
     id="title6">body_l</title>
  <g
     id="g950"
     transform="matrix(1.1198573,0,0,1.1198573,-2.6284179,-2.7731985)"
     style="fill:#b1b1b1;fill-opacity:1">
    <path
       id="path871"
       d="m 10.35,24.17 c -0.03181,0.790428 0.05057,1.594483 0.25,2.36 0.15172,0.582383 0.43362,1.125394 0.71,1.66 0.325027,0.628704 1.667322,1.373762 1.11,1.81 C 11.141148,31.001007 9.6954464,27.997594 9,26.53 8.7057012,25.908944 8.5711837,25.134766 8.78,24.48 c 0.2934553,-0.92016 1.0525138,-2.594592 1.92,-2.17 0.566648,0.277347 -0.324627,1.229629 -0.35,1.86 z"
       class="cls-1"
       inkscape:connector-curvature="0"
       style="fill:#b1b1b1;fill-opacity:1"
       sodipodi:nodetypes="aaaaaaaa" />
    <path
       id="path873"
       d="m 12.09,24 c 0.0088,0.758969 0.12292,1.525745 0.35,2.25 0.173051,0.551934 0.471575,1.058613 0.76,1.56 0.340212,0.591411 1.657749,1.25565 1.14,1.7 -1.181551,1.014047 -2.709496,-1.784966 -3.44,-3.16 -0.316275,-0.595327 -0.47466,-1.348895 -0.3,-2 0.239678,-0.893482 0.878706,-2.532013 1.73,-2.17 0.563117,0.239465 -0.2471,1.208123 -0.24,1.82 z"
       class="cls-1"
       inkscape:connector-curvature="0"
       style="fill:#b1b1b1;fill-opacity:1"
       sodipodi:nodetypes="aaaaaaaa" />
    <path
       id="path875"
       d="m 14,23.75 c 0.05646,0.724171 0.201614,1.451142 0.46,2.13 0.197521,0.518949 0.51423,0.986505 0.82,1.45 0.36015,0.545927 1.662253,1.107538 1.19,1.56 C 15.383069,29.931379 13.779189,27.287926 13,26 c -0.328271,-0.542601 -0.525844,-1.238437 -0.4,-1.86 0.172862,-0.853793 0.677084,-2.425752 1.5,-2.14 0.551955,0.191663 -0.145416,1.167483 -0.1,1.75 z"
       class="cls-1"
       inkscape:connector-curvature="0"
       style="fill:#b1b1b1;fill-opacity:1"
       sodipodi:nodetypes="aaaaaaaa" />
    <path
       id="path877"
       d="m 15.91,23.33 c 0.10312,0.688339 0.303162,1.370451 0.6,2 0.2275,0.482493 0.564079,0.907707 0.89,1.33 0.380884,0.493508 1.655523,0.935282 1.24,1.4 -0.953601,1.0665 -2.672876,-1.309827 -3.51,-2.47 -0.358505,-0.496853 -0.604933,-1.15191 -0.53,-1.76 0.103475,-0.839711 0.483667,-2.402312 1.3,-2.18 0.540332,0.147149 -0.07297,1.12617 0.01,1.68 z"
       class="cls-1"
       inkscape:connector-curvature="0"
       style="fill:#b1b1b1;fill-opacity:1"
       sodipodi:nodetypes="aaaaaaaa" />
    <path
       id="path879"
       d="m 17.8,22.77 c 0.167995,0.645161 0.413584,1.280394 0.76,1.85 0.267904,0.44051 0.645415,0.805712 1,1.18 0.400553,0.42281 1.615225,0.730925 1.27,1.2 -0.806789,1.096227 -2.659532,-0.979324 -3.56,-2 -0.385757,-0.437254 -0.67209,-1.03703 -0.66,-1.62 0.01664,-0.802331 0.207035,-2.313362 1,-2.19 0.524156,0.08154 0.05633,1.066657 0.19,1.58 z"
       class="cls-1"
       inkscape:connector-curvature="0"
       style="fill:#b1b1b1;fill-opacity:1"
       sodipodi:nodetypes="aaaaaaaa" />
    <path
       id="path881"
       d="m 19.56,22 c 0.23451,0.591067 0.548864,1.158634 0.94,1.66 0.297299,0.381083 0.677948,0.691473 1.05,1 0.439364,0.364346 1.666826,0.500844 1.39,1 -0.630754,1.137338 -2.632243,-0.622457 -3.61,-1.48 -0.418696,-0.367218 -0.771123,-0.896205 -0.83,-1.45 -0.08136,-0.765247 -0.06912,-2.226115 0.7,-2.2 0.504189,0.01712 0.173952,1.00108 0.36,1.47 z"
       class="cls-1"
       inkscape:connector-curvature="0"
       style="fill:#b1b1b1;fill-opacity:1"
       sodipodi:nodetypes="aaaaaaaa" />
    <path
       id="path883"
       d="m 21.09,21.13 c 0.312101,0.517025 0.703841,0.992981 1.15,1.4 0.34219,0.312171 0.748698,0.548696 1.15,0.78 0.464997,0.268017 1.627243,0.193403 1.45,0.7 -0.407512,1.164756 -2.561732,-0.168957 -3.61,-0.82 -0.448878,-0.278783 -0.857883,-0.721066 -1,-1.23 -0.195507,-0.700127 -0.420753,-2.065581 0.3,-2.16 0.476954,-0.06248 0.311409,0.918185 0.56,1.33 z"
       class="cls-1"
       inkscape:connector-curvature="0"
       style="fill:#b1b1b1;fill-opacity:1"
       sodipodi:nodetypes="aaaaaaaa" />
    <path
       id="path885"
       d="m 22.36,19.84 c 0.399656,0.412293 0.852416,0.783432 1.35,1.07 0.378696,0.218098 0.803386,0.34805 1.22,0.48 0.484022,0.153299 1.54043,-0.144109 1.48,0.36 -0.139256,1.161683 -2.405555,0.386135 -3.51,0 -0.474704,-0.165966 -0.943229,-0.496347 -1.18,-0.94 -0.324403,-0.607853 -0.814661,-1.816825 -0.17,-2.06 0.42354,-0.159765 0.494933,0.764971 0.81,1.09 z"
       class="cls-1"
       inkscape:connector-curvature="0"
       style="fill:#b1b1b1;fill-opacity:1"
       sodipodi:nodetypes="aaaaaaaa" />
    <path
       id="path887"
       d="m 23.32,18.18 c 0.460806,0.285096 0.96717,0.507625 1.49,0.65 0.401718,0.109394 0.824407,0.124955 1.24,0.15 0.475803,0.02867 1.371064,-0.473009 1.43,0 0.136044,1.091865 -2.104345,0.911083 -3.2,0.81 -0.467824,-0.04316 -0.962643,-0.24358 -1.28,-0.59 -0.440153,-0.480461 -1.194368,-1.467135 -0.66,-1.84 0.349307,-0.243736 0.617783,0.5959 0.98,0.82 z"
       class="cls-1"
       inkscape:connector-curvature="0"
       style="fill:#b1b1b1;fill-opacity:1"
       sodipodi:nodetypes="aaaaaaaa" />
    <path
       id="path889"
       d="m 23.94,16.19 c 0.492521,0.136305 1.009,0.205907 1.52,0.2 0.391268,-0.0045 0.778461,-0.09317 1.16,-0.18 0.438022,-0.09968 1.112023,-0.802461 1.29,-0.39 0.41115,0.952838 -1.68157,1.350639 -2.7,1.55 -0.439042,0.08594 -0.946574,0.0505 -1.33,-0.18 -0.52406,-0.31504 -1.453811,-1.013998 -1.07,-1.49 0.257702,-0.319602 0.734318,0.380495 1.13,0.49 z"
       class="cls-1"
       inkscape:connector-curvature="0"
       style="fill:#b1b1b1;fill-opacity:1"
       sodipodi:nodetypes="aaaaaaaa" />
    <path
       id="path891"
       d="m 24.1,14.07 c 0.483649,0.0092 0.973716,-0.05124 1.44,-0.18 0.351035,-0.09694 0.67644,-0.272875 1,-0.44 0.369251,-0.190725 0.817686,-0.970242 1.07,-0.64 0.583949,0.764303 -1.212259,1.585052 -2.08,2 -0.381949,0.182645 -0.85421,0.280743 -1.26,0.16 -0.532629,-0.158484 -1.503405,-0.575685 -1.27,-1.08 0.156053,-0.337182 0.728523,0.17297 1.1,0.18 z"
       class="cls-1"
       inkscape:connector-curvature="0"
       style="fill:#b1b1b1;fill-opacity:1"
       sodipodi:nodetypes="aaaaaaaa" />
    <path
       id="path893"
       d="m 23.63,11.54 c 0.440613,-0.09704 0.87834,-0.234513 1.28,-0.44 0.308752,-0.157956 0.580711,-0.381457 0.85,-0.6 0.300348,-0.243748 0.555144,-1.0403643 0.85,-0.79 0.698382,0.593002 -0.793957,1.731206 -1.52,2.29 -0.312419,0.240451 -0.726881,0.409664 -1.12,0.38 -0.527755,-0.03982 -1.50873,-0.210035 -1.41,-0.73 0.06689,-0.352253 0.719845,-0.03289 1.07,-0.11 z"
       class="cls-1"
       inkscape:connector-curvature="0"
       style="fill:#b1b1b1;fill-opacity:1"
       sodipodi:nodetypes="aaaaaaaa" />
    <path
       id="path895"
       d="M 22.51,8.84 C 22.89691,8.6674354 23.264848,8.4415765 23.59,8.17 23.83816,7.9627296 24.0408,7.7046838 24.24,7.45 24.460426,7.1681781 24.523169,6.3937799 24.84,6.56 25.584929,6.9508145 24.459063,8.2641931 23.92,8.91 23.684068,9.1926509 23.344054,9.4350433 22.98,9.49 22.493152,9.563493 21.557534,9.6123063 21.55,9.12 21.5449,8.7867057 22.205573,8.9757767 22.51,8.84 Z"
       class="cls-1"
       inkscape:connector-curvature="0"
       style="fill:#b1b1b1;fill-opacity:1"
       sodipodi:nodetypes="aaaaaaaa" />
    <path
       id="path897"
       d="M 21,6.93 C 21.292391,6.6726922 21.563365,6.3836805 21.78,6.06 21.946677,5.8109641 22.057392,5.5277038 22.17,5.25 22.292793,4.9471804 22.15974,4.2551047 22.48,4.32 23.233693,4.4727232 22.602566,5.9130125 22.3,6.62 22.164401,6.936845 21.922023,7.2436468 21.61,7.39 21.20231,7.5812251 20.401749,7.8674167 20.26,7.44 20.1657,7.1556553 20.775107,7.1279083 21,6.93 Z"
       class="cls-1"
       inkscape:connector-curvature="0"
       style="fill:#b1b1b1;fill-opacity:1"
       sodipodi:nodetypes="aaaaaaaa" />
    <path
       id="path899"
       d="m 19.17,5.71 c 0.19751,-0.3075726 0.347551,-0.6491221 0.45,-1 0.07742,-0.2651726 0.09995,-0.5444841 0.12,-0.82 0.02154,-0.295884 -0.295196,-0.8604943 0,-0.89 0.70382,-0.070349 0.499936,1.3772046 0.42,2.08 -0.03557,0.3127497 -0.158064,0.647201 -0.39,0.86 -0.302189,0.2772555 -0.92984,0.749434 -1.16,0.41 -0.159088,-0.2346198 0.406829,-0.4014747 0.56,-0.64 z"
       class="cls-1"
       inkscape:connector-curvature="0"
       style="fill:#b1b1b1;fill-opacity:1"
       sodipodi:nodetypes="aaaaaaaa" />
    <path
       id="path901"
       d="M 17.13,5 C 17.22081,4.6754019 17.274773,4.3370219 17.28,4 17.284,3.7449272 17.23724,3.4906917 17.19,3.24 17.14344,2.9929082 16.764807,2.5989185 17,2.51 17.600987,2.282787 17.772382,3.5949552 17.87,4.23 17.91363,4.5138172 17.88089,4.8356897 17.73,5.08 17.533097,5.3988105 17.113708,5.972695 16.82,5.74 16.610379,5.573924 17.057945,5.2575467 17.13,5 Z"
       class="cls-1"
       inkscape:connector-curvature="0"
       style="fill:#b1b1b1;fill-opacity:1"
       sodipodi:nodetypes="aaaaaaaa" />
    <path
       id="path903"
       d="M 15.06,4.83 C 15.080071,4.5300048 15.058691,4.224882 15,3.93 14.955349,3.7056598 14.866692,3.4916758 14.78,3.28 14.690161,3.0606421 14.269245,2.7660417 14.47,2.64 c 0.486303,-0.3053203 0.863906,0.8140556 1.07,1.35 0.09351,0.2431738 0.135053,0.5337404 0.05,0.78 -0.109437,0.3168615 -0.370313,0.9002191 -0.67,0.75 -0.209805,-0.1051654 0.124333,-0.455837 0.14,-0.69 z"
       class="cls-1"
       inkscape:connector-curvature="0"
       style="fill:#b1b1b1;fill-opacity:1"
       sodipodi:nodetypes="aaaaaaaa" />
    <path
       id="path905"
       d="M 13.15,5 C 13.120104,4.7270417 13.0882,4.4500399 13,4.19 12.93392,3.9951778 12.82626,3.8161564 12.72,3.64 12.61252,3.4618203 12.204704,3.2685031 12.36,3.13 c 0.373517,-0.333127 0.864874,0.5694196 1.12,1 0.120354,0.2031238 0.199006,0.4571418 0.16,0.69 C 13.59126,5.1109788 13.454937,5.6465204 13.17,5.57 12.986389,5.5206908 13.170699,5.1889867 13.15,5 Z"
       class="cls-1"
       inkscape:connector-curvature="0"
       style="fill:#b1b1b1;fill-opacity:1"
       sodipodi:nodetypes="aaaaaaaa" />
    <path
       id="path907"
       d="M 11.28,5.41 C 11.228099,5.1735784 11.115948,4.9524734 11,4.74 10.912747,4.5801102 10.800946,4.4344605 10.69,4.29 10.580551,4.1474878 10.216814,4.0108211 10.34,3.88 c 0.303468,-0.3222775 0.79443,0.4458418 1.06,0.8 0.12405,0.1654302 0.226846,0.3733392 0.22,0.58 -0.0085,0.2564177 -0.06837,0.7500183 -0.32,0.7 -0.179934,-0.035766 0.01934,-0.3708124 -0.02,-0.55 z"
       class="cls-1"
       inkscape:connector-curvature="0"
       style="fill:#b1b1b1;fill-opacity:1"
       sodipodi:nodetypes="aaaaaaaa" />
    <path
       id="path909"
       d="M 9.62,6 C 9.5452325,5.808257 9.467831,5.6152941 9.36,5.44 9.2754437,5.3025421 9.1691118,5.1789077 9.06,5.06 8.9579601,4.9487991 8.6385494,4.8700607 8.73,4.75 8.9665933,4.4393891 9.4693385,5.069292 9.73,5.36 9.8504531,5.4943377 9.9472456,5.6700198 9.96,5.85 9.9752795,6.0656125 9.9861496,6.46875 9.77,6.47 9.6055508,6.470951 9.6797443,6.1532157 9.62,6 Z"
       class="cls-1"
       inkscape:connector-curvature="0"
       style="fill:#b1b1b1;fill-opacity:1"
       sodipodi:nodetypes="aaaaaaaa" />
    <path
       id="path911"
       d="M 8.29,6.56 C 8.2203081,6.3926722 8.110663,6.2435593 8,6.1 7.9164882,5.9916631 7.8178915,5.8955425 7.72,5.8 7.6338254,5.7158933 7.379881,5.6578945 7.45,5.56 7.6308069,5.3075718 8.0398557,5.8010306 8.26,6.02 8.3690462,6.1284642 8.4657095,6.2681266 8.49,6.42 8.518496,6.5981672 8.5604205,6.9480011 8.38,6.95 8.2465915,6.951478 8.3412965,6.6831611 8.29,6.56 Z"
       class="cls-1"
       inkscape:connector-curvature="0"
       style="fill:#b1b1b1;fill-opacity:1"
       sodipodi:nodetypes="aaaaaaaa" />
    <path
       id="path913"
       d="M 7.4,7 C 7.3213332,6.8768904 7.2436924,6.7520989 7.15,6.64 7.0774451,6.5531911 6.9919732,6.4779769 6.91,6.4 6.8416037,6.3349381 6.6455597,6.2871192 6.7,6.21 6.841916,6.0089642 7.1668284,6.3956719 7.35,6.56 7.446352,6.64644 7.5316055,6.756382 7.57,6.88 7.610537,7.0105164 7.7018921,7.2541915 7.57,7.29 7.461863,7.319359 7.4603347,7.0944208 7.4,7 Z"
       class="cls-1"
       inkscape:connector-curvature="0"
       style="fill:#b1b1b1;fill-opacity:1"
       sodipodi:nodetypes="aaaaaaaa" />
  </g>
</svg>
