<?xml version="1.0" encoding="UTF-8" standalone="no"?>
<svg
   width="32"
   height="32"
   viewBox="0 0 8.4666666 8.4666666"
   version="1.1"
   id="svg8"
   inkscape:version="1.1 (c68e22c387, 2021-05-23)"
   sodipodi:docname="ungulate_leg.svg"
   inkscape:export-filename="D:\DEV_SRC\RxOT\DuAEF\DuAEF_Duik\icons\w128/w128_ungulate_leg.png"
   inkscape:export-xdpi="384.00003"
   inkscape:export-ydpi="384.00003"
   xmlns:inkscape="http://www.inkscape.org/namespaces/inkscape"
   xmlns:sodipodi="http://sodipodi.sourceforge.net/DTD/sodipodi-0.dtd"
   xmlns="http://www.w3.org/2000/svg"
   xmlns:svg="http://www.w3.org/2000/svg"
   xmlns:rdf="http://www.w3.org/1999/02/22-rdf-syntax-ns#"
   xmlns:cc="http://creativecommons.org/ns#"
   xmlns:dc="http://purl.org/dc/elements/1.1/">
  <defs
     id="defs2">
    <style
       id="style1399">.cls-1{fill:#e3e3e3;}</style>
    <style
       id="style1399-4">.cls-1{fill:#e3e3e3;}</style>
    <style
       id="style1399-8">.cls-1{fill:#e3e3e3;}</style>
    <style
       id="style1399-4-5">.cls-1{fill:#e3e3e3;}</style>
    <style
       id="style1399-0">.cls-1{fill:#e3e3e3;}</style>
    <style
       id="style854">.cls-1{fill:#e3e3e3;}</style>
    <style
       id="style1399-84">.cls-1{fill:#e3e3e3;}</style>
    <style
       id="style1399-4-8">.cls-1{fill:#e3e3e3;}</style>
    <style
       id="style1399-8-10">.cls-1{fill:#e3e3e3;}</style>
    <style
       id="style1399-4-5-3">.cls-1{fill:#e3e3e3;}</style>
    <style
       id="style1399-0-0">.cls-1{fill:#e3e3e3;}</style>
    <style
       id="style1399-5">.cls-1{fill:#e3e3e3;}</style>
    <style
       id="style1399-4-6">.cls-1{fill:#e3e3e3;}</style>
    <style
       id="style1399-8-1">.cls-1{fill:#e3e3e3;}</style>
    <style
       id="style1399-4-5-1">.cls-1{fill:#e3e3e3;}</style>
    <style
       id="style1399-0-5">.cls-1{fill:#e3e3e3;}</style>
    <style
       id="style1257">.cls-1{fill:#e3e3e3;}</style>
    <style
       id="style836">.cls-1{fill:#e3e3e3;}</style>
    <style
       id="style891">.cls-1{fill:#e3e3e3;}</style>
    <style
       id="style949">.cls-1{fill:#e3e3e3;}</style>
  </defs>
  <sodipodi:namedview
     id="base"
     pagecolor="#ffffff"
     bordercolor="#666666"
     borderopacity="1.0"
     inkscape:pageopacity="0.0"
     inkscape:pageshadow="2"
     inkscape:zoom="11.313708"
     inkscape:cx="-9.5017478"
     inkscape:cy="18.075418"
     inkscape:document-units="mm"
     inkscape:current-layer="svg8"
     showgrid="false"
     units="px"
     inkscape:window-width="1920"
     inkscape:window-height="1027"
     inkscape:window-x="-8"
     inkscape:window-y="-8"
     inkscape:window-maximized="1"
     inkscape:snap-bbox="true"
     inkscape:bbox-paths="true"
     inkscape:bbox-nodes="true"
     inkscape:snap-bbox-edge-midpoints="true"
     inkscape:snap-bbox-midpoints="true"
     inkscape:snap-nodes="true"
     inkscape:snap-others="true"
     inkscape:snap-object-midpoints="true"
     inkscape:snap-page="true"
     inkscape:document-rotation="0"
     inkscape:pagecheckerboard="1"
     inkscape:snap-global="false">
    <sodipodi:guide
       position="8.4666666,8.4666666"
       orientation="0,-32"
       id="guide856"
       inkscape:locked="false" />
    <sodipodi:guide
       position="0,8.4666814"
       orientation="32,0"
       id="guide858"
       inkscape:locked="false" />
  </sodipodi:namedview>
  <metadata
     id="metadata5">
    <rdf:RDF>
      <cc:Work
         rdf:about="">
        <dc:format>image/svg+xml</dc:format>
        <dc:type
           rdf:resource="http://purl.org/dc/dcmitype/StillImage" />
      </cc:Work>
    </rdf:RDF>
  </metadata>
  <path
     style="fill:#7878ec;fill-opacity:1;stroke:none;stroke-width:0.109896px;stroke-linecap:butt;stroke-linejoin:miter;stroke-opacity:1"
     d="M 4.1242803,6.9521905 C 4.268123,7.0397616 4.2890072,7.2148568 4.38729,7.3835382 4.4924277,7.5639845 4.2574117,7.5611496 3.9200807,7.5612407 3.6072331,7.5613253 3.7226297,7.4317068 3.701895,7.2973889 3.666475,7.067938 3.5733264,6.9245709 3.7016633,6.8460824 c 0.055161,-0.033736 0.1103525,0.071088 0.172635,0.08846 0.080464,0.022442 0.17863,-0.025791 0.249982,0.017648 z"
     id="path853"
     sodipodi:nodetypes="asssaaa" />
  <path
     style="fill:#78d6ec;fill-opacity:1;stroke:none;stroke-width:0.109896px;stroke-linecap:butt;stroke-linejoin:miter;stroke-opacity:1"
     d="M 3.9928828,6.8211632 C 3.8888893,6.9145332 3.8125729,6.7456742 3.7686259,6.666131 3.6688256,6.485495 3.7699596,6.2520236 3.7416483,6.0476026 3.6719465,5.5443243 3.4253147,4.8159961 3.3917033,4.5640712 3.3511949,4.2604516 3.7101822,3.7759508 3.7001304,4.505735 c -0.0021,0.1521216 -0.018152,0.223983 0.016263,0.3278463 0.048271,0.1456803 0.2107205,0.2359321 0.2562893,0.38248 0.1588774,0.5109449 0.1934341,1.4495637 0.0202,1.6051019 z"
     id="path851"
     sodipodi:nodetypes="saassaas" />
  <path
     style="fill:#ecd618;fill-opacity:1;stroke:none;stroke-width:0.109896px;stroke-linecap:butt;stroke-linejoin:miter;stroke-opacity:1"
     d="M 5.5473376,2.4891594 C 5.5409076,2.611697 5.5188456,2.76423 5.4525106,2.8776858 5.3017379,3.1355609 5.045412,3.1685974 4.7328476,3.657474 4.4202832,4.1463501 4.3153627,4.4195052 4.2824132,4.5517157 4.2494642,4.683926 4.1947775,4.763268 4.1274945,4.8007591 3.976474,4.8849098 3.8816836,4.9290049 3.8386191,4.7484825 3.8019275,4.5946741 3.8427831,4.4567781 3.9314466,4.323077 4.0476168,4.147897 4.0518891,4.0332412 4.2915372,3.6067787 4.4980188,3.239337 4.7787225,2.9345895 4.9357867,2.7252113 c 0.030169,-0.033496 0.085484,-0.050199 0.1328797,-0.050824 0.1666848,-0.0022 0.2266277,7.866e-4 0.350961,-0.067275 0.054627,-0.029904 0.096084,-0.071063 0.1277102,-0.1179529 z"
     id="path849"
     sodipodi:nodetypes="cssssssscssc" />
  <path
     style="fill:#ec7818;fill-opacity:1;stroke:none;stroke-width:0.109896px;stroke-linecap:butt;stroke-linejoin:miter;stroke-opacity:1"
     d="m 5.742907,1.8732899 c 0.091113,0.018142 0.1561461,0.1349864 0.1076738,0.3543974 -0.038177,0.1728046 -0.094793,0.2312995 -0.1472157,0.2086735 -0.015716,-0.00678 -0.031369,-0.05245 -0.043919,-0.1135914 0.01273,-0.037939 0.021547,-0.076955 0.025868,-0.1156745 0.00977,-0.087531 8.53e-4,-0.1799663 -0.03592,-0.263176 0.010564,-0.041608 0.027353,-0.070036 0.053271,-0.072726 0.013836,-0.00144 0.027223,-4.99e-4 0.04024,0.0021 z"
     id="path847" />
  <path
     style="fill:#ec7818;fill-opacity:1;stroke:none;stroke-width:0.109896px;stroke-linecap:butt;stroke-linejoin:miter;stroke-opacity:1"
     d="M 5.1663993,2.4842616 C 5.2729261,2.4964892 5.3651425,2.4654416 5.4323554,2.4116282 5.5730012,2.2990214 5.5789238,2.0094287 5.4345771,1.9066953 5.3404407,1.8396973 5.2784201,1.8353424 5.1615614,1.8240996 5.0447027,1.8128565 4.7279765,1.5744555 4.5215772,1.344884 4.3610779,1.1663656 4.3674889,1.1665575 4.2841108,1.0246932 4.2007326,0.8828289 3.9937396,0.79653435 3.8082707,0.91137505 3.6759819,0.99328722 3.6559745,1.2091613 3.6559745,1.2091613 c 0,0 -0.2401748,-0.00208 -0.1979184,0.2121777 0.024344,0.1234317 0.1866057,0.2100349 0.34566,0.035188 0.066564,-0.073173 0.2350408,0.051452 0.3775225,0.2154083 0.152326,0.1752843 0.4422159,0.4542167 0.633235,0.6252666 0.1285484,0.11511 0.2453991,0.1748321 0.3519257,0.1870597 z"
     id="path980"
     sodipodi:nodetypes="ssssssscsssss" />
</svg>
